M48
METRIC,TZ
T1C0.400
T2C0.750
T3C0.800
T4C0.950
T5C1.000
T6C1.100
T7C1.300
T8C1.500
%
G90
G05
T1
X97552Y-92385
X97582Y-80685
X105802Y-116205
X105842Y-102585
X105842Y-109205
X107492Y-81865
X109922Y-124945
X111562Y-92395
X113212Y-109255
X113212Y-116235
X114881Y-70926
X117272Y-80825
X117952Y-106255
X119432Y-100905
X121409Y-76349
X125242Y-105705
X125922Y-116885
X126002Y-117885
X127702Y-113565
X128305Y-80857
X128826Y-71015
X130622Y-107745
X130862Y-122055
X131482Y-94155
X135372Y-79625
X136352Y-112435
X141382Y-107745
X142282Y-72315
X145682Y-94955
X147602Y-97895
X149702Y-100145
X149782Y-94935
X152012Y-97405
X152512Y-111155
X152592Y-116905
X152842Y-72275
X153082Y-123185
X153252Y-104745
X153422Y-108505
X153632Y-100125
X154012Y-94965
X154462Y-109515
X156392Y-97535
X156772Y-112325
X157712Y-93075
X158712Y-104785
X158822Y-106515
X159122Y-85575
X159452Y-88105
X159742Y-100655
X159852Y-72295
X159882Y-97745
X160002Y-123095
X160062Y-94845
X160832Y-111025
X162102Y-102305
X163032Y-82845
X164722Y-94895
X164902Y-72245
X165052Y-123095
X165082Y-97725
X165502Y-100685
X166642Y-112455
X168162Y-93055
X168992Y-104735
X169047Y-106380
X169072Y-86595
X169702Y-88145
X170002Y-72295
X170032Y-100615
X170212Y-97705
X170252Y-123145
X170382Y-94865
X170762Y-111025
X172292Y-102315
X173162Y-82845
X174862Y-94905
X175102Y-72295
X175252Y-123195
X175272Y-97805
X175682Y-100715
X176842Y-112475
X178222Y-93075
X179142Y-86725
X179157Y-106370
X179162Y-104715
X179782Y-88125
X180152Y-72295
X180222Y-100595
X180352Y-123195
X180392Y-97685
X180512Y-94845
X180972Y-111035
X181312Y-90835
X182442Y-102335
X183512Y-82845
X184992Y-94925
X185202Y-72295
X185352Y-123195
X185402Y-97835
X185842Y-100685
X186992Y-112455
X188372Y-93075
X189332Y-104765
X189402Y-106395
X189422Y-86695
X190142Y-88125
X190202Y-72295
X190382Y-100595
X190502Y-123195
X190642Y-97665
X190722Y-94865
X191052Y-111075
X191772Y-90815
X192672Y-102355
X192882Y-84095
X195772Y-97935
X195852Y-94895
X196152Y-100645
X198702Y-76495
X198782Y-81545
X198802Y-119145
X198812Y-97805
X198822Y-86635
X198832Y-92245
X198832Y-110335
X198862Y-114685
X198872Y-103915
T2
X107959Y-86446
X107959Y-87716
X107959Y-88986
T3
X106102Y-95455
X106102Y-97995
X106102Y-120855
X106102Y-123395
X108642Y-95455
X108642Y-97995
X108642Y-120855
X108642Y-123395
X111182Y-95455
X111182Y-97995
X111182Y-120855
X111182Y-123395
X113722Y-95455
X113722Y-97995
X113722Y-120855
X113722Y-123395
X116262Y-95455
X116262Y-97995
X116262Y-120855
X116262Y-123395
X118802Y-95455
X118802Y-97995
X118802Y-120855
X118802Y-123395
X121342Y-95455
X121342Y-97995
X121342Y-120855
X121342Y-123395
X123882Y-95455
X123882Y-97995
X123882Y-120855
X123882Y-123395
X126422Y-95455
X126422Y-97995
X126422Y-120855
X126422Y-123395
X128962Y-95455
X128962Y-97995
X128962Y-120855
X128962Y-123395
T4
X139262Y-119465
X139382Y-98575
X141762Y-119465
X141882Y-98575
X144262Y-119465
X144382Y-98575
X146762Y-119465
T5
X115402Y-89895
X147302Y-106185
X147302Y-112695
X149842Y-106185
X149842Y-112695
T6
X133080Y-88402
X135620Y-88402
X137474Y-73437
X137474Y-75977
X137474Y-78517
X138160Y-88402
T7
X103052Y-73715
X103052Y-78715
X157242Y-75187
X157392Y-120225
X162322Y-75187
X162472Y-120225
X167392Y-75185
X167572Y-120225
X172472Y-75185
X172652Y-120225
X177542Y-75175
X177742Y-120225
X182622Y-75175
X182822Y-120225
X187692Y-75165
X187912Y-120225
X192772Y-75165
X192992Y-120225
T8
X110251Y-75672
X132851Y-75672
T0
M30
