G04 #@! TF.GenerationSoftware,KiCad,Pcbnew,5.1.12-84ad8e8a86~92~ubuntu20.04.1*
G04 #@! TF.CreationDate,2021-11-07T22:28:23+01:00*
G04 #@! TF.ProjectId,CC dimmer low voltage,43432064-696d-46d6-9572-206c6f772076,0.80*
G04 #@! TF.SameCoordinates,Original*
G04 #@! TF.FileFunction,Soldermask,Bot*
G04 #@! TF.FilePolarity,Negative*
%FSLAX46Y46*%
G04 Gerber Fmt 4.6, Leading zero omitted, Abs format (unit mm)*
G04 Created by KiCad (PCBNEW 5.1.12-84ad8e8a86~92~ubuntu20.04.1) date 2021-11-07 22:28:23*
%MOMM*%
%LPD*%
G01*
G04 APERTURE LIST*
%ADD10C,1.400000*%
%ADD11O,2.000000X1.905000*%
%ADD12R,2.000000X1.905000*%
%ADD13C,3.000000*%
%ADD14R,1.700000X1.700000*%
%ADD15C,3.200000*%
%ADD16O,1.700000X1.950000*%
%ADD17O,1.500000X1.050000*%
%ADD18R,1.500000X1.050000*%
%ADD19R,1.905000X2.000000*%
%ADD20O,1.905000X2.000000*%
%ADD21R,2.600000X2.600000*%
%ADD22C,2.600000*%
%ADD23C,2.500000*%
%ADD24R,2.500000X2.500000*%
G04 APERTURE END LIST*
D10*
X135442000Y-82845000D03*
X135442000Y-85385000D03*
X132902000Y-82845000D03*
X132902000Y-85385000D03*
X130362000Y-82845000D03*
X130362000Y-85385000D03*
X127822000Y-82845000D03*
X127822000Y-85385000D03*
X125282000Y-82845000D03*
X125282000Y-85385000D03*
X122742000Y-82845000D03*
X122742000Y-85385000D03*
X120202000Y-82845000D03*
X120202000Y-85385000D03*
X117662000Y-82845000D03*
X117662000Y-85385000D03*
X115122000Y-82845000D03*
X115122000Y-85385000D03*
X112582000Y-82845000D03*
X112582000Y-85385000D03*
X135442000Y-108245000D03*
X135442000Y-110785000D03*
X132902000Y-108245000D03*
X132902000Y-110785000D03*
X130362000Y-108245000D03*
X130362000Y-110785000D03*
X127822000Y-108245000D03*
X127822000Y-110785000D03*
X125282000Y-108245000D03*
X125282000Y-110785000D03*
X122742000Y-108245000D03*
X122742000Y-110785000D03*
X120202000Y-108245000D03*
X120202000Y-110785000D03*
X117662000Y-108245000D03*
X117662000Y-110785000D03*
X115122000Y-108245000D03*
X115122000Y-110785000D03*
X112582000Y-110785000D03*
X112582000Y-108245000D03*
D11*
X144224200Y-63017000D03*
X144224200Y-60477000D03*
D12*
X144224200Y-57937000D03*
D13*
X139601400Y-60172200D03*
X117001400Y-60172200D03*
D14*
X156362000Y-100575000D03*
X156372000Y-93155000D03*
D15*
X205532000Y-55995000D03*
X104912000Y-83195000D03*
X205532000Y-110315000D03*
G36*
G01*
X145012000Y-86690000D02*
X145012000Y-85240000D01*
G75*
G02*
X145262000Y-84990000I250000J0D01*
G01*
X146462000Y-84990000D01*
G75*
G02*
X146712000Y-85240000I0J-250000D01*
G01*
X146712000Y-86690000D01*
G75*
G02*
X146462000Y-86940000I-250000J0D01*
G01*
X145262000Y-86940000D01*
G75*
G02*
X145012000Y-86690000I0J250000D01*
G01*
G37*
D16*
X148362000Y-85965000D03*
X150862000Y-85965000D03*
G36*
G01*
X144892000Y-107580000D02*
X144892000Y-106130000D01*
G75*
G02*
X145142000Y-105880000I250000J0D01*
G01*
X146342000Y-105880000D01*
G75*
G02*
X146592000Y-106130000I0J-250000D01*
G01*
X146592000Y-107580000D01*
G75*
G02*
X146342000Y-107830000I-250000J0D01*
G01*
X145142000Y-107830000D01*
G75*
G02*
X144892000Y-107580000I0J250000D01*
G01*
G37*
X148242000Y-106855000D03*
X150742000Y-106855000D03*
X153242000Y-106855000D03*
D14*
X153832000Y-93155000D03*
X153822000Y-100575000D03*
X122152000Y-74395000D03*
D17*
X114709400Y-72216000D03*
X114709400Y-70946000D03*
D18*
X114709400Y-73486000D03*
D19*
X144910000Y-72901800D03*
D20*
X142370000Y-72901800D03*
X139830000Y-72901800D03*
D21*
X109802000Y-58215000D03*
D22*
X109802000Y-63215000D03*
D23*
X163992000Y-60687000D03*
D24*
X169072000Y-60687000D03*
X179222000Y-60685000D03*
D23*
X174142000Y-60685000D03*
X184292000Y-60675000D03*
D24*
X189372000Y-60675000D03*
X199522000Y-60665000D03*
D23*
X194442000Y-60665000D03*
D24*
X194662000Y-105725000D03*
D23*
X199742000Y-105725000D03*
X189572000Y-105725000D03*
D24*
X184492000Y-105725000D03*
X174322000Y-105725000D03*
D23*
X179402000Y-105725000D03*
X169222000Y-105725000D03*
D24*
X164142000Y-105725000D03*
M02*
