G04 #@! TF.GenerationSoftware,KiCad,Pcbnew,5.1.12-84ad8e8a86~92~ubuntu20.04.1*
G04 #@! TF.CreationDate,2021-11-09T00:40:45+01:00*
G04 #@! TF.ProjectId,CC dimmer low voltage,43432064-696d-46d6-9572-206c6f772076,0.80*
G04 #@! TF.SameCoordinates,Original*
G04 #@! TF.FileFunction,Copper,L2,Bot*
G04 #@! TF.FilePolarity,Positive*
%FSLAX46Y46*%
G04 Gerber Fmt 4.6, Leading zero omitted, Abs format (unit mm)*
G04 Created by KiCad (PCBNEW 5.1.12-84ad8e8a86~92~ubuntu20.04.1) date 2021-11-09 00:40:45*
%MOMM*%
%LPD*%
G01*
G04 APERTURE LIST*
G04 #@! TA.AperFunction,ComponentPad*
%ADD10C,1.400000*%
G04 #@! TD*
G04 #@! TA.AperFunction,ComponentPad*
%ADD11O,2.000000X1.905000*%
G04 #@! TD*
G04 #@! TA.AperFunction,ComponentPad*
%ADD12R,2.000000X1.905000*%
G04 #@! TD*
G04 #@! TA.AperFunction,ComponentPad*
%ADD13C,3.000000*%
G04 #@! TD*
G04 #@! TA.AperFunction,ComponentPad*
%ADD14R,1.700000X1.700000*%
G04 #@! TD*
G04 #@! TA.AperFunction,ComponentPad*
%ADD15O,1.700000X1.950000*%
G04 #@! TD*
G04 #@! TA.AperFunction,ComponentPad*
%ADD16O,1.500000X1.050000*%
G04 #@! TD*
G04 #@! TA.AperFunction,ComponentPad*
%ADD17R,1.500000X1.050000*%
G04 #@! TD*
G04 #@! TA.AperFunction,ComponentPad*
%ADD18R,1.905000X2.000000*%
G04 #@! TD*
G04 #@! TA.AperFunction,ComponentPad*
%ADD19O,1.905000X2.000000*%
G04 #@! TD*
G04 #@! TA.AperFunction,ComponentPad*
%ADD20R,2.600000X2.600000*%
G04 #@! TD*
G04 #@! TA.AperFunction,ComponentPad*
%ADD21C,2.600000*%
G04 #@! TD*
G04 #@! TA.AperFunction,ComponentPad*
%ADD22C,2.500000*%
G04 #@! TD*
G04 #@! TA.AperFunction,ComponentPad*
%ADD23R,2.500000X2.500000*%
G04 #@! TD*
G04 #@! TA.AperFunction,ViaPad*
%ADD24C,0.800000*%
G04 #@! TD*
G04 #@! TA.AperFunction,Conductor*
%ADD25C,0.800000*%
G04 #@! TD*
G04 #@! TA.AperFunction,Conductor*
%ADD26C,0.254000*%
G04 #@! TD*
G04 #@! TA.AperFunction,Conductor*
%ADD27C,0.150000*%
G04 #@! TD*
G04 APERTURE END LIST*
D10*
X128962000Y-95455000D03*
X128962000Y-97995000D03*
X126422000Y-95455000D03*
X126422000Y-97995000D03*
X123882000Y-95455000D03*
X123882000Y-97995000D03*
X121342000Y-95455000D03*
X121342000Y-97995000D03*
X118802000Y-95455000D03*
X118802000Y-97995000D03*
X116262000Y-95455000D03*
X116262000Y-97995000D03*
X113722000Y-95455000D03*
X113722000Y-97995000D03*
X111182000Y-95455000D03*
X111182000Y-97995000D03*
X108642000Y-95455000D03*
X108642000Y-97995000D03*
X106102000Y-95455000D03*
X106102000Y-97995000D03*
X128962000Y-120855000D03*
X128962000Y-123395000D03*
X126422000Y-120855000D03*
X126422000Y-123395000D03*
X123882000Y-120855000D03*
X123882000Y-123395000D03*
X121342000Y-120855000D03*
X121342000Y-123395000D03*
X118802000Y-120855000D03*
X118802000Y-123395000D03*
X116262000Y-120855000D03*
X116262000Y-123395000D03*
X113722000Y-120855000D03*
X113722000Y-123395000D03*
X111182000Y-120855000D03*
X111182000Y-123395000D03*
X108642000Y-120855000D03*
X108642000Y-123395000D03*
X106102000Y-123395000D03*
X106102000Y-120855000D03*
D11*
X137474200Y-78517000D03*
X137474200Y-75977000D03*
D12*
X137474200Y-73437000D03*
D13*
X132851400Y-75672200D03*
X110251400Y-75672200D03*
D14*
X149842000Y-112695000D03*
X149842000Y-106185000D03*
G04 #@! TA.AperFunction,ComponentPad*
G36*
G01*
X138532000Y-99300000D02*
X138532000Y-97850000D01*
G75*
G02*
X138782000Y-97600000I250000J0D01*
G01*
X139982000Y-97600000D01*
G75*
G02*
X140232000Y-97850000I0J-250000D01*
G01*
X140232000Y-99300000D01*
G75*
G02*
X139982000Y-99550000I-250000J0D01*
G01*
X138782000Y-99550000D01*
G75*
G02*
X138532000Y-99300000I0J250000D01*
G01*
G37*
G04 #@! TD.AperFunction*
D15*
X141882000Y-98575000D03*
X144382000Y-98575000D03*
G04 #@! TA.AperFunction,ComponentPad*
G36*
G01*
X138412000Y-120190000D02*
X138412000Y-118740000D01*
G75*
G02*
X138662000Y-118490000I250000J0D01*
G01*
X139862000Y-118490000D01*
G75*
G02*
X140112000Y-118740000I0J-250000D01*
G01*
X140112000Y-120190000D01*
G75*
G02*
X139862000Y-120440000I-250000J0D01*
G01*
X138662000Y-120440000D01*
G75*
G02*
X138412000Y-120190000I0J250000D01*
G01*
G37*
G04 #@! TD.AperFunction*
X141762000Y-119465000D03*
X144262000Y-119465000D03*
X146762000Y-119465000D03*
D14*
X147302000Y-106185000D03*
X147302000Y-112695000D03*
X115402000Y-89895000D03*
D16*
X107959400Y-87716000D03*
X107959400Y-86446000D03*
D17*
X107959400Y-88986000D03*
D18*
X138160000Y-88401800D03*
D19*
X135620000Y-88401800D03*
X133080000Y-88401800D03*
D20*
X103052000Y-73715000D03*
D21*
X103052000Y-78715000D03*
D22*
X157242000Y-75187000D03*
D23*
X162322000Y-75187000D03*
X172472000Y-75185000D03*
D22*
X167392000Y-75185000D03*
X177542000Y-75175000D03*
D23*
X182622000Y-75175000D03*
X192772000Y-75165000D03*
D22*
X187692000Y-75165000D03*
D23*
X187912000Y-120225000D03*
D22*
X192992000Y-120225000D03*
X182822000Y-120225000D03*
D23*
X177742000Y-120225000D03*
X167572000Y-120225000D03*
D22*
X172652000Y-120225000D03*
X162472000Y-120225000D03*
D23*
X157392000Y-120225000D03*
D24*
X97092000Y-92395000D03*
X142282000Y-72315000D03*
X152842000Y-72275000D03*
X198702000Y-76495000D03*
X198822000Y-86635000D03*
X198812000Y-97805000D03*
X198802000Y-119145000D03*
X198832000Y-110335000D03*
X151852000Y-111045000D03*
X105802000Y-116205000D03*
X128304800Y-80857100D03*
X128825500Y-71014600D03*
X114880900Y-70925700D03*
X121408700Y-76348600D03*
X97172000Y-69665000D03*
X117272000Y-80825000D03*
X97112000Y-80695000D03*
X158712000Y-104785000D03*
X168992000Y-104735000D03*
X179162000Y-104715000D03*
X189332000Y-104765000D03*
X192672000Y-102375000D03*
X182442000Y-102335000D03*
X172292000Y-102315000D03*
X162102000Y-102305000D03*
X160842000Y-91335000D03*
X157732000Y-93125000D03*
X168162000Y-93155000D03*
X178222000Y-93075000D03*
X188372000Y-93075000D03*
X191772000Y-90815000D03*
X181312000Y-90835000D03*
X171202000Y-90845000D03*
X130342000Y-113265000D03*
X135752000Y-113265000D03*
X105752000Y-108405000D03*
X115142000Y-112615000D03*
X153082000Y-123185000D03*
X168212000Y-111185000D03*
X158132000Y-111185000D03*
X178432000Y-111255000D03*
X188242000Y-111255000D03*
X161222000Y-84135000D03*
X171572000Y-84065000D03*
X191172000Y-84085000D03*
X181602000Y-84085000D03*
X153102000Y-118725000D03*
X107492000Y-81865000D03*
X107042000Y-92395000D03*
X165052000Y-123095000D03*
X160002000Y-123095000D03*
X170252000Y-123145000D03*
X175252000Y-123195000D03*
X180352000Y-123195000D03*
X185352000Y-123195000D03*
X190502000Y-123195000D03*
X159852000Y-72295000D03*
X164902000Y-72245000D03*
X170002000Y-72295000D03*
X175102000Y-72295000D03*
X180152000Y-72295000D03*
X185202000Y-72295000D03*
X190202000Y-72295000D03*
X109922000Y-124945000D03*
X130862000Y-122055000D03*
X141382000Y-107745000D03*
X135372000Y-79625000D03*
X195772000Y-97935000D03*
X190642000Y-97665000D03*
X180392000Y-97685000D03*
X170212000Y-97705000D03*
X159882000Y-97745000D03*
X153702000Y-94945000D03*
X149702000Y-100145000D03*
X190722000Y-94865000D03*
X190382000Y-100595000D03*
X180222000Y-100595000D03*
X180512000Y-94845000D03*
X185402000Y-97835000D03*
X175272000Y-97805000D03*
X170382000Y-94865000D03*
X170032000Y-100615000D03*
X165082000Y-97725000D03*
X160062000Y-94845000D03*
X159742000Y-100655000D03*
X156392000Y-97535000D03*
X153632000Y-100125000D03*
X174862000Y-94905000D03*
X184992000Y-94925000D03*
X185842000Y-100685000D03*
X175682000Y-100715000D03*
X165502000Y-100685000D03*
X196152000Y-100645000D03*
X195852000Y-94895000D03*
X151632000Y-97525000D03*
X131481999Y-94154999D03*
X126002000Y-117885000D03*
X125922000Y-116884990D03*
X159022000Y-88105000D03*
X119442008Y-100905008D03*
X169412000Y-88145000D03*
X179612000Y-88125000D03*
X189962000Y-88125000D03*
X189402000Y-106395000D03*
X154462000Y-109515030D03*
X179157000Y-106370000D03*
X153422000Y-108505000D03*
X169047000Y-106380000D03*
X153252011Y-104745011D03*
X158822000Y-106515000D03*
D25*
X137474200Y-73437000D02*
X136620000Y-73437000D01*
X135372000Y-74685000D02*
X135372000Y-79625000D01*
X136620000Y-73437000D02*
X135372000Y-74685000D01*
X115022001Y-94154999D02*
X131481999Y-94154999D01*
X113722000Y-95455000D02*
X115022001Y-94154999D01*
X131481999Y-94154999D02*
X131481999Y-94154999D01*
X121342000Y-120855000D02*
X121342000Y-120089228D01*
X121966228Y-119465000D02*
X139262000Y-119465000D01*
X121342000Y-120089228D02*
X121966228Y-119465000D01*
X141762000Y-119465000D02*
X141762000Y-119437902D01*
X141762000Y-119437902D02*
X140209098Y-117885000D01*
X140209098Y-117885000D02*
X126002000Y-117885000D01*
X126002000Y-117885000D02*
X126002000Y-117885000D01*
X144262000Y-119465000D02*
X141681990Y-116884990D01*
X141681990Y-116884990D02*
X140623315Y-116884990D01*
X140623315Y-116884990D02*
X125922000Y-116884990D01*
X125922000Y-116884990D02*
X125922000Y-116884990D01*
X159022000Y-88105000D02*
X159022000Y-88105000D01*
X159022000Y-88105000D02*
X145592000Y-88105000D01*
X133072000Y-100625000D02*
X132791992Y-100905008D01*
X132791992Y-100905008D02*
X119442008Y-100905008D01*
X145592000Y-88105000D02*
X133072000Y-100625000D01*
X119442008Y-100905008D02*
X119442008Y-100905008D01*
X169412000Y-88145000D02*
X169412000Y-88145000D01*
X159501990Y-87104990D02*
X145177784Y-87104990D01*
X160542000Y-88145000D02*
X159501990Y-87104990D01*
X169412000Y-88145000D02*
X160542000Y-88145000D01*
X116262000Y-97995000D02*
X116262000Y-99395000D01*
X116262000Y-99395000D02*
X116772000Y-99905000D01*
X116772000Y-99905000D02*
X132377774Y-99905000D01*
X132377774Y-99905000D02*
X132519887Y-99762887D01*
X145177784Y-87104990D02*
X132519887Y-99762887D01*
X179612000Y-88125000D02*
X179612000Y-88125000D01*
X170846227Y-88125000D02*
X179612000Y-88125000D01*
X170334114Y-88637114D02*
X170846227Y-88125000D01*
X169826217Y-89145010D02*
X170334114Y-88637114D01*
X169826218Y-89145010D02*
X170334114Y-88637114D01*
X156091990Y-89145010D02*
X169826218Y-89145010D01*
X155802010Y-89330613D02*
X155906387Y-89330613D01*
X125852018Y-107524982D02*
X137607641Y-107524982D01*
X137607641Y-107524982D02*
X155802010Y-89330613D01*
X113722000Y-119655000D02*
X125852018Y-107524982D01*
X155906387Y-89330613D02*
X156091990Y-89145010D01*
X113722000Y-120855000D02*
X113722000Y-119655000D01*
X189962000Y-88125000D02*
X189962000Y-88125000D01*
X181026227Y-88125000D02*
X189962000Y-88125000D01*
X180026217Y-89125010D02*
X181026227Y-88125000D01*
X171260445Y-89125010D02*
X180026217Y-89125010D01*
X170054832Y-90330623D02*
X171260445Y-89125010D01*
X156216226Y-90330623D02*
X170054832Y-90330623D01*
X138021859Y-108524990D02*
X156216226Y-90330623D01*
X127392010Y-108524990D02*
X138021859Y-108524990D01*
X116262000Y-119655000D02*
X127392010Y-108524990D01*
X116262000Y-120855000D02*
X116262000Y-119655000D01*
X189402000Y-106395000D02*
X186281970Y-109515030D01*
X186281970Y-109515030D02*
X160064651Y-109515030D01*
X160064651Y-109515030D02*
X154462000Y-109515030D01*
X154462000Y-109515030D02*
X154462000Y-109515030D01*
X154512000Y-108515020D02*
X154512000Y-108515020D01*
X154512000Y-108515020D02*
X154512000Y-108515020D01*
X153432020Y-108515020D02*
X153422000Y-108505000D01*
X177011980Y-108515020D02*
X153432020Y-108515020D01*
X179157000Y-106370000D02*
X177011980Y-108515020D01*
X154242010Y-107515010D02*
X167911990Y-107515010D01*
X154231999Y-107504999D02*
X154242010Y-107515010D01*
X152462001Y-107504999D02*
X154231999Y-107504999D01*
X128932000Y-109525000D02*
X150442000Y-109525000D01*
X167911990Y-107515010D02*
X169047000Y-106380000D01*
X118802000Y-119655000D02*
X128932000Y-109525000D01*
X150442000Y-109525000D02*
X152462001Y-107504999D01*
X118802000Y-120855000D02*
X118802000Y-119655000D01*
X155022000Y-106515000D02*
X153252011Y-104745011D01*
X158822000Y-106515000D02*
X155022000Y-106515000D01*
D26*
X196415718Y-94301895D02*
X196454278Y-101098143D01*
X148593575Y-101151607D01*
X148604878Y-99405681D01*
X153744202Y-94266357D01*
X196415718Y-94301895D01*
G04 #@! TA.AperFunction,Conductor*
D27*
G36*
X196415718Y-94301895D02*
G01*
X196454278Y-101098143D01*
X148593575Y-101151607D01*
X148604878Y-99405681D01*
X153744202Y-94266357D01*
X196415718Y-94301895D01*
G37*
G04 #@! TD.AperFunction*
D26*
X195175000Y-69432073D02*
X195175000Y-73945000D01*
X195177440Y-73969776D01*
X195184667Y-73993601D01*
X195196403Y-74015557D01*
X195212197Y-74034803D01*
X195231443Y-74050597D01*
X195253399Y-74062333D01*
X195277224Y-74069560D01*
X195302000Y-74072000D01*
X197388507Y-74072000D01*
X197663331Y-74255631D01*
X198070075Y-74424110D01*
X198501872Y-74510000D01*
X198942128Y-74510000D01*
X199373925Y-74424110D01*
X199780669Y-74255631D01*
X200055493Y-74072000D01*
X201577000Y-74072000D01*
X201577000Y-93439848D01*
X154528615Y-93481945D01*
X156644937Y-91365623D01*
X170004004Y-91365623D01*
X170054832Y-91370629D01*
X170105660Y-91365623D01*
X170105670Y-91365623D01*
X170257727Y-91350647D01*
X170452825Y-91291464D01*
X170632629Y-91195357D01*
X170790228Y-91066019D01*
X170822639Y-91026526D01*
X171689156Y-90160010D01*
X179975389Y-90160010D01*
X180026217Y-90165016D01*
X180077045Y-90160010D01*
X180077055Y-90160010D01*
X180229112Y-90145034D01*
X180424210Y-90085851D01*
X180604014Y-89989744D01*
X180761613Y-89860406D01*
X180794024Y-89820913D01*
X181454938Y-89160000D01*
X190063939Y-89160000D01*
X190114057Y-89150031D01*
X190164895Y-89145024D01*
X190213777Y-89130196D01*
X190263898Y-89120226D01*
X190311113Y-89100669D01*
X190359993Y-89085841D01*
X190405042Y-89061762D01*
X190452256Y-89042205D01*
X190494746Y-89013814D01*
X190539797Y-88989734D01*
X190579284Y-88957328D01*
X190621774Y-88928937D01*
X190657908Y-88892803D01*
X190697396Y-88860396D01*
X190729805Y-88820906D01*
X190765937Y-88784774D01*
X190794328Y-88742284D01*
X190826734Y-88702797D01*
X190850814Y-88657746D01*
X190879205Y-88615256D01*
X190898762Y-88568042D01*
X190922841Y-88522993D01*
X190937669Y-88474113D01*
X190957226Y-88426898D01*
X190967196Y-88376777D01*
X190982024Y-88327895D01*
X190987031Y-88277057D01*
X190997000Y-88226939D01*
X190997000Y-88175838D01*
X191002007Y-88125000D01*
X190997000Y-88074162D01*
X190997000Y-88023061D01*
X190987031Y-87972943D01*
X190982024Y-87922105D01*
X190967196Y-87873223D01*
X190957226Y-87823102D01*
X190937669Y-87775887D01*
X190922841Y-87727007D01*
X190898762Y-87681958D01*
X190879205Y-87634744D01*
X190850814Y-87592254D01*
X190826734Y-87547203D01*
X190794328Y-87507716D01*
X190765937Y-87465226D01*
X190729803Y-87429092D01*
X190697396Y-87389604D01*
X190657908Y-87357197D01*
X190621774Y-87321063D01*
X190579284Y-87292672D01*
X190539797Y-87260266D01*
X190494746Y-87236186D01*
X190452256Y-87207795D01*
X190405042Y-87188238D01*
X190359993Y-87164159D01*
X190311113Y-87149331D01*
X190263898Y-87129774D01*
X190213777Y-87119804D01*
X190164895Y-87104976D01*
X190114057Y-87099969D01*
X190063939Y-87090000D01*
X181077062Y-87090000D01*
X181026227Y-87084993D01*
X180975392Y-87090000D01*
X180975389Y-87090000D01*
X180823332Y-87104976D01*
X180628234Y-87164159D01*
X180590817Y-87184159D01*
X180448429Y-87260266D01*
X180354689Y-87337197D01*
X180319114Y-87366393D01*
X180307908Y-87357197D01*
X180271774Y-87321063D01*
X180229284Y-87292672D01*
X180189797Y-87260266D01*
X180144746Y-87236186D01*
X180102256Y-87207795D01*
X180055042Y-87188238D01*
X180009993Y-87164159D01*
X179961113Y-87149331D01*
X179913898Y-87129774D01*
X179863777Y-87119804D01*
X179814895Y-87104976D01*
X179764057Y-87099969D01*
X179713939Y-87090000D01*
X170897061Y-87090000D01*
X170846226Y-87084993D01*
X170795391Y-87090000D01*
X170795389Y-87090000D01*
X170643332Y-87104976D01*
X170448234Y-87164159D01*
X170268430Y-87260266D01*
X170116928Y-87384600D01*
X170107908Y-87377197D01*
X170071774Y-87341063D01*
X170029284Y-87312672D01*
X169989797Y-87280266D01*
X169944746Y-87256186D01*
X169902256Y-87227795D01*
X169855042Y-87208238D01*
X169809993Y-87184159D01*
X169761113Y-87169331D01*
X169713898Y-87149774D01*
X169663777Y-87139804D01*
X169614895Y-87124976D01*
X169564057Y-87119969D01*
X169513939Y-87110000D01*
X160970711Y-87110000D01*
X160269797Y-86409087D01*
X160237386Y-86369594D01*
X160079787Y-86240256D01*
X159899983Y-86144149D01*
X159704885Y-86084966D01*
X159552828Y-86069990D01*
X159552818Y-86069990D01*
X159501990Y-86064984D01*
X159451162Y-86069990D01*
X145228619Y-86069990D01*
X145177784Y-86064983D01*
X145126949Y-86069990D01*
X145126946Y-86069990D01*
X144974889Y-86084966D01*
X144825199Y-86130375D01*
X144779790Y-86144149D01*
X144599986Y-86240256D01*
X144481876Y-86337187D01*
X144442388Y-86369594D01*
X144409981Y-86409082D01*
X131949064Y-98870000D01*
X129974975Y-98870000D01*
X129998962Y-98846013D01*
X130145061Y-98627359D01*
X130245696Y-98384405D01*
X130297000Y-98126486D01*
X130297000Y-97863514D01*
X130245696Y-97605595D01*
X130145061Y-97362641D01*
X129998962Y-97143987D01*
X129813013Y-96958038D01*
X129594359Y-96811939D01*
X129384470Y-96725000D01*
X129594359Y-96638061D01*
X129813013Y-96491962D01*
X129998962Y-96306013D01*
X130145061Y-96087359D01*
X130245696Y-95844405D01*
X130297000Y-95586486D01*
X130297000Y-95323514D01*
X130270442Y-95189999D01*
X131583938Y-95189999D01*
X131634056Y-95180030D01*
X131684894Y-95175023D01*
X131733776Y-95160195D01*
X131783897Y-95150225D01*
X131831112Y-95130668D01*
X131879992Y-95115840D01*
X131925041Y-95091761D01*
X131972255Y-95072204D01*
X132014745Y-95043813D01*
X132059796Y-95019733D01*
X132099283Y-94987327D01*
X132141773Y-94958936D01*
X132177907Y-94922802D01*
X132217395Y-94890395D01*
X132249802Y-94850907D01*
X132285936Y-94814773D01*
X132314327Y-94772283D01*
X132346733Y-94732796D01*
X132370813Y-94687745D01*
X132399204Y-94645255D01*
X132418761Y-94598041D01*
X132442840Y-94552992D01*
X132457668Y-94504112D01*
X132477225Y-94456897D01*
X132487195Y-94406776D01*
X132502023Y-94357894D01*
X132507030Y-94307056D01*
X132516999Y-94256938D01*
X132516999Y-94205837D01*
X132522006Y-94154999D01*
X132516999Y-94104161D01*
X132516999Y-94053060D01*
X132507030Y-94002942D01*
X132502023Y-93952104D01*
X132487195Y-93903222D01*
X132477225Y-93853101D01*
X132457668Y-93805886D01*
X132442840Y-93757006D01*
X132418761Y-93711957D01*
X132399204Y-93664743D01*
X132370813Y-93622253D01*
X132346733Y-93577202D01*
X132314327Y-93537715D01*
X132285936Y-93495225D01*
X132249802Y-93459091D01*
X132217395Y-93419603D01*
X132177907Y-93387196D01*
X132141773Y-93351062D01*
X132099283Y-93322671D01*
X132059796Y-93290265D01*
X132014745Y-93266185D01*
X131972255Y-93237794D01*
X131925041Y-93218237D01*
X131879992Y-93194158D01*
X131831112Y-93179330D01*
X131783897Y-93159773D01*
X131733776Y-93149803D01*
X131684894Y-93134975D01*
X131634056Y-93129968D01*
X131583938Y-93119999D01*
X115072828Y-93119999D01*
X115022000Y-93114993D01*
X114971172Y-93119999D01*
X114971163Y-93119999D01*
X114819106Y-93134975D01*
X114624008Y-93194158D01*
X114542371Y-93237794D01*
X114444203Y-93290265D01*
X114326093Y-93387196D01*
X114286605Y-93419603D01*
X114254198Y-93459091D01*
X113593290Y-94120000D01*
X113590514Y-94120000D01*
X113332595Y-94171304D01*
X113089641Y-94271939D01*
X112870987Y-94418038D01*
X112685038Y-94603987D01*
X112538939Y-94822641D01*
X112452000Y-95032530D01*
X112365061Y-94822641D01*
X112218962Y-94603987D01*
X112033013Y-94418038D01*
X111814359Y-94271939D01*
X111571405Y-94171304D01*
X111313486Y-94120000D01*
X111050514Y-94120000D01*
X110792595Y-94171304D01*
X110549641Y-94271939D01*
X110330987Y-94418038D01*
X110145038Y-94603987D01*
X109998939Y-94822641D01*
X109912000Y-95032530D01*
X109825061Y-94822641D01*
X109678962Y-94603987D01*
X109493013Y-94418038D01*
X109274359Y-94271939D01*
X109031405Y-94171304D01*
X108773486Y-94120000D01*
X108510514Y-94120000D01*
X108252595Y-94171304D01*
X108009641Y-94271939D01*
X107790987Y-94418038D01*
X107605038Y-94603987D01*
X107458939Y-94822641D01*
X107370379Y-95036444D01*
X107310935Y-94873634D01*
X107257037Y-94772797D01*
X107023269Y-94713336D01*
X106281605Y-95455000D01*
X107023269Y-96196664D01*
X107257037Y-96137203D01*
X107367934Y-95898758D01*
X107372706Y-95879173D01*
X107458939Y-96087359D01*
X107605038Y-96306013D01*
X107790987Y-96491962D01*
X108009641Y-96638061D01*
X108219530Y-96725000D01*
X108009641Y-96811939D01*
X107790987Y-96958038D01*
X107605038Y-97143987D01*
X107458939Y-97362641D01*
X107372000Y-97572530D01*
X107285061Y-97362641D01*
X107138962Y-97143987D01*
X106953013Y-96958038D01*
X106734359Y-96811939D01*
X106520556Y-96723379D01*
X106683366Y-96663935D01*
X106784203Y-96610037D01*
X106843664Y-96376269D01*
X106102000Y-95634605D01*
X105360336Y-96376269D01*
X105419797Y-96610037D01*
X105658242Y-96720934D01*
X105677827Y-96725706D01*
X105469641Y-96811939D01*
X105250987Y-96958038D01*
X105065038Y-97143987D01*
X104918939Y-97362641D01*
X104818304Y-97605595D01*
X104767000Y-97863514D01*
X104767000Y-98126486D01*
X104818304Y-98384405D01*
X104918939Y-98627359D01*
X105065038Y-98846013D01*
X105250987Y-99031962D01*
X105469641Y-99178061D01*
X105712595Y-99278696D01*
X105970514Y-99330000D01*
X106233486Y-99330000D01*
X106491405Y-99278696D01*
X106734359Y-99178061D01*
X106953013Y-99031962D01*
X107138962Y-98846013D01*
X107285061Y-98627359D01*
X107372000Y-98417470D01*
X107458939Y-98627359D01*
X107605038Y-98846013D01*
X107790987Y-99031962D01*
X108009641Y-99178061D01*
X108252595Y-99278696D01*
X108510514Y-99330000D01*
X108773486Y-99330000D01*
X109031405Y-99278696D01*
X109274359Y-99178061D01*
X109493013Y-99031962D01*
X109678962Y-98846013D01*
X109825061Y-98627359D01*
X109912000Y-98417470D01*
X109998939Y-98627359D01*
X110145038Y-98846013D01*
X110330987Y-99031962D01*
X110549641Y-99178061D01*
X110792595Y-99278696D01*
X111050514Y-99330000D01*
X111313486Y-99330000D01*
X111571405Y-99278696D01*
X111814359Y-99178061D01*
X112033013Y-99031962D01*
X112218962Y-98846013D01*
X112365061Y-98627359D01*
X112452000Y-98417470D01*
X112538939Y-98627359D01*
X112685038Y-98846013D01*
X112870987Y-99031962D01*
X113089641Y-99178061D01*
X113332595Y-99278696D01*
X113590514Y-99330000D01*
X113853486Y-99330000D01*
X114111405Y-99278696D01*
X114354359Y-99178061D01*
X114573013Y-99031962D01*
X114758962Y-98846013D01*
X114905061Y-98627359D01*
X114992000Y-98417470D01*
X115078939Y-98627359D01*
X115225038Y-98846013D01*
X115227001Y-98847976D01*
X115227001Y-99344163D01*
X115221994Y-99395000D01*
X115241977Y-99597895D01*
X115301160Y-99792993D01*
X115397266Y-99972797D01*
X115484096Y-100078599D01*
X115526605Y-100130396D01*
X115566093Y-100162803D01*
X116004193Y-100600903D01*
X116036604Y-100640396D01*
X116194203Y-100769734D01*
X116374007Y-100865841D01*
X116569105Y-100925024D01*
X116721162Y-100940000D01*
X116721164Y-100940000D01*
X116772000Y-100945007D01*
X116822835Y-100940000D01*
X118405447Y-100940000D01*
X118407008Y-100955846D01*
X118407008Y-101006947D01*
X118416977Y-101057065D01*
X118421984Y-101107903D01*
X118436812Y-101156785D01*
X118446782Y-101206906D01*
X118466339Y-101254121D01*
X118481167Y-101303001D01*
X118505246Y-101348050D01*
X118524803Y-101395264D01*
X118553194Y-101437754D01*
X118577274Y-101482805D01*
X118609680Y-101522292D01*
X118638071Y-101564782D01*
X118674205Y-101600916D01*
X118706612Y-101640404D01*
X118746100Y-101672811D01*
X118782234Y-101708945D01*
X118824724Y-101737336D01*
X118864211Y-101769742D01*
X118909262Y-101793822D01*
X118951752Y-101822213D01*
X118998966Y-101841770D01*
X119044015Y-101865849D01*
X119092895Y-101880677D01*
X119140110Y-101900234D01*
X119190231Y-101910204D01*
X119239113Y-101925032D01*
X119289951Y-101930039D01*
X119340069Y-101940008D01*
X132741164Y-101940008D01*
X132791992Y-101945014D01*
X132842820Y-101940008D01*
X132842830Y-101940008D01*
X132994887Y-101925032D01*
X133189985Y-101865849D01*
X133369789Y-101769742D01*
X133527388Y-101640404D01*
X133559799Y-101600911D01*
X133839803Y-101320907D01*
X146020711Y-89140000D01*
X154528912Y-89140000D01*
X150183079Y-93485834D01*
X147761886Y-93488000D01*
X147737112Y-93490462D01*
X147713294Y-93497711D01*
X147691348Y-93509467D01*
X147672117Y-93525278D01*
X147656340Y-93544537D01*
X147644624Y-93566504D01*
X147637418Y-93590335D01*
X147635000Y-93615000D01*
X147635000Y-96033913D01*
X145761446Y-97907467D01*
X145647053Y-97672430D01*
X145471049Y-97440571D01*
X145253193Y-97247504D01*
X145001858Y-97100648D01*
X144738890Y-97008524D01*
X144509000Y-97129845D01*
X144509000Y-98448000D01*
X144529000Y-98448000D01*
X144529000Y-98702000D01*
X144509000Y-98702000D01*
X144509000Y-98722000D01*
X144255000Y-98722000D01*
X144255000Y-98702000D01*
X144235000Y-98702000D01*
X144235000Y-98448000D01*
X144255000Y-98448000D01*
X144255000Y-97129845D01*
X144025110Y-97008524D01*
X143762142Y-97100648D01*
X143510807Y-97247504D01*
X143292951Y-97440571D01*
X143136462Y-97646722D01*
X143122706Y-97620986D01*
X142937134Y-97394866D01*
X142711013Y-97209294D01*
X142453033Y-97071401D01*
X142173110Y-96986487D01*
X141882000Y-96957815D01*
X141590889Y-96986487D01*
X141310966Y-97071401D01*
X141052986Y-97209294D01*
X140826866Y-97394866D01*
X140774777Y-97458337D01*
X140720405Y-97356614D01*
X140609962Y-97222038D01*
X140475386Y-97111595D01*
X140321850Y-97029528D01*
X140155254Y-96978992D01*
X139982000Y-96961928D01*
X138782000Y-96961928D01*
X138608746Y-96978992D01*
X138442150Y-97029528D01*
X138288614Y-97111595D01*
X138154038Y-97222038D01*
X138043595Y-97356614D01*
X137961528Y-97510150D01*
X137910992Y-97676746D01*
X137893928Y-97850000D01*
X137893928Y-99300000D01*
X137910992Y-99473254D01*
X137961528Y-99639850D01*
X138043595Y-99793386D01*
X138154038Y-99927962D01*
X138288614Y-100038405D01*
X138442150Y-100120472D01*
X138608746Y-100171008D01*
X138782000Y-100188072D01*
X139982000Y-100188072D01*
X140155254Y-100171008D01*
X140321850Y-100120472D01*
X140475386Y-100038405D01*
X140609962Y-99927962D01*
X140720405Y-99793386D01*
X140774777Y-99691663D01*
X140826866Y-99755134D01*
X141052987Y-99940706D01*
X141310967Y-100078599D01*
X141590890Y-100163513D01*
X141882000Y-100192185D01*
X142173111Y-100163513D01*
X142453034Y-100078599D01*
X142711014Y-99940706D01*
X142937134Y-99755134D01*
X143122706Y-99529014D01*
X143136462Y-99503278D01*
X143292951Y-99709429D01*
X143510807Y-99902496D01*
X143672146Y-99996767D01*
X137178931Y-106489982D01*
X125902853Y-106489982D01*
X125852018Y-106484975D01*
X125801182Y-106489982D01*
X125801180Y-106489982D01*
X125649123Y-106504958D01*
X125454025Y-106564141D01*
X125437646Y-106572896D01*
X125274220Y-106660248D01*
X125180459Y-106737196D01*
X125116622Y-106789586D01*
X125084215Y-106829074D01*
X113026093Y-118887197D01*
X112986605Y-118919604D01*
X112954198Y-118959092D01*
X112954197Y-118959093D01*
X112857266Y-119077203D01*
X112761160Y-119257007D01*
X112701977Y-119452105D01*
X112681994Y-119655000D01*
X112687001Y-119705837D01*
X112687001Y-120002024D01*
X112685038Y-120003987D01*
X112538939Y-120222641D01*
X112452000Y-120432530D01*
X112365061Y-120222641D01*
X112218962Y-120003987D01*
X112033013Y-119818038D01*
X111814359Y-119671939D01*
X111571405Y-119571304D01*
X111313486Y-119520000D01*
X111050514Y-119520000D01*
X110792595Y-119571304D01*
X110549641Y-119671939D01*
X110330987Y-119818038D01*
X110145038Y-120003987D01*
X109998939Y-120222641D01*
X109912000Y-120432530D01*
X109825061Y-120222641D01*
X109678962Y-120003987D01*
X109493013Y-119818038D01*
X109274359Y-119671939D01*
X109031405Y-119571304D01*
X108773486Y-119520000D01*
X108510514Y-119520000D01*
X108252595Y-119571304D01*
X108009641Y-119671939D01*
X107790987Y-119818038D01*
X107605038Y-120003987D01*
X107458939Y-120222641D01*
X107372000Y-120432530D01*
X107285061Y-120222641D01*
X107138962Y-120003987D01*
X106953013Y-119818038D01*
X106734359Y-119671939D01*
X106491405Y-119571304D01*
X106233486Y-119520000D01*
X105970514Y-119520000D01*
X105712595Y-119571304D01*
X105469641Y-119671939D01*
X105250987Y-119818038D01*
X105065038Y-120003987D01*
X104918939Y-120222641D01*
X104818304Y-120465595D01*
X104767000Y-120723514D01*
X104767000Y-120986486D01*
X104818304Y-121244405D01*
X104918939Y-121487359D01*
X105065038Y-121706013D01*
X105250987Y-121891962D01*
X105469641Y-122038061D01*
X105683444Y-122126621D01*
X105520634Y-122186065D01*
X105419797Y-122239963D01*
X105360336Y-122473731D01*
X106102000Y-123215395D01*
X106843664Y-122473731D01*
X106784203Y-122239963D01*
X106545758Y-122129066D01*
X106526173Y-122124294D01*
X106734359Y-122038061D01*
X106953013Y-121891962D01*
X107138962Y-121706013D01*
X107285061Y-121487359D01*
X107372000Y-121277470D01*
X107458939Y-121487359D01*
X107605038Y-121706013D01*
X107790987Y-121891962D01*
X108009641Y-122038061D01*
X108219530Y-122125000D01*
X108009641Y-122211939D01*
X107790987Y-122358038D01*
X107605038Y-122543987D01*
X107458939Y-122762641D01*
X107370379Y-122976444D01*
X107310935Y-122813634D01*
X107257037Y-122712797D01*
X107023269Y-122653336D01*
X106281605Y-123395000D01*
X107023269Y-124136664D01*
X107257037Y-124077203D01*
X107367934Y-123838758D01*
X107372706Y-123819173D01*
X107458939Y-124027359D01*
X107605038Y-124246013D01*
X107790987Y-124431962D01*
X108009641Y-124578061D01*
X108252595Y-124678696D01*
X108510514Y-124730000D01*
X108773486Y-124730000D01*
X109031405Y-124678696D01*
X109274359Y-124578061D01*
X109493013Y-124431962D01*
X109678962Y-124246013D01*
X109825061Y-124027359D01*
X109912000Y-123817470D01*
X109998939Y-124027359D01*
X110145038Y-124246013D01*
X110330987Y-124431962D01*
X110549641Y-124578061D01*
X110792595Y-124678696D01*
X111050514Y-124730000D01*
X111313486Y-124730000D01*
X111571405Y-124678696D01*
X111814359Y-124578061D01*
X112033013Y-124431962D01*
X112218962Y-124246013D01*
X112365061Y-124027359D01*
X112452000Y-123817470D01*
X112538939Y-124027359D01*
X112685038Y-124246013D01*
X112870987Y-124431962D01*
X113089641Y-124578061D01*
X113332595Y-124678696D01*
X113590514Y-124730000D01*
X113853486Y-124730000D01*
X114111405Y-124678696D01*
X114354359Y-124578061D01*
X114573013Y-124431962D01*
X114758962Y-124246013D01*
X114905061Y-124027359D01*
X114992000Y-123817470D01*
X115078939Y-124027359D01*
X115225038Y-124246013D01*
X115410987Y-124431962D01*
X115629641Y-124578061D01*
X115872595Y-124678696D01*
X116130514Y-124730000D01*
X116393486Y-124730000D01*
X116651405Y-124678696D01*
X116894359Y-124578061D01*
X117113013Y-124431962D01*
X117298962Y-124246013D01*
X117445061Y-124027359D01*
X117532000Y-123817470D01*
X117618939Y-124027359D01*
X117765038Y-124246013D01*
X117950987Y-124431962D01*
X118169641Y-124578061D01*
X118412595Y-124678696D01*
X118670514Y-124730000D01*
X118933486Y-124730000D01*
X119191405Y-124678696D01*
X119434359Y-124578061D01*
X119653013Y-124431962D01*
X119838962Y-124246013D01*
X119985061Y-124027359D01*
X120072000Y-123817470D01*
X120158939Y-124027359D01*
X120305038Y-124246013D01*
X120490987Y-124431962D01*
X120709641Y-124578061D01*
X120952595Y-124678696D01*
X121210514Y-124730000D01*
X121473486Y-124730000D01*
X121731405Y-124678696D01*
X121974359Y-124578061D01*
X122193013Y-124431962D01*
X122378962Y-124246013D01*
X122525061Y-124027359D01*
X122612000Y-123817470D01*
X122698939Y-124027359D01*
X122845038Y-124246013D01*
X123030987Y-124431962D01*
X123249641Y-124578061D01*
X123492595Y-124678696D01*
X123750514Y-124730000D01*
X124013486Y-124730000D01*
X124271405Y-124678696D01*
X124514359Y-124578061D01*
X124733013Y-124431962D01*
X124918962Y-124246013D01*
X125065061Y-124027359D01*
X125152000Y-123817470D01*
X125238939Y-124027359D01*
X125385038Y-124246013D01*
X125570987Y-124431962D01*
X125789641Y-124578061D01*
X126032595Y-124678696D01*
X126290514Y-124730000D01*
X126553486Y-124730000D01*
X126811405Y-124678696D01*
X127054359Y-124578061D01*
X127273013Y-124431962D01*
X127458962Y-124246013D01*
X127605061Y-124027359D01*
X127692000Y-123817470D01*
X127778939Y-124027359D01*
X127925038Y-124246013D01*
X128110987Y-124431962D01*
X128329641Y-124578061D01*
X128572595Y-124678696D01*
X128830514Y-124730000D01*
X129093486Y-124730000D01*
X129351405Y-124678696D01*
X129594359Y-124578061D01*
X129813013Y-124431962D01*
X129998962Y-124246013D01*
X130145061Y-124027359D01*
X130245696Y-123784405D01*
X130297000Y-123526486D01*
X130297000Y-123263514D01*
X130245696Y-123005595D01*
X130145061Y-122762641D01*
X129998962Y-122543987D01*
X129813013Y-122358038D01*
X129594359Y-122211939D01*
X129384470Y-122125000D01*
X129594359Y-122038061D01*
X129813013Y-121891962D01*
X129998962Y-121706013D01*
X130145061Y-121487359D01*
X130245696Y-121244405D01*
X130297000Y-120986486D01*
X130297000Y-120723514D01*
X130252540Y-120500000D01*
X137832473Y-120500000D01*
X137841528Y-120529850D01*
X137923595Y-120683386D01*
X138034038Y-120817962D01*
X138168614Y-120928405D01*
X138322150Y-121010472D01*
X138488746Y-121061008D01*
X138662000Y-121078072D01*
X139862000Y-121078072D01*
X140035254Y-121061008D01*
X140201850Y-121010472D01*
X140355386Y-120928405D01*
X140489962Y-120817962D01*
X140600405Y-120683386D01*
X140654777Y-120581663D01*
X140706866Y-120645134D01*
X140932987Y-120830706D01*
X141190967Y-120968599D01*
X141470890Y-121053513D01*
X141762000Y-121082185D01*
X142053111Y-121053513D01*
X142333034Y-120968599D01*
X142591014Y-120830706D01*
X142817134Y-120645134D01*
X143002706Y-120419014D01*
X143012000Y-120401626D01*
X143021294Y-120419014D01*
X143206866Y-120645134D01*
X143432987Y-120830706D01*
X143690967Y-120968599D01*
X143970890Y-121053513D01*
X144262000Y-121082185D01*
X144553111Y-121053513D01*
X144833034Y-120968599D01*
X145091014Y-120830706D01*
X145317134Y-120645134D01*
X145502706Y-120419014D01*
X145516462Y-120393278D01*
X145672951Y-120599429D01*
X145890807Y-120792496D01*
X146142142Y-120939352D01*
X146405110Y-121031476D01*
X146635000Y-120910155D01*
X146635000Y-119592000D01*
X146889000Y-119592000D01*
X146889000Y-120910155D01*
X147118890Y-121031476D01*
X147381858Y-120939352D01*
X147633193Y-120792496D01*
X147851049Y-120599429D01*
X148027053Y-120367570D01*
X148154442Y-120105830D01*
X148228320Y-119824267D01*
X148088165Y-119592000D01*
X146889000Y-119592000D01*
X146635000Y-119592000D01*
X146615000Y-119592000D01*
X146615000Y-119338000D01*
X146635000Y-119338000D01*
X146635000Y-118019845D01*
X146889000Y-118019845D01*
X146889000Y-119338000D01*
X148088165Y-119338000D01*
X148228320Y-119105733D01*
X148194018Y-118975000D01*
X155503928Y-118975000D01*
X155503928Y-121475000D01*
X155516188Y-121599482D01*
X155552498Y-121719180D01*
X155611463Y-121829494D01*
X155690815Y-121926185D01*
X155787506Y-122005537D01*
X155897820Y-122064502D01*
X156017518Y-122100812D01*
X156142000Y-122113072D01*
X158642000Y-122113072D01*
X158766482Y-122100812D01*
X158886180Y-122064502D01*
X158996494Y-122005537D01*
X159093185Y-121926185D01*
X159172537Y-121829494D01*
X159231502Y-121719180D01*
X159267812Y-121599482D01*
X159280072Y-121475000D01*
X159280072Y-120039344D01*
X160587000Y-120039344D01*
X160587000Y-120410656D01*
X160659439Y-120774834D01*
X160801534Y-121117882D01*
X161007825Y-121426618D01*
X161270382Y-121689175D01*
X161579118Y-121895466D01*
X161922166Y-122037561D01*
X162286344Y-122110000D01*
X162657656Y-122110000D01*
X163021834Y-122037561D01*
X163364882Y-121895466D01*
X163673618Y-121689175D01*
X163936175Y-121426618D01*
X164142466Y-121117882D01*
X164284561Y-120774834D01*
X164357000Y-120410656D01*
X164357000Y-120039344D01*
X164284561Y-119675166D01*
X164142466Y-119332118D01*
X163936175Y-119023382D01*
X163887793Y-118975000D01*
X165683928Y-118975000D01*
X165683928Y-121475000D01*
X165696188Y-121599482D01*
X165732498Y-121719180D01*
X165791463Y-121829494D01*
X165870815Y-121926185D01*
X165967506Y-122005537D01*
X166077820Y-122064502D01*
X166197518Y-122100812D01*
X166322000Y-122113072D01*
X168822000Y-122113072D01*
X168946482Y-122100812D01*
X169066180Y-122064502D01*
X169176494Y-122005537D01*
X169273185Y-121926185D01*
X169352537Y-121829494D01*
X169411502Y-121719180D01*
X169447812Y-121599482D01*
X169460072Y-121475000D01*
X169460072Y-120039344D01*
X170767000Y-120039344D01*
X170767000Y-120410656D01*
X170839439Y-120774834D01*
X170981534Y-121117882D01*
X171187825Y-121426618D01*
X171450382Y-121689175D01*
X171759118Y-121895466D01*
X172102166Y-122037561D01*
X172466344Y-122110000D01*
X172837656Y-122110000D01*
X173201834Y-122037561D01*
X173544882Y-121895466D01*
X173853618Y-121689175D01*
X174116175Y-121426618D01*
X174322466Y-121117882D01*
X174464561Y-120774834D01*
X174537000Y-120410656D01*
X174537000Y-120039344D01*
X174464561Y-119675166D01*
X174322466Y-119332118D01*
X174116175Y-119023382D01*
X174067793Y-118975000D01*
X175853928Y-118975000D01*
X175853928Y-121475000D01*
X175866188Y-121599482D01*
X175902498Y-121719180D01*
X175961463Y-121829494D01*
X176040815Y-121926185D01*
X176137506Y-122005537D01*
X176247820Y-122064502D01*
X176367518Y-122100812D01*
X176492000Y-122113072D01*
X178992000Y-122113072D01*
X179116482Y-122100812D01*
X179236180Y-122064502D01*
X179346494Y-122005537D01*
X179443185Y-121926185D01*
X179522537Y-121829494D01*
X179581502Y-121719180D01*
X179617812Y-121599482D01*
X179630072Y-121475000D01*
X179630072Y-120039344D01*
X180937000Y-120039344D01*
X180937000Y-120410656D01*
X181009439Y-120774834D01*
X181151534Y-121117882D01*
X181357825Y-121426618D01*
X181620382Y-121689175D01*
X181929118Y-121895466D01*
X182272166Y-122037561D01*
X182636344Y-122110000D01*
X183007656Y-122110000D01*
X183371834Y-122037561D01*
X183714882Y-121895466D01*
X184023618Y-121689175D01*
X184286175Y-121426618D01*
X184492466Y-121117882D01*
X184634561Y-120774834D01*
X184707000Y-120410656D01*
X184707000Y-120039344D01*
X184634561Y-119675166D01*
X184492466Y-119332118D01*
X184286175Y-119023382D01*
X184237793Y-118975000D01*
X186023928Y-118975000D01*
X186023928Y-121475000D01*
X186036188Y-121599482D01*
X186072498Y-121719180D01*
X186131463Y-121829494D01*
X186210815Y-121926185D01*
X186307506Y-122005537D01*
X186417820Y-122064502D01*
X186537518Y-122100812D01*
X186662000Y-122113072D01*
X189162000Y-122113072D01*
X189286482Y-122100812D01*
X189406180Y-122064502D01*
X189516494Y-122005537D01*
X189613185Y-121926185D01*
X189692537Y-121829494D01*
X189751502Y-121719180D01*
X189787812Y-121599482D01*
X189800072Y-121475000D01*
X189800072Y-120039344D01*
X191107000Y-120039344D01*
X191107000Y-120410656D01*
X191179439Y-120774834D01*
X191321534Y-121117882D01*
X191527825Y-121426618D01*
X191790382Y-121689175D01*
X192099118Y-121895466D01*
X192442166Y-122037561D01*
X192806344Y-122110000D01*
X193177656Y-122110000D01*
X193541834Y-122037561D01*
X193884882Y-121895466D01*
X194193618Y-121689175D01*
X194456175Y-121426618D01*
X194662466Y-121117882D01*
X194804561Y-120774834D01*
X194877000Y-120410656D01*
X194877000Y-120039344D01*
X194804561Y-119675166D01*
X194662466Y-119332118D01*
X194456175Y-119023382D01*
X194193618Y-118760825D01*
X193884882Y-118554534D01*
X193541834Y-118412439D01*
X193177656Y-118340000D01*
X192806344Y-118340000D01*
X192442166Y-118412439D01*
X192099118Y-118554534D01*
X191790382Y-118760825D01*
X191527825Y-119023382D01*
X191321534Y-119332118D01*
X191179439Y-119675166D01*
X191107000Y-120039344D01*
X189800072Y-120039344D01*
X189800072Y-118975000D01*
X189787812Y-118850518D01*
X189751502Y-118730820D01*
X189692537Y-118620506D01*
X189613185Y-118523815D01*
X189516494Y-118444463D01*
X189406180Y-118385498D01*
X189286482Y-118349188D01*
X189162000Y-118336928D01*
X186662000Y-118336928D01*
X186537518Y-118349188D01*
X186417820Y-118385498D01*
X186307506Y-118444463D01*
X186210815Y-118523815D01*
X186131463Y-118620506D01*
X186072498Y-118730820D01*
X186036188Y-118850518D01*
X186023928Y-118975000D01*
X184237793Y-118975000D01*
X184023618Y-118760825D01*
X183714882Y-118554534D01*
X183371834Y-118412439D01*
X183007656Y-118340000D01*
X182636344Y-118340000D01*
X182272166Y-118412439D01*
X181929118Y-118554534D01*
X181620382Y-118760825D01*
X181357825Y-119023382D01*
X181151534Y-119332118D01*
X181009439Y-119675166D01*
X180937000Y-120039344D01*
X179630072Y-120039344D01*
X179630072Y-118975000D01*
X179617812Y-118850518D01*
X179581502Y-118730820D01*
X179522537Y-118620506D01*
X179443185Y-118523815D01*
X179346494Y-118444463D01*
X179236180Y-118385498D01*
X179116482Y-118349188D01*
X178992000Y-118336928D01*
X176492000Y-118336928D01*
X176367518Y-118349188D01*
X176247820Y-118385498D01*
X176137506Y-118444463D01*
X176040815Y-118523815D01*
X175961463Y-118620506D01*
X175902498Y-118730820D01*
X175866188Y-118850518D01*
X175853928Y-118975000D01*
X174067793Y-118975000D01*
X173853618Y-118760825D01*
X173544882Y-118554534D01*
X173201834Y-118412439D01*
X172837656Y-118340000D01*
X172466344Y-118340000D01*
X172102166Y-118412439D01*
X171759118Y-118554534D01*
X171450382Y-118760825D01*
X171187825Y-119023382D01*
X170981534Y-119332118D01*
X170839439Y-119675166D01*
X170767000Y-120039344D01*
X169460072Y-120039344D01*
X169460072Y-118975000D01*
X169447812Y-118850518D01*
X169411502Y-118730820D01*
X169352537Y-118620506D01*
X169273185Y-118523815D01*
X169176494Y-118444463D01*
X169066180Y-118385498D01*
X168946482Y-118349188D01*
X168822000Y-118336928D01*
X166322000Y-118336928D01*
X166197518Y-118349188D01*
X166077820Y-118385498D01*
X165967506Y-118444463D01*
X165870815Y-118523815D01*
X165791463Y-118620506D01*
X165732498Y-118730820D01*
X165696188Y-118850518D01*
X165683928Y-118975000D01*
X163887793Y-118975000D01*
X163673618Y-118760825D01*
X163364882Y-118554534D01*
X163021834Y-118412439D01*
X162657656Y-118340000D01*
X162286344Y-118340000D01*
X161922166Y-118412439D01*
X161579118Y-118554534D01*
X161270382Y-118760825D01*
X161007825Y-119023382D01*
X160801534Y-119332118D01*
X160659439Y-119675166D01*
X160587000Y-120039344D01*
X159280072Y-120039344D01*
X159280072Y-118975000D01*
X159267812Y-118850518D01*
X159231502Y-118730820D01*
X159172537Y-118620506D01*
X159093185Y-118523815D01*
X158996494Y-118444463D01*
X158886180Y-118385498D01*
X158766482Y-118349188D01*
X158642000Y-118336928D01*
X156142000Y-118336928D01*
X156017518Y-118349188D01*
X155897820Y-118385498D01*
X155787506Y-118444463D01*
X155690815Y-118523815D01*
X155611463Y-118620506D01*
X155552498Y-118730820D01*
X155516188Y-118850518D01*
X155503928Y-118975000D01*
X148194018Y-118975000D01*
X148154442Y-118824170D01*
X148027053Y-118562430D01*
X147851049Y-118330571D01*
X147633193Y-118137504D01*
X147381858Y-117990648D01*
X147118890Y-117898524D01*
X146889000Y-118019845D01*
X146635000Y-118019845D01*
X146405110Y-117898524D01*
X146142142Y-117990648D01*
X145890807Y-118137504D01*
X145672951Y-118330571D01*
X145516462Y-118536722D01*
X145502706Y-118510986D01*
X145317134Y-118284866D01*
X145091013Y-118099294D01*
X144833033Y-117961401D01*
X144553110Y-117876487D01*
X144262000Y-117847815D01*
X144122286Y-117861576D01*
X142449797Y-116189087D01*
X142417386Y-116149594D01*
X142259787Y-116020256D01*
X142079983Y-115924149D01*
X141884885Y-115864966D01*
X141732828Y-115849990D01*
X141732818Y-115849990D01*
X141681990Y-115844984D01*
X141631162Y-115849990D01*
X125820061Y-115849990D01*
X125769943Y-115859959D01*
X125719105Y-115864966D01*
X125670223Y-115879794D01*
X125620102Y-115889764D01*
X125572887Y-115909321D01*
X125524007Y-115924149D01*
X125478958Y-115948228D01*
X125431744Y-115967785D01*
X125389254Y-115996176D01*
X125344203Y-116020256D01*
X125304716Y-116052662D01*
X125262226Y-116081053D01*
X125226092Y-116117187D01*
X125186604Y-116149594D01*
X125154197Y-116189082D01*
X125118063Y-116225216D01*
X125089672Y-116267706D01*
X125057266Y-116307193D01*
X125033186Y-116352244D01*
X125004795Y-116394734D01*
X124985238Y-116441948D01*
X124961159Y-116486997D01*
X124946331Y-116535877D01*
X124926774Y-116583092D01*
X124916804Y-116633213D01*
X124901976Y-116682095D01*
X124896969Y-116732933D01*
X124887000Y-116783051D01*
X124887000Y-116834152D01*
X124881993Y-116884990D01*
X124887000Y-116935828D01*
X124887000Y-116986929D01*
X124896969Y-117037047D01*
X124901976Y-117087885D01*
X124916804Y-117136767D01*
X124926774Y-117186888D01*
X124946331Y-117234103D01*
X124961159Y-117282983D01*
X124985238Y-117328032D01*
X125004795Y-117375246D01*
X125033186Y-117417736D01*
X125055685Y-117459830D01*
X125041159Y-117487007D01*
X125026331Y-117535887D01*
X125006774Y-117583102D01*
X124996804Y-117633223D01*
X124981976Y-117682105D01*
X124976969Y-117732943D01*
X124967000Y-117783061D01*
X124967000Y-117834162D01*
X124961993Y-117885000D01*
X124967000Y-117935838D01*
X124967000Y-117986939D01*
X124976969Y-118037057D01*
X124981976Y-118087895D01*
X124996804Y-118136777D01*
X125006774Y-118186898D01*
X125026331Y-118234113D01*
X125041159Y-118282993D01*
X125065238Y-118328042D01*
X125084795Y-118375256D01*
X125113186Y-118417746D01*
X125119736Y-118430000D01*
X122017063Y-118430000D01*
X121966228Y-118424993D01*
X121915393Y-118430000D01*
X121915390Y-118430000D01*
X121763333Y-118444976D01*
X121568235Y-118504159D01*
X121484537Y-118548896D01*
X121388430Y-118600266D01*
X121326541Y-118651058D01*
X121230832Y-118729604D01*
X121198421Y-118769097D01*
X120646093Y-119321425D01*
X120606605Y-119353832D01*
X120574198Y-119393320D01*
X120574197Y-119393321D01*
X120477266Y-119511431D01*
X120393636Y-119667894D01*
X120381160Y-119691235D01*
X120321977Y-119886333D01*
X120310973Y-119998052D01*
X120305038Y-120003987D01*
X120158939Y-120222641D01*
X120072000Y-120432530D01*
X119985061Y-120222641D01*
X119870109Y-120050601D01*
X126375710Y-113545000D01*
X145813928Y-113545000D01*
X145826188Y-113669482D01*
X145862498Y-113789180D01*
X145921463Y-113899494D01*
X146000815Y-113996185D01*
X146097506Y-114075537D01*
X146207820Y-114134502D01*
X146327518Y-114170812D01*
X146452000Y-114183072D01*
X147016250Y-114180000D01*
X147175000Y-114021250D01*
X147175000Y-112822000D01*
X145975750Y-112822000D01*
X145817000Y-112980750D01*
X145813928Y-113545000D01*
X126375710Y-113545000D01*
X128075710Y-111845000D01*
X145813928Y-111845000D01*
X145817000Y-112409250D01*
X145975750Y-112568000D01*
X147175000Y-112568000D01*
X147175000Y-111368750D01*
X147429000Y-111368750D01*
X147429000Y-112568000D01*
X147449000Y-112568000D01*
X147449000Y-112822000D01*
X147429000Y-112822000D01*
X147429000Y-114021250D01*
X147587750Y-114180000D01*
X148152000Y-114183072D01*
X148276482Y-114170812D01*
X148396180Y-114134502D01*
X148506494Y-114075537D01*
X148572000Y-114021778D01*
X148637506Y-114075537D01*
X148747820Y-114134502D01*
X148867518Y-114170812D01*
X148992000Y-114183072D01*
X150692000Y-114183072D01*
X150816482Y-114170812D01*
X150936180Y-114134502D01*
X151046494Y-114075537D01*
X151143185Y-113996185D01*
X151222537Y-113899494D01*
X151281502Y-113789180D01*
X151317812Y-113669482D01*
X151330072Y-113545000D01*
X151330072Y-111845000D01*
X151317812Y-111720518D01*
X151281502Y-111600820D01*
X151222537Y-111490506D01*
X151143185Y-111393815D01*
X151046494Y-111314463D01*
X150936180Y-111255498D01*
X150816482Y-111219188D01*
X150692000Y-111206928D01*
X148992000Y-111206928D01*
X148867518Y-111219188D01*
X148747820Y-111255498D01*
X148637506Y-111314463D01*
X148572000Y-111368222D01*
X148506494Y-111314463D01*
X148396180Y-111255498D01*
X148276482Y-111219188D01*
X148152000Y-111206928D01*
X147587750Y-111210000D01*
X147429000Y-111368750D01*
X147175000Y-111368750D01*
X147016250Y-111210000D01*
X146452000Y-111206928D01*
X146327518Y-111219188D01*
X146207820Y-111255498D01*
X146097506Y-111314463D01*
X146000815Y-111393815D01*
X145921463Y-111490506D01*
X145862498Y-111600820D01*
X145826188Y-111720518D01*
X145813928Y-111845000D01*
X128075710Y-111845000D01*
X129360711Y-110560000D01*
X150391172Y-110560000D01*
X150442000Y-110565006D01*
X150492828Y-110560000D01*
X150492838Y-110560000D01*
X150644895Y-110545024D01*
X150839993Y-110485841D01*
X151019797Y-110389734D01*
X151177396Y-110260396D01*
X151209807Y-110220903D01*
X152484344Y-108946367D01*
X152485236Y-108948036D01*
X152504795Y-108995256D01*
X152533187Y-109037748D01*
X152557266Y-109082797D01*
X152589671Y-109122283D01*
X152618063Y-109164774D01*
X152664217Y-109210928D01*
X152696624Y-109250416D01*
X152736112Y-109282823D01*
X152762226Y-109308937D01*
X152792933Y-109329455D01*
X152854223Y-109379754D01*
X152924149Y-109417130D01*
X152931744Y-109422205D01*
X152940184Y-109425701D01*
X153034027Y-109475861D01*
X153229125Y-109535044D01*
X153381182Y-109550020D01*
X153381191Y-109550020D01*
X153425873Y-109554421D01*
X153427000Y-109565868D01*
X153427000Y-109616969D01*
X153436969Y-109667087D01*
X153441976Y-109717925D01*
X153456804Y-109766807D01*
X153466774Y-109816928D01*
X153486331Y-109864143D01*
X153501159Y-109913023D01*
X153525238Y-109958072D01*
X153544795Y-110005286D01*
X153573186Y-110047776D01*
X153597266Y-110092827D01*
X153629672Y-110132314D01*
X153658063Y-110174804D01*
X153694197Y-110210938D01*
X153726604Y-110250426D01*
X153766092Y-110282833D01*
X153802226Y-110318967D01*
X153844716Y-110347358D01*
X153884203Y-110379764D01*
X153929254Y-110403844D01*
X153971744Y-110432235D01*
X154018958Y-110451792D01*
X154064007Y-110475871D01*
X154112887Y-110490699D01*
X154160102Y-110510256D01*
X154210223Y-110520226D01*
X154259105Y-110535054D01*
X154309943Y-110540061D01*
X154360061Y-110550030D01*
X186231142Y-110550030D01*
X186281970Y-110555036D01*
X186332798Y-110550030D01*
X186332808Y-110550030D01*
X186484865Y-110535054D01*
X186679963Y-110475871D01*
X186859767Y-110379764D01*
X187017366Y-110250426D01*
X187049777Y-110210933D01*
X190169803Y-107090908D01*
X190205937Y-107054774D01*
X190234325Y-107012288D01*
X190266734Y-106972798D01*
X190290816Y-106927744D01*
X190319205Y-106885256D01*
X190338762Y-106838041D01*
X190362840Y-106792994D01*
X190377666Y-106744120D01*
X190397226Y-106696898D01*
X190407197Y-106646768D01*
X190422023Y-106597895D01*
X190427030Y-106547064D01*
X190437000Y-106496939D01*
X190437000Y-106445835D01*
X190442007Y-106395000D01*
X190437000Y-106344165D01*
X190437000Y-106293061D01*
X190427030Y-106242936D01*
X190422023Y-106192105D01*
X190407197Y-106143232D01*
X190397226Y-106093102D01*
X190377665Y-106045878D01*
X190362840Y-105997007D01*
X190338764Y-105951964D01*
X190319205Y-105904744D01*
X190290813Y-105862252D01*
X190266734Y-105817203D01*
X190234328Y-105777716D01*
X190205937Y-105735226D01*
X190169803Y-105699092D01*
X190137396Y-105659604D01*
X190097908Y-105627197D01*
X190061774Y-105591063D01*
X190019284Y-105562672D01*
X189979797Y-105530266D01*
X189934748Y-105506187D01*
X189892256Y-105477795D01*
X189845036Y-105458236D01*
X189799993Y-105434160D01*
X189751122Y-105419335D01*
X189703898Y-105399774D01*
X189653768Y-105389803D01*
X189604895Y-105374977D01*
X189554064Y-105369970D01*
X189503939Y-105360000D01*
X189452835Y-105360000D01*
X189402000Y-105354993D01*
X189351165Y-105360000D01*
X189300061Y-105360000D01*
X189249936Y-105369970D01*
X189199105Y-105374977D01*
X189150232Y-105389803D01*
X189100102Y-105399774D01*
X189052880Y-105419334D01*
X189004006Y-105434160D01*
X188958959Y-105458238D01*
X188911744Y-105477795D01*
X188869256Y-105506184D01*
X188824202Y-105530266D01*
X188784712Y-105562675D01*
X188742226Y-105591063D01*
X188706092Y-105627197D01*
X185853260Y-108480030D01*
X178510680Y-108480030D01*
X179924803Y-107065908D01*
X179960937Y-107029774D01*
X179989325Y-106987288D01*
X180021734Y-106947798D01*
X180045816Y-106902744D01*
X180074205Y-106860256D01*
X180093762Y-106813041D01*
X180117840Y-106767994D01*
X180132666Y-106719119D01*
X180152226Y-106671898D01*
X180162197Y-106621771D01*
X180177023Y-106572896D01*
X180182029Y-106522066D01*
X180192000Y-106471939D01*
X180192000Y-106420829D01*
X180197006Y-106370001D01*
X180192000Y-106319173D01*
X180192000Y-106268061D01*
X180182029Y-106217932D01*
X180177023Y-106167106D01*
X180162198Y-106118234D01*
X180152226Y-106068102D01*
X180132665Y-106020877D01*
X180117840Y-105972007D01*
X180093764Y-105926964D01*
X180074205Y-105879744D01*
X180045813Y-105837252D01*
X180021734Y-105792203D01*
X179989330Y-105752719D01*
X179960937Y-105710226D01*
X179924795Y-105674084D01*
X179892395Y-105634605D01*
X179852916Y-105602205D01*
X179816774Y-105566063D01*
X179774281Y-105537670D01*
X179734797Y-105505266D01*
X179689748Y-105481187D01*
X179647256Y-105452795D01*
X179600036Y-105433236D01*
X179554993Y-105409160D01*
X179506123Y-105394335D01*
X179458898Y-105374774D01*
X179408766Y-105364802D01*
X179359894Y-105349977D01*
X179309068Y-105344971D01*
X179258939Y-105335000D01*
X179207827Y-105335000D01*
X179156999Y-105329994D01*
X179106171Y-105335000D01*
X179055061Y-105335000D01*
X179004934Y-105344971D01*
X178954104Y-105349977D01*
X178905229Y-105364803D01*
X178855102Y-105374774D01*
X178807881Y-105394334D01*
X178759006Y-105409160D01*
X178713959Y-105433238D01*
X178666744Y-105452795D01*
X178624256Y-105481184D01*
X178579202Y-105505266D01*
X178539712Y-105537675D01*
X178497226Y-105566063D01*
X178461092Y-105602197D01*
X176583270Y-107480020D01*
X169410691Y-107480020D01*
X169850937Y-107039774D01*
X169879325Y-106997288D01*
X169911734Y-106957798D01*
X169935817Y-106912742D01*
X169964205Y-106870256D01*
X169983760Y-106823047D01*
X170007841Y-106777994D01*
X170022669Y-106729113D01*
X170042226Y-106681898D01*
X170052197Y-106631771D01*
X170067023Y-106582895D01*
X170072030Y-106532064D01*
X170082000Y-106481939D01*
X170082000Y-106430835D01*
X170087007Y-106380000D01*
X170082000Y-106329165D01*
X170082000Y-106278061D01*
X170072030Y-106227936D01*
X170067023Y-106177105D01*
X170052197Y-106128230D01*
X170042226Y-106078102D01*
X170022668Y-106030885D01*
X170007841Y-105982007D01*
X169983762Y-105936958D01*
X169964205Y-105889744D01*
X169935814Y-105847254D01*
X169911734Y-105802203D01*
X169879328Y-105762716D01*
X169850937Y-105720226D01*
X169814803Y-105684092D01*
X169782396Y-105644604D01*
X169742908Y-105612197D01*
X169706774Y-105576063D01*
X169664284Y-105547672D01*
X169624797Y-105515266D01*
X169579746Y-105491186D01*
X169537256Y-105462795D01*
X169490042Y-105443238D01*
X169444993Y-105419159D01*
X169396115Y-105404332D01*
X169348898Y-105384774D01*
X169298770Y-105374803D01*
X169249895Y-105359977D01*
X169199064Y-105354970D01*
X169148939Y-105345000D01*
X169097835Y-105345000D01*
X169047000Y-105339993D01*
X168996165Y-105345000D01*
X168945061Y-105345000D01*
X168894936Y-105354970D01*
X168844105Y-105359977D01*
X168795229Y-105374803D01*
X168745102Y-105384774D01*
X168697887Y-105404331D01*
X168649006Y-105419159D01*
X168603953Y-105443240D01*
X168556744Y-105462795D01*
X168514258Y-105491183D01*
X168469202Y-105515266D01*
X168429712Y-105547675D01*
X168387226Y-105576063D01*
X168351092Y-105612197D01*
X167483280Y-106480010D01*
X159858561Y-106480010D01*
X159857000Y-106464162D01*
X159857000Y-106413061D01*
X159847031Y-106362943D01*
X159842024Y-106312105D01*
X159827196Y-106263223D01*
X159817226Y-106213102D01*
X159797669Y-106165887D01*
X159782841Y-106117007D01*
X159758762Y-106071958D01*
X159739205Y-106024744D01*
X159710814Y-105982254D01*
X159686734Y-105937203D01*
X159654328Y-105897716D01*
X159625937Y-105855226D01*
X159589803Y-105819092D01*
X159557396Y-105779604D01*
X159517908Y-105747197D01*
X159481774Y-105711063D01*
X159439284Y-105682672D01*
X159399797Y-105650266D01*
X159354746Y-105626186D01*
X159312256Y-105597795D01*
X159265042Y-105578238D01*
X159219993Y-105554159D01*
X159171113Y-105539331D01*
X159123898Y-105519774D01*
X159073777Y-105509804D01*
X159024895Y-105494976D01*
X158974057Y-105489969D01*
X158923939Y-105480000D01*
X155450711Y-105480000D01*
X154055950Y-104085240D01*
X154055948Y-104085237D01*
X153911785Y-103941074D01*
X153869294Y-103912682D01*
X153829808Y-103880277D01*
X153784759Y-103856198D01*
X153742267Y-103827806D01*
X153695047Y-103808247D01*
X153650004Y-103784171D01*
X153601133Y-103769346D01*
X153553909Y-103749785D01*
X153503779Y-103739814D01*
X153454906Y-103724988D01*
X153404078Y-103719982D01*
X153353950Y-103710011D01*
X153302839Y-103710011D01*
X153252011Y-103705005D01*
X153201183Y-103710011D01*
X153150072Y-103710011D01*
X153099944Y-103719982D01*
X153049116Y-103724988D01*
X153000243Y-103739814D01*
X152950113Y-103749785D01*
X152902889Y-103769346D01*
X152854018Y-103784171D01*
X152808975Y-103808247D01*
X152761755Y-103827806D01*
X152719263Y-103856198D01*
X152674214Y-103880277D01*
X152634727Y-103912683D01*
X152592237Y-103941074D01*
X152556103Y-103977208D01*
X152516615Y-104009615D01*
X152484208Y-104049103D01*
X152448074Y-104085237D01*
X152419683Y-104127727D01*
X152387277Y-104167214D01*
X152363198Y-104212263D01*
X152334806Y-104254755D01*
X152315247Y-104301975D01*
X152291171Y-104347018D01*
X152276346Y-104395889D01*
X152256785Y-104443113D01*
X152246814Y-104493243D01*
X152231988Y-104542116D01*
X152226982Y-104592944D01*
X152217011Y-104643072D01*
X152217011Y-104694183D01*
X152212005Y-104745011D01*
X152217011Y-104795839D01*
X152217011Y-104846950D01*
X152226982Y-104897078D01*
X152231988Y-104947906D01*
X152246814Y-104996779D01*
X152256785Y-105046909D01*
X152276346Y-105094133D01*
X152291171Y-105143004D01*
X152315247Y-105188047D01*
X152334806Y-105235267D01*
X152363198Y-105277759D01*
X152387277Y-105322808D01*
X152419682Y-105362294D01*
X152448074Y-105404785D01*
X152592237Y-105548948D01*
X152592240Y-105548950D01*
X153513288Y-106469999D01*
X152512836Y-106469999D01*
X152462001Y-106464992D01*
X152411166Y-106469999D01*
X152411163Y-106469999D01*
X152259106Y-106484975D01*
X152064008Y-106544158D01*
X152010243Y-106572896D01*
X151884203Y-106640265D01*
X151789611Y-106717895D01*
X151726605Y-106769603D01*
X151694198Y-106809091D01*
X151306493Y-107196796D01*
X151317812Y-107159482D01*
X151330072Y-107035000D01*
X151330072Y-105335000D01*
X151317812Y-105210518D01*
X151281502Y-105090820D01*
X151222537Y-104980506D01*
X151143185Y-104883815D01*
X151046494Y-104804463D01*
X150936180Y-104745498D01*
X150816482Y-104709188D01*
X150692000Y-104696928D01*
X148992000Y-104696928D01*
X148867518Y-104709188D01*
X148747820Y-104745498D01*
X148637506Y-104804463D01*
X148572000Y-104858222D01*
X148506494Y-104804463D01*
X148396180Y-104745498D01*
X148276482Y-104709188D01*
X148152000Y-104696928D01*
X147587750Y-104700000D01*
X147429000Y-104858750D01*
X147429000Y-106058000D01*
X147449000Y-106058000D01*
X147449000Y-106312000D01*
X147429000Y-106312000D01*
X147429000Y-107511250D01*
X147587750Y-107670000D01*
X148152000Y-107673072D01*
X148276482Y-107660812D01*
X148396180Y-107624502D01*
X148506494Y-107565537D01*
X148572000Y-107511778D01*
X148637506Y-107565537D01*
X148747820Y-107624502D01*
X148867518Y-107660812D01*
X148992000Y-107673072D01*
X150692000Y-107673072D01*
X150816482Y-107660812D01*
X150853797Y-107649493D01*
X150013290Y-108490000D01*
X139520559Y-108490000D01*
X140975559Y-107035000D01*
X145813928Y-107035000D01*
X145826188Y-107159482D01*
X145862498Y-107279180D01*
X145921463Y-107389494D01*
X146000815Y-107486185D01*
X146097506Y-107565537D01*
X146207820Y-107624502D01*
X146327518Y-107660812D01*
X146452000Y-107673072D01*
X147016250Y-107670000D01*
X147175000Y-107511250D01*
X147175000Y-106312000D01*
X145975750Y-106312000D01*
X145817000Y-106470750D01*
X145813928Y-107035000D01*
X140975559Y-107035000D01*
X142675559Y-105335000D01*
X145813928Y-105335000D01*
X145817000Y-105899250D01*
X145975750Y-106058000D01*
X147175000Y-106058000D01*
X147175000Y-104858750D01*
X147016250Y-104700000D01*
X146452000Y-104696928D01*
X146327518Y-104709188D01*
X146207820Y-104745498D01*
X146097506Y-104804463D01*
X146000815Y-104883815D01*
X145921463Y-104980506D01*
X145862498Y-105090820D01*
X145826188Y-105210518D01*
X145813928Y-105335000D01*
X142675559Y-105335000D01*
X147635000Y-100375559D01*
X147635000Y-101855000D01*
X147637440Y-101879776D01*
X147644667Y-101903601D01*
X147656403Y-101925557D01*
X147672197Y-101944803D01*
X147691443Y-101960597D01*
X147713399Y-101972333D01*
X147737224Y-101979560D01*
X147761954Y-101982000D01*
X201577001Y-102001399D01*
X201577001Y-121218000D01*
X200325767Y-121218000D01*
X200176729Y-121068962D01*
X199810669Y-120824369D01*
X199403925Y-120655890D01*
X198972128Y-120570000D01*
X198531872Y-120570000D01*
X198100075Y-120655890D01*
X197693331Y-120824369D01*
X197327271Y-121068962D01*
X197178233Y-121218000D01*
X195302000Y-121218000D01*
X195277224Y-121220440D01*
X195253399Y-121227667D01*
X195231443Y-121239403D01*
X195212197Y-121255197D01*
X195196403Y-121274443D01*
X195184667Y-121296399D01*
X195177440Y-121320224D01*
X195175000Y-121345000D01*
X195175000Y-125624706D01*
X104192234Y-125591352D01*
X104188090Y-124316269D01*
X105360336Y-124316269D01*
X105419797Y-124550037D01*
X105658242Y-124660934D01*
X105913740Y-124723183D01*
X106176473Y-124734390D01*
X106436344Y-124694125D01*
X106683366Y-124603935D01*
X106784203Y-124550037D01*
X106843664Y-124316269D01*
X106102000Y-123574605D01*
X105360336Y-124316269D01*
X104188090Y-124316269D01*
X104185337Y-123469473D01*
X104762610Y-123469473D01*
X104802875Y-123729344D01*
X104893065Y-123976366D01*
X104946963Y-124077203D01*
X105180731Y-124136664D01*
X105922395Y-123395000D01*
X105180731Y-122653336D01*
X104946963Y-122712797D01*
X104836066Y-122951242D01*
X104773817Y-123206740D01*
X104762610Y-123469473D01*
X104185337Y-123469473D01*
X104094514Y-95529473D01*
X104762610Y-95529473D01*
X104802875Y-95789344D01*
X104893065Y-96036366D01*
X104946963Y-96137203D01*
X105180731Y-96196664D01*
X105922395Y-95455000D01*
X105180731Y-94713336D01*
X104946963Y-94772797D01*
X104836066Y-95011242D01*
X104773817Y-95266740D01*
X104762610Y-95529473D01*
X104094514Y-95529473D01*
X104091277Y-94533731D01*
X105360336Y-94533731D01*
X106102000Y-95275395D01*
X106843664Y-94533731D01*
X106784203Y-94299963D01*
X106545758Y-94189066D01*
X106290260Y-94126817D01*
X106027527Y-94115610D01*
X105767656Y-94155875D01*
X105520634Y-94246065D01*
X105419797Y-94299963D01*
X105360336Y-94533731D01*
X104091277Y-94533731D01*
X104090249Y-94217615D01*
X104087823Y-94193319D01*
X104080609Y-94169491D01*
X104068885Y-94147528D01*
X104053101Y-94128274D01*
X104033865Y-94112470D01*
X104011915Y-94100722D01*
X103988094Y-94093482D01*
X103963319Y-94091028D01*
X95436504Y-94086385D01*
X95434189Y-89511000D01*
X106571328Y-89511000D01*
X106583588Y-89635482D01*
X106619898Y-89755180D01*
X106678863Y-89865494D01*
X106758215Y-89962185D01*
X106854906Y-90041537D01*
X106965220Y-90100502D01*
X107084918Y-90136812D01*
X107209400Y-90149072D01*
X107673650Y-90146000D01*
X107832400Y-89987250D01*
X107832400Y-89113000D01*
X108086400Y-89113000D01*
X108086400Y-89987250D01*
X108245150Y-90146000D01*
X108709400Y-90149072D01*
X108833882Y-90136812D01*
X108953580Y-90100502D01*
X109063894Y-90041537D01*
X109160585Y-89962185D01*
X109239937Y-89865494D01*
X109298902Y-89755180D01*
X109335212Y-89635482D01*
X109347472Y-89511000D01*
X109344400Y-89271750D01*
X109185650Y-89113000D01*
X108086400Y-89113000D01*
X107832400Y-89113000D01*
X106733150Y-89113000D01*
X106574400Y-89271750D01*
X106571328Y-89511000D01*
X95434189Y-89511000D01*
X95433954Y-89045000D01*
X113913928Y-89045000D01*
X113913928Y-90745000D01*
X113926188Y-90869482D01*
X113962498Y-90989180D01*
X114021463Y-91099494D01*
X114100815Y-91196185D01*
X114197506Y-91275537D01*
X114307820Y-91334502D01*
X114427518Y-91370812D01*
X114552000Y-91383072D01*
X116252000Y-91383072D01*
X116376482Y-91370812D01*
X116496180Y-91334502D01*
X116606494Y-91275537D01*
X116703185Y-91196185D01*
X116782537Y-91099494D01*
X116841502Y-90989180D01*
X116877812Y-90869482D01*
X116890072Y-90745000D01*
X116890072Y-89045000D01*
X116877812Y-88920518D01*
X116841502Y-88800820D01*
X116782537Y-88690506D01*
X116703185Y-88593815D01*
X116606494Y-88514463D01*
X116496180Y-88455498D01*
X116376482Y-88419188D01*
X116252000Y-88406928D01*
X114552000Y-88406928D01*
X114427518Y-88419188D01*
X114307820Y-88455498D01*
X114197506Y-88514463D01*
X114100815Y-88593815D01*
X114021463Y-88690506D01*
X113962498Y-88800820D01*
X113926188Y-88920518D01*
X113913928Y-89045000D01*
X95433954Y-89045000D01*
X95432637Y-86446000D01*
X106568788Y-86446000D01*
X106591185Y-86673400D01*
X106657515Y-86892060D01*
X106758505Y-87081000D01*
X106657515Y-87269940D01*
X106591185Y-87488600D01*
X106568788Y-87716000D01*
X106591185Y-87943400D01*
X106654493Y-88152098D01*
X106619898Y-88216820D01*
X106583588Y-88336518D01*
X106571328Y-88461000D01*
X106574400Y-88700250D01*
X106733150Y-88859000D01*
X107506291Y-88859000D01*
X107507000Y-88859215D01*
X107677421Y-88876000D01*
X108241379Y-88876000D01*
X108411800Y-88859215D01*
X108412509Y-88859000D01*
X109185650Y-88859000D01*
X109344400Y-88700250D01*
X109347472Y-88461000D01*
X109335212Y-88336518D01*
X109316950Y-88276314D01*
X131492500Y-88276314D01*
X131492500Y-88527285D01*
X131515470Y-88760503D01*
X131606245Y-89059748D01*
X131753655Y-89335534D01*
X131952037Y-89577263D01*
X132193765Y-89775645D01*
X132469551Y-89923055D01*
X132768796Y-90013830D01*
X133080000Y-90044481D01*
X133391203Y-90013830D01*
X133690448Y-89923055D01*
X133966234Y-89775645D01*
X134207963Y-89577263D01*
X134355163Y-89397901D01*
X134510563Y-89583115D01*
X134753077Y-89777769D01*
X135028906Y-89921371D01*
X135247020Y-89992363D01*
X135493000Y-89872394D01*
X135493000Y-88528800D01*
X135473000Y-88528800D01*
X135473000Y-88274800D01*
X135493000Y-88274800D01*
X135493000Y-86931206D01*
X135747000Y-86931206D01*
X135747000Y-88274800D01*
X135767000Y-88274800D01*
X135767000Y-88528800D01*
X135747000Y-88528800D01*
X135747000Y-89872394D01*
X135992980Y-89992363D01*
X136211094Y-89921371D01*
X136486923Y-89777769D01*
X136627941Y-89664581D01*
X136676963Y-89756294D01*
X136756315Y-89852985D01*
X136853006Y-89932337D01*
X136963320Y-89991302D01*
X137083018Y-90027612D01*
X137207500Y-90039872D01*
X139112500Y-90039872D01*
X139236982Y-90027612D01*
X139356680Y-89991302D01*
X139466994Y-89932337D01*
X139563685Y-89852985D01*
X139643037Y-89756294D01*
X139702002Y-89645980D01*
X139738312Y-89526282D01*
X139750572Y-89401800D01*
X139750572Y-87401800D01*
X139738312Y-87277318D01*
X139702002Y-87157620D01*
X139643037Y-87047306D01*
X139563685Y-86950615D01*
X139466994Y-86871263D01*
X139356680Y-86812298D01*
X139236982Y-86775988D01*
X139112500Y-86763728D01*
X137207500Y-86763728D01*
X137083018Y-86775988D01*
X136963320Y-86812298D01*
X136853006Y-86871263D01*
X136756315Y-86950615D01*
X136676963Y-87047306D01*
X136627941Y-87139019D01*
X136486923Y-87025831D01*
X136211094Y-86882229D01*
X135992980Y-86811237D01*
X135747000Y-86931206D01*
X135493000Y-86931206D01*
X135247020Y-86811237D01*
X135028906Y-86882229D01*
X134753077Y-87025831D01*
X134510563Y-87220485D01*
X134355162Y-87405700D01*
X134207963Y-87226337D01*
X133966235Y-87027955D01*
X133690449Y-86880545D01*
X133391204Y-86789770D01*
X133080000Y-86759119D01*
X132768797Y-86789770D01*
X132469552Y-86880545D01*
X132193766Y-87027955D01*
X131952037Y-87226337D01*
X131753655Y-87468065D01*
X131606245Y-87743851D01*
X131515470Y-88043096D01*
X131492500Y-88276314D01*
X109316950Y-88276314D01*
X109298902Y-88216820D01*
X109264307Y-88152098D01*
X109327615Y-87943400D01*
X109350012Y-87716000D01*
X109327615Y-87488600D01*
X109261285Y-87269940D01*
X109160295Y-87081000D01*
X109261285Y-86892060D01*
X109327615Y-86673400D01*
X109350012Y-86446000D01*
X109327615Y-86218600D01*
X109261285Y-85999940D01*
X109153571Y-85798421D01*
X109008612Y-85621788D01*
X108831979Y-85476829D01*
X108630460Y-85369115D01*
X108411800Y-85302785D01*
X108241379Y-85286000D01*
X107677421Y-85286000D01*
X107507000Y-85302785D01*
X107288340Y-85369115D01*
X107086821Y-85476829D01*
X106910188Y-85621788D01*
X106765229Y-85798421D01*
X106657515Y-85999940D01*
X106591185Y-86218600D01*
X106568788Y-86446000D01*
X95432637Y-86446000D01*
X95428626Y-78524419D01*
X101117000Y-78524419D01*
X101117000Y-78905581D01*
X101191361Y-79279419D01*
X101337225Y-79631566D01*
X101548987Y-79948491D01*
X101818509Y-80218013D01*
X102135434Y-80429775D01*
X102487581Y-80575639D01*
X102861419Y-80650000D01*
X103242581Y-80650000D01*
X103616419Y-80575639D01*
X103968566Y-80429775D01*
X104285491Y-80218013D01*
X104555013Y-79948491D01*
X104766775Y-79631566D01*
X104912639Y-79279419D01*
X104987000Y-78905581D01*
X104987000Y-78524419D01*
X104912639Y-78150581D01*
X104766775Y-77798434D01*
X104555013Y-77481509D01*
X104285491Y-77211987D01*
X103968566Y-77000225D01*
X103616419Y-76854361D01*
X103242581Y-76780000D01*
X102861419Y-76780000D01*
X102487581Y-76854361D01*
X102135434Y-77000225D01*
X101818509Y-77211987D01*
X101548987Y-77481509D01*
X101337225Y-77798434D01*
X101191361Y-78150581D01*
X101117000Y-78524419D01*
X95428626Y-78524419D01*
X95426849Y-75015000D01*
X101113928Y-75015000D01*
X101126188Y-75139482D01*
X101162498Y-75259180D01*
X101221463Y-75369494D01*
X101300815Y-75466185D01*
X101397506Y-75545537D01*
X101507820Y-75604502D01*
X101627518Y-75640812D01*
X101752000Y-75653072D01*
X102766250Y-75650000D01*
X102925000Y-75491250D01*
X102925000Y-73842000D01*
X103179000Y-73842000D01*
X103179000Y-75491250D01*
X103337750Y-75650000D01*
X104352000Y-75653072D01*
X104476482Y-75640812D01*
X104596180Y-75604502D01*
X104706494Y-75545537D01*
X104803185Y-75466185D01*
X104806684Y-75461921D01*
X108116400Y-75461921D01*
X108116400Y-75882479D01*
X108198447Y-76294956D01*
X108359388Y-76683502D01*
X108593037Y-77033183D01*
X108890417Y-77330563D01*
X109240098Y-77564212D01*
X109628644Y-77725153D01*
X110041121Y-77807200D01*
X110461679Y-77807200D01*
X110874156Y-77725153D01*
X111262702Y-77564212D01*
X111612383Y-77330563D01*
X111909763Y-77033183D01*
X112143412Y-76683502D01*
X112304353Y-76294956D01*
X112386400Y-75882479D01*
X112386400Y-75461921D01*
X130716400Y-75461921D01*
X130716400Y-75882479D01*
X130798447Y-76294956D01*
X130959388Y-76683502D01*
X131193037Y-77033183D01*
X131490417Y-77330563D01*
X131840098Y-77564212D01*
X132228644Y-77725153D01*
X132641121Y-77807200D01*
X133061679Y-77807200D01*
X133474156Y-77725153D01*
X133862702Y-77564212D01*
X134212383Y-77330563D01*
X134337001Y-77205945D01*
X134337001Y-79523056D01*
X134337000Y-79523061D01*
X134337000Y-79726939D01*
X134346971Y-79777067D01*
X134351977Y-79827895D01*
X134366803Y-79876768D01*
X134376774Y-79926898D01*
X134396335Y-79974122D01*
X134411160Y-80022993D01*
X134435235Y-80068034D01*
X134454795Y-80115256D01*
X134483191Y-80157753D01*
X134507267Y-80202797D01*
X134539668Y-80242278D01*
X134568063Y-80284774D01*
X134604203Y-80320914D01*
X134636605Y-80360396D01*
X134676087Y-80392798D01*
X134712226Y-80428937D01*
X134754721Y-80457331D01*
X134794204Y-80489734D01*
X134839250Y-80513812D01*
X134881744Y-80542205D01*
X134928962Y-80561763D01*
X134974008Y-80585841D01*
X135022884Y-80600668D01*
X135070102Y-80620226D01*
X135120226Y-80630196D01*
X135169106Y-80645024D01*
X135219942Y-80650031D01*
X135270061Y-80660000D01*
X135321162Y-80660000D01*
X135372000Y-80665007D01*
X135422838Y-80660000D01*
X135473939Y-80660000D01*
X135524057Y-80650031D01*
X135574895Y-80645024D01*
X135623777Y-80630196D01*
X135673898Y-80620226D01*
X135721113Y-80600669D01*
X135769993Y-80585841D01*
X135815042Y-80561762D01*
X135862256Y-80542205D01*
X135904746Y-80513814D01*
X135949797Y-80489734D01*
X135989284Y-80457328D01*
X136031774Y-80428937D01*
X136067908Y-80392803D01*
X136107396Y-80360396D01*
X136139803Y-80320908D01*
X136175937Y-80284774D01*
X136204328Y-80242284D01*
X136236734Y-80202797D01*
X136260814Y-80157746D01*
X136289205Y-80115256D01*
X136308762Y-80068042D01*
X136332841Y-80022993D01*
X136347669Y-79974113D01*
X136367226Y-79926898D01*
X136377196Y-79876777D01*
X136392024Y-79827895D01*
X136397031Y-79777057D01*
X136405825Y-79732848D01*
X136540465Y-79843345D01*
X136816251Y-79990755D01*
X137115496Y-80081530D01*
X137348714Y-80104500D01*
X137599686Y-80104500D01*
X137832904Y-80081530D01*
X138132149Y-79990755D01*
X138407935Y-79843345D01*
X138649663Y-79644963D01*
X138848045Y-79403235D01*
X138995455Y-79127449D01*
X139086230Y-78828204D01*
X139116881Y-78517000D01*
X139086230Y-78205796D01*
X138995455Y-77906551D01*
X138848045Y-77630765D01*
X138649663Y-77389037D01*
X138476591Y-77247000D01*
X138649663Y-77104963D01*
X138848045Y-76863235D01*
X138995455Y-76587449D01*
X139086230Y-76288204D01*
X139116881Y-75977000D01*
X139086230Y-75665796D01*
X138995455Y-75366551D01*
X138848045Y-75090765D01*
X138774659Y-75001344D01*
X155357000Y-75001344D01*
X155357000Y-75372656D01*
X155429439Y-75736834D01*
X155571534Y-76079882D01*
X155777825Y-76388618D01*
X156040382Y-76651175D01*
X156349118Y-76857466D01*
X156692166Y-76999561D01*
X157056344Y-77072000D01*
X157427656Y-77072000D01*
X157791834Y-76999561D01*
X158134882Y-76857466D01*
X158443618Y-76651175D01*
X158706175Y-76388618D01*
X158912466Y-76079882D01*
X159054561Y-75736834D01*
X159127000Y-75372656D01*
X159127000Y-75001344D01*
X159054561Y-74637166D01*
X158912466Y-74294118D01*
X158706175Y-73985382D01*
X158657793Y-73937000D01*
X160433928Y-73937000D01*
X160433928Y-76437000D01*
X160446188Y-76561482D01*
X160482498Y-76681180D01*
X160541463Y-76791494D01*
X160620815Y-76888185D01*
X160717506Y-76967537D01*
X160827820Y-77026502D01*
X160947518Y-77062812D01*
X161072000Y-77075072D01*
X163572000Y-77075072D01*
X163696482Y-77062812D01*
X163816180Y-77026502D01*
X163926494Y-76967537D01*
X164023185Y-76888185D01*
X164102537Y-76791494D01*
X164161502Y-76681180D01*
X164197812Y-76561482D01*
X164210072Y-76437000D01*
X164210072Y-74999344D01*
X165507000Y-74999344D01*
X165507000Y-75370656D01*
X165579439Y-75734834D01*
X165721534Y-76077882D01*
X165927825Y-76386618D01*
X166190382Y-76649175D01*
X166499118Y-76855466D01*
X166842166Y-76997561D01*
X167206344Y-77070000D01*
X167577656Y-77070000D01*
X167941834Y-76997561D01*
X168284882Y-76855466D01*
X168593618Y-76649175D01*
X168856175Y-76386618D01*
X169062466Y-76077882D01*
X169204561Y-75734834D01*
X169277000Y-75370656D01*
X169277000Y-74999344D01*
X169204561Y-74635166D01*
X169062466Y-74292118D01*
X168856175Y-73983382D01*
X168807793Y-73935000D01*
X170583928Y-73935000D01*
X170583928Y-76435000D01*
X170596188Y-76559482D01*
X170632498Y-76679180D01*
X170691463Y-76789494D01*
X170770815Y-76886185D01*
X170867506Y-76965537D01*
X170977820Y-77024502D01*
X171097518Y-77060812D01*
X171222000Y-77073072D01*
X173722000Y-77073072D01*
X173846482Y-77060812D01*
X173966180Y-77024502D01*
X174076494Y-76965537D01*
X174173185Y-76886185D01*
X174252537Y-76789494D01*
X174311502Y-76679180D01*
X174347812Y-76559482D01*
X174360072Y-76435000D01*
X174360072Y-74989344D01*
X175657000Y-74989344D01*
X175657000Y-75360656D01*
X175729439Y-75724834D01*
X175871534Y-76067882D01*
X176077825Y-76376618D01*
X176340382Y-76639175D01*
X176649118Y-76845466D01*
X176992166Y-76987561D01*
X177356344Y-77060000D01*
X177727656Y-77060000D01*
X178091834Y-76987561D01*
X178434882Y-76845466D01*
X178743618Y-76639175D01*
X179006175Y-76376618D01*
X179212466Y-76067882D01*
X179354561Y-75724834D01*
X179427000Y-75360656D01*
X179427000Y-74989344D01*
X179354561Y-74625166D01*
X179212466Y-74282118D01*
X179006175Y-73973382D01*
X178957793Y-73925000D01*
X180733928Y-73925000D01*
X180733928Y-76425000D01*
X180746188Y-76549482D01*
X180782498Y-76669180D01*
X180841463Y-76779494D01*
X180920815Y-76876185D01*
X181017506Y-76955537D01*
X181127820Y-77014502D01*
X181247518Y-77050812D01*
X181372000Y-77063072D01*
X183872000Y-77063072D01*
X183996482Y-77050812D01*
X184116180Y-77014502D01*
X184226494Y-76955537D01*
X184323185Y-76876185D01*
X184402537Y-76779494D01*
X184461502Y-76669180D01*
X184497812Y-76549482D01*
X184510072Y-76425000D01*
X184510072Y-74979344D01*
X185807000Y-74979344D01*
X185807000Y-75350656D01*
X185879439Y-75714834D01*
X186021534Y-76057882D01*
X186227825Y-76366618D01*
X186490382Y-76629175D01*
X186799118Y-76835466D01*
X187142166Y-76977561D01*
X187506344Y-77050000D01*
X187877656Y-77050000D01*
X188241834Y-76977561D01*
X188584882Y-76835466D01*
X188893618Y-76629175D01*
X189156175Y-76366618D01*
X189362466Y-76057882D01*
X189504561Y-75714834D01*
X189577000Y-75350656D01*
X189577000Y-74979344D01*
X189504561Y-74615166D01*
X189362466Y-74272118D01*
X189156175Y-73963382D01*
X189107793Y-73915000D01*
X190883928Y-73915000D01*
X190883928Y-76415000D01*
X190896188Y-76539482D01*
X190932498Y-76659180D01*
X190991463Y-76769494D01*
X191070815Y-76866185D01*
X191167506Y-76945537D01*
X191277820Y-77004502D01*
X191397518Y-77040812D01*
X191522000Y-77053072D01*
X194022000Y-77053072D01*
X194146482Y-77040812D01*
X194266180Y-77004502D01*
X194376494Y-76945537D01*
X194473185Y-76866185D01*
X194552537Y-76769494D01*
X194611502Y-76659180D01*
X194647812Y-76539482D01*
X194660072Y-76415000D01*
X194660072Y-73915000D01*
X194647812Y-73790518D01*
X194611502Y-73670820D01*
X194552537Y-73560506D01*
X194473185Y-73463815D01*
X194376494Y-73384463D01*
X194266180Y-73325498D01*
X194146482Y-73289188D01*
X194022000Y-73276928D01*
X191522000Y-73276928D01*
X191397518Y-73289188D01*
X191277820Y-73325498D01*
X191167506Y-73384463D01*
X191070815Y-73463815D01*
X190991463Y-73560506D01*
X190932498Y-73670820D01*
X190896188Y-73790518D01*
X190883928Y-73915000D01*
X189107793Y-73915000D01*
X188893618Y-73700825D01*
X188584882Y-73494534D01*
X188241834Y-73352439D01*
X187877656Y-73280000D01*
X187506344Y-73280000D01*
X187142166Y-73352439D01*
X186799118Y-73494534D01*
X186490382Y-73700825D01*
X186227825Y-73963382D01*
X186021534Y-74272118D01*
X185879439Y-74615166D01*
X185807000Y-74979344D01*
X184510072Y-74979344D01*
X184510072Y-73925000D01*
X184497812Y-73800518D01*
X184461502Y-73680820D01*
X184402537Y-73570506D01*
X184323185Y-73473815D01*
X184226494Y-73394463D01*
X184116180Y-73335498D01*
X183996482Y-73299188D01*
X183872000Y-73286928D01*
X181372000Y-73286928D01*
X181247518Y-73299188D01*
X181127820Y-73335498D01*
X181017506Y-73394463D01*
X180920815Y-73473815D01*
X180841463Y-73570506D01*
X180782498Y-73680820D01*
X180746188Y-73800518D01*
X180733928Y-73925000D01*
X178957793Y-73925000D01*
X178743618Y-73710825D01*
X178434882Y-73504534D01*
X178091834Y-73362439D01*
X177727656Y-73290000D01*
X177356344Y-73290000D01*
X176992166Y-73362439D01*
X176649118Y-73504534D01*
X176340382Y-73710825D01*
X176077825Y-73973382D01*
X175871534Y-74282118D01*
X175729439Y-74625166D01*
X175657000Y-74989344D01*
X174360072Y-74989344D01*
X174360072Y-73935000D01*
X174347812Y-73810518D01*
X174311502Y-73690820D01*
X174252537Y-73580506D01*
X174173185Y-73483815D01*
X174076494Y-73404463D01*
X173966180Y-73345498D01*
X173846482Y-73309188D01*
X173722000Y-73296928D01*
X171222000Y-73296928D01*
X171097518Y-73309188D01*
X170977820Y-73345498D01*
X170867506Y-73404463D01*
X170770815Y-73483815D01*
X170691463Y-73580506D01*
X170632498Y-73690820D01*
X170596188Y-73810518D01*
X170583928Y-73935000D01*
X168807793Y-73935000D01*
X168593618Y-73720825D01*
X168284882Y-73514534D01*
X167941834Y-73372439D01*
X167577656Y-73300000D01*
X167206344Y-73300000D01*
X166842166Y-73372439D01*
X166499118Y-73514534D01*
X166190382Y-73720825D01*
X165927825Y-73983382D01*
X165721534Y-74292118D01*
X165579439Y-74635166D01*
X165507000Y-74999344D01*
X164210072Y-74999344D01*
X164210072Y-73937000D01*
X164197812Y-73812518D01*
X164161502Y-73692820D01*
X164102537Y-73582506D01*
X164023185Y-73485815D01*
X163926494Y-73406463D01*
X163816180Y-73347498D01*
X163696482Y-73311188D01*
X163572000Y-73298928D01*
X161072000Y-73298928D01*
X160947518Y-73311188D01*
X160827820Y-73347498D01*
X160717506Y-73406463D01*
X160620815Y-73485815D01*
X160541463Y-73582506D01*
X160482498Y-73692820D01*
X160446188Y-73812518D01*
X160433928Y-73937000D01*
X158657793Y-73937000D01*
X158443618Y-73722825D01*
X158134882Y-73516534D01*
X157791834Y-73374439D01*
X157427656Y-73302000D01*
X157056344Y-73302000D01*
X156692166Y-73374439D01*
X156349118Y-73516534D01*
X156040382Y-73722825D01*
X155777825Y-73985382D01*
X155571534Y-74294118D01*
X155429439Y-74637166D01*
X155357000Y-75001344D01*
X138774659Y-75001344D01*
X138744754Y-74964905D01*
X138828694Y-74920037D01*
X138925385Y-74840685D01*
X139004737Y-74743994D01*
X139063702Y-74633680D01*
X139100012Y-74513982D01*
X139112272Y-74389500D01*
X139112272Y-72484500D01*
X139100012Y-72360018D01*
X139063702Y-72240320D01*
X139004737Y-72130006D01*
X138925385Y-72033315D01*
X138828694Y-71953963D01*
X138718380Y-71894998D01*
X138598682Y-71858688D01*
X138474200Y-71846428D01*
X136474200Y-71846428D01*
X136349718Y-71858688D01*
X136230020Y-71894998D01*
X136119706Y-71953963D01*
X136023015Y-72033315D01*
X135943663Y-72130006D01*
X135884698Y-72240320D01*
X135848388Y-72360018D01*
X135836128Y-72484500D01*
X135836128Y-72757161D01*
X134676097Y-73917193D01*
X134636604Y-73949604D01*
X134507266Y-74107203D01*
X134437073Y-74238527D01*
X134212383Y-74013837D01*
X133862702Y-73780188D01*
X133474156Y-73619247D01*
X133061679Y-73537200D01*
X132641121Y-73537200D01*
X132228644Y-73619247D01*
X131840098Y-73780188D01*
X131490417Y-74013837D01*
X131193037Y-74311217D01*
X130959388Y-74660898D01*
X130798447Y-75049444D01*
X130716400Y-75461921D01*
X112386400Y-75461921D01*
X112304353Y-75049444D01*
X112143412Y-74660898D01*
X111909763Y-74311217D01*
X111612383Y-74013837D01*
X111262702Y-73780188D01*
X110874156Y-73619247D01*
X110461679Y-73537200D01*
X110041121Y-73537200D01*
X109628644Y-73619247D01*
X109240098Y-73780188D01*
X108890417Y-74013837D01*
X108593037Y-74311217D01*
X108359388Y-74660898D01*
X108198447Y-75049444D01*
X108116400Y-75461921D01*
X104806684Y-75461921D01*
X104882537Y-75369494D01*
X104941502Y-75259180D01*
X104977812Y-75139482D01*
X104990072Y-75015000D01*
X104987000Y-74000750D01*
X104828250Y-73842000D01*
X103179000Y-73842000D01*
X102925000Y-73842000D01*
X101275750Y-73842000D01*
X101117000Y-74000750D01*
X101113928Y-75015000D01*
X95426849Y-75015000D01*
X95425533Y-72415000D01*
X101113928Y-72415000D01*
X101117000Y-73429250D01*
X101275750Y-73588000D01*
X102925000Y-73588000D01*
X102925000Y-71938750D01*
X103179000Y-71938750D01*
X103179000Y-73588000D01*
X104828250Y-73588000D01*
X104987000Y-73429250D01*
X104990072Y-72415000D01*
X104977812Y-72290518D01*
X104941502Y-72170820D01*
X104882537Y-72060506D01*
X104803185Y-71963815D01*
X104706494Y-71884463D01*
X104596180Y-71825498D01*
X104476482Y-71789188D01*
X104352000Y-71776928D01*
X103337750Y-71780000D01*
X103179000Y-71938750D01*
X102925000Y-71938750D01*
X102766250Y-71780000D01*
X101752000Y-71776928D01*
X101627518Y-71789188D01*
X101507820Y-71825498D01*
X101397506Y-71884463D01*
X101300815Y-71963815D01*
X101221463Y-72060506D01*
X101162498Y-72170820D01*
X101126188Y-72290518D01*
X101113928Y-72415000D01*
X95425533Y-72415000D01*
X95425458Y-72268176D01*
X95485995Y-71679750D01*
X95650321Y-71144734D01*
X95915435Y-70651828D01*
X96271237Y-70219805D01*
X96704178Y-69865118D01*
X97197768Y-69601276D01*
X97733201Y-69438333D01*
X98322782Y-69379214D01*
X195175000Y-69432073D01*
G04 #@! TA.AperFunction,Conductor*
D27*
G36*
X195175000Y-69432073D02*
G01*
X195175000Y-73945000D01*
X195177440Y-73969776D01*
X195184667Y-73993601D01*
X195196403Y-74015557D01*
X195212197Y-74034803D01*
X195231443Y-74050597D01*
X195253399Y-74062333D01*
X195277224Y-74069560D01*
X195302000Y-74072000D01*
X197388507Y-74072000D01*
X197663331Y-74255631D01*
X198070075Y-74424110D01*
X198501872Y-74510000D01*
X198942128Y-74510000D01*
X199373925Y-74424110D01*
X199780669Y-74255631D01*
X200055493Y-74072000D01*
X201577000Y-74072000D01*
X201577000Y-93439848D01*
X154528615Y-93481945D01*
X156644937Y-91365623D01*
X170004004Y-91365623D01*
X170054832Y-91370629D01*
X170105660Y-91365623D01*
X170105670Y-91365623D01*
X170257727Y-91350647D01*
X170452825Y-91291464D01*
X170632629Y-91195357D01*
X170790228Y-91066019D01*
X170822639Y-91026526D01*
X171689156Y-90160010D01*
X179975389Y-90160010D01*
X180026217Y-90165016D01*
X180077045Y-90160010D01*
X180077055Y-90160010D01*
X180229112Y-90145034D01*
X180424210Y-90085851D01*
X180604014Y-89989744D01*
X180761613Y-89860406D01*
X180794024Y-89820913D01*
X181454938Y-89160000D01*
X190063939Y-89160000D01*
X190114057Y-89150031D01*
X190164895Y-89145024D01*
X190213777Y-89130196D01*
X190263898Y-89120226D01*
X190311113Y-89100669D01*
X190359993Y-89085841D01*
X190405042Y-89061762D01*
X190452256Y-89042205D01*
X190494746Y-89013814D01*
X190539797Y-88989734D01*
X190579284Y-88957328D01*
X190621774Y-88928937D01*
X190657908Y-88892803D01*
X190697396Y-88860396D01*
X190729805Y-88820906D01*
X190765937Y-88784774D01*
X190794328Y-88742284D01*
X190826734Y-88702797D01*
X190850814Y-88657746D01*
X190879205Y-88615256D01*
X190898762Y-88568042D01*
X190922841Y-88522993D01*
X190937669Y-88474113D01*
X190957226Y-88426898D01*
X190967196Y-88376777D01*
X190982024Y-88327895D01*
X190987031Y-88277057D01*
X190997000Y-88226939D01*
X190997000Y-88175838D01*
X191002007Y-88125000D01*
X190997000Y-88074162D01*
X190997000Y-88023061D01*
X190987031Y-87972943D01*
X190982024Y-87922105D01*
X190967196Y-87873223D01*
X190957226Y-87823102D01*
X190937669Y-87775887D01*
X190922841Y-87727007D01*
X190898762Y-87681958D01*
X190879205Y-87634744D01*
X190850814Y-87592254D01*
X190826734Y-87547203D01*
X190794328Y-87507716D01*
X190765937Y-87465226D01*
X190729803Y-87429092D01*
X190697396Y-87389604D01*
X190657908Y-87357197D01*
X190621774Y-87321063D01*
X190579284Y-87292672D01*
X190539797Y-87260266D01*
X190494746Y-87236186D01*
X190452256Y-87207795D01*
X190405042Y-87188238D01*
X190359993Y-87164159D01*
X190311113Y-87149331D01*
X190263898Y-87129774D01*
X190213777Y-87119804D01*
X190164895Y-87104976D01*
X190114057Y-87099969D01*
X190063939Y-87090000D01*
X181077062Y-87090000D01*
X181026227Y-87084993D01*
X180975392Y-87090000D01*
X180975389Y-87090000D01*
X180823332Y-87104976D01*
X180628234Y-87164159D01*
X180590817Y-87184159D01*
X180448429Y-87260266D01*
X180354689Y-87337197D01*
X180319114Y-87366393D01*
X180307908Y-87357197D01*
X180271774Y-87321063D01*
X180229284Y-87292672D01*
X180189797Y-87260266D01*
X180144746Y-87236186D01*
X180102256Y-87207795D01*
X180055042Y-87188238D01*
X180009993Y-87164159D01*
X179961113Y-87149331D01*
X179913898Y-87129774D01*
X179863777Y-87119804D01*
X179814895Y-87104976D01*
X179764057Y-87099969D01*
X179713939Y-87090000D01*
X170897061Y-87090000D01*
X170846226Y-87084993D01*
X170795391Y-87090000D01*
X170795389Y-87090000D01*
X170643332Y-87104976D01*
X170448234Y-87164159D01*
X170268430Y-87260266D01*
X170116928Y-87384600D01*
X170107908Y-87377197D01*
X170071774Y-87341063D01*
X170029284Y-87312672D01*
X169989797Y-87280266D01*
X169944746Y-87256186D01*
X169902256Y-87227795D01*
X169855042Y-87208238D01*
X169809993Y-87184159D01*
X169761113Y-87169331D01*
X169713898Y-87149774D01*
X169663777Y-87139804D01*
X169614895Y-87124976D01*
X169564057Y-87119969D01*
X169513939Y-87110000D01*
X160970711Y-87110000D01*
X160269797Y-86409087D01*
X160237386Y-86369594D01*
X160079787Y-86240256D01*
X159899983Y-86144149D01*
X159704885Y-86084966D01*
X159552828Y-86069990D01*
X159552818Y-86069990D01*
X159501990Y-86064984D01*
X159451162Y-86069990D01*
X145228619Y-86069990D01*
X145177784Y-86064983D01*
X145126949Y-86069990D01*
X145126946Y-86069990D01*
X144974889Y-86084966D01*
X144825199Y-86130375D01*
X144779790Y-86144149D01*
X144599986Y-86240256D01*
X144481876Y-86337187D01*
X144442388Y-86369594D01*
X144409981Y-86409082D01*
X131949064Y-98870000D01*
X129974975Y-98870000D01*
X129998962Y-98846013D01*
X130145061Y-98627359D01*
X130245696Y-98384405D01*
X130297000Y-98126486D01*
X130297000Y-97863514D01*
X130245696Y-97605595D01*
X130145061Y-97362641D01*
X129998962Y-97143987D01*
X129813013Y-96958038D01*
X129594359Y-96811939D01*
X129384470Y-96725000D01*
X129594359Y-96638061D01*
X129813013Y-96491962D01*
X129998962Y-96306013D01*
X130145061Y-96087359D01*
X130245696Y-95844405D01*
X130297000Y-95586486D01*
X130297000Y-95323514D01*
X130270442Y-95189999D01*
X131583938Y-95189999D01*
X131634056Y-95180030D01*
X131684894Y-95175023D01*
X131733776Y-95160195D01*
X131783897Y-95150225D01*
X131831112Y-95130668D01*
X131879992Y-95115840D01*
X131925041Y-95091761D01*
X131972255Y-95072204D01*
X132014745Y-95043813D01*
X132059796Y-95019733D01*
X132099283Y-94987327D01*
X132141773Y-94958936D01*
X132177907Y-94922802D01*
X132217395Y-94890395D01*
X132249802Y-94850907D01*
X132285936Y-94814773D01*
X132314327Y-94772283D01*
X132346733Y-94732796D01*
X132370813Y-94687745D01*
X132399204Y-94645255D01*
X132418761Y-94598041D01*
X132442840Y-94552992D01*
X132457668Y-94504112D01*
X132477225Y-94456897D01*
X132487195Y-94406776D01*
X132502023Y-94357894D01*
X132507030Y-94307056D01*
X132516999Y-94256938D01*
X132516999Y-94205837D01*
X132522006Y-94154999D01*
X132516999Y-94104161D01*
X132516999Y-94053060D01*
X132507030Y-94002942D01*
X132502023Y-93952104D01*
X132487195Y-93903222D01*
X132477225Y-93853101D01*
X132457668Y-93805886D01*
X132442840Y-93757006D01*
X132418761Y-93711957D01*
X132399204Y-93664743D01*
X132370813Y-93622253D01*
X132346733Y-93577202D01*
X132314327Y-93537715D01*
X132285936Y-93495225D01*
X132249802Y-93459091D01*
X132217395Y-93419603D01*
X132177907Y-93387196D01*
X132141773Y-93351062D01*
X132099283Y-93322671D01*
X132059796Y-93290265D01*
X132014745Y-93266185D01*
X131972255Y-93237794D01*
X131925041Y-93218237D01*
X131879992Y-93194158D01*
X131831112Y-93179330D01*
X131783897Y-93159773D01*
X131733776Y-93149803D01*
X131684894Y-93134975D01*
X131634056Y-93129968D01*
X131583938Y-93119999D01*
X115072828Y-93119999D01*
X115022000Y-93114993D01*
X114971172Y-93119999D01*
X114971163Y-93119999D01*
X114819106Y-93134975D01*
X114624008Y-93194158D01*
X114542371Y-93237794D01*
X114444203Y-93290265D01*
X114326093Y-93387196D01*
X114286605Y-93419603D01*
X114254198Y-93459091D01*
X113593290Y-94120000D01*
X113590514Y-94120000D01*
X113332595Y-94171304D01*
X113089641Y-94271939D01*
X112870987Y-94418038D01*
X112685038Y-94603987D01*
X112538939Y-94822641D01*
X112452000Y-95032530D01*
X112365061Y-94822641D01*
X112218962Y-94603987D01*
X112033013Y-94418038D01*
X111814359Y-94271939D01*
X111571405Y-94171304D01*
X111313486Y-94120000D01*
X111050514Y-94120000D01*
X110792595Y-94171304D01*
X110549641Y-94271939D01*
X110330987Y-94418038D01*
X110145038Y-94603987D01*
X109998939Y-94822641D01*
X109912000Y-95032530D01*
X109825061Y-94822641D01*
X109678962Y-94603987D01*
X109493013Y-94418038D01*
X109274359Y-94271939D01*
X109031405Y-94171304D01*
X108773486Y-94120000D01*
X108510514Y-94120000D01*
X108252595Y-94171304D01*
X108009641Y-94271939D01*
X107790987Y-94418038D01*
X107605038Y-94603987D01*
X107458939Y-94822641D01*
X107370379Y-95036444D01*
X107310935Y-94873634D01*
X107257037Y-94772797D01*
X107023269Y-94713336D01*
X106281605Y-95455000D01*
X107023269Y-96196664D01*
X107257037Y-96137203D01*
X107367934Y-95898758D01*
X107372706Y-95879173D01*
X107458939Y-96087359D01*
X107605038Y-96306013D01*
X107790987Y-96491962D01*
X108009641Y-96638061D01*
X108219530Y-96725000D01*
X108009641Y-96811939D01*
X107790987Y-96958038D01*
X107605038Y-97143987D01*
X107458939Y-97362641D01*
X107372000Y-97572530D01*
X107285061Y-97362641D01*
X107138962Y-97143987D01*
X106953013Y-96958038D01*
X106734359Y-96811939D01*
X106520556Y-96723379D01*
X106683366Y-96663935D01*
X106784203Y-96610037D01*
X106843664Y-96376269D01*
X106102000Y-95634605D01*
X105360336Y-96376269D01*
X105419797Y-96610037D01*
X105658242Y-96720934D01*
X105677827Y-96725706D01*
X105469641Y-96811939D01*
X105250987Y-96958038D01*
X105065038Y-97143987D01*
X104918939Y-97362641D01*
X104818304Y-97605595D01*
X104767000Y-97863514D01*
X104767000Y-98126486D01*
X104818304Y-98384405D01*
X104918939Y-98627359D01*
X105065038Y-98846013D01*
X105250987Y-99031962D01*
X105469641Y-99178061D01*
X105712595Y-99278696D01*
X105970514Y-99330000D01*
X106233486Y-99330000D01*
X106491405Y-99278696D01*
X106734359Y-99178061D01*
X106953013Y-99031962D01*
X107138962Y-98846013D01*
X107285061Y-98627359D01*
X107372000Y-98417470D01*
X107458939Y-98627359D01*
X107605038Y-98846013D01*
X107790987Y-99031962D01*
X108009641Y-99178061D01*
X108252595Y-99278696D01*
X108510514Y-99330000D01*
X108773486Y-99330000D01*
X109031405Y-99278696D01*
X109274359Y-99178061D01*
X109493013Y-99031962D01*
X109678962Y-98846013D01*
X109825061Y-98627359D01*
X109912000Y-98417470D01*
X109998939Y-98627359D01*
X110145038Y-98846013D01*
X110330987Y-99031962D01*
X110549641Y-99178061D01*
X110792595Y-99278696D01*
X111050514Y-99330000D01*
X111313486Y-99330000D01*
X111571405Y-99278696D01*
X111814359Y-99178061D01*
X112033013Y-99031962D01*
X112218962Y-98846013D01*
X112365061Y-98627359D01*
X112452000Y-98417470D01*
X112538939Y-98627359D01*
X112685038Y-98846013D01*
X112870987Y-99031962D01*
X113089641Y-99178061D01*
X113332595Y-99278696D01*
X113590514Y-99330000D01*
X113853486Y-99330000D01*
X114111405Y-99278696D01*
X114354359Y-99178061D01*
X114573013Y-99031962D01*
X114758962Y-98846013D01*
X114905061Y-98627359D01*
X114992000Y-98417470D01*
X115078939Y-98627359D01*
X115225038Y-98846013D01*
X115227001Y-98847976D01*
X115227001Y-99344163D01*
X115221994Y-99395000D01*
X115241977Y-99597895D01*
X115301160Y-99792993D01*
X115397266Y-99972797D01*
X115484096Y-100078599D01*
X115526605Y-100130396D01*
X115566093Y-100162803D01*
X116004193Y-100600903D01*
X116036604Y-100640396D01*
X116194203Y-100769734D01*
X116374007Y-100865841D01*
X116569105Y-100925024D01*
X116721162Y-100940000D01*
X116721164Y-100940000D01*
X116772000Y-100945007D01*
X116822835Y-100940000D01*
X118405447Y-100940000D01*
X118407008Y-100955846D01*
X118407008Y-101006947D01*
X118416977Y-101057065D01*
X118421984Y-101107903D01*
X118436812Y-101156785D01*
X118446782Y-101206906D01*
X118466339Y-101254121D01*
X118481167Y-101303001D01*
X118505246Y-101348050D01*
X118524803Y-101395264D01*
X118553194Y-101437754D01*
X118577274Y-101482805D01*
X118609680Y-101522292D01*
X118638071Y-101564782D01*
X118674205Y-101600916D01*
X118706612Y-101640404D01*
X118746100Y-101672811D01*
X118782234Y-101708945D01*
X118824724Y-101737336D01*
X118864211Y-101769742D01*
X118909262Y-101793822D01*
X118951752Y-101822213D01*
X118998966Y-101841770D01*
X119044015Y-101865849D01*
X119092895Y-101880677D01*
X119140110Y-101900234D01*
X119190231Y-101910204D01*
X119239113Y-101925032D01*
X119289951Y-101930039D01*
X119340069Y-101940008D01*
X132741164Y-101940008D01*
X132791992Y-101945014D01*
X132842820Y-101940008D01*
X132842830Y-101940008D01*
X132994887Y-101925032D01*
X133189985Y-101865849D01*
X133369789Y-101769742D01*
X133527388Y-101640404D01*
X133559799Y-101600911D01*
X133839803Y-101320907D01*
X146020711Y-89140000D01*
X154528912Y-89140000D01*
X150183079Y-93485834D01*
X147761886Y-93488000D01*
X147737112Y-93490462D01*
X147713294Y-93497711D01*
X147691348Y-93509467D01*
X147672117Y-93525278D01*
X147656340Y-93544537D01*
X147644624Y-93566504D01*
X147637418Y-93590335D01*
X147635000Y-93615000D01*
X147635000Y-96033913D01*
X145761446Y-97907467D01*
X145647053Y-97672430D01*
X145471049Y-97440571D01*
X145253193Y-97247504D01*
X145001858Y-97100648D01*
X144738890Y-97008524D01*
X144509000Y-97129845D01*
X144509000Y-98448000D01*
X144529000Y-98448000D01*
X144529000Y-98702000D01*
X144509000Y-98702000D01*
X144509000Y-98722000D01*
X144255000Y-98722000D01*
X144255000Y-98702000D01*
X144235000Y-98702000D01*
X144235000Y-98448000D01*
X144255000Y-98448000D01*
X144255000Y-97129845D01*
X144025110Y-97008524D01*
X143762142Y-97100648D01*
X143510807Y-97247504D01*
X143292951Y-97440571D01*
X143136462Y-97646722D01*
X143122706Y-97620986D01*
X142937134Y-97394866D01*
X142711013Y-97209294D01*
X142453033Y-97071401D01*
X142173110Y-96986487D01*
X141882000Y-96957815D01*
X141590889Y-96986487D01*
X141310966Y-97071401D01*
X141052986Y-97209294D01*
X140826866Y-97394866D01*
X140774777Y-97458337D01*
X140720405Y-97356614D01*
X140609962Y-97222038D01*
X140475386Y-97111595D01*
X140321850Y-97029528D01*
X140155254Y-96978992D01*
X139982000Y-96961928D01*
X138782000Y-96961928D01*
X138608746Y-96978992D01*
X138442150Y-97029528D01*
X138288614Y-97111595D01*
X138154038Y-97222038D01*
X138043595Y-97356614D01*
X137961528Y-97510150D01*
X137910992Y-97676746D01*
X137893928Y-97850000D01*
X137893928Y-99300000D01*
X137910992Y-99473254D01*
X137961528Y-99639850D01*
X138043595Y-99793386D01*
X138154038Y-99927962D01*
X138288614Y-100038405D01*
X138442150Y-100120472D01*
X138608746Y-100171008D01*
X138782000Y-100188072D01*
X139982000Y-100188072D01*
X140155254Y-100171008D01*
X140321850Y-100120472D01*
X140475386Y-100038405D01*
X140609962Y-99927962D01*
X140720405Y-99793386D01*
X140774777Y-99691663D01*
X140826866Y-99755134D01*
X141052987Y-99940706D01*
X141310967Y-100078599D01*
X141590890Y-100163513D01*
X141882000Y-100192185D01*
X142173111Y-100163513D01*
X142453034Y-100078599D01*
X142711014Y-99940706D01*
X142937134Y-99755134D01*
X143122706Y-99529014D01*
X143136462Y-99503278D01*
X143292951Y-99709429D01*
X143510807Y-99902496D01*
X143672146Y-99996767D01*
X137178931Y-106489982D01*
X125902853Y-106489982D01*
X125852018Y-106484975D01*
X125801182Y-106489982D01*
X125801180Y-106489982D01*
X125649123Y-106504958D01*
X125454025Y-106564141D01*
X125437646Y-106572896D01*
X125274220Y-106660248D01*
X125180459Y-106737196D01*
X125116622Y-106789586D01*
X125084215Y-106829074D01*
X113026093Y-118887197D01*
X112986605Y-118919604D01*
X112954198Y-118959092D01*
X112954197Y-118959093D01*
X112857266Y-119077203D01*
X112761160Y-119257007D01*
X112701977Y-119452105D01*
X112681994Y-119655000D01*
X112687001Y-119705837D01*
X112687001Y-120002024D01*
X112685038Y-120003987D01*
X112538939Y-120222641D01*
X112452000Y-120432530D01*
X112365061Y-120222641D01*
X112218962Y-120003987D01*
X112033013Y-119818038D01*
X111814359Y-119671939D01*
X111571405Y-119571304D01*
X111313486Y-119520000D01*
X111050514Y-119520000D01*
X110792595Y-119571304D01*
X110549641Y-119671939D01*
X110330987Y-119818038D01*
X110145038Y-120003987D01*
X109998939Y-120222641D01*
X109912000Y-120432530D01*
X109825061Y-120222641D01*
X109678962Y-120003987D01*
X109493013Y-119818038D01*
X109274359Y-119671939D01*
X109031405Y-119571304D01*
X108773486Y-119520000D01*
X108510514Y-119520000D01*
X108252595Y-119571304D01*
X108009641Y-119671939D01*
X107790987Y-119818038D01*
X107605038Y-120003987D01*
X107458939Y-120222641D01*
X107372000Y-120432530D01*
X107285061Y-120222641D01*
X107138962Y-120003987D01*
X106953013Y-119818038D01*
X106734359Y-119671939D01*
X106491405Y-119571304D01*
X106233486Y-119520000D01*
X105970514Y-119520000D01*
X105712595Y-119571304D01*
X105469641Y-119671939D01*
X105250987Y-119818038D01*
X105065038Y-120003987D01*
X104918939Y-120222641D01*
X104818304Y-120465595D01*
X104767000Y-120723514D01*
X104767000Y-120986486D01*
X104818304Y-121244405D01*
X104918939Y-121487359D01*
X105065038Y-121706013D01*
X105250987Y-121891962D01*
X105469641Y-122038061D01*
X105683444Y-122126621D01*
X105520634Y-122186065D01*
X105419797Y-122239963D01*
X105360336Y-122473731D01*
X106102000Y-123215395D01*
X106843664Y-122473731D01*
X106784203Y-122239963D01*
X106545758Y-122129066D01*
X106526173Y-122124294D01*
X106734359Y-122038061D01*
X106953013Y-121891962D01*
X107138962Y-121706013D01*
X107285061Y-121487359D01*
X107372000Y-121277470D01*
X107458939Y-121487359D01*
X107605038Y-121706013D01*
X107790987Y-121891962D01*
X108009641Y-122038061D01*
X108219530Y-122125000D01*
X108009641Y-122211939D01*
X107790987Y-122358038D01*
X107605038Y-122543987D01*
X107458939Y-122762641D01*
X107370379Y-122976444D01*
X107310935Y-122813634D01*
X107257037Y-122712797D01*
X107023269Y-122653336D01*
X106281605Y-123395000D01*
X107023269Y-124136664D01*
X107257037Y-124077203D01*
X107367934Y-123838758D01*
X107372706Y-123819173D01*
X107458939Y-124027359D01*
X107605038Y-124246013D01*
X107790987Y-124431962D01*
X108009641Y-124578061D01*
X108252595Y-124678696D01*
X108510514Y-124730000D01*
X108773486Y-124730000D01*
X109031405Y-124678696D01*
X109274359Y-124578061D01*
X109493013Y-124431962D01*
X109678962Y-124246013D01*
X109825061Y-124027359D01*
X109912000Y-123817470D01*
X109998939Y-124027359D01*
X110145038Y-124246013D01*
X110330987Y-124431962D01*
X110549641Y-124578061D01*
X110792595Y-124678696D01*
X111050514Y-124730000D01*
X111313486Y-124730000D01*
X111571405Y-124678696D01*
X111814359Y-124578061D01*
X112033013Y-124431962D01*
X112218962Y-124246013D01*
X112365061Y-124027359D01*
X112452000Y-123817470D01*
X112538939Y-124027359D01*
X112685038Y-124246013D01*
X112870987Y-124431962D01*
X113089641Y-124578061D01*
X113332595Y-124678696D01*
X113590514Y-124730000D01*
X113853486Y-124730000D01*
X114111405Y-124678696D01*
X114354359Y-124578061D01*
X114573013Y-124431962D01*
X114758962Y-124246013D01*
X114905061Y-124027359D01*
X114992000Y-123817470D01*
X115078939Y-124027359D01*
X115225038Y-124246013D01*
X115410987Y-124431962D01*
X115629641Y-124578061D01*
X115872595Y-124678696D01*
X116130514Y-124730000D01*
X116393486Y-124730000D01*
X116651405Y-124678696D01*
X116894359Y-124578061D01*
X117113013Y-124431962D01*
X117298962Y-124246013D01*
X117445061Y-124027359D01*
X117532000Y-123817470D01*
X117618939Y-124027359D01*
X117765038Y-124246013D01*
X117950987Y-124431962D01*
X118169641Y-124578061D01*
X118412595Y-124678696D01*
X118670514Y-124730000D01*
X118933486Y-124730000D01*
X119191405Y-124678696D01*
X119434359Y-124578061D01*
X119653013Y-124431962D01*
X119838962Y-124246013D01*
X119985061Y-124027359D01*
X120072000Y-123817470D01*
X120158939Y-124027359D01*
X120305038Y-124246013D01*
X120490987Y-124431962D01*
X120709641Y-124578061D01*
X120952595Y-124678696D01*
X121210514Y-124730000D01*
X121473486Y-124730000D01*
X121731405Y-124678696D01*
X121974359Y-124578061D01*
X122193013Y-124431962D01*
X122378962Y-124246013D01*
X122525061Y-124027359D01*
X122612000Y-123817470D01*
X122698939Y-124027359D01*
X122845038Y-124246013D01*
X123030987Y-124431962D01*
X123249641Y-124578061D01*
X123492595Y-124678696D01*
X123750514Y-124730000D01*
X124013486Y-124730000D01*
X124271405Y-124678696D01*
X124514359Y-124578061D01*
X124733013Y-124431962D01*
X124918962Y-124246013D01*
X125065061Y-124027359D01*
X125152000Y-123817470D01*
X125238939Y-124027359D01*
X125385038Y-124246013D01*
X125570987Y-124431962D01*
X125789641Y-124578061D01*
X126032595Y-124678696D01*
X126290514Y-124730000D01*
X126553486Y-124730000D01*
X126811405Y-124678696D01*
X127054359Y-124578061D01*
X127273013Y-124431962D01*
X127458962Y-124246013D01*
X127605061Y-124027359D01*
X127692000Y-123817470D01*
X127778939Y-124027359D01*
X127925038Y-124246013D01*
X128110987Y-124431962D01*
X128329641Y-124578061D01*
X128572595Y-124678696D01*
X128830514Y-124730000D01*
X129093486Y-124730000D01*
X129351405Y-124678696D01*
X129594359Y-124578061D01*
X129813013Y-124431962D01*
X129998962Y-124246013D01*
X130145061Y-124027359D01*
X130245696Y-123784405D01*
X130297000Y-123526486D01*
X130297000Y-123263514D01*
X130245696Y-123005595D01*
X130145061Y-122762641D01*
X129998962Y-122543987D01*
X129813013Y-122358038D01*
X129594359Y-122211939D01*
X129384470Y-122125000D01*
X129594359Y-122038061D01*
X129813013Y-121891962D01*
X129998962Y-121706013D01*
X130145061Y-121487359D01*
X130245696Y-121244405D01*
X130297000Y-120986486D01*
X130297000Y-120723514D01*
X130252540Y-120500000D01*
X137832473Y-120500000D01*
X137841528Y-120529850D01*
X137923595Y-120683386D01*
X138034038Y-120817962D01*
X138168614Y-120928405D01*
X138322150Y-121010472D01*
X138488746Y-121061008D01*
X138662000Y-121078072D01*
X139862000Y-121078072D01*
X140035254Y-121061008D01*
X140201850Y-121010472D01*
X140355386Y-120928405D01*
X140489962Y-120817962D01*
X140600405Y-120683386D01*
X140654777Y-120581663D01*
X140706866Y-120645134D01*
X140932987Y-120830706D01*
X141190967Y-120968599D01*
X141470890Y-121053513D01*
X141762000Y-121082185D01*
X142053111Y-121053513D01*
X142333034Y-120968599D01*
X142591014Y-120830706D01*
X142817134Y-120645134D01*
X143002706Y-120419014D01*
X143012000Y-120401626D01*
X143021294Y-120419014D01*
X143206866Y-120645134D01*
X143432987Y-120830706D01*
X143690967Y-120968599D01*
X143970890Y-121053513D01*
X144262000Y-121082185D01*
X144553111Y-121053513D01*
X144833034Y-120968599D01*
X145091014Y-120830706D01*
X145317134Y-120645134D01*
X145502706Y-120419014D01*
X145516462Y-120393278D01*
X145672951Y-120599429D01*
X145890807Y-120792496D01*
X146142142Y-120939352D01*
X146405110Y-121031476D01*
X146635000Y-120910155D01*
X146635000Y-119592000D01*
X146889000Y-119592000D01*
X146889000Y-120910155D01*
X147118890Y-121031476D01*
X147381858Y-120939352D01*
X147633193Y-120792496D01*
X147851049Y-120599429D01*
X148027053Y-120367570D01*
X148154442Y-120105830D01*
X148228320Y-119824267D01*
X148088165Y-119592000D01*
X146889000Y-119592000D01*
X146635000Y-119592000D01*
X146615000Y-119592000D01*
X146615000Y-119338000D01*
X146635000Y-119338000D01*
X146635000Y-118019845D01*
X146889000Y-118019845D01*
X146889000Y-119338000D01*
X148088165Y-119338000D01*
X148228320Y-119105733D01*
X148194018Y-118975000D01*
X155503928Y-118975000D01*
X155503928Y-121475000D01*
X155516188Y-121599482D01*
X155552498Y-121719180D01*
X155611463Y-121829494D01*
X155690815Y-121926185D01*
X155787506Y-122005537D01*
X155897820Y-122064502D01*
X156017518Y-122100812D01*
X156142000Y-122113072D01*
X158642000Y-122113072D01*
X158766482Y-122100812D01*
X158886180Y-122064502D01*
X158996494Y-122005537D01*
X159093185Y-121926185D01*
X159172537Y-121829494D01*
X159231502Y-121719180D01*
X159267812Y-121599482D01*
X159280072Y-121475000D01*
X159280072Y-120039344D01*
X160587000Y-120039344D01*
X160587000Y-120410656D01*
X160659439Y-120774834D01*
X160801534Y-121117882D01*
X161007825Y-121426618D01*
X161270382Y-121689175D01*
X161579118Y-121895466D01*
X161922166Y-122037561D01*
X162286344Y-122110000D01*
X162657656Y-122110000D01*
X163021834Y-122037561D01*
X163364882Y-121895466D01*
X163673618Y-121689175D01*
X163936175Y-121426618D01*
X164142466Y-121117882D01*
X164284561Y-120774834D01*
X164357000Y-120410656D01*
X164357000Y-120039344D01*
X164284561Y-119675166D01*
X164142466Y-119332118D01*
X163936175Y-119023382D01*
X163887793Y-118975000D01*
X165683928Y-118975000D01*
X165683928Y-121475000D01*
X165696188Y-121599482D01*
X165732498Y-121719180D01*
X165791463Y-121829494D01*
X165870815Y-121926185D01*
X165967506Y-122005537D01*
X166077820Y-122064502D01*
X166197518Y-122100812D01*
X166322000Y-122113072D01*
X168822000Y-122113072D01*
X168946482Y-122100812D01*
X169066180Y-122064502D01*
X169176494Y-122005537D01*
X169273185Y-121926185D01*
X169352537Y-121829494D01*
X169411502Y-121719180D01*
X169447812Y-121599482D01*
X169460072Y-121475000D01*
X169460072Y-120039344D01*
X170767000Y-120039344D01*
X170767000Y-120410656D01*
X170839439Y-120774834D01*
X170981534Y-121117882D01*
X171187825Y-121426618D01*
X171450382Y-121689175D01*
X171759118Y-121895466D01*
X172102166Y-122037561D01*
X172466344Y-122110000D01*
X172837656Y-122110000D01*
X173201834Y-122037561D01*
X173544882Y-121895466D01*
X173853618Y-121689175D01*
X174116175Y-121426618D01*
X174322466Y-121117882D01*
X174464561Y-120774834D01*
X174537000Y-120410656D01*
X174537000Y-120039344D01*
X174464561Y-119675166D01*
X174322466Y-119332118D01*
X174116175Y-119023382D01*
X174067793Y-118975000D01*
X175853928Y-118975000D01*
X175853928Y-121475000D01*
X175866188Y-121599482D01*
X175902498Y-121719180D01*
X175961463Y-121829494D01*
X176040815Y-121926185D01*
X176137506Y-122005537D01*
X176247820Y-122064502D01*
X176367518Y-122100812D01*
X176492000Y-122113072D01*
X178992000Y-122113072D01*
X179116482Y-122100812D01*
X179236180Y-122064502D01*
X179346494Y-122005537D01*
X179443185Y-121926185D01*
X179522537Y-121829494D01*
X179581502Y-121719180D01*
X179617812Y-121599482D01*
X179630072Y-121475000D01*
X179630072Y-120039344D01*
X180937000Y-120039344D01*
X180937000Y-120410656D01*
X181009439Y-120774834D01*
X181151534Y-121117882D01*
X181357825Y-121426618D01*
X181620382Y-121689175D01*
X181929118Y-121895466D01*
X182272166Y-122037561D01*
X182636344Y-122110000D01*
X183007656Y-122110000D01*
X183371834Y-122037561D01*
X183714882Y-121895466D01*
X184023618Y-121689175D01*
X184286175Y-121426618D01*
X184492466Y-121117882D01*
X184634561Y-120774834D01*
X184707000Y-120410656D01*
X184707000Y-120039344D01*
X184634561Y-119675166D01*
X184492466Y-119332118D01*
X184286175Y-119023382D01*
X184237793Y-118975000D01*
X186023928Y-118975000D01*
X186023928Y-121475000D01*
X186036188Y-121599482D01*
X186072498Y-121719180D01*
X186131463Y-121829494D01*
X186210815Y-121926185D01*
X186307506Y-122005537D01*
X186417820Y-122064502D01*
X186537518Y-122100812D01*
X186662000Y-122113072D01*
X189162000Y-122113072D01*
X189286482Y-122100812D01*
X189406180Y-122064502D01*
X189516494Y-122005537D01*
X189613185Y-121926185D01*
X189692537Y-121829494D01*
X189751502Y-121719180D01*
X189787812Y-121599482D01*
X189800072Y-121475000D01*
X189800072Y-120039344D01*
X191107000Y-120039344D01*
X191107000Y-120410656D01*
X191179439Y-120774834D01*
X191321534Y-121117882D01*
X191527825Y-121426618D01*
X191790382Y-121689175D01*
X192099118Y-121895466D01*
X192442166Y-122037561D01*
X192806344Y-122110000D01*
X193177656Y-122110000D01*
X193541834Y-122037561D01*
X193884882Y-121895466D01*
X194193618Y-121689175D01*
X194456175Y-121426618D01*
X194662466Y-121117882D01*
X194804561Y-120774834D01*
X194877000Y-120410656D01*
X194877000Y-120039344D01*
X194804561Y-119675166D01*
X194662466Y-119332118D01*
X194456175Y-119023382D01*
X194193618Y-118760825D01*
X193884882Y-118554534D01*
X193541834Y-118412439D01*
X193177656Y-118340000D01*
X192806344Y-118340000D01*
X192442166Y-118412439D01*
X192099118Y-118554534D01*
X191790382Y-118760825D01*
X191527825Y-119023382D01*
X191321534Y-119332118D01*
X191179439Y-119675166D01*
X191107000Y-120039344D01*
X189800072Y-120039344D01*
X189800072Y-118975000D01*
X189787812Y-118850518D01*
X189751502Y-118730820D01*
X189692537Y-118620506D01*
X189613185Y-118523815D01*
X189516494Y-118444463D01*
X189406180Y-118385498D01*
X189286482Y-118349188D01*
X189162000Y-118336928D01*
X186662000Y-118336928D01*
X186537518Y-118349188D01*
X186417820Y-118385498D01*
X186307506Y-118444463D01*
X186210815Y-118523815D01*
X186131463Y-118620506D01*
X186072498Y-118730820D01*
X186036188Y-118850518D01*
X186023928Y-118975000D01*
X184237793Y-118975000D01*
X184023618Y-118760825D01*
X183714882Y-118554534D01*
X183371834Y-118412439D01*
X183007656Y-118340000D01*
X182636344Y-118340000D01*
X182272166Y-118412439D01*
X181929118Y-118554534D01*
X181620382Y-118760825D01*
X181357825Y-119023382D01*
X181151534Y-119332118D01*
X181009439Y-119675166D01*
X180937000Y-120039344D01*
X179630072Y-120039344D01*
X179630072Y-118975000D01*
X179617812Y-118850518D01*
X179581502Y-118730820D01*
X179522537Y-118620506D01*
X179443185Y-118523815D01*
X179346494Y-118444463D01*
X179236180Y-118385498D01*
X179116482Y-118349188D01*
X178992000Y-118336928D01*
X176492000Y-118336928D01*
X176367518Y-118349188D01*
X176247820Y-118385498D01*
X176137506Y-118444463D01*
X176040815Y-118523815D01*
X175961463Y-118620506D01*
X175902498Y-118730820D01*
X175866188Y-118850518D01*
X175853928Y-118975000D01*
X174067793Y-118975000D01*
X173853618Y-118760825D01*
X173544882Y-118554534D01*
X173201834Y-118412439D01*
X172837656Y-118340000D01*
X172466344Y-118340000D01*
X172102166Y-118412439D01*
X171759118Y-118554534D01*
X171450382Y-118760825D01*
X171187825Y-119023382D01*
X170981534Y-119332118D01*
X170839439Y-119675166D01*
X170767000Y-120039344D01*
X169460072Y-120039344D01*
X169460072Y-118975000D01*
X169447812Y-118850518D01*
X169411502Y-118730820D01*
X169352537Y-118620506D01*
X169273185Y-118523815D01*
X169176494Y-118444463D01*
X169066180Y-118385498D01*
X168946482Y-118349188D01*
X168822000Y-118336928D01*
X166322000Y-118336928D01*
X166197518Y-118349188D01*
X166077820Y-118385498D01*
X165967506Y-118444463D01*
X165870815Y-118523815D01*
X165791463Y-118620506D01*
X165732498Y-118730820D01*
X165696188Y-118850518D01*
X165683928Y-118975000D01*
X163887793Y-118975000D01*
X163673618Y-118760825D01*
X163364882Y-118554534D01*
X163021834Y-118412439D01*
X162657656Y-118340000D01*
X162286344Y-118340000D01*
X161922166Y-118412439D01*
X161579118Y-118554534D01*
X161270382Y-118760825D01*
X161007825Y-119023382D01*
X160801534Y-119332118D01*
X160659439Y-119675166D01*
X160587000Y-120039344D01*
X159280072Y-120039344D01*
X159280072Y-118975000D01*
X159267812Y-118850518D01*
X159231502Y-118730820D01*
X159172537Y-118620506D01*
X159093185Y-118523815D01*
X158996494Y-118444463D01*
X158886180Y-118385498D01*
X158766482Y-118349188D01*
X158642000Y-118336928D01*
X156142000Y-118336928D01*
X156017518Y-118349188D01*
X155897820Y-118385498D01*
X155787506Y-118444463D01*
X155690815Y-118523815D01*
X155611463Y-118620506D01*
X155552498Y-118730820D01*
X155516188Y-118850518D01*
X155503928Y-118975000D01*
X148194018Y-118975000D01*
X148154442Y-118824170D01*
X148027053Y-118562430D01*
X147851049Y-118330571D01*
X147633193Y-118137504D01*
X147381858Y-117990648D01*
X147118890Y-117898524D01*
X146889000Y-118019845D01*
X146635000Y-118019845D01*
X146405110Y-117898524D01*
X146142142Y-117990648D01*
X145890807Y-118137504D01*
X145672951Y-118330571D01*
X145516462Y-118536722D01*
X145502706Y-118510986D01*
X145317134Y-118284866D01*
X145091013Y-118099294D01*
X144833033Y-117961401D01*
X144553110Y-117876487D01*
X144262000Y-117847815D01*
X144122286Y-117861576D01*
X142449797Y-116189087D01*
X142417386Y-116149594D01*
X142259787Y-116020256D01*
X142079983Y-115924149D01*
X141884885Y-115864966D01*
X141732828Y-115849990D01*
X141732818Y-115849990D01*
X141681990Y-115844984D01*
X141631162Y-115849990D01*
X125820061Y-115849990D01*
X125769943Y-115859959D01*
X125719105Y-115864966D01*
X125670223Y-115879794D01*
X125620102Y-115889764D01*
X125572887Y-115909321D01*
X125524007Y-115924149D01*
X125478958Y-115948228D01*
X125431744Y-115967785D01*
X125389254Y-115996176D01*
X125344203Y-116020256D01*
X125304716Y-116052662D01*
X125262226Y-116081053D01*
X125226092Y-116117187D01*
X125186604Y-116149594D01*
X125154197Y-116189082D01*
X125118063Y-116225216D01*
X125089672Y-116267706D01*
X125057266Y-116307193D01*
X125033186Y-116352244D01*
X125004795Y-116394734D01*
X124985238Y-116441948D01*
X124961159Y-116486997D01*
X124946331Y-116535877D01*
X124926774Y-116583092D01*
X124916804Y-116633213D01*
X124901976Y-116682095D01*
X124896969Y-116732933D01*
X124887000Y-116783051D01*
X124887000Y-116834152D01*
X124881993Y-116884990D01*
X124887000Y-116935828D01*
X124887000Y-116986929D01*
X124896969Y-117037047D01*
X124901976Y-117087885D01*
X124916804Y-117136767D01*
X124926774Y-117186888D01*
X124946331Y-117234103D01*
X124961159Y-117282983D01*
X124985238Y-117328032D01*
X125004795Y-117375246D01*
X125033186Y-117417736D01*
X125055685Y-117459830D01*
X125041159Y-117487007D01*
X125026331Y-117535887D01*
X125006774Y-117583102D01*
X124996804Y-117633223D01*
X124981976Y-117682105D01*
X124976969Y-117732943D01*
X124967000Y-117783061D01*
X124967000Y-117834162D01*
X124961993Y-117885000D01*
X124967000Y-117935838D01*
X124967000Y-117986939D01*
X124976969Y-118037057D01*
X124981976Y-118087895D01*
X124996804Y-118136777D01*
X125006774Y-118186898D01*
X125026331Y-118234113D01*
X125041159Y-118282993D01*
X125065238Y-118328042D01*
X125084795Y-118375256D01*
X125113186Y-118417746D01*
X125119736Y-118430000D01*
X122017063Y-118430000D01*
X121966228Y-118424993D01*
X121915393Y-118430000D01*
X121915390Y-118430000D01*
X121763333Y-118444976D01*
X121568235Y-118504159D01*
X121484537Y-118548896D01*
X121388430Y-118600266D01*
X121326541Y-118651058D01*
X121230832Y-118729604D01*
X121198421Y-118769097D01*
X120646093Y-119321425D01*
X120606605Y-119353832D01*
X120574198Y-119393320D01*
X120574197Y-119393321D01*
X120477266Y-119511431D01*
X120393636Y-119667894D01*
X120381160Y-119691235D01*
X120321977Y-119886333D01*
X120310973Y-119998052D01*
X120305038Y-120003987D01*
X120158939Y-120222641D01*
X120072000Y-120432530D01*
X119985061Y-120222641D01*
X119870109Y-120050601D01*
X126375710Y-113545000D01*
X145813928Y-113545000D01*
X145826188Y-113669482D01*
X145862498Y-113789180D01*
X145921463Y-113899494D01*
X146000815Y-113996185D01*
X146097506Y-114075537D01*
X146207820Y-114134502D01*
X146327518Y-114170812D01*
X146452000Y-114183072D01*
X147016250Y-114180000D01*
X147175000Y-114021250D01*
X147175000Y-112822000D01*
X145975750Y-112822000D01*
X145817000Y-112980750D01*
X145813928Y-113545000D01*
X126375710Y-113545000D01*
X128075710Y-111845000D01*
X145813928Y-111845000D01*
X145817000Y-112409250D01*
X145975750Y-112568000D01*
X147175000Y-112568000D01*
X147175000Y-111368750D01*
X147429000Y-111368750D01*
X147429000Y-112568000D01*
X147449000Y-112568000D01*
X147449000Y-112822000D01*
X147429000Y-112822000D01*
X147429000Y-114021250D01*
X147587750Y-114180000D01*
X148152000Y-114183072D01*
X148276482Y-114170812D01*
X148396180Y-114134502D01*
X148506494Y-114075537D01*
X148572000Y-114021778D01*
X148637506Y-114075537D01*
X148747820Y-114134502D01*
X148867518Y-114170812D01*
X148992000Y-114183072D01*
X150692000Y-114183072D01*
X150816482Y-114170812D01*
X150936180Y-114134502D01*
X151046494Y-114075537D01*
X151143185Y-113996185D01*
X151222537Y-113899494D01*
X151281502Y-113789180D01*
X151317812Y-113669482D01*
X151330072Y-113545000D01*
X151330072Y-111845000D01*
X151317812Y-111720518D01*
X151281502Y-111600820D01*
X151222537Y-111490506D01*
X151143185Y-111393815D01*
X151046494Y-111314463D01*
X150936180Y-111255498D01*
X150816482Y-111219188D01*
X150692000Y-111206928D01*
X148992000Y-111206928D01*
X148867518Y-111219188D01*
X148747820Y-111255498D01*
X148637506Y-111314463D01*
X148572000Y-111368222D01*
X148506494Y-111314463D01*
X148396180Y-111255498D01*
X148276482Y-111219188D01*
X148152000Y-111206928D01*
X147587750Y-111210000D01*
X147429000Y-111368750D01*
X147175000Y-111368750D01*
X147016250Y-111210000D01*
X146452000Y-111206928D01*
X146327518Y-111219188D01*
X146207820Y-111255498D01*
X146097506Y-111314463D01*
X146000815Y-111393815D01*
X145921463Y-111490506D01*
X145862498Y-111600820D01*
X145826188Y-111720518D01*
X145813928Y-111845000D01*
X128075710Y-111845000D01*
X129360711Y-110560000D01*
X150391172Y-110560000D01*
X150442000Y-110565006D01*
X150492828Y-110560000D01*
X150492838Y-110560000D01*
X150644895Y-110545024D01*
X150839993Y-110485841D01*
X151019797Y-110389734D01*
X151177396Y-110260396D01*
X151209807Y-110220903D01*
X152484344Y-108946367D01*
X152485236Y-108948036D01*
X152504795Y-108995256D01*
X152533187Y-109037748D01*
X152557266Y-109082797D01*
X152589671Y-109122283D01*
X152618063Y-109164774D01*
X152664217Y-109210928D01*
X152696624Y-109250416D01*
X152736112Y-109282823D01*
X152762226Y-109308937D01*
X152792933Y-109329455D01*
X152854223Y-109379754D01*
X152924149Y-109417130D01*
X152931744Y-109422205D01*
X152940184Y-109425701D01*
X153034027Y-109475861D01*
X153229125Y-109535044D01*
X153381182Y-109550020D01*
X153381191Y-109550020D01*
X153425873Y-109554421D01*
X153427000Y-109565868D01*
X153427000Y-109616969D01*
X153436969Y-109667087D01*
X153441976Y-109717925D01*
X153456804Y-109766807D01*
X153466774Y-109816928D01*
X153486331Y-109864143D01*
X153501159Y-109913023D01*
X153525238Y-109958072D01*
X153544795Y-110005286D01*
X153573186Y-110047776D01*
X153597266Y-110092827D01*
X153629672Y-110132314D01*
X153658063Y-110174804D01*
X153694197Y-110210938D01*
X153726604Y-110250426D01*
X153766092Y-110282833D01*
X153802226Y-110318967D01*
X153844716Y-110347358D01*
X153884203Y-110379764D01*
X153929254Y-110403844D01*
X153971744Y-110432235D01*
X154018958Y-110451792D01*
X154064007Y-110475871D01*
X154112887Y-110490699D01*
X154160102Y-110510256D01*
X154210223Y-110520226D01*
X154259105Y-110535054D01*
X154309943Y-110540061D01*
X154360061Y-110550030D01*
X186231142Y-110550030D01*
X186281970Y-110555036D01*
X186332798Y-110550030D01*
X186332808Y-110550030D01*
X186484865Y-110535054D01*
X186679963Y-110475871D01*
X186859767Y-110379764D01*
X187017366Y-110250426D01*
X187049777Y-110210933D01*
X190169803Y-107090908D01*
X190205937Y-107054774D01*
X190234325Y-107012288D01*
X190266734Y-106972798D01*
X190290816Y-106927744D01*
X190319205Y-106885256D01*
X190338762Y-106838041D01*
X190362840Y-106792994D01*
X190377666Y-106744120D01*
X190397226Y-106696898D01*
X190407197Y-106646768D01*
X190422023Y-106597895D01*
X190427030Y-106547064D01*
X190437000Y-106496939D01*
X190437000Y-106445835D01*
X190442007Y-106395000D01*
X190437000Y-106344165D01*
X190437000Y-106293061D01*
X190427030Y-106242936D01*
X190422023Y-106192105D01*
X190407197Y-106143232D01*
X190397226Y-106093102D01*
X190377665Y-106045878D01*
X190362840Y-105997007D01*
X190338764Y-105951964D01*
X190319205Y-105904744D01*
X190290813Y-105862252D01*
X190266734Y-105817203D01*
X190234328Y-105777716D01*
X190205937Y-105735226D01*
X190169803Y-105699092D01*
X190137396Y-105659604D01*
X190097908Y-105627197D01*
X190061774Y-105591063D01*
X190019284Y-105562672D01*
X189979797Y-105530266D01*
X189934748Y-105506187D01*
X189892256Y-105477795D01*
X189845036Y-105458236D01*
X189799993Y-105434160D01*
X189751122Y-105419335D01*
X189703898Y-105399774D01*
X189653768Y-105389803D01*
X189604895Y-105374977D01*
X189554064Y-105369970D01*
X189503939Y-105360000D01*
X189452835Y-105360000D01*
X189402000Y-105354993D01*
X189351165Y-105360000D01*
X189300061Y-105360000D01*
X189249936Y-105369970D01*
X189199105Y-105374977D01*
X189150232Y-105389803D01*
X189100102Y-105399774D01*
X189052880Y-105419334D01*
X189004006Y-105434160D01*
X188958959Y-105458238D01*
X188911744Y-105477795D01*
X188869256Y-105506184D01*
X188824202Y-105530266D01*
X188784712Y-105562675D01*
X188742226Y-105591063D01*
X188706092Y-105627197D01*
X185853260Y-108480030D01*
X178510680Y-108480030D01*
X179924803Y-107065908D01*
X179960937Y-107029774D01*
X179989325Y-106987288D01*
X180021734Y-106947798D01*
X180045816Y-106902744D01*
X180074205Y-106860256D01*
X180093762Y-106813041D01*
X180117840Y-106767994D01*
X180132666Y-106719119D01*
X180152226Y-106671898D01*
X180162197Y-106621771D01*
X180177023Y-106572896D01*
X180182029Y-106522066D01*
X180192000Y-106471939D01*
X180192000Y-106420829D01*
X180197006Y-106370001D01*
X180192000Y-106319173D01*
X180192000Y-106268061D01*
X180182029Y-106217932D01*
X180177023Y-106167106D01*
X180162198Y-106118234D01*
X180152226Y-106068102D01*
X180132665Y-106020877D01*
X180117840Y-105972007D01*
X180093764Y-105926964D01*
X180074205Y-105879744D01*
X180045813Y-105837252D01*
X180021734Y-105792203D01*
X179989330Y-105752719D01*
X179960937Y-105710226D01*
X179924795Y-105674084D01*
X179892395Y-105634605D01*
X179852916Y-105602205D01*
X179816774Y-105566063D01*
X179774281Y-105537670D01*
X179734797Y-105505266D01*
X179689748Y-105481187D01*
X179647256Y-105452795D01*
X179600036Y-105433236D01*
X179554993Y-105409160D01*
X179506123Y-105394335D01*
X179458898Y-105374774D01*
X179408766Y-105364802D01*
X179359894Y-105349977D01*
X179309068Y-105344971D01*
X179258939Y-105335000D01*
X179207827Y-105335000D01*
X179156999Y-105329994D01*
X179106171Y-105335000D01*
X179055061Y-105335000D01*
X179004934Y-105344971D01*
X178954104Y-105349977D01*
X178905229Y-105364803D01*
X178855102Y-105374774D01*
X178807881Y-105394334D01*
X178759006Y-105409160D01*
X178713959Y-105433238D01*
X178666744Y-105452795D01*
X178624256Y-105481184D01*
X178579202Y-105505266D01*
X178539712Y-105537675D01*
X178497226Y-105566063D01*
X178461092Y-105602197D01*
X176583270Y-107480020D01*
X169410691Y-107480020D01*
X169850937Y-107039774D01*
X169879325Y-106997288D01*
X169911734Y-106957798D01*
X169935817Y-106912742D01*
X169964205Y-106870256D01*
X169983760Y-106823047D01*
X170007841Y-106777994D01*
X170022669Y-106729113D01*
X170042226Y-106681898D01*
X170052197Y-106631771D01*
X170067023Y-106582895D01*
X170072030Y-106532064D01*
X170082000Y-106481939D01*
X170082000Y-106430835D01*
X170087007Y-106380000D01*
X170082000Y-106329165D01*
X170082000Y-106278061D01*
X170072030Y-106227936D01*
X170067023Y-106177105D01*
X170052197Y-106128230D01*
X170042226Y-106078102D01*
X170022668Y-106030885D01*
X170007841Y-105982007D01*
X169983762Y-105936958D01*
X169964205Y-105889744D01*
X169935814Y-105847254D01*
X169911734Y-105802203D01*
X169879328Y-105762716D01*
X169850937Y-105720226D01*
X169814803Y-105684092D01*
X169782396Y-105644604D01*
X169742908Y-105612197D01*
X169706774Y-105576063D01*
X169664284Y-105547672D01*
X169624797Y-105515266D01*
X169579746Y-105491186D01*
X169537256Y-105462795D01*
X169490042Y-105443238D01*
X169444993Y-105419159D01*
X169396115Y-105404332D01*
X169348898Y-105384774D01*
X169298770Y-105374803D01*
X169249895Y-105359977D01*
X169199064Y-105354970D01*
X169148939Y-105345000D01*
X169097835Y-105345000D01*
X169047000Y-105339993D01*
X168996165Y-105345000D01*
X168945061Y-105345000D01*
X168894936Y-105354970D01*
X168844105Y-105359977D01*
X168795229Y-105374803D01*
X168745102Y-105384774D01*
X168697887Y-105404331D01*
X168649006Y-105419159D01*
X168603953Y-105443240D01*
X168556744Y-105462795D01*
X168514258Y-105491183D01*
X168469202Y-105515266D01*
X168429712Y-105547675D01*
X168387226Y-105576063D01*
X168351092Y-105612197D01*
X167483280Y-106480010D01*
X159858561Y-106480010D01*
X159857000Y-106464162D01*
X159857000Y-106413061D01*
X159847031Y-106362943D01*
X159842024Y-106312105D01*
X159827196Y-106263223D01*
X159817226Y-106213102D01*
X159797669Y-106165887D01*
X159782841Y-106117007D01*
X159758762Y-106071958D01*
X159739205Y-106024744D01*
X159710814Y-105982254D01*
X159686734Y-105937203D01*
X159654328Y-105897716D01*
X159625937Y-105855226D01*
X159589803Y-105819092D01*
X159557396Y-105779604D01*
X159517908Y-105747197D01*
X159481774Y-105711063D01*
X159439284Y-105682672D01*
X159399797Y-105650266D01*
X159354746Y-105626186D01*
X159312256Y-105597795D01*
X159265042Y-105578238D01*
X159219993Y-105554159D01*
X159171113Y-105539331D01*
X159123898Y-105519774D01*
X159073777Y-105509804D01*
X159024895Y-105494976D01*
X158974057Y-105489969D01*
X158923939Y-105480000D01*
X155450711Y-105480000D01*
X154055950Y-104085240D01*
X154055948Y-104085237D01*
X153911785Y-103941074D01*
X153869294Y-103912682D01*
X153829808Y-103880277D01*
X153784759Y-103856198D01*
X153742267Y-103827806D01*
X153695047Y-103808247D01*
X153650004Y-103784171D01*
X153601133Y-103769346D01*
X153553909Y-103749785D01*
X153503779Y-103739814D01*
X153454906Y-103724988D01*
X153404078Y-103719982D01*
X153353950Y-103710011D01*
X153302839Y-103710011D01*
X153252011Y-103705005D01*
X153201183Y-103710011D01*
X153150072Y-103710011D01*
X153099944Y-103719982D01*
X153049116Y-103724988D01*
X153000243Y-103739814D01*
X152950113Y-103749785D01*
X152902889Y-103769346D01*
X152854018Y-103784171D01*
X152808975Y-103808247D01*
X152761755Y-103827806D01*
X152719263Y-103856198D01*
X152674214Y-103880277D01*
X152634727Y-103912683D01*
X152592237Y-103941074D01*
X152556103Y-103977208D01*
X152516615Y-104009615D01*
X152484208Y-104049103D01*
X152448074Y-104085237D01*
X152419683Y-104127727D01*
X152387277Y-104167214D01*
X152363198Y-104212263D01*
X152334806Y-104254755D01*
X152315247Y-104301975D01*
X152291171Y-104347018D01*
X152276346Y-104395889D01*
X152256785Y-104443113D01*
X152246814Y-104493243D01*
X152231988Y-104542116D01*
X152226982Y-104592944D01*
X152217011Y-104643072D01*
X152217011Y-104694183D01*
X152212005Y-104745011D01*
X152217011Y-104795839D01*
X152217011Y-104846950D01*
X152226982Y-104897078D01*
X152231988Y-104947906D01*
X152246814Y-104996779D01*
X152256785Y-105046909D01*
X152276346Y-105094133D01*
X152291171Y-105143004D01*
X152315247Y-105188047D01*
X152334806Y-105235267D01*
X152363198Y-105277759D01*
X152387277Y-105322808D01*
X152419682Y-105362294D01*
X152448074Y-105404785D01*
X152592237Y-105548948D01*
X152592240Y-105548950D01*
X153513288Y-106469999D01*
X152512836Y-106469999D01*
X152462001Y-106464992D01*
X152411166Y-106469999D01*
X152411163Y-106469999D01*
X152259106Y-106484975D01*
X152064008Y-106544158D01*
X152010243Y-106572896D01*
X151884203Y-106640265D01*
X151789611Y-106717895D01*
X151726605Y-106769603D01*
X151694198Y-106809091D01*
X151306493Y-107196796D01*
X151317812Y-107159482D01*
X151330072Y-107035000D01*
X151330072Y-105335000D01*
X151317812Y-105210518D01*
X151281502Y-105090820D01*
X151222537Y-104980506D01*
X151143185Y-104883815D01*
X151046494Y-104804463D01*
X150936180Y-104745498D01*
X150816482Y-104709188D01*
X150692000Y-104696928D01*
X148992000Y-104696928D01*
X148867518Y-104709188D01*
X148747820Y-104745498D01*
X148637506Y-104804463D01*
X148572000Y-104858222D01*
X148506494Y-104804463D01*
X148396180Y-104745498D01*
X148276482Y-104709188D01*
X148152000Y-104696928D01*
X147587750Y-104700000D01*
X147429000Y-104858750D01*
X147429000Y-106058000D01*
X147449000Y-106058000D01*
X147449000Y-106312000D01*
X147429000Y-106312000D01*
X147429000Y-107511250D01*
X147587750Y-107670000D01*
X148152000Y-107673072D01*
X148276482Y-107660812D01*
X148396180Y-107624502D01*
X148506494Y-107565537D01*
X148572000Y-107511778D01*
X148637506Y-107565537D01*
X148747820Y-107624502D01*
X148867518Y-107660812D01*
X148992000Y-107673072D01*
X150692000Y-107673072D01*
X150816482Y-107660812D01*
X150853797Y-107649493D01*
X150013290Y-108490000D01*
X139520559Y-108490000D01*
X140975559Y-107035000D01*
X145813928Y-107035000D01*
X145826188Y-107159482D01*
X145862498Y-107279180D01*
X145921463Y-107389494D01*
X146000815Y-107486185D01*
X146097506Y-107565537D01*
X146207820Y-107624502D01*
X146327518Y-107660812D01*
X146452000Y-107673072D01*
X147016250Y-107670000D01*
X147175000Y-107511250D01*
X147175000Y-106312000D01*
X145975750Y-106312000D01*
X145817000Y-106470750D01*
X145813928Y-107035000D01*
X140975559Y-107035000D01*
X142675559Y-105335000D01*
X145813928Y-105335000D01*
X145817000Y-105899250D01*
X145975750Y-106058000D01*
X147175000Y-106058000D01*
X147175000Y-104858750D01*
X147016250Y-104700000D01*
X146452000Y-104696928D01*
X146327518Y-104709188D01*
X146207820Y-104745498D01*
X146097506Y-104804463D01*
X146000815Y-104883815D01*
X145921463Y-104980506D01*
X145862498Y-105090820D01*
X145826188Y-105210518D01*
X145813928Y-105335000D01*
X142675559Y-105335000D01*
X147635000Y-100375559D01*
X147635000Y-101855000D01*
X147637440Y-101879776D01*
X147644667Y-101903601D01*
X147656403Y-101925557D01*
X147672197Y-101944803D01*
X147691443Y-101960597D01*
X147713399Y-101972333D01*
X147737224Y-101979560D01*
X147761954Y-101982000D01*
X201577001Y-102001399D01*
X201577001Y-121218000D01*
X200325767Y-121218000D01*
X200176729Y-121068962D01*
X199810669Y-120824369D01*
X199403925Y-120655890D01*
X198972128Y-120570000D01*
X198531872Y-120570000D01*
X198100075Y-120655890D01*
X197693331Y-120824369D01*
X197327271Y-121068962D01*
X197178233Y-121218000D01*
X195302000Y-121218000D01*
X195277224Y-121220440D01*
X195253399Y-121227667D01*
X195231443Y-121239403D01*
X195212197Y-121255197D01*
X195196403Y-121274443D01*
X195184667Y-121296399D01*
X195177440Y-121320224D01*
X195175000Y-121345000D01*
X195175000Y-125624706D01*
X104192234Y-125591352D01*
X104188090Y-124316269D01*
X105360336Y-124316269D01*
X105419797Y-124550037D01*
X105658242Y-124660934D01*
X105913740Y-124723183D01*
X106176473Y-124734390D01*
X106436344Y-124694125D01*
X106683366Y-124603935D01*
X106784203Y-124550037D01*
X106843664Y-124316269D01*
X106102000Y-123574605D01*
X105360336Y-124316269D01*
X104188090Y-124316269D01*
X104185337Y-123469473D01*
X104762610Y-123469473D01*
X104802875Y-123729344D01*
X104893065Y-123976366D01*
X104946963Y-124077203D01*
X105180731Y-124136664D01*
X105922395Y-123395000D01*
X105180731Y-122653336D01*
X104946963Y-122712797D01*
X104836066Y-122951242D01*
X104773817Y-123206740D01*
X104762610Y-123469473D01*
X104185337Y-123469473D01*
X104094514Y-95529473D01*
X104762610Y-95529473D01*
X104802875Y-95789344D01*
X104893065Y-96036366D01*
X104946963Y-96137203D01*
X105180731Y-96196664D01*
X105922395Y-95455000D01*
X105180731Y-94713336D01*
X104946963Y-94772797D01*
X104836066Y-95011242D01*
X104773817Y-95266740D01*
X104762610Y-95529473D01*
X104094514Y-95529473D01*
X104091277Y-94533731D01*
X105360336Y-94533731D01*
X106102000Y-95275395D01*
X106843664Y-94533731D01*
X106784203Y-94299963D01*
X106545758Y-94189066D01*
X106290260Y-94126817D01*
X106027527Y-94115610D01*
X105767656Y-94155875D01*
X105520634Y-94246065D01*
X105419797Y-94299963D01*
X105360336Y-94533731D01*
X104091277Y-94533731D01*
X104090249Y-94217615D01*
X104087823Y-94193319D01*
X104080609Y-94169491D01*
X104068885Y-94147528D01*
X104053101Y-94128274D01*
X104033865Y-94112470D01*
X104011915Y-94100722D01*
X103988094Y-94093482D01*
X103963319Y-94091028D01*
X95436504Y-94086385D01*
X95434189Y-89511000D01*
X106571328Y-89511000D01*
X106583588Y-89635482D01*
X106619898Y-89755180D01*
X106678863Y-89865494D01*
X106758215Y-89962185D01*
X106854906Y-90041537D01*
X106965220Y-90100502D01*
X107084918Y-90136812D01*
X107209400Y-90149072D01*
X107673650Y-90146000D01*
X107832400Y-89987250D01*
X107832400Y-89113000D01*
X108086400Y-89113000D01*
X108086400Y-89987250D01*
X108245150Y-90146000D01*
X108709400Y-90149072D01*
X108833882Y-90136812D01*
X108953580Y-90100502D01*
X109063894Y-90041537D01*
X109160585Y-89962185D01*
X109239937Y-89865494D01*
X109298902Y-89755180D01*
X109335212Y-89635482D01*
X109347472Y-89511000D01*
X109344400Y-89271750D01*
X109185650Y-89113000D01*
X108086400Y-89113000D01*
X107832400Y-89113000D01*
X106733150Y-89113000D01*
X106574400Y-89271750D01*
X106571328Y-89511000D01*
X95434189Y-89511000D01*
X95433954Y-89045000D01*
X113913928Y-89045000D01*
X113913928Y-90745000D01*
X113926188Y-90869482D01*
X113962498Y-90989180D01*
X114021463Y-91099494D01*
X114100815Y-91196185D01*
X114197506Y-91275537D01*
X114307820Y-91334502D01*
X114427518Y-91370812D01*
X114552000Y-91383072D01*
X116252000Y-91383072D01*
X116376482Y-91370812D01*
X116496180Y-91334502D01*
X116606494Y-91275537D01*
X116703185Y-91196185D01*
X116782537Y-91099494D01*
X116841502Y-90989180D01*
X116877812Y-90869482D01*
X116890072Y-90745000D01*
X116890072Y-89045000D01*
X116877812Y-88920518D01*
X116841502Y-88800820D01*
X116782537Y-88690506D01*
X116703185Y-88593815D01*
X116606494Y-88514463D01*
X116496180Y-88455498D01*
X116376482Y-88419188D01*
X116252000Y-88406928D01*
X114552000Y-88406928D01*
X114427518Y-88419188D01*
X114307820Y-88455498D01*
X114197506Y-88514463D01*
X114100815Y-88593815D01*
X114021463Y-88690506D01*
X113962498Y-88800820D01*
X113926188Y-88920518D01*
X113913928Y-89045000D01*
X95433954Y-89045000D01*
X95432637Y-86446000D01*
X106568788Y-86446000D01*
X106591185Y-86673400D01*
X106657515Y-86892060D01*
X106758505Y-87081000D01*
X106657515Y-87269940D01*
X106591185Y-87488600D01*
X106568788Y-87716000D01*
X106591185Y-87943400D01*
X106654493Y-88152098D01*
X106619898Y-88216820D01*
X106583588Y-88336518D01*
X106571328Y-88461000D01*
X106574400Y-88700250D01*
X106733150Y-88859000D01*
X107506291Y-88859000D01*
X107507000Y-88859215D01*
X107677421Y-88876000D01*
X108241379Y-88876000D01*
X108411800Y-88859215D01*
X108412509Y-88859000D01*
X109185650Y-88859000D01*
X109344400Y-88700250D01*
X109347472Y-88461000D01*
X109335212Y-88336518D01*
X109316950Y-88276314D01*
X131492500Y-88276314D01*
X131492500Y-88527285D01*
X131515470Y-88760503D01*
X131606245Y-89059748D01*
X131753655Y-89335534D01*
X131952037Y-89577263D01*
X132193765Y-89775645D01*
X132469551Y-89923055D01*
X132768796Y-90013830D01*
X133080000Y-90044481D01*
X133391203Y-90013830D01*
X133690448Y-89923055D01*
X133966234Y-89775645D01*
X134207963Y-89577263D01*
X134355163Y-89397901D01*
X134510563Y-89583115D01*
X134753077Y-89777769D01*
X135028906Y-89921371D01*
X135247020Y-89992363D01*
X135493000Y-89872394D01*
X135493000Y-88528800D01*
X135473000Y-88528800D01*
X135473000Y-88274800D01*
X135493000Y-88274800D01*
X135493000Y-86931206D01*
X135747000Y-86931206D01*
X135747000Y-88274800D01*
X135767000Y-88274800D01*
X135767000Y-88528800D01*
X135747000Y-88528800D01*
X135747000Y-89872394D01*
X135992980Y-89992363D01*
X136211094Y-89921371D01*
X136486923Y-89777769D01*
X136627941Y-89664581D01*
X136676963Y-89756294D01*
X136756315Y-89852985D01*
X136853006Y-89932337D01*
X136963320Y-89991302D01*
X137083018Y-90027612D01*
X137207500Y-90039872D01*
X139112500Y-90039872D01*
X139236982Y-90027612D01*
X139356680Y-89991302D01*
X139466994Y-89932337D01*
X139563685Y-89852985D01*
X139643037Y-89756294D01*
X139702002Y-89645980D01*
X139738312Y-89526282D01*
X139750572Y-89401800D01*
X139750572Y-87401800D01*
X139738312Y-87277318D01*
X139702002Y-87157620D01*
X139643037Y-87047306D01*
X139563685Y-86950615D01*
X139466994Y-86871263D01*
X139356680Y-86812298D01*
X139236982Y-86775988D01*
X139112500Y-86763728D01*
X137207500Y-86763728D01*
X137083018Y-86775988D01*
X136963320Y-86812298D01*
X136853006Y-86871263D01*
X136756315Y-86950615D01*
X136676963Y-87047306D01*
X136627941Y-87139019D01*
X136486923Y-87025831D01*
X136211094Y-86882229D01*
X135992980Y-86811237D01*
X135747000Y-86931206D01*
X135493000Y-86931206D01*
X135247020Y-86811237D01*
X135028906Y-86882229D01*
X134753077Y-87025831D01*
X134510563Y-87220485D01*
X134355162Y-87405700D01*
X134207963Y-87226337D01*
X133966235Y-87027955D01*
X133690449Y-86880545D01*
X133391204Y-86789770D01*
X133080000Y-86759119D01*
X132768797Y-86789770D01*
X132469552Y-86880545D01*
X132193766Y-87027955D01*
X131952037Y-87226337D01*
X131753655Y-87468065D01*
X131606245Y-87743851D01*
X131515470Y-88043096D01*
X131492500Y-88276314D01*
X109316950Y-88276314D01*
X109298902Y-88216820D01*
X109264307Y-88152098D01*
X109327615Y-87943400D01*
X109350012Y-87716000D01*
X109327615Y-87488600D01*
X109261285Y-87269940D01*
X109160295Y-87081000D01*
X109261285Y-86892060D01*
X109327615Y-86673400D01*
X109350012Y-86446000D01*
X109327615Y-86218600D01*
X109261285Y-85999940D01*
X109153571Y-85798421D01*
X109008612Y-85621788D01*
X108831979Y-85476829D01*
X108630460Y-85369115D01*
X108411800Y-85302785D01*
X108241379Y-85286000D01*
X107677421Y-85286000D01*
X107507000Y-85302785D01*
X107288340Y-85369115D01*
X107086821Y-85476829D01*
X106910188Y-85621788D01*
X106765229Y-85798421D01*
X106657515Y-85999940D01*
X106591185Y-86218600D01*
X106568788Y-86446000D01*
X95432637Y-86446000D01*
X95428626Y-78524419D01*
X101117000Y-78524419D01*
X101117000Y-78905581D01*
X101191361Y-79279419D01*
X101337225Y-79631566D01*
X101548987Y-79948491D01*
X101818509Y-80218013D01*
X102135434Y-80429775D01*
X102487581Y-80575639D01*
X102861419Y-80650000D01*
X103242581Y-80650000D01*
X103616419Y-80575639D01*
X103968566Y-80429775D01*
X104285491Y-80218013D01*
X104555013Y-79948491D01*
X104766775Y-79631566D01*
X104912639Y-79279419D01*
X104987000Y-78905581D01*
X104987000Y-78524419D01*
X104912639Y-78150581D01*
X104766775Y-77798434D01*
X104555013Y-77481509D01*
X104285491Y-77211987D01*
X103968566Y-77000225D01*
X103616419Y-76854361D01*
X103242581Y-76780000D01*
X102861419Y-76780000D01*
X102487581Y-76854361D01*
X102135434Y-77000225D01*
X101818509Y-77211987D01*
X101548987Y-77481509D01*
X101337225Y-77798434D01*
X101191361Y-78150581D01*
X101117000Y-78524419D01*
X95428626Y-78524419D01*
X95426849Y-75015000D01*
X101113928Y-75015000D01*
X101126188Y-75139482D01*
X101162498Y-75259180D01*
X101221463Y-75369494D01*
X101300815Y-75466185D01*
X101397506Y-75545537D01*
X101507820Y-75604502D01*
X101627518Y-75640812D01*
X101752000Y-75653072D01*
X102766250Y-75650000D01*
X102925000Y-75491250D01*
X102925000Y-73842000D01*
X103179000Y-73842000D01*
X103179000Y-75491250D01*
X103337750Y-75650000D01*
X104352000Y-75653072D01*
X104476482Y-75640812D01*
X104596180Y-75604502D01*
X104706494Y-75545537D01*
X104803185Y-75466185D01*
X104806684Y-75461921D01*
X108116400Y-75461921D01*
X108116400Y-75882479D01*
X108198447Y-76294956D01*
X108359388Y-76683502D01*
X108593037Y-77033183D01*
X108890417Y-77330563D01*
X109240098Y-77564212D01*
X109628644Y-77725153D01*
X110041121Y-77807200D01*
X110461679Y-77807200D01*
X110874156Y-77725153D01*
X111262702Y-77564212D01*
X111612383Y-77330563D01*
X111909763Y-77033183D01*
X112143412Y-76683502D01*
X112304353Y-76294956D01*
X112386400Y-75882479D01*
X112386400Y-75461921D01*
X130716400Y-75461921D01*
X130716400Y-75882479D01*
X130798447Y-76294956D01*
X130959388Y-76683502D01*
X131193037Y-77033183D01*
X131490417Y-77330563D01*
X131840098Y-77564212D01*
X132228644Y-77725153D01*
X132641121Y-77807200D01*
X133061679Y-77807200D01*
X133474156Y-77725153D01*
X133862702Y-77564212D01*
X134212383Y-77330563D01*
X134337001Y-77205945D01*
X134337001Y-79523056D01*
X134337000Y-79523061D01*
X134337000Y-79726939D01*
X134346971Y-79777067D01*
X134351977Y-79827895D01*
X134366803Y-79876768D01*
X134376774Y-79926898D01*
X134396335Y-79974122D01*
X134411160Y-80022993D01*
X134435235Y-80068034D01*
X134454795Y-80115256D01*
X134483191Y-80157753D01*
X134507267Y-80202797D01*
X134539668Y-80242278D01*
X134568063Y-80284774D01*
X134604203Y-80320914D01*
X134636605Y-80360396D01*
X134676087Y-80392798D01*
X134712226Y-80428937D01*
X134754721Y-80457331D01*
X134794204Y-80489734D01*
X134839250Y-80513812D01*
X134881744Y-80542205D01*
X134928962Y-80561763D01*
X134974008Y-80585841D01*
X135022884Y-80600668D01*
X135070102Y-80620226D01*
X135120226Y-80630196D01*
X135169106Y-80645024D01*
X135219942Y-80650031D01*
X135270061Y-80660000D01*
X135321162Y-80660000D01*
X135372000Y-80665007D01*
X135422838Y-80660000D01*
X135473939Y-80660000D01*
X135524057Y-80650031D01*
X135574895Y-80645024D01*
X135623777Y-80630196D01*
X135673898Y-80620226D01*
X135721113Y-80600669D01*
X135769993Y-80585841D01*
X135815042Y-80561762D01*
X135862256Y-80542205D01*
X135904746Y-80513814D01*
X135949797Y-80489734D01*
X135989284Y-80457328D01*
X136031774Y-80428937D01*
X136067908Y-80392803D01*
X136107396Y-80360396D01*
X136139803Y-80320908D01*
X136175937Y-80284774D01*
X136204328Y-80242284D01*
X136236734Y-80202797D01*
X136260814Y-80157746D01*
X136289205Y-80115256D01*
X136308762Y-80068042D01*
X136332841Y-80022993D01*
X136347669Y-79974113D01*
X136367226Y-79926898D01*
X136377196Y-79876777D01*
X136392024Y-79827895D01*
X136397031Y-79777057D01*
X136405825Y-79732848D01*
X136540465Y-79843345D01*
X136816251Y-79990755D01*
X137115496Y-80081530D01*
X137348714Y-80104500D01*
X137599686Y-80104500D01*
X137832904Y-80081530D01*
X138132149Y-79990755D01*
X138407935Y-79843345D01*
X138649663Y-79644963D01*
X138848045Y-79403235D01*
X138995455Y-79127449D01*
X139086230Y-78828204D01*
X139116881Y-78517000D01*
X139086230Y-78205796D01*
X138995455Y-77906551D01*
X138848045Y-77630765D01*
X138649663Y-77389037D01*
X138476591Y-77247000D01*
X138649663Y-77104963D01*
X138848045Y-76863235D01*
X138995455Y-76587449D01*
X139086230Y-76288204D01*
X139116881Y-75977000D01*
X139086230Y-75665796D01*
X138995455Y-75366551D01*
X138848045Y-75090765D01*
X138774659Y-75001344D01*
X155357000Y-75001344D01*
X155357000Y-75372656D01*
X155429439Y-75736834D01*
X155571534Y-76079882D01*
X155777825Y-76388618D01*
X156040382Y-76651175D01*
X156349118Y-76857466D01*
X156692166Y-76999561D01*
X157056344Y-77072000D01*
X157427656Y-77072000D01*
X157791834Y-76999561D01*
X158134882Y-76857466D01*
X158443618Y-76651175D01*
X158706175Y-76388618D01*
X158912466Y-76079882D01*
X159054561Y-75736834D01*
X159127000Y-75372656D01*
X159127000Y-75001344D01*
X159054561Y-74637166D01*
X158912466Y-74294118D01*
X158706175Y-73985382D01*
X158657793Y-73937000D01*
X160433928Y-73937000D01*
X160433928Y-76437000D01*
X160446188Y-76561482D01*
X160482498Y-76681180D01*
X160541463Y-76791494D01*
X160620815Y-76888185D01*
X160717506Y-76967537D01*
X160827820Y-77026502D01*
X160947518Y-77062812D01*
X161072000Y-77075072D01*
X163572000Y-77075072D01*
X163696482Y-77062812D01*
X163816180Y-77026502D01*
X163926494Y-76967537D01*
X164023185Y-76888185D01*
X164102537Y-76791494D01*
X164161502Y-76681180D01*
X164197812Y-76561482D01*
X164210072Y-76437000D01*
X164210072Y-74999344D01*
X165507000Y-74999344D01*
X165507000Y-75370656D01*
X165579439Y-75734834D01*
X165721534Y-76077882D01*
X165927825Y-76386618D01*
X166190382Y-76649175D01*
X166499118Y-76855466D01*
X166842166Y-76997561D01*
X167206344Y-77070000D01*
X167577656Y-77070000D01*
X167941834Y-76997561D01*
X168284882Y-76855466D01*
X168593618Y-76649175D01*
X168856175Y-76386618D01*
X169062466Y-76077882D01*
X169204561Y-75734834D01*
X169277000Y-75370656D01*
X169277000Y-74999344D01*
X169204561Y-74635166D01*
X169062466Y-74292118D01*
X168856175Y-73983382D01*
X168807793Y-73935000D01*
X170583928Y-73935000D01*
X170583928Y-76435000D01*
X170596188Y-76559482D01*
X170632498Y-76679180D01*
X170691463Y-76789494D01*
X170770815Y-76886185D01*
X170867506Y-76965537D01*
X170977820Y-77024502D01*
X171097518Y-77060812D01*
X171222000Y-77073072D01*
X173722000Y-77073072D01*
X173846482Y-77060812D01*
X173966180Y-77024502D01*
X174076494Y-76965537D01*
X174173185Y-76886185D01*
X174252537Y-76789494D01*
X174311502Y-76679180D01*
X174347812Y-76559482D01*
X174360072Y-76435000D01*
X174360072Y-74989344D01*
X175657000Y-74989344D01*
X175657000Y-75360656D01*
X175729439Y-75724834D01*
X175871534Y-76067882D01*
X176077825Y-76376618D01*
X176340382Y-76639175D01*
X176649118Y-76845466D01*
X176992166Y-76987561D01*
X177356344Y-77060000D01*
X177727656Y-77060000D01*
X178091834Y-76987561D01*
X178434882Y-76845466D01*
X178743618Y-76639175D01*
X179006175Y-76376618D01*
X179212466Y-76067882D01*
X179354561Y-75724834D01*
X179427000Y-75360656D01*
X179427000Y-74989344D01*
X179354561Y-74625166D01*
X179212466Y-74282118D01*
X179006175Y-73973382D01*
X178957793Y-73925000D01*
X180733928Y-73925000D01*
X180733928Y-76425000D01*
X180746188Y-76549482D01*
X180782498Y-76669180D01*
X180841463Y-76779494D01*
X180920815Y-76876185D01*
X181017506Y-76955537D01*
X181127820Y-77014502D01*
X181247518Y-77050812D01*
X181372000Y-77063072D01*
X183872000Y-77063072D01*
X183996482Y-77050812D01*
X184116180Y-77014502D01*
X184226494Y-76955537D01*
X184323185Y-76876185D01*
X184402537Y-76779494D01*
X184461502Y-76669180D01*
X184497812Y-76549482D01*
X184510072Y-76425000D01*
X184510072Y-74979344D01*
X185807000Y-74979344D01*
X185807000Y-75350656D01*
X185879439Y-75714834D01*
X186021534Y-76057882D01*
X186227825Y-76366618D01*
X186490382Y-76629175D01*
X186799118Y-76835466D01*
X187142166Y-76977561D01*
X187506344Y-77050000D01*
X187877656Y-77050000D01*
X188241834Y-76977561D01*
X188584882Y-76835466D01*
X188893618Y-76629175D01*
X189156175Y-76366618D01*
X189362466Y-76057882D01*
X189504561Y-75714834D01*
X189577000Y-75350656D01*
X189577000Y-74979344D01*
X189504561Y-74615166D01*
X189362466Y-74272118D01*
X189156175Y-73963382D01*
X189107793Y-73915000D01*
X190883928Y-73915000D01*
X190883928Y-76415000D01*
X190896188Y-76539482D01*
X190932498Y-76659180D01*
X190991463Y-76769494D01*
X191070815Y-76866185D01*
X191167506Y-76945537D01*
X191277820Y-77004502D01*
X191397518Y-77040812D01*
X191522000Y-77053072D01*
X194022000Y-77053072D01*
X194146482Y-77040812D01*
X194266180Y-77004502D01*
X194376494Y-76945537D01*
X194473185Y-76866185D01*
X194552537Y-76769494D01*
X194611502Y-76659180D01*
X194647812Y-76539482D01*
X194660072Y-76415000D01*
X194660072Y-73915000D01*
X194647812Y-73790518D01*
X194611502Y-73670820D01*
X194552537Y-73560506D01*
X194473185Y-73463815D01*
X194376494Y-73384463D01*
X194266180Y-73325498D01*
X194146482Y-73289188D01*
X194022000Y-73276928D01*
X191522000Y-73276928D01*
X191397518Y-73289188D01*
X191277820Y-73325498D01*
X191167506Y-73384463D01*
X191070815Y-73463815D01*
X190991463Y-73560506D01*
X190932498Y-73670820D01*
X190896188Y-73790518D01*
X190883928Y-73915000D01*
X189107793Y-73915000D01*
X188893618Y-73700825D01*
X188584882Y-73494534D01*
X188241834Y-73352439D01*
X187877656Y-73280000D01*
X187506344Y-73280000D01*
X187142166Y-73352439D01*
X186799118Y-73494534D01*
X186490382Y-73700825D01*
X186227825Y-73963382D01*
X186021534Y-74272118D01*
X185879439Y-74615166D01*
X185807000Y-74979344D01*
X184510072Y-74979344D01*
X184510072Y-73925000D01*
X184497812Y-73800518D01*
X184461502Y-73680820D01*
X184402537Y-73570506D01*
X184323185Y-73473815D01*
X184226494Y-73394463D01*
X184116180Y-73335498D01*
X183996482Y-73299188D01*
X183872000Y-73286928D01*
X181372000Y-73286928D01*
X181247518Y-73299188D01*
X181127820Y-73335498D01*
X181017506Y-73394463D01*
X180920815Y-73473815D01*
X180841463Y-73570506D01*
X180782498Y-73680820D01*
X180746188Y-73800518D01*
X180733928Y-73925000D01*
X178957793Y-73925000D01*
X178743618Y-73710825D01*
X178434882Y-73504534D01*
X178091834Y-73362439D01*
X177727656Y-73290000D01*
X177356344Y-73290000D01*
X176992166Y-73362439D01*
X176649118Y-73504534D01*
X176340382Y-73710825D01*
X176077825Y-73973382D01*
X175871534Y-74282118D01*
X175729439Y-74625166D01*
X175657000Y-74989344D01*
X174360072Y-74989344D01*
X174360072Y-73935000D01*
X174347812Y-73810518D01*
X174311502Y-73690820D01*
X174252537Y-73580506D01*
X174173185Y-73483815D01*
X174076494Y-73404463D01*
X173966180Y-73345498D01*
X173846482Y-73309188D01*
X173722000Y-73296928D01*
X171222000Y-73296928D01*
X171097518Y-73309188D01*
X170977820Y-73345498D01*
X170867506Y-73404463D01*
X170770815Y-73483815D01*
X170691463Y-73580506D01*
X170632498Y-73690820D01*
X170596188Y-73810518D01*
X170583928Y-73935000D01*
X168807793Y-73935000D01*
X168593618Y-73720825D01*
X168284882Y-73514534D01*
X167941834Y-73372439D01*
X167577656Y-73300000D01*
X167206344Y-73300000D01*
X166842166Y-73372439D01*
X166499118Y-73514534D01*
X166190382Y-73720825D01*
X165927825Y-73983382D01*
X165721534Y-74292118D01*
X165579439Y-74635166D01*
X165507000Y-74999344D01*
X164210072Y-74999344D01*
X164210072Y-73937000D01*
X164197812Y-73812518D01*
X164161502Y-73692820D01*
X164102537Y-73582506D01*
X164023185Y-73485815D01*
X163926494Y-73406463D01*
X163816180Y-73347498D01*
X163696482Y-73311188D01*
X163572000Y-73298928D01*
X161072000Y-73298928D01*
X160947518Y-73311188D01*
X160827820Y-73347498D01*
X160717506Y-73406463D01*
X160620815Y-73485815D01*
X160541463Y-73582506D01*
X160482498Y-73692820D01*
X160446188Y-73812518D01*
X160433928Y-73937000D01*
X158657793Y-73937000D01*
X158443618Y-73722825D01*
X158134882Y-73516534D01*
X157791834Y-73374439D01*
X157427656Y-73302000D01*
X157056344Y-73302000D01*
X156692166Y-73374439D01*
X156349118Y-73516534D01*
X156040382Y-73722825D01*
X155777825Y-73985382D01*
X155571534Y-74294118D01*
X155429439Y-74637166D01*
X155357000Y-75001344D01*
X138774659Y-75001344D01*
X138744754Y-74964905D01*
X138828694Y-74920037D01*
X138925385Y-74840685D01*
X139004737Y-74743994D01*
X139063702Y-74633680D01*
X139100012Y-74513982D01*
X139112272Y-74389500D01*
X139112272Y-72484500D01*
X139100012Y-72360018D01*
X139063702Y-72240320D01*
X139004737Y-72130006D01*
X138925385Y-72033315D01*
X138828694Y-71953963D01*
X138718380Y-71894998D01*
X138598682Y-71858688D01*
X138474200Y-71846428D01*
X136474200Y-71846428D01*
X136349718Y-71858688D01*
X136230020Y-71894998D01*
X136119706Y-71953963D01*
X136023015Y-72033315D01*
X135943663Y-72130006D01*
X135884698Y-72240320D01*
X135848388Y-72360018D01*
X135836128Y-72484500D01*
X135836128Y-72757161D01*
X134676097Y-73917193D01*
X134636604Y-73949604D01*
X134507266Y-74107203D01*
X134437073Y-74238527D01*
X134212383Y-74013837D01*
X133862702Y-73780188D01*
X133474156Y-73619247D01*
X133061679Y-73537200D01*
X132641121Y-73537200D01*
X132228644Y-73619247D01*
X131840098Y-73780188D01*
X131490417Y-74013837D01*
X131193037Y-74311217D01*
X130959388Y-74660898D01*
X130798447Y-75049444D01*
X130716400Y-75461921D01*
X112386400Y-75461921D01*
X112304353Y-75049444D01*
X112143412Y-74660898D01*
X111909763Y-74311217D01*
X111612383Y-74013837D01*
X111262702Y-73780188D01*
X110874156Y-73619247D01*
X110461679Y-73537200D01*
X110041121Y-73537200D01*
X109628644Y-73619247D01*
X109240098Y-73780188D01*
X108890417Y-74013837D01*
X108593037Y-74311217D01*
X108359388Y-74660898D01*
X108198447Y-75049444D01*
X108116400Y-75461921D01*
X104806684Y-75461921D01*
X104882537Y-75369494D01*
X104941502Y-75259180D01*
X104977812Y-75139482D01*
X104990072Y-75015000D01*
X104987000Y-74000750D01*
X104828250Y-73842000D01*
X103179000Y-73842000D01*
X102925000Y-73842000D01*
X101275750Y-73842000D01*
X101117000Y-74000750D01*
X101113928Y-75015000D01*
X95426849Y-75015000D01*
X95425533Y-72415000D01*
X101113928Y-72415000D01*
X101117000Y-73429250D01*
X101275750Y-73588000D01*
X102925000Y-73588000D01*
X102925000Y-71938750D01*
X103179000Y-71938750D01*
X103179000Y-73588000D01*
X104828250Y-73588000D01*
X104987000Y-73429250D01*
X104990072Y-72415000D01*
X104977812Y-72290518D01*
X104941502Y-72170820D01*
X104882537Y-72060506D01*
X104803185Y-71963815D01*
X104706494Y-71884463D01*
X104596180Y-71825498D01*
X104476482Y-71789188D01*
X104352000Y-71776928D01*
X103337750Y-71780000D01*
X103179000Y-71938750D01*
X102925000Y-71938750D01*
X102766250Y-71780000D01*
X101752000Y-71776928D01*
X101627518Y-71789188D01*
X101507820Y-71825498D01*
X101397506Y-71884463D01*
X101300815Y-71963815D01*
X101221463Y-72060506D01*
X101162498Y-72170820D01*
X101126188Y-72290518D01*
X101113928Y-72415000D01*
X95425533Y-72415000D01*
X95425458Y-72268176D01*
X95485995Y-71679750D01*
X95650321Y-71144734D01*
X95915435Y-70651828D01*
X96271237Y-70219805D01*
X96704178Y-69865118D01*
X97197768Y-69601276D01*
X97733201Y-69438333D01*
X98322782Y-69379214D01*
X195175000Y-69432073D01*
G37*
G04 #@! TD.AperFunction*
D26*
X122698939Y-96087359D02*
X122845038Y-96306013D01*
X123030987Y-96491962D01*
X123249641Y-96638061D01*
X123459530Y-96725000D01*
X123249641Y-96811939D01*
X123030987Y-96958038D01*
X122845038Y-97143987D01*
X122698939Y-97362641D01*
X122610379Y-97576444D01*
X122550935Y-97413634D01*
X122497037Y-97312797D01*
X122263269Y-97253336D01*
X121521605Y-97995000D01*
X121535748Y-98009143D01*
X121356143Y-98188748D01*
X121342000Y-98174605D01*
X121327858Y-98188748D01*
X121148253Y-98009143D01*
X121162395Y-97995000D01*
X120420731Y-97253336D01*
X120186963Y-97312797D01*
X120076066Y-97551242D01*
X120071294Y-97570827D01*
X119985061Y-97362641D01*
X119838962Y-97143987D01*
X119653013Y-96958038D01*
X119434359Y-96811939D01*
X119224470Y-96725000D01*
X119434359Y-96638061D01*
X119653013Y-96491962D01*
X119838962Y-96306013D01*
X119985061Y-96087359D01*
X120072000Y-95877470D01*
X120158939Y-96087359D01*
X120305038Y-96306013D01*
X120490987Y-96491962D01*
X120709641Y-96638061D01*
X120923444Y-96726621D01*
X120760634Y-96786065D01*
X120659797Y-96839963D01*
X120600336Y-97073731D01*
X121342000Y-97815395D01*
X122083664Y-97073731D01*
X122024203Y-96839963D01*
X121785758Y-96729066D01*
X121766173Y-96724294D01*
X121974359Y-96638061D01*
X122193013Y-96491962D01*
X122378962Y-96306013D01*
X122525061Y-96087359D01*
X122612000Y-95877470D01*
X122698939Y-96087359D01*
G04 #@! TA.AperFunction,Conductor*
D27*
G36*
X122698939Y-96087359D02*
G01*
X122845038Y-96306013D01*
X123030987Y-96491962D01*
X123249641Y-96638061D01*
X123459530Y-96725000D01*
X123249641Y-96811939D01*
X123030987Y-96958038D01*
X122845038Y-97143987D01*
X122698939Y-97362641D01*
X122610379Y-97576444D01*
X122550935Y-97413634D01*
X122497037Y-97312797D01*
X122263269Y-97253336D01*
X121521605Y-97995000D01*
X121535748Y-98009143D01*
X121356143Y-98188748D01*
X121342000Y-98174605D01*
X121327858Y-98188748D01*
X121148253Y-98009143D01*
X121162395Y-97995000D01*
X120420731Y-97253336D01*
X120186963Y-97312797D01*
X120076066Y-97551242D01*
X120071294Y-97570827D01*
X119985061Y-97362641D01*
X119838962Y-97143987D01*
X119653013Y-96958038D01*
X119434359Y-96811939D01*
X119224470Y-96725000D01*
X119434359Y-96638061D01*
X119653013Y-96491962D01*
X119838962Y-96306013D01*
X119985061Y-96087359D01*
X120072000Y-95877470D01*
X120158939Y-96087359D01*
X120305038Y-96306013D01*
X120490987Y-96491962D01*
X120709641Y-96638061D01*
X120923444Y-96726621D01*
X120760634Y-96786065D01*
X120659797Y-96839963D01*
X120600336Y-97073731D01*
X121342000Y-97815395D01*
X122083664Y-97073731D01*
X122024203Y-96839963D01*
X121785758Y-96729066D01*
X121766173Y-96724294D01*
X121974359Y-96638061D01*
X122193013Y-96491962D01*
X122378962Y-96306013D01*
X122525061Y-96087359D01*
X122612000Y-95877470D01*
X122698939Y-96087359D01*
G37*
G04 #@! TD.AperFunction*
D26*
X201577001Y-102633653D02*
X197478376Y-102676667D01*
X197429571Y-92652000D01*
X201577000Y-92652000D01*
X201577001Y-102633653D01*
G04 #@! TA.AperFunction,Conductor*
D27*
G36*
X201577001Y-102633653D02*
G01*
X197478376Y-102676667D01*
X197429571Y-92652000D01*
X201577000Y-92652000D01*
X201577001Y-102633653D01*
G37*
G04 #@! TD.AperFunction*
M02*
