M48
METRIC,TZ
T1C0.300
T2C0.400
T3C0.750
T4C0.800
T5C0.950
T6C1.000
T7C1.100
T8C1.300
T9C1.500
%
G90
G05
T1
X151638Y-98044
X164342Y-80105
X165782Y-72775
X166622Y-80835
X168602Y-100195
X169742Y-95335
X171622Y-98815
X171892Y-103505
X172312Y-80815
X172312Y-82395
X172370Y-76315
X173332Y-101245
X175132Y-80135
X179042Y-99555
X179942Y-95305
X181812Y-98795
X182092Y-103465
X182572Y-82295
X183012Y-84015
X183522Y-101265
X188702Y-84015
X189422Y-100005
X190182Y-95345
X192022Y-97385
X192042Y-98885
X192282Y-102615
X192752Y-82295
X192762Y-80855
X193292Y-84025
X193752Y-101125
X198702Y-84035
X200082Y-99565
X200422Y-95325
X202342Y-97385
X202352Y-98825
T2
X99852Y-85315
X99862Y-102945
X101813Y-71218
X104872Y-70135
X107210Y-71420
X107440Y-77120
X108522Y-118835
X109382Y-84255
X110400Y-91050
X111818Y-84232
X112060Y-75650
X114122Y-86645
X116867Y-83920
X116940Y-73020
X118524Y-85845
X118812Y-88305
X119350Y-83910
X119822Y-84945
X120012Y-105537
X120370Y-69600
X120532Y-97265
X121040Y-85050
X121132Y-87505
X121140Y-94480
X121522Y-120335
X122042Y-113455
X122895Y-88595
X123552Y-95555
X123655Y-87695
X124030Y-83370
X124252Y-113445
X124592Y-94375
X124732Y-65615
X125180Y-75270
X125940Y-77350
X126272Y-71395
X126282Y-87695
X127682Y-104465
X127810Y-98225
X129042Y-77495
X129672Y-91445
X129722Y-116875
X129822Y-88595
X130392Y-95825
X130982Y-109205
X130997Y-105680
X131602Y-65585
X132212Y-105705
X132217Y-109175
X132352Y-120365
X133317Y-109175
X133622Y-111615
X134292Y-104165
X134370Y-82070
X134552Y-101835
X135002Y-77235
X135870Y-109390
X137520Y-84410
X137612Y-87535
X138522Y-101855
X138642Y-65585
X139832Y-116845
X139902Y-109475
X141475Y-98505
X142292Y-91495
X142992Y-113255
X143310Y-68420
X145720Y-101280
X145942Y-98505
X147517Y-83730
X147922Y-95233
X148082Y-104865
X148340Y-109920
X149032Y-89125
X149402Y-84475
X149552Y-86535
X149892Y-89925
X151282Y-92795
X152410Y-96560
X153532Y-88045
X154062Y-90655
X155602Y-85755
X155692Y-92705
X156420Y-96560
X156692Y-98235
X157352Y-104795
X158192Y-89655
X159772Y-107315
X160492Y-92705
X160552Y-85275
X160642Y-89215
X161197Y-98190
X162140Y-93750
X162306Y-95435
X162532Y-110785
X162662Y-100805
X163162Y-87975
X164407Y-75860
X164529Y-78608
X165192Y-105165
X165252Y-91115
X165472Y-98385
X165472Y-99595
X166572Y-78885
X166592Y-69005
X166762Y-93805
X166862Y-62135
X166962Y-117735
X167032Y-85895
X167110Y-110760
X167492Y-101115
X167522Y-89255
X168202Y-81535
X168282Y-80065
X168725Y-74775
X169132Y-102005
X169342Y-103675
X170602Y-78685
X170642Y-87835
X170652Y-91325
X170802Y-69025
X171492Y-85895
X172022Y-59815
X172192Y-120185
X172512Y-93865
X172792Y-110755
X172812Y-89645
X174372Y-95395
X174669Y-75962
X174669Y-78718
X175262Y-87985
X175372Y-91275
X175392Y-105155
X175572Y-98335
X175662Y-99555
X176682Y-78715
X176692Y-69025
X176902Y-93855
X177102Y-62165
X177272Y-85825
X177302Y-117705
X177372Y-110785
X177622Y-101095
X178182Y-89375
X178572Y-80115
X178862Y-74805
X179342Y-102025
X179635Y-103838
X180072Y-83645
X180802Y-91305
X180842Y-78735
X180872Y-87715
X181062Y-69035
X181732Y-85835
X182122Y-59845
X182352Y-120225
X182662Y-93915
X183032Y-110765
X183432Y-89765
X184642Y-95395
X184839Y-75932
X184839Y-78668
X185562Y-105115
X185642Y-88025
X185842Y-91355
X185882Y-99625
X185902Y-98235
X186872Y-68985
X186942Y-78625
X187142Y-93885
X187152Y-62075
X187452Y-110785
X187522Y-85785
X187522Y-117735
X187972Y-101105
X188502Y-81835
X188632Y-80075
X188642Y-89645
X189072Y-74725
X189492Y-102225
X189785Y-103828
X190392Y-83575
X191062Y-78585
X191092Y-87755
X191212Y-91385
X191242Y-68955
X191902Y-85785
X192272Y-59795
X192492Y-120275
X192872Y-93915
X193062Y-89605
X193192Y-110805
X194812Y-95555
X194967Y-78760
X195049Y-75882
X195672Y-87985
X195712Y-91345
X195752Y-105115
X196042Y-98345
X196142Y-99605
X196992Y-68965
X197062Y-78655
X197392Y-93905
X197502Y-62095
X197632Y-85835
X197702Y-110825
X197712Y-117665
X198082Y-101085
X198632Y-89485
X198692Y-81575
X198862Y-80075
X199252Y-74735
X199682Y-102065
X199975Y-104108
X201252Y-68915
X201552Y-91385
X201632Y-87715
X202292Y-83465
X202862Y-85825
X203272Y-93935
X203882Y-110465
X203962Y-102035
X207152Y-89815
X209842Y-75565
X209870Y-65930
X210340Y-108450
T3
X136812Y-79545
X138082Y-79545
X139352Y-79545
T4
X120792Y-90175
X120792Y-92715
X120792Y-115575
X120792Y-118115
X123332Y-90175
X123332Y-92715
X123332Y-115575
X123332Y-118115
X125872Y-90175
X125872Y-92715
X125872Y-115575
X125872Y-118115
X128412Y-90175
X128412Y-92715
X128412Y-115575
X128412Y-118115
X130952Y-90175
X130952Y-92715
X130952Y-115575
X130952Y-118115
X133492Y-90175
X133492Y-92715
X133492Y-115575
X133492Y-118115
X136032Y-90175
X136032Y-92715
X136032Y-115575
X136032Y-118115
X138572Y-90175
X138572Y-92715
X138572Y-115575
X138572Y-118115
X139032Y-72763
X139032Y-75263
X141112Y-90175
X141112Y-92715
X141112Y-115575
X141112Y-118115
X143652Y-90175
X143652Y-92715
X143652Y-115575
X143652Y-118115
T5
X108712Y-106035
X108712Y-108535
X108712Y-111035
X108722Y-87365
X108722Y-89865
X108722Y-92365
X108722Y-94865
X108722Y-97365
X108722Y-99865
T6
X112722Y-77325
X112722Y-79865
X112722Y-82405
X115262Y-77325
X115262Y-79865
X115262Y-82405
X119982Y-73635
X119982Y-76175
X119982Y-78715
X143482Y-80149
X143482Y-80149
X152334Y-80149
X152334Y-80149
X155640Y-62318
X155640Y-67318
T7
X146317Y-76299
X146447Y-62405
X146447Y-64945
X146447Y-67485
X149365Y-76299
X152652Y-113495
X152652Y-117995
X159152Y-113495
X159152Y-117995
T8
X112057Y-63580
X112057Y-68660
X164372Y-65467
X164532Y-114415
X169452Y-65467
X169612Y-114415
X174522Y-65465
X174712Y-114415
X179602Y-65465
X179792Y-114415
X184672Y-65455
X184882Y-114415
X189752Y-65455
X189962Y-114415
X194822Y-65445
X195052Y-114415
X199902Y-65445
X200132Y-114415
T9
X119692Y-65545
X142292Y-65545
T0
M30
