G04 #@! TF.GenerationSoftware,KiCad,Pcbnew,6.0.1-79c1e3a40b~116~ubuntu20.04.1*
G04 #@! TF.CreationDate,2022-02-07T23:27:11+01:00*
G04 #@! TF.ProjectId,CC dimmer low voltage,43432064-696d-46d6-9572-206c6f772076,0.996*
G04 #@! TF.SameCoordinates,Original*
G04 #@! TF.FileFunction,Soldermask,Bot*
G04 #@! TF.FilePolarity,Negative*
%FSLAX46Y46*%
G04 Gerber Fmt 4.6, Leading zero omitted, Abs format (unit mm)*
G04 Created by KiCad (PCBNEW 6.0.1-79c1e3a40b~116~ubuntu20.04.1) date 2022-02-07 23:27:11*
%MOMM*%
%LPD*%
G01*
G04 APERTURE LIST*
G04 Aperture macros list*
%AMRoundRect*
0 Rectangle with rounded corners*
0 $1 Rounding radius*
0 $2 $3 $4 $5 $6 $7 $8 $9 X,Y pos of 4 corners*
0 Add a 4 corners polygon primitive as box body*
4,1,4,$2,$3,$4,$5,$6,$7,$8,$9,$2,$3,0*
0 Add four circle primitives for the rounded corners*
1,1,$1+$1,$2,$3*
1,1,$1+$1,$4,$5*
1,1,$1+$1,$6,$7*
1,1,$1+$1,$8,$9*
0 Add four rect primitives between the rounded corners*
20,1,$1+$1,$2,$3,$4,$5,0*
20,1,$1+$1,$4,$5,$6,$7,0*
20,1,$1+$1,$6,$7,$8,$9,0*
20,1,$1+$1,$8,$9,$2,$3,0*%
G04 Aperture macros list end*
%ADD10C,3.200000*%
%ADD11R,2.600000X2.600000*%
%ADD12C,2.600000*%
%ADD13R,1.050000X1.500000*%
%ADD14O,1.050000X1.500000*%
%ADD15R,2.000000X1.905000*%
%ADD16O,2.000000X1.905000*%
%ADD17C,3.000000*%
%ADD18R,2.000000X2.000000*%
%ADD19C,2.000000*%
%ADD20R,1.600000X1.600000*%
%ADD21C,1.600000*%
%ADD22C,1.400000*%
%ADD23R,1.700000X1.700000*%
%ADD24O,1.700000X1.700000*%
%ADD25RoundRect,0.250000X-0.725000X0.600000X-0.725000X-0.600000X0.725000X-0.600000X0.725000X0.600000X0*%
%ADD26O,1.950000X1.700000*%
%ADD27C,2.100000*%
G04 APERTURE END LIST*
D10*
X207470000Y-62580000D03*
X102470000Y-117580000D03*
X207470000Y-117580000D03*
D11*
X169452000Y-65467000D03*
D12*
X164372000Y-65467000D03*
D11*
X179602000Y-65465000D03*
D12*
X174522000Y-65465000D03*
D11*
X164532000Y-114415000D03*
D12*
X169612000Y-114415000D03*
D11*
X174712000Y-114415000D03*
D12*
X179792000Y-114415000D03*
D11*
X184882000Y-114415000D03*
D12*
X189962000Y-114415000D03*
D11*
X195052000Y-114415000D03*
D12*
X200132000Y-114415000D03*
D11*
X189752000Y-65455000D03*
D12*
X184672000Y-65455000D03*
D13*
X139352000Y-79545000D03*
D14*
X138082000Y-79545000D03*
X136812000Y-79545000D03*
D11*
X199902000Y-65445000D03*
D12*
X194822000Y-65445000D03*
D15*
X146447000Y-62405000D03*
D16*
X146447000Y-64945000D03*
X146447000Y-67485000D03*
D17*
X142292000Y-65545000D03*
X119692000Y-65545000D03*
D18*
X155640000Y-67317677D03*
D19*
X155640000Y-62317677D03*
D10*
X102490000Y-62580000D03*
D20*
X139032000Y-72762621D03*
D21*
X139032000Y-75262621D03*
D22*
X120792000Y-118115000D03*
X120792000Y-115575000D03*
X123332000Y-118115000D03*
X123332000Y-115575000D03*
X125872000Y-118115000D03*
X125872000Y-115575000D03*
X128412000Y-118115000D03*
X128412000Y-115575000D03*
X130952000Y-118115000D03*
X130952000Y-115575000D03*
X133492000Y-118115000D03*
X133492000Y-115575000D03*
X136032000Y-118115000D03*
X136032000Y-115575000D03*
X138572000Y-118115000D03*
X138572000Y-115575000D03*
X141112000Y-118115000D03*
X141112000Y-115575000D03*
X143652000Y-118115000D03*
X143652000Y-115575000D03*
X120792000Y-92715000D03*
X120792000Y-90175000D03*
X123332000Y-92715000D03*
X123332000Y-90175000D03*
X125872000Y-92715000D03*
X125872000Y-90175000D03*
X128412000Y-92715000D03*
X128412000Y-90175000D03*
X130952000Y-92715000D03*
X130952000Y-90175000D03*
X133492000Y-92715000D03*
X133492000Y-90175000D03*
X136032000Y-92715000D03*
X136032000Y-90175000D03*
X138572000Y-92715000D03*
X138572000Y-90175000D03*
X141112000Y-92715000D03*
X141112000Y-90175000D03*
X143652000Y-92715000D03*
X143652000Y-90175000D03*
D11*
X112057000Y-63580000D03*
D12*
X112057000Y-68660000D03*
D23*
X115262000Y-82405000D03*
D24*
X112722000Y-82405000D03*
X115262000Y-79865000D03*
X112722000Y-79865000D03*
X115262000Y-77325000D03*
X112722000Y-77325000D03*
D25*
X108722000Y-87365000D03*
D26*
X108722000Y-89865000D03*
X108722000Y-92365000D03*
X108722000Y-94865000D03*
X108722000Y-97365000D03*
X108722000Y-99865000D03*
D25*
X108712000Y-106035000D03*
D26*
X108712000Y-108535000D03*
X108712000Y-111035000D03*
D23*
X119982000Y-73635000D03*
D24*
X119982000Y-76175000D03*
X119982000Y-78715000D03*
D23*
X152334250Y-80148500D03*
X152334250Y-80148500D03*
D19*
X143482250Y-80148500D03*
X143482250Y-80148500D03*
D27*
X149365250Y-76299500D03*
X146317250Y-76299500D03*
D19*
X152652000Y-117995000D03*
X159152000Y-117995000D03*
X159152000Y-113495000D03*
X152652000Y-113495000D03*
M02*
