G04 #@! TF.GenerationSoftware,KiCad,Pcbnew,6.0.1-79c1e3a40b~116~ubuntu20.04.1*
G04 #@! TF.CreationDate,2022-02-07T23:27:11+01:00*
G04 #@! TF.ProjectId,CC dimmer low voltage,43432064-696d-46d6-9572-206c6f772076,0.996*
G04 #@! TF.SameCoordinates,Original*
G04 #@! TF.FileFunction,Soldermask,Top*
G04 #@! TF.FilePolarity,Negative*
%FSLAX46Y46*%
G04 Gerber Fmt 4.6, Leading zero omitted, Abs format (unit mm)*
G04 Created by KiCad (PCBNEW 6.0.1-79c1e3a40b~116~ubuntu20.04.1) date 2022-02-07 23:27:11*
%MOMM*%
%LPD*%
G01*
G04 APERTURE LIST*
G04 Aperture macros list*
%AMRoundRect*
0 Rectangle with rounded corners*
0 $1 Rounding radius*
0 $2 $3 $4 $5 $6 $7 $8 $9 X,Y pos of 4 corners*
0 Add a 4 corners polygon primitive as box body*
4,1,4,$2,$3,$4,$5,$6,$7,$8,$9,$2,$3,0*
0 Add four circle primitives for the rounded corners*
1,1,$1+$1,$2,$3*
1,1,$1+$1,$4,$5*
1,1,$1+$1,$6,$7*
1,1,$1+$1,$8,$9*
0 Add four rect primitives between the rounded corners*
20,1,$1+$1,$2,$3,$4,$5,0*
20,1,$1+$1,$4,$5,$6,$7,0*
20,1,$1+$1,$6,$7,$8,$9,0*
20,1,$1+$1,$8,$9,$2,$3,0*%
%AMFreePoly0*
4,1,13,0.900000,0.500000,2.600000,0.500000,2.600000,-0.500000,0.900000,-0.500000,0.400000,-1.000000,-0.400000,-1.000000,-0.900000,-0.500000,-2.600000,-0.500000,-2.600000,0.500000,-0.900000,0.500000,-0.400000,1.000000,0.400000,1.000000,0.900000,0.500000,0.900000,0.500000,$1*%
G04 Aperture macros list end*
%ADD10C,3.200000*%
%ADD11R,1.500000X0.700000*%
%ADD12FreePoly0,180.000000*%
%ADD13R,2.600000X2.600000*%
%ADD14C,2.600000*%
%ADD15FreePoly0,0.000000*%
%ADD16R,1.050000X1.500000*%
%ADD17O,1.050000X1.500000*%
%ADD18R,0.600000X0.450000*%
%ADD19R,2.000000X1.905000*%
%ADD20O,2.000000X1.905000*%
%ADD21C,3.000000*%
%ADD22RoundRect,0.250000X0.250000X0.475000X-0.250000X0.475000X-0.250000X-0.475000X0.250000X-0.475000X0*%
%ADD23RoundRect,0.250000X0.475000X-0.250000X0.475000X0.250000X-0.475000X0.250000X-0.475000X-0.250000X0*%
%ADD24RoundRect,0.250000X-0.250000X-0.475000X0.250000X-0.475000X0.250000X0.475000X-0.250000X0.475000X0*%
%ADD25RoundRect,0.250000X-0.475000X0.250000X-0.475000X-0.250000X0.475000X-0.250000X0.475000X0.250000X0*%
%ADD26R,2.000000X2.000000*%
%ADD27C,2.000000*%
%ADD28R,1.200000X0.900000*%
%ADD29RoundRect,0.250000X0.450000X-0.262500X0.450000X0.262500X-0.450000X0.262500X-0.450000X-0.262500X0*%
%ADD30RoundRect,0.250000X-0.450000X0.262500X-0.450000X-0.262500X0.450000X-0.262500X0.450000X0.262500X0*%
%ADD31R,5.100000X2.350000*%
%ADD32RoundRect,0.250000X-0.262500X-0.450000X0.262500X-0.450000X0.262500X0.450000X-0.262500X0.450000X0*%
%ADD33RoundRect,0.250000X0.375000X0.625000X-0.375000X0.625000X-0.375000X-0.625000X0.375000X-0.625000X0*%
%ADD34R,1.600000X1.600000*%
%ADD35C,1.600000*%
%ADD36C,1.400000*%
%ADD37R,1.700000X1.700000*%
%ADD38O,1.700000X1.700000*%
%ADD39RoundRect,0.243750X-0.243750X-0.456250X0.243750X-0.456250X0.243750X0.456250X-0.243750X0.456250X0*%
%ADD40RoundRect,0.250000X-0.725000X0.600000X-0.725000X-0.600000X0.725000X-0.600000X0.725000X0.600000X0*%
%ADD41O,1.950000X1.700000*%
%ADD42RoundRect,0.250000X0.262500X0.450000X-0.262500X0.450000X-0.262500X-0.450000X0.262500X-0.450000X0*%
%ADD43RoundRect,0.150000X0.587500X0.150000X-0.587500X0.150000X-0.587500X-0.150000X0.587500X-0.150000X0*%
%ADD44C,2.100000*%
G04 APERTURE END LIST*
D10*
X207470000Y-62580000D03*
X102470000Y-117580000D03*
X207470000Y-117580000D03*
D11*
X197352000Y-83075000D03*
D12*
X195502000Y-81575000D03*
D11*
X197352000Y-80075000D03*
X193652000Y-80075000D03*
X193652000Y-83075000D03*
X176982000Y-83105000D03*
D12*
X175132000Y-81605000D03*
D11*
X176982000Y-80105000D03*
X173282000Y-80105000D03*
X173282000Y-83105000D03*
D13*
X169452000Y-65467000D03*
D14*
X164372000Y-65467000D03*
D11*
X166772000Y-83065000D03*
D12*
X164922000Y-81565000D03*
D11*
X166772000Y-80065000D03*
X163072000Y-80065000D03*
X163072000Y-83065000D03*
D13*
X179602000Y-65465000D03*
D14*
X174522000Y-65465000D03*
D11*
X167012000Y-96585000D03*
D15*
X168862000Y-98085000D03*
D11*
X167012000Y-99585000D03*
X170712000Y-99585000D03*
X170712000Y-96585000D03*
X177192000Y-96555000D03*
D15*
X179042000Y-98055000D03*
D11*
X177192000Y-99555000D03*
X180892000Y-99555000D03*
X180892000Y-96555000D03*
X187412000Y-96625000D03*
D15*
X189262000Y-98125000D03*
D11*
X187412000Y-99625000D03*
X191112000Y-99625000D03*
X191112000Y-96625000D03*
X197622000Y-96605000D03*
D15*
X199472000Y-98105000D03*
D11*
X197622000Y-99605000D03*
X201322000Y-99605000D03*
X201322000Y-96605000D03*
D13*
X164532000Y-114415000D03*
D14*
X169612000Y-114415000D03*
D13*
X174712000Y-114415000D03*
D14*
X179792000Y-114415000D03*
D13*
X184882000Y-114415000D03*
D14*
X189962000Y-114415000D03*
D13*
X195052000Y-114415000D03*
D14*
X200132000Y-114415000D03*
D13*
X189752000Y-65455000D03*
D14*
X184672000Y-65455000D03*
D16*
X139352000Y-79545000D03*
D17*
X138082000Y-79545000D03*
X136812000Y-79545000D03*
D13*
X199902000Y-65445000D03*
D14*
X194822000Y-65445000D03*
D11*
X187132000Y-83075000D03*
D12*
X185282000Y-81575000D03*
D11*
X187132000Y-80075000D03*
X183432000Y-80075000D03*
X183432000Y-83075000D03*
D18*
X149302000Y-72115000D03*
X147202000Y-72115000D03*
D19*
X146447000Y-62405000D03*
D20*
X146447000Y-64945000D03*
X146447000Y-67485000D03*
D21*
X142292000Y-65545000D03*
X119692000Y-65545000D03*
D22*
X164902000Y-85185000D03*
X163002000Y-85185000D03*
D23*
X164132000Y-73865000D03*
X164132000Y-71965000D03*
D22*
X175112000Y-85255000D03*
X173212000Y-85255000D03*
D23*
X174322000Y-73855000D03*
X174322000Y-71955000D03*
D22*
X185282000Y-85235000D03*
X183382000Y-85235000D03*
D23*
X184542000Y-73845000D03*
X184542000Y-71945000D03*
X194722000Y-73825000D03*
X194722000Y-71925000D03*
D24*
X199472000Y-94065000D03*
X201372000Y-94065000D03*
D25*
X200492000Y-105995000D03*
X200492000Y-107895000D03*
D24*
X189232000Y-94085000D03*
X191132000Y-94085000D03*
D25*
X190262000Y-105985000D03*
X190262000Y-107885000D03*
X180142000Y-105985000D03*
X180142000Y-107885000D03*
D24*
X168802000Y-94095000D03*
X170702000Y-94095000D03*
D25*
X169922000Y-105975000D03*
X169922000Y-107875000D03*
D23*
X143702000Y-62715000D03*
X143702000Y-60815000D03*
D22*
X195502000Y-85245000D03*
X193602000Y-85245000D03*
D26*
X155640000Y-67317677D03*
D27*
X155640000Y-62317677D03*
D28*
X169562000Y-85205000D03*
X169562000Y-81905000D03*
X179842000Y-85235000D03*
X179842000Y-81935000D03*
X190032000Y-85275000D03*
X190032000Y-81975000D03*
X200212000Y-85295000D03*
X200212000Y-81995000D03*
X194832000Y-93795000D03*
X194832000Y-97095000D03*
X184622000Y-93785000D03*
X184622000Y-97085000D03*
X174372000Y-93765000D03*
X174372000Y-97065000D03*
X164222000Y-93785000D03*
X164222000Y-97085000D03*
D24*
X178992000Y-94085000D03*
X180892000Y-94085000D03*
D29*
X163242000Y-77217500D03*
X163242000Y-75392500D03*
X173372000Y-77227500D03*
X173372000Y-75402500D03*
X183522000Y-77207500D03*
X183522000Y-75382500D03*
X193752000Y-77177500D03*
X193752000Y-75352500D03*
D30*
X201272000Y-102602500D03*
X201272000Y-104427500D03*
X180972000Y-102562500D03*
X180972000Y-104387500D03*
X170752000Y-102582500D03*
X170752000Y-104407500D03*
X191092000Y-102562500D03*
X191092000Y-104387500D03*
D10*
X102490000Y-62580000D03*
D31*
X168742000Y-76850000D03*
X168742000Y-72700000D03*
X178872000Y-76850000D03*
X178872000Y-72700000D03*
X189072000Y-76790000D03*
X189072000Y-72640000D03*
X199242000Y-76810000D03*
X199242000Y-72660000D03*
X195782000Y-103020000D03*
X195782000Y-107170000D03*
X185592000Y-103050000D03*
X185592000Y-107200000D03*
X175412000Y-103040000D03*
X175412000Y-107190000D03*
X165202000Y-103040000D03*
X165202000Y-107190000D03*
D32*
X143629500Y-72125000D03*
X145454500Y-72125000D03*
D33*
X102780000Y-67363750D03*
X99980000Y-67363750D03*
D34*
X139032000Y-72762621D03*
D35*
X139032000Y-75262621D03*
D22*
X136770000Y-96370000D03*
X134870000Y-96370000D03*
D36*
X120792000Y-118115000D03*
X120792000Y-115575000D03*
X123332000Y-118115000D03*
X123332000Y-115575000D03*
X125872000Y-118115000D03*
X125872000Y-115575000D03*
X128412000Y-118115000D03*
X128412000Y-115575000D03*
X130952000Y-118115000D03*
X130952000Y-115575000D03*
X133492000Y-118115000D03*
X133492000Y-115575000D03*
X136032000Y-118115000D03*
X136032000Y-115575000D03*
X138572000Y-118115000D03*
X138572000Y-115575000D03*
X141112000Y-118115000D03*
X141112000Y-115575000D03*
X143652000Y-118115000D03*
X143652000Y-115575000D03*
X120792000Y-92715000D03*
X120792000Y-90175000D03*
X123332000Y-92715000D03*
X123332000Y-90175000D03*
X125872000Y-92715000D03*
X125872000Y-90175000D03*
X128412000Y-92715000D03*
X128412000Y-90175000D03*
X130952000Y-92715000D03*
X130952000Y-90175000D03*
X133492000Y-92715000D03*
X133492000Y-90175000D03*
X136032000Y-92715000D03*
X136032000Y-90175000D03*
X138572000Y-92715000D03*
X138572000Y-90175000D03*
X141112000Y-92715000D03*
X141112000Y-90175000D03*
X143652000Y-92715000D03*
X143652000Y-90175000D03*
D13*
X112057000Y-63580000D03*
D14*
X112057000Y-68660000D03*
D37*
X115262000Y-82405000D03*
D38*
X112722000Y-82405000D03*
X115262000Y-79865000D03*
X112722000Y-79865000D03*
X115262000Y-77325000D03*
X112722000Y-77325000D03*
D39*
X131994500Y-73825000D03*
X133869500Y-73825000D03*
D40*
X108722000Y-87365000D03*
D41*
X108722000Y-89865000D03*
X108722000Y-92365000D03*
X108722000Y-94865000D03*
X108722000Y-97365000D03*
X108722000Y-99865000D03*
D40*
X108712000Y-106035000D03*
D41*
X108712000Y-108535000D03*
X108712000Y-111035000D03*
D42*
X133854500Y-75965000D03*
X132029500Y-75965000D03*
D32*
X99987500Y-69663750D03*
X101812500Y-69663750D03*
D22*
X126272000Y-111455000D03*
X124372000Y-111455000D03*
D25*
X124612000Y-101215000D03*
X124612000Y-103115000D03*
D30*
X122032000Y-107782500D03*
X122032000Y-109607500D03*
D42*
X126264500Y-108965000D03*
X124439500Y-108965000D03*
D29*
X122022000Y-105605000D03*
X122022000Y-103780000D03*
D30*
X122052000Y-99412500D03*
X122052000Y-101237500D03*
D29*
X132542000Y-101177500D03*
X132542000Y-99352500D03*
D42*
X136374500Y-99335000D03*
X134549500Y-99335000D03*
D24*
X138202000Y-99345000D03*
X140102000Y-99345000D03*
D32*
X128429500Y-81425000D03*
X130254500Y-81425000D03*
D43*
X105129500Y-74596234D03*
X105129500Y-72696234D03*
X103254500Y-73646234D03*
D32*
X140839500Y-103135000D03*
X142664500Y-103135000D03*
D30*
X113702000Y-72713734D03*
X113702000Y-74538734D03*
X110422000Y-72713734D03*
X110422000Y-74538734D03*
D37*
X119982000Y-73635000D03*
D38*
X119982000Y-76175000D03*
X119982000Y-78715000D03*
D32*
X151919500Y-110925000D03*
X153744500Y-110925000D03*
D30*
X101122000Y-72723734D03*
X101122000Y-74548734D03*
D32*
X142809500Y-98505000D03*
X144634500Y-98505000D03*
X128439500Y-83485000D03*
X130264500Y-83485000D03*
D39*
X131984500Y-71685000D03*
X133859500Y-71685000D03*
D32*
X153517500Y-96560000D03*
X155342500Y-96560000D03*
D30*
X107222000Y-72713734D03*
X107222000Y-74538734D03*
D24*
X128402000Y-85565000D03*
X130302000Y-85565000D03*
D32*
X144549500Y-85475000D03*
X146374500Y-85475000D03*
D37*
X152334250Y-80148500D03*
X152334250Y-80148500D03*
D27*
X143482250Y-80148500D03*
X143482250Y-80148500D03*
D44*
X149365250Y-76299500D03*
X146317250Y-76299500D03*
D32*
X140839500Y-105685000D03*
X142664500Y-105685000D03*
D42*
X159804500Y-98205000D03*
X157979500Y-98205000D03*
D32*
X144539500Y-87535000D03*
X146364500Y-87535000D03*
D27*
X152652000Y-117995000D03*
X159152000Y-117995000D03*
X159152000Y-113495000D03*
X152652000Y-113495000D03*
M02*
