M48
METRIC,TZ
T1C0.400
T2C0.750
T3C0.800
T4C0.950
T5C1.000
T6C1.100
T7C1.300
T8C1.500
%
G90
G05
T1
X103842Y-77895
X103862Y-66195
X103922Y-55165
X112502Y-93905
X112552Y-101705
X113792Y-77895
X114242Y-67365
X116452Y-112365
X121631Y-56426
X121892Y-98115
X122912Y-79035
X124022Y-66325
X125672Y-88245
X128159Y-61849
X130842Y-103695
X131002Y-93065
X131612Y-105195
X133522Y-104185
X135055Y-66357
X135576Y-56515
X137682Y-110885
X138192Y-96995
X138232Y-81545
X142103Y-63093
X142662Y-100525
X149262Y-55555
X149622Y-87695
X156452Y-85355
X159302Y-55555
X159422Y-110285
X159852Y-104225
X160002Y-90245
X160172Y-94005
X160322Y-98525
X160382Y-85625
X160762Y-80475
X161212Y-95015
X163142Y-83035
X164482Y-78625
X164882Y-96685
X165462Y-90285
X165572Y-92015
X165772Y-73605
X166492Y-86155
X166632Y-83245
X166812Y-80345
X167592Y-76835
X167972Y-69635
X168852Y-87805
X169052Y-110275
X171442Y-80395
X171832Y-83225
X172252Y-86185
X173452Y-57265
X174912Y-78655
X174962Y-96685
X175742Y-90235
X175797Y-91880
X176162Y-73645
X176782Y-86115
X176962Y-83205
X177132Y-80365
X177952Y-76345
X178322Y-69565
X179042Y-87815
X179092Y-110275
X181612Y-80405
X182022Y-83305
X182432Y-86215
X183882Y-57225
X184972Y-78575
X185182Y-96755
X185907Y-91870
X185912Y-90215
X186362Y-73625
X186972Y-86095
X187142Y-83185
X187262Y-80345
X188062Y-76335
X188352Y-69585
X189192Y-87835
X189372Y-110275
X191742Y-80425
X192152Y-83335
X192592Y-86185
X194012Y-57295
X194992Y-96755
X195122Y-78575
X196082Y-90265
X196152Y-91895
X196712Y-73625
X197132Y-86095
X197392Y-83165
X197472Y-80365
X197922Y-69585
X198522Y-76315
X199422Y-87875
X202522Y-83435
X205522Y-60485
X205552Y-106195
X205562Y-83305
X205572Y-72135
X205582Y-95835
T2
X114709Y-70946
X114709Y-72216
X114709Y-73486
T3
X112582Y-82845
X112582Y-85385
X112582Y-108245
X112582Y-110785
X115122Y-82845
X115122Y-85385
X115122Y-108245
X115122Y-110785
X117662Y-82845
X117662Y-85385
X117662Y-108245
X117662Y-110785
X120202Y-82845
X120202Y-85385
X120202Y-108245
X120202Y-110785
X122742Y-82845
X122742Y-85385
X122742Y-108245
X122742Y-110785
X125282Y-82845
X125282Y-85385
X125282Y-108245
X125282Y-110785
X127822Y-82845
X127822Y-85385
X127822Y-108245
X127822Y-110785
X130362Y-82845
X130362Y-85385
X130362Y-108245
X130362Y-110785
X132902Y-82845
X132902Y-85385
X132902Y-108245
X132902Y-110785
X135442Y-82845
X135442Y-85385
X135442Y-108245
X135442Y-110785
T4
X145742Y-106855
X145862Y-85965
X148242Y-106855
X148362Y-85965
X150742Y-106855
X150862Y-85965
X153242Y-106855
T5
X122152Y-74395
X153822Y-100575
X153832Y-93155
X156362Y-100575
X156372Y-93155
T6
X139830Y-72902
X142370Y-72902
X144224Y-57937
X144224Y-60477
X144224Y-63017
X144910Y-72902
T7
X109802Y-58215
X109802Y-63215
X163992Y-60687
X164142Y-105725
X169072Y-60687
X169222Y-105725
X174142Y-60685
X174322Y-105725
X179222Y-60685
X179402Y-105725
X184292Y-60675
X184492Y-105725
X189372Y-60675
X189572Y-105725
X194442Y-60665
X194662Y-105725
X199522Y-60665
X199742Y-105725
T8
X117001Y-60172
X139601Y-60172
T0
M30
