G04 #@! TF.GenerationSoftware,KiCad,Pcbnew,5.1.12-84ad8e8a86~92~ubuntu20.04.1*
G04 #@! TF.CreationDate,2021-11-07T22:28:23+01:00*
G04 #@! TF.ProjectId,CC dimmer low voltage,43432064-696d-46d6-9572-206c6f772076,0.80*
G04 #@! TF.SameCoordinates,Original*
G04 #@! TF.FileFunction,Copper,L2,Bot*
G04 #@! TF.FilePolarity,Positive*
%FSLAX46Y46*%
G04 Gerber Fmt 4.6, Leading zero omitted, Abs format (unit mm)*
G04 Created by KiCad (PCBNEW 5.1.12-84ad8e8a86~92~ubuntu20.04.1) date 2021-11-07 22:28:23*
%MOMM*%
%LPD*%
G01*
G04 APERTURE LIST*
G04 #@! TA.AperFunction,ComponentPad*
%ADD10C,1.400000*%
G04 #@! TD*
G04 #@! TA.AperFunction,ComponentPad*
%ADD11O,2.000000X1.905000*%
G04 #@! TD*
G04 #@! TA.AperFunction,ComponentPad*
%ADD12R,2.000000X1.905000*%
G04 #@! TD*
G04 #@! TA.AperFunction,ComponentPad*
%ADD13C,3.000000*%
G04 #@! TD*
G04 #@! TA.AperFunction,ComponentPad*
%ADD14R,1.700000X1.700000*%
G04 #@! TD*
G04 #@! TA.AperFunction,ComponentPad*
%ADD15O,1.700000X1.950000*%
G04 #@! TD*
G04 #@! TA.AperFunction,ComponentPad*
%ADD16O,1.500000X1.050000*%
G04 #@! TD*
G04 #@! TA.AperFunction,ComponentPad*
%ADD17R,1.500000X1.050000*%
G04 #@! TD*
G04 #@! TA.AperFunction,ComponentPad*
%ADD18R,1.905000X2.000000*%
G04 #@! TD*
G04 #@! TA.AperFunction,ComponentPad*
%ADD19O,1.905000X2.000000*%
G04 #@! TD*
G04 #@! TA.AperFunction,ComponentPad*
%ADD20R,2.600000X2.600000*%
G04 #@! TD*
G04 #@! TA.AperFunction,ComponentPad*
%ADD21C,2.600000*%
G04 #@! TD*
G04 #@! TA.AperFunction,ComponentPad*
%ADD22C,2.500000*%
G04 #@! TD*
G04 #@! TA.AperFunction,ComponentPad*
%ADD23R,2.500000X2.500000*%
G04 #@! TD*
G04 #@! TA.AperFunction,ViaPad*
%ADD24C,0.800000*%
G04 #@! TD*
G04 #@! TA.AperFunction,Conductor*
%ADD25C,0.800000*%
G04 #@! TD*
G04 #@! TA.AperFunction,Conductor*
%ADD26C,0.254000*%
G04 #@! TD*
G04 #@! TA.AperFunction,Conductor*
%ADD27C,0.150000*%
G04 #@! TD*
G04 APERTURE END LIST*
D10*
X135442000Y-82845000D03*
X135442000Y-85385000D03*
X132902000Y-82845000D03*
X132902000Y-85385000D03*
X130362000Y-82845000D03*
X130362000Y-85385000D03*
X127822000Y-82845000D03*
X127822000Y-85385000D03*
X125282000Y-82845000D03*
X125282000Y-85385000D03*
X122742000Y-82845000D03*
X122742000Y-85385000D03*
X120202000Y-82845000D03*
X120202000Y-85385000D03*
X117662000Y-82845000D03*
X117662000Y-85385000D03*
X115122000Y-82845000D03*
X115122000Y-85385000D03*
X112582000Y-82845000D03*
X112582000Y-85385000D03*
X135442000Y-108245000D03*
X135442000Y-110785000D03*
X132902000Y-108245000D03*
X132902000Y-110785000D03*
X130362000Y-108245000D03*
X130362000Y-110785000D03*
X127822000Y-108245000D03*
X127822000Y-110785000D03*
X125282000Y-108245000D03*
X125282000Y-110785000D03*
X122742000Y-108245000D03*
X122742000Y-110785000D03*
X120202000Y-108245000D03*
X120202000Y-110785000D03*
X117662000Y-108245000D03*
X117662000Y-110785000D03*
X115122000Y-108245000D03*
X115122000Y-110785000D03*
X112582000Y-110785000D03*
X112582000Y-108245000D03*
D11*
X144224200Y-63017000D03*
X144224200Y-60477000D03*
D12*
X144224200Y-57937000D03*
D13*
X139601400Y-60172200D03*
X117001400Y-60172200D03*
D14*
X156362000Y-100575000D03*
X156372000Y-93155000D03*
G04 #@! TA.AperFunction,ComponentPad*
G36*
G01*
X145012000Y-86690000D02*
X145012000Y-85240000D01*
G75*
G02*
X145262000Y-84990000I250000J0D01*
G01*
X146462000Y-84990000D01*
G75*
G02*
X146712000Y-85240000I0J-250000D01*
G01*
X146712000Y-86690000D01*
G75*
G02*
X146462000Y-86940000I-250000J0D01*
G01*
X145262000Y-86940000D01*
G75*
G02*
X145012000Y-86690000I0J250000D01*
G01*
G37*
G04 #@! TD.AperFunction*
D15*
X148362000Y-85965000D03*
X150862000Y-85965000D03*
G04 #@! TA.AperFunction,ComponentPad*
G36*
G01*
X144892000Y-107580000D02*
X144892000Y-106130000D01*
G75*
G02*
X145142000Y-105880000I250000J0D01*
G01*
X146342000Y-105880000D01*
G75*
G02*
X146592000Y-106130000I0J-250000D01*
G01*
X146592000Y-107580000D01*
G75*
G02*
X146342000Y-107830000I-250000J0D01*
G01*
X145142000Y-107830000D01*
G75*
G02*
X144892000Y-107580000I0J250000D01*
G01*
G37*
G04 #@! TD.AperFunction*
X148242000Y-106855000D03*
X150742000Y-106855000D03*
X153242000Y-106855000D03*
D14*
X153832000Y-93155000D03*
X153822000Y-100575000D03*
X122152000Y-74395000D03*
D16*
X114709400Y-72216000D03*
X114709400Y-70946000D03*
D17*
X114709400Y-73486000D03*
D18*
X144910000Y-72901800D03*
D19*
X142370000Y-72901800D03*
X139830000Y-72901800D03*
D20*
X109802000Y-58215000D03*
D21*
X109802000Y-63215000D03*
D22*
X163992000Y-60687000D03*
D23*
X169072000Y-60687000D03*
X179222000Y-60685000D03*
D22*
X174142000Y-60685000D03*
X184292000Y-60675000D03*
D23*
X189372000Y-60675000D03*
X199522000Y-60665000D03*
D22*
X194442000Y-60665000D03*
D23*
X194662000Y-105725000D03*
D22*
X199742000Y-105725000D03*
X189572000Y-105725000D03*
D23*
X184492000Y-105725000D03*
X174322000Y-105725000D03*
D22*
X179402000Y-105725000D03*
X169222000Y-105725000D03*
D23*
X164142000Y-105725000D03*
D24*
X103842000Y-77895000D03*
X149262000Y-55555000D03*
X159302000Y-55555000D03*
X205522000Y-60485000D03*
X205572000Y-72135000D03*
X205562000Y-83305000D03*
X205552000Y-106195000D03*
X205582000Y-95835000D03*
X160322000Y-98525000D03*
X112552000Y-101705000D03*
X135054800Y-66357100D03*
X135575500Y-56514600D03*
X121630900Y-56425700D03*
X128158700Y-61848600D03*
X103922000Y-55165000D03*
X124022000Y-66325000D03*
X103862000Y-66195000D03*
X165462000Y-90285000D03*
X175742000Y-90235000D03*
X185912000Y-90215000D03*
X196082000Y-90265000D03*
X199422000Y-87875000D03*
X189192000Y-87835000D03*
X179042000Y-87815000D03*
X168852000Y-87805000D03*
X167592000Y-76835000D03*
X164482000Y-78625000D03*
X174912000Y-78655000D03*
X184972000Y-78575000D03*
X195122000Y-78575000D03*
X198522000Y-76315000D03*
X188062000Y-76335000D03*
X177952000Y-76345000D03*
X149622000Y-87695000D03*
X131002000Y-93065000D03*
X138192000Y-96995000D03*
X116452000Y-112365000D03*
X137682000Y-110885000D03*
X142662000Y-100525000D03*
X130842000Y-103695000D03*
X122912000Y-79035000D03*
X112502000Y-93905000D03*
X121892000Y-98115000D03*
X159422000Y-110285000D03*
X174962000Y-96685000D03*
X164882000Y-96685000D03*
X185182000Y-96755000D03*
X194992000Y-96755000D03*
X189372000Y-110275000D03*
X179092000Y-110275000D03*
X169052000Y-110275000D03*
X173452000Y-57265000D03*
X183882000Y-57225000D03*
X194012000Y-57295000D03*
X167972000Y-69635000D03*
X178322000Y-69565000D03*
X197922000Y-69585000D03*
X188352000Y-69585000D03*
X159852000Y-104225000D03*
X114242000Y-67365000D03*
X113792000Y-77895000D03*
X142103300Y-63093200D03*
X202522000Y-83435000D03*
X197392000Y-83165000D03*
X187142000Y-83185000D03*
X176962000Y-83205000D03*
X166632000Y-83245000D03*
X160762000Y-80475000D03*
X156452000Y-85355000D03*
X197472000Y-80365000D03*
X197132000Y-86095000D03*
X186972000Y-86095000D03*
X187262000Y-80345000D03*
X192152000Y-83335000D03*
X182022000Y-83305000D03*
X177132000Y-80365000D03*
X176782000Y-86115000D03*
X171832000Y-83225000D03*
X166812000Y-80345000D03*
X166492000Y-86155000D03*
X163142000Y-83035000D03*
X160382000Y-85625000D03*
X171442000Y-80395000D03*
X181612000Y-80405000D03*
X191742000Y-80425000D03*
X192592000Y-86185000D03*
X182432000Y-86215000D03*
X172252000Y-86185000D03*
X138232001Y-81544999D03*
X131612000Y-105195000D03*
X133522000Y-104185000D03*
X165772000Y-73605000D03*
X125672000Y-88245000D03*
X176162000Y-73645000D03*
X186362000Y-73625000D03*
X196712000Y-73625000D03*
X196152000Y-91895000D03*
X161212000Y-95015030D03*
X185907000Y-91870000D03*
X160172000Y-94005000D03*
X175797000Y-91880000D03*
X160002011Y-90245011D03*
X165572000Y-92015000D03*
D25*
X142090600Y-63080500D02*
X142103300Y-63093200D01*
X142103300Y-63093200D02*
X142103300Y-58533700D01*
X142700000Y-57937000D02*
X144224200Y-57937000D01*
X142103300Y-58533700D02*
X142700000Y-57937000D01*
X121502001Y-81544999D02*
X138232001Y-81544999D01*
X120202000Y-82845000D02*
X121502001Y-81544999D01*
X138232001Y-81544999D02*
X138232001Y-81544999D01*
X127822000Y-108245000D02*
X127822000Y-107325000D01*
X128292000Y-106855000D02*
X127822000Y-107325000D01*
X145742000Y-106855000D02*
X128292000Y-106855000D01*
X148242000Y-106827902D02*
X146609098Y-105195000D01*
X148242000Y-106855000D02*
X148242000Y-106827902D01*
X146609098Y-105195000D02*
X131612000Y-105195000D01*
X131612000Y-105195000D02*
X131612000Y-105195000D01*
X150742000Y-105745000D02*
X150742000Y-106855000D01*
X149191990Y-104194990D02*
X150742000Y-105745000D01*
X133571990Y-104194990D02*
X149191990Y-104194990D01*
X133562000Y-104185000D02*
X133571990Y-104194990D01*
X133522000Y-104185000D02*
X133562000Y-104185000D01*
X165772000Y-73605000D02*
X165772000Y-73605000D01*
X125692000Y-88225000D02*
X125672000Y-88245000D01*
X137722000Y-88225000D02*
X125692000Y-88225000D01*
X151893546Y-83315000D02*
X142632000Y-83315000D01*
X142632000Y-83315000D02*
X137722000Y-88225000D01*
X161502000Y-73706546D02*
X151893546Y-83315000D01*
X161502000Y-73605000D02*
X161502000Y-73706546D01*
X165772000Y-73605000D02*
X161502000Y-73605000D01*
X176162000Y-73645000D02*
X176162000Y-73645000D01*
X122742000Y-86485000D02*
X122742000Y-85385000D01*
X123232000Y-86975000D02*
X122742000Y-86485000D01*
X137557774Y-86975000D02*
X123232000Y-86975000D01*
X151927784Y-72604990D02*
X137557774Y-86975000D01*
X166251990Y-72604990D02*
X151927784Y-72604990D01*
X167292000Y-73645000D02*
X166251990Y-72604990D01*
X176162000Y-73645000D02*
X167292000Y-73645000D01*
X186362000Y-73625000D02*
X186362000Y-73625000D01*
X177596227Y-73625000D02*
X186362000Y-73625000D01*
X176576218Y-74645010D02*
X177084114Y-74137114D01*
X166877783Y-74645010D02*
X176576218Y-74645010D01*
X177084114Y-74137114D02*
X177596227Y-73625000D01*
X176576217Y-74645010D02*
X177084114Y-74137114D01*
X163162010Y-74645010D02*
X163162000Y-74645000D01*
X166877783Y-74645010D02*
X163162010Y-74645010D01*
X120202000Y-106755000D02*
X120202000Y-108245000D01*
X133922000Y-93035000D02*
X120202000Y-106755000D01*
X135157773Y-93035000D02*
X133922000Y-93035000D01*
X135167793Y-93024980D02*
X135157773Y-93035000D01*
X153331990Y-83290783D02*
X153331990Y-89680784D01*
X161977763Y-74645010D02*
X153331990Y-83290783D01*
X149987794Y-93024980D02*
X135167793Y-93024980D01*
X153331990Y-89680784D02*
X149987794Y-93024980D01*
X163162010Y-74645010D02*
X161977763Y-74645010D01*
X196712000Y-73625000D02*
X196712000Y-73625000D01*
X150402010Y-94024990D02*
X135582010Y-94024990D01*
X122742000Y-106865000D02*
X122742000Y-108245000D01*
X154332000Y-83705000D02*
X154332000Y-90095000D01*
X154332000Y-90095000D02*
X150402010Y-94024990D01*
X176990435Y-75645020D02*
X162391980Y-75645020D01*
X162391980Y-75645020D02*
X154332000Y-83705000D01*
X178010445Y-74625010D02*
X176990435Y-75645020D01*
X186776217Y-74625010D02*
X178010445Y-74625010D01*
X135582010Y-94024990D02*
X122742000Y-106865000D01*
X187776227Y-73625000D02*
X186776217Y-74625010D01*
X196712000Y-73625000D02*
X187776227Y-73625000D01*
X196152000Y-91895000D02*
X193031970Y-95015030D01*
X193031970Y-95015030D02*
X166814651Y-95015030D01*
X166814651Y-95015030D02*
X161212000Y-95015030D01*
X161212000Y-95015030D02*
X161212000Y-95015030D01*
X161262000Y-94015020D02*
X161262000Y-94015020D01*
X161262000Y-94015020D02*
X161262000Y-94015020D01*
X160182020Y-94015020D02*
X160172000Y-94005000D01*
X183761980Y-94015020D02*
X160182020Y-94015020D01*
X185907000Y-91870000D02*
X183761980Y-94015020D01*
X175797000Y-91880000D02*
X174661990Y-93015010D01*
X174661990Y-93015010D02*
X160992010Y-93015010D01*
X160981999Y-93004999D02*
X159212001Y-93004999D01*
X160992010Y-93015010D02*
X160981999Y-93004999D01*
X159212001Y-93004999D02*
X157192000Y-95025000D01*
X137242002Y-95025000D02*
X125182002Y-107085000D01*
X157192000Y-95025000D02*
X137242002Y-95025000D01*
X125182002Y-108145002D02*
X125282000Y-108245000D01*
X125182002Y-107085000D02*
X125182002Y-108145002D01*
X161772000Y-92015000D02*
X160002011Y-90245011D01*
X165572000Y-92015000D02*
X161772000Y-92015000D01*
D26*
X203165718Y-79801895D02*
X203204278Y-86598143D01*
X155367000Y-86651581D01*
X155367000Y-84133710D01*
X159734985Y-79765725D01*
X203165718Y-79801895D01*
G04 #@! TA.AperFunction,Conductor*
D27*
G36*
X203165718Y-79801895D02*
G01*
X203204278Y-86598143D01*
X155367000Y-86651581D01*
X155367000Y-84133710D01*
X159734985Y-79765725D01*
X203165718Y-79801895D01*
G37*
G04 #@! TD.AperFunction*
D26*
X205429913Y-53211782D02*
X206020609Y-53269700D01*
X206556402Y-53431466D01*
X207050569Y-53694219D01*
X207484290Y-54047953D01*
X207841043Y-54479193D01*
X208107242Y-54971519D01*
X208272743Y-55506165D01*
X208334601Y-56094715D01*
X208335613Y-78939840D01*
X160518085Y-78982626D01*
X162820691Y-76680020D01*
X176939607Y-76680020D01*
X176990435Y-76685026D01*
X177041263Y-76680020D01*
X177041273Y-76680020D01*
X177193330Y-76665044D01*
X177388428Y-76605861D01*
X177568232Y-76509754D01*
X177725831Y-76380416D01*
X177758242Y-76340923D01*
X178439156Y-75660010D01*
X186725389Y-75660010D01*
X186776217Y-75665016D01*
X186827045Y-75660010D01*
X186827055Y-75660010D01*
X186979112Y-75645034D01*
X187174210Y-75585851D01*
X187354014Y-75489744D01*
X187511613Y-75360406D01*
X187544024Y-75320913D01*
X188204938Y-74660000D01*
X196813939Y-74660000D01*
X196864057Y-74650031D01*
X196914895Y-74645024D01*
X196963777Y-74630196D01*
X197013898Y-74620226D01*
X197061113Y-74600669D01*
X197109993Y-74585841D01*
X197155042Y-74561762D01*
X197202256Y-74542205D01*
X197244746Y-74513814D01*
X197289797Y-74489734D01*
X197329284Y-74457328D01*
X197371774Y-74428937D01*
X197407908Y-74392803D01*
X197447396Y-74360396D01*
X197479805Y-74320906D01*
X197515937Y-74284774D01*
X197544328Y-74242284D01*
X197576734Y-74202797D01*
X197600814Y-74157746D01*
X197629205Y-74115256D01*
X197648762Y-74068042D01*
X197672841Y-74022993D01*
X197687669Y-73974113D01*
X197707226Y-73926898D01*
X197717196Y-73876777D01*
X197732024Y-73827895D01*
X197737031Y-73777057D01*
X197747000Y-73726939D01*
X197747000Y-73675838D01*
X197752007Y-73625000D01*
X197747000Y-73574162D01*
X197747000Y-73523061D01*
X197737031Y-73472943D01*
X197732024Y-73422105D01*
X197717196Y-73373223D01*
X197707226Y-73323102D01*
X197687669Y-73275887D01*
X197672841Y-73227007D01*
X197648762Y-73181958D01*
X197629205Y-73134744D01*
X197600814Y-73092254D01*
X197576734Y-73047203D01*
X197544328Y-73007716D01*
X197515937Y-72965226D01*
X197479803Y-72929092D01*
X197447396Y-72889604D01*
X197407908Y-72857197D01*
X197371774Y-72821063D01*
X197329284Y-72792672D01*
X197289797Y-72760266D01*
X197244746Y-72736186D01*
X197202256Y-72707795D01*
X197155042Y-72688238D01*
X197109993Y-72664159D01*
X197061113Y-72649331D01*
X197013898Y-72629774D01*
X196963777Y-72619804D01*
X196914895Y-72604976D01*
X196864057Y-72599969D01*
X196813939Y-72590000D01*
X187827062Y-72590000D01*
X187776227Y-72584993D01*
X187725392Y-72590000D01*
X187725389Y-72590000D01*
X187573332Y-72604976D01*
X187378234Y-72664159D01*
X187340817Y-72684159D01*
X187198429Y-72760266D01*
X187099978Y-72841063D01*
X187069114Y-72866393D01*
X187057908Y-72857197D01*
X187021774Y-72821063D01*
X186979284Y-72792672D01*
X186939797Y-72760266D01*
X186894746Y-72736186D01*
X186852256Y-72707795D01*
X186805042Y-72688238D01*
X186759993Y-72664159D01*
X186711113Y-72649331D01*
X186663898Y-72629774D01*
X186613777Y-72619804D01*
X186564895Y-72604976D01*
X186514057Y-72599969D01*
X186463939Y-72590000D01*
X177647061Y-72590000D01*
X177596226Y-72584993D01*
X177545391Y-72590000D01*
X177545389Y-72590000D01*
X177393332Y-72604976D01*
X177198234Y-72664159D01*
X177018430Y-72760266D01*
X176866928Y-72884600D01*
X176857908Y-72877197D01*
X176821774Y-72841063D01*
X176779284Y-72812672D01*
X176739797Y-72780266D01*
X176694746Y-72756186D01*
X176652256Y-72727795D01*
X176605042Y-72708238D01*
X176559993Y-72684159D01*
X176511113Y-72669331D01*
X176463898Y-72649774D01*
X176413777Y-72639804D01*
X176364895Y-72624976D01*
X176314057Y-72619969D01*
X176263939Y-72610000D01*
X167720711Y-72610000D01*
X167019797Y-71909087D01*
X166987386Y-71869594D01*
X166829787Y-71740256D01*
X166649983Y-71644149D01*
X166454885Y-71584966D01*
X166302828Y-71569990D01*
X166302818Y-71569990D01*
X166251990Y-71564984D01*
X166201162Y-71569990D01*
X151978611Y-71569990D01*
X151927783Y-71564984D01*
X151876955Y-71569990D01*
X151876946Y-71569990D01*
X151724889Y-71584966D01*
X151529791Y-71644149D01*
X151446093Y-71688886D01*
X151349986Y-71740256D01*
X151231876Y-71837187D01*
X151192388Y-71869594D01*
X151159981Y-71909082D01*
X137129064Y-85940000D01*
X136657104Y-85940000D01*
X136725696Y-85774405D01*
X136777000Y-85516486D01*
X136777000Y-85253514D01*
X136725696Y-84995595D01*
X136625061Y-84752641D01*
X136478962Y-84533987D01*
X136293013Y-84348038D01*
X136074359Y-84201939D01*
X135864470Y-84115000D01*
X136074359Y-84028061D01*
X136293013Y-83881962D01*
X136478962Y-83696013D01*
X136625061Y-83477359D01*
X136725696Y-83234405D01*
X136777000Y-82976486D01*
X136777000Y-82713514D01*
X136750442Y-82579999D01*
X138333940Y-82579999D01*
X138384058Y-82570030D01*
X138434896Y-82565023D01*
X138483778Y-82550195D01*
X138533899Y-82540225D01*
X138581114Y-82520668D01*
X138629994Y-82505840D01*
X138675043Y-82481761D01*
X138722257Y-82462204D01*
X138764747Y-82433813D01*
X138809798Y-82409733D01*
X138849285Y-82377327D01*
X138891775Y-82348936D01*
X138927909Y-82312802D01*
X138967397Y-82280395D01*
X138999804Y-82240907D01*
X139035938Y-82204773D01*
X139064329Y-82162283D01*
X139096735Y-82122796D01*
X139120815Y-82077745D01*
X139149206Y-82035255D01*
X139168763Y-81988041D01*
X139192842Y-81942992D01*
X139207670Y-81894112D01*
X139227227Y-81846897D01*
X139237197Y-81796776D01*
X139252025Y-81747894D01*
X139257032Y-81697056D01*
X139267001Y-81646938D01*
X139267001Y-81595837D01*
X139272008Y-81544999D01*
X139267001Y-81494161D01*
X139267001Y-81443060D01*
X139257032Y-81392942D01*
X139252025Y-81342104D01*
X139237197Y-81293222D01*
X139227227Y-81243101D01*
X139207670Y-81195886D01*
X139192842Y-81147006D01*
X139168763Y-81101957D01*
X139149206Y-81054743D01*
X139120815Y-81012253D01*
X139096735Y-80967202D01*
X139064329Y-80927715D01*
X139035938Y-80885225D01*
X138999804Y-80849091D01*
X138967397Y-80809603D01*
X138927909Y-80777196D01*
X138891775Y-80741062D01*
X138849285Y-80712671D01*
X138809798Y-80680265D01*
X138764747Y-80656185D01*
X138722257Y-80627794D01*
X138675043Y-80608237D01*
X138629994Y-80584158D01*
X138581114Y-80569330D01*
X138533899Y-80549773D01*
X138483778Y-80539803D01*
X138434896Y-80524975D01*
X138384058Y-80519968D01*
X138333940Y-80509999D01*
X121552828Y-80509999D01*
X121502000Y-80504993D01*
X121451172Y-80509999D01*
X121451163Y-80509999D01*
X121299106Y-80524975D01*
X121104008Y-80584158D01*
X121022371Y-80627794D01*
X120924203Y-80680265D01*
X120806456Y-80776898D01*
X120766605Y-80809603D01*
X120734198Y-80849091D01*
X120073290Y-81510000D01*
X120070514Y-81510000D01*
X119812595Y-81561304D01*
X119569641Y-81661939D01*
X119350987Y-81808038D01*
X119165038Y-81993987D01*
X119018939Y-82212641D01*
X118932000Y-82422530D01*
X118845061Y-82212641D01*
X118698962Y-81993987D01*
X118513013Y-81808038D01*
X118294359Y-81661939D01*
X118051405Y-81561304D01*
X117793486Y-81510000D01*
X117530514Y-81510000D01*
X117272595Y-81561304D01*
X117029641Y-81661939D01*
X116810987Y-81808038D01*
X116625038Y-81993987D01*
X116478939Y-82212641D01*
X116392000Y-82422530D01*
X116305061Y-82212641D01*
X116158962Y-81993987D01*
X115973013Y-81808038D01*
X115754359Y-81661939D01*
X115511405Y-81561304D01*
X115253486Y-81510000D01*
X114990514Y-81510000D01*
X114732595Y-81561304D01*
X114489641Y-81661939D01*
X114270987Y-81808038D01*
X114085038Y-81993987D01*
X113938939Y-82212641D01*
X113850379Y-82426444D01*
X113790935Y-82263634D01*
X113737037Y-82162797D01*
X113503269Y-82103336D01*
X112761605Y-82845000D01*
X113503269Y-83586664D01*
X113737037Y-83527203D01*
X113847934Y-83288758D01*
X113852706Y-83269173D01*
X113938939Y-83477359D01*
X114085038Y-83696013D01*
X114270987Y-83881962D01*
X114489641Y-84028061D01*
X114699530Y-84115000D01*
X114489641Y-84201939D01*
X114270987Y-84348038D01*
X114085038Y-84533987D01*
X113938939Y-84752641D01*
X113852000Y-84962530D01*
X113765061Y-84752641D01*
X113618962Y-84533987D01*
X113433013Y-84348038D01*
X113214359Y-84201939D01*
X113000556Y-84113379D01*
X113163366Y-84053935D01*
X113264203Y-84000037D01*
X113323664Y-83766269D01*
X112582000Y-83024605D01*
X111840336Y-83766269D01*
X111899797Y-84000037D01*
X112138242Y-84110934D01*
X112157827Y-84115706D01*
X111949641Y-84201939D01*
X111730987Y-84348038D01*
X111545038Y-84533987D01*
X111398939Y-84752641D01*
X111298304Y-84995595D01*
X111247000Y-85253514D01*
X111247000Y-85516486D01*
X111298304Y-85774405D01*
X111398939Y-86017359D01*
X111545038Y-86236013D01*
X111730987Y-86421962D01*
X111949641Y-86568061D01*
X112192595Y-86668696D01*
X112450514Y-86720000D01*
X112713486Y-86720000D01*
X112971405Y-86668696D01*
X113214359Y-86568061D01*
X113433013Y-86421962D01*
X113618962Y-86236013D01*
X113765061Y-86017359D01*
X113852000Y-85807470D01*
X113938939Y-86017359D01*
X114085038Y-86236013D01*
X114270987Y-86421962D01*
X114489641Y-86568061D01*
X114732595Y-86668696D01*
X114990514Y-86720000D01*
X115253486Y-86720000D01*
X115511405Y-86668696D01*
X115754359Y-86568061D01*
X115973013Y-86421962D01*
X116158962Y-86236013D01*
X116305061Y-86017359D01*
X116392000Y-85807470D01*
X116478939Y-86017359D01*
X116625038Y-86236013D01*
X116810987Y-86421962D01*
X117029641Y-86568061D01*
X117272595Y-86668696D01*
X117530514Y-86720000D01*
X117793486Y-86720000D01*
X118051405Y-86668696D01*
X118294359Y-86568061D01*
X118513013Y-86421962D01*
X118698962Y-86236013D01*
X118845061Y-86017359D01*
X118932000Y-85807470D01*
X119018939Y-86017359D01*
X119165038Y-86236013D01*
X119350987Y-86421962D01*
X119569641Y-86568061D01*
X119812595Y-86668696D01*
X120070514Y-86720000D01*
X120333486Y-86720000D01*
X120591405Y-86668696D01*
X120834359Y-86568061D01*
X121053013Y-86421962D01*
X121238962Y-86236013D01*
X121385061Y-86017359D01*
X121472000Y-85807470D01*
X121558939Y-86017359D01*
X121705038Y-86236013D01*
X121707000Y-86237975D01*
X121707000Y-86434171D01*
X121701994Y-86485000D01*
X121707000Y-86535828D01*
X121707000Y-86535837D01*
X121721976Y-86687894D01*
X121781159Y-86882992D01*
X121877266Y-87062797D01*
X122006604Y-87220396D01*
X122046097Y-87252807D01*
X122464193Y-87670903D01*
X122496604Y-87710396D01*
X122654203Y-87839734D01*
X122834007Y-87935841D01*
X123029105Y-87995024D01*
X123181162Y-88010000D01*
X123181165Y-88010000D01*
X123232000Y-88015007D01*
X123282835Y-88010000D01*
X124661716Y-88010000D01*
X124651977Y-88042105D01*
X124646971Y-88092933D01*
X124637000Y-88143061D01*
X124637000Y-88194172D01*
X124631994Y-88245000D01*
X124637000Y-88295828D01*
X124637000Y-88346939D01*
X124646971Y-88397067D01*
X124651977Y-88447895D01*
X124666803Y-88496768D01*
X124676774Y-88546898D01*
X124696335Y-88594122D01*
X124711160Y-88642993D01*
X124735236Y-88688036D01*
X124754795Y-88735256D01*
X124783187Y-88777748D01*
X124807266Y-88822797D01*
X124839672Y-88862284D01*
X124868063Y-88904774D01*
X124904197Y-88940908D01*
X124936604Y-88980396D01*
X124976092Y-89012803D01*
X125012226Y-89048937D01*
X125054716Y-89077328D01*
X125094203Y-89109734D01*
X125139252Y-89133813D01*
X125181744Y-89162205D01*
X125228964Y-89181764D01*
X125274007Y-89205840D01*
X125322878Y-89220665D01*
X125370102Y-89240226D01*
X125420232Y-89250197D01*
X125469105Y-89265023D01*
X125519933Y-89270029D01*
X125570061Y-89280000D01*
X125621172Y-89280000D01*
X125672000Y-89285006D01*
X125722828Y-89280000D01*
X125773939Y-89280000D01*
X125824067Y-89270029D01*
X125874895Y-89265023D01*
X125891453Y-89260000D01*
X137671172Y-89260000D01*
X137722000Y-89265006D01*
X137772828Y-89260000D01*
X137772838Y-89260000D01*
X137924895Y-89245024D01*
X138119993Y-89185841D01*
X138299797Y-89089734D01*
X138457396Y-88960396D01*
X138489807Y-88920903D01*
X143060711Y-84350000D01*
X148339815Y-84350000D01*
X148070889Y-84376487D01*
X147790966Y-84461401D01*
X147532986Y-84599294D01*
X147306866Y-84784866D01*
X147254777Y-84848337D01*
X147200405Y-84746614D01*
X147089962Y-84612038D01*
X146955386Y-84501595D01*
X146801850Y-84419528D01*
X146635254Y-84368992D01*
X146462000Y-84351928D01*
X145262000Y-84351928D01*
X145088746Y-84368992D01*
X144922150Y-84419528D01*
X144768614Y-84501595D01*
X144634038Y-84612038D01*
X144523595Y-84746614D01*
X144441528Y-84900150D01*
X144390992Y-85066746D01*
X144373928Y-85240000D01*
X144373928Y-86690000D01*
X144390992Y-86863254D01*
X144441528Y-87029850D01*
X144523595Y-87183386D01*
X144634038Y-87317962D01*
X144768614Y-87428405D01*
X144922150Y-87510472D01*
X145088746Y-87561008D01*
X145262000Y-87578072D01*
X146462000Y-87578072D01*
X146635254Y-87561008D01*
X146801850Y-87510472D01*
X146955386Y-87428405D01*
X147089962Y-87317962D01*
X147200405Y-87183386D01*
X147254777Y-87081663D01*
X147306866Y-87145134D01*
X147532987Y-87330706D01*
X147790967Y-87468599D01*
X148070890Y-87553513D01*
X148362000Y-87582185D01*
X148653111Y-87553513D01*
X148933034Y-87468599D01*
X149191014Y-87330706D01*
X149417134Y-87145134D01*
X149602706Y-86919014D01*
X149616462Y-86893278D01*
X149772951Y-87099429D01*
X149990807Y-87292496D01*
X150242142Y-87439352D01*
X150505110Y-87531476D01*
X150735000Y-87410155D01*
X150735000Y-86092000D01*
X150715000Y-86092000D01*
X150715000Y-85838000D01*
X150735000Y-85838000D01*
X150735000Y-84519845D01*
X150505110Y-84398524D01*
X150242142Y-84490648D01*
X149990807Y-84637504D01*
X149772951Y-84830571D01*
X149616462Y-85036722D01*
X149602706Y-85010986D01*
X149417134Y-84784866D01*
X149191013Y-84599294D01*
X148933033Y-84461401D01*
X148653110Y-84376487D01*
X148384185Y-84350000D01*
X151842718Y-84350000D01*
X151893546Y-84355006D01*
X151944374Y-84350000D01*
X151944384Y-84350000D01*
X152096441Y-84335024D01*
X152291539Y-84275841D01*
X152296990Y-84272927D01*
X152296990Y-85486330D01*
X152254442Y-85324170D01*
X152127053Y-85062430D01*
X151951049Y-84830571D01*
X151733193Y-84637504D01*
X151481858Y-84490648D01*
X151218890Y-84398524D01*
X150989000Y-84519845D01*
X150989000Y-85838000D01*
X151009000Y-85838000D01*
X151009000Y-86092000D01*
X150989000Y-86092000D01*
X150989000Y-87410155D01*
X151218890Y-87531476D01*
X151481858Y-87439352D01*
X151733193Y-87292496D01*
X151951049Y-87099429D01*
X152127053Y-86867570D01*
X152254442Y-86605830D01*
X152296990Y-86443670D01*
X152296991Y-89252072D01*
X149559084Y-91989980D01*
X135218620Y-91989980D01*
X135167792Y-91984974D01*
X135116964Y-91989980D01*
X135116955Y-91989980D01*
X135015218Y-92000000D01*
X133972827Y-92000000D01*
X133921999Y-91994994D01*
X133871171Y-92000000D01*
X133871162Y-92000000D01*
X133719105Y-92014976D01*
X133524007Y-92074159D01*
X133479600Y-92097895D01*
X133344202Y-92170266D01*
X133226092Y-92267197D01*
X133186604Y-92299604D01*
X133154197Y-92339092D01*
X119506097Y-105987193D01*
X119466604Y-106019604D01*
X119337266Y-106177203D01*
X119241159Y-106357008D01*
X119181976Y-106552106D01*
X119167000Y-106704163D01*
X119167000Y-106704172D01*
X119161994Y-106755000D01*
X119167000Y-106805828D01*
X119167000Y-107392025D01*
X119165038Y-107393987D01*
X119018939Y-107612641D01*
X118932000Y-107822530D01*
X118845061Y-107612641D01*
X118698962Y-107393987D01*
X118513013Y-107208038D01*
X118294359Y-107061939D01*
X118051405Y-106961304D01*
X117793486Y-106910000D01*
X117530514Y-106910000D01*
X117272595Y-106961304D01*
X117029641Y-107061939D01*
X116810987Y-107208038D01*
X116625038Y-107393987D01*
X116478939Y-107612641D01*
X116392000Y-107822530D01*
X116305061Y-107612641D01*
X116158962Y-107393987D01*
X115973013Y-107208038D01*
X115754359Y-107061939D01*
X115511405Y-106961304D01*
X115253486Y-106910000D01*
X114990514Y-106910000D01*
X114732595Y-106961304D01*
X114489641Y-107061939D01*
X114270987Y-107208038D01*
X114085038Y-107393987D01*
X113938939Y-107612641D01*
X113852000Y-107822530D01*
X113765061Y-107612641D01*
X113618962Y-107393987D01*
X113433013Y-107208038D01*
X113214359Y-107061939D01*
X112971405Y-106961304D01*
X112713486Y-106910000D01*
X112450514Y-106910000D01*
X112192595Y-106961304D01*
X111949641Y-107061939D01*
X111730987Y-107208038D01*
X111545038Y-107393987D01*
X111398939Y-107612641D01*
X111298304Y-107855595D01*
X111247000Y-108113514D01*
X111247000Y-108376486D01*
X111298304Y-108634405D01*
X111398939Y-108877359D01*
X111545038Y-109096013D01*
X111730987Y-109281962D01*
X111949641Y-109428061D01*
X112163444Y-109516621D01*
X112000634Y-109576065D01*
X111899797Y-109629963D01*
X111840336Y-109863731D01*
X112582000Y-110605395D01*
X113323664Y-109863731D01*
X113264203Y-109629963D01*
X113025758Y-109519066D01*
X113006173Y-109514294D01*
X113214359Y-109428061D01*
X113433013Y-109281962D01*
X113618962Y-109096013D01*
X113765061Y-108877359D01*
X113852000Y-108667470D01*
X113938939Y-108877359D01*
X114085038Y-109096013D01*
X114270987Y-109281962D01*
X114489641Y-109428061D01*
X114699530Y-109515000D01*
X114489641Y-109601939D01*
X114270987Y-109748038D01*
X114085038Y-109933987D01*
X113938939Y-110152641D01*
X113850379Y-110366444D01*
X113790935Y-110203634D01*
X113737037Y-110102797D01*
X113503269Y-110043336D01*
X112761605Y-110785000D01*
X113503269Y-111526664D01*
X113737037Y-111467203D01*
X113847934Y-111228758D01*
X113852706Y-111209173D01*
X113938939Y-111417359D01*
X114085038Y-111636013D01*
X114270987Y-111821962D01*
X114489641Y-111968061D01*
X114732595Y-112068696D01*
X114990514Y-112120000D01*
X115253486Y-112120000D01*
X115511405Y-112068696D01*
X115754359Y-111968061D01*
X115973013Y-111821962D01*
X116158962Y-111636013D01*
X116305061Y-111417359D01*
X116392000Y-111207470D01*
X116478939Y-111417359D01*
X116625038Y-111636013D01*
X116810987Y-111821962D01*
X117029641Y-111968061D01*
X117272595Y-112068696D01*
X117530514Y-112120000D01*
X117793486Y-112120000D01*
X118051405Y-112068696D01*
X118294359Y-111968061D01*
X118513013Y-111821962D01*
X118698962Y-111636013D01*
X118845061Y-111417359D01*
X118932000Y-111207470D01*
X119018939Y-111417359D01*
X119165038Y-111636013D01*
X119350987Y-111821962D01*
X119569641Y-111968061D01*
X119812595Y-112068696D01*
X120070514Y-112120000D01*
X120333486Y-112120000D01*
X120591405Y-112068696D01*
X120834359Y-111968061D01*
X121053013Y-111821962D01*
X121238962Y-111636013D01*
X121385061Y-111417359D01*
X121472000Y-111207470D01*
X121558939Y-111417359D01*
X121705038Y-111636013D01*
X121890987Y-111821962D01*
X122109641Y-111968061D01*
X122352595Y-112068696D01*
X122610514Y-112120000D01*
X122873486Y-112120000D01*
X123131405Y-112068696D01*
X123374359Y-111968061D01*
X123593013Y-111821962D01*
X123778962Y-111636013D01*
X123925061Y-111417359D01*
X124012000Y-111207470D01*
X124098939Y-111417359D01*
X124245038Y-111636013D01*
X124430987Y-111821962D01*
X124649641Y-111968061D01*
X124892595Y-112068696D01*
X125150514Y-112120000D01*
X125413486Y-112120000D01*
X125671405Y-112068696D01*
X125914359Y-111968061D01*
X126133013Y-111821962D01*
X126318962Y-111636013D01*
X126465061Y-111417359D01*
X126552000Y-111207470D01*
X126638939Y-111417359D01*
X126785038Y-111636013D01*
X126970987Y-111821962D01*
X127189641Y-111968061D01*
X127432595Y-112068696D01*
X127690514Y-112120000D01*
X127953486Y-112120000D01*
X128211405Y-112068696D01*
X128454359Y-111968061D01*
X128673013Y-111821962D01*
X128858962Y-111636013D01*
X129005061Y-111417359D01*
X129092000Y-111207470D01*
X129178939Y-111417359D01*
X129325038Y-111636013D01*
X129510987Y-111821962D01*
X129729641Y-111968061D01*
X129972595Y-112068696D01*
X130230514Y-112120000D01*
X130493486Y-112120000D01*
X130751405Y-112068696D01*
X130994359Y-111968061D01*
X131213013Y-111821962D01*
X131398962Y-111636013D01*
X131545061Y-111417359D01*
X131632000Y-111207470D01*
X131718939Y-111417359D01*
X131865038Y-111636013D01*
X132050987Y-111821962D01*
X132269641Y-111968061D01*
X132512595Y-112068696D01*
X132770514Y-112120000D01*
X133033486Y-112120000D01*
X133291405Y-112068696D01*
X133534359Y-111968061D01*
X133753013Y-111821962D01*
X133938962Y-111636013D01*
X134085061Y-111417359D01*
X134172000Y-111207470D01*
X134258939Y-111417359D01*
X134405038Y-111636013D01*
X134590987Y-111821962D01*
X134809641Y-111968061D01*
X135052595Y-112068696D01*
X135310514Y-112120000D01*
X135573486Y-112120000D01*
X135831405Y-112068696D01*
X136074359Y-111968061D01*
X136293013Y-111821962D01*
X136478962Y-111636013D01*
X136625061Y-111417359D01*
X136725696Y-111174405D01*
X136777000Y-110916486D01*
X136777000Y-110653514D01*
X136725696Y-110395595D01*
X136625061Y-110152641D01*
X136586462Y-110094872D01*
X203297000Y-110094872D01*
X203297000Y-110535128D01*
X203382890Y-110966925D01*
X203551369Y-111373669D01*
X203795962Y-111739729D01*
X204107271Y-112051038D01*
X204473331Y-112295631D01*
X204880075Y-112464110D01*
X205311872Y-112550000D01*
X205752128Y-112550000D01*
X206183925Y-112464110D01*
X206590669Y-112295631D01*
X206956729Y-112051038D01*
X207268038Y-111739729D01*
X207512631Y-111373669D01*
X207681110Y-110966925D01*
X207767000Y-110535128D01*
X207767000Y-110094872D01*
X207681110Y-109663075D01*
X207512631Y-109256331D01*
X207268038Y-108890271D01*
X206956729Y-108578962D01*
X206590669Y-108334369D01*
X206183925Y-108165890D01*
X205752128Y-108080000D01*
X205311872Y-108080000D01*
X204880075Y-108165890D01*
X204473331Y-108334369D01*
X204107271Y-108578962D01*
X203795962Y-108890271D01*
X203551369Y-109256331D01*
X203382890Y-109663075D01*
X203297000Y-110094872D01*
X136586462Y-110094872D01*
X136478962Y-109933987D01*
X136293013Y-109748038D01*
X136074359Y-109601939D01*
X135864470Y-109515000D01*
X136074359Y-109428061D01*
X136293013Y-109281962D01*
X136478962Y-109096013D01*
X136625061Y-108877359D01*
X136725696Y-108634405D01*
X136777000Y-108376486D01*
X136777000Y-108113514D01*
X136732540Y-107890000D01*
X144312473Y-107890000D01*
X144321528Y-107919850D01*
X144403595Y-108073386D01*
X144514038Y-108207962D01*
X144648614Y-108318405D01*
X144802150Y-108400472D01*
X144968746Y-108451008D01*
X145142000Y-108468072D01*
X146342000Y-108468072D01*
X146515254Y-108451008D01*
X146681850Y-108400472D01*
X146835386Y-108318405D01*
X146969962Y-108207962D01*
X147080405Y-108073386D01*
X147134777Y-107971663D01*
X147186866Y-108035134D01*
X147412987Y-108220706D01*
X147670967Y-108358599D01*
X147950890Y-108443513D01*
X148242000Y-108472185D01*
X148533111Y-108443513D01*
X148813034Y-108358599D01*
X149071014Y-108220706D01*
X149297134Y-108035134D01*
X149482706Y-107809014D01*
X149492000Y-107791626D01*
X149501294Y-107809014D01*
X149686866Y-108035134D01*
X149912987Y-108220706D01*
X150170967Y-108358599D01*
X150450890Y-108443513D01*
X150742000Y-108472185D01*
X151033111Y-108443513D01*
X151313034Y-108358599D01*
X151571014Y-108220706D01*
X151797134Y-108035134D01*
X151982706Y-107809014D01*
X151996462Y-107783278D01*
X152152951Y-107989429D01*
X152370807Y-108182496D01*
X152622142Y-108329352D01*
X152885110Y-108421476D01*
X153115000Y-108300155D01*
X153115000Y-106982000D01*
X153369000Y-106982000D01*
X153369000Y-108300155D01*
X153598890Y-108421476D01*
X153861858Y-108329352D01*
X154113193Y-108182496D01*
X154331049Y-107989429D01*
X154507053Y-107757570D01*
X154634442Y-107495830D01*
X154708320Y-107214267D01*
X154568165Y-106982000D01*
X153369000Y-106982000D01*
X153115000Y-106982000D01*
X153095000Y-106982000D01*
X153095000Y-106728000D01*
X153115000Y-106728000D01*
X153115000Y-105409845D01*
X153369000Y-105409845D01*
X153369000Y-106728000D01*
X154568165Y-106728000D01*
X154708320Y-106495733D01*
X154634442Y-106214170D01*
X154507053Y-105952430D01*
X154331049Y-105720571D01*
X154113193Y-105527504D01*
X153861858Y-105380648D01*
X153598890Y-105288524D01*
X153369000Y-105409845D01*
X153115000Y-105409845D01*
X152885110Y-105288524D01*
X152622142Y-105380648D01*
X152370807Y-105527504D01*
X152152951Y-105720571D01*
X151996462Y-105926722D01*
X151982706Y-105900986D01*
X151797134Y-105674866D01*
X151773162Y-105655193D01*
X151762024Y-105542105D01*
X151702841Y-105347007D01*
X151634955Y-105220000D01*
X151606734Y-105167202D01*
X151509803Y-105049092D01*
X151477396Y-105009604D01*
X151437908Y-104977197D01*
X150935711Y-104475000D01*
X162253928Y-104475000D01*
X162253928Y-106975000D01*
X162266188Y-107099482D01*
X162302498Y-107219180D01*
X162361463Y-107329494D01*
X162440815Y-107426185D01*
X162537506Y-107505537D01*
X162647820Y-107564502D01*
X162767518Y-107600812D01*
X162892000Y-107613072D01*
X165392000Y-107613072D01*
X165516482Y-107600812D01*
X165636180Y-107564502D01*
X165746494Y-107505537D01*
X165843185Y-107426185D01*
X165922537Y-107329494D01*
X165981502Y-107219180D01*
X166017812Y-107099482D01*
X166030072Y-106975000D01*
X166030072Y-105539344D01*
X167337000Y-105539344D01*
X167337000Y-105910656D01*
X167409439Y-106274834D01*
X167551534Y-106617882D01*
X167757825Y-106926618D01*
X168020382Y-107189175D01*
X168329118Y-107395466D01*
X168672166Y-107537561D01*
X169036344Y-107610000D01*
X169407656Y-107610000D01*
X169771834Y-107537561D01*
X170114882Y-107395466D01*
X170423618Y-107189175D01*
X170686175Y-106926618D01*
X170892466Y-106617882D01*
X171034561Y-106274834D01*
X171107000Y-105910656D01*
X171107000Y-105539344D01*
X171034561Y-105175166D01*
X170892466Y-104832118D01*
X170686175Y-104523382D01*
X170637793Y-104475000D01*
X172433928Y-104475000D01*
X172433928Y-106975000D01*
X172446188Y-107099482D01*
X172482498Y-107219180D01*
X172541463Y-107329494D01*
X172620815Y-107426185D01*
X172717506Y-107505537D01*
X172827820Y-107564502D01*
X172947518Y-107600812D01*
X173072000Y-107613072D01*
X175572000Y-107613072D01*
X175696482Y-107600812D01*
X175816180Y-107564502D01*
X175926494Y-107505537D01*
X176023185Y-107426185D01*
X176102537Y-107329494D01*
X176161502Y-107219180D01*
X176197812Y-107099482D01*
X176210072Y-106975000D01*
X176210072Y-105539344D01*
X177517000Y-105539344D01*
X177517000Y-105910656D01*
X177589439Y-106274834D01*
X177731534Y-106617882D01*
X177937825Y-106926618D01*
X178200382Y-107189175D01*
X178509118Y-107395466D01*
X178852166Y-107537561D01*
X179216344Y-107610000D01*
X179587656Y-107610000D01*
X179951834Y-107537561D01*
X180294882Y-107395466D01*
X180603618Y-107189175D01*
X180866175Y-106926618D01*
X181072466Y-106617882D01*
X181214561Y-106274834D01*
X181287000Y-105910656D01*
X181287000Y-105539344D01*
X181214561Y-105175166D01*
X181072466Y-104832118D01*
X180866175Y-104523382D01*
X180817793Y-104475000D01*
X182603928Y-104475000D01*
X182603928Y-106975000D01*
X182616188Y-107099482D01*
X182652498Y-107219180D01*
X182711463Y-107329494D01*
X182790815Y-107426185D01*
X182887506Y-107505537D01*
X182997820Y-107564502D01*
X183117518Y-107600812D01*
X183242000Y-107613072D01*
X185742000Y-107613072D01*
X185866482Y-107600812D01*
X185986180Y-107564502D01*
X186096494Y-107505537D01*
X186193185Y-107426185D01*
X186272537Y-107329494D01*
X186331502Y-107219180D01*
X186367812Y-107099482D01*
X186380072Y-106975000D01*
X186380072Y-105539344D01*
X187687000Y-105539344D01*
X187687000Y-105910656D01*
X187759439Y-106274834D01*
X187901534Y-106617882D01*
X188107825Y-106926618D01*
X188370382Y-107189175D01*
X188679118Y-107395466D01*
X189022166Y-107537561D01*
X189386344Y-107610000D01*
X189757656Y-107610000D01*
X190121834Y-107537561D01*
X190464882Y-107395466D01*
X190773618Y-107189175D01*
X191036175Y-106926618D01*
X191242466Y-106617882D01*
X191384561Y-106274834D01*
X191457000Y-105910656D01*
X191457000Y-105539344D01*
X191384561Y-105175166D01*
X191242466Y-104832118D01*
X191036175Y-104523382D01*
X190987793Y-104475000D01*
X192773928Y-104475000D01*
X192773928Y-106975000D01*
X192786188Y-107099482D01*
X192822498Y-107219180D01*
X192881463Y-107329494D01*
X192960815Y-107426185D01*
X193057506Y-107505537D01*
X193167820Y-107564502D01*
X193287518Y-107600812D01*
X193412000Y-107613072D01*
X195912000Y-107613072D01*
X196036482Y-107600812D01*
X196156180Y-107564502D01*
X196266494Y-107505537D01*
X196363185Y-107426185D01*
X196442537Y-107329494D01*
X196501502Y-107219180D01*
X196537812Y-107099482D01*
X196550072Y-106975000D01*
X196550072Y-105539344D01*
X197857000Y-105539344D01*
X197857000Y-105910656D01*
X197929439Y-106274834D01*
X198071534Y-106617882D01*
X198277825Y-106926618D01*
X198540382Y-107189175D01*
X198849118Y-107395466D01*
X199192166Y-107537561D01*
X199556344Y-107610000D01*
X199927656Y-107610000D01*
X200291834Y-107537561D01*
X200634882Y-107395466D01*
X200943618Y-107189175D01*
X201206175Y-106926618D01*
X201412466Y-106617882D01*
X201554561Y-106274834D01*
X201627000Y-105910656D01*
X201627000Y-105539344D01*
X201554561Y-105175166D01*
X201412466Y-104832118D01*
X201206175Y-104523382D01*
X200943618Y-104260825D01*
X200634882Y-104054534D01*
X200291834Y-103912439D01*
X199927656Y-103840000D01*
X199556344Y-103840000D01*
X199192166Y-103912439D01*
X198849118Y-104054534D01*
X198540382Y-104260825D01*
X198277825Y-104523382D01*
X198071534Y-104832118D01*
X197929439Y-105175166D01*
X197857000Y-105539344D01*
X196550072Y-105539344D01*
X196550072Y-104475000D01*
X196537812Y-104350518D01*
X196501502Y-104230820D01*
X196442537Y-104120506D01*
X196363185Y-104023815D01*
X196266494Y-103944463D01*
X196156180Y-103885498D01*
X196036482Y-103849188D01*
X195912000Y-103836928D01*
X193412000Y-103836928D01*
X193287518Y-103849188D01*
X193167820Y-103885498D01*
X193057506Y-103944463D01*
X192960815Y-104023815D01*
X192881463Y-104120506D01*
X192822498Y-104230820D01*
X192786188Y-104350518D01*
X192773928Y-104475000D01*
X190987793Y-104475000D01*
X190773618Y-104260825D01*
X190464882Y-104054534D01*
X190121834Y-103912439D01*
X189757656Y-103840000D01*
X189386344Y-103840000D01*
X189022166Y-103912439D01*
X188679118Y-104054534D01*
X188370382Y-104260825D01*
X188107825Y-104523382D01*
X187901534Y-104832118D01*
X187759439Y-105175166D01*
X187687000Y-105539344D01*
X186380072Y-105539344D01*
X186380072Y-104475000D01*
X186367812Y-104350518D01*
X186331502Y-104230820D01*
X186272537Y-104120506D01*
X186193185Y-104023815D01*
X186096494Y-103944463D01*
X185986180Y-103885498D01*
X185866482Y-103849188D01*
X185742000Y-103836928D01*
X183242000Y-103836928D01*
X183117518Y-103849188D01*
X182997820Y-103885498D01*
X182887506Y-103944463D01*
X182790815Y-104023815D01*
X182711463Y-104120506D01*
X182652498Y-104230820D01*
X182616188Y-104350518D01*
X182603928Y-104475000D01*
X180817793Y-104475000D01*
X180603618Y-104260825D01*
X180294882Y-104054534D01*
X179951834Y-103912439D01*
X179587656Y-103840000D01*
X179216344Y-103840000D01*
X178852166Y-103912439D01*
X178509118Y-104054534D01*
X178200382Y-104260825D01*
X177937825Y-104523382D01*
X177731534Y-104832118D01*
X177589439Y-105175166D01*
X177517000Y-105539344D01*
X176210072Y-105539344D01*
X176210072Y-104475000D01*
X176197812Y-104350518D01*
X176161502Y-104230820D01*
X176102537Y-104120506D01*
X176023185Y-104023815D01*
X175926494Y-103944463D01*
X175816180Y-103885498D01*
X175696482Y-103849188D01*
X175572000Y-103836928D01*
X173072000Y-103836928D01*
X172947518Y-103849188D01*
X172827820Y-103885498D01*
X172717506Y-103944463D01*
X172620815Y-104023815D01*
X172541463Y-104120506D01*
X172482498Y-104230820D01*
X172446188Y-104350518D01*
X172433928Y-104475000D01*
X170637793Y-104475000D01*
X170423618Y-104260825D01*
X170114882Y-104054534D01*
X169771834Y-103912439D01*
X169407656Y-103840000D01*
X169036344Y-103840000D01*
X168672166Y-103912439D01*
X168329118Y-104054534D01*
X168020382Y-104260825D01*
X167757825Y-104523382D01*
X167551534Y-104832118D01*
X167409439Y-105175166D01*
X167337000Y-105539344D01*
X166030072Y-105539344D01*
X166030072Y-104475000D01*
X166017812Y-104350518D01*
X165981502Y-104230820D01*
X165922537Y-104120506D01*
X165843185Y-104023815D01*
X165746494Y-103944463D01*
X165636180Y-103885498D01*
X165516482Y-103849188D01*
X165392000Y-103836928D01*
X162892000Y-103836928D01*
X162767518Y-103849188D01*
X162647820Y-103885498D01*
X162537506Y-103944463D01*
X162440815Y-104023815D01*
X162361463Y-104120506D01*
X162302498Y-104230820D01*
X162266188Y-104350518D01*
X162253928Y-104475000D01*
X150935711Y-104475000D01*
X149959797Y-103499087D01*
X149927386Y-103459594D01*
X149769787Y-103330256D01*
X149589983Y-103234149D01*
X149394885Y-103174966D01*
X149242828Y-103159990D01*
X149242818Y-103159990D01*
X149191990Y-103154984D01*
X149141162Y-103159990D01*
X133714270Y-103159990D01*
X133634826Y-103152166D01*
X133623939Y-103150000D01*
X133612828Y-103150000D01*
X133562000Y-103144994D01*
X133511172Y-103150000D01*
X133420061Y-103150000D01*
X133369943Y-103159969D01*
X133319105Y-103164976D01*
X133270223Y-103179804D01*
X133220102Y-103189774D01*
X133172887Y-103209331D01*
X133124007Y-103224159D01*
X133078958Y-103248238D01*
X133031744Y-103267795D01*
X132989254Y-103296186D01*
X132944203Y-103320266D01*
X132904716Y-103352672D01*
X132862226Y-103381063D01*
X132826092Y-103417197D01*
X132786604Y-103449604D01*
X132754197Y-103489092D01*
X132718063Y-103525226D01*
X132689672Y-103567716D01*
X132657266Y-103607203D01*
X132633186Y-103652254D01*
X132604795Y-103694744D01*
X132585238Y-103741958D01*
X132561159Y-103787007D01*
X132546331Y-103835887D01*
X132526774Y-103883102D01*
X132516804Y-103933223D01*
X132501976Y-103982105D01*
X132496969Y-104032943D01*
X132487000Y-104083061D01*
X132487000Y-104134162D01*
X132484455Y-104160000D01*
X131510061Y-104160000D01*
X131459943Y-104169969D01*
X131409105Y-104174976D01*
X131360223Y-104189804D01*
X131310102Y-104199774D01*
X131262887Y-104219331D01*
X131214007Y-104234159D01*
X131168958Y-104258238D01*
X131121744Y-104277795D01*
X131079254Y-104306186D01*
X131034203Y-104330266D01*
X130994716Y-104362672D01*
X130952226Y-104391063D01*
X130916092Y-104427197D01*
X130876604Y-104459604D01*
X130844197Y-104499092D01*
X130808063Y-104535226D01*
X130779672Y-104577716D01*
X130747266Y-104617203D01*
X130723186Y-104662254D01*
X130694795Y-104704744D01*
X130675238Y-104751958D01*
X130651159Y-104797007D01*
X130636331Y-104845887D01*
X130616774Y-104893102D01*
X130606804Y-104943223D01*
X130591976Y-104992105D01*
X130586969Y-105042943D01*
X130577000Y-105093061D01*
X130577000Y-105144162D01*
X130571993Y-105195000D01*
X130577000Y-105245838D01*
X130577000Y-105296939D01*
X130586969Y-105347057D01*
X130591976Y-105397895D01*
X130606804Y-105446777D01*
X130616774Y-105496898D01*
X130636331Y-105544113D01*
X130651159Y-105592993D01*
X130675238Y-105638042D01*
X130694795Y-105685256D01*
X130723186Y-105727746D01*
X130747266Y-105772797D01*
X130779672Y-105812284D01*
X130784828Y-105820000D01*
X128342827Y-105820000D01*
X128291999Y-105814994D01*
X128241171Y-105820000D01*
X128241162Y-105820000D01*
X128089105Y-105834976D01*
X127894007Y-105894159D01*
X127770580Y-105960132D01*
X132305712Y-101425000D01*
X152333928Y-101425000D01*
X152346188Y-101549482D01*
X152382498Y-101669180D01*
X152441463Y-101779494D01*
X152520815Y-101876185D01*
X152617506Y-101955537D01*
X152727820Y-102014502D01*
X152847518Y-102050812D01*
X152972000Y-102063072D01*
X153536250Y-102060000D01*
X153695000Y-101901250D01*
X153695000Y-100702000D01*
X152495750Y-100702000D01*
X152337000Y-100860750D01*
X152333928Y-101425000D01*
X132305712Y-101425000D01*
X134005712Y-99725000D01*
X152333928Y-99725000D01*
X152337000Y-100289250D01*
X152495750Y-100448000D01*
X153695000Y-100448000D01*
X153695000Y-99248750D01*
X153949000Y-99248750D01*
X153949000Y-100448000D01*
X153969000Y-100448000D01*
X153969000Y-100702000D01*
X153949000Y-100702000D01*
X153949000Y-101901250D01*
X154107750Y-102060000D01*
X154672000Y-102063072D01*
X154796482Y-102050812D01*
X154916180Y-102014502D01*
X155026494Y-101955537D01*
X155092000Y-101901778D01*
X155157506Y-101955537D01*
X155267820Y-102014502D01*
X155387518Y-102050812D01*
X155512000Y-102063072D01*
X157212000Y-102063072D01*
X157336482Y-102050812D01*
X157456180Y-102014502D01*
X157566494Y-101955537D01*
X157663185Y-101876185D01*
X157742537Y-101779494D01*
X157801502Y-101669180D01*
X157837812Y-101549482D01*
X157850072Y-101425000D01*
X157850072Y-99725000D01*
X157837812Y-99600518D01*
X157801502Y-99480820D01*
X157742537Y-99370506D01*
X157663185Y-99273815D01*
X157566494Y-99194463D01*
X157456180Y-99135498D01*
X157336482Y-99099188D01*
X157212000Y-99086928D01*
X155512000Y-99086928D01*
X155387518Y-99099188D01*
X155267820Y-99135498D01*
X155157506Y-99194463D01*
X155092000Y-99248222D01*
X155026494Y-99194463D01*
X154916180Y-99135498D01*
X154796482Y-99099188D01*
X154672000Y-99086928D01*
X154107750Y-99090000D01*
X153949000Y-99248750D01*
X153695000Y-99248750D01*
X153536250Y-99090000D01*
X152972000Y-99086928D01*
X152847518Y-99099188D01*
X152727820Y-99135498D01*
X152617506Y-99194463D01*
X152520815Y-99273815D01*
X152441463Y-99370506D01*
X152382498Y-99480820D01*
X152346188Y-99600518D01*
X152333928Y-99725000D01*
X134005712Y-99725000D01*
X137670713Y-96060000D01*
X157141172Y-96060000D01*
X157192000Y-96065006D01*
X157242828Y-96060000D01*
X157242838Y-96060000D01*
X157394895Y-96045024D01*
X157589993Y-95985841D01*
X157769797Y-95889734D01*
X157927396Y-95760396D01*
X157959807Y-95720903D01*
X159234344Y-94446367D01*
X159235236Y-94448036D01*
X159254795Y-94495256D01*
X159283187Y-94537748D01*
X159307266Y-94582797D01*
X159339671Y-94622283D01*
X159368063Y-94664774D01*
X159414217Y-94710928D01*
X159446624Y-94750416D01*
X159486112Y-94782823D01*
X159512226Y-94808937D01*
X159542933Y-94829455D01*
X159604223Y-94879754D01*
X159674149Y-94917130D01*
X159681744Y-94922205D01*
X159690184Y-94925701D01*
X159784027Y-94975861D01*
X159979125Y-95035044D01*
X160131182Y-95050020D01*
X160131191Y-95050020D01*
X160175873Y-95054421D01*
X160177000Y-95065868D01*
X160177000Y-95116969D01*
X160186969Y-95167087D01*
X160191976Y-95217925D01*
X160206804Y-95266807D01*
X160216774Y-95316928D01*
X160236331Y-95364143D01*
X160251159Y-95413023D01*
X160275238Y-95458072D01*
X160294795Y-95505286D01*
X160323186Y-95547776D01*
X160347266Y-95592827D01*
X160379672Y-95632314D01*
X160408063Y-95674804D01*
X160444197Y-95710938D01*
X160476604Y-95750426D01*
X160516092Y-95782833D01*
X160552226Y-95818967D01*
X160594716Y-95847358D01*
X160634203Y-95879764D01*
X160679254Y-95903844D01*
X160721744Y-95932235D01*
X160768958Y-95951792D01*
X160814007Y-95975871D01*
X160862887Y-95990699D01*
X160910102Y-96010256D01*
X160960223Y-96020226D01*
X161009105Y-96035054D01*
X161059943Y-96040061D01*
X161110061Y-96050030D01*
X192981142Y-96050030D01*
X193031970Y-96055036D01*
X193082798Y-96050030D01*
X193082808Y-96050030D01*
X193234865Y-96035054D01*
X193429963Y-95975871D01*
X193609767Y-95879764D01*
X193767366Y-95750426D01*
X193799777Y-95710933D01*
X196919803Y-92590908D01*
X196955937Y-92554774D01*
X196984325Y-92512288D01*
X197016734Y-92472798D01*
X197040816Y-92427744D01*
X197069205Y-92385256D01*
X197088762Y-92338041D01*
X197112840Y-92292994D01*
X197127666Y-92244120D01*
X197147226Y-92196898D01*
X197157197Y-92146768D01*
X197172023Y-92097895D01*
X197177030Y-92047064D01*
X197187000Y-91996939D01*
X197187000Y-91945835D01*
X197192007Y-91895000D01*
X197187000Y-91844165D01*
X197187000Y-91793061D01*
X197177030Y-91742936D01*
X197172023Y-91692105D01*
X197157197Y-91643232D01*
X197147226Y-91593102D01*
X197127665Y-91545878D01*
X197112840Y-91497007D01*
X197088764Y-91451964D01*
X197069205Y-91404744D01*
X197040813Y-91362252D01*
X197016734Y-91317203D01*
X196984328Y-91277716D01*
X196955937Y-91235226D01*
X196919803Y-91199092D01*
X196887396Y-91159604D01*
X196847908Y-91127197D01*
X196811774Y-91091063D01*
X196769284Y-91062672D01*
X196729797Y-91030266D01*
X196684748Y-91006187D01*
X196642256Y-90977795D01*
X196595036Y-90958236D01*
X196549993Y-90934160D01*
X196501122Y-90919335D01*
X196453898Y-90899774D01*
X196403768Y-90889803D01*
X196354895Y-90874977D01*
X196304064Y-90869970D01*
X196253939Y-90860000D01*
X196202835Y-90860000D01*
X196152000Y-90854993D01*
X196101165Y-90860000D01*
X196050061Y-90860000D01*
X195999936Y-90869970D01*
X195949105Y-90874977D01*
X195900232Y-90889803D01*
X195850102Y-90899774D01*
X195802880Y-90919334D01*
X195754006Y-90934160D01*
X195708959Y-90958238D01*
X195661744Y-90977795D01*
X195619256Y-91006184D01*
X195574202Y-91030266D01*
X195534712Y-91062675D01*
X195492226Y-91091063D01*
X195456092Y-91127197D01*
X192603260Y-93980030D01*
X185260680Y-93980030D01*
X186674803Y-92565908D01*
X186710937Y-92529774D01*
X186739325Y-92487288D01*
X186771734Y-92447798D01*
X186795816Y-92402744D01*
X186824205Y-92360256D01*
X186843762Y-92313041D01*
X186867840Y-92267994D01*
X186882666Y-92219119D01*
X186902226Y-92171898D01*
X186912197Y-92121771D01*
X186927023Y-92072896D01*
X186932029Y-92022066D01*
X186942000Y-91971939D01*
X186942000Y-91920829D01*
X186947006Y-91870001D01*
X186942000Y-91819173D01*
X186942000Y-91768061D01*
X186932029Y-91717932D01*
X186927023Y-91667106D01*
X186912198Y-91618234D01*
X186902226Y-91568102D01*
X186882665Y-91520877D01*
X186867840Y-91472007D01*
X186843764Y-91426964D01*
X186824205Y-91379744D01*
X186795813Y-91337252D01*
X186771734Y-91292203D01*
X186739330Y-91252719D01*
X186710937Y-91210226D01*
X186674795Y-91174084D01*
X186642395Y-91134605D01*
X186602916Y-91102205D01*
X186566774Y-91066063D01*
X186524281Y-91037670D01*
X186484797Y-91005266D01*
X186439748Y-90981187D01*
X186397256Y-90952795D01*
X186350036Y-90933236D01*
X186304993Y-90909160D01*
X186256123Y-90894335D01*
X186208898Y-90874774D01*
X186158766Y-90864802D01*
X186109894Y-90849977D01*
X186059068Y-90844971D01*
X186008939Y-90835000D01*
X185957827Y-90835000D01*
X185906999Y-90829994D01*
X185856171Y-90835000D01*
X185805061Y-90835000D01*
X185754934Y-90844971D01*
X185704104Y-90849977D01*
X185655229Y-90864803D01*
X185605102Y-90874774D01*
X185557881Y-90894334D01*
X185509006Y-90909160D01*
X185463959Y-90933238D01*
X185416744Y-90952795D01*
X185374256Y-90981184D01*
X185329202Y-91005266D01*
X185289712Y-91037675D01*
X185247226Y-91066063D01*
X185211092Y-91102197D01*
X183333270Y-92980020D01*
X176160691Y-92980020D01*
X176600937Y-92539774D01*
X176629325Y-92497288D01*
X176661734Y-92457798D01*
X176685817Y-92412742D01*
X176714205Y-92370256D01*
X176733760Y-92323047D01*
X176757841Y-92277994D01*
X176772669Y-92229113D01*
X176792226Y-92181898D01*
X176802197Y-92131771D01*
X176817023Y-92082895D01*
X176822030Y-92032064D01*
X176832000Y-91981939D01*
X176832000Y-91930835D01*
X176837007Y-91880000D01*
X176832000Y-91829165D01*
X176832000Y-91778061D01*
X176822030Y-91727936D01*
X176817023Y-91677105D01*
X176802197Y-91628230D01*
X176792226Y-91578102D01*
X176772668Y-91530885D01*
X176757841Y-91482007D01*
X176733762Y-91436958D01*
X176714205Y-91389744D01*
X176685814Y-91347254D01*
X176661734Y-91302203D01*
X176629328Y-91262716D01*
X176600937Y-91220226D01*
X176564803Y-91184092D01*
X176532396Y-91144604D01*
X176492908Y-91112197D01*
X176456774Y-91076063D01*
X176414284Y-91047672D01*
X176374797Y-91015266D01*
X176329746Y-90991186D01*
X176287256Y-90962795D01*
X176240042Y-90943238D01*
X176194993Y-90919159D01*
X176146115Y-90904332D01*
X176098898Y-90884774D01*
X176048770Y-90874803D01*
X175999895Y-90859977D01*
X175949064Y-90854970D01*
X175898939Y-90845000D01*
X175847835Y-90845000D01*
X175797000Y-90839993D01*
X175746165Y-90845000D01*
X175695061Y-90845000D01*
X175644936Y-90854970D01*
X175594105Y-90859977D01*
X175545229Y-90874803D01*
X175495102Y-90884774D01*
X175447887Y-90904331D01*
X175399006Y-90919159D01*
X175353953Y-90943240D01*
X175306744Y-90962795D01*
X175264258Y-90991183D01*
X175219202Y-91015266D01*
X175179712Y-91047675D01*
X175137226Y-91076063D01*
X175101092Y-91112197D01*
X174233280Y-91980010D01*
X166608561Y-91980010D01*
X166607000Y-91964162D01*
X166607000Y-91913061D01*
X166597031Y-91862943D01*
X166592024Y-91812105D01*
X166577196Y-91763223D01*
X166567226Y-91713102D01*
X166547669Y-91665887D01*
X166532841Y-91617007D01*
X166508762Y-91571958D01*
X166489205Y-91524744D01*
X166460814Y-91482254D01*
X166436734Y-91437203D01*
X166404328Y-91397716D01*
X166375937Y-91355226D01*
X166339803Y-91319092D01*
X166307396Y-91279604D01*
X166267908Y-91247197D01*
X166231774Y-91211063D01*
X166189284Y-91182672D01*
X166149797Y-91150266D01*
X166104746Y-91126186D01*
X166062256Y-91097795D01*
X166015042Y-91078238D01*
X165969993Y-91054159D01*
X165921113Y-91039331D01*
X165873898Y-91019774D01*
X165823777Y-91009804D01*
X165774895Y-90994976D01*
X165724057Y-90989969D01*
X165673939Y-90980000D01*
X162200711Y-90980000D01*
X160805950Y-89585240D01*
X160805948Y-89585237D01*
X160661785Y-89441074D01*
X160619294Y-89412682D01*
X160579808Y-89380277D01*
X160534759Y-89356198D01*
X160492267Y-89327806D01*
X160445047Y-89308247D01*
X160400004Y-89284171D01*
X160351133Y-89269346D01*
X160303909Y-89249785D01*
X160253779Y-89239814D01*
X160204906Y-89224988D01*
X160154078Y-89219982D01*
X160103950Y-89210011D01*
X160052839Y-89210011D01*
X160002011Y-89205005D01*
X159951183Y-89210011D01*
X159900072Y-89210011D01*
X159849944Y-89219982D01*
X159799116Y-89224988D01*
X159750243Y-89239814D01*
X159700113Y-89249785D01*
X159652889Y-89269346D01*
X159604018Y-89284171D01*
X159558975Y-89308247D01*
X159511755Y-89327806D01*
X159469263Y-89356198D01*
X159424214Y-89380277D01*
X159384727Y-89412683D01*
X159342237Y-89441074D01*
X159306103Y-89477208D01*
X159266615Y-89509615D01*
X159234208Y-89549103D01*
X159198074Y-89585237D01*
X159169683Y-89627727D01*
X159137277Y-89667214D01*
X159113198Y-89712263D01*
X159084806Y-89754755D01*
X159065247Y-89801975D01*
X159041171Y-89847018D01*
X159026346Y-89895889D01*
X159006785Y-89943113D01*
X158996814Y-89993243D01*
X158981988Y-90042116D01*
X158976982Y-90092944D01*
X158967011Y-90143072D01*
X158967011Y-90194183D01*
X158962005Y-90245011D01*
X158967011Y-90295839D01*
X158967011Y-90346950D01*
X158976982Y-90397078D01*
X158981988Y-90447906D01*
X158996814Y-90496779D01*
X159006785Y-90546909D01*
X159026346Y-90594133D01*
X159041171Y-90643004D01*
X159065247Y-90688047D01*
X159084806Y-90735267D01*
X159113198Y-90777759D01*
X159137277Y-90822808D01*
X159169682Y-90862294D01*
X159198074Y-90904785D01*
X159342237Y-91048948D01*
X159342240Y-91048950D01*
X160263288Y-91969999D01*
X159262836Y-91969999D01*
X159212001Y-91964992D01*
X159161166Y-91969999D01*
X159161163Y-91969999D01*
X159009106Y-91984975D01*
X158814008Y-92044158D01*
X158760243Y-92072896D01*
X158634203Y-92140265D01*
X158539611Y-92217895D01*
X158476605Y-92269603D01*
X158444198Y-92309091D01*
X157860072Y-92893217D01*
X157860072Y-92305000D01*
X157847812Y-92180518D01*
X157811502Y-92060820D01*
X157752537Y-91950506D01*
X157673185Y-91853815D01*
X157576494Y-91774463D01*
X157466180Y-91715498D01*
X157346482Y-91679188D01*
X157222000Y-91666928D01*
X155522000Y-91666928D01*
X155397518Y-91679188D01*
X155277820Y-91715498D01*
X155167506Y-91774463D01*
X155102000Y-91828222D01*
X155036494Y-91774463D01*
X154926180Y-91715498D01*
X154806482Y-91679188D01*
X154682000Y-91666928D01*
X154221274Y-91669436D01*
X155027908Y-90862803D01*
X155067396Y-90830396D01*
X155099803Y-90790908D01*
X155196734Y-90672798D01*
X155292840Y-90492994D01*
X155292841Y-90492993D01*
X155352024Y-90297895D01*
X155367000Y-90145838D01*
X155367000Y-90145829D01*
X155372006Y-90095001D01*
X155367000Y-90044173D01*
X155367000Y-87482308D01*
X208335992Y-87501403D01*
X208336999Y-110241506D01*
X208279100Y-110832009D01*
X208117335Y-111367800D01*
X207854580Y-111861972D01*
X207500847Y-112295690D01*
X207069606Y-112652444D01*
X206577281Y-112918642D01*
X206042638Y-113084142D01*
X205454130Y-113145996D01*
X110948800Y-113111351D01*
X110944233Y-111706269D01*
X111840336Y-111706269D01*
X111899797Y-111940037D01*
X112138242Y-112050934D01*
X112393740Y-112113183D01*
X112656473Y-112124390D01*
X112916344Y-112084125D01*
X113163366Y-111993935D01*
X113264203Y-111940037D01*
X113323664Y-111706269D01*
X112582000Y-110964605D01*
X111840336Y-111706269D01*
X110944233Y-111706269D01*
X110941480Y-110859473D01*
X111242610Y-110859473D01*
X111282875Y-111119344D01*
X111373065Y-111366366D01*
X111426963Y-111467203D01*
X111660731Y-111526664D01*
X112402395Y-110785000D01*
X111660731Y-110043336D01*
X111426963Y-110102797D01*
X111316066Y-110341242D01*
X111253817Y-110596740D01*
X111242610Y-110859473D01*
X110941480Y-110859473D01*
X110850658Y-82919473D01*
X111242610Y-82919473D01*
X111282875Y-83179344D01*
X111373065Y-83426366D01*
X111426963Y-83527203D01*
X111660731Y-83586664D01*
X112402395Y-82845000D01*
X111660731Y-82103336D01*
X111426963Y-82162797D01*
X111316066Y-82401242D01*
X111253817Y-82656740D01*
X111242610Y-82919473D01*
X110850658Y-82919473D01*
X110847421Y-81923731D01*
X111840336Y-81923731D01*
X112582000Y-82665395D01*
X113323664Y-81923731D01*
X113264203Y-81689963D01*
X113025758Y-81579066D01*
X112770260Y-81516817D01*
X112507527Y-81505610D01*
X112247656Y-81545875D01*
X112000634Y-81636065D01*
X111899797Y-81689963D01*
X111840336Y-81923731D01*
X110847421Y-81923731D01*
X110840249Y-79717615D01*
X110837823Y-79693319D01*
X110830609Y-79669491D01*
X110818885Y-79647528D01*
X110803101Y-79628274D01*
X110783865Y-79612470D01*
X110761915Y-79600722D01*
X110738094Y-79593482D01*
X110713319Y-79591028D01*
X102214391Y-79586400D01*
X102215007Y-74011000D01*
X113321328Y-74011000D01*
X113333588Y-74135482D01*
X113369898Y-74255180D01*
X113428863Y-74365494D01*
X113508215Y-74462185D01*
X113604906Y-74541537D01*
X113715220Y-74600502D01*
X113834918Y-74636812D01*
X113959400Y-74649072D01*
X114423650Y-74646000D01*
X114582400Y-74487250D01*
X114582400Y-73613000D01*
X114836400Y-73613000D01*
X114836400Y-74487250D01*
X114995150Y-74646000D01*
X115459400Y-74649072D01*
X115583882Y-74636812D01*
X115703580Y-74600502D01*
X115813894Y-74541537D01*
X115910585Y-74462185D01*
X115989937Y-74365494D01*
X116048902Y-74255180D01*
X116085212Y-74135482D01*
X116097472Y-74011000D01*
X116094400Y-73771750D01*
X115935650Y-73613000D01*
X114836400Y-73613000D01*
X114582400Y-73613000D01*
X113483150Y-73613000D01*
X113324400Y-73771750D01*
X113321328Y-74011000D01*
X102215007Y-74011000D01*
X102215058Y-73545000D01*
X120663928Y-73545000D01*
X120663928Y-75245000D01*
X120676188Y-75369482D01*
X120712498Y-75489180D01*
X120771463Y-75599494D01*
X120850815Y-75696185D01*
X120947506Y-75775537D01*
X121057820Y-75834502D01*
X121177518Y-75870812D01*
X121302000Y-75883072D01*
X123002000Y-75883072D01*
X123126482Y-75870812D01*
X123246180Y-75834502D01*
X123356494Y-75775537D01*
X123453185Y-75696185D01*
X123532537Y-75599494D01*
X123591502Y-75489180D01*
X123627812Y-75369482D01*
X123640072Y-75245000D01*
X123640072Y-73545000D01*
X123627812Y-73420518D01*
X123591502Y-73300820D01*
X123532537Y-73190506D01*
X123453185Y-73093815D01*
X123356494Y-73014463D01*
X123246180Y-72955498D01*
X123126482Y-72919188D01*
X123002000Y-72906928D01*
X121302000Y-72906928D01*
X121177518Y-72919188D01*
X121057820Y-72955498D01*
X120947506Y-73014463D01*
X120850815Y-73093815D01*
X120771463Y-73190506D01*
X120712498Y-73300820D01*
X120676188Y-73420518D01*
X120663928Y-73545000D01*
X102215058Y-73545000D01*
X102215346Y-70946000D01*
X113318788Y-70946000D01*
X113341185Y-71173400D01*
X113407515Y-71392060D01*
X113508505Y-71581000D01*
X113407515Y-71769940D01*
X113341185Y-71988600D01*
X113318788Y-72216000D01*
X113341185Y-72443400D01*
X113404493Y-72652098D01*
X113369898Y-72716820D01*
X113333588Y-72836518D01*
X113321328Y-72961000D01*
X113324400Y-73200250D01*
X113483150Y-73359000D01*
X114256291Y-73359000D01*
X114257000Y-73359215D01*
X114427421Y-73376000D01*
X114991379Y-73376000D01*
X115161800Y-73359215D01*
X115162509Y-73359000D01*
X115935650Y-73359000D01*
X116094400Y-73200250D01*
X116097472Y-72961000D01*
X116085212Y-72836518D01*
X116066950Y-72776314D01*
X138242500Y-72776314D01*
X138242500Y-73027285D01*
X138265470Y-73260503D01*
X138356245Y-73559748D01*
X138503655Y-73835534D01*
X138702037Y-74077263D01*
X138943765Y-74275645D01*
X139219551Y-74423055D01*
X139518796Y-74513830D01*
X139830000Y-74544481D01*
X140141203Y-74513830D01*
X140440448Y-74423055D01*
X140716234Y-74275645D01*
X140957963Y-74077263D01*
X141105163Y-73897901D01*
X141260563Y-74083115D01*
X141503077Y-74277769D01*
X141778906Y-74421371D01*
X141997020Y-74492363D01*
X142243000Y-74372394D01*
X142243000Y-73028800D01*
X142223000Y-73028800D01*
X142223000Y-72774800D01*
X142243000Y-72774800D01*
X142243000Y-71431206D01*
X142497000Y-71431206D01*
X142497000Y-72774800D01*
X142517000Y-72774800D01*
X142517000Y-73028800D01*
X142497000Y-73028800D01*
X142497000Y-74372394D01*
X142742980Y-74492363D01*
X142961094Y-74421371D01*
X143236923Y-74277769D01*
X143377941Y-74164581D01*
X143426963Y-74256294D01*
X143506315Y-74352985D01*
X143603006Y-74432337D01*
X143713320Y-74491302D01*
X143833018Y-74527612D01*
X143957500Y-74539872D01*
X145862500Y-74539872D01*
X145986982Y-74527612D01*
X146106680Y-74491302D01*
X146216994Y-74432337D01*
X146313685Y-74352985D01*
X146393037Y-74256294D01*
X146452002Y-74145980D01*
X146488312Y-74026282D01*
X146500572Y-73901800D01*
X146500572Y-71901800D01*
X146488312Y-71777318D01*
X146452002Y-71657620D01*
X146393037Y-71547306D01*
X146313685Y-71450615D01*
X146216994Y-71371263D01*
X146106680Y-71312298D01*
X145986982Y-71275988D01*
X145862500Y-71263728D01*
X143957500Y-71263728D01*
X143833018Y-71275988D01*
X143713320Y-71312298D01*
X143603006Y-71371263D01*
X143506315Y-71450615D01*
X143426963Y-71547306D01*
X143377941Y-71639019D01*
X143236923Y-71525831D01*
X142961094Y-71382229D01*
X142742980Y-71311237D01*
X142497000Y-71431206D01*
X142243000Y-71431206D01*
X141997020Y-71311237D01*
X141778906Y-71382229D01*
X141503077Y-71525831D01*
X141260563Y-71720485D01*
X141105162Y-71905700D01*
X140957963Y-71726337D01*
X140716235Y-71527955D01*
X140440449Y-71380545D01*
X140141204Y-71289770D01*
X139830000Y-71259119D01*
X139518797Y-71289770D01*
X139219552Y-71380545D01*
X138943766Y-71527955D01*
X138702037Y-71726337D01*
X138503655Y-71968065D01*
X138356245Y-72243851D01*
X138265470Y-72543096D01*
X138242500Y-72776314D01*
X116066950Y-72776314D01*
X116048902Y-72716820D01*
X116014307Y-72652098D01*
X116077615Y-72443400D01*
X116100012Y-72216000D01*
X116077615Y-71988600D01*
X116011285Y-71769940D01*
X115910295Y-71581000D01*
X116011285Y-71392060D01*
X116077615Y-71173400D01*
X116100012Y-70946000D01*
X116077615Y-70718600D01*
X116011285Y-70499940D01*
X115903571Y-70298421D01*
X115758612Y-70121788D01*
X115581979Y-69976829D01*
X115380460Y-69869115D01*
X115161800Y-69802785D01*
X114991379Y-69786000D01*
X114427421Y-69786000D01*
X114257000Y-69802785D01*
X114038340Y-69869115D01*
X113836821Y-69976829D01*
X113660188Y-70121788D01*
X113515229Y-70298421D01*
X113407515Y-70499940D01*
X113341185Y-70718600D01*
X113318788Y-70946000D01*
X102215346Y-70946000D01*
X102216222Y-63024419D01*
X107867000Y-63024419D01*
X107867000Y-63405581D01*
X107941361Y-63779419D01*
X108087225Y-64131566D01*
X108298987Y-64448491D01*
X108568509Y-64718013D01*
X108885434Y-64929775D01*
X109237581Y-65075639D01*
X109611419Y-65150000D01*
X109992581Y-65150000D01*
X110366419Y-65075639D01*
X110718566Y-64929775D01*
X111035491Y-64718013D01*
X111305013Y-64448491D01*
X111516775Y-64131566D01*
X111662639Y-63779419D01*
X111737000Y-63405581D01*
X111737000Y-63024419D01*
X111662639Y-62650581D01*
X111516775Y-62298434D01*
X111305013Y-61981509D01*
X111035491Y-61711987D01*
X110718566Y-61500225D01*
X110366419Y-61354361D01*
X109992581Y-61280000D01*
X109611419Y-61280000D01*
X109237581Y-61354361D01*
X108885434Y-61500225D01*
X108568509Y-61711987D01*
X108298987Y-61981509D01*
X108087225Y-62298434D01*
X107941361Y-62650581D01*
X107867000Y-63024419D01*
X102216222Y-63024419D01*
X102216611Y-59515000D01*
X107863928Y-59515000D01*
X107876188Y-59639482D01*
X107912498Y-59759180D01*
X107971463Y-59869494D01*
X108050815Y-59966185D01*
X108147506Y-60045537D01*
X108257820Y-60104502D01*
X108377518Y-60140812D01*
X108502000Y-60153072D01*
X109516250Y-60150000D01*
X109675000Y-59991250D01*
X109675000Y-58342000D01*
X109929000Y-58342000D01*
X109929000Y-59991250D01*
X110087750Y-60150000D01*
X111102000Y-60153072D01*
X111226482Y-60140812D01*
X111346180Y-60104502D01*
X111456494Y-60045537D01*
X111553185Y-59966185D01*
X111556684Y-59961921D01*
X114866400Y-59961921D01*
X114866400Y-60382479D01*
X114948447Y-60794956D01*
X115109388Y-61183502D01*
X115343037Y-61533183D01*
X115640417Y-61830563D01*
X115990098Y-62064212D01*
X116378644Y-62225153D01*
X116791121Y-62307200D01*
X117211679Y-62307200D01*
X117624156Y-62225153D01*
X118012702Y-62064212D01*
X118362383Y-61830563D01*
X118659763Y-61533183D01*
X118893412Y-61183502D01*
X119054353Y-60794956D01*
X119136400Y-60382479D01*
X119136400Y-59961921D01*
X137466400Y-59961921D01*
X137466400Y-60382479D01*
X137548447Y-60794956D01*
X137709388Y-61183502D01*
X137943037Y-61533183D01*
X138240417Y-61830563D01*
X138590098Y-62064212D01*
X138978644Y-62225153D01*
X139391121Y-62307200D01*
X139811679Y-62307200D01*
X140224156Y-62225153D01*
X140612702Y-62064212D01*
X140962383Y-61830563D01*
X141068300Y-61724646D01*
X141068300Y-62900724D01*
X141050594Y-63080500D01*
X141070577Y-63283395D01*
X141129760Y-63478493D01*
X141225866Y-63658297D01*
X141280949Y-63725415D01*
X141299363Y-63752974D01*
X141335497Y-63789108D01*
X141367904Y-63828596D01*
X141407392Y-63861003D01*
X141443526Y-63897137D01*
X141486016Y-63925528D01*
X141525503Y-63957934D01*
X141570554Y-63982014D01*
X141613044Y-64010405D01*
X141660258Y-64029962D01*
X141705307Y-64054041D01*
X141754187Y-64068869D01*
X141801402Y-64088426D01*
X141851523Y-64098396D01*
X141900405Y-64113224D01*
X141951243Y-64118231D01*
X142001361Y-64128200D01*
X142052462Y-64128200D01*
X142103300Y-64133207D01*
X142154138Y-64128200D01*
X142205239Y-64128200D01*
X142255358Y-64118231D01*
X142306194Y-64113224D01*
X142355074Y-64098396D01*
X142405198Y-64088426D01*
X142452415Y-64068868D01*
X142501293Y-64054041D01*
X142546342Y-64029962D01*
X142593556Y-64010405D01*
X142636046Y-63982014D01*
X142681097Y-63957934D01*
X142720584Y-63925528D01*
X142763074Y-63897137D01*
X142799208Y-63861003D01*
X142819069Y-63844703D01*
X142850355Y-63903235D01*
X143048737Y-64144963D01*
X143290465Y-64343345D01*
X143566251Y-64490755D01*
X143865496Y-64581530D01*
X144098714Y-64604500D01*
X144349686Y-64604500D01*
X144582904Y-64581530D01*
X144882149Y-64490755D01*
X145157935Y-64343345D01*
X145399663Y-64144963D01*
X145598045Y-63903235D01*
X145745455Y-63627449D01*
X145836230Y-63328204D01*
X145866881Y-63017000D01*
X145836230Y-62705796D01*
X145745455Y-62406551D01*
X145598045Y-62130765D01*
X145399663Y-61889037D01*
X145226591Y-61747000D01*
X145399663Y-61604963D01*
X145598045Y-61363235D01*
X145745455Y-61087449D01*
X145836230Y-60788204D01*
X145864483Y-60501344D01*
X162107000Y-60501344D01*
X162107000Y-60872656D01*
X162179439Y-61236834D01*
X162321534Y-61579882D01*
X162527825Y-61888618D01*
X162790382Y-62151175D01*
X163099118Y-62357466D01*
X163442166Y-62499561D01*
X163806344Y-62572000D01*
X164177656Y-62572000D01*
X164541834Y-62499561D01*
X164884882Y-62357466D01*
X165193618Y-62151175D01*
X165456175Y-61888618D01*
X165662466Y-61579882D01*
X165804561Y-61236834D01*
X165877000Y-60872656D01*
X165877000Y-60501344D01*
X165804561Y-60137166D01*
X165662466Y-59794118D01*
X165456175Y-59485382D01*
X165407793Y-59437000D01*
X167183928Y-59437000D01*
X167183928Y-61937000D01*
X167196188Y-62061482D01*
X167232498Y-62181180D01*
X167291463Y-62291494D01*
X167370815Y-62388185D01*
X167467506Y-62467537D01*
X167577820Y-62526502D01*
X167697518Y-62562812D01*
X167822000Y-62575072D01*
X170322000Y-62575072D01*
X170446482Y-62562812D01*
X170566180Y-62526502D01*
X170676494Y-62467537D01*
X170773185Y-62388185D01*
X170852537Y-62291494D01*
X170911502Y-62181180D01*
X170947812Y-62061482D01*
X170960072Y-61937000D01*
X170960072Y-60499344D01*
X172257000Y-60499344D01*
X172257000Y-60870656D01*
X172329439Y-61234834D01*
X172471534Y-61577882D01*
X172677825Y-61886618D01*
X172940382Y-62149175D01*
X173249118Y-62355466D01*
X173592166Y-62497561D01*
X173956344Y-62570000D01*
X174327656Y-62570000D01*
X174691834Y-62497561D01*
X175034882Y-62355466D01*
X175343618Y-62149175D01*
X175606175Y-61886618D01*
X175812466Y-61577882D01*
X175954561Y-61234834D01*
X176027000Y-60870656D01*
X176027000Y-60499344D01*
X175954561Y-60135166D01*
X175812466Y-59792118D01*
X175606175Y-59483382D01*
X175557793Y-59435000D01*
X177333928Y-59435000D01*
X177333928Y-61935000D01*
X177346188Y-62059482D01*
X177382498Y-62179180D01*
X177441463Y-62289494D01*
X177520815Y-62386185D01*
X177617506Y-62465537D01*
X177727820Y-62524502D01*
X177847518Y-62560812D01*
X177972000Y-62573072D01*
X180472000Y-62573072D01*
X180596482Y-62560812D01*
X180716180Y-62524502D01*
X180826494Y-62465537D01*
X180923185Y-62386185D01*
X181002537Y-62289494D01*
X181061502Y-62179180D01*
X181097812Y-62059482D01*
X181110072Y-61935000D01*
X181110072Y-60489344D01*
X182407000Y-60489344D01*
X182407000Y-60860656D01*
X182479439Y-61224834D01*
X182621534Y-61567882D01*
X182827825Y-61876618D01*
X183090382Y-62139175D01*
X183399118Y-62345466D01*
X183742166Y-62487561D01*
X184106344Y-62560000D01*
X184477656Y-62560000D01*
X184841834Y-62487561D01*
X185184882Y-62345466D01*
X185493618Y-62139175D01*
X185756175Y-61876618D01*
X185962466Y-61567882D01*
X186104561Y-61224834D01*
X186177000Y-60860656D01*
X186177000Y-60489344D01*
X186104561Y-60125166D01*
X185962466Y-59782118D01*
X185756175Y-59473382D01*
X185707793Y-59425000D01*
X187483928Y-59425000D01*
X187483928Y-61925000D01*
X187496188Y-62049482D01*
X187532498Y-62169180D01*
X187591463Y-62279494D01*
X187670815Y-62376185D01*
X187767506Y-62455537D01*
X187877820Y-62514502D01*
X187997518Y-62550812D01*
X188122000Y-62563072D01*
X190622000Y-62563072D01*
X190746482Y-62550812D01*
X190866180Y-62514502D01*
X190976494Y-62455537D01*
X191073185Y-62376185D01*
X191152537Y-62279494D01*
X191211502Y-62169180D01*
X191247812Y-62049482D01*
X191260072Y-61925000D01*
X191260072Y-60479344D01*
X192557000Y-60479344D01*
X192557000Y-60850656D01*
X192629439Y-61214834D01*
X192771534Y-61557882D01*
X192977825Y-61866618D01*
X193240382Y-62129175D01*
X193549118Y-62335466D01*
X193892166Y-62477561D01*
X194256344Y-62550000D01*
X194627656Y-62550000D01*
X194991834Y-62477561D01*
X195334882Y-62335466D01*
X195643618Y-62129175D01*
X195906175Y-61866618D01*
X196112466Y-61557882D01*
X196254561Y-61214834D01*
X196327000Y-60850656D01*
X196327000Y-60479344D01*
X196254561Y-60115166D01*
X196112466Y-59772118D01*
X195906175Y-59463382D01*
X195857793Y-59415000D01*
X197633928Y-59415000D01*
X197633928Y-61915000D01*
X197646188Y-62039482D01*
X197682498Y-62159180D01*
X197741463Y-62269494D01*
X197820815Y-62366185D01*
X197917506Y-62445537D01*
X198027820Y-62504502D01*
X198147518Y-62540812D01*
X198272000Y-62553072D01*
X200772000Y-62553072D01*
X200896482Y-62540812D01*
X201016180Y-62504502D01*
X201126494Y-62445537D01*
X201223185Y-62366185D01*
X201302537Y-62269494D01*
X201361502Y-62159180D01*
X201397812Y-62039482D01*
X201410072Y-61915000D01*
X201410072Y-59415000D01*
X201397812Y-59290518D01*
X201361502Y-59170820D01*
X201302537Y-59060506D01*
X201223185Y-58963815D01*
X201126494Y-58884463D01*
X201016180Y-58825498D01*
X200896482Y-58789188D01*
X200772000Y-58776928D01*
X198272000Y-58776928D01*
X198147518Y-58789188D01*
X198027820Y-58825498D01*
X197917506Y-58884463D01*
X197820815Y-58963815D01*
X197741463Y-59060506D01*
X197682498Y-59170820D01*
X197646188Y-59290518D01*
X197633928Y-59415000D01*
X195857793Y-59415000D01*
X195643618Y-59200825D01*
X195334882Y-58994534D01*
X194991834Y-58852439D01*
X194627656Y-58780000D01*
X194256344Y-58780000D01*
X193892166Y-58852439D01*
X193549118Y-58994534D01*
X193240382Y-59200825D01*
X192977825Y-59463382D01*
X192771534Y-59772118D01*
X192629439Y-60115166D01*
X192557000Y-60479344D01*
X191260072Y-60479344D01*
X191260072Y-59425000D01*
X191247812Y-59300518D01*
X191211502Y-59180820D01*
X191152537Y-59070506D01*
X191073185Y-58973815D01*
X190976494Y-58894463D01*
X190866180Y-58835498D01*
X190746482Y-58799188D01*
X190622000Y-58786928D01*
X188122000Y-58786928D01*
X187997518Y-58799188D01*
X187877820Y-58835498D01*
X187767506Y-58894463D01*
X187670815Y-58973815D01*
X187591463Y-59070506D01*
X187532498Y-59180820D01*
X187496188Y-59300518D01*
X187483928Y-59425000D01*
X185707793Y-59425000D01*
X185493618Y-59210825D01*
X185184882Y-59004534D01*
X184841834Y-58862439D01*
X184477656Y-58790000D01*
X184106344Y-58790000D01*
X183742166Y-58862439D01*
X183399118Y-59004534D01*
X183090382Y-59210825D01*
X182827825Y-59473382D01*
X182621534Y-59782118D01*
X182479439Y-60125166D01*
X182407000Y-60489344D01*
X181110072Y-60489344D01*
X181110072Y-59435000D01*
X181097812Y-59310518D01*
X181061502Y-59190820D01*
X181002537Y-59080506D01*
X180923185Y-58983815D01*
X180826494Y-58904463D01*
X180716180Y-58845498D01*
X180596482Y-58809188D01*
X180472000Y-58796928D01*
X177972000Y-58796928D01*
X177847518Y-58809188D01*
X177727820Y-58845498D01*
X177617506Y-58904463D01*
X177520815Y-58983815D01*
X177441463Y-59080506D01*
X177382498Y-59190820D01*
X177346188Y-59310518D01*
X177333928Y-59435000D01*
X175557793Y-59435000D01*
X175343618Y-59220825D01*
X175034882Y-59014534D01*
X174691834Y-58872439D01*
X174327656Y-58800000D01*
X173956344Y-58800000D01*
X173592166Y-58872439D01*
X173249118Y-59014534D01*
X172940382Y-59220825D01*
X172677825Y-59483382D01*
X172471534Y-59792118D01*
X172329439Y-60135166D01*
X172257000Y-60499344D01*
X170960072Y-60499344D01*
X170960072Y-59437000D01*
X170947812Y-59312518D01*
X170911502Y-59192820D01*
X170852537Y-59082506D01*
X170773185Y-58985815D01*
X170676494Y-58906463D01*
X170566180Y-58847498D01*
X170446482Y-58811188D01*
X170322000Y-58798928D01*
X167822000Y-58798928D01*
X167697518Y-58811188D01*
X167577820Y-58847498D01*
X167467506Y-58906463D01*
X167370815Y-58985815D01*
X167291463Y-59082506D01*
X167232498Y-59192820D01*
X167196188Y-59312518D01*
X167183928Y-59437000D01*
X165407793Y-59437000D01*
X165193618Y-59222825D01*
X164884882Y-59016534D01*
X164541834Y-58874439D01*
X164177656Y-58802000D01*
X163806344Y-58802000D01*
X163442166Y-58874439D01*
X163099118Y-59016534D01*
X162790382Y-59222825D01*
X162527825Y-59485382D01*
X162321534Y-59794118D01*
X162179439Y-60137166D01*
X162107000Y-60501344D01*
X145864483Y-60501344D01*
X145866881Y-60477000D01*
X145836230Y-60165796D01*
X145745455Y-59866551D01*
X145598045Y-59590765D01*
X145494754Y-59464905D01*
X145578694Y-59420037D01*
X145675385Y-59340685D01*
X145754737Y-59243994D01*
X145813702Y-59133680D01*
X145850012Y-59013982D01*
X145862272Y-58889500D01*
X145862272Y-56984500D01*
X145850012Y-56860018D01*
X145813702Y-56740320D01*
X145754737Y-56630006D01*
X145675385Y-56533315D01*
X145578694Y-56453963D01*
X145468380Y-56394998D01*
X145348682Y-56358688D01*
X145224200Y-56346428D01*
X143224200Y-56346428D01*
X143099718Y-56358688D01*
X142980020Y-56394998D01*
X142869706Y-56453963D01*
X142773015Y-56533315D01*
X142693663Y-56630006D01*
X142634698Y-56740320D01*
X142598388Y-56860018D01*
X142593715Y-56907461D01*
X142497105Y-56916976D01*
X142302007Y-56976159D01*
X142218309Y-57020896D01*
X142122202Y-57072266D01*
X142060313Y-57123058D01*
X141964604Y-57201604D01*
X141932193Y-57241097D01*
X141407393Y-57765897D01*
X141367905Y-57798304D01*
X141335498Y-57837792D01*
X141335497Y-57837793D01*
X141238566Y-57955903D01*
X141142460Y-58135707D01*
X141083277Y-58330805D01*
X141063294Y-58533700D01*
X141068301Y-58584538D01*
X141068301Y-58619755D01*
X140962383Y-58513837D01*
X140612702Y-58280188D01*
X140224156Y-58119247D01*
X139811679Y-58037200D01*
X139391121Y-58037200D01*
X138978644Y-58119247D01*
X138590098Y-58280188D01*
X138240417Y-58513837D01*
X137943037Y-58811217D01*
X137709388Y-59160898D01*
X137548447Y-59549444D01*
X137466400Y-59961921D01*
X119136400Y-59961921D01*
X119054353Y-59549444D01*
X118893412Y-59160898D01*
X118659763Y-58811217D01*
X118362383Y-58513837D01*
X118012702Y-58280188D01*
X117624156Y-58119247D01*
X117211679Y-58037200D01*
X116791121Y-58037200D01*
X116378644Y-58119247D01*
X115990098Y-58280188D01*
X115640417Y-58513837D01*
X115343037Y-58811217D01*
X115109388Y-59160898D01*
X114948447Y-59549444D01*
X114866400Y-59961921D01*
X111556684Y-59961921D01*
X111632537Y-59869494D01*
X111691502Y-59759180D01*
X111727812Y-59639482D01*
X111740072Y-59515000D01*
X111737000Y-58500750D01*
X111578250Y-58342000D01*
X109929000Y-58342000D01*
X109675000Y-58342000D01*
X108025750Y-58342000D01*
X107867000Y-58500750D01*
X107863928Y-59515000D01*
X102216611Y-59515000D01*
X102216899Y-56915000D01*
X107863928Y-56915000D01*
X107867000Y-57929250D01*
X108025750Y-58088000D01*
X109675000Y-58088000D01*
X109675000Y-56438750D01*
X109929000Y-56438750D01*
X109929000Y-58088000D01*
X111578250Y-58088000D01*
X111737000Y-57929250D01*
X111740072Y-56915000D01*
X111727812Y-56790518D01*
X111691502Y-56670820D01*
X111632537Y-56560506D01*
X111553185Y-56463815D01*
X111456494Y-56384463D01*
X111346180Y-56325498D01*
X111226482Y-56289188D01*
X111102000Y-56276928D01*
X110087750Y-56280000D01*
X109929000Y-56438750D01*
X109675000Y-56438750D01*
X109516250Y-56280000D01*
X108502000Y-56276928D01*
X108377518Y-56289188D01*
X108257820Y-56325498D01*
X108147506Y-56384463D01*
X108050815Y-56463815D01*
X107971463Y-56560506D01*
X107912498Y-56670820D01*
X107876188Y-56790518D01*
X107863928Y-56915000D01*
X102216899Y-56915000D01*
X102216995Y-56050584D01*
X102245360Y-55774872D01*
X203297000Y-55774872D01*
X203297000Y-56215128D01*
X203382890Y-56646925D01*
X203551369Y-57053669D01*
X203795962Y-57419729D01*
X204107271Y-57731038D01*
X204473331Y-57975631D01*
X204880075Y-58144110D01*
X205311872Y-58230000D01*
X205752128Y-58230000D01*
X206183925Y-58144110D01*
X206590669Y-57975631D01*
X206956729Y-57731038D01*
X207268038Y-57419729D01*
X207512631Y-57053669D01*
X207681110Y-56646925D01*
X207767000Y-56215128D01*
X207767000Y-55774872D01*
X207681110Y-55343075D01*
X207512631Y-54936331D01*
X207268038Y-54570271D01*
X206956729Y-54258962D01*
X206590669Y-54014369D01*
X206183925Y-53845890D01*
X205752128Y-53760000D01*
X205311872Y-53760000D01*
X204880075Y-53845890D01*
X204473331Y-54014369D01*
X204107271Y-54258962D01*
X203795962Y-54570271D01*
X203551369Y-54936331D01*
X203382890Y-55343075D01*
X203297000Y-55774872D01*
X102245360Y-55774872D01*
X102277595Y-55461550D01*
X102441921Y-54926534D01*
X102707035Y-54433628D01*
X103062837Y-54001605D01*
X103495778Y-53646918D01*
X103989368Y-53383076D01*
X104524801Y-53220133D01*
X105114396Y-53161013D01*
X205429913Y-53211782D01*
G04 #@! TA.AperFunction,Conductor*
D27*
G36*
X205429913Y-53211782D02*
G01*
X206020609Y-53269700D01*
X206556402Y-53431466D01*
X207050569Y-53694219D01*
X207484290Y-54047953D01*
X207841043Y-54479193D01*
X208107242Y-54971519D01*
X208272743Y-55506165D01*
X208334601Y-56094715D01*
X208335613Y-78939840D01*
X160518085Y-78982626D01*
X162820691Y-76680020D01*
X176939607Y-76680020D01*
X176990435Y-76685026D01*
X177041263Y-76680020D01*
X177041273Y-76680020D01*
X177193330Y-76665044D01*
X177388428Y-76605861D01*
X177568232Y-76509754D01*
X177725831Y-76380416D01*
X177758242Y-76340923D01*
X178439156Y-75660010D01*
X186725389Y-75660010D01*
X186776217Y-75665016D01*
X186827045Y-75660010D01*
X186827055Y-75660010D01*
X186979112Y-75645034D01*
X187174210Y-75585851D01*
X187354014Y-75489744D01*
X187511613Y-75360406D01*
X187544024Y-75320913D01*
X188204938Y-74660000D01*
X196813939Y-74660000D01*
X196864057Y-74650031D01*
X196914895Y-74645024D01*
X196963777Y-74630196D01*
X197013898Y-74620226D01*
X197061113Y-74600669D01*
X197109993Y-74585841D01*
X197155042Y-74561762D01*
X197202256Y-74542205D01*
X197244746Y-74513814D01*
X197289797Y-74489734D01*
X197329284Y-74457328D01*
X197371774Y-74428937D01*
X197407908Y-74392803D01*
X197447396Y-74360396D01*
X197479805Y-74320906D01*
X197515937Y-74284774D01*
X197544328Y-74242284D01*
X197576734Y-74202797D01*
X197600814Y-74157746D01*
X197629205Y-74115256D01*
X197648762Y-74068042D01*
X197672841Y-74022993D01*
X197687669Y-73974113D01*
X197707226Y-73926898D01*
X197717196Y-73876777D01*
X197732024Y-73827895D01*
X197737031Y-73777057D01*
X197747000Y-73726939D01*
X197747000Y-73675838D01*
X197752007Y-73625000D01*
X197747000Y-73574162D01*
X197747000Y-73523061D01*
X197737031Y-73472943D01*
X197732024Y-73422105D01*
X197717196Y-73373223D01*
X197707226Y-73323102D01*
X197687669Y-73275887D01*
X197672841Y-73227007D01*
X197648762Y-73181958D01*
X197629205Y-73134744D01*
X197600814Y-73092254D01*
X197576734Y-73047203D01*
X197544328Y-73007716D01*
X197515937Y-72965226D01*
X197479803Y-72929092D01*
X197447396Y-72889604D01*
X197407908Y-72857197D01*
X197371774Y-72821063D01*
X197329284Y-72792672D01*
X197289797Y-72760266D01*
X197244746Y-72736186D01*
X197202256Y-72707795D01*
X197155042Y-72688238D01*
X197109993Y-72664159D01*
X197061113Y-72649331D01*
X197013898Y-72629774D01*
X196963777Y-72619804D01*
X196914895Y-72604976D01*
X196864057Y-72599969D01*
X196813939Y-72590000D01*
X187827062Y-72590000D01*
X187776227Y-72584993D01*
X187725392Y-72590000D01*
X187725389Y-72590000D01*
X187573332Y-72604976D01*
X187378234Y-72664159D01*
X187340817Y-72684159D01*
X187198429Y-72760266D01*
X187099978Y-72841063D01*
X187069114Y-72866393D01*
X187057908Y-72857197D01*
X187021774Y-72821063D01*
X186979284Y-72792672D01*
X186939797Y-72760266D01*
X186894746Y-72736186D01*
X186852256Y-72707795D01*
X186805042Y-72688238D01*
X186759993Y-72664159D01*
X186711113Y-72649331D01*
X186663898Y-72629774D01*
X186613777Y-72619804D01*
X186564895Y-72604976D01*
X186514057Y-72599969D01*
X186463939Y-72590000D01*
X177647061Y-72590000D01*
X177596226Y-72584993D01*
X177545391Y-72590000D01*
X177545389Y-72590000D01*
X177393332Y-72604976D01*
X177198234Y-72664159D01*
X177018430Y-72760266D01*
X176866928Y-72884600D01*
X176857908Y-72877197D01*
X176821774Y-72841063D01*
X176779284Y-72812672D01*
X176739797Y-72780266D01*
X176694746Y-72756186D01*
X176652256Y-72727795D01*
X176605042Y-72708238D01*
X176559993Y-72684159D01*
X176511113Y-72669331D01*
X176463898Y-72649774D01*
X176413777Y-72639804D01*
X176364895Y-72624976D01*
X176314057Y-72619969D01*
X176263939Y-72610000D01*
X167720711Y-72610000D01*
X167019797Y-71909087D01*
X166987386Y-71869594D01*
X166829787Y-71740256D01*
X166649983Y-71644149D01*
X166454885Y-71584966D01*
X166302828Y-71569990D01*
X166302818Y-71569990D01*
X166251990Y-71564984D01*
X166201162Y-71569990D01*
X151978611Y-71569990D01*
X151927783Y-71564984D01*
X151876955Y-71569990D01*
X151876946Y-71569990D01*
X151724889Y-71584966D01*
X151529791Y-71644149D01*
X151446093Y-71688886D01*
X151349986Y-71740256D01*
X151231876Y-71837187D01*
X151192388Y-71869594D01*
X151159981Y-71909082D01*
X137129064Y-85940000D01*
X136657104Y-85940000D01*
X136725696Y-85774405D01*
X136777000Y-85516486D01*
X136777000Y-85253514D01*
X136725696Y-84995595D01*
X136625061Y-84752641D01*
X136478962Y-84533987D01*
X136293013Y-84348038D01*
X136074359Y-84201939D01*
X135864470Y-84115000D01*
X136074359Y-84028061D01*
X136293013Y-83881962D01*
X136478962Y-83696013D01*
X136625061Y-83477359D01*
X136725696Y-83234405D01*
X136777000Y-82976486D01*
X136777000Y-82713514D01*
X136750442Y-82579999D01*
X138333940Y-82579999D01*
X138384058Y-82570030D01*
X138434896Y-82565023D01*
X138483778Y-82550195D01*
X138533899Y-82540225D01*
X138581114Y-82520668D01*
X138629994Y-82505840D01*
X138675043Y-82481761D01*
X138722257Y-82462204D01*
X138764747Y-82433813D01*
X138809798Y-82409733D01*
X138849285Y-82377327D01*
X138891775Y-82348936D01*
X138927909Y-82312802D01*
X138967397Y-82280395D01*
X138999804Y-82240907D01*
X139035938Y-82204773D01*
X139064329Y-82162283D01*
X139096735Y-82122796D01*
X139120815Y-82077745D01*
X139149206Y-82035255D01*
X139168763Y-81988041D01*
X139192842Y-81942992D01*
X139207670Y-81894112D01*
X139227227Y-81846897D01*
X139237197Y-81796776D01*
X139252025Y-81747894D01*
X139257032Y-81697056D01*
X139267001Y-81646938D01*
X139267001Y-81595837D01*
X139272008Y-81544999D01*
X139267001Y-81494161D01*
X139267001Y-81443060D01*
X139257032Y-81392942D01*
X139252025Y-81342104D01*
X139237197Y-81293222D01*
X139227227Y-81243101D01*
X139207670Y-81195886D01*
X139192842Y-81147006D01*
X139168763Y-81101957D01*
X139149206Y-81054743D01*
X139120815Y-81012253D01*
X139096735Y-80967202D01*
X139064329Y-80927715D01*
X139035938Y-80885225D01*
X138999804Y-80849091D01*
X138967397Y-80809603D01*
X138927909Y-80777196D01*
X138891775Y-80741062D01*
X138849285Y-80712671D01*
X138809798Y-80680265D01*
X138764747Y-80656185D01*
X138722257Y-80627794D01*
X138675043Y-80608237D01*
X138629994Y-80584158D01*
X138581114Y-80569330D01*
X138533899Y-80549773D01*
X138483778Y-80539803D01*
X138434896Y-80524975D01*
X138384058Y-80519968D01*
X138333940Y-80509999D01*
X121552828Y-80509999D01*
X121502000Y-80504993D01*
X121451172Y-80509999D01*
X121451163Y-80509999D01*
X121299106Y-80524975D01*
X121104008Y-80584158D01*
X121022371Y-80627794D01*
X120924203Y-80680265D01*
X120806456Y-80776898D01*
X120766605Y-80809603D01*
X120734198Y-80849091D01*
X120073290Y-81510000D01*
X120070514Y-81510000D01*
X119812595Y-81561304D01*
X119569641Y-81661939D01*
X119350987Y-81808038D01*
X119165038Y-81993987D01*
X119018939Y-82212641D01*
X118932000Y-82422530D01*
X118845061Y-82212641D01*
X118698962Y-81993987D01*
X118513013Y-81808038D01*
X118294359Y-81661939D01*
X118051405Y-81561304D01*
X117793486Y-81510000D01*
X117530514Y-81510000D01*
X117272595Y-81561304D01*
X117029641Y-81661939D01*
X116810987Y-81808038D01*
X116625038Y-81993987D01*
X116478939Y-82212641D01*
X116392000Y-82422530D01*
X116305061Y-82212641D01*
X116158962Y-81993987D01*
X115973013Y-81808038D01*
X115754359Y-81661939D01*
X115511405Y-81561304D01*
X115253486Y-81510000D01*
X114990514Y-81510000D01*
X114732595Y-81561304D01*
X114489641Y-81661939D01*
X114270987Y-81808038D01*
X114085038Y-81993987D01*
X113938939Y-82212641D01*
X113850379Y-82426444D01*
X113790935Y-82263634D01*
X113737037Y-82162797D01*
X113503269Y-82103336D01*
X112761605Y-82845000D01*
X113503269Y-83586664D01*
X113737037Y-83527203D01*
X113847934Y-83288758D01*
X113852706Y-83269173D01*
X113938939Y-83477359D01*
X114085038Y-83696013D01*
X114270987Y-83881962D01*
X114489641Y-84028061D01*
X114699530Y-84115000D01*
X114489641Y-84201939D01*
X114270987Y-84348038D01*
X114085038Y-84533987D01*
X113938939Y-84752641D01*
X113852000Y-84962530D01*
X113765061Y-84752641D01*
X113618962Y-84533987D01*
X113433013Y-84348038D01*
X113214359Y-84201939D01*
X113000556Y-84113379D01*
X113163366Y-84053935D01*
X113264203Y-84000037D01*
X113323664Y-83766269D01*
X112582000Y-83024605D01*
X111840336Y-83766269D01*
X111899797Y-84000037D01*
X112138242Y-84110934D01*
X112157827Y-84115706D01*
X111949641Y-84201939D01*
X111730987Y-84348038D01*
X111545038Y-84533987D01*
X111398939Y-84752641D01*
X111298304Y-84995595D01*
X111247000Y-85253514D01*
X111247000Y-85516486D01*
X111298304Y-85774405D01*
X111398939Y-86017359D01*
X111545038Y-86236013D01*
X111730987Y-86421962D01*
X111949641Y-86568061D01*
X112192595Y-86668696D01*
X112450514Y-86720000D01*
X112713486Y-86720000D01*
X112971405Y-86668696D01*
X113214359Y-86568061D01*
X113433013Y-86421962D01*
X113618962Y-86236013D01*
X113765061Y-86017359D01*
X113852000Y-85807470D01*
X113938939Y-86017359D01*
X114085038Y-86236013D01*
X114270987Y-86421962D01*
X114489641Y-86568061D01*
X114732595Y-86668696D01*
X114990514Y-86720000D01*
X115253486Y-86720000D01*
X115511405Y-86668696D01*
X115754359Y-86568061D01*
X115973013Y-86421962D01*
X116158962Y-86236013D01*
X116305061Y-86017359D01*
X116392000Y-85807470D01*
X116478939Y-86017359D01*
X116625038Y-86236013D01*
X116810987Y-86421962D01*
X117029641Y-86568061D01*
X117272595Y-86668696D01*
X117530514Y-86720000D01*
X117793486Y-86720000D01*
X118051405Y-86668696D01*
X118294359Y-86568061D01*
X118513013Y-86421962D01*
X118698962Y-86236013D01*
X118845061Y-86017359D01*
X118932000Y-85807470D01*
X119018939Y-86017359D01*
X119165038Y-86236013D01*
X119350987Y-86421962D01*
X119569641Y-86568061D01*
X119812595Y-86668696D01*
X120070514Y-86720000D01*
X120333486Y-86720000D01*
X120591405Y-86668696D01*
X120834359Y-86568061D01*
X121053013Y-86421962D01*
X121238962Y-86236013D01*
X121385061Y-86017359D01*
X121472000Y-85807470D01*
X121558939Y-86017359D01*
X121705038Y-86236013D01*
X121707000Y-86237975D01*
X121707000Y-86434171D01*
X121701994Y-86485000D01*
X121707000Y-86535828D01*
X121707000Y-86535837D01*
X121721976Y-86687894D01*
X121781159Y-86882992D01*
X121877266Y-87062797D01*
X122006604Y-87220396D01*
X122046097Y-87252807D01*
X122464193Y-87670903D01*
X122496604Y-87710396D01*
X122654203Y-87839734D01*
X122834007Y-87935841D01*
X123029105Y-87995024D01*
X123181162Y-88010000D01*
X123181165Y-88010000D01*
X123232000Y-88015007D01*
X123282835Y-88010000D01*
X124661716Y-88010000D01*
X124651977Y-88042105D01*
X124646971Y-88092933D01*
X124637000Y-88143061D01*
X124637000Y-88194172D01*
X124631994Y-88245000D01*
X124637000Y-88295828D01*
X124637000Y-88346939D01*
X124646971Y-88397067D01*
X124651977Y-88447895D01*
X124666803Y-88496768D01*
X124676774Y-88546898D01*
X124696335Y-88594122D01*
X124711160Y-88642993D01*
X124735236Y-88688036D01*
X124754795Y-88735256D01*
X124783187Y-88777748D01*
X124807266Y-88822797D01*
X124839672Y-88862284D01*
X124868063Y-88904774D01*
X124904197Y-88940908D01*
X124936604Y-88980396D01*
X124976092Y-89012803D01*
X125012226Y-89048937D01*
X125054716Y-89077328D01*
X125094203Y-89109734D01*
X125139252Y-89133813D01*
X125181744Y-89162205D01*
X125228964Y-89181764D01*
X125274007Y-89205840D01*
X125322878Y-89220665D01*
X125370102Y-89240226D01*
X125420232Y-89250197D01*
X125469105Y-89265023D01*
X125519933Y-89270029D01*
X125570061Y-89280000D01*
X125621172Y-89280000D01*
X125672000Y-89285006D01*
X125722828Y-89280000D01*
X125773939Y-89280000D01*
X125824067Y-89270029D01*
X125874895Y-89265023D01*
X125891453Y-89260000D01*
X137671172Y-89260000D01*
X137722000Y-89265006D01*
X137772828Y-89260000D01*
X137772838Y-89260000D01*
X137924895Y-89245024D01*
X138119993Y-89185841D01*
X138299797Y-89089734D01*
X138457396Y-88960396D01*
X138489807Y-88920903D01*
X143060711Y-84350000D01*
X148339815Y-84350000D01*
X148070889Y-84376487D01*
X147790966Y-84461401D01*
X147532986Y-84599294D01*
X147306866Y-84784866D01*
X147254777Y-84848337D01*
X147200405Y-84746614D01*
X147089962Y-84612038D01*
X146955386Y-84501595D01*
X146801850Y-84419528D01*
X146635254Y-84368992D01*
X146462000Y-84351928D01*
X145262000Y-84351928D01*
X145088746Y-84368992D01*
X144922150Y-84419528D01*
X144768614Y-84501595D01*
X144634038Y-84612038D01*
X144523595Y-84746614D01*
X144441528Y-84900150D01*
X144390992Y-85066746D01*
X144373928Y-85240000D01*
X144373928Y-86690000D01*
X144390992Y-86863254D01*
X144441528Y-87029850D01*
X144523595Y-87183386D01*
X144634038Y-87317962D01*
X144768614Y-87428405D01*
X144922150Y-87510472D01*
X145088746Y-87561008D01*
X145262000Y-87578072D01*
X146462000Y-87578072D01*
X146635254Y-87561008D01*
X146801850Y-87510472D01*
X146955386Y-87428405D01*
X147089962Y-87317962D01*
X147200405Y-87183386D01*
X147254777Y-87081663D01*
X147306866Y-87145134D01*
X147532987Y-87330706D01*
X147790967Y-87468599D01*
X148070890Y-87553513D01*
X148362000Y-87582185D01*
X148653111Y-87553513D01*
X148933034Y-87468599D01*
X149191014Y-87330706D01*
X149417134Y-87145134D01*
X149602706Y-86919014D01*
X149616462Y-86893278D01*
X149772951Y-87099429D01*
X149990807Y-87292496D01*
X150242142Y-87439352D01*
X150505110Y-87531476D01*
X150735000Y-87410155D01*
X150735000Y-86092000D01*
X150715000Y-86092000D01*
X150715000Y-85838000D01*
X150735000Y-85838000D01*
X150735000Y-84519845D01*
X150505110Y-84398524D01*
X150242142Y-84490648D01*
X149990807Y-84637504D01*
X149772951Y-84830571D01*
X149616462Y-85036722D01*
X149602706Y-85010986D01*
X149417134Y-84784866D01*
X149191013Y-84599294D01*
X148933033Y-84461401D01*
X148653110Y-84376487D01*
X148384185Y-84350000D01*
X151842718Y-84350000D01*
X151893546Y-84355006D01*
X151944374Y-84350000D01*
X151944384Y-84350000D01*
X152096441Y-84335024D01*
X152291539Y-84275841D01*
X152296990Y-84272927D01*
X152296990Y-85486330D01*
X152254442Y-85324170D01*
X152127053Y-85062430D01*
X151951049Y-84830571D01*
X151733193Y-84637504D01*
X151481858Y-84490648D01*
X151218890Y-84398524D01*
X150989000Y-84519845D01*
X150989000Y-85838000D01*
X151009000Y-85838000D01*
X151009000Y-86092000D01*
X150989000Y-86092000D01*
X150989000Y-87410155D01*
X151218890Y-87531476D01*
X151481858Y-87439352D01*
X151733193Y-87292496D01*
X151951049Y-87099429D01*
X152127053Y-86867570D01*
X152254442Y-86605830D01*
X152296990Y-86443670D01*
X152296991Y-89252072D01*
X149559084Y-91989980D01*
X135218620Y-91989980D01*
X135167792Y-91984974D01*
X135116964Y-91989980D01*
X135116955Y-91989980D01*
X135015218Y-92000000D01*
X133972827Y-92000000D01*
X133921999Y-91994994D01*
X133871171Y-92000000D01*
X133871162Y-92000000D01*
X133719105Y-92014976D01*
X133524007Y-92074159D01*
X133479600Y-92097895D01*
X133344202Y-92170266D01*
X133226092Y-92267197D01*
X133186604Y-92299604D01*
X133154197Y-92339092D01*
X119506097Y-105987193D01*
X119466604Y-106019604D01*
X119337266Y-106177203D01*
X119241159Y-106357008D01*
X119181976Y-106552106D01*
X119167000Y-106704163D01*
X119167000Y-106704172D01*
X119161994Y-106755000D01*
X119167000Y-106805828D01*
X119167000Y-107392025D01*
X119165038Y-107393987D01*
X119018939Y-107612641D01*
X118932000Y-107822530D01*
X118845061Y-107612641D01*
X118698962Y-107393987D01*
X118513013Y-107208038D01*
X118294359Y-107061939D01*
X118051405Y-106961304D01*
X117793486Y-106910000D01*
X117530514Y-106910000D01*
X117272595Y-106961304D01*
X117029641Y-107061939D01*
X116810987Y-107208038D01*
X116625038Y-107393987D01*
X116478939Y-107612641D01*
X116392000Y-107822530D01*
X116305061Y-107612641D01*
X116158962Y-107393987D01*
X115973013Y-107208038D01*
X115754359Y-107061939D01*
X115511405Y-106961304D01*
X115253486Y-106910000D01*
X114990514Y-106910000D01*
X114732595Y-106961304D01*
X114489641Y-107061939D01*
X114270987Y-107208038D01*
X114085038Y-107393987D01*
X113938939Y-107612641D01*
X113852000Y-107822530D01*
X113765061Y-107612641D01*
X113618962Y-107393987D01*
X113433013Y-107208038D01*
X113214359Y-107061939D01*
X112971405Y-106961304D01*
X112713486Y-106910000D01*
X112450514Y-106910000D01*
X112192595Y-106961304D01*
X111949641Y-107061939D01*
X111730987Y-107208038D01*
X111545038Y-107393987D01*
X111398939Y-107612641D01*
X111298304Y-107855595D01*
X111247000Y-108113514D01*
X111247000Y-108376486D01*
X111298304Y-108634405D01*
X111398939Y-108877359D01*
X111545038Y-109096013D01*
X111730987Y-109281962D01*
X111949641Y-109428061D01*
X112163444Y-109516621D01*
X112000634Y-109576065D01*
X111899797Y-109629963D01*
X111840336Y-109863731D01*
X112582000Y-110605395D01*
X113323664Y-109863731D01*
X113264203Y-109629963D01*
X113025758Y-109519066D01*
X113006173Y-109514294D01*
X113214359Y-109428061D01*
X113433013Y-109281962D01*
X113618962Y-109096013D01*
X113765061Y-108877359D01*
X113852000Y-108667470D01*
X113938939Y-108877359D01*
X114085038Y-109096013D01*
X114270987Y-109281962D01*
X114489641Y-109428061D01*
X114699530Y-109515000D01*
X114489641Y-109601939D01*
X114270987Y-109748038D01*
X114085038Y-109933987D01*
X113938939Y-110152641D01*
X113850379Y-110366444D01*
X113790935Y-110203634D01*
X113737037Y-110102797D01*
X113503269Y-110043336D01*
X112761605Y-110785000D01*
X113503269Y-111526664D01*
X113737037Y-111467203D01*
X113847934Y-111228758D01*
X113852706Y-111209173D01*
X113938939Y-111417359D01*
X114085038Y-111636013D01*
X114270987Y-111821962D01*
X114489641Y-111968061D01*
X114732595Y-112068696D01*
X114990514Y-112120000D01*
X115253486Y-112120000D01*
X115511405Y-112068696D01*
X115754359Y-111968061D01*
X115973013Y-111821962D01*
X116158962Y-111636013D01*
X116305061Y-111417359D01*
X116392000Y-111207470D01*
X116478939Y-111417359D01*
X116625038Y-111636013D01*
X116810987Y-111821962D01*
X117029641Y-111968061D01*
X117272595Y-112068696D01*
X117530514Y-112120000D01*
X117793486Y-112120000D01*
X118051405Y-112068696D01*
X118294359Y-111968061D01*
X118513013Y-111821962D01*
X118698962Y-111636013D01*
X118845061Y-111417359D01*
X118932000Y-111207470D01*
X119018939Y-111417359D01*
X119165038Y-111636013D01*
X119350987Y-111821962D01*
X119569641Y-111968061D01*
X119812595Y-112068696D01*
X120070514Y-112120000D01*
X120333486Y-112120000D01*
X120591405Y-112068696D01*
X120834359Y-111968061D01*
X121053013Y-111821962D01*
X121238962Y-111636013D01*
X121385061Y-111417359D01*
X121472000Y-111207470D01*
X121558939Y-111417359D01*
X121705038Y-111636013D01*
X121890987Y-111821962D01*
X122109641Y-111968061D01*
X122352595Y-112068696D01*
X122610514Y-112120000D01*
X122873486Y-112120000D01*
X123131405Y-112068696D01*
X123374359Y-111968061D01*
X123593013Y-111821962D01*
X123778962Y-111636013D01*
X123925061Y-111417359D01*
X124012000Y-111207470D01*
X124098939Y-111417359D01*
X124245038Y-111636013D01*
X124430987Y-111821962D01*
X124649641Y-111968061D01*
X124892595Y-112068696D01*
X125150514Y-112120000D01*
X125413486Y-112120000D01*
X125671405Y-112068696D01*
X125914359Y-111968061D01*
X126133013Y-111821962D01*
X126318962Y-111636013D01*
X126465061Y-111417359D01*
X126552000Y-111207470D01*
X126638939Y-111417359D01*
X126785038Y-111636013D01*
X126970987Y-111821962D01*
X127189641Y-111968061D01*
X127432595Y-112068696D01*
X127690514Y-112120000D01*
X127953486Y-112120000D01*
X128211405Y-112068696D01*
X128454359Y-111968061D01*
X128673013Y-111821962D01*
X128858962Y-111636013D01*
X129005061Y-111417359D01*
X129092000Y-111207470D01*
X129178939Y-111417359D01*
X129325038Y-111636013D01*
X129510987Y-111821962D01*
X129729641Y-111968061D01*
X129972595Y-112068696D01*
X130230514Y-112120000D01*
X130493486Y-112120000D01*
X130751405Y-112068696D01*
X130994359Y-111968061D01*
X131213013Y-111821962D01*
X131398962Y-111636013D01*
X131545061Y-111417359D01*
X131632000Y-111207470D01*
X131718939Y-111417359D01*
X131865038Y-111636013D01*
X132050987Y-111821962D01*
X132269641Y-111968061D01*
X132512595Y-112068696D01*
X132770514Y-112120000D01*
X133033486Y-112120000D01*
X133291405Y-112068696D01*
X133534359Y-111968061D01*
X133753013Y-111821962D01*
X133938962Y-111636013D01*
X134085061Y-111417359D01*
X134172000Y-111207470D01*
X134258939Y-111417359D01*
X134405038Y-111636013D01*
X134590987Y-111821962D01*
X134809641Y-111968061D01*
X135052595Y-112068696D01*
X135310514Y-112120000D01*
X135573486Y-112120000D01*
X135831405Y-112068696D01*
X136074359Y-111968061D01*
X136293013Y-111821962D01*
X136478962Y-111636013D01*
X136625061Y-111417359D01*
X136725696Y-111174405D01*
X136777000Y-110916486D01*
X136777000Y-110653514D01*
X136725696Y-110395595D01*
X136625061Y-110152641D01*
X136586462Y-110094872D01*
X203297000Y-110094872D01*
X203297000Y-110535128D01*
X203382890Y-110966925D01*
X203551369Y-111373669D01*
X203795962Y-111739729D01*
X204107271Y-112051038D01*
X204473331Y-112295631D01*
X204880075Y-112464110D01*
X205311872Y-112550000D01*
X205752128Y-112550000D01*
X206183925Y-112464110D01*
X206590669Y-112295631D01*
X206956729Y-112051038D01*
X207268038Y-111739729D01*
X207512631Y-111373669D01*
X207681110Y-110966925D01*
X207767000Y-110535128D01*
X207767000Y-110094872D01*
X207681110Y-109663075D01*
X207512631Y-109256331D01*
X207268038Y-108890271D01*
X206956729Y-108578962D01*
X206590669Y-108334369D01*
X206183925Y-108165890D01*
X205752128Y-108080000D01*
X205311872Y-108080000D01*
X204880075Y-108165890D01*
X204473331Y-108334369D01*
X204107271Y-108578962D01*
X203795962Y-108890271D01*
X203551369Y-109256331D01*
X203382890Y-109663075D01*
X203297000Y-110094872D01*
X136586462Y-110094872D01*
X136478962Y-109933987D01*
X136293013Y-109748038D01*
X136074359Y-109601939D01*
X135864470Y-109515000D01*
X136074359Y-109428061D01*
X136293013Y-109281962D01*
X136478962Y-109096013D01*
X136625061Y-108877359D01*
X136725696Y-108634405D01*
X136777000Y-108376486D01*
X136777000Y-108113514D01*
X136732540Y-107890000D01*
X144312473Y-107890000D01*
X144321528Y-107919850D01*
X144403595Y-108073386D01*
X144514038Y-108207962D01*
X144648614Y-108318405D01*
X144802150Y-108400472D01*
X144968746Y-108451008D01*
X145142000Y-108468072D01*
X146342000Y-108468072D01*
X146515254Y-108451008D01*
X146681850Y-108400472D01*
X146835386Y-108318405D01*
X146969962Y-108207962D01*
X147080405Y-108073386D01*
X147134777Y-107971663D01*
X147186866Y-108035134D01*
X147412987Y-108220706D01*
X147670967Y-108358599D01*
X147950890Y-108443513D01*
X148242000Y-108472185D01*
X148533111Y-108443513D01*
X148813034Y-108358599D01*
X149071014Y-108220706D01*
X149297134Y-108035134D01*
X149482706Y-107809014D01*
X149492000Y-107791626D01*
X149501294Y-107809014D01*
X149686866Y-108035134D01*
X149912987Y-108220706D01*
X150170967Y-108358599D01*
X150450890Y-108443513D01*
X150742000Y-108472185D01*
X151033111Y-108443513D01*
X151313034Y-108358599D01*
X151571014Y-108220706D01*
X151797134Y-108035134D01*
X151982706Y-107809014D01*
X151996462Y-107783278D01*
X152152951Y-107989429D01*
X152370807Y-108182496D01*
X152622142Y-108329352D01*
X152885110Y-108421476D01*
X153115000Y-108300155D01*
X153115000Y-106982000D01*
X153369000Y-106982000D01*
X153369000Y-108300155D01*
X153598890Y-108421476D01*
X153861858Y-108329352D01*
X154113193Y-108182496D01*
X154331049Y-107989429D01*
X154507053Y-107757570D01*
X154634442Y-107495830D01*
X154708320Y-107214267D01*
X154568165Y-106982000D01*
X153369000Y-106982000D01*
X153115000Y-106982000D01*
X153095000Y-106982000D01*
X153095000Y-106728000D01*
X153115000Y-106728000D01*
X153115000Y-105409845D01*
X153369000Y-105409845D01*
X153369000Y-106728000D01*
X154568165Y-106728000D01*
X154708320Y-106495733D01*
X154634442Y-106214170D01*
X154507053Y-105952430D01*
X154331049Y-105720571D01*
X154113193Y-105527504D01*
X153861858Y-105380648D01*
X153598890Y-105288524D01*
X153369000Y-105409845D01*
X153115000Y-105409845D01*
X152885110Y-105288524D01*
X152622142Y-105380648D01*
X152370807Y-105527504D01*
X152152951Y-105720571D01*
X151996462Y-105926722D01*
X151982706Y-105900986D01*
X151797134Y-105674866D01*
X151773162Y-105655193D01*
X151762024Y-105542105D01*
X151702841Y-105347007D01*
X151634955Y-105220000D01*
X151606734Y-105167202D01*
X151509803Y-105049092D01*
X151477396Y-105009604D01*
X151437908Y-104977197D01*
X150935711Y-104475000D01*
X162253928Y-104475000D01*
X162253928Y-106975000D01*
X162266188Y-107099482D01*
X162302498Y-107219180D01*
X162361463Y-107329494D01*
X162440815Y-107426185D01*
X162537506Y-107505537D01*
X162647820Y-107564502D01*
X162767518Y-107600812D01*
X162892000Y-107613072D01*
X165392000Y-107613072D01*
X165516482Y-107600812D01*
X165636180Y-107564502D01*
X165746494Y-107505537D01*
X165843185Y-107426185D01*
X165922537Y-107329494D01*
X165981502Y-107219180D01*
X166017812Y-107099482D01*
X166030072Y-106975000D01*
X166030072Y-105539344D01*
X167337000Y-105539344D01*
X167337000Y-105910656D01*
X167409439Y-106274834D01*
X167551534Y-106617882D01*
X167757825Y-106926618D01*
X168020382Y-107189175D01*
X168329118Y-107395466D01*
X168672166Y-107537561D01*
X169036344Y-107610000D01*
X169407656Y-107610000D01*
X169771834Y-107537561D01*
X170114882Y-107395466D01*
X170423618Y-107189175D01*
X170686175Y-106926618D01*
X170892466Y-106617882D01*
X171034561Y-106274834D01*
X171107000Y-105910656D01*
X171107000Y-105539344D01*
X171034561Y-105175166D01*
X170892466Y-104832118D01*
X170686175Y-104523382D01*
X170637793Y-104475000D01*
X172433928Y-104475000D01*
X172433928Y-106975000D01*
X172446188Y-107099482D01*
X172482498Y-107219180D01*
X172541463Y-107329494D01*
X172620815Y-107426185D01*
X172717506Y-107505537D01*
X172827820Y-107564502D01*
X172947518Y-107600812D01*
X173072000Y-107613072D01*
X175572000Y-107613072D01*
X175696482Y-107600812D01*
X175816180Y-107564502D01*
X175926494Y-107505537D01*
X176023185Y-107426185D01*
X176102537Y-107329494D01*
X176161502Y-107219180D01*
X176197812Y-107099482D01*
X176210072Y-106975000D01*
X176210072Y-105539344D01*
X177517000Y-105539344D01*
X177517000Y-105910656D01*
X177589439Y-106274834D01*
X177731534Y-106617882D01*
X177937825Y-106926618D01*
X178200382Y-107189175D01*
X178509118Y-107395466D01*
X178852166Y-107537561D01*
X179216344Y-107610000D01*
X179587656Y-107610000D01*
X179951834Y-107537561D01*
X180294882Y-107395466D01*
X180603618Y-107189175D01*
X180866175Y-106926618D01*
X181072466Y-106617882D01*
X181214561Y-106274834D01*
X181287000Y-105910656D01*
X181287000Y-105539344D01*
X181214561Y-105175166D01*
X181072466Y-104832118D01*
X180866175Y-104523382D01*
X180817793Y-104475000D01*
X182603928Y-104475000D01*
X182603928Y-106975000D01*
X182616188Y-107099482D01*
X182652498Y-107219180D01*
X182711463Y-107329494D01*
X182790815Y-107426185D01*
X182887506Y-107505537D01*
X182997820Y-107564502D01*
X183117518Y-107600812D01*
X183242000Y-107613072D01*
X185742000Y-107613072D01*
X185866482Y-107600812D01*
X185986180Y-107564502D01*
X186096494Y-107505537D01*
X186193185Y-107426185D01*
X186272537Y-107329494D01*
X186331502Y-107219180D01*
X186367812Y-107099482D01*
X186380072Y-106975000D01*
X186380072Y-105539344D01*
X187687000Y-105539344D01*
X187687000Y-105910656D01*
X187759439Y-106274834D01*
X187901534Y-106617882D01*
X188107825Y-106926618D01*
X188370382Y-107189175D01*
X188679118Y-107395466D01*
X189022166Y-107537561D01*
X189386344Y-107610000D01*
X189757656Y-107610000D01*
X190121834Y-107537561D01*
X190464882Y-107395466D01*
X190773618Y-107189175D01*
X191036175Y-106926618D01*
X191242466Y-106617882D01*
X191384561Y-106274834D01*
X191457000Y-105910656D01*
X191457000Y-105539344D01*
X191384561Y-105175166D01*
X191242466Y-104832118D01*
X191036175Y-104523382D01*
X190987793Y-104475000D01*
X192773928Y-104475000D01*
X192773928Y-106975000D01*
X192786188Y-107099482D01*
X192822498Y-107219180D01*
X192881463Y-107329494D01*
X192960815Y-107426185D01*
X193057506Y-107505537D01*
X193167820Y-107564502D01*
X193287518Y-107600812D01*
X193412000Y-107613072D01*
X195912000Y-107613072D01*
X196036482Y-107600812D01*
X196156180Y-107564502D01*
X196266494Y-107505537D01*
X196363185Y-107426185D01*
X196442537Y-107329494D01*
X196501502Y-107219180D01*
X196537812Y-107099482D01*
X196550072Y-106975000D01*
X196550072Y-105539344D01*
X197857000Y-105539344D01*
X197857000Y-105910656D01*
X197929439Y-106274834D01*
X198071534Y-106617882D01*
X198277825Y-106926618D01*
X198540382Y-107189175D01*
X198849118Y-107395466D01*
X199192166Y-107537561D01*
X199556344Y-107610000D01*
X199927656Y-107610000D01*
X200291834Y-107537561D01*
X200634882Y-107395466D01*
X200943618Y-107189175D01*
X201206175Y-106926618D01*
X201412466Y-106617882D01*
X201554561Y-106274834D01*
X201627000Y-105910656D01*
X201627000Y-105539344D01*
X201554561Y-105175166D01*
X201412466Y-104832118D01*
X201206175Y-104523382D01*
X200943618Y-104260825D01*
X200634882Y-104054534D01*
X200291834Y-103912439D01*
X199927656Y-103840000D01*
X199556344Y-103840000D01*
X199192166Y-103912439D01*
X198849118Y-104054534D01*
X198540382Y-104260825D01*
X198277825Y-104523382D01*
X198071534Y-104832118D01*
X197929439Y-105175166D01*
X197857000Y-105539344D01*
X196550072Y-105539344D01*
X196550072Y-104475000D01*
X196537812Y-104350518D01*
X196501502Y-104230820D01*
X196442537Y-104120506D01*
X196363185Y-104023815D01*
X196266494Y-103944463D01*
X196156180Y-103885498D01*
X196036482Y-103849188D01*
X195912000Y-103836928D01*
X193412000Y-103836928D01*
X193287518Y-103849188D01*
X193167820Y-103885498D01*
X193057506Y-103944463D01*
X192960815Y-104023815D01*
X192881463Y-104120506D01*
X192822498Y-104230820D01*
X192786188Y-104350518D01*
X192773928Y-104475000D01*
X190987793Y-104475000D01*
X190773618Y-104260825D01*
X190464882Y-104054534D01*
X190121834Y-103912439D01*
X189757656Y-103840000D01*
X189386344Y-103840000D01*
X189022166Y-103912439D01*
X188679118Y-104054534D01*
X188370382Y-104260825D01*
X188107825Y-104523382D01*
X187901534Y-104832118D01*
X187759439Y-105175166D01*
X187687000Y-105539344D01*
X186380072Y-105539344D01*
X186380072Y-104475000D01*
X186367812Y-104350518D01*
X186331502Y-104230820D01*
X186272537Y-104120506D01*
X186193185Y-104023815D01*
X186096494Y-103944463D01*
X185986180Y-103885498D01*
X185866482Y-103849188D01*
X185742000Y-103836928D01*
X183242000Y-103836928D01*
X183117518Y-103849188D01*
X182997820Y-103885498D01*
X182887506Y-103944463D01*
X182790815Y-104023815D01*
X182711463Y-104120506D01*
X182652498Y-104230820D01*
X182616188Y-104350518D01*
X182603928Y-104475000D01*
X180817793Y-104475000D01*
X180603618Y-104260825D01*
X180294882Y-104054534D01*
X179951834Y-103912439D01*
X179587656Y-103840000D01*
X179216344Y-103840000D01*
X178852166Y-103912439D01*
X178509118Y-104054534D01*
X178200382Y-104260825D01*
X177937825Y-104523382D01*
X177731534Y-104832118D01*
X177589439Y-105175166D01*
X177517000Y-105539344D01*
X176210072Y-105539344D01*
X176210072Y-104475000D01*
X176197812Y-104350518D01*
X176161502Y-104230820D01*
X176102537Y-104120506D01*
X176023185Y-104023815D01*
X175926494Y-103944463D01*
X175816180Y-103885498D01*
X175696482Y-103849188D01*
X175572000Y-103836928D01*
X173072000Y-103836928D01*
X172947518Y-103849188D01*
X172827820Y-103885498D01*
X172717506Y-103944463D01*
X172620815Y-104023815D01*
X172541463Y-104120506D01*
X172482498Y-104230820D01*
X172446188Y-104350518D01*
X172433928Y-104475000D01*
X170637793Y-104475000D01*
X170423618Y-104260825D01*
X170114882Y-104054534D01*
X169771834Y-103912439D01*
X169407656Y-103840000D01*
X169036344Y-103840000D01*
X168672166Y-103912439D01*
X168329118Y-104054534D01*
X168020382Y-104260825D01*
X167757825Y-104523382D01*
X167551534Y-104832118D01*
X167409439Y-105175166D01*
X167337000Y-105539344D01*
X166030072Y-105539344D01*
X166030072Y-104475000D01*
X166017812Y-104350518D01*
X165981502Y-104230820D01*
X165922537Y-104120506D01*
X165843185Y-104023815D01*
X165746494Y-103944463D01*
X165636180Y-103885498D01*
X165516482Y-103849188D01*
X165392000Y-103836928D01*
X162892000Y-103836928D01*
X162767518Y-103849188D01*
X162647820Y-103885498D01*
X162537506Y-103944463D01*
X162440815Y-104023815D01*
X162361463Y-104120506D01*
X162302498Y-104230820D01*
X162266188Y-104350518D01*
X162253928Y-104475000D01*
X150935711Y-104475000D01*
X149959797Y-103499087D01*
X149927386Y-103459594D01*
X149769787Y-103330256D01*
X149589983Y-103234149D01*
X149394885Y-103174966D01*
X149242828Y-103159990D01*
X149242818Y-103159990D01*
X149191990Y-103154984D01*
X149141162Y-103159990D01*
X133714270Y-103159990D01*
X133634826Y-103152166D01*
X133623939Y-103150000D01*
X133612828Y-103150000D01*
X133562000Y-103144994D01*
X133511172Y-103150000D01*
X133420061Y-103150000D01*
X133369943Y-103159969D01*
X133319105Y-103164976D01*
X133270223Y-103179804D01*
X133220102Y-103189774D01*
X133172887Y-103209331D01*
X133124007Y-103224159D01*
X133078958Y-103248238D01*
X133031744Y-103267795D01*
X132989254Y-103296186D01*
X132944203Y-103320266D01*
X132904716Y-103352672D01*
X132862226Y-103381063D01*
X132826092Y-103417197D01*
X132786604Y-103449604D01*
X132754197Y-103489092D01*
X132718063Y-103525226D01*
X132689672Y-103567716D01*
X132657266Y-103607203D01*
X132633186Y-103652254D01*
X132604795Y-103694744D01*
X132585238Y-103741958D01*
X132561159Y-103787007D01*
X132546331Y-103835887D01*
X132526774Y-103883102D01*
X132516804Y-103933223D01*
X132501976Y-103982105D01*
X132496969Y-104032943D01*
X132487000Y-104083061D01*
X132487000Y-104134162D01*
X132484455Y-104160000D01*
X131510061Y-104160000D01*
X131459943Y-104169969D01*
X131409105Y-104174976D01*
X131360223Y-104189804D01*
X131310102Y-104199774D01*
X131262887Y-104219331D01*
X131214007Y-104234159D01*
X131168958Y-104258238D01*
X131121744Y-104277795D01*
X131079254Y-104306186D01*
X131034203Y-104330266D01*
X130994716Y-104362672D01*
X130952226Y-104391063D01*
X130916092Y-104427197D01*
X130876604Y-104459604D01*
X130844197Y-104499092D01*
X130808063Y-104535226D01*
X130779672Y-104577716D01*
X130747266Y-104617203D01*
X130723186Y-104662254D01*
X130694795Y-104704744D01*
X130675238Y-104751958D01*
X130651159Y-104797007D01*
X130636331Y-104845887D01*
X130616774Y-104893102D01*
X130606804Y-104943223D01*
X130591976Y-104992105D01*
X130586969Y-105042943D01*
X130577000Y-105093061D01*
X130577000Y-105144162D01*
X130571993Y-105195000D01*
X130577000Y-105245838D01*
X130577000Y-105296939D01*
X130586969Y-105347057D01*
X130591976Y-105397895D01*
X130606804Y-105446777D01*
X130616774Y-105496898D01*
X130636331Y-105544113D01*
X130651159Y-105592993D01*
X130675238Y-105638042D01*
X130694795Y-105685256D01*
X130723186Y-105727746D01*
X130747266Y-105772797D01*
X130779672Y-105812284D01*
X130784828Y-105820000D01*
X128342827Y-105820000D01*
X128291999Y-105814994D01*
X128241171Y-105820000D01*
X128241162Y-105820000D01*
X128089105Y-105834976D01*
X127894007Y-105894159D01*
X127770580Y-105960132D01*
X132305712Y-101425000D01*
X152333928Y-101425000D01*
X152346188Y-101549482D01*
X152382498Y-101669180D01*
X152441463Y-101779494D01*
X152520815Y-101876185D01*
X152617506Y-101955537D01*
X152727820Y-102014502D01*
X152847518Y-102050812D01*
X152972000Y-102063072D01*
X153536250Y-102060000D01*
X153695000Y-101901250D01*
X153695000Y-100702000D01*
X152495750Y-100702000D01*
X152337000Y-100860750D01*
X152333928Y-101425000D01*
X132305712Y-101425000D01*
X134005712Y-99725000D01*
X152333928Y-99725000D01*
X152337000Y-100289250D01*
X152495750Y-100448000D01*
X153695000Y-100448000D01*
X153695000Y-99248750D01*
X153949000Y-99248750D01*
X153949000Y-100448000D01*
X153969000Y-100448000D01*
X153969000Y-100702000D01*
X153949000Y-100702000D01*
X153949000Y-101901250D01*
X154107750Y-102060000D01*
X154672000Y-102063072D01*
X154796482Y-102050812D01*
X154916180Y-102014502D01*
X155026494Y-101955537D01*
X155092000Y-101901778D01*
X155157506Y-101955537D01*
X155267820Y-102014502D01*
X155387518Y-102050812D01*
X155512000Y-102063072D01*
X157212000Y-102063072D01*
X157336482Y-102050812D01*
X157456180Y-102014502D01*
X157566494Y-101955537D01*
X157663185Y-101876185D01*
X157742537Y-101779494D01*
X157801502Y-101669180D01*
X157837812Y-101549482D01*
X157850072Y-101425000D01*
X157850072Y-99725000D01*
X157837812Y-99600518D01*
X157801502Y-99480820D01*
X157742537Y-99370506D01*
X157663185Y-99273815D01*
X157566494Y-99194463D01*
X157456180Y-99135498D01*
X157336482Y-99099188D01*
X157212000Y-99086928D01*
X155512000Y-99086928D01*
X155387518Y-99099188D01*
X155267820Y-99135498D01*
X155157506Y-99194463D01*
X155092000Y-99248222D01*
X155026494Y-99194463D01*
X154916180Y-99135498D01*
X154796482Y-99099188D01*
X154672000Y-99086928D01*
X154107750Y-99090000D01*
X153949000Y-99248750D01*
X153695000Y-99248750D01*
X153536250Y-99090000D01*
X152972000Y-99086928D01*
X152847518Y-99099188D01*
X152727820Y-99135498D01*
X152617506Y-99194463D01*
X152520815Y-99273815D01*
X152441463Y-99370506D01*
X152382498Y-99480820D01*
X152346188Y-99600518D01*
X152333928Y-99725000D01*
X134005712Y-99725000D01*
X137670713Y-96060000D01*
X157141172Y-96060000D01*
X157192000Y-96065006D01*
X157242828Y-96060000D01*
X157242838Y-96060000D01*
X157394895Y-96045024D01*
X157589993Y-95985841D01*
X157769797Y-95889734D01*
X157927396Y-95760396D01*
X157959807Y-95720903D01*
X159234344Y-94446367D01*
X159235236Y-94448036D01*
X159254795Y-94495256D01*
X159283187Y-94537748D01*
X159307266Y-94582797D01*
X159339671Y-94622283D01*
X159368063Y-94664774D01*
X159414217Y-94710928D01*
X159446624Y-94750416D01*
X159486112Y-94782823D01*
X159512226Y-94808937D01*
X159542933Y-94829455D01*
X159604223Y-94879754D01*
X159674149Y-94917130D01*
X159681744Y-94922205D01*
X159690184Y-94925701D01*
X159784027Y-94975861D01*
X159979125Y-95035044D01*
X160131182Y-95050020D01*
X160131191Y-95050020D01*
X160175873Y-95054421D01*
X160177000Y-95065868D01*
X160177000Y-95116969D01*
X160186969Y-95167087D01*
X160191976Y-95217925D01*
X160206804Y-95266807D01*
X160216774Y-95316928D01*
X160236331Y-95364143D01*
X160251159Y-95413023D01*
X160275238Y-95458072D01*
X160294795Y-95505286D01*
X160323186Y-95547776D01*
X160347266Y-95592827D01*
X160379672Y-95632314D01*
X160408063Y-95674804D01*
X160444197Y-95710938D01*
X160476604Y-95750426D01*
X160516092Y-95782833D01*
X160552226Y-95818967D01*
X160594716Y-95847358D01*
X160634203Y-95879764D01*
X160679254Y-95903844D01*
X160721744Y-95932235D01*
X160768958Y-95951792D01*
X160814007Y-95975871D01*
X160862887Y-95990699D01*
X160910102Y-96010256D01*
X160960223Y-96020226D01*
X161009105Y-96035054D01*
X161059943Y-96040061D01*
X161110061Y-96050030D01*
X192981142Y-96050030D01*
X193031970Y-96055036D01*
X193082798Y-96050030D01*
X193082808Y-96050030D01*
X193234865Y-96035054D01*
X193429963Y-95975871D01*
X193609767Y-95879764D01*
X193767366Y-95750426D01*
X193799777Y-95710933D01*
X196919803Y-92590908D01*
X196955937Y-92554774D01*
X196984325Y-92512288D01*
X197016734Y-92472798D01*
X197040816Y-92427744D01*
X197069205Y-92385256D01*
X197088762Y-92338041D01*
X197112840Y-92292994D01*
X197127666Y-92244120D01*
X197147226Y-92196898D01*
X197157197Y-92146768D01*
X197172023Y-92097895D01*
X197177030Y-92047064D01*
X197187000Y-91996939D01*
X197187000Y-91945835D01*
X197192007Y-91895000D01*
X197187000Y-91844165D01*
X197187000Y-91793061D01*
X197177030Y-91742936D01*
X197172023Y-91692105D01*
X197157197Y-91643232D01*
X197147226Y-91593102D01*
X197127665Y-91545878D01*
X197112840Y-91497007D01*
X197088764Y-91451964D01*
X197069205Y-91404744D01*
X197040813Y-91362252D01*
X197016734Y-91317203D01*
X196984328Y-91277716D01*
X196955937Y-91235226D01*
X196919803Y-91199092D01*
X196887396Y-91159604D01*
X196847908Y-91127197D01*
X196811774Y-91091063D01*
X196769284Y-91062672D01*
X196729797Y-91030266D01*
X196684748Y-91006187D01*
X196642256Y-90977795D01*
X196595036Y-90958236D01*
X196549993Y-90934160D01*
X196501122Y-90919335D01*
X196453898Y-90899774D01*
X196403768Y-90889803D01*
X196354895Y-90874977D01*
X196304064Y-90869970D01*
X196253939Y-90860000D01*
X196202835Y-90860000D01*
X196152000Y-90854993D01*
X196101165Y-90860000D01*
X196050061Y-90860000D01*
X195999936Y-90869970D01*
X195949105Y-90874977D01*
X195900232Y-90889803D01*
X195850102Y-90899774D01*
X195802880Y-90919334D01*
X195754006Y-90934160D01*
X195708959Y-90958238D01*
X195661744Y-90977795D01*
X195619256Y-91006184D01*
X195574202Y-91030266D01*
X195534712Y-91062675D01*
X195492226Y-91091063D01*
X195456092Y-91127197D01*
X192603260Y-93980030D01*
X185260680Y-93980030D01*
X186674803Y-92565908D01*
X186710937Y-92529774D01*
X186739325Y-92487288D01*
X186771734Y-92447798D01*
X186795816Y-92402744D01*
X186824205Y-92360256D01*
X186843762Y-92313041D01*
X186867840Y-92267994D01*
X186882666Y-92219119D01*
X186902226Y-92171898D01*
X186912197Y-92121771D01*
X186927023Y-92072896D01*
X186932029Y-92022066D01*
X186942000Y-91971939D01*
X186942000Y-91920829D01*
X186947006Y-91870001D01*
X186942000Y-91819173D01*
X186942000Y-91768061D01*
X186932029Y-91717932D01*
X186927023Y-91667106D01*
X186912198Y-91618234D01*
X186902226Y-91568102D01*
X186882665Y-91520877D01*
X186867840Y-91472007D01*
X186843764Y-91426964D01*
X186824205Y-91379744D01*
X186795813Y-91337252D01*
X186771734Y-91292203D01*
X186739330Y-91252719D01*
X186710937Y-91210226D01*
X186674795Y-91174084D01*
X186642395Y-91134605D01*
X186602916Y-91102205D01*
X186566774Y-91066063D01*
X186524281Y-91037670D01*
X186484797Y-91005266D01*
X186439748Y-90981187D01*
X186397256Y-90952795D01*
X186350036Y-90933236D01*
X186304993Y-90909160D01*
X186256123Y-90894335D01*
X186208898Y-90874774D01*
X186158766Y-90864802D01*
X186109894Y-90849977D01*
X186059068Y-90844971D01*
X186008939Y-90835000D01*
X185957827Y-90835000D01*
X185906999Y-90829994D01*
X185856171Y-90835000D01*
X185805061Y-90835000D01*
X185754934Y-90844971D01*
X185704104Y-90849977D01*
X185655229Y-90864803D01*
X185605102Y-90874774D01*
X185557881Y-90894334D01*
X185509006Y-90909160D01*
X185463959Y-90933238D01*
X185416744Y-90952795D01*
X185374256Y-90981184D01*
X185329202Y-91005266D01*
X185289712Y-91037675D01*
X185247226Y-91066063D01*
X185211092Y-91102197D01*
X183333270Y-92980020D01*
X176160691Y-92980020D01*
X176600937Y-92539774D01*
X176629325Y-92497288D01*
X176661734Y-92457798D01*
X176685817Y-92412742D01*
X176714205Y-92370256D01*
X176733760Y-92323047D01*
X176757841Y-92277994D01*
X176772669Y-92229113D01*
X176792226Y-92181898D01*
X176802197Y-92131771D01*
X176817023Y-92082895D01*
X176822030Y-92032064D01*
X176832000Y-91981939D01*
X176832000Y-91930835D01*
X176837007Y-91880000D01*
X176832000Y-91829165D01*
X176832000Y-91778061D01*
X176822030Y-91727936D01*
X176817023Y-91677105D01*
X176802197Y-91628230D01*
X176792226Y-91578102D01*
X176772668Y-91530885D01*
X176757841Y-91482007D01*
X176733762Y-91436958D01*
X176714205Y-91389744D01*
X176685814Y-91347254D01*
X176661734Y-91302203D01*
X176629328Y-91262716D01*
X176600937Y-91220226D01*
X176564803Y-91184092D01*
X176532396Y-91144604D01*
X176492908Y-91112197D01*
X176456774Y-91076063D01*
X176414284Y-91047672D01*
X176374797Y-91015266D01*
X176329746Y-90991186D01*
X176287256Y-90962795D01*
X176240042Y-90943238D01*
X176194993Y-90919159D01*
X176146115Y-90904332D01*
X176098898Y-90884774D01*
X176048770Y-90874803D01*
X175999895Y-90859977D01*
X175949064Y-90854970D01*
X175898939Y-90845000D01*
X175847835Y-90845000D01*
X175797000Y-90839993D01*
X175746165Y-90845000D01*
X175695061Y-90845000D01*
X175644936Y-90854970D01*
X175594105Y-90859977D01*
X175545229Y-90874803D01*
X175495102Y-90884774D01*
X175447887Y-90904331D01*
X175399006Y-90919159D01*
X175353953Y-90943240D01*
X175306744Y-90962795D01*
X175264258Y-90991183D01*
X175219202Y-91015266D01*
X175179712Y-91047675D01*
X175137226Y-91076063D01*
X175101092Y-91112197D01*
X174233280Y-91980010D01*
X166608561Y-91980010D01*
X166607000Y-91964162D01*
X166607000Y-91913061D01*
X166597031Y-91862943D01*
X166592024Y-91812105D01*
X166577196Y-91763223D01*
X166567226Y-91713102D01*
X166547669Y-91665887D01*
X166532841Y-91617007D01*
X166508762Y-91571958D01*
X166489205Y-91524744D01*
X166460814Y-91482254D01*
X166436734Y-91437203D01*
X166404328Y-91397716D01*
X166375937Y-91355226D01*
X166339803Y-91319092D01*
X166307396Y-91279604D01*
X166267908Y-91247197D01*
X166231774Y-91211063D01*
X166189284Y-91182672D01*
X166149797Y-91150266D01*
X166104746Y-91126186D01*
X166062256Y-91097795D01*
X166015042Y-91078238D01*
X165969993Y-91054159D01*
X165921113Y-91039331D01*
X165873898Y-91019774D01*
X165823777Y-91009804D01*
X165774895Y-90994976D01*
X165724057Y-90989969D01*
X165673939Y-90980000D01*
X162200711Y-90980000D01*
X160805950Y-89585240D01*
X160805948Y-89585237D01*
X160661785Y-89441074D01*
X160619294Y-89412682D01*
X160579808Y-89380277D01*
X160534759Y-89356198D01*
X160492267Y-89327806D01*
X160445047Y-89308247D01*
X160400004Y-89284171D01*
X160351133Y-89269346D01*
X160303909Y-89249785D01*
X160253779Y-89239814D01*
X160204906Y-89224988D01*
X160154078Y-89219982D01*
X160103950Y-89210011D01*
X160052839Y-89210011D01*
X160002011Y-89205005D01*
X159951183Y-89210011D01*
X159900072Y-89210011D01*
X159849944Y-89219982D01*
X159799116Y-89224988D01*
X159750243Y-89239814D01*
X159700113Y-89249785D01*
X159652889Y-89269346D01*
X159604018Y-89284171D01*
X159558975Y-89308247D01*
X159511755Y-89327806D01*
X159469263Y-89356198D01*
X159424214Y-89380277D01*
X159384727Y-89412683D01*
X159342237Y-89441074D01*
X159306103Y-89477208D01*
X159266615Y-89509615D01*
X159234208Y-89549103D01*
X159198074Y-89585237D01*
X159169683Y-89627727D01*
X159137277Y-89667214D01*
X159113198Y-89712263D01*
X159084806Y-89754755D01*
X159065247Y-89801975D01*
X159041171Y-89847018D01*
X159026346Y-89895889D01*
X159006785Y-89943113D01*
X158996814Y-89993243D01*
X158981988Y-90042116D01*
X158976982Y-90092944D01*
X158967011Y-90143072D01*
X158967011Y-90194183D01*
X158962005Y-90245011D01*
X158967011Y-90295839D01*
X158967011Y-90346950D01*
X158976982Y-90397078D01*
X158981988Y-90447906D01*
X158996814Y-90496779D01*
X159006785Y-90546909D01*
X159026346Y-90594133D01*
X159041171Y-90643004D01*
X159065247Y-90688047D01*
X159084806Y-90735267D01*
X159113198Y-90777759D01*
X159137277Y-90822808D01*
X159169682Y-90862294D01*
X159198074Y-90904785D01*
X159342237Y-91048948D01*
X159342240Y-91048950D01*
X160263288Y-91969999D01*
X159262836Y-91969999D01*
X159212001Y-91964992D01*
X159161166Y-91969999D01*
X159161163Y-91969999D01*
X159009106Y-91984975D01*
X158814008Y-92044158D01*
X158760243Y-92072896D01*
X158634203Y-92140265D01*
X158539611Y-92217895D01*
X158476605Y-92269603D01*
X158444198Y-92309091D01*
X157860072Y-92893217D01*
X157860072Y-92305000D01*
X157847812Y-92180518D01*
X157811502Y-92060820D01*
X157752537Y-91950506D01*
X157673185Y-91853815D01*
X157576494Y-91774463D01*
X157466180Y-91715498D01*
X157346482Y-91679188D01*
X157222000Y-91666928D01*
X155522000Y-91666928D01*
X155397518Y-91679188D01*
X155277820Y-91715498D01*
X155167506Y-91774463D01*
X155102000Y-91828222D01*
X155036494Y-91774463D01*
X154926180Y-91715498D01*
X154806482Y-91679188D01*
X154682000Y-91666928D01*
X154221274Y-91669436D01*
X155027908Y-90862803D01*
X155067396Y-90830396D01*
X155099803Y-90790908D01*
X155196734Y-90672798D01*
X155292840Y-90492994D01*
X155292841Y-90492993D01*
X155352024Y-90297895D01*
X155367000Y-90145838D01*
X155367000Y-90145829D01*
X155372006Y-90095001D01*
X155367000Y-90044173D01*
X155367000Y-87482308D01*
X208335992Y-87501403D01*
X208336999Y-110241506D01*
X208279100Y-110832009D01*
X208117335Y-111367800D01*
X207854580Y-111861972D01*
X207500847Y-112295690D01*
X207069606Y-112652444D01*
X206577281Y-112918642D01*
X206042638Y-113084142D01*
X205454130Y-113145996D01*
X110948800Y-113111351D01*
X110944233Y-111706269D01*
X111840336Y-111706269D01*
X111899797Y-111940037D01*
X112138242Y-112050934D01*
X112393740Y-112113183D01*
X112656473Y-112124390D01*
X112916344Y-112084125D01*
X113163366Y-111993935D01*
X113264203Y-111940037D01*
X113323664Y-111706269D01*
X112582000Y-110964605D01*
X111840336Y-111706269D01*
X110944233Y-111706269D01*
X110941480Y-110859473D01*
X111242610Y-110859473D01*
X111282875Y-111119344D01*
X111373065Y-111366366D01*
X111426963Y-111467203D01*
X111660731Y-111526664D01*
X112402395Y-110785000D01*
X111660731Y-110043336D01*
X111426963Y-110102797D01*
X111316066Y-110341242D01*
X111253817Y-110596740D01*
X111242610Y-110859473D01*
X110941480Y-110859473D01*
X110850658Y-82919473D01*
X111242610Y-82919473D01*
X111282875Y-83179344D01*
X111373065Y-83426366D01*
X111426963Y-83527203D01*
X111660731Y-83586664D01*
X112402395Y-82845000D01*
X111660731Y-82103336D01*
X111426963Y-82162797D01*
X111316066Y-82401242D01*
X111253817Y-82656740D01*
X111242610Y-82919473D01*
X110850658Y-82919473D01*
X110847421Y-81923731D01*
X111840336Y-81923731D01*
X112582000Y-82665395D01*
X113323664Y-81923731D01*
X113264203Y-81689963D01*
X113025758Y-81579066D01*
X112770260Y-81516817D01*
X112507527Y-81505610D01*
X112247656Y-81545875D01*
X112000634Y-81636065D01*
X111899797Y-81689963D01*
X111840336Y-81923731D01*
X110847421Y-81923731D01*
X110840249Y-79717615D01*
X110837823Y-79693319D01*
X110830609Y-79669491D01*
X110818885Y-79647528D01*
X110803101Y-79628274D01*
X110783865Y-79612470D01*
X110761915Y-79600722D01*
X110738094Y-79593482D01*
X110713319Y-79591028D01*
X102214391Y-79586400D01*
X102215007Y-74011000D01*
X113321328Y-74011000D01*
X113333588Y-74135482D01*
X113369898Y-74255180D01*
X113428863Y-74365494D01*
X113508215Y-74462185D01*
X113604906Y-74541537D01*
X113715220Y-74600502D01*
X113834918Y-74636812D01*
X113959400Y-74649072D01*
X114423650Y-74646000D01*
X114582400Y-74487250D01*
X114582400Y-73613000D01*
X114836400Y-73613000D01*
X114836400Y-74487250D01*
X114995150Y-74646000D01*
X115459400Y-74649072D01*
X115583882Y-74636812D01*
X115703580Y-74600502D01*
X115813894Y-74541537D01*
X115910585Y-74462185D01*
X115989937Y-74365494D01*
X116048902Y-74255180D01*
X116085212Y-74135482D01*
X116097472Y-74011000D01*
X116094400Y-73771750D01*
X115935650Y-73613000D01*
X114836400Y-73613000D01*
X114582400Y-73613000D01*
X113483150Y-73613000D01*
X113324400Y-73771750D01*
X113321328Y-74011000D01*
X102215007Y-74011000D01*
X102215058Y-73545000D01*
X120663928Y-73545000D01*
X120663928Y-75245000D01*
X120676188Y-75369482D01*
X120712498Y-75489180D01*
X120771463Y-75599494D01*
X120850815Y-75696185D01*
X120947506Y-75775537D01*
X121057820Y-75834502D01*
X121177518Y-75870812D01*
X121302000Y-75883072D01*
X123002000Y-75883072D01*
X123126482Y-75870812D01*
X123246180Y-75834502D01*
X123356494Y-75775537D01*
X123453185Y-75696185D01*
X123532537Y-75599494D01*
X123591502Y-75489180D01*
X123627812Y-75369482D01*
X123640072Y-75245000D01*
X123640072Y-73545000D01*
X123627812Y-73420518D01*
X123591502Y-73300820D01*
X123532537Y-73190506D01*
X123453185Y-73093815D01*
X123356494Y-73014463D01*
X123246180Y-72955498D01*
X123126482Y-72919188D01*
X123002000Y-72906928D01*
X121302000Y-72906928D01*
X121177518Y-72919188D01*
X121057820Y-72955498D01*
X120947506Y-73014463D01*
X120850815Y-73093815D01*
X120771463Y-73190506D01*
X120712498Y-73300820D01*
X120676188Y-73420518D01*
X120663928Y-73545000D01*
X102215058Y-73545000D01*
X102215346Y-70946000D01*
X113318788Y-70946000D01*
X113341185Y-71173400D01*
X113407515Y-71392060D01*
X113508505Y-71581000D01*
X113407515Y-71769940D01*
X113341185Y-71988600D01*
X113318788Y-72216000D01*
X113341185Y-72443400D01*
X113404493Y-72652098D01*
X113369898Y-72716820D01*
X113333588Y-72836518D01*
X113321328Y-72961000D01*
X113324400Y-73200250D01*
X113483150Y-73359000D01*
X114256291Y-73359000D01*
X114257000Y-73359215D01*
X114427421Y-73376000D01*
X114991379Y-73376000D01*
X115161800Y-73359215D01*
X115162509Y-73359000D01*
X115935650Y-73359000D01*
X116094400Y-73200250D01*
X116097472Y-72961000D01*
X116085212Y-72836518D01*
X116066950Y-72776314D01*
X138242500Y-72776314D01*
X138242500Y-73027285D01*
X138265470Y-73260503D01*
X138356245Y-73559748D01*
X138503655Y-73835534D01*
X138702037Y-74077263D01*
X138943765Y-74275645D01*
X139219551Y-74423055D01*
X139518796Y-74513830D01*
X139830000Y-74544481D01*
X140141203Y-74513830D01*
X140440448Y-74423055D01*
X140716234Y-74275645D01*
X140957963Y-74077263D01*
X141105163Y-73897901D01*
X141260563Y-74083115D01*
X141503077Y-74277769D01*
X141778906Y-74421371D01*
X141997020Y-74492363D01*
X142243000Y-74372394D01*
X142243000Y-73028800D01*
X142223000Y-73028800D01*
X142223000Y-72774800D01*
X142243000Y-72774800D01*
X142243000Y-71431206D01*
X142497000Y-71431206D01*
X142497000Y-72774800D01*
X142517000Y-72774800D01*
X142517000Y-73028800D01*
X142497000Y-73028800D01*
X142497000Y-74372394D01*
X142742980Y-74492363D01*
X142961094Y-74421371D01*
X143236923Y-74277769D01*
X143377941Y-74164581D01*
X143426963Y-74256294D01*
X143506315Y-74352985D01*
X143603006Y-74432337D01*
X143713320Y-74491302D01*
X143833018Y-74527612D01*
X143957500Y-74539872D01*
X145862500Y-74539872D01*
X145986982Y-74527612D01*
X146106680Y-74491302D01*
X146216994Y-74432337D01*
X146313685Y-74352985D01*
X146393037Y-74256294D01*
X146452002Y-74145980D01*
X146488312Y-74026282D01*
X146500572Y-73901800D01*
X146500572Y-71901800D01*
X146488312Y-71777318D01*
X146452002Y-71657620D01*
X146393037Y-71547306D01*
X146313685Y-71450615D01*
X146216994Y-71371263D01*
X146106680Y-71312298D01*
X145986982Y-71275988D01*
X145862500Y-71263728D01*
X143957500Y-71263728D01*
X143833018Y-71275988D01*
X143713320Y-71312298D01*
X143603006Y-71371263D01*
X143506315Y-71450615D01*
X143426963Y-71547306D01*
X143377941Y-71639019D01*
X143236923Y-71525831D01*
X142961094Y-71382229D01*
X142742980Y-71311237D01*
X142497000Y-71431206D01*
X142243000Y-71431206D01*
X141997020Y-71311237D01*
X141778906Y-71382229D01*
X141503077Y-71525831D01*
X141260563Y-71720485D01*
X141105162Y-71905700D01*
X140957963Y-71726337D01*
X140716235Y-71527955D01*
X140440449Y-71380545D01*
X140141204Y-71289770D01*
X139830000Y-71259119D01*
X139518797Y-71289770D01*
X139219552Y-71380545D01*
X138943766Y-71527955D01*
X138702037Y-71726337D01*
X138503655Y-71968065D01*
X138356245Y-72243851D01*
X138265470Y-72543096D01*
X138242500Y-72776314D01*
X116066950Y-72776314D01*
X116048902Y-72716820D01*
X116014307Y-72652098D01*
X116077615Y-72443400D01*
X116100012Y-72216000D01*
X116077615Y-71988600D01*
X116011285Y-71769940D01*
X115910295Y-71581000D01*
X116011285Y-71392060D01*
X116077615Y-71173400D01*
X116100012Y-70946000D01*
X116077615Y-70718600D01*
X116011285Y-70499940D01*
X115903571Y-70298421D01*
X115758612Y-70121788D01*
X115581979Y-69976829D01*
X115380460Y-69869115D01*
X115161800Y-69802785D01*
X114991379Y-69786000D01*
X114427421Y-69786000D01*
X114257000Y-69802785D01*
X114038340Y-69869115D01*
X113836821Y-69976829D01*
X113660188Y-70121788D01*
X113515229Y-70298421D01*
X113407515Y-70499940D01*
X113341185Y-70718600D01*
X113318788Y-70946000D01*
X102215346Y-70946000D01*
X102216222Y-63024419D01*
X107867000Y-63024419D01*
X107867000Y-63405581D01*
X107941361Y-63779419D01*
X108087225Y-64131566D01*
X108298987Y-64448491D01*
X108568509Y-64718013D01*
X108885434Y-64929775D01*
X109237581Y-65075639D01*
X109611419Y-65150000D01*
X109992581Y-65150000D01*
X110366419Y-65075639D01*
X110718566Y-64929775D01*
X111035491Y-64718013D01*
X111305013Y-64448491D01*
X111516775Y-64131566D01*
X111662639Y-63779419D01*
X111737000Y-63405581D01*
X111737000Y-63024419D01*
X111662639Y-62650581D01*
X111516775Y-62298434D01*
X111305013Y-61981509D01*
X111035491Y-61711987D01*
X110718566Y-61500225D01*
X110366419Y-61354361D01*
X109992581Y-61280000D01*
X109611419Y-61280000D01*
X109237581Y-61354361D01*
X108885434Y-61500225D01*
X108568509Y-61711987D01*
X108298987Y-61981509D01*
X108087225Y-62298434D01*
X107941361Y-62650581D01*
X107867000Y-63024419D01*
X102216222Y-63024419D01*
X102216611Y-59515000D01*
X107863928Y-59515000D01*
X107876188Y-59639482D01*
X107912498Y-59759180D01*
X107971463Y-59869494D01*
X108050815Y-59966185D01*
X108147506Y-60045537D01*
X108257820Y-60104502D01*
X108377518Y-60140812D01*
X108502000Y-60153072D01*
X109516250Y-60150000D01*
X109675000Y-59991250D01*
X109675000Y-58342000D01*
X109929000Y-58342000D01*
X109929000Y-59991250D01*
X110087750Y-60150000D01*
X111102000Y-60153072D01*
X111226482Y-60140812D01*
X111346180Y-60104502D01*
X111456494Y-60045537D01*
X111553185Y-59966185D01*
X111556684Y-59961921D01*
X114866400Y-59961921D01*
X114866400Y-60382479D01*
X114948447Y-60794956D01*
X115109388Y-61183502D01*
X115343037Y-61533183D01*
X115640417Y-61830563D01*
X115990098Y-62064212D01*
X116378644Y-62225153D01*
X116791121Y-62307200D01*
X117211679Y-62307200D01*
X117624156Y-62225153D01*
X118012702Y-62064212D01*
X118362383Y-61830563D01*
X118659763Y-61533183D01*
X118893412Y-61183502D01*
X119054353Y-60794956D01*
X119136400Y-60382479D01*
X119136400Y-59961921D01*
X137466400Y-59961921D01*
X137466400Y-60382479D01*
X137548447Y-60794956D01*
X137709388Y-61183502D01*
X137943037Y-61533183D01*
X138240417Y-61830563D01*
X138590098Y-62064212D01*
X138978644Y-62225153D01*
X139391121Y-62307200D01*
X139811679Y-62307200D01*
X140224156Y-62225153D01*
X140612702Y-62064212D01*
X140962383Y-61830563D01*
X141068300Y-61724646D01*
X141068300Y-62900724D01*
X141050594Y-63080500D01*
X141070577Y-63283395D01*
X141129760Y-63478493D01*
X141225866Y-63658297D01*
X141280949Y-63725415D01*
X141299363Y-63752974D01*
X141335497Y-63789108D01*
X141367904Y-63828596D01*
X141407392Y-63861003D01*
X141443526Y-63897137D01*
X141486016Y-63925528D01*
X141525503Y-63957934D01*
X141570554Y-63982014D01*
X141613044Y-64010405D01*
X141660258Y-64029962D01*
X141705307Y-64054041D01*
X141754187Y-64068869D01*
X141801402Y-64088426D01*
X141851523Y-64098396D01*
X141900405Y-64113224D01*
X141951243Y-64118231D01*
X142001361Y-64128200D01*
X142052462Y-64128200D01*
X142103300Y-64133207D01*
X142154138Y-64128200D01*
X142205239Y-64128200D01*
X142255358Y-64118231D01*
X142306194Y-64113224D01*
X142355074Y-64098396D01*
X142405198Y-64088426D01*
X142452415Y-64068868D01*
X142501293Y-64054041D01*
X142546342Y-64029962D01*
X142593556Y-64010405D01*
X142636046Y-63982014D01*
X142681097Y-63957934D01*
X142720584Y-63925528D01*
X142763074Y-63897137D01*
X142799208Y-63861003D01*
X142819069Y-63844703D01*
X142850355Y-63903235D01*
X143048737Y-64144963D01*
X143290465Y-64343345D01*
X143566251Y-64490755D01*
X143865496Y-64581530D01*
X144098714Y-64604500D01*
X144349686Y-64604500D01*
X144582904Y-64581530D01*
X144882149Y-64490755D01*
X145157935Y-64343345D01*
X145399663Y-64144963D01*
X145598045Y-63903235D01*
X145745455Y-63627449D01*
X145836230Y-63328204D01*
X145866881Y-63017000D01*
X145836230Y-62705796D01*
X145745455Y-62406551D01*
X145598045Y-62130765D01*
X145399663Y-61889037D01*
X145226591Y-61747000D01*
X145399663Y-61604963D01*
X145598045Y-61363235D01*
X145745455Y-61087449D01*
X145836230Y-60788204D01*
X145864483Y-60501344D01*
X162107000Y-60501344D01*
X162107000Y-60872656D01*
X162179439Y-61236834D01*
X162321534Y-61579882D01*
X162527825Y-61888618D01*
X162790382Y-62151175D01*
X163099118Y-62357466D01*
X163442166Y-62499561D01*
X163806344Y-62572000D01*
X164177656Y-62572000D01*
X164541834Y-62499561D01*
X164884882Y-62357466D01*
X165193618Y-62151175D01*
X165456175Y-61888618D01*
X165662466Y-61579882D01*
X165804561Y-61236834D01*
X165877000Y-60872656D01*
X165877000Y-60501344D01*
X165804561Y-60137166D01*
X165662466Y-59794118D01*
X165456175Y-59485382D01*
X165407793Y-59437000D01*
X167183928Y-59437000D01*
X167183928Y-61937000D01*
X167196188Y-62061482D01*
X167232498Y-62181180D01*
X167291463Y-62291494D01*
X167370815Y-62388185D01*
X167467506Y-62467537D01*
X167577820Y-62526502D01*
X167697518Y-62562812D01*
X167822000Y-62575072D01*
X170322000Y-62575072D01*
X170446482Y-62562812D01*
X170566180Y-62526502D01*
X170676494Y-62467537D01*
X170773185Y-62388185D01*
X170852537Y-62291494D01*
X170911502Y-62181180D01*
X170947812Y-62061482D01*
X170960072Y-61937000D01*
X170960072Y-60499344D01*
X172257000Y-60499344D01*
X172257000Y-60870656D01*
X172329439Y-61234834D01*
X172471534Y-61577882D01*
X172677825Y-61886618D01*
X172940382Y-62149175D01*
X173249118Y-62355466D01*
X173592166Y-62497561D01*
X173956344Y-62570000D01*
X174327656Y-62570000D01*
X174691834Y-62497561D01*
X175034882Y-62355466D01*
X175343618Y-62149175D01*
X175606175Y-61886618D01*
X175812466Y-61577882D01*
X175954561Y-61234834D01*
X176027000Y-60870656D01*
X176027000Y-60499344D01*
X175954561Y-60135166D01*
X175812466Y-59792118D01*
X175606175Y-59483382D01*
X175557793Y-59435000D01*
X177333928Y-59435000D01*
X177333928Y-61935000D01*
X177346188Y-62059482D01*
X177382498Y-62179180D01*
X177441463Y-62289494D01*
X177520815Y-62386185D01*
X177617506Y-62465537D01*
X177727820Y-62524502D01*
X177847518Y-62560812D01*
X177972000Y-62573072D01*
X180472000Y-62573072D01*
X180596482Y-62560812D01*
X180716180Y-62524502D01*
X180826494Y-62465537D01*
X180923185Y-62386185D01*
X181002537Y-62289494D01*
X181061502Y-62179180D01*
X181097812Y-62059482D01*
X181110072Y-61935000D01*
X181110072Y-60489344D01*
X182407000Y-60489344D01*
X182407000Y-60860656D01*
X182479439Y-61224834D01*
X182621534Y-61567882D01*
X182827825Y-61876618D01*
X183090382Y-62139175D01*
X183399118Y-62345466D01*
X183742166Y-62487561D01*
X184106344Y-62560000D01*
X184477656Y-62560000D01*
X184841834Y-62487561D01*
X185184882Y-62345466D01*
X185493618Y-62139175D01*
X185756175Y-61876618D01*
X185962466Y-61567882D01*
X186104561Y-61224834D01*
X186177000Y-60860656D01*
X186177000Y-60489344D01*
X186104561Y-60125166D01*
X185962466Y-59782118D01*
X185756175Y-59473382D01*
X185707793Y-59425000D01*
X187483928Y-59425000D01*
X187483928Y-61925000D01*
X187496188Y-62049482D01*
X187532498Y-62169180D01*
X187591463Y-62279494D01*
X187670815Y-62376185D01*
X187767506Y-62455537D01*
X187877820Y-62514502D01*
X187997518Y-62550812D01*
X188122000Y-62563072D01*
X190622000Y-62563072D01*
X190746482Y-62550812D01*
X190866180Y-62514502D01*
X190976494Y-62455537D01*
X191073185Y-62376185D01*
X191152537Y-62279494D01*
X191211502Y-62169180D01*
X191247812Y-62049482D01*
X191260072Y-61925000D01*
X191260072Y-60479344D01*
X192557000Y-60479344D01*
X192557000Y-60850656D01*
X192629439Y-61214834D01*
X192771534Y-61557882D01*
X192977825Y-61866618D01*
X193240382Y-62129175D01*
X193549118Y-62335466D01*
X193892166Y-62477561D01*
X194256344Y-62550000D01*
X194627656Y-62550000D01*
X194991834Y-62477561D01*
X195334882Y-62335466D01*
X195643618Y-62129175D01*
X195906175Y-61866618D01*
X196112466Y-61557882D01*
X196254561Y-61214834D01*
X196327000Y-60850656D01*
X196327000Y-60479344D01*
X196254561Y-60115166D01*
X196112466Y-59772118D01*
X195906175Y-59463382D01*
X195857793Y-59415000D01*
X197633928Y-59415000D01*
X197633928Y-61915000D01*
X197646188Y-62039482D01*
X197682498Y-62159180D01*
X197741463Y-62269494D01*
X197820815Y-62366185D01*
X197917506Y-62445537D01*
X198027820Y-62504502D01*
X198147518Y-62540812D01*
X198272000Y-62553072D01*
X200772000Y-62553072D01*
X200896482Y-62540812D01*
X201016180Y-62504502D01*
X201126494Y-62445537D01*
X201223185Y-62366185D01*
X201302537Y-62269494D01*
X201361502Y-62159180D01*
X201397812Y-62039482D01*
X201410072Y-61915000D01*
X201410072Y-59415000D01*
X201397812Y-59290518D01*
X201361502Y-59170820D01*
X201302537Y-59060506D01*
X201223185Y-58963815D01*
X201126494Y-58884463D01*
X201016180Y-58825498D01*
X200896482Y-58789188D01*
X200772000Y-58776928D01*
X198272000Y-58776928D01*
X198147518Y-58789188D01*
X198027820Y-58825498D01*
X197917506Y-58884463D01*
X197820815Y-58963815D01*
X197741463Y-59060506D01*
X197682498Y-59170820D01*
X197646188Y-59290518D01*
X197633928Y-59415000D01*
X195857793Y-59415000D01*
X195643618Y-59200825D01*
X195334882Y-58994534D01*
X194991834Y-58852439D01*
X194627656Y-58780000D01*
X194256344Y-58780000D01*
X193892166Y-58852439D01*
X193549118Y-58994534D01*
X193240382Y-59200825D01*
X192977825Y-59463382D01*
X192771534Y-59772118D01*
X192629439Y-60115166D01*
X192557000Y-60479344D01*
X191260072Y-60479344D01*
X191260072Y-59425000D01*
X191247812Y-59300518D01*
X191211502Y-59180820D01*
X191152537Y-59070506D01*
X191073185Y-58973815D01*
X190976494Y-58894463D01*
X190866180Y-58835498D01*
X190746482Y-58799188D01*
X190622000Y-58786928D01*
X188122000Y-58786928D01*
X187997518Y-58799188D01*
X187877820Y-58835498D01*
X187767506Y-58894463D01*
X187670815Y-58973815D01*
X187591463Y-59070506D01*
X187532498Y-59180820D01*
X187496188Y-59300518D01*
X187483928Y-59425000D01*
X185707793Y-59425000D01*
X185493618Y-59210825D01*
X185184882Y-59004534D01*
X184841834Y-58862439D01*
X184477656Y-58790000D01*
X184106344Y-58790000D01*
X183742166Y-58862439D01*
X183399118Y-59004534D01*
X183090382Y-59210825D01*
X182827825Y-59473382D01*
X182621534Y-59782118D01*
X182479439Y-60125166D01*
X182407000Y-60489344D01*
X181110072Y-60489344D01*
X181110072Y-59435000D01*
X181097812Y-59310518D01*
X181061502Y-59190820D01*
X181002537Y-59080506D01*
X180923185Y-58983815D01*
X180826494Y-58904463D01*
X180716180Y-58845498D01*
X180596482Y-58809188D01*
X180472000Y-58796928D01*
X177972000Y-58796928D01*
X177847518Y-58809188D01*
X177727820Y-58845498D01*
X177617506Y-58904463D01*
X177520815Y-58983815D01*
X177441463Y-59080506D01*
X177382498Y-59190820D01*
X177346188Y-59310518D01*
X177333928Y-59435000D01*
X175557793Y-59435000D01*
X175343618Y-59220825D01*
X175034882Y-59014534D01*
X174691834Y-58872439D01*
X174327656Y-58800000D01*
X173956344Y-58800000D01*
X173592166Y-58872439D01*
X173249118Y-59014534D01*
X172940382Y-59220825D01*
X172677825Y-59483382D01*
X172471534Y-59792118D01*
X172329439Y-60135166D01*
X172257000Y-60499344D01*
X170960072Y-60499344D01*
X170960072Y-59437000D01*
X170947812Y-59312518D01*
X170911502Y-59192820D01*
X170852537Y-59082506D01*
X170773185Y-58985815D01*
X170676494Y-58906463D01*
X170566180Y-58847498D01*
X170446482Y-58811188D01*
X170322000Y-58798928D01*
X167822000Y-58798928D01*
X167697518Y-58811188D01*
X167577820Y-58847498D01*
X167467506Y-58906463D01*
X167370815Y-58985815D01*
X167291463Y-59082506D01*
X167232498Y-59192820D01*
X167196188Y-59312518D01*
X167183928Y-59437000D01*
X165407793Y-59437000D01*
X165193618Y-59222825D01*
X164884882Y-59016534D01*
X164541834Y-58874439D01*
X164177656Y-58802000D01*
X163806344Y-58802000D01*
X163442166Y-58874439D01*
X163099118Y-59016534D01*
X162790382Y-59222825D01*
X162527825Y-59485382D01*
X162321534Y-59794118D01*
X162179439Y-60137166D01*
X162107000Y-60501344D01*
X145864483Y-60501344D01*
X145866881Y-60477000D01*
X145836230Y-60165796D01*
X145745455Y-59866551D01*
X145598045Y-59590765D01*
X145494754Y-59464905D01*
X145578694Y-59420037D01*
X145675385Y-59340685D01*
X145754737Y-59243994D01*
X145813702Y-59133680D01*
X145850012Y-59013982D01*
X145862272Y-58889500D01*
X145862272Y-56984500D01*
X145850012Y-56860018D01*
X145813702Y-56740320D01*
X145754737Y-56630006D01*
X145675385Y-56533315D01*
X145578694Y-56453963D01*
X145468380Y-56394998D01*
X145348682Y-56358688D01*
X145224200Y-56346428D01*
X143224200Y-56346428D01*
X143099718Y-56358688D01*
X142980020Y-56394998D01*
X142869706Y-56453963D01*
X142773015Y-56533315D01*
X142693663Y-56630006D01*
X142634698Y-56740320D01*
X142598388Y-56860018D01*
X142593715Y-56907461D01*
X142497105Y-56916976D01*
X142302007Y-56976159D01*
X142218309Y-57020896D01*
X142122202Y-57072266D01*
X142060313Y-57123058D01*
X141964604Y-57201604D01*
X141932193Y-57241097D01*
X141407393Y-57765897D01*
X141367905Y-57798304D01*
X141335498Y-57837792D01*
X141335497Y-57837793D01*
X141238566Y-57955903D01*
X141142460Y-58135707D01*
X141083277Y-58330805D01*
X141063294Y-58533700D01*
X141068301Y-58584538D01*
X141068301Y-58619755D01*
X140962383Y-58513837D01*
X140612702Y-58280188D01*
X140224156Y-58119247D01*
X139811679Y-58037200D01*
X139391121Y-58037200D01*
X138978644Y-58119247D01*
X138590098Y-58280188D01*
X138240417Y-58513837D01*
X137943037Y-58811217D01*
X137709388Y-59160898D01*
X137548447Y-59549444D01*
X137466400Y-59961921D01*
X119136400Y-59961921D01*
X119054353Y-59549444D01*
X118893412Y-59160898D01*
X118659763Y-58811217D01*
X118362383Y-58513837D01*
X118012702Y-58280188D01*
X117624156Y-58119247D01*
X117211679Y-58037200D01*
X116791121Y-58037200D01*
X116378644Y-58119247D01*
X115990098Y-58280188D01*
X115640417Y-58513837D01*
X115343037Y-58811217D01*
X115109388Y-59160898D01*
X114948447Y-59549444D01*
X114866400Y-59961921D01*
X111556684Y-59961921D01*
X111632537Y-59869494D01*
X111691502Y-59759180D01*
X111727812Y-59639482D01*
X111740072Y-59515000D01*
X111737000Y-58500750D01*
X111578250Y-58342000D01*
X109929000Y-58342000D01*
X109675000Y-58342000D01*
X108025750Y-58342000D01*
X107867000Y-58500750D01*
X107863928Y-59515000D01*
X102216611Y-59515000D01*
X102216899Y-56915000D01*
X107863928Y-56915000D01*
X107867000Y-57929250D01*
X108025750Y-58088000D01*
X109675000Y-58088000D01*
X109675000Y-56438750D01*
X109929000Y-56438750D01*
X109929000Y-58088000D01*
X111578250Y-58088000D01*
X111737000Y-57929250D01*
X111740072Y-56915000D01*
X111727812Y-56790518D01*
X111691502Y-56670820D01*
X111632537Y-56560506D01*
X111553185Y-56463815D01*
X111456494Y-56384463D01*
X111346180Y-56325498D01*
X111226482Y-56289188D01*
X111102000Y-56276928D01*
X110087750Y-56280000D01*
X109929000Y-56438750D01*
X109675000Y-56438750D01*
X109516250Y-56280000D01*
X108502000Y-56276928D01*
X108377518Y-56289188D01*
X108257820Y-56325498D01*
X108147506Y-56384463D01*
X108050815Y-56463815D01*
X107971463Y-56560506D01*
X107912498Y-56670820D01*
X107876188Y-56790518D01*
X107863928Y-56915000D01*
X102216899Y-56915000D01*
X102216995Y-56050584D01*
X102245360Y-55774872D01*
X203297000Y-55774872D01*
X203297000Y-56215128D01*
X203382890Y-56646925D01*
X203551369Y-57053669D01*
X203795962Y-57419729D01*
X204107271Y-57731038D01*
X204473331Y-57975631D01*
X204880075Y-58144110D01*
X205311872Y-58230000D01*
X205752128Y-58230000D01*
X206183925Y-58144110D01*
X206590669Y-57975631D01*
X206956729Y-57731038D01*
X207268038Y-57419729D01*
X207512631Y-57053669D01*
X207681110Y-56646925D01*
X207767000Y-56215128D01*
X207767000Y-55774872D01*
X207681110Y-55343075D01*
X207512631Y-54936331D01*
X207268038Y-54570271D01*
X206956729Y-54258962D01*
X206590669Y-54014369D01*
X206183925Y-53845890D01*
X205752128Y-53760000D01*
X205311872Y-53760000D01*
X204880075Y-53845890D01*
X204473331Y-54014369D01*
X204107271Y-54258962D01*
X203795962Y-54570271D01*
X203551369Y-54936331D01*
X203382890Y-55343075D01*
X203297000Y-55774872D01*
X102245360Y-55774872D01*
X102277595Y-55461550D01*
X102441921Y-54926534D01*
X102707035Y-54433628D01*
X103062837Y-54001605D01*
X103495778Y-53646918D01*
X103989368Y-53383076D01*
X104524801Y-53220133D01*
X105114396Y-53161013D01*
X205429913Y-53211782D01*
G37*
G04 #@! TD.AperFunction*
D26*
X153959000Y-93028000D02*
X153979000Y-93028000D01*
X153979000Y-93282000D01*
X153959000Y-93282000D01*
X153959000Y-93302000D01*
X153705000Y-93302000D01*
X153705000Y-93282000D01*
X153685000Y-93282000D01*
X153685000Y-93028000D01*
X153705000Y-93028000D01*
X153705000Y-93008000D01*
X153959000Y-93008000D01*
X153959000Y-93028000D01*
G04 #@! TA.AperFunction,Conductor*
D27*
G36*
X153959000Y-93028000D02*
G01*
X153979000Y-93028000D01*
X153979000Y-93282000D01*
X153959000Y-93282000D01*
X153959000Y-93302000D01*
X153705000Y-93302000D01*
X153705000Y-93282000D01*
X153685000Y-93282000D01*
X153685000Y-93028000D01*
X153705000Y-93028000D01*
X153705000Y-93008000D01*
X153959000Y-93008000D01*
X153959000Y-93028000D01*
G37*
G04 #@! TD.AperFunction*
D26*
X129178939Y-83477359D02*
X129325038Y-83696013D01*
X129510987Y-83881962D01*
X129729641Y-84028061D01*
X129939530Y-84115000D01*
X129729641Y-84201939D01*
X129510987Y-84348038D01*
X129325038Y-84533987D01*
X129178939Y-84752641D01*
X129090379Y-84966444D01*
X129030935Y-84803634D01*
X128977037Y-84702797D01*
X128743269Y-84643336D01*
X128001605Y-85385000D01*
X128015748Y-85399143D01*
X127836143Y-85578748D01*
X127822000Y-85564605D01*
X127807858Y-85578748D01*
X127628253Y-85399143D01*
X127642395Y-85385000D01*
X126900731Y-84643336D01*
X126666963Y-84702797D01*
X126556066Y-84941242D01*
X126551294Y-84960827D01*
X126465061Y-84752641D01*
X126318962Y-84533987D01*
X126133013Y-84348038D01*
X125914359Y-84201939D01*
X125704470Y-84115000D01*
X125914359Y-84028061D01*
X126133013Y-83881962D01*
X126318962Y-83696013D01*
X126465061Y-83477359D01*
X126552000Y-83267470D01*
X126638939Y-83477359D01*
X126785038Y-83696013D01*
X126970987Y-83881962D01*
X127189641Y-84028061D01*
X127403444Y-84116621D01*
X127240634Y-84176065D01*
X127139797Y-84229963D01*
X127080336Y-84463731D01*
X127822000Y-85205395D01*
X128563664Y-84463731D01*
X128504203Y-84229963D01*
X128265758Y-84119066D01*
X128246173Y-84114294D01*
X128454359Y-84028061D01*
X128673013Y-83881962D01*
X128858962Y-83696013D01*
X129005061Y-83477359D01*
X129092000Y-83267470D01*
X129178939Y-83477359D01*
G04 #@! TA.AperFunction,Conductor*
D27*
G36*
X129178939Y-83477359D02*
G01*
X129325038Y-83696013D01*
X129510987Y-83881962D01*
X129729641Y-84028061D01*
X129939530Y-84115000D01*
X129729641Y-84201939D01*
X129510987Y-84348038D01*
X129325038Y-84533987D01*
X129178939Y-84752641D01*
X129090379Y-84966444D01*
X129030935Y-84803634D01*
X128977037Y-84702797D01*
X128743269Y-84643336D01*
X128001605Y-85385000D01*
X128015748Y-85399143D01*
X127836143Y-85578748D01*
X127822000Y-85564605D01*
X127807858Y-85578748D01*
X127628253Y-85399143D01*
X127642395Y-85385000D01*
X126900731Y-84643336D01*
X126666963Y-84702797D01*
X126556066Y-84941242D01*
X126551294Y-84960827D01*
X126465061Y-84752641D01*
X126318962Y-84533987D01*
X126133013Y-84348038D01*
X125914359Y-84201939D01*
X125704470Y-84115000D01*
X125914359Y-84028061D01*
X126133013Y-83881962D01*
X126318962Y-83696013D01*
X126465061Y-83477359D01*
X126552000Y-83267470D01*
X126638939Y-83477359D01*
X126785038Y-83696013D01*
X126970987Y-83881962D01*
X127189641Y-84028061D01*
X127403444Y-84116621D01*
X127240634Y-84176065D01*
X127139797Y-84229963D01*
X127080336Y-84463731D01*
X127822000Y-85205395D01*
X128563664Y-84463731D01*
X128504203Y-84229963D01*
X128265758Y-84119066D01*
X128246173Y-84114294D01*
X128454359Y-84028061D01*
X128673013Y-83881962D01*
X128858962Y-83696013D01*
X129005061Y-83477359D01*
X129092000Y-83267470D01*
X129178939Y-83477359D01*
G37*
G04 #@! TD.AperFunction*
D26*
X208336020Y-88133558D02*
X204228376Y-88176667D01*
X204179571Y-78152000D01*
X208335578Y-78152000D01*
X208336020Y-88133558D01*
G04 #@! TA.AperFunction,Conductor*
D27*
G36*
X208336020Y-88133558D02*
G01*
X204228376Y-88176667D01*
X204179571Y-78152000D01*
X208335578Y-78152000D01*
X208336020Y-88133558D01*
G37*
G04 #@! TD.AperFunction*
M02*
