G04 #@! TF.GenerationSoftware,KiCad,Pcbnew,5.1.12-84ad8e8a86~92~ubuntu20.04.1*
G04 #@! TF.CreationDate,2021-11-07T22:28:23+01:00*
G04 #@! TF.ProjectId,CC dimmer low voltage,43432064-696d-46d6-9572-206c6f772076,0.80*
G04 #@! TF.SameCoordinates,Original*
G04 #@! TF.FileFunction,Soldermask,Top*
G04 #@! TF.FilePolarity,Negative*
%FSLAX46Y46*%
G04 Gerber Fmt 4.6, Leading zero omitted, Abs format (unit mm)*
G04 Created by KiCad (PCBNEW 5.1.12-84ad8e8a86~92~ubuntu20.04.1) date 2021-11-07 22:28:23*
%MOMM*%
%LPD*%
G01*
G04 APERTURE LIST*
%ADD10C,1.400000*%
%ADD11O,2.000000X1.905000*%
%ADD12R,2.000000X1.905000*%
%ADD13C,3.000000*%
%ADD14R,1.700000X1.700000*%
%ADD15C,3.200000*%
%ADD16R,1.800000X2.500000*%
%ADD17R,0.600000X0.450000*%
%ADD18O,1.700000X1.950000*%
%ADD19O,1.500000X1.050000*%
%ADD20R,1.500000X1.050000*%
%ADD21R,1.905000X2.000000*%
%ADD22O,1.905000X2.000000*%
%ADD23R,2.600000X2.600000*%
%ADD24C,2.600000*%
%ADD25C,2.500000*%
%ADD26R,2.500000X2.500000*%
%ADD27C,0.150000*%
%ADD28R,1.500000X0.700000*%
G04 APERTURE END LIST*
D10*
X135442000Y-82845000D03*
X135442000Y-85385000D03*
X132902000Y-82845000D03*
X132902000Y-85385000D03*
X130362000Y-82845000D03*
X130362000Y-85385000D03*
X127822000Y-82845000D03*
X127822000Y-85385000D03*
X125282000Y-82845000D03*
X125282000Y-85385000D03*
X122742000Y-82845000D03*
X122742000Y-85385000D03*
X120202000Y-82845000D03*
X120202000Y-85385000D03*
X117662000Y-82845000D03*
X117662000Y-85385000D03*
X115122000Y-82845000D03*
X115122000Y-85385000D03*
X112582000Y-82845000D03*
X112582000Y-85385000D03*
X135442000Y-108245000D03*
X135442000Y-110785000D03*
X132902000Y-108245000D03*
X132902000Y-110785000D03*
X130362000Y-108245000D03*
X130362000Y-110785000D03*
X127822000Y-108245000D03*
X127822000Y-110785000D03*
X125282000Y-108245000D03*
X125282000Y-110785000D03*
X122742000Y-108245000D03*
X122742000Y-110785000D03*
X120202000Y-108245000D03*
X120202000Y-110785000D03*
X117662000Y-108245000D03*
X117662000Y-110785000D03*
X115122000Y-108245000D03*
X115122000Y-110785000D03*
X112582000Y-110785000D03*
X112582000Y-108245000D03*
D11*
X144224200Y-63017000D03*
X144224200Y-60477000D03*
D12*
X144224200Y-57937000D03*
G36*
G01*
X162882000Y-80010000D02*
X162882000Y-80960000D01*
G75*
G02*
X162632000Y-81210000I-250000J0D01*
G01*
X162132000Y-81210000D01*
G75*
G02*
X161882000Y-80960000I0J250000D01*
G01*
X161882000Y-80010000D01*
G75*
G02*
X162132000Y-79760000I250000J0D01*
G01*
X162632000Y-79760000D01*
G75*
G02*
X162882000Y-80010000I0J-250000D01*
G01*
G37*
G36*
G01*
X164782000Y-80010000D02*
X164782000Y-80960000D01*
G75*
G02*
X164532000Y-81210000I-250000J0D01*
G01*
X164032000Y-81210000D01*
G75*
G02*
X163782000Y-80960000I0J250000D01*
G01*
X163782000Y-80010000D01*
G75*
G02*
X164032000Y-79760000I250000J0D01*
G01*
X164532000Y-79760000D01*
G75*
G02*
X164782000Y-80010000I0J-250000D01*
G01*
G37*
D13*
X139601400Y-60172200D03*
X117001400Y-60172200D03*
D14*
X156362000Y-100575000D03*
X156372000Y-93155000D03*
D15*
X205532000Y-55995000D03*
G36*
G01*
X168322000Y-55490000D02*
X168322000Y-54540000D01*
G75*
G02*
X168572000Y-54290000I250000J0D01*
G01*
X169072000Y-54290000D01*
G75*
G02*
X169322000Y-54540000I0J-250000D01*
G01*
X169322000Y-55490000D01*
G75*
G02*
X169072000Y-55740000I-250000J0D01*
G01*
X168572000Y-55740000D01*
G75*
G02*
X168322000Y-55490000I0J250000D01*
G01*
G37*
G36*
G01*
X170222000Y-55490000D02*
X170222000Y-54540000D01*
G75*
G02*
X170472000Y-54290000I250000J0D01*
G01*
X170972000Y-54290000D01*
G75*
G02*
X171222000Y-54540000I0J-250000D01*
G01*
X171222000Y-55490000D01*
G75*
G02*
X170972000Y-55740000I-250000J0D01*
G01*
X170472000Y-55740000D01*
G75*
G02*
X170222000Y-55490000I0J250000D01*
G01*
G37*
G36*
G01*
X175212000Y-79960000D02*
X175212000Y-80910000D01*
G75*
G02*
X174962000Y-81160000I-250000J0D01*
G01*
X174462000Y-81160000D01*
G75*
G02*
X174212000Y-80910000I0J250000D01*
G01*
X174212000Y-79960000D01*
G75*
G02*
X174462000Y-79710000I250000J0D01*
G01*
X174962000Y-79710000D01*
G75*
G02*
X175212000Y-79960000I0J-250000D01*
G01*
G37*
G36*
G01*
X173312000Y-79960000D02*
X173312000Y-80910000D01*
G75*
G02*
X173062000Y-81160000I-250000J0D01*
G01*
X172562000Y-81160000D01*
G75*
G02*
X172312000Y-80910000I0J250000D01*
G01*
X172312000Y-79960000D01*
G75*
G02*
X172562000Y-79710000I250000J0D01*
G01*
X173062000Y-79710000D01*
G75*
G02*
X173312000Y-79960000I0J-250000D01*
G01*
G37*
G36*
G01*
X178492000Y-55490000D02*
X178492000Y-54540000D01*
G75*
G02*
X178742000Y-54290000I250000J0D01*
G01*
X179242000Y-54290000D01*
G75*
G02*
X179492000Y-54540000I0J-250000D01*
G01*
X179492000Y-55490000D01*
G75*
G02*
X179242000Y-55740000I-250000J0D01*
G01*
X178742000Y-55740000D01*
G75*
G02*
X178492000Y-55490000I0J250000D01*
G01*
G37*
G36*
G01*
X180392000Y-55490000D02*
X180392000Y-54540000D01*
G75*
G02*
X180642000Y-54290000I250000J0D01*
G01*
X181142000Y-54290000D01*
G75*
G02*
X181392000Y-54540000I0J-250000D01*
G01*
X181392000Y-55490000D01*
G75*
G02*
X181142000Y-55740000I-250000J0D01*
G01*
X180642000Y-55740000D01*
G75*
G02*
X180392000Y-55490000I0J250000D01*
G01*
G37*
G36*
G01*
X185282000Y-79980000D02*
X185282000Y-80930000D01*
G75*
G02*
X185032000Y-81180000I-250000J0D01*
G01*
X184532000Y-81180000D01*
G75*
G02*
X184282000Y-80930000I0J250000D01*
G01*
X184282000Y-79980000D01*
G75*
G02*
X184532000Y-79730000I250000J0D01*
G01*
X185032000Y-79730000D01*
G75*
G02*
X185282000Y-79980000I0J-250000D01*
G01*
G37*
G36*
G01*
X183382000Y-79980000D02*
X183382000Y-80930000D01*
G75*
G02*
X183132000Y-81180000I-250000J0D01*
G01*
X182632000Y-81180000D01*
G75*
G02*
X182382000Y-80930000I0J250000D01*
G01*
X182382000Y-79980000D01*
G75*
G02*
X182632000Y-79730000I250000J0D01*
G01*
X183132000Y-79730000D01*
G75*
G02*
X183382000Y-79980000I0J-250000D01*
G01*
G37*
G36*
G01*
X190592000Y-55470000D02*
X190592000Y-54520000D01*
G75*
G02*
X190842000Y-54270000I250000J0D01*
G01*
X191342000Y-54270000D01*
G75*
G02*
X191592000Y-54520000I0J-250000D01*
G01*
X191592000Y-55470000D01*
G75*
G02*
X191342000Y-55720000I-250000J0D01*
G01*
X190842000Y-55720000D01*
G75*
G02*
X190592000Y-55470000I0J250000D01*
G01*
G37*
G36*
G01*
X188692000Y-55470000D02*
X188692000Y-54520000D01*
G75*
G02*
X188942000Y-54270000I250000J0D01*
G01*
X189442000Y-54270000D01*
G75*
G02*
X189692000Y-54520000I0J-250000D01*
G01*
X189692000Y-55470000D01*
G75*
G02*
X189442000Y-55720000I-250000J0D01*
G01*
X188942000Y-55720000D01*
G75*
G02*
X188692000Y-55470000I0J250000D01*
G01*
G37*
G36*
G01*
X193562000Y-80010000D02*
X193562000Y-80960000D01*
G75*
G02*
X193312000Y-81210000I-250000J0D01*
G01*
X192812000Y-81210000D01*
G75*
G02*
X192562000Y-80960000I0J250000D01*
G01*
X192562000Y-80010000D01*
G75*
G02*
X192812000Y-79760000I250000J0D01*
G01*
X193312000Y-79760000D01*
G75*
G02*
X193562000Y-80010000I0J-250000D01*
G01*
G37*
G36*
G01*
X195462000Y-80010000D02*
X195462000Y-80960000D01*
G75*
G02*
X195212000Y-81210000I-250000J0D01*
G01*
X194712000Y-81210000D01*
G75*
G02*
X194462000Y-80960000I0J250000D01*
G01*
X194462000Y-80010000D01*
G75*
G02*
X194712000Y-79760000I250000J0D01*
G01*
X195212000Y-79760000D01*
G75*
G02*
X195462000Y-80010000I0J-250000D01*
G01*
G37*
G36*
G01*
X198892000Y-55520000D02*
X198892000Y-54570000D01*
G75*
G02*
X199142000Y-54320000I250000J0D01*
G01*
X199642000Y-54320000D01*
G75*
G02*
X199892000Y-54570000I0J-250000D01*
G01*
X199892000Y-55520000D01*
G75*
G02*
X199642000Y-55770000I-250000J0D01*
G01*
X199142000Y-55770000D01*
G75*
G02*
X198892000Y-55520000I0J250000D01*
G01*
G37*
G36*
G01*
X200792000Y-55520000D02*
X200792000Y-54570000D01*
G75*
G02*
X201042000Y-54320000I250000J0D01*
G01*
X201542000Y-54320000D01*
G75*
G02*
X201792000Y-54570000I0J-250000D01*
G01*
X201792000Y-55520000D01*
G75*
G02*
X201542000Y-55770000I-250000J0D01*
G01*
X201042000Y-55770000D01*
G75*
G02*
X200792000Y-55520000I0J250000D01*
G01*
G37*
G36*
G01*
X155282000Y-66575000D02*
X153282000Y-66575000D01*
G75*
G02*
X153032000Y-66325000I0J250000D01*
G01*
X153032000Y-62825000D01*
G75*
G02*
X153282000Y-62575000I250000J0D01*
G01*
X155282000Y-62575000D01*
G75*
G02*
X155532000Y-62825000I0J-250000D01*
G01*
X155532000Y-66325000D01*
G75*
G02*
X155282000Y-66575000I-250000J0D01*
G01*
G37*
G36*
G01*
X155282000Y-58575000D02*
X153282000Y-58575000D01*
G75*
G02*
X153032000Y-58325000I0J250000D01*
G01*
X153032000Y-54825000D01*
G75*
G02*
X153282000Y-54575000I250000J0D01*
G01*
X155282000Y-54575000D01*
G75*
G02*
X155532000Y-54825000I0J-250000D01*
G01*
X155532000Y-58325000D01*
G75*
G02*
X155282000Y-58575000I-250000J0D01*
G01*
G37*
G36*
G01*
X133407200Y-69811800D02*
X133407200Y-70911800D01*
G75*
G02*
X133157200Y-71161800I-250000J0D01*
G01*
X130157200Y-71161800D01*
G75*
G02*
X129907200Y-70911800I0J250000D01*
G01*
X129907200Y-69811800D01*
G75*
G02*
X130157200Y-69561800I250000J0D01*
G01*
X133157200Y-69561800D01*
G75*
G02*
X133407200Y-69811800I0J-250000D01*
G01*
G37*
G36*
G01*
X127807200Y-69811800D02*
X127807200Y-70911800D01*
G75*
G02*
X127557200Y-71161800I-250000J0D01*
G01*
X124557200Y-71161800D01*
G75*
G02*
X124307200Y-70911800I0J250000D01*
G01*
X124307200Y-69811800D01*
G75*
G02*
X124557200Y-69561800I250000J0D01*
G01*
X127557200Y-69561800D01*
G75*
G02*
X127807200Y-69811800I0J-250000D01*
G01*
G37*
G36*
G01*
X121813800Y-71481600D02*
X120863800Y-71481600D01*
G75*
G02*
X120613800Y-71231600I0J250000D01*
G01*
X120613800Y-70731600D01*
G75*
G02*
X120863800Y-70481600I250000J0D01*
G01*
X121813800Y-70481600D01*
G75*
G02*
X122063800Y-70731600I0J-250000D01*
G01*
X122063800Y-71231600D01*
G75*
G02*
X121813800Y-71481600I-250000J0D01*
G01*
G37*
G36*
G01*
X121813800Y-69581600D02*
X120863800Y-69581600D01*
G75*
G02*
X120613800Y-69331600I0J250000D01*
G01*
X120613800Y-68831600D01*
G75*
G02*
X120863800Y-68581600I250000J0D01*
G01*
X121813800Y-68581600D01*
G75*
G02*
X122063800Y-68831600I0J-250000D01*
G01*
X122063800Y-69331600D01*
G75*
G02*
X121813800Y-69581600I-250000J0D01*
G01*
G37*
D16*
X169682000Y-80365000D03*
X169682000Y-76365000D03*
X179952000Y-80385000D03*
X179952000Y-76385000D03*
X190022000Y-80375000D03*
X190022000Y-76375000D03*
X200492000Y-76405000D03*
X200492000Y-80405000D03*
D17*
X144207400Y-68888600D03*
X142107400Y-68888600D03*
G36*
G01*
X106977800Y-73936200D02*
X105727800Y-73936200D01*
G75*
G02*
X105477800Y-73686200I0J250000D01*
G01*
X105477800Y-72936200D01*
G75*
G02*
X105727800Y-72686200I250000J0D01*
G01*
X106977800Y-72686200D01*
G75*
G02*
X107227800Y-72936200I0J-250000D01*
G01*
X107227800Y-73686200D01*
G75*
G02*
X106977800Y-73936200I-250000J0D01*
G01*
G37*
G36*
G01*
X106977800Y-71136200D02*
X105727800Y-71136200D01*
G75*
G02*
X105477800Y-70886200I0J250000D01*
G01*
X105477800Y-70136200D01*
G75*
G02*
X105727800Y-69886200I250000J0D01*
G01*
X106977800Y-69886200D01*
G75*
G02*
X107227800Y-70136200I0J-250000D01*
G01*
X107227800Y-70886200D01*
G75*
G02*
X106977800Y-71136200I-250000J0D01*
G01*
G37*
G36*
G01*
X134985799Y-70276400D02*
X135885801Y-70276400D01*
G75*
G02*
X136135800Y-70526399I0J-249999D01*
G01*
X136135800Y-71226401D01*
G75*
G02*
X135885801Y-71476400I-249999J0D01*
G01*
X134985799Y-71476400D01*
G75*
G02*
X134735800Y-71226401I0J249999D01*
G01*
X134735800Y-70526399D01*
G75*
G02*
X134985799Y-70276400I249999J0D01*
G01*
G37*
G36*
G01*
X134985799Y-72276400D02*
X135885801Y-72276400D01*
G75*
G02*
X136135800Y-72526399I0J-249999D01*
G01*
X136135800Y-73226401D01*
G75*
G02*
X135885801Y-73476400I-249999J0D01*
G01*
X134985799Y-73476400D01*
G75*
G02*
X134735800Y-73226401I0J249999D01*
G01*
X134735800Y-72526399D01*
G75*
G02*
X134985799Y-72276400I249999J0D01*
G01*
G37*
D15*
X104912000Y-83195000D03*
X205532000Y-110315000D03*
G36*
G01*
X145012000Y-86690000D02*
X145012000Y-85240000D01*
G75*
G02*
X145262000Y-84990000I250000J0D01*
G01*
X146462000Y-84990000D01*
G75*
G02*
X146712000Y-85240000I0J-250000D01*
G01*
X146712000Y-86690000D01*
G75*
G02*
X146462000Y-86940000I-250000J0D01*
G01*
X145262000Y-86940000D01*
G75*
G02*
X145012000Y-86690000I0J250000D01*
G01*
G37*
D18*
X148362000Y-85965000D03*
X150862000Y-85965000D03*
G36*
G01*
X144892000Y-107580000D02*
X144892000Y-106130000D01*
G75*
G02*
X145142000Y-105880000I250000J0D01*
G01*
X146342000Y-105880000D01*
G75*
G02*
X146592000Y-106130000I0J-250000D01*
G01*
X146592000Y-107580000D01*
G75*
G02*
X146342000Y-107830000I-250000J0D01*
G01*
X145142000Y-107830000D01*
G75*
G02*
X144892000Y-107580000I0J250000D01*
G01*
G37*
X148242000Y-106855000D03*
X150742000Y-106855000D03*
X153242000Y-106855000D03*
D14*
X153832000Y-93155000D03*
X153822000Y-100575000D03*
X122152000Y-74395000D03*
G36*
G01*
X162086997Y-67720000D02*
X163337003Y-67720000D01*
G75*
G02*
X163587000Y-67969997I0J-249997D01*
G01*
X163587000Y-68595003D01*
G75*
G02*
X163337003Y-68845000I-249997J0D01*
G01*
X162086997Y-68845000D01*
G75*
G02*
X161837000Y-68595003I0J249997D01*
G01*
X161837000Y-67969997D01*
G75*
G02*
X162086997Y-67720000I249997J0D01*
G01*
G37*
G36*
G01*
X162086997Y-70645000D02*
X163337003Y-70645000D01*
G75*
G02*
X163587000Y-70894997I0J-249997D01*
G01*
X163587000Y-71520003D01*
G75*
G02*
X163337003Y-71770000I-249997J0D01*
G01*
X162086997Y-71770000D01*
G75*
G02*
X161837000Y-71520003I0J249997D01*
G01*
X161837000Y-70894997D01*
G75*
G02*
X162086997Y-70645000I249997J0D01*
G01*
G37*
G36*
G01*
X172256997Y-70655000D02*
X173507003Y-70655000D01*
G75*
G02*
X173757000Y-70904997I0J-249997D01*
G01*
X173757000Y-71530003D01*
G75*
G02*
X173507003Y-71780000I-249997J0D01*
G01*
X172256997Y-71780000D01*
G75*
G02*
X172007000Y-71530003I0J249997D01*
G01*
X172007000Y-70904997D01*
G75*
G02*
X172256997Y-70655000I249997J0D01*
G01*
G37*
G36*
G01*
X172256997Y-67730000D02*
X173507003Y-67730000D01*
G75*
G02*
X173757000Y-67979997I0J-249997D01*
G01*
X173757000Y-68605003D01*
G75*
G02*
X173507003Y-68855000I-249997J0D01*
G01*
X172256997Y-68855000D01*
G75*
G02*
X172007000Y-68605003I0J249997D01*
G01*
X172007000Y-67979997D01*
G75*
G02*
X172256997Y-67730000I249997J0D01*
G01*
G37*
G36*
G01*
X182416997Y-70655000D02*
X183667003Y-70655000D01*
G75*
G02*
X183917000Y-70904997I0J-249997D01*
G01*
X183917000Y-71530003D01*
G75*
G02*
X183667003Y-71780000I-249997J0D01*
G01*
X182416997Y-71780000D01*
G75*
G02*
X182167000Y-71530003I0J249997D01*
G01*
X182167000Y-70904997D01*
G75*
G02*
X182416997Y-70655000I249997J0D01*
G01*
G37*
G36*
G01*
X182416997Y-67730000D02*
X183667003Y-67730000D01*
G75*
G02*
X183917000Y-67979997I0J-249997D01*
G01*
X183917000Y-68605003D01*
G75*
G02*
X183667003Y-68855000I-249997J0D01*
G01*
X182416997Y-68855000D01*
G75*
G02*
X182167000Y-68605003I0J249997D01*
G01*
X182167000Y-67979997D01*
G75*
G02*
X182416997Y-67730000I249997J0D01*
G01*
G37*
G36*
G01*
X192646997Y-67750000D02*
X193897003Y-67750000D01*
G75*
G02*
X194147000Y-67999997I0J-249997D01*
G01*
X194147000Y-68625003D01*
G75*
G02*
X193897003Y-68875000I-249997J0D01*
G01*
X192646997Y-68875000D01*
G75*
G02*
X192397000Y-68625003I0J249997D01*
G01*
X192397000Y-67999997D01*
G75*
G02*
X192646997Y-67750000I249997J0D01*
G01*
G37*
G36*
G01*
X192646997Y-70675000D02*
X193897003Y-70675000D01*
G75*
G02*
X194147000Y-70924997I0J-249997D01*
G01*
X194147000Y-71550003D01*
G75*
G02*
X193897003Y-71800000I-249997J0D01*
G01*
X192646997Y-71800000D01*
G75*
G02*
X192397000Y-71550003I0J249997D01*
G01*
X192397000Y-70924997D01*
G75*
G02*
X192646997Y-70675000I249997J0D01*
G01*
G37*
G36*
G01*
X117993198Y-70460800D02*
X118893202Y-70460800D01*
G75*
G02*
X119143200Y-70710798I0J-249998D01*
G01*
X119143200Y-71235802D01*
G75*
G02*
X118893202Y-71485800I-249998J0D01*
G01*
X117993198Y-71485800D01*
G75*
G02*
X117743200Y-71235802I0J249998D01*
G01*
X117743200Y-70710798D01*
G75*
G02*
X117993198Y-70460800I249998J0D01*
G01*
G37*
G36*
G01*
X117993198Y-72285800D02*
X118893202Y-72285800D01*
G75*
G02*
X119143200Y-72535798I0J-249998D01*
G01*
X119143200Y-73060802D01*
G75*
G02*
X118893202Y-73310800I-249998J0D01*
G01*
X117993198Y-73310800D01*
G75*
G02*
X117743200Y-73060802I0J249998D01*
G01*
X117743200Y-72535798D01*
G75*
G02*
X117993198Y-72285800I249998J0D01*
G01*
G37*
G36*
G01*
X138795000Y-68438598D02*
X138795000Y-69338602D01*
G75*
G02*
X138545002Y-69588600I-249998J0D01*
G01*
X138019998Y-69588600D01*
G75*
G02*
X137770000Y-69338602I0J249998D01*
G01*
X137770000Y-68438598D01*
G75*
G02*
X138019998Y-68188600I249998J0D01*
G01*
X138545002Y-68188600D01*
G75*
G02*
X138795000Y-68438598I0J-249998D01*
G01*
G37*
G36*
G01*
X140620000Y-68438598D02*
X140620000Y-69338602D01*
G75*
G02*
X140370002Y-69588600I-249998J0D01*
G01*
X139844998Y-69588600D01*
G75*
G02*
X139595000Y-69338602I0J249998D01*
G01*
X139595000Y-68438598D01*
G75*
G02*
X139844998Y-68188600I249998J0D01*
G01*
X140370002Y-68188600D01*
G75*
G02*
X140620000Y-68438598I0J-249998D01*
G01*
G37*
G36*
G01*
X110231802Y-72726600D02*
X109331798Y-72726600D01*
G75*
G02*
X109081800Y-72476602I0J249998D01*
G01*
X109081800Y-71951598D01*
G75*
G02*
X109331798Y-71701600I249998J0D01*
G01*
X110231802Y-71701600D01*
G75*
G02*
X110481800Y-71951598I0J-249998D01*
G01*
X110481800Y-72476602D01*
G75*
G02*
X110231802Y-72726600I-249998J0D01*
G01*
G37*
G36*
G01*
X110231802Y-70901600D02*
X109331798Y-70901600D01*
G75*
G02*
X109081800Y-70651602I0J249998D01*
G01*
X109081800Y-70126598D01*
G75*
G02*
X109331798Y-69876600I249998J0D01*
G01*
X110231802Y-69876600D01*
G75*
G02*
X110481800Y-70126598I0J-249998D01*
G01*
X110481800Y-70651602D01*
G75*
G02*
X110231802Y-70901600I-249998J0D01*
G01*
G37*
D19*
X114709400Y-72216000D03*
X114709400Y-70946000D03*
D20*
X114709400Y-73486000D03*
D21*
X144910000Y-72901800D03*
D22*
X142370000Y-72901800D03*
X139830000Y-72901800D03*
D23*
X109802000Y-58215000D03*
D24*
X109802000Y-63215000D03*
D25*
X163992000Y-60687000D03*
D26*
X169072000Y-60687000D03*
X179222000Y-60685000D03*
D25*
X174142000Y-60685000D03*
X184292000Y-60675000D03*
D26*
X189372000Y-60675000D03*
X199522000Y-60665000D03*
D25*
X194442000Y-60665000D03*
D27*
G36*
X163582000Y-77015000D02*
G01*
X161882000Y-77015000D01*
X161882000Y-76015000D01*
X163582000Y-76015000D01*
X164082000Y-75515000D01*
X164882000Y-75515000D01*
X165382000Y-76015000D01*
X167082000Y-76015000D01*
X167082000Y-77015000D01*
X165382000Y-77015000D01*
X164882000Y-77515000D01*
X164082000Y-77515000D01*
X163582000Y-77015000D01*
G37*
D28*
X166332000Y-75015000D03*
X166332000Y-78015000D03*
X162632000Y-75015000D03*
X162632000Y-78015000D03*
D27*
G36*
X174012000Y-77015000D02*
G01*
X172312000Y-77015000D01*
X172312000Y-76015000D01*
X174012000Y-76015000D01*
X174512000Y-75515000D01*
X175312000Y-75515000D01*
X175812000Y-76015000D01*
X177512000Y-76015000D01*
X177512000Y-77015000D01*
X175812000Y-77015000D01*
X175312000Y-77515000D01*
X174512000Y-77515000D01*
X174012000Y-77015000D01*
G37*
D28*
X176762000Y-75015000D03*
X176762000Y-78015000D03*
X173062000Y-75015000D03*
X173062000Y-78015000D03*
D27*
G36*
X184072000Y-77005000D02*
G01*
X182372000Y-77005000D01*
X182372000Y-76005000D01*
X184072000Y-76005000D01*
X184572000Y-75505000D01*
X185372000Y-75505000D01*
X185872000Y-76005000D01*
X187572000Y-76005000D01*
X187572000Y-77005000D01*
X185872000Y-77005000D01*
X185372000Y-77505000D01*
X184572000Y-77505000D01*
X184072000Y-77005000D01*
G37*
D28*
X186822000Y-75005000D03*
X186822000Y-78005000D03*
X183122000Y-75005000D03*
X183122000Y-78005000D03*
D27*
G36*
X194222000Y-77005000D02*
G01*
X192522000Y-77005000D01*
X192522000Y-76005000D01*
X194222000Y-76005000D01*
X194722000Y-75505000D01*
X195522000Y-75505000D01*
X196022000Y-76005000D01*
X197722000Y-76005000D01*
X197722000Y-77005000D01*
X196022000Y-77005000D01*
X195522000Y-77505000D01*
X194722000Y-77505000D01*
X194222000Y-77005000D01*
G37*
D28*
X196972000Y-75005000D03*
X196972000Y-78005000D03*
X193272000Y-75005000D03*
X193272000Y-78005000D03*
G36*
G01*
X168507000Y-73465000D02*
X167057000Y-73465000D01*
G75*
G02*
X166682000Y-73090000I0J375000D01*
G01*
X166682000Y-72340000D01*
G75*
G02*
X167057000Y-71965000I375000J0D01*
G01*
X168507000Y-71965000D01*
G75*
G02*
X168882000Y-72340000I0J-375000D01*
G01*
X168882000Y-73090000D01*
G75*
G02*
X168507000Y-73465000I-375000J0D01*
G01*
G37*
G36*
G01*
X168507000Y-67165000D02*
X167057000Y-67165000D01*
G75*
G02*
X166682000Y-66790000I0J375000D01*
G01*
X166682000Y-66040000D01*
G75*
G02*
X167057000Y-65665000I375000J0D01*
G01*
X168507000Y-65665000D01*
G75*
G02*
X168882000Y-66040000I0J-375000D01*
G01*
X168882000Y-66790000D01*
G75*
G02*
X168507000Y-67165000I-375000J0D01*
G01*
G37*
G36*
G01*
X178707000Y-73445000D02*
X177257000Y-73445000D01*
G75*
G02*
X176882000Y-73070000I0J375000D01*
G01*
X176882000Y-72320000D01*
G75*
G02*
X177257000Y-71945000I375000J0D01*
G01*
X178707000Y-71945000D01*
G75*
G02*
X179082000Y-72320000I0J-375000D01*
G01*
X179082000Y-73070000D01*
G75*
G02*
X178707000Y-73445000I-375000J0D01*
G01*
G37*
G36*
G01*
X178707000Y-67145000D02*
X177257000Y-67145000D01*
G75*
G02*
X176882000Y-66770000I0J375000D01*
G01*
X176882000Y-66020000D01*
G75*
G02*
X177257000Y-65645000I375000J0D01*
G01*
X178707000Y-65645000D01*
G75*
G02*
X179082000Y-66020000I0J-375000D01*
G01*
X179082000Y-66770000D01*
G75*
G02*
X178707000Y-67145000I-375000J0D01*
G01*
G37*
G36*
G01*
X188797000Y-67145000D02*
X187347000Y-67145000D01*
G75*
G02*
X186972000Y-66770000I0J375000D01*
G01*
X186972000Y-66020000D01*
G75*
G02*
X187347000Y-65645000I375000J0D01*
G01*
X188797000Y-65645000D01*
G75*
G02*
X189172000Y-66020000I0J-375000D01*
G01*
X189172000Y-66770000D01*
G75*
G02*
X188797000Y-67145000I-375000J0D01*
G01*
G37*
G36*
G01*
X188797000Y-73445000D02*
X187347000Y-73445000D01*
G75*
G02*
X186972000Y-73070000I0J375000D01*
G01*
X186972000Y-72320000D01*
G75*
G02*
X187347000Y-71945000I375000J0D01*
G01*
X188797000Y-71945000D01*
G75*
G02*
X189172000Y-72320000I0J-375000D01*
G01*
X189172000Y-73070000D01*
G75*
G02*
X188797000Y-73445000I-375000J0D01*
G01*
G37*
G36*
G01*
X199187000Y-73455000D02*
X197737000Y-73455000D01*
G75*
G02*
X197362000Y-73080000I0J375000D01*
G01*
X197362000Y-72330000D01*
G75*
G02*
X197737000Y-71955000I375000J0D01*
G01*
X199187000Y-71955000D01*
G75*
G02*
X199562000Y-72330000I0J-375000D01*
G01*
X199562000Y-73080000D01*
G75*
G02*
X199187000Y-73455000I-375000J0D01*
G01*
G37*
G36*
G01*
X199187000Y-67155000D02*
X197737000Y-67155000D01*
G75*
G02*
X197362000Y-66780000I0J375000D01*
G01*
X197362000Y-66030000D01*
G75*
G02*
X197737000Y-65655000I375000J0D01*
G01*
X199187000Y-65655000D01*
G75*
G02*
X199562000Y-66030000I0J-375000D01*
G01*
X199562000Y-66780000D01*
G75*
G02*
X199187000Y-67155000I-375000J0D01*
G01*
G37*
G36*
G01*
X199092000Y-86640000D02*
X199092000Y-85690000D01*
G75*
G02*
X199342000Y-85440000I250000J0D01*
G01*
X199842000Y-85440000D01*
G75*
G02*
X200092000Y-85690000I0J-250000D01*
G01*
X200092000Y-86640000D01*
G75*
G02*
X199842000Y-86890000I-250000J0D01*
G01*
X199342000Y-86890000D01*
G75*
G02*
X199092000Y-86640000I0J250000D01*
G01*
G37*
G36*
G01*
X200992000Y-86640000D02*
X200992000Y-85690000D01*
G75*
G02*
X201242000Y-85440000I250000J0D01*
G01*
X201742000Y-85440000D01*
G75*
G02*
X201992000Y-85690000I0J-250000D01*
G01*
X201992000Y-86640000D01*
G75*
G02*
X201742000Y-86890000I-250000J0D01*
G01*
X201242000Y-86890000D01*
G75*
G02*
X200992000Y-86640000I0J250000D01*
G01*
G37*
G36*
G01*
X193422000Y-110890000D02*
X193422000Y-111840000D01*
G75*
G02*
X193172000Y-112090000I-250000J0D01*
G01*
X192672000Y-112090000D01*
G75*
G02*
X192422000Y-111840000I0J250000D01*
G01*
X192422000Y-110890000D01*
G75*
G02*
X192672000Y-110640000I250000J0D01*
G01*
X193172000Y-110640000D01*
G75*
G02*
X193422000Y-110890000I0J-250000D01*
G01*
G37*
G36*
G01*
X195322000Y-110890000D02*
X195322000Y-111840000D01*
G75*
G02*
X195072000Y-112090000I-250000J0D01*
G01*
X194572000Y-112090000D01*
G75*
G02*
X194322000Y-111840000I0J250000D01*
G01*
X194322000Y-110890000D01*
G75*
G02*
X194572000Y-110640000I250000J0D01*
G01*
X195072000Y-110640000D01*
G75*
G02*
X195322000Y-110890000I0J-250000D01*
G01*
G37*
G36*
G01*
X188872000Y-86600000D02*
X188872000Y-85650000D01*
G75*
G02*
X189122000Y-85400000I250000J0D01*
G01*
X189622000Y-85400000D01*
G75*
G02*
X189872000Y-85650000I0J-250000D01*
G01*
X189872000Y-86600000D01*
G75*
G02*
X189622000Y-86850000I-250000J0D01*
G01*
X189122000Y-86850000D01*
G75*
G02*
X188872000Y-86600000I0J250000D01*
G01*
G37*
G36*
G01*
X190772000Y-86600000D02*
X190772000Y-85650000D01*
G75*
G02*
X191022000Y-85400000I250000J0D01*
G01*
X191522000Y-85400000D01*
G75*
G02*
X191772000Y-85650000I0J-250000D01*
G01*
X191772000Y-86600000D01*
G75*
G02*
X191522000Y-86850000I-250000J0D01*
G01*
X191022000Y-86850000D01*
G75*
G02*
X190772000Y-86600000I0J250000D01*
G01*
G37*
G36*
G01*
X183372000Y-110920000D02*
X183372000Y-111870000D01*
G75*
G02*
X183122000Y-112120000I-250000J0D01*
G01*
X182622000Y-112120000D01*
G75*
G02*
X182372000Y-111870000I0J250000D01*
G01*
X182372000Y-110920000D01*
G75*
G02*
X182622000Y-110670000I250000J0D01*
G01*
X183122000Y-110670000D01*
G75*
G02*
X183372000Y-110920000I0J-250000D01*
G01*
G37*
G36*
G01*
X185272000Y-110920000D02*
X185272000Y-111870000D01*
G75*
G02*
X185022000Y-112120000I-250000J0D01*
G01*
X184522000Y-112120000D01*
G75*
G02*
X184272000Y-111870000I0J250000D01*
G01*
X184272000Y-110920000D01*
G75*
G02*
X184522000Y-110670000I250000J0D01*
G01*
X185022000Y-110670000D01*
G75*
G02*
X185272000Y-110920000I0J-250000D01*
G01*
G37*
G36*
G01*
X178722000Y-86640000D02*
X178722000Y-85690000D01*
G75*
G02*
X178972000Y-85440000I250000J0D01*
G01*
X179472000Y-85440000D01*
G75*
G02*
X179722000Y-85690000I0J-250000D01*
G01*
X179722000Y-86640000D01*
G75*
G02*
X179472000Y-86890000I-250000J0D01*
G01*
X178972000Y-86890000D01*
G75*
G02*
X178722000Y-86640000I0J250000D01*
G01*
G37*
G36*
G01*
X180622000Y-86640000D02*
X180622000Y-85690000D01*
G75*
G02*
X180872000Y-85440000I250000J0D01*
G01*
X181372000Y-85440000D01*
G75*
G02*
X181622000Y-85690000I0J-250000D01*
G01*
X181622000Y-86640000D01*
G75*
G02*
X181372000Y-86890000I-250000J0D01*
G01*
X180872000Y-86890000D01*
G75*
G02*
X180622000Y-86640000I0J250000D01*
G01*
G37*
G36*
G01*
X173252000Y-110910000D02*
X173252000Y-111860000D01*
G75*
G02*
X173002000Y-112110000I-250000J0D01*
G01*
X172502000Y-112110000D01*
G75*
G02*
X172252000Y-111860000I0J250000D01*
G01*
X172252000Y-110910000D01*
G75*
G02*
X172502000Y-110660000I250000J0D01*
G01*
X173002000Y-110660000D01*
G75*
G02*
X173252000Y-110910000I0J-250000D01*
G01*
G37*
G36*
G01*
X175152000Y-110910000D02*
X175152000Y-111860000D01*
G75*
G02*
X174902000Y-112110000I-250000J0D01*
G01*
X174402000Y-112110000D01*
G75*
G02*
X174152000Y-111860000I0J250000D01*
G01*
X174152000Y-110910000D01*
G75*
G02*
X174402000Y-110660000I250000J0D01*
G01*
X174902000Y-110660000D01*
G75*
G02*
X175152000Y-110910000I0J-250000D01*
G01*
G37*
G36*
G01*
X168542000Y-86580000D02*
X168542000Y-85630000D01*
G75*
G02*
X168792000Y-85380000I250000J0D01*
G01*
X169292000Y-85380000D01*
G75*
G02*
X169542000Y-85630000I0J-250000D01*
G01*
X169542000Y-86580000D01*
G75*
G02*
X169292000Y-86830000I-250000J0D01*
G01*
X168792000Y-86830000D01*
G75*
G02*
X168542000Y-86580000I0J250000D01*
G01*
G37*
G36*
G01*
X170442000Y-86580000D02*
X170442000Y-85630000D01*
G75*
G02*
X170692000Y-85380000I250000J0D01*
G01*
X171192000Y-85380000D01*
G75*
G02*
X171442000Y-85630000I0J-250000D01*
G01*
X171442000Y-86580000D01*
G75*
G02*
X171192000Y-86830000I-250000J0D01*
G01*
X170692000Y-86830000D01*
G75*
G02*
X170442000Y-86580000I0J250000D01*
G01*
G37*
G36*
G01*
X162932000Y-110920000D02*
X162932000Y-111870000D01*
G75*
G02*
X162682000Y-112120000I-250000J0D01*
G01*
X162182000Y-112120000D01*
G75*
G02*
X161932000Y-111870000I0J250000D01*
G01*
X161932000Y-110920000D01*
G75*
G02*
X162182000Y-110670000I250000J0D01*
G01*
X162682000Y-110670000D01*
G75*
G02*
X162932000Y-110920000I0J-250000D01*
G01*
G37*
G36*
G01*
X164832000Y-110920000D02*
X164832000Y-111870000D01*
G75*
G02*
X164582000Y-112120000I-250000J0D01*
G01*
X164082000Y-112120000D01*
G75*
G02*
X163832000Y-111870000I0J250000D01*
G01*
X163832000Y-110920000D01*
G75*
G02*
X164082000Y-110670000I250000J0D01*
G01*
X164582000Y-110670000D01*
G75*
G02*
X164832000Y-110920000I0J-250000D01*
G01*
G37*
D16*
X194312000Y-90225000D03*
X194312000Y-86225000D03*
X184122000Y-90255000D03*
X184122000Y-86255000D03*
X173942000Y-86255000D03*
X173942000Y-90255000D03*
X163652000Y-86235000D03*
X163652000Y-90235000D03*
G36*
G01*
X195327000Y-92925000D02*
X196777000Y-92925000D01*
G75*
G02*
X197152000Y-93300000I0J-375000D01*
G01*
X197152000Y-94050000D01*
G75*
G02*
X196777000Y-94425000I-375000J0D01*
G01*
X195327000Y-94425000D01*
G75*
G02*
X194952000Y-94050000I0J375000D01*
G01*
X194952000Y-93300000D01*
G75*
G02*
X195327000Y-92925000I375000J0D01*
G01*
G37*
G36*
G01*
X195327000Y-99225000D02*
X196777000Y-99225000D01*
G75*
G02*
X197152000Y-99600000I0J-375000D01*
G01*
X197152000Y-100350000D01*
G75*
G02*
X196777000Y-100725000I-375000J0D01*
G01*
X195327000Y-100725000D01*
G75*
G02*
X194952000Y-100350000I0J375000D01*
G01*
X194952000Y-99600000D01*
G75*
G02*
X195327000Y-99225000I375000J0D01*
G01*
G37*
G36*
G01*
X185127000Y-99225000D02*
X186577000Y-99225000D01*
G75*
G02*
X186952000Y-99600000I0J-375000D01*
G01*
X186952000Y-100350000D01*
G75*
G02*
X186577000Y-100725000I-375000J0D01*
G01*
X185127000Y-100725000D01*
G75*
G02*
X184752000Y-100350000I0J375000D01*
G01*
X184752000Y-99600000D01*
G75*
G02*
X185127000Y-99225000I375000J0D01*
G01*
G37*
G36*
G01*
X185127000Y-92925000D02*
X186577000Y-92925000D01*
G75*
G02*
X186952000Y-93300000I0J-375000D01*
G01*
X186952000Y-94050000D01*
G75*
G02*
X186577000Y-94425000I-375000J0D01*
G01*
X185127000Y-94425000D01*
G75*
G02*
X184752000Y-94050000I0J375000D01*
G01*
X184752000Y-93300000D01*
G75*
G02*
X185127000Y-92925000I375000J0D01*
G01*
G37*
G36*
G01*
X174937000Y-92925000D02*
X176387000Y-92925000D01*
G75*
G02*
X176762000Y-93300000I0J-375000D01*
G01*
X176762000Y-94050000D01*
G75*
G02*
X176387000Y-94425000I-375000J0D01*
G01*
X174937000Y-94425000D01*
G75*
G02*
X174562000Y-94050000I0J375000D01*
G01*
X174562000Y-93300000D01*
G75*
G02*
X174937000Y-92925000I375000J0D01*
G01*
G37*
G36*
G01*
X174937000Y-99225000D02*
X176387000Y-99225000D01*
G75*
G02*
X176762000Y-99600000I0J-375000D01*
G01*
X176762000Y-100350000D01*
G75*
G02*
X176387000Y-100725000I-375000J0D01*
G01*
X174937000Y-100725000D01*
G75*
G02*
X174562000Y-100350000I0J375000D01*
G01*
X174562000Y-99600000D01*
G75*
G02*
X174937000Y-99225000I375000J0D01*
G01*
G37*
G36*
G01*
X164747000Y-99215000D02*
X166197000Y-99215000D01*
G75*
G02*
X166572000Y-99590000I0J-375000D01*
G01*
X166572000Y-100340000D01*
G75*
G02*
X166197000Y-100715000I-375000J0D01*
G01*
X164747000Y-100715000D01*
G75*
G02*
X164372000Y-100340000I0J375000D01*
G01*
X164372000Y-99590000D01*
G75*
G02*
X164747000Y-99215000I375000J0D01*
G01*
G37*
G36*
G01*
X164747000Y-92915000D02*
X166197000Y-92915000D01*
G75*
G02*
X166572000Y-93290000I0J-375000D01*
G01*
X166572000Y-94040000D01*
G75*
G02*
X166197000Y-94415000I-375000J0D01*
G01*
X164747000Y-94415000D01*
G75*
G02*
X164372000Y-94040000I0J375000D01*
G01*
X164372000Y-93290000D01*
G75*
G02*
X164747000Y-92915000I375000J0D01*
G01*
G37*
D26*
X194662000Y-105725000D03*
D25*
X199742000Y-105725000D03*
X189572000Y-105725000D03*
D26*
X184492000Y-105725000D03*
X174322000Y-105725000D03*
D25*
X179402000Y-105725000D03*
X169222000Y-105725000D03*
D26*
X164142000Y-105725000D03*
G36*
G01*
X201787001Y-98990000D02*
X200536999Y-98990000D01*
G75*
G02*
X200287000Y-98740001I0J249999D01*
G01*
X200287000Y-98114999D01*
G75*
G02*
X200536999Y-97865000I249999J0D01*
G01*
X201787001Y-97865000D01*
G75*
G02*
X202037000Y-98114999I0J-249999D01*
G01*
X202037000Y-98740001D01*
G75*
G02*
X201787001Y-98990000I-249999J0D01*
G01*
G37*
G36*
G01*
X201787001Y-96065000D02*
X200536999Y-96065000D01*
G75*
G02*
X200287000Y-95815001I0J249999D01*
G01*
X200287000Y-95189999D01*
G75*
G02*
X200536999Y-94940000I249999J0D01*
G01*
X201787001Y-94940000D01*
G75*
G02*
X202037000Y-95189999I0J-249999D01*
G01*
X202037000Y-95815001D01*
G75*
G02*
X201787001Y-96065000I-249999J0D01*
G01*
G37*
G36*
G01*
X191587001Y-96025000D02*
X190336999Y-96025000D01*
G75*
G02*
X190087000Y-95775001I0J249999D01*
G01*
X190087000Y-95149999D01*
G75*
G02*
X190336999Y-94900000I249999J0D01*
G01*
X191587001Y-94900000D01*
G75*
G02*
X191837000Y-95149999I0J-249999D01*
G01*
X191837000Y-95775001D01*
G75*
G02*
X191587001Y-96025000I-249999J0D01*
G01*
G37*
G36*
G01*
X191587001Y-98950000D02*
X190336999Y-98950000D01*
G75*
G02*
X190087000Y-98700001I0J249999D01*
G01*
X190087000Y-98074999D01*
G75*
G02*
X190336999Y-97825000I249999J0D01*
G01*
X191587001Y-97825000D01*
G75*
G02*
X191837000Y-98074999I0J-249999D01*
G01*
X191837000Y-98700001D01*
G75*
G02*
X191587001Y-98950000I-249999J0D01*
G01*
G37*
G36*
G01*
X181397001Y-96025000D02*
X180146999Y-96025000D01*
G75*
G02*
X179897000Y-95775001I0J249999D01*
G01*
X179897000Y-95149999D01*
G75*
G02*
X180146999Y-94900000I249999J0D01*
G01*
X181397001Y-94900000D01*
G75*
G02*
X181647000Y-95149999I0J-249999D01*
G01*
X181647000Y-95775001D01*
G75*
G02*
X181397001Y-96025000I-249999J0D01*
G01*
G37*
G36*
G01*
X181397001Y-98950000D02*
X180146999Y-98950000D01*
G75*
G02*
X179897000Y-98700001I0J249999D01*
G01*
X179897000Y-98074999D01*
G75*
G02*
X180146999Y-97825000I249999J0D01*
G01*
X181397001Y-97825000D01*
G75*
G02*
X181647000Y-98074999I0J-249999D01*
G01*
X181647000Y-98700001D01*
G75*
G02*
X181397001Y-98950000I-249999J0D01*
G01*
G37*
G36*
G01*
X171217001Y-98950000D02*
X169966999Y-98950000D01*
G75*
G02*
X169717000Y-98700001I0J249999D01*
G01*
X169717000Y-98074999D01*
G75*
G02*
X169966999Y-97825000I249999J0D01*
G01*
X171217001Y-97825000D01*
G75*
G02*
X171467000Y-98074999I0J-249999D01*
G01*
X171467000Y-98700001D01*
G75*
G02*
X171217001Y-98950000I-249999J0D01*
G01*
G37*
G36*
G01*
X171217001Y-96025000D02*
X169966999Y-96025000D01*
G75*
G02*
X169717000Y-95775001I0J249999D01*
G01*
X169717000Y-95149999D01*
G75*
G02*
X169966999Y-94900000I249999J0D01*
G01*
X171217001Y-94900000D01*
G75*
G02*
X171467000Y-95149999I0J-249999D01*
G01*
X171467000Y-95775001D01*
G75*
G02*
X171217001Y-96025000I-249999J0D01*
G01*
G37*
D28*
X201272000Y-88405000D03*
X201272000Y-91405000D03*
X197572000Y-88405000D03*
X197572000Y-91405000D03*
D27*
G36*
X200322000Y-89405000D02*
G01*
X202022000Y-89405000D01*
X202022000Y-90405000D01*
X200322000Y-90405000D01*
X199822000Y-90905000D01*
X199022000Y-90905000D01*
X198522000Y-90405000D01*
X196822000Y-90405000D01*
X196822000Y-89405000D01*
X198522000Y-89405000D01*
X199022000Y-88905000D01*
X199822000Y-88905000D01*
X200322000Y-89405000D01*
G37*
G36*
X190092000Y-89385000D02*
G01*
X191792000Y-89385000D01*
X191792000Y-90385000D01*
X190092000Y-90385000D01*
X189592000Y-90885000D01*
X188792000Y-90885000D01*
X188292000Y-90385000D01*
X186592000Y-90385000D01*
X186592000Y-89385000D01*
X188292000Y-89385000D01*
X188792000Y-88885000D01*
X189592000Y-88885000D01*
X190092000Y-89385000D01*
G37*
D28*
X187342000Y-91385000D03*
X187342000Y-88385000D03*
X191042000Y-91385000D03*
X191042000Y-88385000D03*
X180892000Y-88385000D03*
X180892000Y-91385000D03*
X177192000Y-88385000D03*
X177192000Y-91385000D03*
D27*
G36*
X179942000Y-89385000D02*
G01*
X181642000Y-89385000D01*
X181642000Y-90385000D01*
X179942000Y-90385000D01*
X179442000Y-90885000D01*
X178642000Y-90885000D01*
X178142000Y-90385000D01*
X176442000Y-90385000D01*
X176442000Y-89385000D01*
X178142000Y-89385000D01*
X178642000Y-88885000D01*
X179442000Y-88885000D01*
X179942000Y-89385000D01*
G37*
G36*
X169752000Y-89365000D02*
G01*
X171452000Y-89365000D01*
X171452000Y-90365000D01*
X169752000Y-90365000D01*
X169252000Y-90865000D01*
X168452000Y-90865000D01*
X167952000Y-90365000D01*
X166252000Y-90365000D01*
X166252000Y-89365000D01*
X167952000Y-89365000D01*
X168452000Y-88865000D01*
X169252000Y-88865000D01*
X169752000Y-89365000D01*
G37*
D28*
X167002000Y-91365000D03*
X167002000Y-88365000D03*
X170702000Y-91365000D03*
X170702000Y-88365000D03*
M02*
