G04 #@! TF.GenerationSoftware,KiCad,Pcbnew,5.1.12-84ad8e8a86~92~ubuntu20.04.1*
G04 #@! TF.CreationDate,2021-11-06T19:01:57+01:00*
G04 #@! TF.ProjectId,CC dimmer low voltage,43432064-696d-46d6-9572-206c6f772076,0.99*
G04 #@! TF.SameCoordinates,Original*
G04 #@! TF.FileFunction,Soldermask,Bot*
G04 #@! TF.FilePolarity,Negative*
%FSLAX46Y46*%
G04 Gerber Fmt 4.6, Leading zero omitted, Abs format (unit mm)*
G04 Created by KiCad (PCBNEW 5.1.12-84ad8e8a86~92~ubuntu20.04.1) date 2021-11-06 19:01:57*
%MOMM*%
%LPD*%
G01*
G04 APERTURE LIST*
%ADD10C,3.000000*%
%ADD11R,1.700000X1.700000*%
%ADD12C,3.200000*%
%ADD13O,1.700000X1.950000*%
%ADD14O,2.000000X1.905000*%
%ADD15R,2.000000X1.905000*%
%ADD16O,1.500000X1.050000*%
%ADD17R,1.500000X1.050000*%
%ADD18R,1.905000X2.000000*%
%ADD19O,1.905000X2.000000*%
%ADD20R,2.600000X2.600000*%
%ADD21C,2.600000*%
%ADD22C,2.500000*%
%ADD23R,2.500000X2.500000*%
%ADD24C,1.400000*%
G04 APERTURE END LIST*
D10*
X139601400Y-60172200D03*
X117001400Y-60172200D03*
D11*
X156362000Y-95855000D03*
X156372000Y-88435000D03*
D12*
X155522000Y-73075000D03*
X105489200Y-105816000D03*
X205336600Y-81051000D03*
G36*
G01*
X144572000Y-81830000D02*
X144572000Y-80380000D01*
G75*
G02*
X144822000Y-80130000I250000J0D01*
G01*
X146022000Y-80130000D01*
G75*
G02*
X146272000Y-80380000I0J-250000D01*
G01*
X146272000Y-81830000D01*
G75*
G02*
X146022000Y-82080000I-250000J0D01*
G01*
X144822000Y-82080000D01*
G75*
G02*
X144572000Y-81830000I0J250000D01*
G01*
G37*
D13*
X147922000Y-81105000D03*
X150422000Y-81105000D03*
G36*
G01*
X144642000Y-102860000D02*
X144642000Y-101410000D01*
G75*
G02*
X144892000Y-101160000I250000J0D01*
G01*
X146092000Y-101160000D01*
G75*
G02*
X146342000Y-101410000I0J-250000D01*
G01*
X146342000Y-102860000D01*
G75*
G02*
X146092000Y-103110000I-250000J0D01*
G01*
X144892000Y-103110000D01*
G75*
G02*
X144642000Y-102860000I0J250000D01*
G01*
G37*
X147992000Y-102135000D03*
X150492000Y-102135000D03*
X152992000Y-102135000D03*
D11*
X153832000Y-88435000D03*
X153822000Y-95855000D03*
X122100800Y-73304000D03*
D14*
X144224200Y-63017000D03*
X144224200Y-60477000D03*
D15*
X144224200Y-57937000D03*
D16*
X114709400Y-71526000D03*
X114709400Y-70256000D03*
D17*
X114709400Y-72796000D03*
D18*
X144910000Y-72211800D03*
D19*
X142370000Y-72211800D03*
X139830000Y-72211800D03*
D20*
X109802000Y-58215000D03*
D21*
X109802000Y-63215000D03*
D22*
X163992000Y-60065000D03*
D23*
X169072000Y-60065000D03*
X179242000Y-60065000D03*
D22*
X174162000Y-60065000D03*
X184322000Y-60065000D03*
D23*
X189402000Y-60065000D03*
X199572000Y-60065000D03*
D22*
X194492000Y-60065000D03*
D23*
X194662000Y-102555000D03*
D22*
X199742000Y-102555000D03*
X189582000Y-102555000D03*
D23*
X184502000Y-102555000D03*
X174342000Y-102555000D03*
D22*
X179422000Y-102555000D03*
X169272000Y-102555000D03*
D23*
X164192000Y-102555000D03*
D24*
X135442000Y-78125000D03*
X135442000Y-80665000D03*
X132902000Y-78125000D03*
X132902000Y-80665000D03*
X130362000Y-78125000D03*
X130362000Y-80665000D03*
X127822000Y-78125000D03*
X127822000Y-80665000D03*
X125282000Y-78125000D03*
X125282000Y-80665000D03*
X122742000Y-78125000D03*
X122742000Y-80665000D03*
X120202000Y-78125000D03*
X120202000Y-80665000D03*
X117662000Y-78125000D03*
X117662000Y-80665000D03*
X115122000Y-78125000D03*
X115122000Y-80665000D03*
X112582000Y-78125000D03*
X112582000Y-80665000D03*
X135442000Y-103525000D03*
X135442000Y-106065000D03*
X132902000Y-103525000D03*
X132902000Y-106065000D03*
X130362000Y-103525000D03*
X130362000Y-106065000D03*
X127822000Y-103525000D03*
X127822000Y-106065000D03*
X125282000Y-103525000D03*
X125282000Y-106065000D03*
X122742000Y-103525000D03*
X122742000Y-106065000D03*
X120202000Y-103525000D03*
X120202000Y-106065000D03*
X117662000Y-103525000D03*
X117662000Y-106065000D03*
X115122000Y-103525000D03*
X115122000Y-106065000D03*
X112582000Y-106065000D03*
X112582000Y-103525000D03*
M02*
