M48
METRIC,TZ
T1C0.400
T2C0.750
T3C0.800
T4C0.950
T5C1.000
T6C1.100
T7C1.300
T8C1.500
%
G90
G05
T1
X100101Y-51079
X101702Y-70536
X102032Y-59004
X102362Y-44653
X106324Y-80569
X110084Y-55169
X111531Y-96571
X112293Y-73431
X113055Y-88798
X114706Y-102895
X116764Y-44247
X118567Y-95072
X118643Y-81636
X120269Y-55575
X123317Y-92735
X127051Y-61900
X128600Y-95021
X130708Y-43459
X135509Y-77216
X136042Y-80569
X136500Y-53975
X136931Y-82042
X137236Y-64541
X137592Y-43409
X137706Y-88786
X137846Y-104699
X139700Y-88824
X139979Y-101321
X141275Y-67640
X144374Y-111379
X146456Y-78105
X147320Y-64643
X148387Y-53873
X149352Y-73838
X152578Y-105639
X152730Y-43917
X153137Y-90221
X153187Y-94971
X153848Y-59817
X155016Y-72644
X155473Y-64795
X158013Y-87554
X158090Y-89052
X158242Y-70358
X158242Y-74549
X158877Y-82550
X161214Y-72466
X161417Y-85369
X161417Y-88824
X161595Y-70663
X164109Y-94996
X164719Y-86932
X164948Y-65024
X165786Y-72568
X165862Y-100330
X166446Y-105613
X166497Y-82550
X166726Y-115418
X166929Y-43815
X167716Y-59461
X167818Y-51943
X168123Y-86741
X169316Y-72619
X169545Y-94869
X170231Y-64795
X172212Y-87605
X172441Y-70333
X172532Y-74549
X172593Y-89091
X172847Y-82550
X175514Y-70485
X175641Y-72466
X175641Y-85446
X175641Y-89408
X178359Y-95148
X178816Y-86932
X179146Y-65075
X179832Y-100330
X180061Y-72568
X180264Y-105689
X180467Y-82550
X180797Y-115519
X181534Y-43891
X182042Y-59385
X182220Y-52146
X182245Y-86766
X183667Y-94894
X183769Y-72644
X184455Y-64541
X186233Y-87655
X186563Y-89027
X186969Y-70307
X187010Y-74422
X187452Y-82550
X189672Y-85385
X189674Y-89535
X189925Y-72263
X189992Y-70485
X192507Y-95174
X192849Y-86932
X193421Y-64922
X194310Y-72593
X194437Y-100330
X194742Y-105740
X194920Y-115519
X195072Y-82550
X195859Y-43967
X196342Y-59385
X196494Y-51816
X196571Y-86716
X197815Y-94920
X197993Y-72644
X198349Y-64541
X200558Y-87630
X201041Y-89027
X201219Y-70206
X201234Y-74422
X201422Y-82550
X204023Y-85537
X204023Y-88707
X204330Y-70676
X204470Y-72263
X206756Y-95174
X207074Y-86932
X207162Y-116637
X208204Y-64922
X209398Y-83033
X211150Y-87401
X211455Y-102438
X211531Y-110439
X212090Y-49301
X212090Y-57379
X212090Y-70510
X212928Y-94564
X214122Y-80010
T2
X108788Y-68123
X108788Y-69393
X108788Y-70663
T3
X109703Y-83109
X109703Y-85649
X109703Y-108509
X109703Y-111049
X112243Y-83109
X112243Y-85649
X112243Y-108509
X112243Y-111049
X114783Y-83109
X114783Y-85649
X114783Y-108509
X114783Y-111049
X117323Y-83109
X117323Y-85649
X117323Y-108509
X117323Y-111049
X119863Y-83109
X119863Y-85649
X119863Y-108509
X119863Y-111049
X122403Y-83109
X122403Y-85649
X122403Y-108509
X122403Y-111049
X124943Y-83109
X124943Y-85649
X124943Y-108509
X124943Y-111049
X127483Y-83109
X127483Y-85649
X127483Y-108509
X127483Y-111049
X130023Y-83109
X130023Y-85649
X130023Y-108509
X130023Y-111049
X132563Y-83109
X132563Y-85649
X132563Y-108509
X132563Y-111049
T4
X108077Y-76911
X110577Y-76911
X113077Y-76911
X142773Y-113919
X145273Y-113919
X147773Y-113919
X150273Y-113919
T5
X114579Y-58801
X143459Y-106426
X143561Y-87605
X149454Y-106477
X149479Y-87605
X209423Y-80010
T6
X126238Y-70002
X126238Y-72542
X126238Y-75082
X137871Y-58014
X140411Y-58014
X142951Y-58014
T7
X110033Y-45978
X110033Y-50978
X157163Y-47815
X158373Y-111798
X162163Y-47815
X163373Y-111798
X171450Y-47815
X172216Y-111862
X176450Y-47815
X177216Y-111862
X185801Y-47752
X186440Y-111862
X190801Y-47752
X191440Y-111862
X200152Y-47752
X200600Y-111989
X205152Y-47752
X205600Y-111989
T8
X122586Y-47828
X145186Y-47828
T0
M30
