G04 #@! TF.GenerationSoftware,KiCad,Pcbnew,5.1.11-e4df9d881f~92~ubuntu20.04.1*
G04 #@! TF.CreationDate,2021-10-29T00:11:59+02:00*
G04 #@! TF.ProjectId,CC dimmer low voltage,43432064-696d-46d6-9572-206c6f772076,0.95*
G04 #@! TF.SameCoordinates,Original*
G04 #@! TF.FileFunction,Soldermask,Bot*
G04 #@! TF.FilePolarity,Negative*
%FSLAX46Y46*%
G04 Gerber Fmt 4.6, Leading zero omitted, Abs format (unit mm)*
G04 Created by KiCad (PCBNEW 5.1.11-e4df9d881f~92~ubuntu20.04.1) date 2021-10-29 00:11:59*
%MOMM*%
%LPD*%
G01*
G04 APERTURE LIST*
%ADD10C,3.000000*%
%ADD11C,1.400000*%
%ADD12R,1.700000X1.700000*%
%ADD13C,3.200000*%
%ADD14O,1.700000X1.950000*%
%ADD15O,1.905000X2.000000*%
%ADD16R,1.905000X2.000000*%
%ADD17O,1.500000X1.050000*%
%ADD18R,1.500000X1.050000*%
%ADD19R,2.000000X1.905000*%
%ADD20O,2.000000X1.905000*%
%ADD21C,2.600000*%
%ADD22R,2.600000X2.600000*%
G04 APERTURE END LIST*
D10*
X145186400Y-47828200D03*
X122586400Y-47828200D03*
D11*
X132562600Y-83108800D03*
X132562600Y-85648800D03*
X130022600Y-83108800D03*
X130022600Y-85648800D03*
X127482600Y-83108800D03*
X127482600Y-85648800D03*
X124942600Y-83108800D03*
X124942600Y-85648800D03*
X122402600Y-83108800D03*
X122402600Y-85648800D03*
X119862600Y-83108800D03*
X119862600Y-85648800D03*
X117322600Y-83108800D03*
X117322600Y-85648800D03*
X114782600Y-83108800D03*
X114782600Y-85648800D03*
X112242600Y-83108800D03*
X112242600Y-85648800D03*
X109702600Y-83108800D03*
X109702600Y-85648800D03*
X132562600Y-108508800D03*
X132562600Y-111048800D03*
X130022600Y-108508800D03*
X130022600Y-111048800D03*
X127482600Y-108508800D03*
X127482600Y-111048800D03*
X124942600Y-108508800D03*
X124942600Y-111048800D03*
X122402600Y-108508800D03*
X122402600Y-111048800D03*
X119862600Y-108508800D03*
X119862600Y-111048800D03*
X117322600Y-108508800D03*
X117322600Y-111048800D03*
X114782600Y-108508800D03*
X114782600Y-111048800D03*
X112242600Y-108508800D03*
X112242600Y-111048800D03*
X109702600Y-111048800D03*
X109702600Y-108508800D03*
D12*
X149453600Y-106476800D03*
X149479000Y-87604600D03*
D13*
X212598000Y-43942000D03*
X100584000Y-79375000D03*
X212572600Y-115773200D03*
G36*
G01*
X107227000Y-77636200D02*
X107227000Y-76186200D01*
G75*
G02*
X107477000Y-75936200I250000J0D01*
G01*
X108677000Y-75936200D01*
G75*
G02*
X108927000Y-76186200I0J-250000D01*
G01*
X108927000Y-77636200D01*
G75*
G02*
X108677000Y-77886200I-250000J0D01*
G01*
X107477000Y-77886200D01*
G75*
G02*
X107227000Y-77636200I0J250000D01*
G01*
G37*
D14*
X110577000Y-76911200D03*
X113077000Y-76911200D03*
G36*
G01*
X141923400Y-114644000D02*
X141923400Y-113194000D01*
G75*
G02*
X142173400Y-112944000I250000J0D01*
G01*
X143373400Y-112944000D01*
G75*
G02*
X143623400Y-113194000I0J-250000D01*
G01*
X143623400Y-114644000D01*
G75*
G02*
X143373400Y-114894000I-250000J0D01*
G01*
X142173400Y-114894000D01*
G75*
G02*
X141923400Y-114644000I0J250000D01*
G01*
G37*
X145273400Y-113919000D03*
X147773400Y-113919000D03*
X150273400Y-113919000D03*
D12*
X143560800Y-87604600D03*
X143459200Y-106426000D03*
X209423000Y-80010000D03*
X114579400Y-58801000D03*
D15*
X142951200Y-58013600D03*
X140411200Y-58013600D03*
D16*
X137871200Y-58013600D03*
D17*
X108788200Y-69392800D03*
X108788200Y-68122800D03*
D18*
X108788200Y-70662800D03*
D19*
X126238000Y-75082400D03*
D20*
X126238000Y-72542400D03*
X126238000Y-70002400D03*
D21*
X162162500Y-47815500D03*
D22*
X157162500Y-47815500D03*
D21*
X176450000Y-47815500D03*
D22*
X171450000Y-47815500D03*
D21*
X190801000Y-47752000D03*
D22*
X185801000Y-47752000D03*
D21*
X205152000Y-47752000D03*
D22*
X200152000Y-47752000D03*
X205600300Y-111988600D03*
D21*
X200600300Y-111988600D03*
D22*
X191439800Y-111861600D03*
D21*
X186439800Y-111861600D03*
D22*
X177215800Y-111861600D03*
D21*
X172215800Y-111861600D03*
D22*
X163372800Y-111798100D03*
D21*
X158372800Y-111798100D03*
D22*
X110032800Y-50977800D03*
D21*
X110032800Y-45977800D03*
M02*
