G04 #@! TF.GenerationSoftware,KiCad,Pcbnew,5.1.11-e4df9d881f~92~ubuntu20.04.1*
G04 #@! TF.CreationDate,2021-10-29T00:11:59+02:00*
G04 #@! TF.ProjectId,CC dimmer low voltage,43432064-696d-46d6-9572-206c6f772076,0.95*
G04 #@! TF.SameCoordinates,Original*
G04 #@! TF.FileFunction,Legend,Top*
G04 #@! TF.FilePolarity,Positive*
%FSLAX46Y46*%
G04 Gerber Fmt 4.6, Leading zero omitted, Abs format (unit mm)*
G04 Created by KiCad (PCBNEW 5.1.11-e4df9d881f~92~ubuntu20.04.1) date 2021-10-29 00:11:59*
%MOMM*%
%LPD*%
G01*
G04 APERTURE LIST*
%ADD10C,0.150000*%
%ADD11C,0.100000*%
%ADD12C,0.400000*%
%ADD13C,0.300000*%
%ADD14C,0.120000*%
%ADD15C,0.010000*%
G04 APERTURE END LIST*
D10*
X108986628Y-61391752D02*
X108986628Y-60629847D01*
D11*
X128111304Y-71196047D02*
X128911304Y-70929380D01*
X128111304Y-70662714D01*
X128911304Y-70281761D02*
X128873209Y-70357952D01*
X128835114Y-70396047D01*
X128758923Y-70434142D01*
X128530352Y-70434142D01*
X128454161Y-70396047D01*
X128416066Y-70357952D01*
X128377971Y-70281761D01*
X128377971Y-70167476D01*
X128416066Y-70091285D01*
X128454161Y-70053190D01*
X128530352Y-70015095D01*
X128758923Y-70015095D01*
X128835114Y-70053190D01*
X128873209Y-70091285D01*
X128911304Y-70167476D01*
X128911304Y-70281761D01*
X128377971Y-69329380D02*
X128911304Y-69329380D01*
X128377971Y-69672238D02*
X128797019Y-69672238D01*
X128873209Y-69634142D01*
X128911304Y-69557952D01*
X128911304Y-69443666D01*
X128873209Y-69367476D01*
X128835114Y-69329380D01*
X128377971Y-69062714D02*
X128377971Y-68757952D01*
X128111304Y-68948428D02*
X128797019Y-68948428D01*
X128873209Y-68910333D01*
X128911304Y-68834142D01*
X128911304Y-68757952D01*
X128035104Y-76028447D02*
X128835104Y-75761780D01*
X128035104Y-75495114D01*
X128835104Y-75228447D02*
X128301771Y-75228447D01*
X128035104Y-75228447D02*
X128073200Y-75266542D01*
X128111295Y-75228447D01*
X128073200Y-75190352D01*
X128035104Y-75228447D01*
X128111295Y-75228447D01*
X128301771Y-74847495D02*
X128835104Y-74847495D01*
X128377961Y-74847495D02*
X128339866Y-74809400D01*
X128301771Y-74733209D01*
X128301771Y-74618923D01*
X128339866Y-74542733D01*
X128416057Y-74504638D01*
X128835104Y-74504638D01*
D10*
X141579647Y-62428428D02*
X142341552Y-62428428D01*
X207746647Y-77770028D02*
X208508552Y-77770028D01*
X199009047Y-81707028D02*
X199770952Y-81707028D01*
X192963847Y-78024028D02*
X193725752Y-78024028D01*
X184708847Y-81681628D02*
X185470752Y-81681628D01*
X178638247Y-78049428D02*
X179400152Y-78049428D01*
X170510247Y-81656228D02*
X171272152Y-81656228D01*
X156565647Y-81580028D02*
X157327552Y-81580028D01*
X164312647Y-77998628D02*
X165074552Y-77998628D01*
D12*
X102447838Y-86261723D02*
X104447838Y-86261723D01*
X103685933Y-86261723D02*
X103781171Y-86452200D01*
X103781171Y-86833152D01*
X103685933Y-87023628D01*
X103590695Y-87118866D01*
X103400219Y-87214104D01*
X102828790Y-87214104D01*
X102638314Y-87118866D01*
X102543076Y-87023628D01*
X102447838Y-86833152D01*
X102447838Y-86452200D01*
X102543076Y-86261723D01*
X103781171Y-87880771D02*
X102447838Y-88356961D01*
X103781171Y-88833152D02*
X102447838Y-88356961D01*
X101971647Y-88166485D01*
X101876409Y-88071247D01*
X101781171Y-87880771D01*
D11*
X208991438Y-81934104D02*
X209258104Y-82734104D01*
X209524771Y-81934104D01*
X210743819Y-82734104D02*
X210743819Y-81934104D01*
X210743819Y-82696009D02*
X210667628Y-82734104D01*
X210515247Y-82734104D01*
X210439057Y-82696009D01*
X210400961Y-82657914D01*
X210362866Y-82581723D01*
X210362866Y-82353152D01*
X210400961Y-82276961D01*
X210439057Y-82238866D01*
X210515247Y-82200771D01*
X210667628Y-82200771D01*
X210743819Y-82238866D01*
X211124771Y-82734104D02*
X211124771Y-82200771D01*
X211124771Y-82353152D02*
X211162866Y-82276961D01*
X211200961Y-82238866D01*
X211277152Y-82200771D01*
X211353342Y-82200771D01*
X211734295Y-82734104D02*
X211658104Y-82696009D01*
X211620009Y-82657914D01*
X211581914Y-82581723D01*
X211581914Y-82353152D01*
X211620009Y-82276961D01*
X211658104Y-82238866D01*
X211734295Y-82200771D01*
X211848580Y-82200771D01*
X211924771Y-82238866D01*
X211962866Y-82276961D01*
X212000961Y-82353152D01*
X212000961Y-82581723D01*
X211962866Y-82657914D01*
X211924771Y-82696009D01*
X211848580Y-82734104D01*
X211734295Y-82734104D01*
X212343819Y-82200771D02*
X212343819Y-83000771D01*
X212343819Y-82238866D02*
X212420009Y-82200771D01*
X212572390Y-82200771D01*
X212648580Y-82238866D01*
X212686676Y-82276961D01*
X212724771Y-82353152D01*
X212724771Y-82581723D01*
X212686676Y-82657914D01*
X212648580Y-82696009D01*
X212572390Y-82734104D01*
X212420009Y-82734104D01*
X212343819Y-82696009D01*
X111207809Y-57423104D02*
X110826857Y-57423104D01*
X110788761Y-57804057D01*
X110826857Y-57765961D01*
X110903047Y-57727866D01*
X111093523Y-57727866D01*
X111169714Y-57765961D01*
X111207809Y-57804057D01*
X111245904Y-57880247D01*
X111245904Y-58070723D01*
X111207809Y-58146914D01*
X111169714Y-58185009D01*
X111093523Y-58223104D01*
X110903047Y-58223104D01*
X110826857Y-58185009D01*
X110788761Y-58146914D01*
X111474476Y-57423104D02*
X111741142Y-58223104D01*
X112007809Y-57423104D01*
X112769714Y-57689771D02*
X113074476Y-57689771D01*
X112884000Y-58223104D02*
X112884000Y-57537390D01*
X112922095Y-57461200D01*
X112998285Y-57423104D01*
X113074476Y-57423104D01*
X113684000Y-57689771D02*
X113684000Y-58223104D01*
X113341142Y-57689771D02*
X113341142Y-58108819D01*
X113379238Y-58185009D01*
X113455428Y-58223104D01*
X113569714Y-58223104D01*
X113645904Y-58185009D01*
X113684000Y-58146914D01*
X114026857Y-58185009D02*
X114103047Y-58223104D01*
X114255428Y-58223104D01*
X114331619Y-58185009D01*
X114369714Y-58108819D01*
X114369714Y-58070723D01*
X114331619Y-57994533D01*
X114255428Y-57956438D01*
X114141142Y-57956438D01*
X114064952Y-57918342D01*
X114026857Y-57842152D01*
X114026857Y-57804057D01*
X114064952Y-57727866D01*
X114141142Y-57689771D01*
X114255428Y-57689771D01*
X114331619Y-57727866D01*
X115017333Y-58185009D02*
X114941142Y-58223104D01*
X114788761Y-58223104D01*
X114712571Y-58185009D01*
X114674476Y-58108819D01*
X114674476Y-57804057D01*
X114712571Y-57727866D01*
X114788761Y-57689771D01*
X114941142Y-57689771D01*
X115017333Y-57727866D01*
X115055428Y-57804057D01*
X115055428Y-57880247D01*
X114674476Y-57956438D01*
X115741142Y-58223104D02*
X115741142Y-57423104D01*
X115741142Y-58185009D02*
X115664952Y-58223104D01*
X115512571Y-58223104D01*
X115436380Y-58185009D01*
X115398285Y-58146914D01*
X115360190Y-58070723D01*
X115360190Y-57842152D01*
X115398285Y-57765961D01*
X115436380Y-57727866D01*
X115512571Y-57689771D01*
X115664952Y-57689771D01*
X115741142Y-57727866D01*
D13*
X99365571Y-44070714D02*
X99437000Y-43927857D01*
X99508428Y-43856428D01*
X99651285Y-43785000D01*
X99722714Y-43785000D01*
X99865571Y-43856428D01*
X99937000Y-43927857D01*
X100008428Y-44070714D01*
X100008428Y-44356428D01*
X99937000Y-44499285D01*
X99865571Y-44570714D01*
X99722714Y-44642142D01*
X99651285Y-44642142D01*
X99508428Y-44570714D01*
X99437000Y-44499285D01*
X99365571Y-44356428D01*
X99365571Y-44070714D01*
X99294142Y-43927857D01*
X99222714Y-43856428D01*
X99079857Y-43785000D01*
X98794142Y-43785000D01*
X98651285Y-43856428D01*
X98579857Y-43927857D01*
X98508428Y-44070714D01*
X98508428Y-44356428D01*
X98579857Y-44499285D01*
X98651285Y-44570714D01*
X98794142Y-44642142D01*
X99079857Y-44642142D01*
X99222714Y-44570714D01*
X99294142Y-44499285D01*
X99365571Y-44356428D01*
X98579857Y-45927857D02*
X98508428Y-45785000D01*
X98508428Y-45499285D01*
X98579857Y-45356428D01*
X98651285Y-45285000D01*
X98794142Y-45213571D01*
X99222714Y-45213571D01*
X99365571Y-45285000D01*
X99437000Y-45356428D01*
X99508428Y-45499285D01*
X99508428Y-45785000D01*
X99437000Y-45927857D01*
X98508428Y-46570714D02*
X100008428Y-46570714D01*
X98508428Y-47213571D02*
X99294142Y-47213571D01*
X99437000Y-47142142D01*
X99508428Y-46999285D01*
X99508428Y-46785000D01*
X99437000Y-46642142D01*
X99365571Y-46570714D01*
X98579857Y-49713571D02*
X98508428Y-49570714D01*
X98508428Y-49285000D01*
X98579857Y-49142142D01*
X98651285Y-49070714D01*
X98794142Y-48999285D01*
X99222714Y-48999285D01*
X99365571Y-49070714D01*
X99437000Y-49142142D01*
X99508428Y-49285000D01*
X99508428Y-49570714D01*
X99437000Y-49713571D01*
X98579857Y-50999285D02*
X98508428Y-50856428D01*
X98508428Y-50570714D01*
X98579857Y-50427857D01*
X98651285Y-50356428D01*
X98794142Y-50285000D01*
X99222714Y-50285000D01*
X99365571Y-50356428D01*
X99437000Y-50427857D01*
X99508428Y-50570714D01*
X99508428Y-50856428D01*
X99437000Y-50999285D01*
X98508428Y-52999285D02*
X98579857Y-52856428D01*
X98722714Y-52785000D01*
X100008428Y-52785000D01*
X98579857Y-54142142D02*
X98508428Y-53999285D01*
X98508428Y-53713571D01*
X98579857Y-53570714D01*
X98722714Y-53499285D01*
X99294142Y-53499285D01*
X99437000Y-53570714D01*
X99508428Y-53713571D01*
X99508428Y-53999285D01*
X99437000Y-54142142D01*
X99294142Y-54213571D01*
X99151285Y-54213571D01*
X99008428Y-53499285D01*
X98508428Y-55499285D02*
X100008428Y-55499285D01*
X98579857Y-55499285D02*
X98508428Y-55356428D01*
X98508428Y-55070714D01*
X98579857Y-54927857D01*
X98651285Y-54856428D01*
X98794142Y-54785000D01*
X99222714Y-54785000D01*
X99365571Y-54856428D01*
X99437000Y-54927857D01*
X99508428Y-55070714D01*
X99508428Y-55356428D01*
X99437000Y-55499285D01*
X98508428Y-57999285D02*
X100008428Y-57999285D01*
X98579857Y-57999285D02*
X98508428Y-57856428D01*
X98508428Y-57570714D01*
X98579857Y-57427857D01*
X98651285Y-57356428D01*
X98794142Y-57285000D01*
X99222714Y-57285000D01*
X99365571Y-57356428D01*
X99437000Y-57427857D01*
X99508428Y-57570714D01*
X99508428Y-57856428D01*
X99437000Y-57999285D01*
X98508428Y-58713571D02*
X99508428Y-58713571D01*
X99222714Y-58713571D02*
X99365571Y-58785000D01*
X99437000Y-58856428D01*
X99508428Y-58999285D01*
X99508428Y-59142142D01*
X98508428Y-59642142D02*
X99508428Y-59642142D01*
X100008428Y-59642142D02*
X99937000Y-59570714D01*
X99865571Y-59642142D01*
X99937000Y-59713571D01*
X100008428Y-59642142D01*
X99865571Y-59642142D01*
X99508428Y-60213571D02*
X98508428Y-60570714D01*
X99508428Y-60927857D01*
X98579857Y-62070714D02*
X98508428Y-61927857D01*
X98508428Y-61642142D01*
X98579857Y-61499285D01*
X98722714Y-61427857D01*
X99294142Y-61427857D01*
X99437000Y-61499285D01*
X99508428Y-61642142D01*
X99508428Y-61927857D01*
X99437000Y-62070714D01*
X99294142Y-62142142D01*
X99151285Y-62142142D01*
X99008428Y-61427857D01*
X98508428Y-62785000D02*
X99508428Y-62785000D01*
X99222714Y-62785000D02*
X99365571Y-62856428D01*
X99437000Y-62927857D01*
X99508428Y-63070714D01*
X99508428Y-63213571D01*
X99865571Y-64785000D02*
X99937000Y-64856428D01*
X100008428Y-64999285D01*
X100008428Y-65356428D01*
X99937000Y-65499285D01*
X99865571Y-65570714D01*
X99722714Y-65642142D01*
X99579857Y-65642142D01*
X99365571Y-65570714D01*
X98508428Y-64713571D01*
X98508428Y-65642142D01*
X100008428Y-66142142D02*
X100008428Y-67142142D01*
X98508428Y-66499285D01*
X100008428Y-67999285D02*
X100008428Y-68142142D01*
X99937000Y-68285000D01*
X99865571Y-68356428D01*
X99722714Y-68427857D01*
X99437000Y-68499285D01*
X99079857Y-68499285D01*
X98794142Y-68427857D01*
X98651285Y-68356428D01*
X98579857Y-68285000D01*
X98508428Y-68142142D01*
X98508428Y-67999285D01*
X98579857Y-67856428D01*
X98651285Y-67785000D01*
X98794142Y-67713571D01*
X99079857Y-67642142D01*
X99437000Y-67642142D01*
X99722714Y-67713571D01*
X99865571Y-67785000D01*
X99937000Y-67856428D01*
X100008428Y-67999285D01*
X98508428Y-69142142D02*
X99508428Y-69142142D01*
X99365571Y-69142142D02*
X99437000Y-69213571D01*
X99508428Y-69356428D01*
X99508428Y-69570714D01*
X99437000Y-69713571D01*
X99294142Y-69785000D01*
X98508428Y-69785000D01*
X99294142Y-69785000D02*
X99437000Y-69856428D01*
X99508428Y-69999285D01*
X99508428Y-70213571D01*
X99437000Y-70356428D01*
X99294142Y-70427857D01*
X98508428Y-70427857D01*
X98937000Y-71070714D02*
X98937000Y-71785000D01*
X98508428Y-70927857D02*
X100008428Y-71427857D01*
X98508428Y-71927857D01*
X212657571Y-110671142D02*
X213657571Y-110314000D01*
X212657571Y-109956857D01*
X212157571Y-109099714D02*
X212157571Y-108956857D01*
X212229000Y-108814000D01*
X212300428Y-108742571D01*
X212443285Y-108671142D01*
X212729000Y-108599714D01*
X213086142Y-108599714D01*
X213371857Y-108671142D01*
X213514714Y-108742571D01*
X213586142Y-108814000D01*
X213657571Y-108956857D01*
X213657571Y-109099714D01*
X213586142Y-109242571D01*
X213514714Y-109314000D01*
X213371857Y-109385428D01*
X213086142Y-109456857D01*
X212729000Y-109456857D01*
X212443285Y-109385428D01*
X212300428Y-109314000D01*
X212229000Y-109242571D01*
X212157571Y-109099714D01*
X213514714Y-107956857D02*
X213586142Y-107885428D01*
X213657571Y-107956857D01*
X213586142Y-108028285D01*
X213514714Y-107956857D01*
X213657571Y-107956857D01*
X213657571Y-107171142D02*
X213657571Y-106885428D01*
X213586142Y-106742571D01*
X213514714Y-106671142D01*
X213300428Y-106528285D01*
X213014714Y-106456857D01*
X212443285Y-106456857D01*
X212300428Y-106528285D01*
X212229000Y-106599714D01*
X212157571Y-106742571D01*
X212157571Y-107028285D01*
X212229000Y-107171142D01*
X212300428Y-107242571D01*
X212443285Y-107314000D01*
X212800428Y-107314000D01*
X212943285Y-107242571D01*
X213014714Y-107171142D01*
X213086142Y-107028285D01*
X213086142Y-106742571D01*
X213014714Y-106599714D01*
X212943285Y-106528285D01*
X212800428Y-106456857D01*
X212157571Y-105099714D02*
X212157571Y-105814000D01*
X212871857Y-105885428D01*
X212800428Y-105814000D01*
X212729000Y-105671142D01*
X212729000Y-105314000D01*
X212800428Y-105171142D01*
X212871857Y-105099714D01*
X213014714Y-105028285D01*
X213371857Y-105028285D01*
X213514714Y-105099714D01*
X213586142Y-105171142D01*
X213657571Y-105314000D01*
X213657571Y-105671142D01*
X213586142Y-105814000D01*
X213514714Y-105885428D01*
X213586142Y-104314000D02*
X213657571Y-104314000D01*
X213800428Y-104385428D01*
X213871857Y-104456857D01*
X212300428Y-102599714D02*
X212229000Y-102528285D01*
X212157571Y-102385428D01*
X212157571Y-102028285D01*
X212229000Y-101885428D01*
X212300428Y-101814000D01*
X212443285Y-101742571D01*
X212586142Y-101742571D01*
X212800428Y-101814000D01*
X213657571Y-102671142D01*
X213657571Y-101742571D01*
X212157571Y-100814000D02*
X212157571Y-100671142D01*
X212229000Y-100528285D01*
X212300428Y-100456857D01*
X212443285Y-100385428D01*
X212729000Y-100314000D01*
X213086142Y-100314000D01*
X213371857Y-100385428D01*
X213514714Y-100456857D01*
X213586142Y-100528285D01*
X213657571Y-100671142D01*
X213657571Y-100814000D01*
X213586142Y-100956857D01*
X213514714Y-101028285D01*
X213371857Y-101099714D01*
X213086142Y-101171142D01*
X212729000Y-101171142D01*
X212443285Y-101099714D01*
X212300428Y-101028285D01*
X212229000Y-100956857D01*
X212157571Y-100814000D01*
X212300428Y-99742571D02*
X212229000Y-99671142D01*
X212157571Y-99528285D01*
X212157571Y-99171142D01*
X212229000Y-99028285D01*
X212300428Y-98956857D01*
X212443285Y-98885428D01*
X212586142Y-98885428D01*
X212800428Y-98956857D01*
X213657571Y-99814000D01*
X213657571Y-98885428D01*
X213657571Y-97456857D02*
X213657571Y-98314000D01*
X213657571Y-97885428D02*
X212157571Y-97885428D01*
X212371857Y-98028285D01*
X212514714Y-98171142D01*
X212586142Y-98314000D01*
X213086142Y-96814000D02*
X213086142Y-95671142D01*
X213657571Y-94171142D02*
X213657571Y-95028285D01*
X213657571Y-94599714D02*
X212157571Y-94599714D01*
X212371857Y-94742571D01*
X212514714Y-94885428D01*
X212586142Y-95028285D01*
X212157571Y-93242571D02*
X212157571Y-93099714D01*
X212229000Y-92956857D01*
X212300428Y-92885428D01*
X212443285Y-92814000D01*
X212729000Y-92742571D01*
X213086142Y-92742571D01*
X213371857Y-92814000D01*
X213514714Y-92885428D01*
X213586142Y-92956857D01*
X213657571Y-93099714D01*
X213657571Y-93242571D01*
X213586142Y-93385428D01*
X213514714Y-93456857D01*
X213371857Y-93528285D01*
X213086142Y-93599714D01*
X212729000Y-93599714D01*
X212443285Y-93528285D01*
X212300428Y-93456857D01*
X212229000Y-93385428D01*
X212157571Y-93242571D01*
X213086142Y-92099714D02*
X213086142Y-90956857D01*
X212300428Y-90314000D02*
X212229000Y-90242571D01*
X212157571Y-90099714D01*
X212157571Y-89742571D01*
X212229000Y-89599714D01*
X212300428Y-89528285D01*
X212443285Y-89456857D01*
X212586142Y-89456857D01*
X212800428Y-89528285D01*
X213657571Y-90385428D01*
X213657571Y-89456857D01*
X212800428Y-88599714D02*
X212729000Y-88742571D01*
X212657571Y-88814000D01*
X212514714Y-88885428D01*
X212443285Y-88885428D01*
X212300428Y-88814000D01*
X212229000Y-88742571D01*
X212157571Y-88599714D01*
X212157571Y-88314000D01*
X212229000Y-88171142D01*
X212300428Y-88099714D01*
X212443285Y-88028285D01*
X212514714Y-88028285D01*
X212657571Y-88099714D01*
X212729000Y-88171142D01*
X212800428Y-88314000D01*
X212800428Y-88599714D01*
X212871857Y-88742571D01*
X212943285Y-88814000D01*
X213086142Y-88885428D01*
X213371857Y-88885428D01*
X213514714Y-88814000D01*
X213586142Y-88742571D01*
X213657571Y-88599714D01*
X213657571Y-88314000D01*
X213586142Y-88171142D01*
X213514714Y-88099714D01*
X213371857Y-88028285D01*
X213086142Y-88028285D01*
X212943285Y-88099714D01*
X212871857Y-88171142D01*
X212800428Y-88314000D01*
D14*
X122586400Y-43028200D02*
X122586400Y-45828200D01*
X122586400Y-49828200D02*
X122586400Y-52628200D01*
X145186400Y-49828200D02*
X145186400Y-52628200D01*
X145186400Y-52628200D02*
X122586400Y-52628200D01*
X145186400Y-43028200D02*
X122586400Y-43028200D01*
X145186400Y-43028200D02*
X145186400Y-45828200D01*
X185584000Y-70614000D02*
X185584000Y-70284000D01*
X185584000Y-70284000D02*
X188304000Y-70284000D01*
X189484000Y-74674000D02*
X188304000Y-74674000D01*
X185584000Y-75004000D02*
X185584000Y-74674000D01*
X188304000Y-75004000D02*
X185584000Y-75004000D01*
X188304000Y-75004000D02*
X188304000Y-74674000D01*
X188304000Y-70284000D02*
X188304000Y-70614000D01*
X133832600Y-109778800D02*
X138912600Y-109778800D01*
X102082600Y-84378800D02*
X102082600Y-108508800D01*
X102082600Y-84378800D02*
X104622600Y-81838800D01*
X102082600Y-109778800D02*
X104622600Y-112318800D01*
X102082600Y-109778800D02*
X102082600Y-108508800D01*
X104622600Y-81838800D02*
X138912600Y-81838800D01*
X104622600Y-112318800D02*
X133832600Y-112318800D01*
X133832600Y-112318800D02*
X133832600Y-109778800D01*
D11*
G36*
X137642600Y-111048800D02*
G01*
X135102600Y-111048800D01*
X135102600Y-109778800D01*
X137642600Y-109778800D01*
X137642600Y-111048800D01*
G37*
X137642600Y-111048800D02*
X135102600Y-111048800D01*
X135102600Y-109778800D01*
X137642600Y-109778800D01*
X137642600Y-111048800D01*
D14*
X138912600Y-109778800D02*
X138912600Y-81838800D01*
X138912600Y-102158800D02*
X145262600Y-102158800D01*
X145262600Y-102158800D02*
X145262600Y-91998800D01*
X145262600Y-91998800D02*
X138912600Y-91998800D01*
X138912600Y-102158800D02*
X136372600Y-102158800D01*
X136372600Y-102158800D02*
X136372600Y-91998800D01*
X136372600Y-91998800D02*
X138912600Y-91998800D01*
X148123600Y-105146800D02*
X149453600Y-105146800D01*
X148123600Y-106476800D02*
X148123600Y-105146800D01*
X148123600Y-107746800D02*
X150783600Y-107746800D01*
X150783600Y-107746800D02*
X150783600Y-107806800D01*
X148123600Y-107746800D02*
X148123600Y-107806800D01*
X148123600Y-107806800D02*
X150783600Y-107806800D01*
X148149000Y-86274600D02*
X149479000Y-86274600D01*
X148149000Y-87604600D02*
X148149000Y-86274600D01*
X148149000Y-88874600D02*
X150809000Y-88874600D01*
X150809000Y-88874600D02*
X150809000Y-88934600D01*
X148149000Y-88874600D02*
X148149000Y-88934600D01*
X148149000Y-88934600D02*
X150809000Y-88934600D01*
D15*
G36*
X106883205Y-98043995D02*
G01*
X105333800Y-99594004D01*
X105333800Y-102971600D01*
X101320600Y-102971600D01*
X101320600Y-99594004D01*
X99771196Y-98043995D01*
X98221791Y-96493985D01*
X99771196Y-94945204D01*
X100652578Y-94064177D01*
X100652578Y-95049466D01*
X100553361Y-95049837D01*
X100076000Y-95054679D01*
X99504500Y-95621411D01*
X99310405Y-95814695D01*
X99144563Y-95981385D01*
X99019157Y-96109112D01*
X98946366Y-96185511D01*
X98933000Y-96201671D01*
X98981459Y-96205484D01*
X99117469Y-96208882D01*
X99326982Y-96211703D01*
X99595949Y-96213789D01*
X99910324Y-96214981D01*
X100123631Y-96215200D01*
X101314262Y-96215200D01*
X101320600Y-95993281D01*
X101320600Y-96774000D01*
X98909333Y-96774000D01*
X99466400Y-97332800D01*
X100023468Y-97891600D01*
X101320600Y-97891600D01*
X101320600Y-98450400D01*
X100990400Y-98450400D01*
X100822238Y-98455952D01*
X100703308Y-98470480D01*
X100660200Y-98489967D01*
X100694050Y-98540915D01*
X100784739Y-98644297D01*
X100915976Y-98782016D01*
X100990400Y-98856800D01*
X101320600Y-99184064D01*
X101320600Y-98450400D01*
X101320600Y-97891600D01*
X101320600Y-96774000D01*
X101320600Y-95993281D01*
X101330131Y-95659562D01*
X101346000Y-95103925D01*
X101188361Y-95074460D01*
X101067238Y-95061804D01*
X100877620Y-95053045D01*
X100652578Y-95049466D01*
X100652578Y-94064177D01*
X101320600Y-93396424D01*
X101320600Y-93805135D01*
X100990400Y-94132400D01*
X100845763Y-94277192D01*
X100733320Y-94392497D01*
X100669155Y-94461684D01*
X100660200Y-94473832D01*
X100706552Y-94481048D01*
X100827825Y-94486151D01*
X100990400Y-94488000D01*
X101320600Y-94488000D01*
X101320600Y-93805135D01*
X101320600Y-93396424D01*
X101320600Y-90017600D01*
X102361627Y-90017600D01*
X102361627Y-92659200D01*
X102342794Y-92702792D01*
X102336600Y-92786200D01*
X102361206Y-92886625D01*
X102434046Y-92913200D01*
X102578913Y-92929867D01*
X102658145Y-92993784D01*
X102689237Y-93125823D01*
X102692200Y-93221133D01*
X102688199Y-93369437D01*
X102663325Y-93446510D01*
X102598276Y-93482708D01*
X102514400Y-93500751D01*
X102391482Y-93537350D01*
X102342307Y-93599961D01*
X102336600Y-93656421D01*
X102353116Y-93744897D01*
X102421434Y-93758179D01*
X102450900Y-93752289D01*
X102563424Y-93727843D01*
X102744380Y-93690321D01*
X102974796Y-93643483D01*
X103235697Y-93591090D01*
X103352600Y-93567835D01*
X103352600Y-93980000D01*
X102336600Y-93980000D01*
X102336600Y-94110766D01*
X102344311Y-94189434D01*
X102385215Y-94226482D01*
X102485970Y-94235441D01*
X102577900Y-94233252D01*
X102734749Y-94230115D01*
X102957140Y-94228514D01*
X103209024Y-94228625D01*
X103347789Y-94229485D01*
X103876378Y-94234000D01*
X103378000Y-94741850D01*
X102857300Y-94741925D01*
X102622696Y-94743291D01*
X102471509Y-94749674D01*
X102385567Y-94764623D01*
X102346698Y-94791686D01*
X102336728Y-94834412D01*
X102336600Y-94843600D01*
X102340523Y-94877742D01*
X102360912Y-94903235D01*
X102410699Y-94921338D01*
X102502818Y-94933315D01*
X102650200Y-94940426D01*
X102865779Y-94943934D01*
X103162487Y-94945099D01*
X103378000Y-94945200D01*
X103727964Y-94944817D01*
X103989260Y-94942828D01*
X104174822Y-94937970D01*
X104297582Y-94928983D01*
X104370472Y-94914604D01*
X104406425Y-94893572D01*
X104418373Y-94864625D01*
X104419400Y-94843600D01*
X104419400Y-95250000D01*
X102325496Y-95250000D01*
X102345014Y-95636513D01*
X102359709Y-95842945D01*
X102383447Y-95974901D01*
X102423991Y-96059496D01*
X102483194Y-96119113D01*
X102539396Y-96156269D01*
X102612745Y-96182522D01*
X102720479Y-96199706D01*
X102879836Y-96209655D01*
X103108054Y-96214205D01*
X103385937Y-96215200D01*
X103684540Y-96214591D01*
X103898940Y-96211176D01*
X104046531Y-96202565D01*
X104144709Y-96186374D01*
X104210869Y-96160215D01*
X104262407Y-96121701D01*
X104292400Y-96092740D01*
X104292400Y-96520000D01*
X104190257Y-96546496D01*
X104165400Y-96596200D01*
X104151765Y-96625599D01*
X104101581Y-96646516D01*
X104000930Y-96660296D01*
X103835895Y-96668288D01*
X103592557Y-96671836D01*
X103378000Y-96672400D01*
X103074203Y-96671080D01*
X102858064Y-96666223D01*
X102715665Y-96656483D01*
X102633089Y-96640512D01*
X102596418Y-96616963D01*
X102590600Y-96596200D01*
X102546440Y-96534914D01*
X102463600Y-96520000D01*
X102388227Y-96528235D01*
X102350625Y-96570262D01*
X102337804Y-96672063D01*
X102336600Y-96774000D01*
X102340718Y-96924746D01*
X102361732Y-96999950D01*
X102412632Y-97025593D01*
X102463600Y-97028000D01*
X102565744Y-97001503D01*
X102590600Y-96951800D01*
X102604236Y-96922400D01*
X102654420Y-96901483D01*
X102755071Y-96887703D01*
X102920106Y-96879711D01*
X103163444Y-96876163D01*
X103378000Y-96875600D01*
X103681798Y-96876919D01*
X103897937Y-96881776D01*
X104040336Y-96891516D01*
X104122912Y-96907487D01*
X104159583Y-96931036D01*
X104165400Y-96951800D01*
X104209561Y-97013085D01*
X104292400Y-97028000D01*
X104367774Y-97019764D01*
X104405376Y-96977737D01*
X104418197Y-96875936D01*
X104419400Y-96774000D01*
X104419400Y-97332800D01*
X102336600Y-97332800D01*
X102336600Y-97717333D01*
X102338280Y-97911974D01*
X102347522Y-98025336D01*
X102370630Y-98077731D01*
X102413908Y-98089471D01*
X102450900Y-98085633D01*
X102520732Y-98063114D01*
X102554308Y-98003020D01*
X102563941Y-97877322D01*
X102564033Y-97828100D01*
X102569289Y-97680224D01*
X102594099Y-97607727D01*
X102649209Y-97584769D01*
X102665633Y-97583823D01*
X102749849Y-97583058D01*
X102915876Y-97582871D01*
X103143927Y-97583239D01*
X103414216Y-97584139D01*
X103593900Y-97584950D01*
X104208826Y-97588006D01*
X104208826Y-98399600D01*
X102547175Y-98399600D01*
X102441888Y-98533450D01*
X102349882Y-98721735D01*
X102352453Y-98919151D01*
X102389188Y-99012539D01*
X102415828Y-99093413D01*
X102389188Y-99110800D01*
X102349883Y-99154322D01*
X102336600Y-99239777D01*
X102336600Y-99368755D01*
X102336600Y-99618223D01*
X102336600Y-99991044D01*
X102340202Y-100175964D01*
X102349701Y-100318070D01*
X102363140Y-100389655D01*
X102364942Y-100392208D01*
X102431325Y-100404329D01*
X102491942Y-100394750D01*
X102553145Y-100359743D01*
X102582769Y-100278590D01*
X102590599Y-100124131D01*
X102590600Y-100120875D01*
X102590600Y-99872800D01*
X103606600Y-99872800D01*
X103606600Y-100050600D01*
X103617966Y-100173143D01*
X103662334Y-100222588D01*
X103708200Y-100228400D01*
X103778225Y-100208511D01*
X103806479Y-100130866D01*
X103809800Y-100050600D01*
X103817726Y-99931412D01*
X103861919Y-99882530D01*
X103973005Y-99872817D01*
X103984680Y-99872800D01*
X104094796Y-99879215D01*
X104147971Y-99917372D01*
X104169234Y-100015633D01*
X104175180Y-100088700D01*
X104194608Y-100229651D01*
X104236583Y-100297959D01*
X104305100Y-100320833D01*
X104364746Y-100323167D01*
X104398949Y-100294957D01*
X104414756Y-100215216D01*
X104419216Y-100062961D01*
X104419400Y-99980474D01*
X104419400Y-99623882D01*
X103378000Y-99621052D01*
X102336600Y-99618223D01*
X102336600Y-99368755D01*
X102781100Y-99354077D01*
X103225600Y-99339400D01*
X103225600Y-99085400D01*
X103220251Y-98933049D01*
X103197547Y-98857066D01*
X103147500Y-98832486D01*
X103124000Y-98831400D01*
X103040890Y-98865034D01*
X103006326Y-98971100D01*
X102980815Y-99067770D01*
X102912615Y-99105598D01*
X102821261Y-99110800D01*
X102689642Y-99090042D01*
X102617990Y-99015025D01*
X102591777Y-98866630D01*
X102590600Y-98807280D01*
X102617652Y-98686931D01*
X102670955Y-98633635D01*
X102756448Y-98620550D01*
X102918289Y-98611171D01*
X103131296Y-98605497D01*
X103370284Y-98603527D01*
X103610070Y-98605262D01*
X103825469Y-98610702D01*
X103991300Y-98619846D01*
X104082377Y-98632696D01*
X104085046Y-98633635D01*
X104142072Y-98697689D01*
X104164613Y-98841329D01*
X104165400Y-98887635D01*
X104170968Y-99026569D01*
X104198106Y-99091578D01*
X104262465Y-99110164D01*
X104292400Y-99110800D01*
X104371651Y-99100932D01*
X104408609Y-99052946D01*
X104419069Y-98939266D01*
X104419400Y-98889050D01*
X104380568Y-98652364D01*
X104314113Y-98533450D01*
X104208826Y-98399600D01*
X104208826Y-97588006D01*
X104419400Y-97589053D01*
X104419400Y-97332800D01*
X104419400Y-96774000D01*
X104415283Y-96623253D01*
X104394269Y-96548049D01*
X104343369Y-96522406D01*
X104292400Y-96520000D01*
X104292400Y-96092740D01*
X104294710Y-96090509D01*
X104362006Y-96010117D01*
X104399820Y-95917548D01*
X104416235Y-95781518D01*
X104419400Y-95607909D01*
X104419400Y-95250000D01*
X104419400Y-94843600D01*
X104410084Y-94790868D01*
X104367854Y-94760323D01*
X104271292Y-94746036D01*
X104098980Y-94742075D01*
X104052463Y-94742000D01*
X103685525Y-94741999D01*
X104027063Y-94397825D01*
X104174317Y-94245812D01*
X104289689Y-94119821D01*
X104357392Y-94037463D01*
X104368600Y-94016825D01*
X104320337Y-94005632D01*
X104185683Y-93995809D01*
X103979847Y-93987907D01*
X103718036Y-93982477D01*
X103415456Y-93980070D01*
X103352600Y-93980000D01*
X103352600Y-93567835D01*
X103508109Y-93536900D01*
X103773058Y-93484675D01*
X104011569Y-93438174D01*
X104204668Y-93401157D01*
X104333381Y-93377385D01*
X104378043Y-93370400D01*
X104407092Y-93326218D01*
X104419398Y-93219781D01*
X104419400Y-93218000D01*
X104413951Y-93110897D01*
X104400825Y-93065608D01*
X104400628Y-93065600D01*
X104347434Y-93055928D01*
X104209960Y-93028947D01*
X104003464Y-92987707D01*
X103743204Y-92935258D01*
X103444440Y-92874652D01*
X103384255Y-92862400D01*
X103079378Y-92800542D01*
X102809616Y-92746273D01*
X102590353Y-92702647D01*
X102436971Y-92672722D01*
X102364854Y-92659555D01*
X102361627Y-92659200D01*
X102361627Y-90017600D01*
X105333800Y-90017600D01*
X105333800Y-93396424D01*
X105333800Y-93805135D01*
X105333800Y-94488000D01*
X105664000Y-94488000D01*
X105832186Y-94486011D01*
X105951120Y-94480807D01*
X105994200Y-94473832D01*
X105960627Y-94434352D01*
X105870630Y-94340330D01*
X105740291Y-94208396D01*
X105664000Y-94132400D01*
X105333800Y-93805135D01*
X105333800Y-93396424D01*
X106580058Y-94642179D01*
X106580058Y-95046800D01*
X105990796Y-95046800D01*
X105755587Y-95049562D01*
X105558858Y-95057068D01*
X105422133Y-95068149D01*
X105367667Y-95080666D01*
X105353876Y-95142442D01*
X105342790Y-95283418D01*
X105335710Y-95481206D01*
X105333800Y-95664866D01*
X105333800Y-96215200D01*
X105333800Y-96774000D01*
X105333800Y-97891600D01*
X105687589Y-97891600D01*
X105687589Y-98451111D01*
X105537611Y-98454570D01*
X105419058Y-98466737D01*
X105367667Y-98484266D01*
X105350309Y-98549005D01*
X105338094Y-98685041D01*
X105333800Y-98851099D01*
X105333800Y-99184064D01*
X105664000Y-98856800D01*
X105809200Y-98708835D01*
X105921858Y-98586310D01*
X105985686Y-98507324D01*
X105994200Y-98489967D01*
X105949070Y-98469112D01*
X105835804Y-98456059D01*
X105687589Y-98451111D01*
X105687589Y-97891600D01*
X106630933Y-97891600D01*
X107188000Y-97332800D01*
X107745068Y-96774000D01*
X105333800Y-96774000D01*
X105333800Y-96215200D01*
X107745143Y-96215200D01*
X107162600Y-95631000D01*
X106580058Y-95046800D01*
X106580058Y-94642179D01*
X106883205Y-94945204D01*
X108432610Y-96493985D01*
X106883205Y-98043995D01*
G37*
X106883205Y-98043995D02*
X105333800Y-99594004D01*
X105333800Y-102971600D01*
X101320600Y-102971600D01*
X101320600Y-99594004D01*
X99771196Y-98043995D01*
X98221791Y-96493985D01*
X99771196Y-94945204D01*
X100652578Y-94064177D01*
X100652578Y-95049466D01*
X100553361Y-95049837D01*
X100076000Y-95054679D01*
X99504500Y-95621411D01*
X99310405Y-95814695D01*
X99144563Y-95981385D01*
X99019157Y-96109112D01*
X98946366Y-96185511D01*
X98933000Y-96201671D01*
X98981459Y-96205484D01*
X99117469Y-96208882D01*
X99326982Y-96211703D01*
X99595949Y-96213789D01*
X99910324Y-96214981D01*
X100123631Y-96215200D01*
X101314262Y-96215200D01*
X101320600Y-95993281D01*
X101320600Y-96774000D01*
X98909333Y-96774000D01*
X99466400Y-97332800D01*
X100023468Y-97891600D01*
X101320600Y-97891600D01*
X101320600Y-98450400D01*
X100990400Y-98450400D01*
X100822238Y-98455952D01*
X100703308Y-98470480D01*
X100660200Y-98489967D01*
X100694050Y-98540915D01*
X100784739Y-98644297D01*
X100915976Y-98782016D01*
X100990400Y-98856800D01*
X101320600Y-99184064D01*
X101320600Y-98450400D01*
X101320600Y-97891600D01*
X101320600Y-96774000D01*
X101320600Y-95993281D01*
X101330131Y-95659562D01*
X101346000Y-95103925D01*
X101188361Y-95074460D01*
X101067238Y-95061804D01*
X100877620Y-95053045D01*
X100652578Y-95049466D01*
X100652578Y-94064177D01*
X101320600Y-93396424D01*
X101320600Y-93805135D01*
X100990400Y-94132400D01*
X100845763Y-94277192D01*
X100733320Y-94392497D01*
X100669155Y-94461684D01*
X100660200Y-94473832D01*
X100706552Y-94481048D01*
X100827825Y-94486151D01*
X100990400Y-94488000D01*
X101320600Y-94488000D01*
X101320600Y-93805135D01*
X101320600Y-93396424D01*
X101320600Y-90017600D01*
X102361627Y-90017600D01*
X102361627Y-92659200D01*
X102342794Y-92702792D01*
X102336600Y-92786200D01*
X102361206Y-92886625D01*
X102434046Y-92913200D01*
X102578913Y-92929867D01*
X102658145Y-92993784D01*
X102689237Y-93125823D01*
X102692200Y-93221133D01*
X102688199Y-93369437D01*
X102663325Y-93446510D01*
X102598276Y-93482708D01*
X102514400Y-93500751D01*
X102391482Y-93537350D01*
X102342307Y-93599961D01*
X102336600Y-93656421D01*
X102353116Y-93744897D01*
X102421434Y-93758179D01*
X102450900Y-93752289D01*
X102563424Y-93727843D01*
X102744380Y-93690321D01*
X102974796Y-93643483D01*
X103235697Y-93591090D01*
X103352600Y-93567835D01*
X103352600Y-93980000D01*
X102336600Y-93980000D01*
X102336600Y-94110766D01*
X102344311Y-94189434D01*
X102385215Y-94226482D01*
X102485970Y-94235441D01*
X102577900Y-94233252D01*
X102734749Y-94230115D01*
X102957140Y-94228514D01*
X103209024Y-94228625D01*
X103347789Y-94229485D01*
X103876378Y-94234000D01*
X103378000Y-94741850D01*
X102857300Y-94741925D01*
X102622696Y-94743291D01*
X102471509Y-94749674D01*
X102385567Y-94764623D01*
X102346698Y-94791686D01*
X102336728Y-94834412D01*
X102336600Y-94843600D01*
X102340523Y-94877742D01*
X102360912Y-94903235D01*
X102410699Y-94921338D01*
X102502818Y-94933315D01*
X102650200Y-94940426D01*
X102865779Y-94943934D01*
X103162487Y-94945099D01*
X103378000Y-94945200D01*
X103727964Y-94944817D01*
X103989260Y-94942828D01*
X104174822Y-94937970D01*
X104297582Y-94928983D01*
X104370472Y-94914604D01*
X104406425Y-94893572D01*
X104418373Y-94864625D01*
X104419400Y-94843600D01*
X104419400Y-95250000D01*
X102325496Y-95250000D01*
X102345014Y-95636513D01*
X102359709Y-95842945D01*
X102383447Y-95974901D01*
X102423991Y-96059496D01*
X102483194Y-96119113D01*
X102539396Y-96156269D01*
X102612745Y-96182522D01*
X102720479Y-96199706D01*
X102879836Y-96209655D01*
X103108054Y-96214205D01*
X103385937Y-96215200D01*
X103684540Y-96214591D01*
X103898940Y-96211176D01*
X104046531Y-96202565D01*
X104144709Y-96186374D01*
X104210869Y-96160215D01*
X104262407Y-96121701D01*
X104292400Y-96092740D01*
X104292400Y-96520000D01*
X104190257Y-96546496D01*
X104165400Y-96596200D01*
X104151765Y-96625599D01*
X104101581Y-96646516D01*
X104000930Y-96660296D01*
X103835895Y-96668288D01*
X103592557Y-96671836D01*
X103378000Y-96672400D01*
X103074203Y-96671080D01*
X102858064Y-96666223D01*
X102715665Y-96656483D01*
X102633089Y-96640512D01*
X102596418Y-96616963D01*
X102590600Y-96596200D01*
X102546440Y-96534914D01*
X102463600Y-96520000D01*
X102388227Y-96528235D01*
X102350625Y-96570262D01*
X102337804Y-96672063D01*
X102336600Y-96774000D01*
X102340718Y-96924746D01*
X102361732Y-96999950D01*
X102412632Y-97025593D01*
X102463600Y-97028000D01*
X102565744Y-97001503D01*
X102590600Y-96951800D01*
X102604236Y-96922400D01*
X102654420Y-96901483D01*
X102755071Y-96887703D01*
X102920106Y-96879711D01*
X103163444Y-96876163D01*
X103378000Y-96875600D01*
X103681798Y-96876919D01*
X103897937Y-96881776D01*
X104040336Y-96891516D01*
X104122912Y-96907487D01*
X104159583Y-96931036D01*
X104165400Y-96951800D01*
X104209561Y-97013085D01*
X104292400Y-97028000D01*
X104367774Y-97019764D01*
X104405376Y-96977737D01*
X104418197Y-96875936D01*
X104419400Y-96774000D01*
X104419400Y-97332800D01*
X102336600Y-97332800D01*
X102336600Y-97717333D01*
X102338280Y-97911974D01*
X102347522Y-98025336D01*
X102370630Y-98077731D01*
X102413908Y-98089471D01*
X102450900Y-98085633D01*
X102520732Y-98063114D01*
X102554308Y-98003020D01*
X102563941Y-97877322D01*
X102564033Y-97828100D01*
X102569289Y-97680224D01*
X102594099Y-97607727D01*
X102649209Y-97584769D01*
X102665633Y-97583823D01*
X102749849Y-97583058D01*
X102915876Y-97582871D01*
X103143927Y-97583239D01*
X103414216Y-97584139D01*
X103593900Y-97584950D01*
X104208826Y-97588006D01*
X104208826Y-98399600D01*
X102547175Y-98399600D01*
X102441888Y-98533450D01*
X102349882Y-98721735D01*
X102352453Y-98919151D01*
X102389188Y-99012539D01*
X102415828Y-99093413D01*
X102389188Y-99110800D01*
X102349883Y-99154322D01*
X102336600Y-99239777D01*
X102336600Y-99368755D01*
X102336600Y-99618223D01*
X102336600Y-99991044D01*
X102340202Y-100175964D01*
X102349701Y-100318070D01*
X102363140Y-100389655D01*
X102364942Y-100392208D01*
X102431325Y-100404329D01*
X102491942Y-100394750D01*
X102553145Y-100359743D01*
X102582769Y-100278590D01*
X102590599Y-100124131D01*
X102590600Y-100120875D01*
X102590600Y-99872800D01*
X103606600Y-99872800D01*
X103606600Y-100050600D01*
X103617966Y-100173143D01*
X103662334Y-100222588D01*
X103708200Y-100228400D01*
X103778225Y-100208511D01*
X103806479Y-100130866D01*
X103809800Y-100050600D01*
X103817726Y-99931412D01*
X103861919Y-99882530D01*
X103973005Y-99872817D01*
X103984680Y-99872800D01*
X104094796Y-99879215D01*
X104147971Y-99917372D01*
X104169234Y-100015633D01*
X104175180Y-100088700D01*
X104194608Y-100229651D01*
X104236583Y-100297959D01*
X104305100Y-100320833D01*
X104364746Y-100323167D01*
X104398949Y-100294957D01*
X104414756Y-100215216D01*
X104419216Y-100062961D01*
X104419400Y-99980474D01*
X104419400Y-99623882D01*
X103378000Y-99621052D01*
X102336600Y-99618223D01*
X102336600Y-99368755D01*
X102781100Y-99354077D01*
X103225600Y-99339400D01*
X103225600Y-99085400D01*
X103220251Y-98933049D01*
X103197547Y-98857066D01*
X103147500Y-98832486D01*
X103124000Y-98831400D01*
X103040890Y-98865034D01*
X103006326Y-98971100D01*
X102980815Y-99067770D01*
X102912615Y-99105598D01*
X102821261Y-99110800D01*
X102689642Y-99090042D01*
X102617990Y-99015025D01*
X102591777Y-98866630D01*
X102590600Y-98807280D01*
X102617652Y-98686931D01*
X102670955Y-98633635D01*
X102756448Y-98620550D01*
X102918289Y-98611171D01*
X103131296Y-98605497D01*
X103370284Y-98603527D01*
X103610070Y-98605262D01*
X103825469Y-98610702D01*
X103991300Y-98619846D01*
X104082377Y-98632696D01*
X104085046Y-98633635D01*
X104142072Y-98697689D01*
X104164613Y-98841329D01*
X104165400Y-98887635D01*
X104170968Y-99026569D01*
X104198106Y-99091578D01*
X104262465Y-99110164D01*
X104292400Y-99110800D01*
X104371651Y-99100932D01*
X104408609Y-99052946D01*
X104419069Y-98939266D01*
X104419400Y-98889050D01*
X104380568Y-98652364D01*
X104314113Y-98533450D01*
X104208826Y-98399600D01*
X104208826Y-97588006D01*
X104419400Y-97589053D01*
X104419400Y-97332800D01*
X104419400Y-96774000D01*
X104415283Y-96623253D01*
X104394269Y-96548049D01*
X104343369Y-96522406D01*
X104292400Y-96520000D01*
X104292400Y-96092740D01*
X104294710Y-96090509D01*
X104362006Y-96010117D01*
X104399820Y-95917548D01*
X104416235Y-95781518D01*
X104419400Y-95607909D01*
X104419400Y-95250000D01*
X104419400Y-94843600D01*
X104410084Y-94790868D01*
X104367854Y-94760323D01*
X104271292Y-94746036D01*
X104098980Y-94742075D01*
X104052463Y-94742000D01*
X103685525Y-94741999D01*
X104027063Y-94397825D01*
X104174317Y-94245812D01*
X104289689Y-94119821D01*
X104357392Y-94037463D01*
X104368600Y-94016825D01*
X104320337Y-94005632D01*
X104185683Y-93995809D01*
X103979847Y-93987907D01*
X103718036Y-93982477D01*
X103415456Y-93980070D01*
X103352600Y-93980000D01*
X103352600Y-93567835D01*
X103508109Y-93536900D01*
X103773058Y-93484675D01*
X104011569Y-93438174D01*
X104204668Y-93401157D01*
X104333381Y-93377385D01*
X104378043Y-93370400D01*
X104407092Y-93326218D01*
X104419398Y-93219781D01*
X104419400Y-93218000D01*
X104413951Y-93110897D01*
X104400825Y-93065608D01*
X104400628Y-93065600D01*
X104347434Y-93055928D01*
X104209960Y-93028947D01*
X104003464Y-92987707D01*
X103743204Y-92935258D01*
X103444440Y-92874652D01*
X103384255Y-92862400D01*
X103079378Y-92800542D01*
X102809616Y-92746273D01*
X102590353Y-92702647D01*
X102436971Y-92672722D01*
X102364854Y-92659555D01*
X102361627Y-92659200D01*
X102361627Y-90017600D01*
X105333800Y-90017600D01*
X105333800Y-93396424D01*
X105333800Y-93805135D01*
X105333800Y-94488000D01*
X105664000Y-94488000D01*
X105832186Y-94486011D01*
X105951120Y-94480807D01*
X105994200Y-94473832D01*
X105960627Y-94434352D01*
X105870630Y-94340330D01*
X105740291Y-94208396D01*
X105664000Y-94132400D01*
X105333800Y-93805135D01*
X105333800Y-93396424D01*
X106580058Y-94642179D01*
X106580058Y-95046800D01*
X105990796Y-95046800D01*
X105755587Y-95049562D01*
X105558858Y-95057068D01*
X105422133Y-95068149D01*
X105367667Y-95080666D01*
X105353876Y-95142442D01*
X105342790Y-95283418D01*
X105335710Y-95481206D01*
X105333800Y-95664866D01*
X105333800Y-96215200D01*
X105333800Y-96774000D01*
X105333800Y-97891600D01*
X105687589Y-97891600D01*
X105687589Y-98451111D01*
X105537611Y-98454570D01*
X105419058Y-98466737D01*
X105367667Y-98484266D01*
X105350309Y-98549005D01*
X105338094Y-98685041D01*
X105333800Y-98851099D01*
X105333800Y-99184064D01*
X105664000Y-98856800D01*
X105809200Y-98708835D01*
X105921858Y-98586310D01*
X105985686Y-98507324D01*
X105994200Y-98489967D01*
X105949070Y-98469112D01*
X105835804Y-98456059D01*
X105687589Y-98451111D01*
X105687589Y-97891600D01*
X106630933Y-97891600D01*
X107188000Y-97332800D01*
X107745068Y-96774000D01*
X105333800Y-96774000D01*
X105333800Y-96215200D01*
X107745143Y-96215200D01*
X107162600Y-95631000D01*
X106580058Y-95046800D01*
X106580058Y-94642179D01*
X106883205Y-94945204D01*
X108432610Y-96493985D01*
X106883205Y-98043995D01*
G36*
X103823665Y-93220132D02*
G01*
X103756594Y-93246647D01*
X103619724Y-93281753D01*
X103454200Y-93315632D01*
X103269512Y-93350916D01*
X103116118Y-93382728D01*
X103035100Y-93402119D01*
X102978418Y-93402794D01*
X102952322Y-93345970D01*
X102946200Y-93215916D01*
X102951392Y-93083395D01*
X102976911Y-93028295D01*
X103037678Y-93026583D01*
X103060500Y-93031773D01*
X103168468Y-93055128D01*
X103338313Y-93088668D01*
X103518865Y-93122475D01*
X103683051Y-93157888D01*
X103792407Y-93192262D01*
X103825032Y-93218579D01*
X103823665Y-93220132D01*
G37*
X103823665Y-93220132D02*
X103756594Y-93246647D01*
X103619724Y-93281753D01*
X103454200Y-93315632D01*
X103269512Y-93350916D01*
X103116118Y-93382728D01*
X103035100Y-93402119D01*
X102978418Y-93402794D01*
X102952322Y-93345970D01*
X102946200Y-93215916D01*
X102951392Y-93083395D01*
X102976911Y-93028295D01*
X103037678Y-93026583D01*
X103060500Y-93031773D01*
X103168468Y-93055128D01*
X103338313Y-93088668D01*
X103518865Y-93122475D01*
X103683051Y-93157888D01*
X103792407Y-93192262D01*
X103825032Y-93218579D01*
X103823665Y-93220132D01*
G36*
X104156479Y-95822274D02*
G01*
X104120027Y-95905284D01*
X104041510Y-95960101D01*
X103906396Y-95992384D01*
X103700152Y-96007790D01*
X103408245Y-96011979D01*
X103378000Y-96012000D01*
X103077867Y-96008526D01*
X102864674Y-95994332D01*
X102723889Y-95963761D01*
X102640979Y-95911152D01*
X102601411Y-95830847D01*
X102590652Y-95717189D01*
X102590600Y-95705412D01*
X102590600Y-95504000D01*
X104165400Y-95504000D01*
X104165400Y-95705412D01*
X104156479Y-95822274D01*
G37*
X104156479Y-95822274D02*
X104120027Y-95905284D01*
X104041510Y-95960101D01*
X103906396Y-95992384D01*
X103700152Y-96007790D01*
X103408245Y-96011979D01*
X103378000Y-96012000D01*
X103077867Y-96008526D01*
X102864674Y-95994332D01*
X102723889Y-95963761D01*
X102640979Y-95911152D01*
X102601411Y-95830847D01*
X102590652Y-95717189D01*
X102590600Y-95705412D01*
X102590600Y-95504000D01*
X104165400Y-95504000D01*
X104165400Y-95705412D01*
X104156479Y-95822274D01*
D14*
X178179000Y-90728000D02*
X181179000Y-90728000D01*
X181179000Y-90728000D02*
X181179000Y-103328000D01*
X181179000Y-103328000D02*
X178179000Y-103328000D01*
X171579000Y-103328000D02*
X168579000Y-103328000D01*
X168579000Y-103328000D02*
X168579000Y-90728000D01*
X168579000Y-90728000D02*
X171579000Y-90728000D01*
X200087500Y-82579000D02*
X196787500Y-82579000D01*
X196787500Y-82579000D02*
X196787500Y-87979000D01*
X200087500Y-82579000D02*
X200087500Y-87979000D01*
X171703000Y-82515500D02*
X171703000Y-87915500D01*
X168403000Y-82515500D02*
X168403000Y-87915500D01*
X171703000Y-82515500D02*
X168403000Y-82515500D01*
X156964748Y-77570000D02*
X157487252Y-77570000D01*
X156964748Y-76100000D02*
X157487252Y-76100000D01*
X160662252Y-54837000D02*
X160139748Y-54837000D01*
X160662252Y-53367000D02*
X160139748Y-53367000D01*
X171315748Y-76100000D02*
X171838252Y-76100000D01*
X171315748Y-77570000D02*
X171838252Y-77570000D01*
X175267252Y-54900500D02*
X174744748Y-54900500D01*
X175267252Y-53430500D02*
X174744748Y-53430500D01*
X185793748Y-76100000D02*
X186316252Y-76100000D01*
X185793748Y-77570000D02*
X186316252Y-77570000D01*
X189491252Y-53494000D02*
X188968748Y-53494000D01*
X189491252Y-54964000D02*
X188968748Y-54964000D01*
X200017748Y-77570000D02*
X200540252Y-77570000D01*
X200017748Y-76100000D02*
X200540252Y-76100000D01*
X203715252Y-54964000D02*
X203192748Y-54964000D01*
X203715252Y-53494000D02*
X203192748Y-53494000D01*
X205239252Y-82069000D02*
X204716748Y-82069000D01*
X205239252Y-83539000D02*
X204716748Y-83539000D01*
X202000752Y-106462500D02*
X201478248Y-106462500D01*
X202000752Y-104992500D02*
X201478248Y-104992500D01*
X190888252Y-82069000D02*
X190365748Y-82069000D01*
X190888252Y-83539000D02*
X190365748Y-83539000D01*
X187586252Y-104992500D02*
X187063748Y-104992500D01*
X187586252Y-106462500D02*
X187063748Y-106462500D01*
X176791252Y-83539000D02*
X176268748Y-83539000D01*
X176791252Y-82069000D02*
X176268748Y-82069000D01*
X173362252Y-104992500D02*
X172839748Y-104992500D01*
X173362252Y-106462500D02*
X172839748Y-106462500D01*
X162567252Y-82196000D02*
X162044748Y-82196000D01*
X162567252Y-83666000D02*
X162044748Y-83666000D01*
X159646252Y-106462500D02*
X159123748Y-106462500D01*
X159646252Y-104992500D02*
X159123748Y-104992500D01*
X132052400Y-65529800D02*
X132052400Y-69279800D01*
X132052400Y-76049800D02*
X132052400Y-72299800D01*
X141507963Y-76049800D02*
X132052400Y-76049800D01*
X141507963Y-65529800D02*
X132052400Y-65529800D01*
X142572400Y-66594237D02*
X142572400Y-69279800D01*
X142572400Y-74985363D02*
X142572400Y-72299800D01*
X142572400Y-74985363D02*
X141507963Y-76049800D01*
X142572400Y-66594237D02*
X141507963Y-65529800D01*
X144062400Y-73549800D02*
X142812400Y-73549800D01*
X143437400Y-74174800D02*
X143437400Y-72924800D01*
X130410000Y-61982400D02*
X130410000Y-59632400D01*
X130410000Y-55162400D02*
X130410000Y-57512400D01*
X124654437Y-55162400D02*
X130410000Y-55162400D01*
X124654437Y-61982400D02*
X130410000Y-61982400D01*
X123590000Y-60917963D02*
X123590000Y-59632400D01*
X123590000Y-56226837D02*
X123590000Y-57512400D01*
X123590000Y-56226837D02*
X124654437Y-55162400D01*
X123590000Y-60917963D02*
X124654437Y-61982400D01*
X122562500Y-56724900D02*
X123350000Y-56724900D01*
X122956250Y-56331150D02*
X122956250Y-57118650D01*
X107957252Y-59536000D02*
X107434748Y-59536000D01*
X107957252Y-58066000D02*
X107434748Y-58066000D01*
X162180000Y-77187000D02*
X165480000Y-77187000D01*
X165480000Y-77187000D02*
X165480000Y-71787000D01*
X162180000Y-77187000D02*
X162180000Y-71787000D01*
X176404000Y-77187000D02*
X179704000Y-77187000D01*
X179704000Y-77187000D02*
X179704000Y-71787000D01*
X176404000Y-77187000D02*
X176404000Y-71787000D01*
X190755000Y-77060000D02*
X194055000Y-77060000D01*
X194055000Y-77060000D02*
X194055000Y-71660000D01*
X190755000Y-77060000D02*
X190755000Y-71660000D01*
X205106000Y-77060000D02*
X205106000Y-71660000D01*
X208406000Y-77060000D02*
X208406000Y-71660000D01*
X205106000Y-77060000D02*
X208406000Y-77060000D01*
X185800000Y-82515500D02*
X185800000Y-87915500D01*
X182500000Y-82515500D02*
X182500000Y-87915500D01*
X185800000Y-82515500D02*
X182500000Y-82515500D01*
X157606000Y-82515500D02*
X157606000Y-87915500D01*
X154306000Y-82515500D02*
X154306000Y-87915500D01*
X157606000Y-82515500D02*
X154306000Y-82515500D01*
X141098400Y-63232400D02*
X141098400Y-61532400D01*
X141098400Y-61532400D02*
X138548400Y-61532400D01*
X141098400Y-63232400D02*
X138548400Y-63232400D01*
X108297600Y-64846000D02*
X108297600Y-60961000D01*
X108297600Y-60961000D02*
X106027600Y-60961000D01*
X106027600Y-60961000D02*
X106027600Y-64846000D01*
X124944136Y-64187400D02*
X125398264Y-64187400D01*
X124944136Y-65657400D02*
X125398264Y-65657400D01*
X105467000Y-75201200D02*
X105467000Y-79221200D01*
X105467000Y-79221200D02*
X115687000Y-79221200D01*
X115687000Y-79221200D02*
X115687000Y-75201200D01*
X115687000Y-75201200D02*
X105467000Y-75201200D01*
X105467000Y-76911200D02*
X105967000Y-76911200D01*
X105967000Y-76911200D02*
X105967000Y-75701200D01*
X105967000Y-75701200D02*
X115187000Y-75701200D01*
X115187000Y-75701200D02*
X115187000Y-76911200D01*
X115187000Y-76911200D02*
X115687000Y-76911200D01*
X105467000Y-77721200D02*
X106467000Y-77721200D01*
X106467000Y-77721200D02*
X106467000Y-79221200D01*
X115687000Y-77721200D02*
X114687000Y-77721200D01*
X114687000Y-77721200D02*
X114687000Y-79221200D01*
X105167000Y-77021200D02*
X105167000Y-79521200D01*
X105167000Y-79521200D02*
X107667000Y-79521200D01*
X140163400Y-112209000D02*
X140163400Y-116229000D01*
X140163400Y-116229000D02*
X152883400Y-116229000D01*
X152883400Y-116229000D02*
X152883400Y-112209000D01*
X152883400Y-112209000D02*
X140163400Y-112209000D01*
X140163400Y-113919000D02*
X140663400Y-113919000D01*
X140663400Y-113919000D02*
X140663400Y-112709000D01*
X140663400Y-112709000D02*
X152383400Y-112709000D01*
X152383400Y-112709000D02*
X152383400Y-113919000D01*
X152383400Y-113919000D02*
X152883400Y-113919000D01*
X140163400Y-114729000D02*
X141163400Y-114729000D01*
X141163400Y-114729000D02*
X141163400Y-116229000D01*
X152883400Y-114729000D02*
X151883400Y-114729000D01*
X151883400Y-114729000D02*
X151883400Y-116229000D01*
X139863400Y-114029000D02*
X139863400Y-116529000D01*
X139863400Y-116529000D02*
X142363400Y-116529000D01*
X142230800Y-86274600D02*
X143560800Y-86274600D01*
X142230800Y-87604600D02*
X142230800Y-86274600D01*
X142230800Y-88874600D02*
X144890800Y-88874600D01*
X144890800Y-88874600D02*
X144890800Y-88934600D01*
X142230800Y-88874600D02*
X142230800Y-88934600D01*
X142230800Y-88934600D02*
X144890800Y-88934600D01*
X142129200Y-105096000D02*
X143459200Y-105096000D01*
X142129200Y-106426000D02*
X142129200Y-105096000D01*
X142129200Y-107696000D02*
X144789200Y-107696000D01*
X144789200Y-107696000D02*
X144789200Y-107756000D01*
X142129200Y-107696000D02*
X142129200Y-107756000D01*
X142129200Y-107756000D02*
X144789200Y-107756000D01*
X208093000Y-81340000D02*
X210753000Y-81340000D01*
X208093000Y-81280000D02*
X208093000Y-81340000D01*
X210753000Y-81280000D02*
X210753000Y-81340000D01*
X208093000Y-81280000D02*
X210753000Y-81280000D01*
X208093000Y-80010000D02*
X208093000Y-78680000D01*
X208093000Y-78680000D02*
X209423000Y-78680000D01*
X113249400Y-60131000D02*
X115909400Y-60131000D01*
X113249400Y-60071000D02*
X113249400Y-60131000D01*
X115909400Y-60071000D02*
X115909400Y-60131000D01*
X113249400Y-60071000D02*
X115909400Y-60071000D01*
X113249400Y-58801000D02*
X113249400Y-57471000D01*
X113249400Y-57471000D02*
X114579400Y-57471000D01*
X165304000Y-68911000D02*
X162304000Y-68911000D01*
X165304000Y-56311000D02*
X165304000Y-68911000D01*
X162304000Y-56311000D02*
X165304000Y-56311000D01*
X152704000Y-56311000D02*
X155704000Y-56311000D01*
X152704000Y-68911000D02*
X152704000Y-56311000D01*
X155704000Y-68911000D02*
X152704000Y-68911000D01*
X169928000Y-68911000D02*
X166928000Y-68911000D01*
X166928000Y-68911000D02*
X166928000Y-56311000D01*
X166928000Y-56311000D02*
X169928000Y-56311000D01*
X176528000Y-56311000D02*
X179528000Y-56311000D01*
X179528000Y-56311000D02*
X179528000Y-68911000D01*
X179528000Y-68911000D02*
X176528000Y-68911000D01*
X184279000Y-68911000D02*
X181279000Y-68911000D01*
X181279000Y-68911000D02*
X181279000Y-56311000D01*
X181279000Y-56311000D02*
X184279000Y-56311000D01*
X190879000Y-56311000D02*
X193879000Y-56311000D01*
X193879000Y-56311000D02*
X193879000Y-68911000D01*
X193879000Y-68911000D02*
X190879000Y-68911000D01*
X208230000Y-68911000D02*
X205230000Y-68911000D01*
X208230000Y-56311000D02*
X208230000Y-68911000D01*
X205230000Y-56311000D02*
X208230000Y-56311000D01*
X195630000Y-56311000D02*
X198630000Y-56311000D01*
X195630000Y-68911000D02*
X195630000Y-56311000D01*
X198630000Y-68911000D02*
X195630000Y-68911000D01*
X196963500Y-90791500D02*
X199963500Y-90791500D01*
X196963500Y-103391500D02*
X196963500Y-90791500D01*
X199963500Y-103391500D02*
X196963500Y-103391500D01*
X209563500Y-103391500D02*
X206563500Y-103391500D01*
X209563500Y-90791500D02*
X209563500Y-103391500D01*
X206563500Y-90791500D02*
X209563500Y-90791500D01*
X182739500Y-90791500D02*
X185739500Y-90791500D01*
X182739500Y-103391500D02*
X182739500Y-90791500D01*
X185739500Y-103391500D02*
X182739500Y-103391500D01*
X195339500Y-103391500D02*
X192339500Y-103391500D01*
X195339500Y-90791500D02*
X195339500Y-103391500D01*
X192339500Y-90791500D02*
X195339500Y-90791500D01*
X164082000Y-90791500D02*
X167082000Y-90791500D01*
X167082000Y-90791500D02*
X167082000Y-103391500D01*
X167082000Y-103391500D02*
X164082000Y-103391500D01*
X157482000Y-103391500D02*
X154482000Y-103391500D01*
X154482000Y-103391500D02*
X154482000Y-90791500D01*
X154482000Y-90791500D02*
X157482000Y-90791500D01*
X142262200Y-54743600D02*
X142262200Y-56253600D01*
X138561200Y-54743600D02*
X138561200Y-56253600D01*
X135291200Y-56253600D02*
X145531200Y-56253600D01*
X145531200Y-54743600D02*
X145531200Y-59384600D01*
X135291200Y-54743600D02*
X135291200Y-59384600D01*
X135291200Y-59384600D02*
X145531200Y-59384600D01*
X135291200Y-54743600D02*
X145531200Y-54743600D01*
X154453000Y-72043936D02*
X154453000Y-73498064D01*
X152633000Y-72043936D02*
X152633000Y-73498064D01*
X166857000Y-72043936D02*
X166857000Y-73498064D01*
X168677000Y-72043936D02*
X168677000Y-73498064D01*
X181208000Y-71978436D02*
X181208000Y-73432564D01*
X183028000Y-71978436D02*
X183028000Y-73432564D01*
X197315500Y-71980436D02*
X197315500Y-73434564D01*
X195495500Y-71980436D02*
X195495500Y-73434564D01*
X209634500Y-87722064D02*
X209634500Y-86267936D01*
X207814500Y-87722064D02*
X207814500Y-86267936D01*
X193590500Y-87720064D02*
X193590500Y-86265936D01*
X195410500Y-87720064D02*
X195410500Y-86265936D01*
X181250000Y-87658564D02*
X181250000Y-86204436D01*
X179430000Y-87658564D02*
X179430000Y-86204436D01*
X165206000Y-87658564D02*
X165206000Y-86204436D01*
X167026000Y-87658564D02*
X167026000Y-86204436D01*
X114095200Y-68505336D02*
X114095200Y-68959464D01*
X112625200Y-68505336D02*
X112625200Y-68959464D01*
X135253464Y-61647400D02*
X134799336Y-61647400D01*
X135253464Y-63117400D02*
X134799336Y-63117400D01*
X111631400Y-63526936D02*
X111631400Y-63981064D01*
X110161400Y-63526936D02*
X110161400Y-63981064D01*
X159602000Y-70411000D02*
X159602000Y-70741000D01*
X159602000Y-75131000D02*
X159602000Y-74801000D01*
X159602000Y-75131000D02*
X156882000Y-75131000D01*
X156882000Y-75131000D02*
X156882000Y-74801000D01*
X160782000Y-74801000D02*
X159602000Y-74801000D01*
X156882000Y-70411000D02*
X159602000Y-70411000D01*
X156882000Y-70741000D02*
X156882000Y-70411000D01*
X173826000Y-70411000D02*
X173826000Y-70741000D01*
X173826000Y-75131000D02*
X173826000Y-74801000D01*
X173826000Y-75131000D02*
X171106000Y-75131000D01*
X171106000Y-75131000D02*
X171106000Y-74801000D01*
X175006000Y-74801000D02*
X173826000Y-74801000D01*
X171106000Y-70411000D02*
X173826000Y-70411000D01*
X171106000Y-70741000D02*
X171106000Y-70411000D01*
X202591500Y-70284000D02*
X202591500Y-70614000D01*
X202591500Y-75004000D02*
X202591500Y-74674000D01*
X202591500Y-75004000D02*
X199871500Y-75004000D01*
X199871500Y-75004000D02*
X199871500Y-74674000D01*
X203771500Y-74674000D02*
X202591500Y-74674000D01*
X199871500Y-70284000D02*
X202591500Y-70284000D01*
X199871500Y-70614000D02*
X199871500Y-70284000D01*
X205385500Y-88961500D02*
X205385500Y-89291500D01*
X205385500Y-89291500D02*
X202665500Y-89291500D01*
X201485500Y-84901500D02*
X202665500Y-84901500D01*
X205385500Y-84571500D02*
X205385500Y-84901500D01*
X202665500Y-84571500D02*
X205385500Y-84571500D01*
X202665500Y-84571500D02*
X202665500Y-84901500D01*
X202665500Y-89291500D02*
X202665500Y-88961500D01*
X191034500Y-88961500D02*
X191034500Y-89291500D01*
X191034500Y-89291500D02*
X188314500Y-89291500D01*
X187134500Y-84901500D02*
X188314500Y-84901500D01*
X191034500Y-84571500D02*
X191034500Y-84901500D01*
X188314500Y-84571500D02*
X191034500Y-84571500D01*
X188314500Y-84571500D02*
X188314500Y-84901500D01*
X188314500Y-89291500D02*
X188314500Y-88961500D01*
X177001000Y-88961500D02*
X177001000Y-89291500D01*
X177001000Y-89291500D02*
X174281000Y-89291500D01*
X173101000Y-84901500D02*
X174281000Y-84901500D01*
X177001000Y-84571500D02*
X177001000Y-84901500D01*
X174281000Y-84571500D02*
X177001000Y-84571500D01*
X174281000Y-84571500D02*
X174281000Y-84901500D01*
X174281000Y-89291500D02*
X174281000Y-88961500D01*
X160057000Y-89291500D02*
X160057000Y-88961500D01*
X160057000Y-84571500D02*
X160057000Y-84901500D01*
X160057000Y-84571500D02*
X162777000Y-84571500D01*
X162777000Y-84571500D02*
X162777000Y-84901500D01*
X158877000Y-84901500D02*
X160057000Y-84901500D01*
X162777000Y-89291500D02*
X160057000Y-89291500D01*
X162777000Y-88961500D02*
X162777000Y-89291500D01*
X110638200Y-71192800D02*
X110638200Y-67592800D01*
X110626678Y-71231278D02*
G75*
G02*
X106188200Y-69392800I-1838478J1838478D01*
G01*
X110626678Y-67554322D02*
G75*
G03*
X106188200Y-69392800I-1838478J-1838478D01*
G01*
X122968000Y-77662400D02*
X122968000Y-67422400D01*
X127609000Y-77662400D02*
X127609000Y-67422400D01*
X122968000Y-77662400D02*
X127609000Y-77662400D01*
X122968000Y-67422400D02*
X127609000Y-67422400D01*
X124478000Y-77662400D02*
X124478000Y-67422400D01*
X122968000Y-74392400D02*
X124478000Y-74392400D01*
X122968000Y-70691400D02*
X124478000Y-70691400D01*
X157191305Y-49495753D02*
G75*
G02*
X156478500Y-49350500I-28805J1680253D01*
G01*
X155627074Y-48498542D02*
G75*
G02*
X155627500Y-47131500I1535426J683042D01*
G01*
X156479458Y-46280074D02*
G75*
G02*
X157846500Y-46280500I683042J-1535426D01*
G01*
X158697926Y-47132458D02*
G75*
G02*
X158697500Y-48499500I-1535426J-683042D01*
G01*
X157845818Y-49350256D02*
G75*
G02*
X157162500Y-49495500I-683318J1534756D01*
G01*
X163842500Y-47815500D02*
G75*
G03*
X163842500Y-47815500I-1680000J0D01*
G01*
X154602500Y-51315500D02*
X164722500Y-51315500D01*
X154602500Y-49815500D02*
X164722500Y-49815500D01*
X154602500Y-45514500D02*
X164722500Y-45514500D01*
X154602500Y-43455500D02*
X164722500Y-43455500D01*
X154602500Y-51875500D02*
X164722500Y-51875500D01*
X154602500Y-43455500D02*
X154602500Y-51875500D01*
X164722500Y-43455500D02*
X164722500Y-51875500D01*
X156162500Y-43515500D02*
X158162500Y-43515500D01*
X156162500Y-44515500D02*
X158162500Y-44515500D01*
X156162500Y-43515500D02*
X156162500Y-44515500D01*
X158162500Y-43515500D02*
X158162500Y-44515500D01*
X163437500Y-46746500D02*
X163390500Y-46792500D01*
X161128500Y-49054500D02*
X161093500Y-49089500D01*
X163232500Y-46540500D02*
X163197500Y-46576500D01*
X160935500Y-48838500D02*
X160888500Y-48884500D01*
X161162500Y-43515500D02*
X163162500Y-43515500D01*
X161162500Y-44515500D02*
X163162500Y-44515500D01*
X161162500Y-43515500D02*
X161162500Y-44515500D01*
X163162500Y-43515500D02*
X163162500Y-44515500D01*
X154362500Y-51375500D02*
X154362500Y-52115500D01*
X154362500Y-52115500D02*
X154862500Y-52115500D01*
X171478805Y-49495753D02*
G75*
G02*
X170766000Y-49350500I-28805J1680253D01*
G01*
X169914574Y-48498542D02*
G75*
G02*
X169915000Y-47131500I1535426J683042D01*
G01*
X170766958Y-46280074D02*
G75*
G02*
X172134000Y-46280500I683042J-1535426D01*
G01*
X172985426Y-47132458D02*
G75*
G02*
X172985000Y-48499500I-1535426J-683042D01*
G01*
X172133318Y-49350256D02*
G75*
G02*
X171450000Y-49495500I-683318J1534756D01*
G01*
X178130000Y-47815500D02*
G75*
G03*
X178130000Y-47815500I-1680000J0D01*
G01*
X168890000Y-51315500D02*
X179010000Y-51315500D01*
X168890000Y-49815500D02*
X179010000Y-49815500D01*
X168890000Y-45514500D02*
X179010000Y-45514500D01*
X168890000Y-43455500D02*
X179010000Y-43455500D01*
X168890000Y-51875500D02*
X179010000Y-51875500D01*
X168890000Y-43455500D02*
X168890000Y-51875500D01*
X179010000Y-43455500D02*
X179010000Y-51875500D01*
X170450000Y-43515500D02*
X172450000Y-43515500D01*
X170450000Y-44515500D02*
X172450000Y-44515500D01*
X170450000Y-43515500D02*
X170450000Y-44515500D01*
X172450000Y-43515500D02*
X172450000Y-44515500D01*
X177725000Y-46746500D02*
X177678000Y-46792500D01*
X175416000Y-49054500D02*
X175381000Y-49089500D01*
X177520000Y-46540500D02*
X177485000Y-46576500D01*
X175223000Y-48838500D02*
X175176000Y-48884500D01*
X175450000Y-43515500D02*
X177450000Y-43515500D01*
X175450000Y-44515500D02*
X177450000Y-44515500D01*
X175450000Y-43515500D02*
X175450000Y-44515500D01*
X177450000Y-43515500D02*
X177450000Y-44515500D01*
X168650000Y-51375500D02*
X168650000Y-52115500D01*
X168650000Y-52115500D02*
X169150000Y-52115500D01*
X185829805Y-49432253D02*
G75*
G02*
X185117000Y-49287000I-28805J1680253D01*
G01*
X184265574Y-48435042D02*
G75*
G02*
X184266000Y-47068000I1535426J683042D01*
G01*
X185117958Y-46216574D02*
G75*
G02*
X186485000Y-46217000I683042J-1535426D01*
G01*
X187336426Y-47068958D02*
G75*
G02*
X187336000Y-48436000I-1535426J-683042D01*
G01*
X186484318Y-49286756D02*
G75*
G02*
X185801000Y-49432000I-683318J1534756D01*
G01*
X192481000Y-47752000D02*
G75*
G03*
X192481000Y-47752000I-1680000J0D01*
G01*
X183241000Y-51252000D02*
X193361000Y-51252000D01*
X183241000Y-49752000D02*
X193361000Y-49752000D01*
X183241000Y-45451000D02*
X193361000Y-45451000D01*
X183241000Y-43392000D02*
X193361000Y-43392000D01*
X183241000Y-51812000D02*
X193361000Y-51812000D01*
X183241000Y-43392000D02*
X183241000Y-51812000D01*
X193361000Y-43392000D02*
X193361000Y-51812000D01*
X184801000Y-43452000D02*
X186801000Y-43452000D01*
X184801000Y-44452000D02*
X186801000Y-44452000D01*
X184801000Y-43452000D02*
X184801000Y-44452000D01*
X186801000Y-43452000D02*
X186801000Y-44452000D01*
X192076000Y-46683000D02*
X192029000Y-46729000D01*
X189767000Y-48991000D02*
X189732000Y-49026000D01*
X191871000Y-46477000D02*
X191836000Y-46513000D01*
X189574000Y-48775000D02*
X189527000Y-48821000D01*
X189801000Y-43452000D02*
X191801000Y-43452000D01*
X189801000Y-44452000D02*
X191801000Y-44452000D01*
X189801000Y-43452000D02*
X189801000Y-44452000D01*
X191801000Y-43452000D02*
X191801000Y-44452000D01*
X183001000Y-51312000D02*
X183001000Y-52052000D01*
X183001000Y-52052000D02*
X183501000Y-52052000D01*
X200180805Y-49432253D02*
G75*
G02*
X199468000Y-49287000I-28805J1680253D01*
G01*
X198616574Y-48435042D02*
G75*
G02*
X198617000Y-47068000I1535426J683042D01*
G01*
X199468958Y-46216574D02*
G75*
G02*
X200836000Y-46217000I683042J-1535426D01*
G01*
X201687426Y-47068958D02*
G75*
G02*
X201687000Y-48436000I-1535426J-683042D01*
G01*
X200835318Y-49286756D02*
G75*
G02*
X200152000Y-49432000I-683318J1534756D01*
G01*
X206832000Y-47752000D02*
G75*
G03*
X206832000Y-47752000I-1680000J0D01*
G01*
X197592000Y-51252000D02*
X207712000Y-51252000D01*
X197592000Y-49752000D02*
X207712000Y-49752000D01*
X197592000Y-45451000D02*
X207712000Y-45451000D01*
X197592000Y-43392000D02*
X207712000Y-43392000D01*
X197592000Y-51812000D02*
X207712000Y-51812000D01*
X197592000Y-43392000D02*
X197592000Y-51812000D01*
X207712000Y-43392000D02*
X207712000Y-51812000D01*
X199152000Y-43452000D02*
X201152000Y-43452000D01*
X199152000Y-44452000D02*
X201152000Y-44452000D01*
X199152000Y-43452000D02*
X199152000Y-44452000D01*
X201152000Y-43452000D02*
X201152000Y-44452000D01*
X206427000Y-46683000D02*
X206380000Y-46729000D01*
X204118000Y-48991000D02*
X204083000Y-49026000D01*
X206222000Y-46477000D02*
X206187000Y-46513000D01*
X203925000Y-48775000D02*
X203878000Y-48821000D01*
X204152000Y-43452000D02*
X206152000Y-43452000D01*
X204152000Y-44452000D02*
X206152000Y-44452000D01*
X204152000Y-43452000D02*
X204152000Y-44452000D01*
X206152000Y-43452000D02*
X206152000Y-44452000D01*
X197352000Y-51312000D02*
X197352000Y-52052000D01*
X197352000Y-52052000D02*
X197852000Y-52052000D01*
X208400300Y-107688600D02*
X207900300Y-107688600D01*
X208400300Y-108428600D02*
X208400300Y-107688600D01*
X199600300Y-116288600D02*
X199600300Y-115288600D01*
X201600300Y-116288600D02*
X201600300Y-115288600D01*
X201600300Y-115288600D02*
X199600300Y-115288600D01*
X201600300Y-116288600D02*
X199600300Y-116288600D01*
X201827300Y-110965600D02*
X201874300Y-110919600D01*
X199530300Y-113263600D02*
X199565300Y-113227600D01*
X201634300Y-110749600D02*
X201669300Y-110714600D01*
X199325300Y-113057600D02*
X199372300Y-113011600D01*
X204600300Y-116288600D02*
X204600300Y-115288600D01*
X206600300Y-116288600D02*
X206600300Y-115288600D01*
X206600300Y-115288600D02*
X204600300Y-115288600D01*
X206600300Y-116288600D02*
X204600300Y-116288600D01*
X198040300Y-116348600D02*
X198040300Y-107928600D01*
X208160300Y-116348600D02*
X208160300Y-107928600D01*
X208160300Y-107928600D02*
X198040300Y-107928600D01*
X208160300Y-116348600D02*
X198040300Y-116348600D01*
X208160300Y-114289600D02*
X198040300Y-114289600D01*
X208160300Y-109988600D02*
X198040300Y-109988600D01*
X208160300Y-108488600D02*
X198040300Y-108488600D01*
X202280300Y-111988600D02*
G75*
G03*
X202280300Y-111988600I-1680000J0D01*
G01*
X204916982Y-110453844D02*
G75*
G02*
X205600300Y-110308600I683318J-1534756D01*
G01*
X204064874Y-112671642D02*
G75*
G02*
X204065300Y-111304600I1535426J683042D01*
G01*
X206283342Y-113524026D02*
G75*
G02*
X204916300Y-113523600I-683042J1535426D01*
G01*
X207135726Y-111305558D02*
G75*
G02*
X207135300Y-112672600I-1535426J-683042D01*
G01*
X205571495Y-110308347D02*
G75*
G02*
X206284300Y-110453600I28805J-1680253D01*
G01*
X194239800Y-107561600D02*
X193739800Y-107561600D01*
X194239800Y-108301600D02*
X194239800Y-107561600D01*
X185439800Y-116161600D02*
X185439800Y-115161600D01*
X187439800Y-116161600D02*
X187439800Y-115161600D01*
X187439800Y-115161600D02*
X185439800Y-115161600D01*
X187439800Y-116161600D02*
X185439800Y-116161600D01*
X187666800Y-110838600D02*
X187713800Y-110792600D01*
X185369800Y-113136600D02*
X185404800Y-113100600D01*
X187473800Y-110622600D02*
X187508800Y-110587600D01*
X185164800Y-112930600D02*
X185211800Y-112884600D01*
X190439800Y-116161600D02*
X190439800Y-115161600D01*
X192439800Y-116161600D02*
X192439800Y-115161600D01*
X192439800Y-115161600D02*
X190439800Y-115161600D01*
X192439800Y-116161600D02*
X190439800Y-116161600D01*
X183879800Y-116221600D02*
X183879800Y-107801600D01*
X193999800Y-116221600D02*
X193999800Y-107801600D01*
X193999800Y-107801600D02*
X183879800Y-107801600D01*
X193999800Y-116221600D02*
X183879800Y-116221600D01*
X193999800Y-114162600D02*
X183879800Y-114162600D01*
X193999800Y-109861600D02*
X183879800Y-109861600D01*
X193999800Y-108361600D02*
X183879800Y-108361600D01*
X188119800Y-111861600D02*
G75*
G03*
X188119800Y-111861600I-1680000J0D01*
G01*
X190756482Y-110326844D02*
G75*
G02*
X191439800Y-110181600I683318J-1534756D01*
G01*
X189904374Y-112544642D02*
G75*
G02*
X189904800Y-111177600I1535426J683042D01*
G01*
X192122842Y-113397026D02*
G75*
G02*
X190755800Y-113396600I-683042J1535426D01*
G01*
X192975226Y-111178558D02*
G75*
G02*
X192974800Y-112545600I-1535426J-683042D01*
G01*
X191410995Y-110181347D02*
G75*
G02*
X192123800Y-110326600I28805J-1680253D01*
G01*
X180015800Y-107561600D02*
X179515800Y-107561600D01*
X180015800Y-108301600D02*
X180015800Y-107561600D01*
X171215800Y-116161600D02*
X171215800Y-115161600D01*
X173215800Y-116161600D02*
X173215800Y-115161600D01*
X173215800Y-115161600D02*
X171215800Y-115161600D01*
X173215800Y-116161600D02*
X171215800Y-116161600D01*
X173442800Y-110838600D02*
X173489800Y-110792600D01*
X171145800Y-113136600D02*
X171180800Y-113100600D01*
X173249800Y-110622600D02*
X173284800Y-110587600D01*
X170940800Y-112930600D02*
X170987800Y-112884600D01*
X176215800Y-116161600D02*
X176215800Y-115161600D01*
X178215800Y-116161600D02*
X178215800Y-115161600D01*
X178215800Y-115161600D02*
X176215800Y-115161600D01*
X178215800Y-116161600D02*
X176215800Y-116161600D01*
X169655800Y-116221600D02*
X169655800Y-107801600D01*
X179775800Y-116221600D02*
X179775800Y-107801600D01*
X179775800Y-107801600D02*
X169655800Y-107801600D01*
X179775800Y-116221600D02*
X169655800Y-116221600D01*
X179775800Y-114162600D02*
X169655800Y-114162600D01*
X179775800Y-109861600D02*
X169655800Y-109861600D01*
X179775800Y-108361600D02*
X169655800Y-108361600D01*
X173895800Y-111861600D02*
G75*
G03*
X173895800Y-111861600I-1680000J0D01*
G01*
X176532482Y-110326844D02*
G75*
G02*
X177215800Y-110181600I683318J-1534756D01*
G01*
X175680374Y-112544642D02*
G75*
G02*
X175680800Y-111177600I1535426J683042D01*
G01*
X177898842Y-113397026D02*
G75*
G02*
X176531800Y-113396600I-683042J1535426D01*
G01*
X178751226Y-111178558D02*
G75*
G02*
X178750800Y-112545600I-1535426J-683042D01*
G01*
X177186995Y-110181347D02*
G75*
G02*
X177899800Y-110326600I28805J-1680253D01*
G01*
X166172800Y-107498100D02*
X165672800Y-107498100D01*
X166172800Y-108238100D02*
X166172800Y-107498100D01*
X157372800Y-116098100D02*
X157372800Y-115098100D01*
X159372800Y-116098100D02*
X159372800Y-115098100D01*
X159372800Y-115098100D02*
X157372800Y-115098100D01*
X159372800Y-116098100D02*
X157372800Y-116098100D01*
X159599800Y-110775100D02*
X159646800Y-110729100D01*
X157302800Y-113073100D02*
X157337800Y-113037100D01*
X159406800Y-110559100D02*
X159441800Y-110524100D01*
X157097800Y-112867100D02*
X157144800Y-112821100D01*
X162372800Y-116098100D02*
X162372800Y-115098100D01*
X164372800Y-116098100D02*
X164372800Y-115098100D01*
X164372800Y-115098100D02*
X162372800Y-115098100D01*
X164372800Y-116098100D02*
X162372800Y-116098100D01*
X155812800Y-116158100D02*
X155812800Y-107738100D01*
X165932800Y-116158100D02*
X165932800Y-107738100D01*
X165932800Y-107738100D02*
X155812800Y-107738100D01*
X165932800Y-116158100D02*
X155812800Y-116158100D01*
X165932800Y-114099100D02*
X155812800Y-114099100D01*
X165932800Y-109798100D02*
X155812800Y-109798100D01*
X165932800Y-108298100D02*
X155812800Y-108298100D01*
X160052800Y-111798100D02*
G75*
G03*
X160052800Y-111798100I-1680000J0D01*
G01*
X162689482Y-110263344D02*
G75*
G02*
X163372800Y-110118100I683318J-1534756D01*
G01*
X161837374Y-112481142D02*
G75*
G02*
X161837800Y-111114100I1535426J683042D01*
G01*
X164055842Y-113333526D02*
G75*
G02*
X162688800Y-113333100I-683042J1535426D01*
G01*
X164908226Y-111115058D02*
G75*
G02*
X164907800Y-112482100I-1535426J-683042D01*
G01*
X163343995Y-110117847D02*
G75*
G02*
X164056800Y-110263100I28805J-1680253D01*
G01*
X114332800Y-53777800D02*
X114332800Y-53277800D01*
X113592800Y-53777800D02*
X114332800Y-53777800D01*
X105732800Y-44977800D02*
X106732800Y-44977800D01*
X105732800Y-46977800D02*
X106732800Y-46977800D01*
X106732800Y-46977800D02*
X106732800Y-44977800D01*
X105732800Y-46977800D02*
X105732800Y-44977800D01*
X111055800Y-47204800D02*
X111101800Y-47251800D01*
X108757800Y-44907800D02*
X108793800Y-44942800D01*
X111271800Y-47011800D02*
X111306800Y-47046800D01*
X108963800Y-44702800D02*
X109009800Y-44749800D01*
X105732800Y-49977800D02*
X106732800Y-49977800D01*
X105732800Y-51977800D02*
X106732800Y-51977800D01*
X106732800Y-51977800D02*
X106732800Y-49977800D01*
X105732800Y-51977800D02*
X105732800Y-49977800D01*
X105672800Y-43417800D02*
X114092800Y-43417800D01*
X105672800Y-53537800D02*
X114092800Y-53537800D01*
X114092800Y-53537800D02*
X114092800Y-43417800D01*
X105672800Y-53537800D02*
X105672800Y-43417800D01*
X107731800Y-53537800D02*
X107731800Y-43417800D01*
X112032800Y-53537800D02*
X112032800Y-43417800D01*
X113532800Y-53537800D02*
X113532800Y-43417800D01*
X111712800Y-45977800D02*
G75*
G03*
X111712800Y-45977800I-1680000J0D01*
G01*
X111567556Y-50294482D02*
G75*
G02*
X111712800Y-50977800I-1534756J-683318D01*
G01*
X109349758Y-49442374D02*
G75*
G02*
X110716800Y-49442800I683042J-1535426D01*
G01*
X108497374Y-51660842D02*
G75*
G02*
X108497800Y-50293800I1535426J683042D01*
G01*
X110715842Y-52513226D02*
G75*
G02*
X109348800Y-52512800I-683042J1535426D01*
G01*
X111713053Y-50948995D02*
G75*
G02*
X111567800Y-51661800I-1680253J-28805D01*
G01*
D10*
X132673885Y-42117971D02*
X132340552Y-42117971D01*
X132340552Y-42641780D02*
X132340552Y-41641780D01*
X132816742Y-41641780D01*
X133721504Y-42641780D02*
X133150076Y-42641780D01*
X133435790Y-42641780D02*
X133435790Y-41641780D01*
X133340552Y-41784638D01*
X133245314Y-41879876D01*
X133150076Y-41927495D01*
X134340552Y-41641780D02*
X134435790Y-41641780D01*
X134531028Y-41689400D01*
X134578647Y-41737019D01*
X134626266Y-41832257D01*
X134673885Y-42022733D01*
X134673885Y-42260828D01*
X134626266Y-42451304D01*
X134578647Y-42546542D01*
X134531028Y-42594161D01*
X134435790Y-42641780D01*
X134340552Y-42641780D01*
X134245314Y-42594161D01*
X134197695Y-42546542D01*
X134150076Y-42451304D01*
X134102457Y-42260828D01*
X134102457Y-42022733D01*
X134150076Y-41832257D01*
X134197695Y-41737019D01*
X134245314Y-41689400D01*
X134340552Y-41641780D01*
X135292933Y-41641780D02*
X135388171Y-41641780D01*
X135483409Y-41689400D01*
X135531028Y-41737019D01*
X135578647Y-41832257D01*
X135626266Y-42022733D01*
X135626266Y-42260828D01*
X135578647Y-42451304D01*
X135531028Y-42546542D01*
X135483409Y-42594161D01*
X135388171Y-42641780D01*
X135292933Y-42641780D01*
X135197695Y-42594161D01*
X135150076Y-42546542D01*
X135102457Y-42451304D01*
X135054838Y-42260828D01*
X135054838Y-42022733D01*
X135102457Y-41832257D01*
X135150076Y-41737019D01*
X135197695Y-41689400D01*
X135292933Y-41641780D01*
X188163295Y-75525380D02*
X188163295Y-76334904D01*
X188210914Y-76430142D01*
X188258533Y-76477761D01*
X188353771Y-76525380D01*
X188544247Y-76525380D01*
X188639485Y-76477761D01*
X188687104Y-76430142D01*
X188734723Y-76334904D01*
X188734723Y-75525380D01*
X189115676Y-75525380D02*
X189734723Y-75525380D01*
X189401390Y-75906333D01*
X189544247Y-75906333D01*
X189639485Y-75953952D01*
X189687104Y-76001571D01*
X189734723Y-76096809D01*
X189734723Y-76334904D01*
X189687104Y-76430142D01*
X189639485Y-76477761D01*
X189544247Y-76525380D01*
X189258533Y-76525380D01*
X189163295Y-76477761D01*
X189115676Y-76430142D01*
X139909704Y-81951580D02*
X139909704Y-82761104D01*
X139957323Y-82856342D01*
X140004942Y-82903961D01*
X140100180Y-82951580D01*
X140290657Y-82951580D01*
X140385895Y-82903961D01*
X140433514Y-82856342D01*
X140481133Y-82761104D01*
X140481133Y-81951580D01*
X141481133Y-82951580D02*
X140909704Y-82951580D01*
X141195419Y-82951580D02*
X141195419Y-81951580D01*
X141100180Y-82094438D01*
X141004942Y-82189676D01*
X140909704Y-82237295D01*
X142100180Y-81951580D02*
X142195419Y-81951580D01*
X142290657Y-81999200D01*
X142338276Y-82046819D01*
X142385895Y-82142057D01*
X142433514Y-82332533D01*
X142433514Y-82570628D01*
X142385895Y-82761104D01*
X142338276Y-82856342D01*
X142290657Y-82903961D01*
X142195419Y-82951580D01*
X142100180Y-82951580D01*
X142004942Y-82903961D01*
X141957323Y-82856342D01*
X141909704Y-82761104D01*
X141862085Y-82570628D01*
X141862085Y-82332533D01*
X141909704Y-82142057D01*
X141957323Y-82046819D01*
X142004942Y-81999200D01*
X142100180Y-81951580D01*
X140904980Y-98340704D02*
X141714504Y-98340704D01*
X141809742Y-98293085D01*
X141857361Y-98245466D01*
X141904980Y-98150228D01*
X141904980Y-97959752D01*
X141857361Y-97864514D01*
X141809742Y-97816895D01*
X141714504Y-97769276D01*
X140904980Y-97769276D01*
X141857361Y-97340704D02*
X141904980Y-97197847D01*
X141904980Y-96959752D01*
X141857361Y-96864514D01*
X141809742Y-96816895D01*
X141714504Y-96769276D01*
X141619266Y-96769276D01*
X141524028Y-96816895D01*
X141476409Y-96864514D01*
X141428790Y-96959752D01*
X141381171Y-97150228D01*
X141333552Y-97245466D01*
X141285933Y-97293085D01*
X141190695Y-97340704D01*
X141095457Y-97340704D01*
X141000219Y-97293085D01*
X140952600Y-97245466D01*
X140904980Y-97150228D01*
X140904980Y-96912133D01*
X140952600Y-96769276D01*
X141381171Y-96007371D02*
X141428790Y-95864514D01*
X141476409Y-95816895D01*
X141571647Y-95769276D01*
X141714504Y-95769276D01*
X141809742Y-95816895D01*
X141857361Y-95864514D01*
X141904980Y-95959752D01*
X141904980Y-96340704D01*
X140904980Y-96340704D01*
X140904980Y-96007371D01*
X140952600Y-95912133D01*
X141000219Y-95864514D01*
X141095457Y-95816895D01*
X141190695Y-95816895D01*
X141285933Y-95864514D01*
X141333552Y-95912133D01*
X141381171Y-96007371D01*
X141381171Y-96340704D01*
X136824980Y-109056419D02*
X136348790Y-109389752D01*
X136824980Y-109627847D02*
X135824980Y-109627847D01*
X135824980Y-109246895D01*
X135872600Y-109151657D01*
X135920219Y-109104038D01*
X136015457Y-109056419D01*
X136158314Y-109056419D01*
X136253552Y-109104038D01*
X136301171Y-109151657D01*
X136348790Y-109246895D01*
X136348790Y-109627847D01*
X136777361Y-108675466D02*
X136824980Y-108532609D01*
X136824980Y-108294514D01*
X136777361Y-108199276D01*
X136729742Y-108151657D01*
X136634504Y-108104038D01*
X136539266Y-108104038D01*
X136444028Y-108151657D01*
X136396409Y-108199276D01*
X136348790Y-108294514D01*
X136301171Y-108484990D01*
X136253552Y-108580228D01*
X136205933Y-108627847D01*
X136110695Y-108675466D01*
X136015457Y-108675466D01*
X135920219Y-108627847D01*
X135872600Y-108580228D01*
X135824980Y-108484990D01*
X135824980Y-108246895D01*
X135872600Y-108104038D01*
X135824980Y-107818323D02*
X135824980Y-107246895D01*
X136824980Y-107532609D02*
X135824980Y-107532609D01*
X147691695Y-103599180D02*
X147691695Y-104313466D01*
X147644076Y-104456323D01*
X147548838Y-104551561D01*
X147405980Y-104599180D01*
X147310742Y-104599180D01*
X148691695Y-104599180D02*
X148120266Y-104599180D01*
X148405980Y-104599180D02*
X148405980Y-103599180D01*
X148310742Y-103742038D01*
X148215504Y-103837276D01*
X148120266Y-103884895D01*
X149310742Y-103599180D02*
X149405980Y-103599180D01*
X149501219Y-103646800D01*
X149548838Y-103694419D01*
X149596457Y-103789657D01*
X149644076Y-103980133D01*
X149644076Y-104218228D01*
X149596457Y-104408704D01*
X149548838Y-104503942D01*
X149501219Y-104551561D01*
X149405980Y-104599180D01*
X149310742Y-104599180D01*
X149215504Y-104551561D01*
X149167885Y-104503942D01*
X149120266Y-104408704D01*
X149072647Y-104218228D01*
X149072647Y-103980133D01*
X149120266Y-103789657D01*
X149167885Y-103694419D01*
X149215504Y-103646800D01*
X149310742Y-103599180D01*
X149977409Y-103599180D02*
X150596457Y-103599180D01*
X150263123Y-103980133D01*
X150405980Y-103980133D01*
X150501219Y-104027752D01*
X150548838Y-104075371D01*
X150596457Y-104170609D01*
X150596457Y-104408704D01*
X150548838Y-104503942D01*
X150501219Y-104551561D01*
X150405980Y-104599180D01*
X150120266Y-104599180D01*
X150025028Y-104551561D01*
X149977409Y-104503942D01*
X150929790Y-103599180D02*
X151548838Y-103599180D01*
X151215504Y-103980133D01*
X151358361Y-103980133D01*
X151453600Y-104027752D01*
X151501219Y-104075371D01*
X151548838Y-104170609D01*
X151548838Y-104408704D01*
X151501219Y-104503942D01*
X151453600Y-104551561D01*
X151358361Y-104599180D01*
X151072647Y-104599180D01*
X150977409Y-104551561D01*
X150929790Y-104503942D01*
D11*
X148247247Y-109404104D02*
X148247247Y-108604104D01*
X148780580Y-108604104D02*
X148932961Y-108604104D01*
X149009152Y-108642200D01*
X149085342Y-108718390D01*
X149123438Y-108870771D01*
X149123438Y-109137438D01*
X149085342Y-109289819D01*
X149009152Y-109366009D01*
X148932961Y-109404104D01*
X148780580Y-109404104D01*
X148704390Y-109366009D01*
X148628200Y-109289819D01*
X148590104Y-109137438D01*
X148590104Y-108870771D01*
X148628200Y-108718390D01*
X148704390Y-108642200D01*
X148780580Y-108604104D01*
X149390104Y-108604104D02*
X149885342Y-108604104D01*
X149618676Y-108908866D01*
X149732961Y-108908866D01*
X149809152Y-108946961D01*
X149847247Y-108985057D01*
X149885342Y-109061247D01*
X149885342Y-109251723D01*
X149847247Y-109327914D01*
X149809152Y-109366009D01*
X149732961Y-109404104D01*
X149504390Y-109404104D01*
X149428200Y-109366009D01*
X149390104Y-109327914D01*
X150152009Y-108604104D02*
X150647247Y-108604104D01*
X150380580Y-108908866D01*
X150494866Y-108908866D01*
X150571057Y-108946961D01*
X150609152Y-108985057D01*
X150647247Y-109061247D01*
X150647247Y-109251723D01*
X150609152Y-109327914D01*
X150571057Y-109366009D01*
X150494866Y-109404104D01*
X150266295Y-109404104D01*
X150190104Y-109366009D01*
X150152009Y-109327914D01*
D10*
X147717095Y-84726980D02*
X147717095Y-85441266D01*
X147669476Y-85584123D01*
X147574238Y-85679361D01*
X147431380Y-85726980D01*
X147336142Y-85726980D01*
X148717095Y-85726980D02*
X148145666Y-85726980D01*
X148431380Y-85726980D02*
X148431380Y-84726980D01*
X148336142Y-84869838D01*
X148240904Y-84965076D01*
X148145666Y-85012695D01*
X149336142Y-84726980D02*
X149431380Y-84726980D01*
X149526619Y-84774600D01*
X149574238Y-84822219D01*
X149621857Y-84917457D01*
X149669476Y-85107933D01*
X149669476Y-85346028D01*
X149621857Y-85536504D01*
X149574238Y-85631742D01*
X149526619Y-85679361D01*
X149431380Y-85726980D01*
X149336142Y-85726980D01*
X149240904Y-85679361D01*
X149193285Y-85631742D01*
X149145666Y-85536504D01*
X149098047Y-85346028D01*
X149098047Y-85107933D01*
X149145666Y-84917457D01*
X149193285Y-84822219D01*
X149240904Y-84774600D01*
X149336142Y-84726980D01*
X150621857Y-85726980D02*
X150050428Y-85726980D01*
X150336142Y-85726980D02*
X150336142Y-84726980D01*
X150240904Y-84869838D01*
X150145666Y-84965076D01*
X150050428Y-85012695D01*
X150955190Y-84726980D02*
X151574238Y-84726980D01*
X151240904Y-85107933D01*
X151383761Y-85107933D01*
X151479000Y-85155552D01*
X151526619Y-85203171D01*
X151574238Y-85298409D01*
X151574238Y-85536504D01*
X151526619Y-85631742D01*
X151479000Y-85679361D01*
X151383761Y-85726980D01*
X151098047Y-85726980D01*
X151002809Y-85679361D01*
X150955190Y-85631742D01*
D11*
X148298047Y-90658904D02*
X148298047Y-89858904D01*
X148831380Y-89858904D02*
X148983761Y-89858904D01*
X149059952Y-89897000D01*
X149136142Y-89973190D01*
X149174238Y-90125571D01*
X149174238Y-90392238D01*
X149136142Y-90544619D01*
X149059952Y-90620809D01*
X148983761Y-90658904D01*
X148831380Y-90658904D01*
X148755190Y-90620809D01*
X148679000Y-90544619D01*
X148640904Y-90392238D01*
X148640904Y-90125571D01*
X148679000Y-89973190D01*
X148755190Y-89897000D01*
X148831380Y-89858904D01*
X149936142Y-90658904D02*
X149479000Y-90658904D01*
X149707571Y-90658904D02*
X149707571Y-89858904D01*
X149631380Y-89973190D01*
X149555190Y-90049380D01*
X149479000Y-90087476D01*
X150202809Y-89858904D02*
X150698047Y-89858904D01*
X150431380Y-90163666D01*
X150545666Y-90163666D01*
X150621857Y-90201761D01*
X150659952Y-90239857D01*
X150698047Y-90316047D01*
X150698047Y-90506523D01*
X150659952Y-90582714D01*
X150621857Y-90620809D01*
X150545666Y-90658904D01*
X150317095Y-90658904D01*
X150240904Y-90620809D01*
X150202809Y-90582714D01*
D10*
X180554333Y-105227380D02*
X180078142Y-105227380D01*
X180078142Y-104227380D01*
X180792428Y-104227380D02*
X181459095Y-104227380D01*
X181030523Y-105227380D01*
X197153304Y-82087980D02*
X197153304Y-81087980D01*
X197391400Y-81087980D01*
X197534257Y-81135600D01*
X197629495Y-81230838D01*
X197677114Y-81326076D01*
X197724733Y-81516552D01*
X197724733Y-81659409D01*
X197677114Y-81849885D01*
X197629495Y-81945123D01*
X197534257Y-82040361D01*
X197391400Y-82087980D01*
X197153304Y-82087980D01*
X198629495Y-81087980D02*
X198153304Y-81087980D01*
X198105685Y-81564171D01*
X198153304Y-81516552D01*
X198248542Y-81468933D01*
X198486638Y-81468933D01*
X198581876Y-81516552D01*
X198629495Y-81564171D01*
X198677114Y-81659409D01*
X198677114Y-81897504D01*
X198629495Y-81992742D01*
X198581876Y-82040361D01*
X198486638Y-82087980D01*
X198248542Y-82087980D01*
X198153304Y-82040361D01*
X198105685Y-81992742D01*
X211836095Y-48585380D02*
X211836095Y-47585380D01*
X211836095Y-48061571D02*
X212407523Y-48061571D01*
X212407523Y-48585380D02*
X212407523Y-47585380D01*
X212836095Y-47680619D02*
X212883714Y-47633000D01*
X212978952Y-47585380D01*
X213217047Y-47585380D01*
X213312285Y-47633000D01*
X213359904Y-47680619D01*
X213407523Y-47775857D01*
X213407523Y-47871095D01*
X213359904Y-48013952D01*
X212788476Y-48585380D01*
X213407523Y-48585380D01*
X168781504Y-82087980D02*
X168781504Y-81087980D01*
X169019600Y-81087980D01*
X169162457Y-81135600D01*
X169257695Y-81230838D01*
X169305314Y-81326076D01*
X169352933Y-81516552D01*
X169352933Y-81659409D01*
X169305314Y-81849885D01*
X169257695Y-81945123D01*
X169162457Y-82040361D01*
X169019600Y-82087980D01*
X168781504Y-82087980D01*
X169686266Y-81087980D02*
X170352933Y-81087980D01*
X169924361Y-82087980D01*
X156583142Y-78843142D02*
X156535523Y-78890761D01*
X156392666Y-78938380D01*
X156297428Y-78938380D01*
X156154571Y-78890761D01*
X156059333Y-78795523D01*
X156011714Y-78700285D01*
X155964095Y-78509809D01*
X155964095Y-78366952D01*
X156011714Y-78176476D01*
X156059333Y-78081238D01*
X156154571Y-77986000D01*
X156297428Y-77938380D01*
X156392666Y-77938380D01*
X156535523Y-77986000D01*
X156583142Y-78033619D01*
X157535523Y-78938380D02*
X156964095Y-78938380D01*
X157249809Y-78938380D02*
X157249809Y-77938380D01*
X157154571Y-78081238D01*
X157059333Y-78176476D01*
X156964095Y-78224095D01*
X158487904Y-78938380D02*
X157916476Y-78938380D01*
X158202190Y-78938380D02*
X158202190Y-77938380D01*
X158106952Y-78081238D01*
X158011714Y-78176476D01*
X157916476Y-78224095D01*
X156329142Y-54332142D02*
X156281523Y-54379761D01*
X156138666Y-54427380D01*
X156043428Y-54427380D01*
X155900571Y-54379761D01*
X155805333Y-54284523D01*
X155757714Y-54189285D01*
X155710095Y-53998809D01*
X155710095Y-53855952D01*
X155757714Y-53665476D01*
X155805333Y-53570238D01*
X155900571Y-53475000D01*
X156043428Y-53427380D01*
X156138666Y-53427380D01*
X156281523Y-53475000D01*
X156329142Y-53522619D01*
X157281523Y-54427380D02*
X156710095Y-54427380D01*
X156995809Y-54427380D02*
X156995809Y-53427380D01*
X156900571Y-53570238D01*
X156805333Y-53665476D01*
X156710095Y-53713095D01*
X157662476Y-53522619D02*
X157710095Y-53475000D01*
X157805333Y-53427380D01*
X158043428Y-53427380D01*
X158138666Y-53475000D01*
X158186285Y-53522619D01*
X158233904Y-53617857D01*
X158233904Y-53713095D01*
X158186285Y-53855952D01*
X157614857Y-54427380D01*
X158233904Y-54427380D01*
X170934142Y-78843142D02*
X170886523Y-78890761D01*
X170743666Y-78938380D01*
X170648428Y-78938380D01*
X170505571Y-78890761D01*
X170410333Y-78795523D01*
X170362714Y-78700285D01*
X170315095Y-78509809D01*
X170315095Y-78366952D01*
X170362714Y-78176476D01*
X170410333Y-78081238D01*
X170505571Y-77986000D01*
X170648428Y-77938380D01*
X170743666Y-77938380D01*
X170886523Y-77986000D01*
X170934142Y-78033619D01*
X171315095Y-78033619D02*
X171362714Y-77986000D01*
X171457952Y-77938380D01*
X171696047Y-77938380D01*
X171791285Y-77986000D01*
X171838904Y-78033619D01*
X171886523Y-78128857D01*
X171886523Y-78224095D01*
X171838904Y-78366952D01*
X171267476Y-78938380D01*
X171886523Y-78938380D01*
X172838904Y-78938380D02*
X172267476Y-78938380D01*
X172553190Y-78938380D02*
X172553190Y-77938380D01*
X172457952Y-78081238D01*
X172362714Y-78176476D01*
X172267476Y-78224095D01*
X171061142Y-54586142D02*
X171013523Y-54633761D01*
X170870666Y-54681380D01*
X170775428Y-54681380D01*
X170632571Y-54633761D01*
X170537333Y-54538523D01*
X170489714Y-54443285D01*
X170442095Y-54252809D01*
X170442095Y-54109952D01*
X170489714Y-53919476D01*
X170537333Y-53824238D01*
X170632571Y-53729000D01*
X170775428Y-53681380D01*
X170870666Y-53681380D01*
X171013523Y-53729000D01*
X171061142Y-53776619D01*
X171442095Y-53776619D02*
X171489714Y-53729000D01*
X171584952Y-53681380D01*
X171823047Y-53681380D01*
X171918285Y-53729000D01*
X171965904Y-53776619D01*
X172013523Y-53871857D01*
X172013523Y-53967095D01*
X171965904Y-54109952D01*
X171394476Y-54681380D01*
X172013523Y-54681380D01*
X172394476Y-53776619D02*
X172442095Y-53729000D01*
X172537333Y-53681380D01*
X172775428Y-53681380D01*
X172870666Y-53729000D01*
X172918285Y-53776619D01*
X172965904Y-53871857D01*
X172965904Y-53967095D01*
X172918285Y-54109952D01*
X172346857Y-54681380D01*
X172965904Y-54681380D01*
X185412142Y-78843142D02*
X185364523Y-78890761D01*
X185221666Y-78938380D01*
X185126428Y-78938380D01*
X184983571Y-78890761D01*
X184888333Y-78795523D01*
X184840714Y-78700285D01*
X184793095Y-78509809D01*
X184793095Y-78366952D01*
X184840714Y-78176476D01*
X184888333Y-78081238D01*
X184983571Y-77986000D01*
X185126428Y-77938380D01*
X185221666Y-77938380D01*
X185364523Y-77986000D01*
X185412142Y-78033619D01*
X185745476Y-77938380D02*
X186364523Y-77938380D01*
X186031190Y-78319333D01*
X186174047Y-78319333D01*
X186269285Y-78366952D01*
X186316904Y-78414571D01*
X186364523Y-78509809D01*
X186364523Y-78747904D01*
X186316904Y-78843142D01*
X186269285Y-78890761D01*
X186174047Y-78938380D01*
X185888333Y-78938380D01*
X185793095Y-78890761D01*
X185745476Y-78843142D01*
X187316904Y-78938380D02*
X186745476Y-78938380D01*
X187031190Y-78938380D02*
X187031190Y-77938380D01*
X186935952Y-78081238D01*
X186840714Y-78176476D01*
X186745476Y-78224095D01*
X185285142Y-54586142D02*
X185237523Y-54633761D01*
X185094666Y-54681380D01*
X184999428Y-54681380D01*
X184856571Y-54633761D01*
X184761333Y-54538523D01*
X184713714Y-54443285D01*
X184666095Y-54252809D01*
X184666095Y-54109952D01*
X184713714Y-53919476D01*
X184761333Y-53824238D01*
X184856571Y-53729000D01*
X184999428Y-53681380D01*
X185094666Y-53681380D01*
X185237523Y-53729000D01*
X185285142Y-53776619D01*
X185618476Y-53681380D02*
X186237523Y-53681380D01*
X185904190Y-54062333D01*
X186047047Y-54062333D01*
X186142285Y-54109952D01*
X186189904Y-54157571D01*
X186237523Y-54252809D01*
X186237523Y-54490904D01*
X186189904Y-54586142D01*
X186142285Y-54633761D01*
X186047047Y-54681380D01*
X185761333Y-54681380D01*
X185666095Y-54633761D01*
X185618476Y-54586142D01*
X186618476Y-53776619D02*
X186666095Y-53729000D01*
X186761333Y-53681380D01*
X186999428Y-53681380D01*
X187094666Y-53729000D01*
X187142285Y-53776619D01*
X187189904Y-53871857D01*
X187189904Y-53967095D01*
X187142285Y-54109952D01*
X186570857Y-54681380D01*
X187189904Y-54681380D01*
X199636142Y-78843142D02*
X199588523Y-78890761D01*
X199445666Y-78938380D01*
X199350428Y-78938380D01*
X199207571Y-78890761D01*
X199112333Y-78795523D01*
X199064714Y-78700285D01*
X199017095Y-78509809D01*
X199017095Y-78366952D01*
X199064714Y-78176476D01*
X199112333Y-78081238D01*
X199207571Y-77986000D01*
X199350428Y-77938380D01*
X199445666Y-77938380D01*
X199588523Y-77986000D01*
X199636142Y-78033619D01*
X200493285Y-78271714D02*
X200493285Y-78938380D01*
X200255190Y-77890761D02*
X200017095Y-78605047D01*
X200636142Y-78605047D01*
X201540904Y-78938380D02*
X200969476Y-78938380D01*
X201255190Y-78938380D02*
X201255190Y-77938380D01*
X201159952Y-78081238D01*
X201064714Y-78176476D01*
X200969476Y-78224095D01*
X199509142Y-54586142D02*
X199461523Y-54633761D01*
X199318666Y-54681380D01*
X199223428Y-54681380D01*
X199080571Y-54633761D01*
X198985333Y-54538523D01*
X198937714Y-54443285D01*
X198890095Y-54252809D01*
X198890095Y-54109952D01*
X198937714Y-53919476D01*
X198985333Y-53824238D01*
X199080571Y-53729000D01*
X199223428Y-53681380D01*
X199318666Y-53681380D01*
X199461523Y-53729000D01*
X199509142Y-53776619D01*
X200366285Y-54014714D02*
X200366285Y-54681380D01*
X200128190Y-53633761D02*
X199890095Y-54348047D01*
X200509142Y-54348047D01*
X200842476Y-53776619D02*
X200890095Y-53729000D01*
X200985333Y-53681380D01*
X201223428Y-53681380D01*
X201318666Y-53729000D01*
X201366285Y-53776619D01*
X201413904Y-53871857D01*
X201413904Y-53967095D01*
X201366285Y-54109952D01*
X200794857Y-54681380D01*
X201413904Y-54681380D01*
X204335142Y-81510142D02*
X204287523Y-81557761D01*
X204144666Y-81605380D01*
X204049428Y-81605380D01*
X203906571Y-81557761D01*
X203811333Y-81462523D01*
X203763714Y-81367285D01*
X203716095Y-81176809D01*
X203716095Y-81033952D01*
X203763714Y-80843476D01*
X203811333Y-80748238D01*
X203906571Y-80653000D01*
X204049428Y-80605380D01*
X204144666Y-80605380D01*
X204287523Y-80653000D01*
X204335142Y-80700619D01*
X205239904Y-80605380D02*
X204763714Y-80605380D01*
X204716095Y-81081571D01*
X204763714Y-81033952D01*
X204858952Y-80986333D01*
X205097047Y-80986333D01*
X205192285Y-81033952D01*
X205239904Y-81081571D01*
X205287523Y-81176809D01*
X205287523Y-81414904D01*
X205239904Y-81510142D01*
X205192285Y-81557761D01*
X205097047Y-81605380D01*
X204858952Y-81605380D01*
X204763714Y-81557761D01*
X204716095Y-81510142D01*
X206239904Y-81605380D02*
X205668476Y-81605380D01*
X205954190Y-81605380D02*
X205954190Y-80605380D01*
X205858952Y-80748238D01*
X205763714Y-80843476D01*
X205668476Y-80891095D01*
X197858142Y-106148142D02*
X197810523Y-106195761D01*
X197667666Y-106243380D01*
X197572428Y-106243380D01*
X197429571Y-106195761D01*
X197334333Y-106100523D01*
X197286714Y-106005285D01*
X197239095Y-105814809D01*
X197239095Y-105671952D01*
X197286714Y-105481476D01*
X197334333Y-105386238D01*
X197429571Y-105291000D01*
X197572428Y-105243380D01*
X197667666Y-105243380D01*
X197810523Y-105291000D01*
X197858142Y-105338619D01*
X198762904Y-105243380D02*
X198286714Y-105243380D01*
X198239095Y-105719571D01*
X198286714Y-105671952D01*
X198381952Y-105624333D01*
X198620047Y-105624333D01*
X198715285Y-105671952D01*
X198762904Y-105719571D01*
X198810523Y-105814809D01*
X198810523Y-106052904D01*
X198762904Y-106148142D01*
X198715285Y-106195761D01*
X198620047Y-106243380D01*
X198381952Y-106243380D01*
X198286714Y-106195761D01*
X198239095Y-106148142D01*
X199191476Y-105338619D02*
X199239095Y-105291000D01*
X199334333Y-105243380D01*
X199572428Y-105243380D01*
X199667666Y-105291000D01*
X199715285Y-105338619D01*
X199762904Y-105433857D01*
X199762904Y-105529095D01*
X199715285Y-105671952D01*
X199143857Y-106243380D01*
X199762904Y-106243380D01*
X189984142Y-81510142D02*
X189936523Y-81557761D01*
X189793666Y-81605380D01*
X189698428Y-81605380D01*
X189555571Y-81557761D01*
X189460333Y-81462523D01*
X189412714Y-81367285D01*
X189365095Y-81176809D01*
X189365095Y-81033952D01*
X189412714Y-80843476D01*
X189460333Y-80748238D01*
X189555571Y-80653000D01*
X189698428Y-80605380D01*
X189793666Y-80605380D01*
X189936523Y-80653000D01*
X189984142Y-80700619D01*
X190841285Y-80605380D02*
X190650809Y-80605380D01*
X190555571Y-80653000D01*
X190507952Y-80700619D01*
X190412714Y-80843476D01*
X190365095Y-81033952D01*
X190365095Y-81414904D01*
X190412714Y-81510142D01*
X190460333Y-81557761D01*
X190555571Y-81605380D01*
X190746047Y-81605380D01*
X190841285Y-81557761D01*
X190888904Y-81510142D01*
X190936523Y-81414904D01*
X190936523Y-81176809D01*
X190888904Y-81081571D01*
X190841285Y-81033952D01*
X190746047Y-80986333D01*
X190555571Y-80986333D01*
X190460333Y-81033952D01*
X190412714Y-81081571D01*
X190365095Y-81176809D01*
X191888904Y-81605380D02*
X191317476Y-81605380D01*
X191603190Y-81605380D02*
X191603190Y-80605380D01*
X191507952Y-80748238D01*
X191412714Y-80843476D01*
X191317476Y-80891095D01*
X183380142Y-106148142D02*
X183332523Y-106195761D01*
X183189666Y-106243380D01*
X183094428Y-106243380D01*
X182951571Y-106195761D01*
X182856333Y-106100523D01*
X182808714Y-106005285D01*
X182761095Y-105814809D01*
X182761095Y-105671952D01*
X182808714Y-105481476D01*
X182856333Y-105386238D01*
X182951571Y-105291000D01*
X183094428Y-105243380D01*
X183189666Y-105243380D01*
X183332523Y-105291000D01*
X183380142Y-105338619D01*
X184237285Y-105243380D02*
X184046809Y-105243380D01*
X183951571Y-105291000D01*
X183903952Y-105338619D01*
X183808714Y-105481476D01*
X183761095Y-105671952D01*
X183761095Y-106052904D01*
X183808714Y-106148142D01*
X183856333Y-106195761D01*
X183951571Y-106243380D01*
X184142047Y-106243380D01*
X184237285Y-106195761D01*
X184284904Y-106148142D01*
X184332523Y-106052904D01*
X184332523Y-105814809D01*
X184284904Y-105719571D01*
X184237285Y-105671952D01*
X184142047Y-105624333D01*
X183951571Y-105624333D01*
X183856333Y-105671952D01*
X183808714Y-105719571D01*
X183761095Y-105814809D01*
X184713476Y-105338619D02*
X184761095Y-105291000D01*
X184856333Y-105243380D01*
X185094428Y-105243380D01*
X185189666Y-105291000D01*
X185237285Y-105338619D01*
X185284904Y-105433857D01*
X185284904Y-105529095D01*
X185237285Y-105671952D01*
X184665857Y-106243380D01*
X185284904Y-106243380D01*
X175887142Y-81510142D02*
X175839523Y-81557761D01*
X175696666Y-81605380D01*
X175601428Y-81605380D01*
X175458571Y-81557761D01*
X175363333Y-81462523D01*
X175315714Y-81367285D01*
X175268095Y-81176809D01*
X175268095Y-81033952D01*
X175315714Y-80843476D01*
X175363333Y-80748238D01*
X175458571Y-80653000D01*
X175601428Y-80605380D01*
X175696666Y-80605380D01*
X175839523Y-80653000D01*
X175887142Y-80700619D01*
X176220476Y-80605380D02*
X176887142Y-80605380D01*
X176458571Y-81605380D01*
X177791904Y-81605380D02*
X177220476Y-81605380D01*
X177506190Y-81605380D02*
X177506190Y-80605380D01*
X177410952Y-80748238D01*
X177315714Y-80843476D01*
X177220476Y-80891095D01*
X169156142Y-106148142D02*
X169108523Y-106195761D01*
X168965666Y-106243380D01*
X168870428Y-106243380D01*
X168727571Y-106195761D01*
X168632333Y-106100523D01*
X168584714Y-106005285D01*
X168537095Y-105814809D01*
X168537095Y-105671952D01*
X168584714Y-105481476D01*
X168632333Y-105386238D01*
X168727571Y-105291000D01*
X168870428Y-105243380D01*
X168965666Y-105243380D01*
X169108523Y-105291000D01*
X169156142Y-105338619D01*
X169489476Y-105243380D02*
X170156142Y-105243380D01*
X169727571Y-106243380D01*
X170489476Y-105338619D02*
X170537095Y-105291000D01*
X170632333Y-105243380D01*
X170870428Y-105243380D01*
X170965666Y-105291000D01*
X171013285Y-105338619D01*
X171060904Y-105433857D01*
X171060904Y-105529095D01*
X171013285Y-105671952D01*
X170441857Y-106243380D01*
X171060904Y-106243380D01*
X161663142Y-81637142D02*
X161615523Y-81684761D01*
X161472666Y-81732380D01*
X161377428Y-81732380D01*
X161234571Y-81684761D01*
X161139333Y-81589523D01*
X161091714Y-81494285D01*
X161044095Y-81303809D01*
X161044095Y-81160952D01*
X161091714Y-80970476D01*
X161139333Y-80875238D01*
X161234571Y-80780000D01*
X161377428Y-80732380D01*
X161472666Y-80732380D01*
X161615523Y-80780000D01*
X161663142Y-80827619D01*
X162234571Y-81160952D02*
X162139333Y-81113333D01*
X162091714Y-81065714D01*
X162044095Y-80970476D01*
X162044095Y-80922857D01*
X162091714Y-80827619D01*
X162139333Y-80780000D01*
X162234571Y-80732380D01*
X162425047Y-80732380D01*
X162520285Y-80780000D01*
X162567904Y-80827619D01*
X162615523Y-80922857D01*
X162615523Y-80970476D01*
X162567904Y-81065714D01*
X162520285Y-81113333D01*
X162425047Y-81160952D01*
X162234571Y-81160952D01*
X162139333Y-81208571D01*
X162091714Y-81256190D01*
X162044095Y-81351428D01*
X162044095Y-81541904D01*
X162091714Y-81637142D01*
X162139333Y-81684761D01*
X162234571Y-81732380D01*
X162425047Y-81732380D01*
X162520285Y-81684761D01*
X162567904Y-81637142D01*
X162615523Y-81541904D01*
X162615523Y-81351428D01*
X162567904Y-81256190D01*
X162520285Y-81208571D01*
X162425047Y-81160952D01*
X163567904Y-81732380D02*
X162996476Y-81732380D01*
X163282190Y-81732380D02*
X163282190Y-80732380D01*
X163186952Y-80875238D01*
X163091714Y-80970476D01*
X162996476Y-81018095D01*
X155440142Y-106084642D02*
X155392523Y-106132261D01*
X155249666Y-106179880D01*
X155154428Y-106179880D01*
X155011571Y-106132261D01*
X154916333Y-106037023D01*
X154868714Y-105941785D01*
X154821095Y-105751309D01*
X154821095Y-105608452D01*
X154868714Y-105417976D01*
X154916333Y-105322738D01*
X155011571Y-105227500D01*
X155154428Y-105179880D01*
X155249666Y-105179880D01*
X155392523Y-105227500D01*
X155440142Y-105275119D01*
X156011571Y-105608452D02*
X155916333Y-105560833D01*
X155868714Y-105513214D01*
X155821095Y-105417976D01*
X155821095Y-105370357D01*
X155868714Y-105275119D01*
X155916333Y-105227500D01*
X156011571Y-105179880D01*
X156202047Y-105179880D01*
X156297285Y-105227500D01*
X156344904Y-105275119D01*
X156392523Y-105370357D01*
X156392523Y-105417976D01*
X156344904Y-105513214D01*
X156297285Y-105560833D01*
X156202047Y-105608452D01*
X156011571Y-105608452D01*
X155916333Y-105656071D01*
X155868714Y-105703690D01*
X155821095Y-105798928D01*
X155821095Y-105989404D01*
X155868714Y-106084642D01*
X155916333Y-106132261D01*
X156011571Y-106179880D01*
X156202047Y-106179880D01*
X156297285Y-106132261D01*
X156344904Y-106084642D01*
X156392523Y-105989404D01*
X156392523Y-105798928D01*
X156344904Y-105703690D01*
X156297285Y-105656071D01*
X156202047Y-105608452D01*
X156773476Y-105275119D02*
X156821095Y-105227500D01*
X156916333Y-105179880D01*
X157154428Y-105179880D01*
X157249666Y-105227500D01*
X157297285Y-105275119D01*
X157344904Y-105370357D01*
X157344904Y-105465595D01*
X157297285Y-105608452D01*
X156725857Y-106179880D01*
X157344904Y-106179880D01*
X132688152Y-64949342D02*
X132640533Y-64996961D01*
X132497676Y-65044580D01*
X132402438Y-65044580D01*
X132259580Y-64996961D01*
X132164342Y-64901723D01*
X132116723Y-64806485D01*
X132069104Y-64616009D01*
X132069104Y-64473152D01*
X132116723Y-64282676D01*
X132164342Y-64187438D01*
X132259580Y-64092200D01*
X132402438Y-64044580D01*
X132497676Y-64044580D01*
X132640533Y-64092200D01*
X132688152Y-64139819D01*
X133640533Y-65044580D02*
X133069104Y-65044580D01*
X133354819Y-65044580D02*
X133354819Y-64044580D01*
X133259580Y-64187438D01*
X133164342Y-64282676D01*
X133069104Y-64330295D01*
X134259580Y-64044580D02*
X134354819Y-64044580D01*
X134450057Y-64092200D01*
X134497676Y-64139819D01*
X134545295Y-64235057D01*
X134592914Y-64425533D01*
X134592914Y-64663628D01*
X134545295Y-64854104D01*
X134497676Y-64949342D01*
X134450057Y-64996961D01*
X134354819Y-65044580D01*
X134259580Y-65044580D01*
X134164342Y-64996961D01*
X134116723Y-64949342D01*
X134069104Y-64854104D01*
X134021485Y-64663628D01*
X134021485Y-64425533D01*
X134069104Y-64235057D01*
X134116723Y-64139819D01*
X134164342Y-64092200D01*
X134259580Y-64044580D01*
X135211961Y-64044580D02*
X135307200Y-64044580D01*
X135402438Y-64092200D01*
X135450057Y-64139819D01*
X135497676Y-64235057D01*
X135545295Y-64425533D01*
X135545295Y-64663628D01*
X135497676Y-64854104D01*
X135450057Y-64949342D01*
X135402438Y-64996961D01*
X135307200Y-65044580D01*
X135211961Y-65044580D01*
X135116723Y-64996961D01*
X135069104Y-64949342D01*
X135021485Y-64854104D01*
X134973866Y-64663628D01*
X134973866Y-64425533D01*
X135021485Y-64235057D01*
X135069104Y-64139819D01*
X135116723Y-64092200D01*
X135211961Y-64044580D01*
X125880952Y-54579542D02*
X125833333Y-54627161D01*
X125690476Y-54674780D01*
X125595238Y-54674780D01*
X125452380Y-54627161D01*
X125357142Y-54531923D01*
X125309523Y-54436685D01*
X125261904Y-54246209D01*
X125261904Y-54103352D01*
X125309523Y-53912876D01*
X125357142Y-53817638D01*
X125452380Y-53722400D01*
X125595238Y-53674780D01*
X125690476Y-53674780D01*
X125833333Y-53722400D01*
X125880952Y-53770019D01*
X126261904Y-53770019D02*
X126309523Y-53722400D01*
X126404761Y-53674780D01*
X126642857Y-53674780D01*
X126738095Y-53722400D01*
X126785714Y-53770019D01*
X126833333Y-53865257D01*
X126833333Y-53960495D01*
X126785714Y-54103352D01*
X126214285Y-54674780D01*
X126833333Y-54674780D01*
X127452380Y-53674780D02*
X127547619Y-53674780D01*
X127642857Y-53722400D01*
X127690476Y-53770019D01*
X127738095Y-53865257D01*
X127785714Y-54055733D01*
X127785714Y-54293828D01*
X127738095Y-54484304D01*
X127690476Y-54579542D01*
X127642857Y-54627161D01*
X127547619Y-54674780D01*
X127452380Y-54674780D01*
X127357142Y-54627161D01*
X127309523Y-54579542D01*
X127261904Y-54484304D01*
X127214285Y-54293828D01*
X127214285Y-54055733D01*
X127261904Y-53865257D01*
X127309523Y-53770019D01*
X127357142Y-53722400D01*
X127452380Y-53674780D01*
X128404761Y-53674780D02*
X128500000Y-53674780D01*
X128595238Y-53722400D01*
X128642857Y-53770019D01*
X128690476Y-53865257D01*
X128738095Y-54055733D01*
X128738095Y-54293828D01*
X128690476Y-54484304D01*
X128642857Y-54579542D01*
X128595238Y-54627161D01*
X128500000Y-54674780D01*
X128404761Y-54674780D01*
X128309523Y-54627161D01*
X128261904Y-54579542D01*
X128214285Y-54484304D01*
X128166666Y-54293828D01*
X128166666Y-54055733D01*
X128214285Y-53865257D01*
X128261904Y-53770019D01*
X128309523Y-53722400D01*
X128404761Y-53674780D01*
X106526152Y-57354742D02*
X106478533Y-57402361D01*
X106335676Y-57449980D01*
X106240438Y-57449980D01*
X106097580Y-57402361D01*
X106002342Y-57307123D01*
X105954723Y-57211885D01*
X105907104Y-57021409D01*
X105907104Y-56878552D01*
X105954723Y-56688076D01*
X106002342Y-56592838D01*
X106097580Y-56497600D01*
X106240438Y-56449980D01*
X106335676Y-56449980D01*
X106478533Y-56497600D01*
X106526152Y-56545219D01*
X106907104Y-56545219D02*
X106954723Y-56497600D01*
X107049961Y-56449980D01*
X107288057Y-56449980D01*
X107383295Y-56497600D01*
X107430914Y-56545219D01*
X107478533Y-56640457D01*
X107478533Y-56735695D01*
X107430914Y-56878552D01*
X106859485Y-57449980D01*
X107478533Y-57449980D01*
X108097580Y-56449980D02*
X108192819Y-56449980D01*
X108288057Y-56497600D01*
X108335676Y-56545219D01*
X108383295Y-56640457D01*
X108430914Y-56830933D01*
X108430914Y-57069028D01*
X108383295Y-57259504D01*
X108335676Y-57354742D01*
X108288057Y-57402361D01*
X108192819Y-57449980D01*
X108097580Y-57449980D01*
X108002342Y-57402361D01*
X107954723Y-57354742D01*
X107907104Y-57259504D01*
X107859485Y-57069028D01*
X107859485Y-56830933D01*
X107907104Y-56640457D01*
X107954723Y-56545219D01*
X108002342Y-56497600D01*
X108097580Y-56449980D01*
X109383295Y-57449980D02*
X108811866Y-57449980D01*
X109097580Y-57449980D02*
X109097580Y-56449980D01*
X109002342Y-56592838D01*
X108907104Y-56688076D01*
X108811866Y-56735695D01*
X162609304Y-78531980D02*
X162609304Y-77531980D01*
X162847400Y-77531980D01*
X162990257Y-77579600D01*
X163085495Y-77674838D01*
X163133114Y-77770076D01*
X163180733Y-77960552D01*
X163180733Y-78103409D01*
X163133114Y-78293885D01*
X163085495Y-78389123D01*
X162990257Y-78484361D01*
X162847400Y-78531980D01*
X162609304Y-78531980D01*
X164133114Y-78531980D02*
X163561685Y-78531980D01*
X163847400Y-78531980D02*
X163847400Y-77531980D01*
X163752161Y-77674838D01*
X163656923Y-77770076D01*
X163561685Y-77817695D01*
X176807904Y-78531980D02*
X176807904Y-77531980D01*
X177046000Y-77531980D01*
X177188857Y-77579600D01*
X177284095Y-77674838D01*
X177331714Y-77770076D01*
X177379333Y-77960552D01*
X177379333Y-78103409D01*
X177331714Y-78293885D01*
X177284095Y-78389123D01*
X177188857Y-78484361D01*
X177046000Y-78531980D01*
X176807904Y-78531980D01*
X177760285Y-77627219D02*
X177807904Y-77579600D01*
X177903142Y-77531980D01*
X178141238Y-77531980D01*
X178236476Y-77579600D01*
X178284095Y-77627219D01*
X178331714Y-77722457D01*
X178331714Y-77817695D01*
X178284095Y-77960552D01*
X177712666Y-78531980D01*
X178331714Y-78531980D01*
X191108104Y-78531980D02*
X191108104Y-77531980D01*
X191346200Y-77531980D01*
X191489057Y-77579600D01*
X191584295Y-77674838D01*
X191631914Y-77770076D01*
X191679533Y-77960552D01*
X191679533Y-78103409D01*
X191631914Y-78293885D01*
X191584295Y-78389123D01*
X191489057Y-78484361D01*
X191346200Y-78531980D01*
X191108104Y-78531980D01*
X192012866Y-77531980D02*
X192631914Y-77531980D01*
X192298580Y-77912933D01*
X192441438Y-77912933D01*
X192536676Y-77960552D01*
X192584295Y-78008171D01*
X192631914Y-78103409D01*
X192631914Y-78341504D01*
X192584295Y-78436742D01*
X192536676Y-78484361D01*
X192441438Y-78531980D01*
X192155723Y-78531980D01*
X192060485Y-78484361D01*
X192012866Y-78436742D01*
X206017904Y-78303380D02*
X206017904Y-77303380D01*
X206256000Y-77303380D01*
X206398857Y-77351000D01*
X206494095Y-77446238D01*
X206541714Y-77541476D01*
X206589333Y-77731952D01*
X206589333Y-77874809D01*
X206541714Y-78065285D01*
X206494095Y-78160523D01*
X206398857Y-78255761D01*
X206256000Y-78303380D01*
X206017904Y-78303380D01*
X207446476Y-77636714D02*
X207446476Y-78303380D01*
X207208380Y-77255761D02*
X206970285Y-77970047D01*
X207589333Y-77970047D01*
X182878504Y-82087980D02*
X182878504Y-81087980D01*
X183116600Y-81087980D01*
X183259457Y-81135600D01*
X183354695Y-81230838D01*
X183402314Y-81326076D01*
X183449933Y-81516552D01*
X183449933Y-81659409D01*
X183402314Y-81849885D01*
X183354695Y-81945123D01*
X183259457Y-82040361D01*
X183116600Y-82087980D01*
X182878504Y-82087980D01*
X184307076Y-81087980D02*
X184116600Y-81087980D01*
X184021361Y-81135600D01*
X183973742Y-81183219D01*
X183878504Y-81326076D01*
X183830885Y-81516552D01*
X183830885Y-81897504D01*
X183878504Y-81992742D01*
X183926123Y-82040361D01*
X184021361Y-82087980D01*
X184211838Y-82087980D01*
X184307076Y-82040361D01*
X184354695Y-81992742D01*
X184402314Y-81897504D01*
X184402314Y-81659409D01*
X184354695Y-81564171D01*
X184307076Y-81516552D01*
X184211838Y-81468933D01*
X184021361Y-81468933D01*
X183926123Y-81516552D01*
X183878504Y-81564171D01*
X183830885Y-81659409D01*
X154659104Y-82062580D02*
X154659104Y-81062580D01*
X154897200Y-81062580D01*
X155040057Y-81110200D01*
X155135295Y-81205438D01*
X155182914Y-81300676D01*
X155230533Y-81491152D01*
X155230533Y-81634009D01*
X155182914Y-81824485D01*
X155135295Y-81919723D01*
X155040057Y-82014961D01*
X154897200Y-82062580D01*
X154659104Y-82062580D01*
X155801961Y-81491152D02*
X155706723Y-81443533D01*
X155659104Y-81395914D01*
X155611485Y-81300676D01*
X155611485Y-81253057D01*
X155659104Y-81157819D01*
X155706723Y-81110200D01*
X155801961Y-81062580D01*
X155992438Y-81062580D01*
X156087676Y-81110200D01*
X156135295Y-81157819D01*
X156182914Y-81253057D01*
X156182914Y-81300676D01*
X156135295Y-81395914D01*
X156087676Y-81443533D01*
X155992438Y-81491152D01*
X155801961Y-81491152D01*
X155706723Y-81538771D01*
X155659104Y-81586390D01*
X155611485Y-81681628D01*
X155611485Y-81872104D01*
X155659104Y-81967342D01*
X155706723Y-82014961D01*
X155801961Y-82062580D01*
X155992438Y-82062580D01*
X156087676Y-82014961D01*
X156135295Y-81967342D01*
X156182914Y-81872104D01*
X156182914Y-81681628D01*
X156135295Y-81586390D01*
X156087676Y-81538771D01*
X155992438Y-81491152D01*
X137933323Y-61183780D02*
X137933323Y-60183780D01*
X138171419Y-60183780D01*
X138314276Y-60231400D01*
X138409514Y-60326638D01*
X138457133Y-60421876D01*
X138504752Y-60612352D01*
X138504752Y-60755209D01*
X138457133Y-60945685D01*
X138409514Y-61040923D01*
X138314276Y-61136161D01*
X138171419Y-61183780D01*
X137933323Y-61183780D01*
X139457133Y-61183780D02*
X138885704Y-61183780D01*
X139171419Y-61183780D02*
X139171419Y-60183780D01*
X139076180Y-60326638D01*
X138980942Y-60421876D01*
X138885704Y-60469495D01*
X140076180Y-60183780D02*
X140171419Y-60183780D01*
X140266657Y-60231400D01*
X140314276Y-60279019D01*
X140361895Y-60374257D01*
X140409514Y-60564733D01*
X140409514Y-60802828D01*
X140361895Y-60993304D01*
X140314276Y-61088542D01*
X140266657Y-61136161D01*
X140171419Y-61183780D01*
X140076180Y-61183780D01*
X139980942Y-61136161D01*
X139933323Y-61088542D01*
X139885704Y-60993304D01*
X139838085Y-60802828D01*
X139838085Y-60564733D01*
X139885704Y-60374257D01*
X139933323Y-60279019D01*
X139980942Y-60231400D01*
X140076180Y-60183780D01*
X141028561Y-60183780D02*
X141123800Y-60183780D01*
X141219038Y-60231400D01*
X141266657Y-60279019D01*
X141314276Y-60374257D01*
X141361895Y-60564733D01*
X141361895Y-60802828D01*
X141314276Y-60993304D01*
X141266657Y-61088542D01*
X141219038Y-61136161D01*
X141123800Y-61183780D01*
X141028561Y-61183780D01*
X140933323Y-61136161D01*
X140885704Y-61088542D01*
X140838085Y-60993304D01*
X140790466Y-60802828D01*
X140790466Y-60564733D01*
X140838085Y-60374257D01*
X140885704Y-60279019D01*
X140933323Y-60231400D01*
X141028561Y-60183780D01*
X109443780Y-65317476D02*
X108443780Y-65317476D01*
X108443780Y-65079380D01*
X108491400Y-64936523D01*
X108586638Y-64841285D01*
X108681876Y-64793666D01*
X108872352Y-64746047D01*
X109015209Y-64746047D01*
X109205685Y-64793666D01*
X109300923Y-64841285D01*
X109396161Y-64936523D01*
X109443780Y-65079380D01*
X109443780Y-65317476D01*
X108539019Y-64365095D02*
X108491400Y-64317476D01*
X108443780Y-64222238D01*
X108443780Y-63984142D01*
X108491400Y-63888904D01*
X108539019Y-63841285D01*
X108634257Y-63793666D01*
X108729495Y-63793666D01*
X108872352Y-63841285D01*
X109443780Y-64412714D01*
X109443780Y-63793666D01*
X108443780Y-63174619D02*
X108443780Y-63079380D01*
X108491400Y-62984142D01*
X108539019Y-62936523D01*
X108634257Y-62888904D01*
X108824733Y-62841285D01*
X109062828Y-62841285D01*
X109253304Y-62888904D01*
X109348542Y-62936523D01*
X109396161Y-62984142D01*
X109443780Y-63079380D01*
X109443780Y-63174619D01*
X109396161Y-63269857D01*
X109348542Y-63317476D01*
X109253304Y-63365095D01*
X109062828Y-63412714D01*
X108824733Y-63412714D01*
X108634257Y-63365095D01*
X108539019Y-63317476D01*
X108491400Y-63269857D01*
X108443780Y-63174619D01*
X108443780Y-62222238D02*
X108443780Y-62127000D01*
X108491400Y-62031761D01*
X108539019Y-61984142D01*
X108634257Y-61936523D01*
X108824733Y-61888904D01*
X109062828Y-61888904D01*
X109253304Y-61936523D01*
X109348542Y-61984142D01*
X109396161Y-62031761D01*
X109443780Y-62127000D01*
X109443780Y-62222238D01*
X109396161Y-62317476D01*
X109348542Y-62365095D01*
X109253304Y-62412714D01*
X109062828Y-62460333D01*
X108824733Y-62460333D01*
X108634257Y-62412714D01*
X108539019Y-62365095D01*
X108491400Y-62317476D01*
X108443780Y-62222238D01*
X123885485Y-63200971D02*
X123552152Y-63200971D01*
X123552152Y-63724780D02*
X123552152Y-62724780D01*
X124028342Y-62724780D01*
X124361676Y-62820019D02*
X124409295Y-62772400D01*
X124504533Y-62724780D01*
X124742628Y-62724780D01*
X124837866Y-62772400D01*
X124885485Y-62820019D01*
X124933104Y-62915257D01*
X124933104Y-63010495D01*
X124885485Y-63153352D01*
X124314057Y-63724780D01*
X124933104Y-63724780D01*
X125552152Y-62724780D02*
X125647390Y-62724780D01*
X125742628Y-62772400D01*
X125790247Y-62820019D01*
X125837866Y-62915257D01*
X125885485Y-63105733D01*
X125885485Y-63343828D01*
X125837866Y-63534304D01*
X125790247Y-63629542D01*
X125742628Y-63677161D01*
X125647390Y-63724780D01*
X125552152Y-63724780D01*
X125456914Y-63677161D01*
X125409295Y-63629542D01*
X125361676Y-63534304D01*
X125314057Y-63343828D01*
X125314057Y-63105733D01*
X125361676Y-62915257D01*
X125409295Y-62820019D01*
X125456914Y-62772400D01*
X125552152Y-62724780D01*
X126504533Y-62724780D02*
X126599771Y-62724780D01*
X126695009Y-62772400D01*
X126742628Y-62820019D01*
X126790247Y-62915257D01*
X126837866Y-63105733D01*
X126837866Y-63343828D01*
X126790247Y-63534304D01*
X126742628Y-63629542D01*
X126695009Y-63677161D01*
X126599771Y-63724780D01*
X126504533Y-63724780D01*
X126409295Y-63677161D01*
X126361676Y-63629542D01*
X126314057Y-63534304D01*
X126266438Y-63343828D01*
X126266438Y-63105733D01*
X126314057Y-62915257D01*
X126361676Y-62820019D01*
X126409295Y-62772400D01*
X126504533Y-62724780D01*
X99822095Y-75636380D02*
X99822095Y-74636380D01*
X99822095Y-75112571D02*
X100393523Y-75112571D01*
X100393523Y-75636380D02*
X100393523Y-74636380D01*
X101393523Y-75636380D02*
X100822095Y-75636380D01*
X101107809Y-75636380D02*
X101107809Y-74636380D01*
X101012571Y-74779238D01*
X100917333Y-74874476D01*
X100822095Y-74922095D01*
X211810695Y-112025580D02*
X211810695Y-111025580D01*
X211810695Y-111501771D02*
X212382123Y-111501771D01*
X212382123Y-112025580D02*
X212382123Y-111025580D01*
X212763076Y-111025580D02*
X213382123Y-111025580D01*
X213048790Y-111406533D01*
X213191647Y-111406533D01*
X213286885Y-111454152D01*
X213334504Y-111501771D01*
X213382123Y-111597009D01*
X213382123Y-111835104D01*
X213334504Y-111930342D01*
X213286885Y-111977961D01*
X213191647Y-112025580D01*
X212905933Y-112025580D01*
X212810695Y-111977961D01*
X212763076Y-111930342D01*
X105464076Y-73518780D02*
X105464076Y-74233066D01*
X105416457Y-74375923D01*
X105321219Y-74471161D01*
X105178361Y-74518780D01*
X105083123Y-74518780D01*
X106464076Y-74518780D02*
X105892647Y-74518780D01*
X106178361Y-74518780D02*
X106178361Y-73518780D01*
X106083123Y-73661638D01*
X105987885Y-73756876D01*
X105892647Y-73804495D01*
X107083123Y-73518780D02*
X107178361Y-73518780D01*
X107273600Y-73566400D01*
X107321219Y-73614019D01*
X107368838Y-73709257D01*
X107416457Y-73899733D01*
X107416457Y-74137828D01*
X107368838Y-74328304D01*
X107321219Y-74423542D01*
X107273600Y-74471161D01*
X107178361Y-74518780D01*
X107083123Y-74518780D01*
X106987885Y-74471161D01*
X106940266Y-74423542D01*
X106892647Y-74328304D01*
X106845028Y-74137828D01*
X106845028Y-73899733D01*
X106892647Y-73709257D01*
X106940266Y-73614019D01*
X106987885Y-73566400D01*
X107083123Y-73518780D01*
D11*
X106413809Y-79902104D02*
X106032857Y-79902104D01*
X105994761Y-80283057D01*
X106032857Y-80244961D01*
X106109047Y-80206866D01*
X106299523Y-80206866D01*
X106375714Y-80244961D01*
X106413809Y-80283057D01*
X106451904Y-80359247D01*
X106451904Y-80549723D01*
X106413809Y-80625914D01*
X106375714Y-80664009D01*
X106299523Y-80702104D01*
X106109047Y-80702104D01*
X106032857Y-80664009D01*
X105994761Y-80625914D01*
X106680476Y-79902104D02*
X106947142Y-80702104D01*
X107213809Y-79902104D01*
X107747142Y-80283057D02*
X107480476Y-80283057D01*
X107480476Y-80702104D02*
X107480476Y-79902104D01*
X107861428Y-79902104D01*
X108166190Y-80397342D02*
X108775714Y-80397342D01*
X109156666Y-80702104D02*
X109156666Y-79902104D01*
X109690000Y-79902104D02*
X109842380Y-79902104D01*
X109918571Y-79940200D01*
X109994761Y-80016390D01*
X110032857Y-80168771D01*
X110032857Y-80435438D01*
X109994761Y-80587819D01*
X109918571Y-80664009D01*
X109842380Y-80702104D01*
X109690000Y-80702104D01*
X109613809Y-80664009D01*
X109537619Y-80587819D01*
X109499523Y-80435438D01*
X109499523Y-80168771D01*
X109537619Y-80016390D01*
X109613809Y-79940200D01*
X109690000Y-79902104D01*
X110299523Y-79902104D02*
X110794761Y-79902104D01*
X110528095Y-80206866D01*
X110642380Y-80206866D01*
X110718571Y-80244961D01*
X110756666Y-80283057D01*
X110794761Y-80359247D01*
X110794761Y-80549723D01*
X110756666Y-80625914D01*
X110718571Y-80664009D01*
X110642380Y-80702104D01*
X110413809Y-80702104D01*
X110337619Y-80664009D01*
X110299523Y-80625914D01*
X111099523Y-79978295D02*
X111137619Y-79940200D01*
X111213809Y-79902104D01*
X111404285Y-79902104D01*
X111480476Y-79940200D01*
X111518571Y-79978295D01*
X111556666Y-80054485D01*
X111556666Y-80130676D01*
X111518571Y-80244961D01*
X111061428Y-80702104D01*
X111556666Y-80702104D01*
X111899523Y-80397342D02*
X112509047Y-80397342D01*
X113309047Y-79940200D02*
X113232857Y-79902104D01*
X113118571Y-79902104D01*
X113004285Y-79940200D01*
X112928095Y-80016390D01*
X112890000Y-80092580D01*
X112851904Y-80244961D01*
X112851904Y-80359247D01*
X112890000Y-80511628D01*
X112928095Y-80587819D01*
X113004285Y-80664009D01*
X113118571Y-80702104D01*
X113194761Y-80702104D01*
X113309047Y-80664009D01*
X113347142Y-80625914D01*
X113347142Y-80359247D01*
X113194761Y-80359247D01*
X113690000Y-80702104D02*
X113690000Y-79902104D01*
X114147142Y-80702104D01*
X114147142Y-79902104D01*
X114528095Y-80702104D02*
X114528095Y-79902104D01*
X114718571Y-79902104D01*
X114832857Y-79940200D01*
X114909047Y-80016390D01*
X114947142Y-80092580D01*
X114985238Y-80244961D01*
X114985238Y-80359247D01*
X114947142Y-80511628D01*
X114909047Y-80587819D01*
X114832857Y-80664009D01*
X114718571Y-80702104D01*
X114528095Y-80702104D01*
D10*
X145713876Y-110571380D02*
X145713876Y-111285666D01*
X145666257Y-111428523D01*
X145571019Y-111523761D01*
X145428161Y-111571380D01*
X145332923Y-111571380D01*
X146142447Y-110666619D02*
X146190066Y-110619000D01*
X146285304Y-110571380D01*
X146523400Y-110571380D01*
X146618638Y-110619000D01*
X146666257Y-110666619D01*
X146713876Y-110761857D01*
X146713876Y-110857095D01*
X146666257Y-110999952D01*
X146094828Y-111571380D01*
X146713876Y-111571380D01*
X147332923Y-110571380D02*
X147428161Y-110571380D01*
X147523400Y-110619000D01*
X147571019Y-110666619D01*
X147618638Y-110761857D01*
X147666257Y-110952333D01*
X147666257Y-111190428D01*
X147618638Y-111380904D01*
X147571019Y-111476142D01*
X147523400Y-111523761D01*
X147428161Y-111571380D01*
X147332923Y-111571380D01*
X147237685Y-111523761D01*
X147190066Y-111476142D01*
X147142447Y-111380904D01*
X147094828Y-111190428D01*
X147094828Y-110952333D01*
X147142447Y-110761857D01*
X147190066Y-110666619D01*
X147237685Y-110619000D01*
X147332923Y-110571380D01*
D11*
X139894828Y-117680904D02*
X139894828Y-116880904D01*
X140428161Y-116880904D02*
X140580542Y-116880904D01*
X140656733Y-116919000D01*
X140732923Y-116995190D01*
X140771019Y-117147571D01*
X140771019Y-117414238D01*
X140732923Y-117566619D01*
X140656733Y-117642809D01*
X140580542Y-117680904D01*
X140428161Y-117680904D01*
X140351971Y-117642809D01*
X140275780Y-117566619D01*
X140237685Y-117414238D01*
X140237685Y-117147571D01*
X140275780Y-116995190D01*
X140351971Y-116919000D01*
X140428161Y-116880904D01*
X141266257Y-116880904D02*
X141342447Y-116880904D01*
X141418638Y-116919000D01*
X141456733Y-116957095D01*
X141494828Y-117033285D01*
X141532923Y-117185666D01*
X141532923Y-117376142D01*
X141494828Y-117528523D01*
X141456733Y-117604714D01*
X141418638Y-117642809D01*
X141342447Y-117680904D01*
X141266257Y-117680904D01*
X141190066Y-117642809D01*
X141151971Y-117604714D01*
X141113876Y-117528523D01*
X141075780Y-117376142D01*
X141075780Y-117185666D01*
X141113876Y-117033285D01*
X141151971Y-116957095D01*
X141190066Y-116919000D01*
X141266257Y-116880904D01*
X142256733Y-116880904D02*
X141875780Y-116880904D01*
X141837685Y-117261857D01*
X141875780Y-117223761D01*
X141951971Y-117185666D01*
X142142447Y-117185666D01*
X142218638Y-117223761D01*
X142256733Y-117261857D01*
X142294828Y-117338047D01*
X142294828Y-117528523D01*
X142256733Y-117604714D01*
X142218638Y-117642809D01*
X142142447Y-117680904D01*
X141951971Y-117680904D01*
X141875780Y-117642809D01*
X141837685Y-117604714D01*
X142637685Y-117376142D02*
X143247209Y-117376142D01*
X143628161Y-117680904D02*
X143628161Y-116880904D01*
X144161495Y-116880904D02*
X144313876Y-116880904D01*
X144390066Y-116919000D01*
X144466257Y-116995190D01*
X144504352Y-117147571D01*
X144504352Y-117414238D01*
X144466257Y-117566619D01*
X144390066Y-117642809D01*
X144313876Y-117680904D01*
X144161495Y-117680904D01*
X144085304Y-117642809D01*
X144009114Y-117566619D01*
X143971019Y-117414238D01*
X143971019Y-117147571D01*
X144009114Y-116995190D01*
X144085304Y-116919000D01*
X144161495Y-116880904D01*
X144809114Y-116957095D02*
X144847209Y-116919000D01*
X144923400Y-116880904D01*
X145113876Y-116880904D01*
X145190066Y-116919000D01*
X145228161Y-116957095D01*
X145266257Y-117033285D01*
X145266257Y-117109476D01*
X145228161Y-117223761D01*
X144771019Y-117680904D01*
X145266257Y-117680904D01*
X145951971Y-116880904D02*
X145799590Y-116880904D01*
X145723400Y-116919000D01*
X145685304Y-116957095D01*
X145609114Y-117071380D01*
X145571019Y-117223761D01*
X145571019Y-117528523D01*
X145609114Y-117604714D01*
X145647209Y-117642809D01*
X145723400Y-117680904D01*
X145875780Y-117680904D01*
X145951971Y-117642809D01*
X145990066Y-117604714D01*
X146028161Y-117528523D01*
X146028161Y-117338047D01*
X145990066Y-117261857D01*
X145951971Y-117223761D01*
X145875780Y-117185666D01*
X145723400Y-117185666D01*
X145647209Y-117223761D01*
X145609114Y-117261857D01*
X145571019Y-117338047D01*
X146371019Y-117376142D02*
X146980542Y-117376142D01*
X147361495Y-117680904D02*
X147361495Y-116880904D01*
X147894828Y-116880904D02*
X148047209Y-116880904D01*
X148123400Y-116919000D01*
X148199590Y-116995190D01*
X148237685Y-117147571D01*
X148237685Y-117414238D01*
X148199590Y-117566619D01*
X148123400Y-117642809D01*
X148047209Y-117680904D01*
X147894828Y-117680904D01*
X147818638Y-117642809D01*
X147742447Y-117566619D01*
X147704352Y-117414238D01*
X147704352Y-117147571D01*
X147742447Y-116995190D01*
X147818638Y-116919000D01*
X147894828Y-116880904D01*
X148542447Y-116957095D02*
X148580542Y-116919000D01*
X148656733Y-116880904D01*
X148847209Y-116880904D01*
X148923400Y-116919000D01*
X148961495Y-116957095D01*
X148999590Y-117033285D01*
X148999590Y-117109476D01*
X148961495Y-117223761D01*
X148504352Y-117680904D01*
X148999590Y-117680904D01*
X149266257Y-116880904D02*
X149799590Y-116880904D01*
X149456733Y-117680904D01*
X150104352Y-117376142D02*
X150713876Y-117376142D01*
X151513876Y-116919000D02*
X151437685Y-116880904D01*
X151323400Y-116880904D01*
X151209114Y-116919000D01*
X151132923Y-116995190D01*
X151094828Y-117071380D01*
X151056733Y-117223761D01*
X151056733Y-117338047D01*
X151094828Y-117490428D01*
X151132923Y-117566619D01*
X151209114Y-117642809D01*
X151323400Y-117680904D01*
X151399590Y-117680904D01*
X151513876Y-117642809D01*
X151551971Y-117604714D01*
X151551971Y-117338047D01*
X151399590Y-117338047D01*
X151894828Y-117680904D02*
X151894828Y-116880904D01*
X152351971Y-117680904D01*
X152351971Y-116880904D01*
X152732923Y-117680904D02*
X152732923Y-116880904D01*
X152923400Y-116880904D01*
X153037685Y-116919000D01*
X153113876Y-116995190D01*
X153151971Y-117071380D01*
X153190066Y-117223761D01*
X153190066Y-117338047D01*
X153151971Y-117490428D01*
X153113876Y-117566619D01*
X153037685Y-117642809D01*
X152923400Y-117680904D01*
X152732923Y-117680904D01*
D10*
X142751276Y-84726980D02*
X142751276Y-85441266D01*
X142703657Y-85584123D01*
X142608419Y-85679361D01*
X142465561Y-85726980D01*
X142370323Y-85726980D01*
X143656038Y-84726980D02*
X143465561Y-84726980D01*
X143370323Y-84774600D01*
X143322704Y-84822219D01*
X143227466Y-84965076D01*
X143179847Y-85155552D01*
X143179847Y-85536504D01*
X143227466Y-85631742D01*
X143275085Y-85679361D01*
X143370323Y-85726980D01*
X143560800Y-85726980D01*
X143656038Y-85679361D01*
X143703657Y-85631742D01*
X143751276Y-85536504D01*
X143751276Y-85298409D01*
X143703657Y-85203171D01*
X143656038Y-85155552D01*
X143560800Y-85107933D01*
X143370323Y-85107933D01*
X143275085Y-85155552D01*
X143227466Y-85203171D01*
X143179847Y-85298409D01*
X144703657Y-85726980D02*
X144132228Y-85726980D01*
X144417942Y-85726980D02*
X144417942Y-84726980D01*
X144322704Y-84869838D01*
X144227466Y-84965076D01*
X144132228Y-85012695D01*
D11*
X142951276Y-89947800D02*
X142875085Y-89909704D01*
X142760800Y-89909704D01*
X142646514Y-89947800D01*
X142570323Y-90023990D01*
X142532228Y-90100180D01*
X142494133Y-90252561D01*
X142494133Y-90366847D01*
X142532228Y-90519228D01*
X142570323Y-90595419D01*
X142646514Y-90671609D01*
X142760800Y-90709704D01*
X142836990Y-90709704D01*
X142951276Y-90671609D01*
X142989371Y-90633514D01*
X142989371Y-90366847D01*
X142836990Y-90366847D01*
X143332228Y-90709704D02*
X143332228Y-89909704D01*
X143789371Y-90709704D01*
X143789371Y-89909704D01*
X144170323Y-90709704D02*
X144170323Y-89909704D01*
X144360800Y-89909704D01*
X144475085Y-89947800D01*
X144551276Y-90023990D01*
X144589371Y-90100180D01*
X144627466Y-90252561D01*
X144627466Y-90366847D01*
X144589371Y-90519228D01*
X144551276Y-90595419D01*
X144475085Y-90671609D01*
X144360800Y-90709704D01*
X144170323Y-90709704D01*
D10*
X142649676Y-103548380D02*
X142649676Y-104262666D01*
X142602057Y-104405523D01*
X142506819Y-104500761D01*
X142363961Y-104548380D01*
X142268723Y-104548380D01*
X143554438Y-103548380D02*
X143363961Y-103548380D01*
X143268723Y-103596000D01*
X143221104Y-103643619D01*
X143125866Y-103786476D01*
X143078247Y-103976952D01*
X143078247Y-104357904D01*
X143125866Y-104453142D01*
X143173485Y-104500761D01*
X143268723Y-104548380D01*
X143459200Y-104548380D01*
X143554438Y-104500761D01*
X143602057Y-104453142D01*
X143649676Y-104357904D01*
X143649676Y-104119809D01*
X143602057Y-104024571D01*
X143554438Y-103976952D01*
X143459200Y-103929333D01*
X143268723Y-103929333D01*
X143173485Y-103976952D01*
X143125866Y-104024571D01*
X143078247Y-104119809D01*
X144030628Y-103643619D02*
X144078247Y-103596000D01*
X144173485Y-103548380D01*
X144411580Y-103548380D01*
X144506819Y-103596000D01*
X144554438Y-103643619D01*
X144602057Y-103738857D01*
X144602057Y-103834095D01*
X144554438Y-103976952D01*
X143983009Y-104548380D01*
X144602057Y-104548380D01*
D11*
X142824276Y-108667600D02*
X142748085Y-108629504D01*
X142633800Y-108629504D01*
X142519514Y-108667600D01*
X142443323Y-108743790D01*
X142405228Y-108819980D01*
X142367133Y-108972361D01*
X142367133Y-109086647D01*
X142405228Y-109239028D01*
X142443323Y-109315219D01*
X142519514Y-109391409D01*
X142633800Y-109429504D01*
X142709990Y-109429504D01*
X142824276Y-109391409D01*
X142862371Y-109353314D01*
X142862371Y-109086647D01*
X142709990Y-109086647D01*
X143205228Y-109429504D02*
X143205228Y-108629504D01*
X143662371Y-109429504D01*
X143662371Y-108629504D01*
X144043323Y-109429504D02*
X144043323Y-108629504D01*
X144233800Y-108629504D01*
X144348085Y-108667600D01*
X144424276Y-108743790D01*
X144462371Y-108819980D01*
X144500466Y-108972361D01*
X144500466Y-109086647D01*
X144462371Y-109239028D01*
X144424276Y-109315219D01*
X144348085Y-109391409D01*
X144233800Y-109429504D01*
X144043323Y-109429504D01*
D10*
X209381885Y-77023980D02*
X209381885Y-77738266D01*
X209334266Y-77881123D01*
X209239028Y-77976361D01*
X209096171Y-78023980D01*
X209000933Y-78023980D01*
X210381885Y-78023980D02*
X209810457Y-78023980D01*
X210096171Y-78023980D02*
X210096171Y-77023980D01*
X210000933Y-77166838D01*
X209905695Y-77262076D01*
X209810457Y-77309695D01*
X211000933Y-77023980D02*
X211096171Y-77023980D01*
X211191409Y-77071600D01*
X211239028Y-77119219D01*
X211286647Y-77214457D01*
X211334266Y-77404933D01*
X211334266Y-77643028D01*
X211286647Y-77833504D01*
X211239028Y-77928742D01*
X211191409Y-77976361D01*
X211096171Y-78023980D01*
X211000933Y-78023980D01*
X210905695Y-77976361D01*
X210858076Y-77928742D01*
X210810457Y-77833504D01*
X210762838Y-77643028D01*
X210762838Y-77404933D01*
X210810457Y-77214457D01*
X210858076Y-77119219D01*
X210905695Y-77071600D01*
X211000933Y-77023980D01*
X212286647Y-78023980D02*
X211715219Y-78023980D01*
X212000933Y-78023980D02*
X212000933Y-77023980D01*
X211905695Y-77166838D01*
X211810457Y-77262076D01*
X211715219Y-77309695D01*
X113293685Y-55713380D02*
X113293685Y-56427666D01*
X113246066Y-56570523D01*
X113150828Y-56665761D01*
X113007971Y-56713380D01*
X112912733Y-56713380D01*
X113722257Y-55808619D02*
X113769876Y-55761000D01*
X113865114Y-55713380D01*
X114103209Y-55713380D01*
X114198447Y-55761000D01*
X114246066Y-55808619D01*
X114293685Y-55903857D01*
X114293685Y-55999095D01*
X114246066Y-56141952D01*
X113674638Y-56713380D01*
X114293685Y-56713380D01*
X114912733Y-55713380D02*
X115007971Y-55713380D01*
X115103209Y-55761000D01*
X115150828Y-55808619D01*
X115198447Y-55903857D01*
X115246066Y-56094333D01*
X115246066Y-56332428D01*
X115198447Y-56522904D01*
X115150828Y-56618142D01*
X115103209Y-56665761D01*
X115007971Y-56713380D01*
X114912733Y-56713380D01*
X114817495Y-56665761D01*
X114769876Y-56618142D01*
X114722257Y-56522904D01*
X114674638Y-56332428D01*
X114674638Y-56094333D01*
X114722257Y-55903857D01*
X114769876Y-55808619D01*
X114817495Y-55761000D01*
X114912733Y-55713380D01*
X115865114Y-55713380D02*
X115960352Y-55713380D01*
X116055590Y-55761000D01*
X116103209Y-55808619D01*
X116150828Y-55903857D01*
X116198447Y-56094333D01*
X116198447Y-56332428D01*
X116150828Y-56522904D01*
X116103209Y-56618142D01*
X116055590Y-56665761D01*
X115960352Y-56713380D01*
X115865114Y-56713380D01*
X115769876Y-56665761D01*
X115722257Y-56618142D01*
X115674638Y-56522904D01*
X115627019Y-56332428D01*
X115627019Y-56094333D01*
X115674638Y-55903857D01*
X115722257Y-55808619D01*
X115769876Y-55761000D01*
X115865114Y-55713380D01*
X152995333Y-55189380D02*
X152519142Y-55189380D01*
X152519142Y-54189380D01*
X153852476Y-55189380D02*
X153281047Y-55189380D01*
X153566761Y-55189380D02*
X153566761Y-54189380D01*
X153471523Y-54332238D01*
X153376285Y-54427476D01*
X153281047Y-54475095D01*
X167219333Y-55189380D02*
X166743142Y-55189380D01*
X166743142Y-54189380D01*
X167505047Y-54284619D02*
X167552666Y-54237000D01*
X167647904Y-54189380D01*
X167886000Y-54189380D01*
X167981238Y-54237000D01*
X168028857Y-54284619D01*
X168076476Y-54379857D01*
X168076476Y-54475095D01*
X168028857Y-54617952D01*
X167457428Y-55189380D01*
X168076476Y-55189380D01*
X181443333Y-55189380D02*
X180967142Y-55189380D01*
X180967142Y-54189380D01*
X181681428Y-54189380D02*
X182300476Y-54189380D01*
X181967142Y-54570333D01*
X182110000Y-54570333D01*
X182205238Y-54617952D01*
X182252857Y-54665571D01*
X182300476Y-54760809D01*
X182300476Y-54998904D01*
X182252857Y-55094142D01*
X182205238Y-55141761D01*
X182110000Y-55189380D01*
X181824285Y-55189380D01*
X181729047Y-55141761D01*
X181681428Y-55094142D01*
X195921333Y-55189380D02*
X195445142Y-55189380D01*
X195445142Y-54189380D01*
X196683238Y-54522714D02*
X196683238Y-55189380D01*
X196445142Y-54141761D02*
X196207047Y-54856047D01*
X196826095Y-54856047D01*
X209002333Y-105227380D02*
X208526142Y-105227380D01*
X208526142Y-104227380D01*
X209811857Y-104227380D02*
X209335666Y-104227380D01*
X209288047Y-104703571D01*
X209335666Y-104655952D01*
X209430904Y-104608333D01*
X209669000Y-104608333D01*
X209764238Y-104655952D01*
X209811857Y-104703571D01*
X209859476Y-104798809D01*
X209859476Y-105036904D01*
X209811857Y-105132142D01*
X209764238Y-105179761D01*
X209669000Y-105227380D01*
X209430904Y-105227380D01*
X209335666Y-105179761D01*
X209288047Y-105132142D01*
X194778333Y-105227380D02*
X194302142Y-105227380D01*
X194302142Y-104227380D01*
X195540238Y-104227380D02*
X195349761Y-104227380D01*
X195254523Y-104275000D01*
X195206904Y-104322619D01*
X195111666Y-104465476D01*
X195064047Y-104655952D01*
X195064047Y-105036904D01*
X195111666Y-105132142D01*
X195159285Y-105179761D01*
X195254523Y-105227380D01*
X195445000Y-105227380D01*
X195540238Y-105179761D01*
X195587857Y-105132142D01*
X195635476Y-105036904D01*
X195635476Y-104798809D01*
X195587857Y-104703571D01*
X195540238Y-104655952D01*
X195445000Y-104608333D01*
X195254523Y-104608333D01*
X195159285Y-104655952D01*
X195111666Y-104703571D01*
X195064047Y-104798809D01*
X166584333Y-105227380D02*
X166108142Y-105227380D01*
X166108142Y-104227380D01*
X167060523Y-104655952D02*
X166965285Y-104608333D01*
X166917666Y-104560714D01*
X166870047Y-104465476D01*
X166870047Y-104417857D01*
X166917666Y-104322619D01*
X166965285Y-104275000D01*
X167060523Y-104227380D01*
X167251000Y-104227380D01*
X167346238Y-104275000D01*
X167393857Y-104322619D01*
X167441476Y-104417857D01*
X167441476Y-104465476D01*
X167393857Y-104560714D01*
X167346238Y-104608333D01*
X167251000Y-104655952D01*
X167060523Y-104655952D01*
X166965285Y-104703571D01*
X166917666Y-104751190D01*
X166870047Y-104846428D01*
X166870047Y-105036904D01*
X166917666Y-105132142D01*
X166965285Y-105179761D01*
X167060523Y-105227380D01*
X167251000Y-105227380D01*
X167346238Y-105179761D01*
X167393857Y-105132142D01*
X167441476Y-105036904D01*
X167441476Y-104846428D01*
X167393857Y-104751190D01*
X167346238Y-104703571D01*
X167251000Y-104655952D01*
X139363580Y-54291219D02*
X139268342Y-54243600D01*
X139173104Y-54148361D01*
X139030247Y-54005504D01*
X138935009Y-53957885D01*
X138839771Y-53957885D01*
X138887390Y-54195980D02*
X138792152Y-54148361D01*
X138696914Y-54053123D01*
X138649295Y-53862647D01*
X138649295Y-53529314D01*
X138696914Y-53338838D01*
X138792152Y-53243600D01*
X138887390Y-53195980D01*
X139077866Y-53195980D01*
X139173104Y-53243600D01*
X139268342Y-53338838D01*
X139315961Y-53529314D01*
X139315961Y-53862647D01*
X139268342Y-54053123D01*
X139173104Y-54148361D01*
X139077866Y-54195980D01*
X138887390Y-54195980D01*
X140268342Y-54195980D02*
X139696914Y-54195980D01*
X139982628Y-54195980D02*
X139982628Y-53195980D01*
X139887390Y-53338838D01*
X139792152Y-53434076D01*
X139696914Y-53481695D01*
X140887390Y-53195980D02*
X140982628Y-53195980D01*
X141077866Y-53243600D01*
X141125485Y-53291219D01*
X141173104Y-53386457D01*
X141220723Y-53576933D01*
X141220723Y-53815028D01*
X141173104Y-54005504D01*
X141125485Y-54100742D01*
X141077866Y-54148361D01*
X140982628Y-54195980D01*
X140887390Y-54195980D01*
X140792152Y-54148361D01*
X140744533Y-54100742D01*
X140696914Y-54005504D01*
X140649295Y-53815028D01*
X140649295Y-53576933D01*
X140696914Y-53386457D01*
X140744533Y-53291219D01*
X140792152Y-53243600D01*
X140887390Y-53195980D01*
X141839771Y-53195980D02*
X141935009Y-53195980D01*
X142030247Y-53243600D01*
X142077866Y-53291219D01*
X142125485Y-53386457D01*
X142173104Y-53576933D01*
X142173104Y-53815028D01*
X142125485Y-54005504D01*
X142077866Y-54100742D01*
X142030247Y-54148361D01*
X141935009Y-54195980D01*
X141839771Y-54195980D01*
X141744533Y-54148361D01*
X141696914Y-54100742D01*
X141649295Y-54005504D01*
X141601676Y-53815028D01*
X141601676Y-53576933D01*
X141649295Y-53386457D01*
X141696914Y-53291219D01*
X141744533Y-53243600D01*
X141839771Y-53195980D01*
X153503333Y-76525380D02*
X153170000Y-76049190D01*
X152931904Y-76525380D02*
X152931904Y-75525380D01*
X153312857Y-75525380D01*
X153408095Y-75573000D01*
X153455714Y-75620619D01*
X153503333Y-75715857D01*
X153503333Y-75858714D01*
X153455714Y-75953952D01*
X153408095Y-76001571D01*
X153312857Y-76049190D01*
X152931904Y-76049190D01*
X154455714Y-76525380D02*
X153884285Y-76525380D01*
X154170000Y-76525380D02*
X154170000Y-75525380D01*
X154074761Y-75668238D01*
X153979523Y-75763476D01*
X153884285Y-75811095D01*
X167676533Y-76576180D02*
X167343200Y-76099990D01*
X167105104Y-76576180D02*
X167105104Y-75576180D01*
X167486057Y-75576180D01*
X167581295Y-75623800D01*
X167628914Y-75671419D01*
X167676533Y-75766657D01*
X167676533Y-75909514D01*
X167628914Y-76004752D01*
X167581295Y-76052371D01*
X167486057Y-76099990D01*
X167105104Y-76099990D01*
X168057485Y-75671419D02*
X168105104Y-75623800D01*
X168200342Y-75576180D01*
X168438438Y-75576180D01*
X168533676Y-75623800D01*
X168581295Y-75671419D01*
X168628914Y-75766657D01*
X168628914Y-75861895D01*
X168581295Y-76004752D01*
X168009866Y-76576180D01*
X168628914Y-76576180D01*
X182052933Y-76576180D02*
X181719600Y-76099990D01*
X181481504Y-76576180D02*
X181481504Y-75576180D01*
X181862457Y-75576180D01*
X181957695Y-75623800D01*
X182005314Y-75671419D01*
X182052933Y-75766657D01*
X182052933Y-75909514D01*
X182005314Y-76004752D01*
X181957695Y-76052371D01*
X181862457Y-76099990D01*
X181481504Y-76099990D01*
X182386266Y-75576180D02*
X183005314Y-75576180D01*
X182671980Y-75957133D01*
X182814838Y-75957133D01*
X182910076Y-76004752D01*
X182957695Y-76052371D01*
X183005314Y-76147609D01*
X183005314Y-76385704D01*
X182957695Y-76480942D01*
X182910076Y-76528561D01*
X182814838Y-76576180D01*
X182529123Y-76576180D01*
X182433885Y-76528561D01*
X182386266Y-76480942D01*
X196429333Y-76525380D02*
X196096000Y-76049190D01*
X195857904Y-76525380D02*
X195857904Y-75525380D01*
X196238857Y-75525380D01*
X196334095Y-75573000D01*
X196381714Y-75620619D01*
X196429333Y-75715857D01*
X196429333Y-75858714D01*
X196381714Y-75953952D01*
X196334095Y-76001571D01*
X196238857Y-76049190D01*
X195857904Y-76049190D01*
X197286476Y-75858714D02*
X197286476Y-76525380D01*
X197048380Y-75477761D02*
X196810285Y-76192047D01*
X197429333Y-76192047D01*
X208621333Y-84196180D02*
X208288000Y-83719990D01*
X208049904Y-84196180D02*
X208049904Y-83196180D01*
X208430857Y-83196180D01*
X208526095Y-83243800D01*
X208573714Y-83291419D01*
X208621333Y-83386657D01*
X208621333Y-83529514D01*
X208573714Y-83624752D01*
X208526095Y-83672371D01*
X208430857Y-83719990D01*
X208049904Y-83719990D01*
X209526095Y-83196180D02*
X209049904Y-83196180D01*
X209002285Y-83672371D01*
X209049904Y-83624752D01*
X209145142Y-83577133D01*
X209383238Y-83577133D01*
X209478476Y-83624752D01*
X209526095Y-83672371D01*
X209573714Y-83767609D01*
X209573714Y-84005704D01*
X209526095Y-84100942D01*
X209478476Y-84148561D01*
X209383238Y-84196180D01*
X209145142Y-84196180D01*
X209049904Y-84148561D01*
X209002285Y-84100942D01*
X194448133Y-84196180D02*
X194114800Y-83719990D01*
X193876704Y-84196180D02*
X193876704Y-83196180D01*
X194257657Y-83196180D01*
X194352895Y-83243800D01*
X194400514Y-83291419D01*
X194448133Y-83386657D01*
X194448133Y-83529514D01*
X194400514Y-83624752D01*
X194352895Y-83672371D01*
X194257657Y-83719990D01*
X193876704Y-83719990D01*
X195305276Y-83196180D02*
X195114800Y-83196180D01*
X195019561Y-83243800D01*
X194971942Y-83291419D01*
X194876704Y-83434276D01*
X194829085Y-83624752D01*
X194829085Y-84005704D01*
X194876704Y-84100942D01*
X194924323Y-84148561D01*
X195019561Y-84196180D01*
X195210038Y-84196180D01*
X195305276Y-84148561D01*
X195352895Y-84100942D01*
X195400514Y-84005704D01*
X195400514Y-83767609D01*
X195352895Y-83672371D01*
X195305276Y-83624752D01*
X195210038Y-83577133D01*
X195019561Y-83577133D01*
X194924323Y-83624752D01*
X194876704Y-83672371D01*
X194829085Y-83767609D01*
X180071733Y-84297780D02*
X179738400Y-83821590D01*
X179500304Y-84297780D02*
X179500304Y-83297780D01*
X179881257Y-83297780D01*
X179976495Y-83345400D01*
X180024114Y-83393019D01*
X180071733Y-83488257D01*
X180071733Y-83631114D01*
X180024114Y-83726352D01*
X179976495Y-83773971D01*
X179881257Y-83821590D01*
X179500304Y-83821590D01*
X180405066Y-83297780D02*
X181071733Y-83297780D01*
X180643161Y-84297780D01*
X166000133Y-84297780D02*
X165666800Y-83821590D01*
X165428704Y-84297780D02*
X165428704Y-83297780D01*
X165809657Y-83297780D01*
X165904895Y-83345400D01*
X165952514Y-83393019D01*
X166000133Y-83488257D01*
X166000133Y-83631114D01*
X165952514Y-83726352D01*
X165904895Y-83773971D01*
X165809657Y-83821590D01*
X165428704Y-83821590D01*
X166571561Y-83726352D02*
X166476323Y-83678733D01*
X166428704Y-83631114D01*
X166381085Y-83535876D01*
X166381085Y-83488257D01*
X166428704Y-83393019D01*
X166476323Y-83345400D01*
X166571561Y-83297780D01*
X166762038Y-83297780D01*
X166857276Y-83345400D01*
X166904895Y-83393019D01*
X166952514Y-83488257D01*
X166952514Y-83535876D01*
X166904895Y-83631114D01*
X166857276Y-83678733D01*
X166762038Y-83726352D01*
X166571561Y-83726352D01*
X166476323Y-83773971D01*
X166428704Y-83821590D01*
X166381085Y-83916828D01*
X166381085Y-84107304D01*
X166428704Y-84202542D01*
X166476323Y-84250161D01*
X166571561Y-84297780D01*
X166762038Y-84297780D01*
X166857276Y-84250161D01*
X166904895Y-84202542D01*
X166952514Y-84107304D01*
X166952514Y-83916828D01*
X166904895Y-83821590D01*
X166857276Y-83773971D01*
X166762038Y-83726352D01*
X115462580Y-69375257D02*
X114986390Y-69708590D01*
X115462580Y-69946685D02*
X114462580Y-69946685D01*
X114462580Y-69565733D01*
X114510200Y-69470495D01*
X114557819Y-69422876D01*
X114653057Y-69375257D01*
X114795914Y-69375257D01*
X114891152Y-69422876D01*
X114938771Y-69470495D01*
X114986390Y-69565733D01*
X114986390Y-69946685D01*
X114462580Y-69041923D02*
X114462580Y-68422876D01*
X114843533Y-68756209D01*
X114843533Y-68613352D01*
X114891152Y-68518114D01*
X114938771Y-68470495D01*
X115034009Y-68422876D01*
X115272104Y-68422876D01*
X115367342Y-68470495D01*
X115414961Y-68518114D01*
X115462580Y-68613352D01*
X115462580Y-68899066D01*
X115414961Y-68994304D01*
X115367342Y-69041923D01*
X114462580Y-67803828D02*
X114462580Y-67708590D01*
X114510200Y-67613352D01*
X114557819Y-67565733D01*
X114653057Y-67518114D01*
X114843533Y-67470495D01*
X115081628Y-67470495D01*
X115272104Y-67518114D01*
X115367342Y-67565733D01*
X115414961Y-67613352D01*
X115462580Y-67708590D01*
X115462580Y-67803828D01*
X115414961Y-67899066D01*
X115367342Y-67946685D01*
X115272104Y-67994304D01*
X115081628Y-68041923D01*
X114843533Y-68041923D01*
X114653057Y-67994304D01*
X114557819Y-67946685D01*
X114510200Y-67899066D01*
X114462580Y-67803828D01*
X134034352Y-61234580D02*
X133701019Y-60758390D01*
X133462923Y-61234580D02*
X133462923Y-60234580D01*
X133843876Y-60234580D01*
X133939114Y-60282200D01*
X133986733Y-60329819D01*
X134034352Y-60425057D01*
X134034352Y-60567914D01*
X133986733Y-60663152D01*
X133939114Y-60710771D01*
X133843876Y-60758390D01*
X133462923Y-60758390D01*
X134986733Y-61234580D02*
X134415304Y-61234580D01*
X134701019Y-61234580D02*
X134701019Y-60234580D01*
X134605780Y-60377438D01*
X134510542Y-60472676D01*
X134415304Y-60520295D01*
X135605780Y-60234580D02*
X135701019Y-60234580D01*
X135796257Y-60282200D01*
X135843876Y-60329819D01*
X135891495Y-60425057D01*
X135939114Y-60615533D01*
X135939114Y-60853628D01*
X135891495Y-61044104D01*
X135843876Y-61139342D01*
X135796257Y-61186961D01*
X135701019Y-61234580D01*
X135605780Y-61234580D01*
X135510542Y-61186961D01*
X135462923Y-61139342D01*
X135415304Y-61044104D01*
X135367685Y-60853628D01*
X135367685Y-60615533D01*
X135415304Y-60425057D01*
X135462923Y-60329819D01*
X135510542Y-60282200D01*
X135605780Y-60234580D01*
X136558161Y-60234580D02*
X136653400Y-60234580D01*
X136748638Y-60282200D01*
X136796257Y-60329819D01*
X136843876Y-60425057D01*
X136891495Y-60615533D01*
X136891495Y-60853628D01*
X136843876Y-61044104D01*
X136796257Y-61139342D01*
X136748638Y-61186961D01*
X136653400Y-61234580D01*
X136558161Y-61234580D01*
X136462923Y-61186961D01*
X136415304Y-61139342D01*
X136367685Y-61044104D01*
X136320066Y-60853628D01*
X136320066Y-60615533D01*
X136367685Y-60425057D01*
X136415304Y-60329819D01*
X136462923Y-60282200D01*
X136558161Y-60234580D01*
X112948980Y-64974647D02*
X112472790Y-65307980D01*
X112948980Y-65546076D02*
X111948980Y-65546076D01*
X111948980Y-65165123D01*
X111996600Y-65069885D01*
X112044219Y-65022266D01*
X112139457Y-64974647D01*
X112282314Y-64974647D01*
X112377552Y-65022266D01*
X112425171Y-65069885D01*
X112472790Y-65165123D01*
X112472790Y-65546076D01*
X112044219Y-64593695D02*
X111996600Y-64546076D01*
X111948980Y-64450838D01*
X111948980Y-64212742D01*
X111996600Y-64117504D01*
X112044219Y-64069885D01*
X112139457Y-64022266D01*
X112234695Y-64022266D01*
X112377552Y-64069885D01*
X112948980Y-64641314D01*
X112948980Y-64022266D01*
X111948980Y-63403219D02*
X111948980Y-63307980D01*
X111996600Y-63212742D01*
X112044219Y-63165123D01*
X112139457Y-63117504D01*
X112329933Y-63069885D01*
X112568028Y-63069885D01*
X112758504Y-63117504D01*
X112853742Y-63165123D01*
X112901361Y-63212742D01*
X112948980Y-63307980D01*
X112948980Y-63403219D01*
X112901361Y-63498457D01*
X112853742Y-63546076D01*
X112758504Y-63593695D01*
X112568028Y-63641314D01*
X112329933Y-63641314D01*
X112139457Y-63593695D01*
X112044219Y-63546076D01*
X111996600Y-63498457D01*
X111948980Y-63403219D01*
X111948980Y-62450838D02*
X111948980Y-62355600D01*
X111996600Y-62260361D01*
X112044219Y-62212742D01*
X112139457Y-62165123D01*
X112329933Y-62117504D01*
X112568028Y-62117504D01*
X112758504Y-62165123D01*
X112853742Y-62212742D01*
X112901361Y-62260361D01*
X112948980Y-62355600D01*
X112948980Y-62450838D01*
X112901361Y-62546076D01*
X112853742Y-62593695D01*
X112758504Y-62641314D01*
X112568028Y-62688933D01*
X112329933Y-62688933D01*
X112139457Y-62641314D01*
X112044219Y-62593695D01*
X111996600Y-62546076D01*
X111948980Y-62450838D01*
X159308895Y-75723380D02*
X159308895Y-76532904D01*
X159356514Y-76628142D01*
X159404133Y-76675761D01*
X159499371Y-76723380D01*
X159689847Y-76723380D01*
X159785085Y-76675761D01*
X159832704Y-76628142D01*
X159880323Y-76532904D01*
X159880323Y-75723380D01*
X160880323Y-76723380D02*
X160308895Y-76723380D01*
X160594609Y-76723380D02*
X160594609Y-75723380D01*
X160499371Y-75866238D01*
X160404133Y-75961476D01*
X160308895Y-76009095D01*
X173685295Y-75677780D02*
X173685295Y-76487304D01*
X173732914Y-76582542D01*
X173780533Y-76630161D01*
X173875771Y-76677780D01*
X174066247Y-76677780D01*
X174161485Y-76630161D01*
X174209104Y-76582542D01*
X174256723Y-76487304D01*
X174256723Y-75677780D01*
X174685295Y-75773019D02*
X174732914Y-75725400D01*
X174828152Y-75677780D01*
X175066247Y-75677780D01*
X175161485Y-75725400D01*
X175209104Y-75773019D01*
X175256723Y-75868257D01*
X175256723Y-75963495D01*
X175209104Y-76106352D01*
X174637676Y-76677780D01*
X175256723Y-76677780D01*
X202387295Y-75525380D02*
X202387295Y-76334904D01*
X202434914Y-76430142D01*
X202482533Y-76477761D01*
X202577771Y-76525380D01*
X202768247Y-76525380D01*
X202863485Y-76477761D01*
X202911104Y-76430142D01*
X202958723Y-76334904D01*
X202958723Y-75525380D01*
X203863485Y-75858714D02*
X203863485Y-76525380D01*
X203625390Y-75477761D02*
X203387295Y-76192047D01*
X204006342Y-76192047D01*
X201371295Y-82992980D02*
X201371295Y-83802504D01*
X201418914Y-83897742D01*
X201466533Y-83945361D01*
X201561771Y-83992980D01*
X201752247Y-83992980D01*
X201847485Y-83945361D01*
X201895104Y-83897742D01*
X201942723Y-83802504D01*
X201942723Y-82992980D01*
X202895104Y-82992980D02*
X202418914Y-82992980D01*
X202371295Y-83469171D01*
X202418914Y-83421552D01*
X202514152Y-83373933D01*
X202752247Y-83373933D01*
X202847485Y-83421552D01*
X202895104Y-83469171D01*
X202942723Y-83564409D01*
X202942723Y-83802504D01*
X202895104Y-83897742D01*
X202847485Y-83945361D01*
X202752247Y-83992980D01*
X202514152Y-83992980D01*
X202418914Y-83945361D01*
X202371295Y-83897742D01*
X186893295Y-82992980D02*
X186893295Y-83802504D01*
X186940914Y-83897742D01*
X186988533Y-83945361D01*
X187083771Y-83992980D01*
X187274247Y-83992980D01*
X187369485Y-83945361D01*
X187417104Y-83897742D01*
X187464723Y-83802504D01*
X187464723Y-82992980D01*
X188369485Y-82992980D02*
X188179009Y-82992980D01*
X188083771Y-83040600D01*
X188036152Y-83088219D01*
X187940914Y-83231076D01*
X187893295Y-83421552D01*
X187893295Y-83802504D01*
X187940914Y-83897742D01*
X187988533Y-83945361D01*
X188083771Y-83992980D01*
X188274247Y-83992980D01*
X188369485Y-83945361D01*
X188417104Y-83897742D01*
X188464723Y-83802504D01*
X188464723Y-83564409D01*
X188417104Y-83469171D01*
X188369485Y-83421552D01*
X188274247Y-83373933D01*
X188083771Y-83373933D01*
X187988533Y-83421552D01*
X187940914Y-83469171D01*
X187893295Y-83564409D01*
X172923295Y-83043780D02*
X172923295Y-83853304D01*
X172970914Y-83948542D01*
X173018533Y-83996161D01*
X173113771Y-84043780D01*
X173304247Y-84043780D01*
X173399485Y-83996161D01*
X173447104Y-83948542D01*
X173494723Y-83853304D01*
X173494723Y-83043780D01*
X173875676Y-83043780D02*
X174542342Y-83043780D01*
X174113771Y-84043780D01*
X158699295Y-83094580D02*
X158699295Y-83904104D01*
X158746914Y-83999342D01*
X158794533Y-84046961D01*
X158889771Y-84094580D01*
X159080247Y-84094580D01*
X159175485Y-84046961D01*
X159223104Y-83999342D01*
X159270723Y-83904104D01*
X159270723Y-83094580D01*
X159889771Y-83523152D02*
X159794533Y-83475533D01*
X159746914Y-83427914D01*
X159699295Y-83332676D01*
X159699295Y-83285057D01*
X159746914Y-83189819D01*
X159794533Y-83142200D01*
X159889771Y-83094580D01*
X160080247Y-83094580D01*
X160175485Y-83142200D01*
X160223104Y-83189819D01*
X160270723Y-83285057D01*
X160270723Y-83332676D01*
X160223104Y-83427914D01*
X160175485Y-83475533D01*
X160080247Y-83523152D01*
X159889771Y-83523152D01*
X159794533Y-83570771D01*
X159746914Y-83618390D01*
X159699295Y-83713628D01*
X159699295Y-83904104D01*
X159746914Y-83999342D01*
X159794533Y-84046961D01*
X159889771Y-84094580D01*
X160080247Y-84094580D01*
X160175485Y-84046961D01*
X160223104Y-83999342D01*
X160270723Y-83904104D01*
X160270723Y-83713628D01*
X160223104Y-83618390D01*
X160175485Y-83570771D01*
X160080247Y-83523152D01*
X111059980Y-72180295D02*
X111869504Y-72180295D01*
X111964742Y-72132676D01*
X112012361Y-72085057D01*
X112059980Y-71989819D01*
X112059980Y-71799342D01*
X112012361Y-71704104D01*
X111964742Y-71656485D01*
X111869504Y-71608866D01*
X111059980Y-71608866D01*
X111155219Y-71180295D02*
X111107600Y-71132676D01*
X111059980Y-71037438D01*
X111059980Y-70799342D01*
X111107600Y-70704104D01*
X111155219Y-70656485D01*
X111250457Y-70608866D01*
X111345695Y-70608866D01*
X111488552Y-70656485D01*
X112059980Y-71227914D01*
X112059980Y-70608866D01*
X111059980Y-69989819D02*
X111059980Y-69894580D01*
X111107600Y-69799342D01*
X111155219Y-69751723D01*
X111250457Y-69704104D01*
X111440933Y-69656485D01*
X111679028Y-69656485D01*
X111869504Y-69704104D01*
X111964742Y-69751723D01*
X112012361Y-69799342D01*
X112059980Y-69894580D01*
X112059980Y-69989819D01*
X112012361Y-70085057D01*
X111964742Y-70132676D01*
X111869504Y-70180295D01*
X111679028Y-70227914D01*
X111440933Y-70227914D01*
X111250457Y-70180295D01*
X111155219Y-70132676D01*
X111107600Y-70085057D01*
X111059980Y-69989819D01*
X121420380Y-74256685D02*
X122229904Y-74256685D01*
X122325142Y-74209066D01*
X122372761Y-74161447D01*
X122420380Y-74066209D01*
X122420380Y-73875733D01*
X122372761Y-73780495D01*
X122325142Y-73732876D01*
X122229904Y-73685257D01*
X121420380Y-73685257D01*
X121515619Y-73256685D02*
X121468000Y-73209066D01*
X121420380Y-73113828D01*
X121420380Y-72875733D01*
X121468000Y-72780495D01*
X121515619Y-72732876D01*
X121610857Y-72685257D01*
X121706095Y-72685257D01*
X121848952Y-72732876D01*
X122420380Y-73304304D01*
X122420380Y-72685257D01*
X121420380Y-72066209D02*
X121420380Y-71970971D01*
X121468000Y-71875733D01*
X121515619Y-71828114D01*
X121610857Y-71780495D01*
X121801333Y-71732876D01*
X122039428Y-71732876D01*
X122229904Y-71780495D01*
X122325142Y-71828114D01*
X122372761Y-71875733D01*
X122420380Y-71970971D01*
X122420380Y-72066209D01*
X122372761Y-72161447D01*
X122325142Y-72209066D01*
X122229904Y-72256685D01*
X122039428Y-72304304D01*
X121801333Y-72304304D01*
X121610857Y-72256685D01*
X121515619Y-72209066D01*
X121468000Y-72161447D01*
X121420380Y-72066209D01*
X121420380Y-71113828D02*
X121420380Y-71018590D01*
X121468000Y-70923352D01*
X121515619Y-70875733D01*
X121610857Y-70828114D01*
X121801333Y-70780495D01*
X122039428Y-70780495D01*
X122229904Y-70828114D01*
X122325142Y-70875733D01*
X122372761Y-70923352D01*
X122420380Y-71018590D01*
X122420380Y-71113828D01*
X122372761Y-71209066D01*
X122325142Y-71256685D01*
X122229904Y-71304304D01*
X122039428Y-71351923D01*
X121801333Y-71351923D01*
X121610857Y-71304304D01*
X121515619Y-71256685D01*
X121468000Y-71209066D01*
X121420380Y-71113828D01*
X163928466Y-52639980D02*
X163928466Y-53354266D01*
X163880847Y-53497123D01*
X163785609Y-53592361D01*
X163642752Y-53639980D01*
X163547514Y-53639980D01*
X164928466Y-53639980D02*
X164357038Y-53639980D01*
X164642752Y-53639980D02*
X164642752Y-52639980D01*
X164547514Y-52782838D01*
X164452276Y-52878076D01*
X164357038Y-52925695D01*
X156780266Y-42083028D02*
X157542171Y-42083028D01*
X158494552Y-42463980D02*
X158018361Y-42463980D01*
X158018361Y-41463980D01*
X158827885Y-41940171D02*
X159161219Y-41940171D01*
X159304076Y-42463980D02*
X158827885Y-42463980D01*
X158827885Y-41463980D01*
X159304076Y-41463980D01*
X159732647Y-42463980D02*
X159732647Y-41463980D01*
X159970742Y-41463980D01*
X160113600Y-41511600D01*
X160208838Y-41606838D01*
X160256457Y-41702076D01*
X160304076Y-41892552D01*
X160304076Y-42035409D01*
X160256457Y-42225885D01*
X160208838Y-42321123D01*
X160113600Y-42416361D01*
X159970742Y-42463980D01*
X159732647Y-42463980D01*
X161256457Y-42463980D02*
X160685028Y-42463980D01*
X160970742Y-42463980D02*
X160970742Y-41463980D01*
X160875504Y-41606838D01*
X160780266Y-41702076D01*
X160685028Y-41749695D01*
X161685028Y-42083028D02*
X162446933Y-42083028D01*
X162065980Y-42463980D02*
X162065980Y-41702076D01*
X178000066Y-52716180D02*
X178000066Y-53430466D01*
X177952447Y-53573323D01*
X177857209Y-53668561D01*
X177714352Y-53716180D01*
X177619114Y-53716180D01*
X178428638Y-52811419D02*
X178476257Y-52763800D01*
X178571495Y-52716180D01*
X178809590Y-52716180D01*
X178904828Y-52763800D01*
X178952447Y-52811419D01*
X179000066Y-52906657D01*
X179000066Y-53001895D01*
X178952447Y-53144752D01*
X178381019Y-53716180D01*
X179000066Y-53716180D01*
X171105866Y-42159228D02*
X171867771Y-42159228D01*
X172820152Y-42540180D02*
X172343961Y-42540180D01*
X172343961Y-41540180D01*
X173153485Y-42016371D02*
X173486819Y-42016371D01*
X173629676Y-42540180D02*
X173153485Y-42540180D01*
X173153485Y-41540180D01*
X173629676Y-41540180D01*
X174058247Y-42540180D02*
X174058247Y-41540180D01*
X174296342Y-41540180D01*
X174439200Y-41587800D01*
X174534438Y-41683038D01*
X174582057Y-41778276D01*
X174629676Y-41968752D01*
X174629676Y-42111609D01*
X174582057Y-42302085D01*
X174534438Y-42397323D01*
X174439200Y-42492561D01*
X174296342Y-42540180D01*
X174058247Y-42540180D01*
X175010628Y-41635419D02*
X175058247Y-41587800D01*
X175153485Y-41540180D01*
X175391580Y-41540180D01*
X175486819Y-41587800D01*
X175534438Y-41635419D01*
X175582057Y-41730657D01*
X175582057Y-41825895D01*
X175534438Y-41968752D01*
X174963009Y-42540180D01*
X175582057Y-42540180D01*
X176010628Y-42159228D02*
X176772533Y-42159228D01*
X176391580Y-42540180D02*
X176391580Y-41778276D01*
X192351066Y-52614580D02*
X192351066Y-53328866D01*
X192303447Y-53471723D01*
X192208209Y-53566961D01*
X192065352Y-53614580D01*
X191970114Y-53614580D01*
X192732019Y-52614580D02*
X193351066Y-52614580D01*
X193017733Y-52995533D01*
X193160590Y-52995533D01*
X193255828Y-53043152D01*
X193303447Y-53090771D01*
X193351066Y-53186009D01*
X193351066Y-53424104D01*
X193303447Y-53519342D01*
X193255828Y-53566961D01*
X193160590Y-53614580D01*
X192874876Y-53614580D01*
X192779638Y-53566961D01*
X192732019Y-53519342D01*
X185507666Y-42159228D02*
X186269571Y-42159228D01*
X187221952Y-42540180D02*
X186745761Y-42540180D01*
X186745761Y-41540180D01*
X187555285Y-42016371D02*
X187888619Y-42016371D01*
X188031476Y-42540180D02*
X187555285Y-42540180D01*
X187555285Y-41540180D01*
X188031476Y-41540180D01*
X188460047Y-42540180D02*
X188460047Y-41540180D01*
X188698142Y-41540180D01*
X188841000Y-41587800D01*
X188936238Y-41683038D01*
X188983857Y-41778276D01*
X189031476Y-41968752D01*
X189031476Y-42111609D01*
X188983857Y-42302085D01*
X188936238Y-42397323D01*
X188841000Y-42492561D01*
X188698142Y-42540180D01*
X188460047Y-42540180D01*
X189364809Y-41540180D02*
X189983857Y-41540180D01*
X189650523Y-41921133D01*
X189793380Y-41921133D01*
X189888619Y-41968752D01*
X189936238Y-42016371D01*
X189983857Y-42111609D01*
X189983857Y-42349704D01*
X189936238Y-42444942D01*
X189888619Y-42492561D01*
X189793380Y-42540180D01*
X189507666Y-42540180D01*
X189412428Y-42492561D01*
X189364809Y-42444942D01*
X190412428Y-42159228D02*
X191174333Y-42159228D01*
X190793380Y-42540180D02*
X190793380Y-41778276D01*
X206651266Y-52817780D02*
X206651266Y-53532066D01*
X206603647Y-53674923D01*
X206508409Y-53770161D01*
X206365552Y-53817780D01*
X206270314Y-53817780D01*
X207556028Y-53151114D02*
X207556028Y-53817780D01*
X207317933Y-52770161D02*
X207079838Y-53484447D01*
X207698885Y-53484447D01*
X199655466Y-42083028D02*
X200417371Y-42083028D01*
X201369752Y-42463980D02*
X200893561Y-42463980D01*
X200893561Y-41463980D01*
X201703085Y-41940171D02*
X202036419Y-41940171D01*
X202179276Y-42463980D02*
X201703085Y-42463980D01*
X201703085Y-41463980D01*
X202179276Y-41463980D01*
X202607847Y-42463980D02*
X202607847Y-41463980D01*
X202845942Y-41463980D01*
X202988800Y-41511600D01*
X203084038Y-41606838D01*
X203131657Y-41702076D01*
X203179276Y-41892552D01*
X203179276Y-42035409D01*
X203131657Y-42225885D01*
X203084038Y-42321123D01*
X202988800Y-42416361D01*
X202845942Y-42463980D01*
X202607847Y-42463980D01*
X204036419Y-41797314D02*
X204036419Y-42463980D01*
X203798323Y-41416361D02*
X203560228Y-42130647D01*
X204179276Y-42130647D01*
X204560228Y-42083028D02*
X205322133Y-42083028D01*
X204941180Y-42463980D02*
X204941180Y-41702076D01*
X206244866Y-105979980D02*
X206244866Y-106694266D01*
X206197247Y-106837123D01*
X206102009Y-106932361D01*
X205959152Y-106979980D01*
X205863914Y-106979980D01*
X207197247Y-105979980D02*
X206721057Y-105979980D01*
X206673438Y-106456171D01*
X206721057Y-106408552D01*
X206816295Y-106360933D01*
X207054390Y-106360933D01*
X207149628Y-106408552D01*
X207197247Y-106456171D01*
X207244866Y-106551409D01*
X207244866Y-106789504D01*
X207197247Y-106884742D01*
X207149628Y-106932361D01*
X207054390Y-106979980D01*
X206816295Y-106979980D01*
X206721057Y-106932361D01*
X206673438Y-106884742D01*
X200417466Y-117775028D02*
X201179371Y-117775028D01*
X200798419Y-118155980D02*
X200798419Y-117394076D01*
X202131752Y-118155980D02*
X201655561Y-118155980D01*
X201655561Y-117155980D01*
X202465085Y-117632171D02*
X202798419Y-117632171D01*
X202941276Y-118155980D02*
X202465085Y-118155980D01*
X202465085Y-117155980D01*
X202941276Y-117155980D01*
X203369847Y-118155980D02*
X203369847Y-117155980D01*
X203607942Y-117155980D01*
X203750800Y-117203600D01*
X203846038Y-117298838D01*
X203893657Y-117394076D01*
X203941276Y-117584552D01*
X203941276Y-117727409D01*
X203893657Y-117917885D01*
X203846038Y-118013123D01*
X203750800Y-118108361D01*
X203607942Y-118155980D01*
X203369847Y-118155980D01*
X204846038Y-117155980D02*
X204369847Y-117155980D01*
X204322228Y-117632171D01*
X204369847Y-117584552D01*
X204465085Y-117536933D01*
X204703180Y-117536933D01*
X204798419Y-117584552D01*
X204846038Y-117632171D01*
X204893657Y-117727409D01*
X204893657Y-117965504D01*
X204846038Y-118060742D01*
X204798419Y-118108361D01*
X204703180Y-118155980D01*
X204465085Y-118155980D01*
X204369847Y-118108361D01*
X204322228Y-118060742D01*
X205322228Y-117775028D02*
X206084133Y-117775028D01*
X191970066Y-105852980D02*
X191970066Y-106567266D01*
X191922447Y-106710123D01*
X191827209Y-106805361D01*
X191684352Y-106852980D01*
X191589114Y-106852980D01*
X192874828Y-105852980D02*
X192684352Y-105852980D01*
X192589114Y-105900600D01*
X192541495Y-105948219D01*
X192446257Y-106091076D01*
X192398638Y-106281552D01*
X192398638Y-106662504D01*
X192446257Y-106757742D01*
X192493876Y-106805361D01*
X192589114Y-106852980D01*
X192779590Y-106852980D01*
X192874828Y-106805361D01*
X192922447Y-106757742D01*
X192970066Y-106662504D01*
X192970066Y-106424409D01*
X192922447Y-106329171D01*
X192874828Y-106281552D01*
X192779590Y-106233933D01*
X192589114Y-106233933D01*
X192493876Y-106281552D01*
X192446257Y-106329171D01*
X192398638Y-106424409D01*
X186345866Y-117724228D02*
X187107771Y-117724228D01*
X186726819Y-118105180D02*
X186726819Y-117343276D01*
X188060152Y-118105180D02*
X187583961Y-118105180D01*
X187583961Y-117105180D01*
X188393485Y-117581371D02*
X188726819Y-117581371D01*
X188869676Y-118105180D02*
X188393485Y-118105180D01*
X188393485Y-117105180D01*
X188869676Y-117105180D01*
X189298247Y-118105180D02*
X189298247Y-117105180D01*
X189536342Y-117105180D01*
X189679200Y-117152800D01*
X189774438Y-117248038D01*
X189822057Y-117343276D01*
X189869676Y-117533752D01*
X189869676Y-117676609D01*
X189822057Y-117867085D01*
X189774438Y-117962323D01*
X189679200Y-118057561D01*
X189536342Y-118105180D01*
X189298247Y-118105180D01*
X190726819Y-117105180D02*
X190536342Y-117105180D01*
X190441104Y-117152800D01*
X190393485Y-117200419D01*
X190298247Y-117343276D01*
X190250628Y-117533752D01*
X190250628Y-117914704D01*
X190298247Y-118009942D01*
X190345866Y-118057561D01*
X190441104Y-118105180D01*
X190631580Y-118105180D01*
X190726819Y-118057561D01*
X190774438Y-118009942D01*
X190822057Y-117914704D01*
X190822057Y-117676609D01*
X190774438Y-117581371D01*
X190726819Y-117533752D01*
X190631580Y-117486133D01*
X190441104Y-117486133D01*
X190345866Y-117533752D01*
X190298247Y-117581371D01*
X190250628Y-117676609D01*
X191250628Y-117724228D02*
X192012533Y-117724228D01*
X177847666Y-105929180D02*
X177847666Y-106643466D01*
X177800047Y-106786323D01*
X177704809Y-106881561D01*
X177561952Y-106929180D01*
X177466714Y-106929180D01*
X178228619Y-105929180D02*
X178895285Y-105929180D01*
X178466714Y-106929180D01*
X172223466Y-117775028D02*
X172985371Y-117775028D01*
X172604419Y-118155980D02*
X172604419Y-117394076D01*
X173937752Y-118155980D02*
X173461561Y-118155980D01*
X173461561Y-117155980D01*
X174271085Y-117632171D02*
X174604419Y-117632171D01*
X174747276Y-118155980D02*
X174271085Y-118155980D01*
X174271085Y-117155980D01*
X174747276Y-117155980D01*
X175175847Y-118155980D02*
X175175847Y-117155980D01*
X175413942Y-117155980D01*
X175556800Y-117203600D01*
X175652038Y-117298838D01*
X175699657Y-117394076D01*
X175747276Y-117584552D01*
X175747276Y-117727409D01*
X175699657Y-117917885D01*
X175652038Y-118013123D01*
X175556800Y-118108361D01*
X175413942Y-118155980D01*
X175175847Y-118155980D01*
X176080609Y-117155980D02*
X176747276Y-117155980D01*
X176318704Y-118155980D01*
X177128228Y-117775028D02*
X177890133Y-117775028D01*
X163979266Y-105852980D02*
X163979266Y-106567266D01*
X163931647Y-106710123D01*
X163836409Y-106805361D01*
X163693552Y-106852980D01*
X163598314Y-106852980D01*
X164598314Y-106281552D02*
X164503076Y-106233933D01*
X164455457Y-106186314D01*
X164407838Y-106091076D01*
X164407838Y-106043457D01*
X164455457Y-105948219D01*
X164503076Y-105900600D01*
X164598314Y-105852980D01*
X164788790Y-105852980D01*
X164884028Y-105900600D01*
X164931647Y-105948219D01*
X164979266Y-106043457D01*
X164979266Y-106091076D01*
X164931647Y-106186314D01*
X164884028Y-106233933D01*
X164788790Y-106281552D01*
X164598314Y-106281552D01*
X164503076Y-106329171D01*
X164455457Y-106376790D01*
X164407838Y-106472028D01*
X164407838Y-106662504D01*
X164455457Y-106757742D01*
X164503076Y-106805361D01*
X164598314Y-106852980D01*
X164788790Y-106852980D01*
X164884028Y-106805361D01*
X164931647Y-106757742D01*
X164979266Y-106662504D01*
X164979266Y-106472028D01*
X164931647Y-106376790D01*
X164884028Y-106329171D01*
X164788790Y-106281552D01*
X158101066Y-117648028D02*
X158862971Y-117648028D01*
X158482019Y-118028980D02*
X158482019Y-117267076D01*
X159815352Y-118028980D02*
X159339161Y-118028980D01*
X159339161Y-117028980D01*
X160148685Y-117505171D02*
X160482019Y-117505171D01*
X160624876Y-118028980D02*
X160148685Y-118028980D01*
X160148685Y-117028980D01*
X160624876Y-117028980D01*
X161053447Y-118028980D02*
X161053447Y-117028980D01*
X161291542Y-117028980D01*
X161434400Y-117076600D01*
X161529638Y-117171838D01*
X161577257Y-117267076D01*
X161624876Y-117457552D01*
X161624876Y-117600409D01*
X161577257Y-117790885D01*
X161529638Y-117886123D01*
X161434400Y-117981361D01*
X161291542Y-118028980D01*
X161053447Y-118028980D01*
X162196304Y-117457552D02*
X162101066Y-117409933D01*
X162053447Y-117362314D01*
X162005828Y-117267076D01*
X162005828Y-117219457D01*
X162053447Y-117124219D01*
X162101066Y-117076600D01*
X162196304Y-117028980D01*
X162386780Y-117028980D01*
X162482019Y-117076600D01*
X162529638Y-117124219D01*
X162577257Y-117219457D01*
X162577257Y-117267076D01*
X162529638Y-117362314D01*
X162482019Y-117409933D01*
X162386780Y-117457552D01*
X162196304Y-117457552D01*
X162101066Y-117505171D01*
X162053447Y-117552790D01*
X162005828Y-117648028D01*
X162005828Y-117838504D01*
X162053447Y-117933742D01*
X162101066Y-117981361D01*
X162196304Y-118028980D01*
X162386780Y-118028980D01*
X162482019Y-117981361D01*
X162529638Y-117933742D01*
X162577257Y-117838504D01*
X162577257Y-117648028D01*
X162529638Y-117552790D01*
X162482019Y-117505171D01*
X162386780Y-117457552D01*
X163005828Y-117648028D02*
X163767733Y-117648028D01*
X108797885Y-41489380D02*
X108797885Y-42203666D01*
X108750266Y-42346523D01*
X108655028Y-42441761D01*
X108512171Y-42489380D01*
X108416933Y-42489380D01*
X109797885Y-42489380D02*
X109226457Y-42489380D01*
X109512171Y-42489380D02*
X109512171Y-41489380D01*
X109416933Y-41632238D01*
X109321695Y-41727476D01*
X109226457Y-41775095D01*
X110416933Y-41489380D02*
X110512171Y-41489380D01*
X110607409Y-41537000D01*
X110655028Y-41584619D01*
X110702647Y-41679857D01*
X110750266Y-41870333D01*
X110750266Y-42108428D01*
X110702647Y-42298904D01*
X110655028Y-42394142D01*
X110607409Y-42441761D01*
X110512171Y-42489380D01*
X110416933Y-42489380D01*
X110321695Y-42441761D01*
X110274076Y-42394142D01*
X110226457Y-42298904D01*
X110178838Y-42108428D01*
X110178838Y-41870333D01*
X110226457Y-41679857D01*
X110274076Y-41584619D01*
X110321695Y-41537000D01*
X110416933Y-41489380D01*
X111369314Y-41489380D02*
X111464552Y-41489380D01*
X111559790Y-41537000D01*
X111607409Y-41584619D01*
X111655028Y-41679857D01*
X111702647Y-41870333D01*
X111702647Y-42108428D01*
X111655028Y-42298904D01*
X111607409Y-42394142D01*
X111559790Y-42441761D01*
X111464552Y-42489380D01*
X111369314Y-42489380D01*
X111274076Y-42441761D01*
X111226457Y-42394142D01*
X111178838Y-42298904D01*
X111131219Y-42108428D01*
X111131219Y-41870333D01*
X111178838Y-41679857D01*
X111226457Y-41584619D01*
X111274076Y-41537000D01*
X111369314Y-41489380D01*
X104236828Y-54918761D02*
X104236828Y-54156857D01*
X104617780Y-53680666D02*
X103617780Y-53680666D01*
X103617780Y-53442571D01*
X103665400Y-53299714D01*
X103760638Y-53204476D01*
X103855876Y-53156857D01*
X104046352Y-53109238D01*
X104189209Y-53109238D01*
X104379685Y-53156857D01*
X104474923Y-53204476D01*
X104570161Y-53299714D01*
X104617780Y-53442571D01*
X104617780Y-53680666D01*
X104522542Y-52109238D02*
X104570161Y-52156857D01*
X104617780Y-52299714D01*
X104617780Y-52394952D01*
X104570161Y-52537809D01*
X104474923Y-52633047D01*
X104379685Y-52680666D01*
X104189209Y-52728285D01*
X104046352Y-52728285D01*
X103855876Y-52680666D01*
X103760638Y-52633047D01*
X103665400Y-52537809D01*
X103617780Y-52394952D01*
X103617780Y-52299714D01*
X103665400Y-52156857D01*
X103713019Y-52109238D01*
X104617780Y-50918761D02*
X103951114Y-50918761D01*
X103617780Y-50918761D02*
X103665400Y-50966380D01*
X103713019Y-50918761D01*
X103665400Y-50871142D01*
X103617780Y-50918761D01*
X103713019Y-50918761D01*
X103951114Y-50442571D02*
X104617780Y-50442571D01*
X104046352Y-50442571D02*
X103998733Y-50394952D01*
X103951114Y-50299714D01*
X103951114Y-50156857D01*
X103998733Y-50061619D01*
X104093971Y-50014000D01*
X104617780Y-50014000D01*
X104617780Y-48252095D02*
X104617780Y-48823523D01*
X104617780Y-48537809D02*
X103617780Y-48537809D01*
X103760638Y-48633047D01*
X103855876Y-48728285D01*
X103903495Y-48823523D01*
X103713019Y-47871142D02*
X103665400Y-47823523D01*
X103617780Y-47728285D01*
X103617780Y-47490190D01*
X103665400Y-47394952D01*
X103713019Y-47347333D01*
X103808257Y-47299714D01*
X103903495Y-47299714D01*
X104046352Y-47347333D01*
X104617780Y-47918761D01*
X104617780Y-47299714D01*
X104236828Y-46871142D02*
X104236828Y-46109238D01*
X103713019Y-45680666D02*
X103665400Y-45633047D01*
X103617780Y-45537809D01*
X103617780Y-45299714D01*
X103665400Y-45204476D01*
X103713019Y-45156857D01*
X103808257Y-45109238D01*
X103903495Y-45109238D01*
X104046352Y-45156857D01*
X104617780Y-45728285D01*
X104617780Y-45109238D01*
X103951114Y-44252095D02*
X104617780Y-44252095D01*
X103570161Y-44490190D02*
X104284447Y-44728285D01*
X104284447Y-44109238D01*
X103617780Y-43871142D02*
X104617780Y-43537809D01*
X103617780Y-43204476D01*
X104236828Y-42871142D02*
X104236828Y-42109238D01*
X104617780Y-42490190D02*
X103855876Y-42490190D01*
M02*
