G04 #@! TF.GenerationSoftware,KiCad,Pcbnew,5.1.11-e4df9d881f~92~ubuntu20.04.1*
G04 #@! TF.CreationDate,2021-11-03T00:14:50+01:00*
G04 #@! TF.ProjectId,CC dimmer low voltage,43432064-696d-46d6-9572-206c6f772076,0.97*
G04 #@! TF.SameCoordinates,Original*
G04 #@! TF.FileFunction,Soldermask,Top*
G04 #@! TF.FilePolarity,Negative*
%FSLAX46Y46*%
G04 Gerber Fmt 4.6, Leading zero omitted, Abs format (unit mm)*
G04 Created by KiCad (PCBNEW 5.1.11-e4df9d881f~92~ubuntu20.04.1) date 2021-11-03 00:14:50*
%MOMM*%
%LPD*%
G01*
G04 APERTURE LIST*
%ADD10R,0.980000X3.400000*%
%ADD11C,3.000000*%
%ADD12R,1.700000X1.700000*%
%ADD13R,1.800000X2.500000*%
%ADD14C,3.200000*%
%ADD15R,0.600000X0.450000*%
%ADD16O,1.700000X1.950000*%
%ADD17O,2.000000X1.905000*%
%ADD18R,2.000000X1.905000*%
%ADD19O,1.500000X1.050000*%
%ADD20R,1.500000X1.050000*%
%ADD21R,1.905000X2.000000*%
%ADD22O,1.905000X2.000000*%
%ADD23R,2.600000X2.600000*%
%ADD24C,2.600000*%
%ADD25R,3.000000X3.000000*%
%ADD26R,1.500000X0.700000*%
%ADD27C,0.150000*%
%ADD28C,1.400000*%
G04 APERTURE END LIST*
G36*
G01*
X167785200Y-76116200D02*
X167785200Y-75166200D01*
G75*
G02*
X168035200Y-74916200I250000J0D01*
G01*
X168535200Y-74916200D01*
G75*
G02*
X168785200Y-75166200I0J-250000D01*
G01*
X168785200Y-76116200D01*
G75*
G02*
X168535200Y-76366200I-250000J0D01*
G01*
X168035200Y-76366200D01*
G75*
G02*
X167785200Y-76116200I0J250000D01*
G01*
G37*
G36*
G01*
X165885200Y-76116200D02*
X165885200Y-75166200D01*
G75*
G02*
X166135200Y-74916200I250000J0D01*
G01*
X166635200Y-74916200D01*
G75*
G02*
X166885200Y-75166200I0J-250000D01*
G01*
X166885200Y-76116200D01*
G75*
G02*
X166635200Y-76366200I-250000J0D01*
G01*
X166135200Y-76366200D01*
G75*
G02*
X165885200Y-76116200I0J250000D01*
G01*
G37*
D10*
X166709000Y-92176600D03*
X169079000Y-92176600D03*
X177097600Y-92176600D03*
X179467600Y-92176600D03*
X187215600Y-92176600D03*
X189585600Y-92176600D03*
X197443000Y-92176600D03*
X199813000Y-92176600D03*
X204816800Y-66598800D03*
X202446800Y-66598800D03*
X194479000Y-66598800D03*
X192109000Y-66598800D03*
X184395200Y-66548000D03*
X182025200Y-66548000D03*
X174209800Y-66573400D03*
X171839800Y-66573400D03*
D11*
X143281400Y-58242200D03*
X120681400Y-58242200D03*
D12*
X161023300Y-95645000D03*
X161023300Y-84645000D03*
D13*
X198120000Y-84029800D03*
X198120000Y-88029800D03*
D14*
X159202000Y-71145000D03*
D13*
X177774600Y-88029800D03*
X177774600Y-84029800D03*
G36*
G01*
X168861400Y-64803000D02*
X168861400Y-65753000D01*
G75*
G02*
X168611400Y-66003000I-250000J0D01*
G01*
X168111400Y-66003000D01*
G75*
G02*
X167861400Y-65753000I0J250000D01*
G01*
X167861400Y-64803000D01*
G75*
G02*
X168111400Y-64553000I250000J0D01*
G01*
X168611400Y-64553000D01*
G75*
G02*
X168861400Y-64803000I0J-250000D01*
G01*
G37*
G36*
G01*
X166961400Y-64803000D02*
X166961400Y-65753000D01*
G75*
G02*
X166711400Y-66003000I-250000J0D01*
G01*
X166211400Y-66003000D01*
G75*
G02*
X165961400Y-65753000I0J250000D01*
G01*
X165961400Y-64803000D01*
G75*
G02*
X166211400Y-64553000I250000J0D01*
G01*
X166711400Y-64553000D01*
G75*
G02*
X166961400Y-64803000I0J-250000D01*
G01*
G37*
G36*
G01*
X176172200Y-76116200D02*
X176172200Y-75166200D01*
G75*
G02*
X176422200Y-74916200I250000J0D01*
G01*
X176922200Y-74916200D01*
G75*
G02*
X177172200Y-75166200I0J-250000D01*
G01*
X177172200Y-76116200D01*
G75*
G02*
X176922200Y-76366200I-250000J0D01*
G01*
X176422200Y-76366200D01*
G75*
G02*
X176172200Y-76116200I0J250000D01*
G01*
G37*
G36*
G01*
X178072200Y-76116200D02*
X178072200Y-75166200D01*
G75*
G02*
X178322200Y-74916200I250000J0D01*
G01*
X178822200Y-74916200D01*
G75*
G02*
X179072200Y-75166200I0J-250000D01*
G01*
X179072200Y-76116200D01*
G75*
G02*
X178822200Y-76366200I-250000J0D01*
G01*
X178322200Y-76366200D01*
G75*
G02*
X178072200Y-76116200I0J250000D01*
G01*
G37*
G36*
G01*
X176172200Y-65778400D02*
X176172200Y-64828400D01*
G75*
G02*
X176422200Y-64578400I250000J0D01*
G01*
X176922200Y-64578400D01*
G75*
G02*
X177172200Y-64828400I0J-250000D01*
G01*
X177172200Y-65778400D01*
G75*
G02*
X176922200Y-66028400I-250000J0D01*
G01*
X176422200Y-66028400D01*
G75*
G02*
X176172200Y-65778400I0J250000D01*
G01*
G37*
G36*
G01*
X178072200Y-65778400D02*
X178072200Y-64828400D01*
G75*
G02*
X178322200Y-64578400I250000J0D01*
G01*
X178822200Y-64578400D01*
G75*
G02*
X179072200Y-64828400I0J-250000D01*
G01*
X179072200Y-65778400D01*
G75*
G02*
X178822200Y-66028400I-250000J0D01*
G01*
X178322200Y-66028400D01*
G75*
G02*
X178072200Y-65778400I0J250000D01*
G01*
G37*
G36*
G01*
X186179800Y-76116200D02*
X186179800Y-75166200D01*
G75*
G02*
X186429800Y-74916200I250000J0D01*
G01*
X186929800Y-74916200D01*
G75*
G02*
X187179800Y-75166200I0J-250000D01*
G01*
X187179800Y-76116200D01*
G75*
G02*
X186929800Y-76366200I-250000J0D01*
G01*
X186429800Y-76366200D01*
G75*
G02*
X186179800Y-76116200I0J250000D01*
G01*
G37*
G36*
G01*
X188079800Y-76116200D02*
X188079800Y-75166200D01*
G75*
G02*
X188329800Y-74916200I250000J0D01*
G01*
X188829800Y-74916200D01*
G75*
G02*
X189079800Y-75166200I0J-250000D01*
G01*
X189079800Y-76116200D01*
G75*
G02*
X188829800Y-76366200I-250000J0D01*
G01*
X188329800Y-76366200D01*
G75*
G02*
X188079800Y-76116200I0J250000D01*
G01*
G37*
G36*
G01*
X188156000Y-65778400D02*
X188156000Y-64828400D01*
G75*
G02*
X188406000Y-64578400I250000J0D01*
G01*
X188906000Y-64578400D01*
G75*
G02*
X189156000Y-64828400I0J-250000D01*
G01*
X189156000Y-65778400D01*
G75*
G02*
X188906000Y-66028400I-250000J0D01*
G01*
X188406000Y-66028400D01*
G75*
G02*
X188156000Y-65778400I0J250000D01*
G01*
G37*
G36*
G01*
X186256000Y-65778400D02*
X186256000Y-64828400D01*
G75*
G02*
X186506000Y-64578400I250000J0D01*
G01*
X187006000Y-64578400D01*
G75*
G02*
X187256000Y-64828400I0J-250000D01*
G01*
X187256000Y-65778400D01*
G75*
G02*
X187006000Y-66028400I-250000J0D01*
G01*
X186506000Y-66028400D01*
G75*
G02*
X186256000Y-65778400I0J250000D01*
G01*
G37*
G36*
G01*
X198366800Y-76065400D02*
X198366800Y-75115400D01*
G75*
G02*
X198616800Y-74865400I250000J0D01*
G01*
X199116800Y-74865400D01*
G75*
G02*
X199366800Y-75115400I0J-250000D01*
G01*
X199366800Y-76065400D01*
G75*
G02*
X199116800Y-76315400I-250000J0D01*
G01*
X198616800Y-76315400D01*
G75*
G02*
X198366800Y-76065400I0J250000D01*
G01*
G37*
G36*
G01*
X196466800Y-76065400D02*
X196466800Y-75115400D01*
G75*
G02*
X196716800Y-74865400I250000J0D01*
G01*
X197216800Y-74865400D01*
G75*
G02*
X197466800Y-75115400I0J-250000D01*
G01*
X197466800Y-76065400D01*
G75*
G02*
X197216800Y-76315400I-250000J0D01*
G01*
X196716800Y-76315400D01*
G75*
G02*
X196466800Y-76065400I0J250000D01*
G01*
G37*
G36*
G01*
X196466800Y-65778400D02*
X196466800Y-64828400D01*
G75*
G02*
X196716800Y-64578400I250000J0D01*
G01*
X197216800Y-64578400D01*
G75*
G02*
X197466800Y-64828400I0J-250000D01*
G01*
X197466800Y-65778400D01*
G75*
G02*
X197216800Y-66028400I-250000J0D01*
G01*
X196716800Y-66028400D01*
G75*
G02*
X196466800Y-65778400I0J250000D01*
G01*
G37*
G36*
G01*
X198366800Y-65778400D02*
X198366800Y-64828400D01*
G75*
G02*
X198616800Y-64578400I250000J0D01*
G01*
X199116800Y-64578400D01*
G75*
G02*
X199366800Y-64828400I0J-250000D01*
G01*
X199366800Y-65778400D01*
G75*
G02*
X199116800Y-66028400I-250000J0D01*
G01*
X198616800Y-66028400D01*
G75*
G02*
X198366800Y-65778400I0J250000D01*
G01*
G37*
G36*
G01*
X203791400Y-82633800D02*
X203791400Y-83583800D01*
G75*
G02*
X203541400Y-83833800I-250000J0D01*
G01*
X203041400Y-83833800D01*
G75*
G02*
X202791400Y-83583800I0J250000D01*
G01*
X202791400Y-82633800D01*
G75*
G02*
X203041400Y-82383800I250000J0D01*
G01*
X203541400Y-82383800D01*
G75*
G02*
X203791400Y-82633800I0J-250000D01*
G01*
G37*
G36*
G01*
X205691400Y-82633800D02*
X205691400Y-83583800D01*
G75*
G02*
X205441400Y-83833800I-250000J0D01*
G01*
X204941400Y-83833800D01*
G75*
G02*
X204691400Y-83583800I0J250000D01*
G01*
X204691400Y-82633800D01*
G75*
G02*
X204941400Y-82383800I250000J0D01*
G01*
X205441400Y-82383800D01*
G75*
G02*
X205691400Y-82633800I0J-250000D01*
G01*
G37*
G36*
G01*
X202791400Y-93921600D02*
X202791400Y-92971600D01*
G75*
G02*
X203041400Y-92721600I250000J0D01*
G01*
X203541400Y-92721600D01*
G75*
G02*
X203791400Y-92971600I0J-250000D01*
G01*
X203791400Y-93921600D01*
G75*
G02*
X203541400Y-94171600I-250000J0D01*
G01*
X203041400Y-94171600D01*
G75*
G02*
X202791400Y-93921600I0J250000D01*
G01*
G37*
G36*
G01*
X204691400Y-93921600D02*
X204691400Y-92971600D01*
G75*
G02*
X204941400Y-92721600I250000J0D01*
G01*
X205441400Y-92721600D01*
G75*
G02*
X205691400Y-92971600I0J-250000D01*
G01*
X205691400Y-93921600D01*
G75*
G02*
X205441400Y-94171600I-250000J0D01*
G01*
X204941400Y-94171600D01*
G75*
G02*
X204691400Y-93921600I0J250000D01*
G01*
G37*
G36*
G01*
X193529800Y-82608400D02*
X193529800Y-83558400D01*
G75*
G02*
X193279800Y-83808400I-250000J0D01*
G01*
X192779800Y-83808400D01*
G75*
G02*
X192529800Y-83558400I0J250000D01*
G01*
X192529800Y-82608400D01*
G75*
G02*
X192779800Y-82358400I250000J0D01*
G01*
X193279800Y-82358400D01*
G75*
G02*
X193529800Y-82608400I0J-250000D01*
G01*
G37*
G36*
G01*
X195429800Y-82608400D02*
X195429800Y-83558400D01*
G75*
G02*
X195179800Y-83808400I-250000J0D01*
G01*
X194679800Y-83808400D01*
G75*
G02*
X194429800Y-83558400I0J250000D01*
G01*
X194429800Y-82608400D01*
G75*
G02*
X194679800Y-82358400I250000J0D01*
G01*
X195179800Y-82358400D01*
G75*
G02*
X195429800Y-82608400I0J-250000D01*
G01*
G37*
G36*
G01*
X193545000Y-92971600D02*
X193545000Y-93921600D01*
G75*
G02*
X193295000Y-94171600I-250000J0D01*
G01*
X192795000Y-94171600D01*
G75*
G02*
X192545000Y-93921600I0J250000D01*
G01*
X192545000Y-92971600D01*
G75*
G02*
X192795000Y-92721600I250000J0D01*
G01*
X193295000Y-92721600D01*
G75*
G02*
X193545000Y-92971600I0J-250000D01*
G01*
G37*
G36*
G01*
X195445000Y-92971600D02*
X195445000Y-93921600D01*
G75*
G02*
X195195000Y-94171600I-250000J0D01*
G01*
X194695000Y-94171600D01*
G75*
G02*
X194445000Y-93921600I0J250000D01*
G01*
X194445000Y-92971600D01*
G75*
G02*
X194695000Y-92721600I250000J0D01*
G01*
X195195000Y-92721600D01*
G75*
G02*
X195445000Y-92971600I0J-250000D01*
G01*
G37*
G36*
G01*
X185269800Y-82608400D02*
X185269800Y-83558400D01*
G75*
G02*
X185019800Y-83808400I-250000J0D01*
G01*
X184519800Y-83808400D01*
G75*
G02*
X184269800Y-83558400I0J250000D01*
G01*
X184269800Y-82608400D01*
G75*
G02*
X184519800Y-82358400I250000J0D01*
G01*
X185019800Y-82358400D01*
G75*
G02*
X185269800Y-82608400I0J-250000D01*
G01*
G37*
G36*
G01*
X183369800Y-82608400D02*
X183369800Y-83558400D01*
G75*
G02*
X183119800Y-83808400I-250000J0D01*
G01*
X182619800Y-83808400D01*
G75*
G02*
X182369800Y-83558400I0J250000D01*
G01*
X182369800Y-82608400D01*
G75*
G02*
X182619800Y-82358400I250000J0D01*
G01*
X183119800Y-82358400D01*
G75*
G02*
X183369800Y-82608400I0J-250000D01*
G01*
G37*
G36*
G01*
X184269800Y-93921600D02*
X184269800Y-92971600D01*
G75*
G02*
X184519800Y-92721600I250000J0D01*
G01*
X185019800Y-92721600D01*
G75*
G02*
X185269800Y-92971600I0J-250000D01*
G01*
X185269800Y-93921600D01*
G75*
G02*
X185019800Y-94171600I-250000J0D01*
G01*
X184519800Y-94171600D01*
G75*
G02*
X184269800Y-93921600I0J250000D01*
G01*
G37*
G36*
G01*
X182369800Y-93921600D02*
X182369800Y-92971600D01*
G75*
G02*
X182619800Y-92721600I250000J0D01*
G01*
X183119800Y-92721600D01*
G75*
G02*
X183369800Y-92971600I0J-250000D01*
G01*
X183369800Y-93921600D01*
G75*
G02*
X183119800Y-94171600I-250000J0D01*
G01*
X182619800Y-94171600D01*
G75*
G02*
X182369800Y-93921600I0J250000D01*
G01*
G37*
G36*
G01*
X173286000Y-82608400D02*
X173286000Y-83558400D01*
G75*
G02*
X173036000Y-83808400I-250000J0D01*
G01*
X172536000Y-83808400D01*
G75*
G02*
X172286000Y-83558400I0J250000D01*
G01*
X172286000Y-82608400D01*
G75*
G02*
X172536000Y-82358400I250000J0D01*
G01*
X173036000Y-82358400D01*
G75*
G02*
X173286000Y-82608400I0J-250000D01*
G01*
G37*
G36*
G01*
X175186000Y-82608400D02*
X175186000Y-83558400D01*
G75*
G02*
X174936000Y-83808400I-250000J0D01*
G01*
X174436000Y-83808400D01*
G75*
G02*
X174186000Y-83558400I0J250000D01*
G01*
X174186000Y-82608400D01*
G75*
G02*
X174436000Y-82358400I250000J0D01*
G01*
X174936000Y-82358400D01*
G75*
G02*
X175186000Y-82608400I0J-250000D01*
G01*
G37*
G36*
G01*
X175175800Y-92971600D02*
X175175800Y-93921600D01*
G75*
G02*
X174925800Y-94171600I-250000J0D01*
G01*
X174425800Y-94171600D01*
G75*
G02*
X174175800Y-93921600I0J250000D01*
G01*
X174175800Y-92971600D01*
G75*
G02*
X174425800Y-92721600I250000J0D01*
G01*
X174925800Y-92721600D01*
G75*
G02*
X175175800Y-92971600I0J-250000D01*
G01*
G37*
G36*
G01*
X173275800Y-92971600D02*
X173275800Y-93921600D01*
G75*
G02*
X173025800Y-94171600I-250000J0D01*
G01*
X172525800Y-94171600D01*
G75*
G02*
X172275800Y-93921600I0J250000D01*
G01*
X172275800Y-92971600D01*
G75*
G02*
X172525800Y-92721600I250000J0D01*
G01*
X173025800Y-92721600D01*
G75*
G02*
X173275800Y-92971600I0J-250000D01*
G01*
G37*
G36*
G01*
X159496000Y-64674000D02*
X157496000Y-64674000D01*
G75*
G02*
X157246000Y-64424000I0J250000D01*
G01*
X157246000Y-60924000D01*
G75*
G02*
X157496000Y-60674000I250000J0D01*
G01*
X159496000Y-60674000D01*
G75*
G02*
X159746000Y-60924000I0J-250000D01*
G01*
X159746000Y-64424000D01*
G75*
G02*
X159496000Y-64674000I-250000J0D01*
G01*
G37*
G36*
G01*
X159496000Y-56674000D02*
X157496000Y-56674000D01*
G75*
G02*
X157246000Y-56424000I0J250000D01*
G01*
X157246000Y-52924000D01*
G75*
G02*
X157496000Y-52674000I250000J0D01*
G01*
X159496000Y-52674000D01*
G75*
G02*
X159746000Y-52924000I0J-250000D01*
G01*
X159746000Y-56424000D01*
G75*
G02*
X159496000Y-56674000I-250000J0D01*
G01*
G37*
G36*
G01*
X137087200Y-67191800D02*
X137087200Y-68291800D01*
G75*
G02*
X136837200Y-68541800I-250000J0D01*
G01*
X133837200Y-68541800D01*
G75*
G02*
X133587200Y-68291800I0J250000D01*
G01*
X133587200Y-67191800D01*
G75*
G02*
X133837200Y-66941800I250000J0D01*
G01*
X136837200Y-66941800D01*
G75*
G02*
X137087200Y-67191800I0J-250000D01*
G01*
G37*
G36*
G01*
X131487200Y-67191800D02*
X131487200Y-68291800D01*
G75*
G02*
X131237200Y-68541800I-250000J0D01*
G01*
X128237200Y-68541800D01*
G75*
G02*
X127987200Y-68291800I0J250000D01*
G01*
X127987200Y-67191800D01*
G75*
G02*
X128237200Y-66941800I250000J0D01*
G01*
X131237200Y-66941800D01*
G75*
G02*
X131487200Y-67191800I0J-250000D01*
G01*
G37*
G36*
G01*
X125493800Y-68861600D02*
X124543800Y-68861600D01*
G75*
G02*
X124293800Y-68611600I0J250000D01*
G01*
X124293800Y-68111600D01*
G75*
G02*
X124543800Y-67861600I250000J0D01*
G01*
X125493800Y-67861600D01*
G75*
G02*
X125743800Y-68111600I0J-250000D01*
G01*
X125743800Y-68611600D01*
G75*
G02*
X125493800Y-68861600I-250000J0D01*
G01*
G37*
G36*
G01*
X125493800Y-66961600D02*
X124543800Y-66961600D01*
G75*
G02*
X124293800Y-66711600I0J250000D01*
G01*
X124293800Y-66211600D01*
G75*
G02*
X124543800Y-65961600I250000J0D01*
G01*
X125493800Y-65961600D01*
G75*
G02*
X125743800Y-66211600I0J-250000D01*
G01*
X125743800Y-66711600D01*
G75*
G02*
X125493800Y-66961600I-250000J0D01*
G01*
G37*
X173532800Y-74745600D03*
X173532800Y-70745600D03*
X183769000Y-74720200D03*
X183769000Y-70720200D03*
X193776600Y-74694800D03*
X193776600Y-70694800D03*
X204165200Y-70720200D03*
X204165200Y-74720200D03*
X187909200Y-88029800D03*
X187909200Y-84029800D03*
X167386000Y-88055200D03*
X167386000Y-84055200D03*
D15*
X147887400Y-66268600D03*
X145787400Y-66268600D03*
G36*
G01*
X110657800Y-71316200D02*
X109407800Y-71316200D01*
G75*
G02*
X109157800Y-71066200I0J250000D01*
G01*
X109157800Y-70316200D01*
G75*
G02*
X109407800Y-70066200I250000J0D01*
G01*
X110657800Y-70066200D01*
G75*
G02*
X110907800Y-70316200I0J-250000D01*
G01*
X110907800Y-71066200D01*
G75*
G02*
X110657800Y-71316200I-250000J0D01*
G01*
G37*
G36*
G01*
X110657800Y-68516200D02*
X109407800Y-68516200D01*
G75*
G02*
X109157800Y-68266200I0J250000D01*
G01*
X109157800Y-67516200D01*
G75*
G02*
X109407800Y-67266200I250000J0D01*
G01*
X110657800Y-67266200D01*
G75*
G02*
X110907800Y-67516200I0J-250000D01*
G01*
X110907800Y-68266200D01*
G75*
G02*
X110657800Y-68516200I-250000J0D01*
G01*
G37*
G36*
G01*
X138665799Y-67656400D02*
X139565801Y-67656400D01*
G75*
G02*
X139815800Y-67906399I0J-249999D01*
G01*
X139815800Y-68606401D01*
G75*
G02*
X139565801Y-68856400I-249999J0D01*
G01*
X138665799Y-68856400D01*
G75*
G02*
X138415800Y-68606401I0J249999D01*
G01*
X138415800Y-67906399D01*
G75*
G02*
X138665799Y-67656400I249999J0D01*
G01*
G37*
G36*
G01*
X138665799Y-69656400D02*
X139565801Y-69656400D01*
G75*
G02*
X139815800Y-69906399I0J-249999D01*
G01*
X139815800Y-70606401D01*
G75*
G02*
X139565801Y-70856400I-249999J0D01*
G01*
X138665799Y-70856400D01*
G75*
G02*
X138415800Y-70606401I0J249999D01*
G01*
X138415800Y-69906399D01*
G75*
G02*
X138665799Y-69656400I249999J0D01*
G01*
G37*
D14*
X109169200Y-103886000D03*
X209016600Y-79121000D03*
G36*
G01*
X148352000Y-77382200D02*
X148352000Y-75932200D01*
G75*
G02*
X148602000Y-75682200I250000J0D01*
G01*
X149802000Y-75682200D01*
G75*
G02*
X150052000Y-75932200I0J-250000D01*
G01*
X150052000Y-77382200D01*
G75*
G02*
X149802000Y-77632200I-250000J0D01*
G01*
X148602000Y-77632200D01*
G75*
G02*
X148352000Y-77382200I0J250000D01*
G01*
G37*
D16*
X151702000Y-76657200D03*
X154202000Y-76657200D03*
G36*
G01*
X148352000Y-103569600D02*
X148352000Y-102119600D01*
G75*
G02*
X148602000Y-101869600I250000J0D01*
G01*
X149802000Y-101869600D01*
G75*
G02*
X150052000Y-102119600I0J-250000D01*
G01*
X150052000Y-103569600D01*
G75*
G02*
X149802000Y-103819600I-250000J0D01*
G01*
X148602000Y-103819600D01*
G75*
G02*
X148352000Y-103569600I0J250000D01*
G01*
G37*
X151702000Y-102844600D03*
X154202000Y-102844600D03*
X156702000Y-102844600D03*
D12*
X157202000Y-84645000D03*
X157202000Y-95645000D03*
X125780800Y-71374000D03*
D17*
X147904200Y-61087000D03*
X147904200Y-58547000D03*
D18*
X147904200Y-56007000D03*
G36*
G01*
X165970600Y-68316003D02*
X165970600Y-67065997D01*
G75*
G02*
X166220597Y-66816000I249997J0D01*
G01*
X166845603Y-66816000D01*
G75*
G02*
X167095600Y-67065997I0J-249997D01*
G01*
X167095600Y-68316003D01*
G75*
G02*
X166845603Y-68566000I-249997J0D01*
G01*
X166220597Y-68566000D01*
G75*
G02*
X165970600Y-68316003I0J249997D01*
G01*
G37*
G36*
G01*
X168895600Y-68316003D02*
X168895600Y-67065997D01*
G75*
G02*
X169145597Y-66816000I249997J0D01*
G01*
X169770603Y-66816000D01*
G75*
G02*
X170020600Y-67065997I0J-249997D01*
G01*
X170020600Y-68316003D01*
G75*
G02*
X169770603Y-68566000I-249997J0D01*
G01*
X169145597Y-68566000D01*
G75*
G02*
X168895600Y-68316003I0J249997D01*
G01*
G37*
G36*
G01*
X179106400Y-68316003D02*
X179106400Y-67065997D01*
G75*
G02*
X179356397Y-66816000I249997J0D01*
G01*
X179981403Y-66816000D01*
G75*
G02*
X180231400Y-67065997I0J-249997D01*
G01*
X180231400Y-68316003D01*
G75*
G02*
X179981403Y-68566000I-249997J0D01*
G01*
X179356397Y-68566000D01*
G75*
G02*
X179106400Y-68316003I0J249997D01*
G01*
G37*
G36*
G01*
X176181400Y-68316003D02*
X176181400Y-67065997D01*
G75*
G02*
X176431397Y-66816000I249997J0D01*
G01*
X177056403Y-66816000D01*
G75*
G02*
X177306400Y-67065997I0J-249997D01*
G01*
X177306400Y-68316003D01*
G75*
G02*
X177056403Y-68566000I-249997J0D01*
G01*
X176431397Y-68566000D01*
G75*
G02*
X176181400Y-68316003I0J249997D01*
G01*
G37*
G36*
G01*
X189164800Y-68341403D02*
X189164800Y-67091397D01*
G75*
G02*
X189414797Y-66841400I249997J0D01*
G01*
X190039803Y-66841400D01*
G75*
G02*
X190289800Y-67091397I0J-249997D01*
G01*
X190289800Y-68341403D01*
G75*
G02*
X190039803Y-68591400I-249997J0D01*
G01*
X189414797Y-68591400D01*
G75*
G02*
X189164800Y-68341403I0J249997D01*
G01*
G37*
G36*
G01*
X186239800Y-68341403D02*
X186239800Y-67091397D01*
G75*
G02*
X186489797Y-66841400I249997J0D01*
G01*
X187114803Y-66841400D01*
G75*
G02*
X187364800Y-67091397I0J-249997D01*
G01*
X187364800Y-68341403D01*
G75*
G02*
X187114803Y-68591400I-249997J0D01*
G01*
X186489797Y-68591400D01*
G75*
G02*
X186239800Y-68341403I0J249997D01*
G01*
G37*
G36*
G01*
X196476000Y-68366803D02*
X196476000Y-67116797D01*
G75*
G02*
X196725997Y-66866800I249997J0D01*
G01*
X197351003Y-66866800D01*
G75*
G02*
X197601000Y-67116797I0J-249997D01*
G01*
X197601000Y-68366803D01*
G75*
G02*
X197351003Y-68616800I-249997J0D01*
G01*
X196725997Y-68616800D01*
G75*
G02*
X196476000Y-68366803I0J249997D01*
G01*
G37*
G36*
G01*
X199401000Y-68366803D02*
X199401000Y-67116797D01*
G75*
G02*
X199650997Y-66866800I249997J0D01*
G01*
X200276003Y-66866800D01*
G75*
G02*
X200526000Y-67116797I0J-249997D01*
G01*
X200526000Y-68366803D01*
G75*
G02*
X200276003Y-68616800I-249997J0D01*
G01*
X199650997Y-68616800D01*
G75*
G02*
X199401000Y-68366803I0J249997D01*
G01*
G37*
G36*
G01*
X202752000Y-90469997D02*
X202752000Y-91720003D01*
G75*
G02*
X202502003Y-91970000I-249997J0D01*
G01*
X201876997Y-91970000D01*
G75*
G02*
X201627000Y-91720003I0J249997D01*
G01*
X201627000Y-90469997D01*
G75*
G02*
X201876997Y-90220000I249997J0D01*
G01*
X202502003Y-90220000D01*
G75*
G02*
X202752000Y-90469997I0J-249997D01*
G01*
G37*
G36*
G01*
X205677000Y-90469997D02*
X205677000Y-91720003D01*
G75*
G02*
X205427003Y-91970000I-249997J0D01*
G01*
X204801997Y-91970000D01*
G75*
G02*
X204552000Y-91720003I0J249997D01*
G01*
X204552000Y-90469997D01*
G75*
G02*
X204801997Y-90220000I249997J0D01*
G01*
X205427003Y-90220000D01*
G75*
G02*
X205677000Y-90469997I0J-249997D01*
G01*
G37*
G36*
G01*
X195431300Y-90408597D02*
X195431300Y-91658603D01*
G75*
G02*
X195181303Y-91908600I-249997J0D01*
G01*
X194556297Y-91908600D01*
G75*
G02*
X194306300Y-91658603I0J249997D01*
G01*
X194306300Y-90408597D01*
G75*
G02*
X194556297Y-90158600I249997J0D01*
G01*
X195181303Y-90158600D01*
G75*
G02*
X195431300Y-90408597I0J-249997D01*
G01*
G37*
G36*
G01*
X192506300Y-90408597D02*
X192506300Y-91658603D01*
G75*
G02*
X192256303Y-91908600I-249997J0D01*
G01*
X191631297Y-91908600D01*
G75*
G02*
X191381300Y-91658603I0J249997D01*
G01*
X191381300Y-90408597D01*
G75*
G02*
X191631297Y-90158600I249997J0D01*
G01*
X192256303Y-90158600D01*
G75*
G02*
X192506300Y-90408597I0J-249997D01*
G01*
G37*
G36*
G01*
X182402000Y-90408597D02*
X182402000Y-91658603D01*
G75*
G02*
X182152003Y-91908600I-249997J0D01*
G01*
X181526997Y-91908600D01*
G75*
G02*
X181277000Y-91658603I0J249997D01*
G01*
X181277000Y-90408597D01*
G75*
G02*
X181526997Y-90158600I249997J0D01*
G01*
X182152003Y-90158600D01*
G75*
G02*
X182402000Y-90408597I0J-249997D01*
G01*
G37*
G36*
G01*
X185327000Y-90408597D02*
X185327000Y-91658603D01*
G75*
G02*
X185077003Y-91908600I-249997J0D01*
G01*
X184451997Y-91908600D01*
G75*
G02*
X184202000Y-91658603I0J249997D01*
G01*
X184202000Y-90408597D01*
G75*
G02*
X184451997Y-90158600I249997J0D01*
G01*
X185077003Y-90158600D01*
G75*
G02*
X185327000Y-90408597I0J-249997D01*
G01*
G37*
G36*
G01*
X175127000Y-90469997D02*
X175127000Y-91720003D01*
G75*
G02*
X174877003Y-91970000I-249997J0D01*
G01*
X174251997Y-91970000D01*
G75*
G02*
X174002000Y-91720003I0J249997D01*
G01*
X174002000Y-90469997D01*
G75*
G02*
X174251997Y-90220000I249997J0D01*
G01*
X174877003Y-90220000D01*
G75*
G02*
X175127000Y-90469997I0J-249997D01*
G01*
G37*
G36*
G01*
X172202000Y-90469997D02*
X172202000Y-91720003D01*
G75*
G02*
X171952003Y-91970000I-249997J0D01*
G01*
X171326997Y-91970000D01*
G75*
G02*
X171077000Y-91720003I0J249997D01*
G01*
X171077000Y-90469997D01*
G75*
G02*
X171326997Y-90220000I249997J0D01*
G01*
X171952003Y-90220000D01*
G75*
G02*
X172202000Y-90469997I0J-249997D01*
G01*
G37*
G36*
G01*
X121673198Y-67840800D02*
X122573202Y-67840800D01*
G75*
G02*
X122823200Y-68090798I0J-249998D01*
G01*
X122823200Y-68615802D01*
G75*
G02*
X122573202Y-68865800I-249998J0D01*
G01*
X121673198Y-68865800D01*
G75*
G02*
X121423200Y-68615802I0J249998D01*
G01*
X121423200Y-68090798D01*
G75*
G02*
X121673198Y-67840800I249998J0D01*
G01*
G37*
G36*
G01*
X121673198Y-69665800D02*
X122573202Y-69665800D01*
G75*
G02*
X122823200Y-69915798I0J-249998D01*
G01*
X122823200Y-70440802D01*
G75*
G02*
X122573202Y-70690800I-249998J0D01*
G01*
X121673198Y-70690800D01*
G75*
G02*
X121423200Y-70440802I0J249998D01*
G01*
X121423200Y-69915798D01*
G75*
G02*
X121673198Y-69665800I249998J0D01*
G01*
G37*
G36*
G01*
X142475000Y-65818598D02*
X142475000Y-66718602D01*
G75*
G02*
X142225002Y-66968600I-249998J0D01*
G01*
X141699998Y-66968600D01*
G75*
G02*
X141450000Y-66718602I0J249998D01*
G01*
X141450000Y-65818598D01*
G75*
G02*
X141699998Y-65568600I249998J0D01*
G01*
X142225002Y-65568600D01*
G75*
G02*
X142475000Y-65818598I0J-249998D01*
G01*
G37*
G36*
G01*
X144300000Y-65818598D02*
X144300000Y-66718602D01*
G75*
G02*
X144050002Y-66968600I-249998J0D01*
G01*
X143524998Y-66968600D01*
G75*
G02*
X143275000Y-66718602I0J249998D01*
G01*
X143275000Y-65818598D01*
G75*
G02*
X143524998Y-65568600I249998J0D01*
G01*
X144050002Y-65568600D01*
G75*
G02*
X144300000Y-65818598I0J-249998D01*
G01*
G37*
G36*
G01*
X113911802Y-70106600D02*
X113011798Y-70106600D01*
G75*
G02*
X112761800Y-69856602I0J249998D01*
G01*
X112761800Y-69331598D01*
G75*
G02*
X113011798Y-69081600I249998J0D01*
G01*
X113911802Y-69081600D01*
G75*
G02*
X114161800Y-69331598I0J-249998D01*
G01*
X114161800Y-69856602D01*
G75*
G02*
X113911802Y-70106600I-249998J0D01*
G01*
G37*
G36*
G01*
X113911802Y-68281600D02*
X113011798Y-68281600D01*
G75*
G02*
X112761800Y-68031602I0J249998D01*
G01*
X112761800Y-67506598D01*
G75*
G02*
X113011798Y-67256600I249998J0D01*
G01*
X113911802Y-67256600D01*
G75*
G02*
X114161800Y-67506598I0J-249998D01*
G01*
X114161800Y-68031602D01*
G75*
G02*
X113911802Y-68281600I-249998J0D01*
G01*
G37*
D19*
X118389400Y-69596000D03*
X118389400Y-68326000D03*
D20*
X118389400Y-70866000D03*
D21*
X148590000Y-70281800D03*
D22*
X146050000Y-70281800D03*
X143510000Y-70281800D03*
D23*
X113792000Y-61290200D03*
D24*
X113792000Y-56290200D03*
D11*
X183442000Y-58145000D03*
D25*
X168202000Y-58145000D03*
D11*
X178362000Y-58145000D03*
X173282000Y-58145000D03*
X193632000Y-58145000D03*
X198712000Y-58145000D03*
D25*
X188552000Y-58145000D03*
D11*
X203792000Y-58145000D03*
X188312000Y-100645000D03*
D25*
X203552000Y-100645000D03*
D11*
X193392000Y-100645000D03*
X198472000Y-100645000D03*
X178122000Y-100645000D03*
X173042000Y-100645000D03*
D25*
X183202000Y-100645000D03*
D11*
X167962000Y-100645000D03*
D26*
X166702000Y-73245000D03*
X166702000Y-70245000D03*
X170402000Y-73245000D03*
X170402000Y-70245000D03*
D27*
G36*
X167652000Y-72245000D02*
G01*
X165952000Y-72245000D01*
X165952000Y-71245000D01*
X167652000Y-71245000D01*
X168152000Y-70745000D01*
X168952000Y-70745000D01*
X169452000Y-71245000D01*
X171152000Y-71245000D01*
X171152000Y-72245000D01*
X169452000Y-72245000D01*
X168952000Y-72745000D01*
X168152000Y-72745000D01*
X167652000Y-72245000D01*
G37*
D26*
X176902000Y-73245000D03*
X176902000Y-70245000D03*
X180602000Y-73245000D03*
X180602000Y-70245000D03*
D27*
G36*
X177852000Y-72245000D02*
G01*
X176152000Y-72245000D01*
X176152000Y-71245000D01*
X177852000Y-71245000D01*
X178352000Y-70745000D01*
X179152000Y-70745000D01*
X179652000Y-71245000D01*
X181352000Y-71245000D01*
X181352000Y-72245000D01*
X179652000Y-72245000D01*
X179152000Y-72745000D01*
X178352000Y-72745000D01*
X177852000Y-72245000D01*
G37*
G36*
X187902000Y-72195000D02*
G01*
X186202000Y-72195000D01*
X186202000Y-71195000D01*
X187902000Y-71195000D01*
X188402000Y-70695000D01*
X189202000Y-70695000D01*
X189702000Y-71195000D01*
X191402000Y-71195000D01*
X191402000Y-72195000D01*
X189702000Y-72195000D01*
X189202000Y-72695000D01*
X188402000Y-72695000D01*
X187902000Y-72195000D01*
G37*
D26*
X190652000Y-70195000D03*
X190652000Y-73195000D03*
X186952000Y-70195000D03*
X186952000Y-73195000D03*
D27*
G36*
X198152000Y-72195000D02*
G01*
X196452000Y-72195000D01*
X196452000Y-71195000D01*
X198152000Y-71195000D01*
X198652000Y-70695000D01*
X199452000Y-70695000D01*
X199952000Y-71195000D01*
X201652000Y-71195000D01*
X201652000Y-72195000D01*
X199952000Y-72195000D01*
X199452000Y-72695000D01*
X198652000Y-72695000D01*
X198152000Y-72195000D01*
G37*
D26*
X200902000Y-70195000D03*
X200902000Y-73195000D03*
X197202000Y-70195000D03*
X197202000Y-73195000D03*
D27*
G36*
X204002000Y-86545000D02*
G01*
X205702000Y-86545000D01*
X205702000Y-87545000D01*
X204002000Y-87545000D01*
X203502000Y-88045000D01*
X202702000Y-88045000D01*
X202202000Y-87545000D01*
X200502000Y-87545000D01*
X200502000Y-86545000D01*
X202202000Y-86545000D01*
X202702000Y-86045000D01*
X203502000Y-86045000D01*
X204002000Y-86545000D01*
G37*
D26*
X201252000Y-88545000D03*
X201252000Y-85545000D03*
X204952000Y-88545000D03*
X204952000Y-85545000D03*
D27*
G36*
X193752000Y-86545000D02*
G01*
X195452000Y-86545000D01*
X195452000Y-87545000D01*
X193752000Y-87545000D01*
X193252000Y-88045000D01*
X192452000Y-88045000D01*
X191952000Y-87545000D01*
X190252000Y-87545000D01*
X190252000Y-86545000D01*
X191952000Y-86545000D01*
X192452000Y-86045000D01*
X193252000Y-86045000D01*
X193752000Y-86545000D01*
G37*
D26*
X191002000Y-88545000D03*
X191002000Y-85545000D03*
X194702000Y-88545000D03*
X194702000Y-85545000D03*
X184502000Y-85545000D03*
X184502000Y-88545000D03*
X180802000Y-85545000D03*
X180802000Y-88545000D03*
D27*
G36*
X183552000Y-86545000D02*
G01*
X185252000Y-86545000D01*
X185252000Y-87545000D01*
X183552000Y-87545000D01*
X183052000Y-88045000D01*
X182252000Y-88045000D01*
X181752000Y-87545000D01*
X180052000Y-87545000D01*
X180052000Y-86545000D01*
X181752000Y-86545000D01*
X182252000Y-86045000D01*
X183052000Y-86045000D01*
X183552000Y-86545000D01*
G37*
D26*
X174452000Y-85545000D03*
X174452000Y-88545000D03*
X170752000Y-85545000D03*
X170752000Y-88545000D03*
D27*
G36*
X173502000Y-86545000D02*
G01*
X175202000Y-86545000D01*
X175202000Y-87545000D01*
X173502000Y-87545000D01*
X173002000Y-88045000D01*
X172202000Y-88045000D01*
X171702000Y-87545000D01*
X170002000Y-87545000D01*
X170002000Y-86545000D01*
X171702000Y-86545000D01*
X172202000Y-86045000D01*
X173002000Y-86045000D01*
X173502000Y-86545000D01*
G37*
D28*
X116272000Y-101625000D03*
X116272000Y-104165000D03*
X118812000Y-104165000D03*
X118812000Y-101625000D03*
X121352000Y-104165000D03*
X121352000Y-101625000D03*
X123892000Y-104165000D03*
X123892000Y-101625000D03*
X126432000Y-104165000D03*
X126432000Y-101625000D03*
X128972000Y-104165000D03*
X128972000Y-101625000D03*
X131512000Y-104165000D03*
X131512000Y-101625000D03*
X134052000Y-104165000D03*
X134052000Y-101625000D03*
X136592000Y-104165000D03*
X136592000Y-101625000D03*
X139132000Y-104165000D03*
X139132000Y-101625000D03*
X116272000Y-78765000D03*
X116272000Y-76225000D03*
X118812000Y-78765000D03*
X118812000Y-76225000D03*
X121352000Y-78765000D03*
X121352000Y-76225000D03*
X123892000Y-78765000D03*
X123892000Y-76225000D03*
X126432000Y-78765000D03*
X126432000Y-76225000D03*
X128972000Y-78765000D03*
X128972000Y-76225000D03*
X131512000Y-78765000D03*
X131512000Y-76225000D03*
X134052000Y-78765000D03*
X134052000Y-76225000D03*
X136592000Y-78765000D03*
X136592000Y-76225000D03*
X139132000Y-78765000D03*
X139132000Y-76225000D03*
M02*
