G04 #@! TF.GenerationSoftware,KiCad,Pcbnew,5.1.12-84ad8e8a86~92~ubuntu20.04.1*
G04 #@! TF.CreationDate,2021-11-09T21:57:18+01:00*
G04 #@! TF.ProjectId,CC dimmer low voltage,43432064-696d-46d6-9572-206c6f772076,0.82*
G04 #@! TF.SameCoordinates,Original*
G04 #@! TF.FileFunction,Soldermask,Top*
G04 #@! TF.FilePolarity,Negative*
%FSLAX46Y46*%
G04 Gerber Fmt 4.6, Leading zero omitted, Abs format (unit mm)*
G04 Created by KiCad (PCBNEW 5.1.12-84ad8e8a86~92~ubuntu20.04.1) date 2021-11-09 21:57:18*
%MOMM*%
%LPD*%
G01*
G04 APERTURE LIST*
%ADD10C,1.400000*%
%ADD11O,2.000000X1.905000*%
%ADD12R,2.000000X1.905000*%
%ADD13C,3.000000*%
%ADD14R,1.700000X1.700000*%
%ADD15C,3.200000*%
%ADD16R,1.800000X2.500000*%
%ADD17R,0.600000X0.450000*%
%ADD18O,1.700000X1.950000*%
%ADD19O,1.500000X1.050000*%
%ADD20R,1.500000X1.050000*%
%ADD21R,1.905000X2.000000*%
%ADD22O,1.905000X2.000000*%
%ADD23R,2.600000X2.600000*%
%ADD24C,2.600000*%
%ADD25C,2.500000*%
%ADD26R,2.500000X2.500000*%
%ADD27C,0.150000*%
%ADD28R,1.500000X0.700000*%
G04 APERTURE END LIST*
D10*
X128962000Y-95455000D03*
X128962000Y-97995000D03*
X126422000Y-95455000D03*
X126422000Y-97995000D03*
X123882000Y-95455000D03*
X123882000Y-97995000D03*
X121342000Y-95455000D03*
X121342000Y-97995000D03*
X118802000Y-95455000D03*
X118802000Y-97995000D03*
X116262000Y-95455000D03*
X116262000Y-97995000D03*
X113722000Y-95455000D03*
X113722000Y-97995000D03*
X111182000Y-95455000D03*
X111182000Y-97995000D03*
X108642000Y-95455000D03*
X108642000Y-97995000D03*
X106102000Y-95455000D03*
X106102000Y-97995000D03*
X128962000Y-120855000D03*
X128962000Y-123395000D03*
X126422000Y-120855000D03*
X126422000Y-123395000D03*
X123882000Y-120855000D03*
X123882000Y-123395000D03*
X121342000Y-120855000D03*
X121342000Y-123395000D03*
X118802000Y-120855000D03*
X118802000Y-123395000D03*
X116262000Y-120855000D03*
X116262000Y-123395000D03*
X113722000Y-120855000D03*
X113722000Y-123395000D03*
X111182000Y-120855000D03*
X111182000Y-123395000D03*
X108642000Y-120855000D03*
X108642000Y-123395000D03*
X106102000Y-123395000D03*
X106102000Y-120855000D03*
D11*
X137474200Y-78517000D03*
X137474200Y-75977000D03*
D12*
X137474200Y-73437000D03*
G36*
G01*
X156132000Y-94510000D02*
X156132000Y-95460000D01*
G75*
G02*
X155882000Y-95710000I-250000J0D01*
G01*
X155382000Y-95710000D01*
G75*
G02*
X155132000Y-95460000I0J250000D01*
G01*
X155132000Y-94510000D01*
G75*
G02*
X155382000Y-94260000I250000J0D01*
G01*
X155882000Y-94260000D01*
G75*
G02*
X156132000Y-94510000I0J-250000D01*
G01*
G37*
G36*
G01*
X158032000Y-94510000D02*
X158032000Y-95460000D01*
G75*
G02*
X157782000Y-95710000I-250000J0D01*
G01*
X157282000Y-95710000D01*
G75*
G02*
X157032000Y-95460000I0J250000D01*
G01*
X157032000Y-94510000D01*
G75*
G02*
X157282000Y-94260000I250000J0D01*
G01*
X157782000Y-94260000D01*
G75*
G02*
X158032000Y-94510000I0J-250000D01*
G01*
G37*
D13*
X132851400Y-75672200D03*
X110251400Y-75672200D03*
D14*
X149842000Y-112695000D03*
X149842000Y-106185000D03*
D15*
X198722000Y-72275000D03*
G36*
G01*
X156457000Y-83115000D02*
X155507000Y-83115000D01*
G75*
G02*
X155257000Y-82865000I0J250000D01*
G01*
X155257000Y-82365000D01*
G75*
G02*
X155507000Y-82115000I250000J0D01*
G01*
X156457000Y-82115000D01*
G75*
G02*
X156707000Y-82365000I0J-250000D01*
G01*
X156707000Y-82865000D01*
G75*
G02*
X156457000Y-83115000I-250000J0D01*
G01*
G37*
G36*
G01*
X156457000Y-81215000D02*
X155507000Y-81215000D01*
G75*
G02*
X155257000Y-80965000I0J250000D01*
G01*
X155257000Y-80465000D01*
G75*
G02*
X155507000Y-80215000I250000J0D01*
G01*
X156457000Y-80215000D01*
G75*
G02*
X156707000Y-80465000I0J-250000D01*
G01*
X156707000Y-80965000D01*
G75*
G02*
X156457000Y-81215000I-250000J0D01*
G01*
G37*
G36*
G01*
X168462000Y-94460000D02*
X168462000Y-95410000D01*
G75*
G02*
X168212000Y-95660000I-250000J0D01*
G01*
X167712000Y-95660000D01*
G75*
G02*
X167462000Y-95410000I0J250000D01*
G01*
X167462000Y-94460000D01*
G75*
G02*
X167712000Y-94210000I250000J0D01*
G01*
X168212000Y-94210000D01*
G75*
G02*
X168462000Y-94460000I0J-250000D01*
G01*
G37*
G36*
G01*
X166562000Y-94460000D02*
X166562000Y-95410000D01*
G75*
G02*
X166312000Y-95660000I-250000J0D01*
G01*
X165812000Y-95660000D01*
G75*
G02*
X165562000Y-95410000I0J250000D01*
G01*
X165562000Y-94460000D01*
G75*
G02*
X165812000Y-94210000I250000J0D01*
G01*
X166312000Y-94210000D01*
G75*
G02*
X166562000Y-94460000I0J-250000D01*
G01*
G37*
G36*
G01*
X166597000Y-83105000D02*
X165647000Y-83105000D01*
G75*
G02*
X165397000Y-82855000I0J250000D01*
G01*
X165397000Y-82355000D01*
G75*
G02*
X165647000Y-82105000I250000J0D01*
G01*
X166597000Y-82105000D01*
G75*
G02*
X166847000Y-82355000I0J-250000D01*
G01*
X166847000Y-82855000D01*
G75*
G02*
X166597000Y-83105000I-250000J0D01*
G01*
G37*
G36*
G01*
X166597000Y-81205000D02*
X165647000Y-81205000D01*
G75*
G02*
X165397000Y-80955000I0J250000D01*
G01*
X165397000Y-80455000D01*
G75*
G02*
X165647000Y-80205000I250000J0D01*
G01*
X166597000Y-80205000D01*
G75*
G02*
X166847000Y-80455000I0J-250000D01*
G01*
X166847000Y-80955000D01*
G75*
G02*
X166597000Y-81205000I-250000J0D01*
G01*
G37*
G36*
G01*
X178532000Y-94480000D02*
X178532000Y-95430000D01*
G75*
G02*
X178282000Y-95680000I-250000J0D01*
G01*
X177782000Y-95680000D01*
G75*
G02*
X177532000Y-95430000I0J250000D01*
G01*
X177532000Y-94480000D01*
G75*
G02*
X177782000Y-94230000I250000J0D01*
G01*
X178282000Y-94230000D01*
G75*
G02*
X178532000Y-94480000I0J-250000D01*
G01*
G37*
G36*
G01*
X176632000Y-94480000D02*
X176632000Y-95430000D01*
G75*
G02*
X176382000Y-95680000I-250000J0D01*
G01*
X175882000Y-95680000D01*
G75*
G02*
X175632000Y-95430000I0J250000D01*
G01*
X175632000Y-94480000D01*
G75*
G02*
X175882000Y-94230000I250000J0D01*
G01*
X176382000Y-94230000D01*
G75*
G02*
X176632000Y-94480000I0J-250000D01*
G01*
G37*
G36*
G01*
X176757000Y-81205000D02*
X175807000Y-81205000D01*
G75*
G02*
X175557000Y-80955000I0J250000D01*
G01*
X175557000Y-80455000D01*
G75*
G02*
X175807000Y-80205000I250000J0D01*
G01*
X176757000Y-80205000D01*
G75*
G02*
X177007000Y-80455000I0J-250000D01*
G01*
X177007000Y-80955000D01*
G75*
G02*
X176757000Y-81205000I-250000J0D01*
G01*
G37*
G36*
G01*
X176757000Y-83105000D02*
X175807000Y-83105000D01*
G75*
G02*
X175557000Y-82855000I0J250000D01*
G01*
X175557000Y-82355000D01*
G75*
G02*
X175807000Y-82105000I250000J0D01*
G01*
X176757000Y-82105000D01*
G75*
G02*
X177007000Y-82355000I0J-250000D01*
G01*
X177007000Y-82855000D01*
G75*
G02*
X176757000Y-83105000I-250000J0D01*
G01*
G37*
G36*
G01*
X186812000Y-94510000D02*
X186812000Y-95460000D01*
G75*
G02*
X186562000Y-95710000I-250000J0D01*
G01*
X186062000Y-95710000D01*
G75*
G02*
X185812000Y-95460000I0J250000D01*
G01*
X185812000Y-94510000D01*
G75*
G02*
X186062000Y-94260000I250000J0D01*
G01*
X186562000Y-94260000D01*
G75*
G02*
X186812000Y-94510000I0J-250000D01*
G01*
G37*
G36*
G01*
X188712000Y-94510000D02*
X188712000Y-95460000D01*
G75*
G02*
X188462000Y-95710000I-250000J0D01*
G01*
X187962000Y-95710000D01*
G75*
G02*
X187712000Y-95460000I0J250000D01*
G01*
X187712000Y-94510000D01*
G75*
G02*
X187962000Y-94260000I250000J0D01*
G01*
X188462000Y-94260000D01*
G75*
G02*
X188712000Y-94510000I0J-250000D01*
G01*
G37*
G36*
G01*
X186987000Y-83095000D02*
X186037000Y-83095000D01*
G75*
G02*
X185787000Y-82845000I0J250000D01*
G01*
X185787000Y-82345000D01*
G75*
G02*
X186037000Y-82095000I250000J0D01*
G01*
X186987000Y-82095000D01*
G75*
G02*
X187237000Y-82345000I0J-250000D01*
G01*
X187237000Y-82845000D01*
G75*
G02*
X186987000Y-83095000I-250000J0D01*
G01*
G37*
G36*
G01*
X186987000Y-81195000D02*
X186037000Y-81195000D01*
G75*
G02*
X185787000Y-80945000I0J250000D01*
G01*
X185787000Y-80445000D01*
G75*
G02*
X186037000Y-80195000I250000J0D01*
G01*
X186987000Y-80195000D01*
G75*
G02*
X187237000Y-80445000I0J-250000D01*
G01*
X187237000Y-80945000D01*
G75*
G02*
X186987000Y-81195000I-250000J0D01*
G01*
G37*
G36*
G01*
X148532000Y-82075000D02*
X146532000Y-82075000D01*
G75*
G02*
X146282000Y-81825000I0J250000D01*
G01*
X146282000Y-78325000D01*
G75*
G02*
X146532000Y-78075000I250000J0D01*
G01*
X148532000Y-78075000D01*
G75*
G02*
X148782000Y-78325000I0J-250000D01*
G01*
X148782000Y-81825000D01*
G75*
G02*
X148532000Y-82075000I-250000J0D01*
G01*
G37*
G36*
G01*
X148532000Y-74075000D02*
X146532000Y-74075000D01*
G75*
G02*
X146282000Y-73825000I0J250000D01*
G01*
X146282000Y-70325000D01*
G75*
G02*
X146532000Y-70075000I250000J0D01*
G01*
X148532000Y-70075000D01*
G75*
G02*
X148782000Y-70325000I0J-250000D01*
G01*
X148782000Y-73825000D01*
G75*
G02*
X148532000Y-74075000I-250000J0D01*
G01*
G37*
G36*
G01*
X126657200Y-85311800D02*
X126657200Y-86411800D01*
G75*
G02*
X126407200Y-86661800I-250000J0D01*
G01*
X123407200Y-86661800D01*
G75*
G02*
X123157200Y-86411800I0J250000D01*
G01*
X123157200Y-85311800D01*
G75*
G02*
X123407200Y-85061800I250000J0D01*
G01*
X126407200Y-85061800D01*
G75*
G02*
X126657200Y-85311800I0J-250000D01*
G01*
G37*
G36*
G01*
X121057200Y-85311800D02*
X121057200Y-86411800D01*
G75*
G02*
X120807200Y-86661800I-250000J0D01*
G01*
X117807200Y-86661800D01*
G75*
G02*
X117557200Y-86411800I0J250000D01*
G01*
X117557200Y-85311800D01*
G75*
G02*
X117807200Y-85061800I250000J0D01*
G01*
X120807200Y-85061800D01*
G75*
G02*
X121057200Y-85311800I0J-250000D01*
G01*
G37*
G36*
G01*
X115063800Y-86981600D02*
X114113800Y-86981600D01*
G75*
G02*
X113863800Y-86731600I0J250000D01*
G01*
X113863800Y-86231600D01*
G75*
G02*
X114113800Y-85981600I250000J0D01*
G01*
X115063800Y-85981600D01*
G75*
G02*
X115313800Y-86231600I0J-250000D01*
G01*
X115313800Y-86731600D01*
G75*
G02*
X115063800Y-86981600I-250000J0D01*
G01*
G37*
G36*
G01*
X115063800Y-85081600D02*
X114113800Y-85081600D01*
G75*
G02*
X113863800Y-84831600I0J250000D01*
G01*
X113863800Y-84331600D01*
G75*
G02*
X114113800Y-84081600I250000J0D01*
G01*
X115063800Y-84081600D01*
G75*
G02*
X115313800Y-84331600I0J-250000D01*
G01*
X115313800Y-84831600D01*
G75*
G02*
X115063800Y-85081600I-250000J0D01*
G01*
G37*
D16*
X162932000Y-94865000D03*
X162932000Y-90865000D03*
X173202000Y-94885000D03*
X173202000Y-90885000D03*
X183272000Y-94875000D03*
X183272000Y-90875000D03*
X193742000Y-90905000D03*
X193742000Y-94905000D03*
D17*
X137457400Y-84388600D03*
X135357400Y-84388600D03*
G36*
G01*
X100227800Y-89436200D02*
X98977800Y-89436200D01*
G75*
G02*
X98727800Y-89186200I0J250000D01*
G01*
X98727800Y-88436200D01*
G75*
G02*
X98977800Y-88186200I250000J0D01*
G01*
X100227800Y-88186200D01*
G75*
G02*
X100477800Y-88436200I0J-250000D01*
G01*
X100477800Y-89186200D01*
G75*
G02*
X100227800Y-89436200I-250000J0D01*
G01*
G37*
G36*
G01*
X100227800Y-86636200D02*
X98977800Y-86636200D01*
G75*
G02*
X98727800Y-86386200I0J250000D01*
G01*
X98727800Y-85636200D01*
G75*
G02*
X98977800Y-85386200I250000J0D01*
G01*
X100227800Y-85386200D01*
G75*
G02*
X100477800Y-85636200I0J-250000D01*
G01*
X100477800Y-86386200D01*
G75*
G02*
X100227800Y-86636200I-250000J0D01*
G01*
G37*
G36*
G01*
X128235799Y-85776400D02*
X129135801Y-85776400D01*
G75*
G02*
X129385800Y-86026399I0J-249999D01*
G01*
X129385800Y-86726401D01*
G75*
G02*
X129135801Y-86976400I-249999J0D01*
G01*
X128235799Y-86976400D01*
G75*
G02*
X127985800Y-86726401I0J249999D01*
G01*
X127985800Y-86026399D01*
G75*
G02*
X128235799Y-85776400I249999J0D01*
G01*
G37*
G36*
G01*
X128235799Y-87776400D02*
X129135801Y-87776400D01*
G75*
G02*
X129385800Y-88026399I0J-249999D01*
G01*
X129385800Y-88726401D01*
G75*
G02*
X129135801Y-88976400I-249999J0D01*
G01*
X128235799Y-88976400D01*
G75*
G02*
X127985800Y-88726401I0J249999D01*
G01*
X127985800Y-88026399D01*
G75*
G02*
X128235799Y-87776400I249999J0D01*
G01*
G37*
D15*
X198752000Y-122805000D03*
G36*
G01*
X138532000Y-99300000D02*
X138532000Y-97850000D01*
G75*
G02*
X138782000Y-97600000I250000J0D01*
G01*
X139982000Y-97600000D01*
G75*
G02*
X140232000Y-97850000I0J-250000D01*
G01*
X140232000Y-99300000D01*
G75*
G02*
X139982000Y-99550000I-250000J0D01*
G01*
X138782000Y-99550000D01*
G75*
G02*
X138532000Y-99300000I0J250000D01*
G01*
G37*
D18*
X141882000Y-98575000D03*
X144382000Y-98575000D03*
G36*
G01*
X138412000Y-120190000D02*
X138412000Y-118740000D01*
G75*
G02*
X138662000Y-118490000I250000J0D01*
G01*
X139862000Y-118490000D01*
G75*
G02*
X140112000Y-118740000I0J-250000D01*
G01*
X140112000Y-120190000D01*
G75*
G02*
X139862000Y-120440000I-250000J0D01*
G01*
X138662000Y-120440000D01*
G75*
G02*
X138412000Y-120190000I0J250000D01*
G01*
G37*
X141762000Y-119465000D03*
X144262000Y-119465000D03*
X146762000Y-119465000D03*
D14*
X147302000Y-106185000D03*
X147302000Y-112695000D03*
X115402000Y-89895000D03*
G36*
G01*
X155336997Y-83910000D02*
X156587003Y-83910000D01*
G75*
G02*
X156837000Y-84159997I0J-249997D01*
G01*
X156837000Y-84785003D01*
G75*
G02*
X156587003Y-85035000I-249997J0D01*
G01*
X155336997Y-85035000D01*
G75*
G02*
X155087000Y-84785003I0J249997D01*
G01*
X155087000Y-84159997D01*
G75*
G02*
X155336997Y-83910000I249997J0D01*
G01*
G37*
G36*
G01*
X155336997Y-86835000D02*
X156587003Y-86835000D01*
G75*
G02*
X156837000Y-87084997I0J-249997D01*
G01*
X156837000Y-87710003D01*
G75*
G02*
X156587003Y-87960000I-249997J0D01*
G01*
X155336997Y-87960000D01*
G75*
G02*
X155087000Y-87710003I0J249997D01*
G01*
X155087000Y-87084997D01*
G75*
G02*
X155336997Y-86835000I249997J0D01*
G01*
G37*
G36*
G01*
X165486997Y-86815000D02*
X166737003Y-86815000D01*
G75*
G02*
X166987000Y-87064997I0J-249997D01*
G01*
X166987000Y-87690003D01*
G75*
G02*
X166737003Y-87940000I-249997J0D01*
G01*
X165486997Y-87940000D01*
G75*
G02*
X165237000Y-87690003I0J249997D01*
G01*
X165237000Y-87064997D01*
G75*
G02*
X165486997Y-86815000I249997J0D01*
G01*
G37*
G36*
G01*
X165486997Y-83890000D02*
X166737003Y-83890000D01*
G75*
G02*
X166987000Y-84139997I0J-249997D01*
G01*
X166987000Y-84765003D01*
G75*
G02*
X166737003Y-85015000I-249997J0D01*
G01*
X165486997Y-85015000D01*
G75*
G02*
X165237000Y-84765003I0J249997D01*
G01*
X165237000Y-84139997D01*
G75*
G02*
X165486997Y-83890000I249997J0D01*
G01*
G37*
G36*
G01*
X175646997Y-86805000D02*
X176897003Y-86805000D01*
G75*
G02*
X177147000Y-87054997I0J-249997D01*
G01*
X177147000Y-87680003D01*
G75*
G02*
X176897003Y-87930000I-249997J0D01*
G01*
X175646997Y-87930000D01*
G75*
G02*
X175397000Y-87680003I0J249997D01*
G01*
X175397000Y-87054997D01*
G75*
G02*
X175646997Y-86805000I249997J0D01*
G01*
G37*
G36*
G01*
X175646997Y-83880000D02*
X176897003Y-83880000D01*
G75*
G02*
X177147000Y-84129997I0J-249997D01*
G01*
X177147000Y-84755003D01*
G75*
G02*
X176897003Y-85005000I-249997J0D01*
G01*
X175646997Y-85005000D01*
G75*
G02*
X175397000Y-84755003I0J249997D01*
G01*
X175397000Y-84129997D01*
G75*
G02*
X175646997Y-83880000I249997J0D01*
G01*
G37*
G36*
G01*
X185886997Y-83880000D02*
X187137003Y-83880000D01*
G75*
G02*
X187387000Y-84129997I0J-249997D01*
G01*
X187387000Y-84755003D01*
G75*
G02*
X187137003Y-85005000I-249997J0D01*
G01*
X185886997Y-85005000D01*
G75*
G02*
X185637000Y-84755003I0J249997D01*
G01*
X185637000Y-84129997D01*
G75*
G02*
X185886997Y-83880000I249997J0D01*
G01*
G37*
G36*
G01*
X185886997Y-86805000D02*
X187137003Y-86805000D01*
G75*
G02*
X187387000Y-87054997I0J-249997D01*
G01*
X187387000Y-87680003D01*
G75*
G02*
X187137003Y-87930000I-249997J0D01*
G01*
X185886997Y-87930000D01*
G75*
G02*
X185637000Y-87680003I0J249997D01*
G01*
X185637000Y-87054997D01*
G75*
G02*
X185886997Y-86805000I249997J0D01*
G01*
G37*
G36*
G01*
X111243198Y-85960800D02*
X112143202Y-85960800D01*
G75*
G02*
X112393200Y-86210798I0J-249998D01*
G01*
X112393200Y-86735802D01*
G75*
G02*
X112143202Y-86985800I-249998J0D01*
G01*
X111243198Y-86985800D01*
G75*
G02*
X110993200Y-86735802I0J249998D01*
G01*
X110993200Y-86210798D01*
G75*
G02*
X111243198Y-85960800I249998J0D01*
G01*
G37*
G36*
G01*
X111243198Y-87785800D02*
X112143202Y-87785800D01*
G75*
G02*
X112393200Y-88035798I0J-249998D01*
G01*
X112393200Y-88560802D01*
G75*
G02*
X112143202Y-88810800I-249998J0D01*
G01*
X111243198Y-88810800D01*
G75*
G02*
X110993200Y-88560802I0J249998D01*
G01*
X110993200Y-88035798D01*
G75*
G02*
X111243198Y-87785800I249998J0D01*
G01*
G37*
G36*
G01*
X132045000Y-83938598D02*
X132045000Y-84838602D01*
G75*
G02*
X131795002Y-85088600I-249998J0D01*
G01*
X131269998Y-85088600D01*
G75*
G02*
X131020000Y-84838602I0J249998D01*
G01*
X131020000Y-83938598D01*
G75*
G02*
X131269998Y-83688600I249998J0D01*
G01*
X131795002Y-83688600D01*
G75*
G02*
X132045000Y-83938598I0J-249998D01*
G01*
G37*
G36*
G01*
X133870000Y-83938598D02*
X133870000Y-84838602D01*
G75*
G02*
X133620002Y-85088600I-249998J0D01*
G01*
X133094998Y-85088600D01*
G75*
G02*
X132845000Y-84838602I0J249998D01*
G01*
X132845000Y-83938598D01*
G75*
G02*
X133094998Y-83688600I249998J0D01*
G01*
X133620002Y-83688600D01*
G75*
G02*
X133870000Y-83938598I0J-249998D01*
G01*
G37*
G36*
G01*
X103481802Y-88226600D02*
X102581798Y-88226600D01*
G75*
G02*
X102331800Y-87976602I0J249998D01*
G01*
X102331800Y-87451598D01*
G75*
G02*
X102581798Y-87201600I249998J0D01*
G01*
X103481802Y-87201600D01*
G75*
G02*
X103731800Y-87451598I0J-249998D01*
G01*
X103731800Y-87976602D01*
G75*
G02*
X103481802Y-88226600I-249998J0D01*
G01*
G37*
G36*
G01*
X103481802Y-86401600D02*
X102581798Y-86401600D01*
G75*
G02*
X102331800Y-86151602I0J249998D01*
G01*
X102331800Y-85626598D01*
G75*
G02*
X102581798Y-85376600I249998J0D01*
G01*
X103481802Y-85376600D01*
G75*
G02*
X103731800Y-85626598I0J-249998D01*
G01*
X103731800Y-86151602D01*
G75*
G02*
X103481802Y-86401600I-249998J0D01*
G01*
G37*
D19*
X107959400Y-87716000D03*
X107959400Y-86446000D03*
D20*
X107959400Y-88986000D03*
D21*
X138160000Y-88401800D03*
D22*
X135620000Y-88401800D03*
X133080000Y-88401800D03*
D23*
X103052000Y-73715000D03*
D24*
X103052000Y-78715000D03*
D25*
X157242000Y-75187000D03*
D26*
X162322000Y-75187000D03*
X172472000Y-75185000D03*
D25*
X167392000Y-75185000D03*
X177542000Y-75175000D03*
D26*
X182622000Y-75175000D03*
X192772000Y-75165000D03*
D25*
X187692000Y-75165000D03*
D27*
G36*
X156832000Y-91515000D02*
G01*
X155132000Y-91515000D01*
X155132000Y-90515000D01*
X156832000Y-90515000D01*
X157332000Y-90015000D01*
X158132000Y-90015000D01*
X158632000Y-90515000D01*
X160332000Y-90515000D01*
X160332000Y-91515000D01*
X158632000Y-91515000D01*
X158132000Y-92015000D01*
X157332000Y-92015000D01*
X156832000Y-91515000D01*
G37*
D28*
X159582000Y-89515000D03*
X159582000Y-92515000D03*
X155882000Y-89515000D03*
X155882000Y-92515000D03*
D27*
G36*
X167262000Y-91515000D02*
G01*
X165562000Y-91515000D01*
X165562000Y-90515000D01*
X167262000Y-90515000D01*
X167762000Y-90015000D01*
X168562000Y-90015000D01*
X169062000Y-90515000D01*
X170762000Y-90515000D01*
X170762000Y-91515000D01*
X169062000Y-91515000D01*
X168562000Y-92015000D01*
X167762000Y-92015000D01*
X167262000Y-91515000D01*
G37*
D28*
X170012000Y-89515000D03*
X170012000Y-92515000D03*
X166312000Y-89515000D03*
X166312000Y-92515000D03*
D27*
G36*
X177322000Y-91505000D02*
G01*
X175622000Y-91505000D01*
X175622000Y-90505000D01*
X177322000Y-90505000D01*
X177822000Y-90005000D01*
X178622000Y-90005000D01*
X179122000Y-90505000D01*
X180822000Y-90505000D01*
X180822000Y-91505000D01*
X179122000Y-91505000D01*
X178622000Y-92005000D01*
X177822000Y-92005000D01*
X177322000Y-91505000D01*
G37*
D28*
X180072000Y-89505000D03*
X180072000Y-92505000D03*
X176372000Y-89505000D03*
X176372000Y-92505000D03*
D27*
G36*
X187472000Y-91505000D02*
G01*
X185772000Y-91505000D01*
X185772000Y-90505000D01*
X187472000Y-90505000D01*
X187972000Y-90005000D01*
X188772000Y-90005000D01*
X189272000Y-90505000D01*
X190972000Y-90505000D01*
X190972000Y-91505000D01*
X189272000Y-91505000D01*
X188772000Y-92005000D01*
X187972000Y-92005000D01*
X187472000Y-91505000D01*
G37*
D28*
X190222000Y-89505000D03*
X190222000Y-92505000D03*
X186522000Y-89505000D03*
X186522000Y-92505000D03*
G36*
G01*
X161757000Y-87965000D02*
X160307000Y-87965000D01*
G75*
G02*
X159932000Y-87590000I0J375000D01*
G01*
X159932000Y-86840000D01*
G75*
G02*
X160307000Y-86465000I375000J0D01*
G01*
X161757000Y-86465000D01*
G75*
G02*
X162132000Y-86840000I0J-375000D01*
G01*
X162132000Y-87590000D01*
G75*
G02*
X161757000Y-87965000I-375000J0D01*
G01*
G37*
G36*
G01*
X161757000Y-81665000D02*
X160307000Y-81665000D01*
G75*
G02*
X159932000Y-81290000I0J375000D01*
G01*
X159932000Y-80540000D01*
G75*
G02*
X160307000Y-80165000I375000J0D01*
G01*
X161757000Y-80165000D01*
G75*
G02*
X162132000Y-80540000I0J-375000D01*
G01*
X162132000Y-81290000D01*
G75*
G02*
X161757000Y-81665000I-375000J0D01*
G01*
G37*
G36*
G01*
X171957000Y-87945000D02*
X170507000Y-87945000D01*
G75*
G02*
X170132000Y-87570000I0J375000D01*
G01*
X170132000Y-86820000D01*
G75*
G02*
X170507000Y-86445000I375000J0D01*
G01*
X171957000Y-86445000D01*
G75*
G02*
X172332000Y-86820000I0J-375000D01*
G01*
X172332000Y-87570000D01*
G75*
G02*
X171957000Y-87945000I-375000J0D01*
G01*
G37*
G36*
G01*
X171957000Y-81645000D02*
X170507000Y-81645000D01*
G75*
G02*
X170132000Y-81270000I0J375000D01*
G01*
X170132000Y-80520000D01*
G75*
G02*
X170507000Y-80145000I375000J0D01*
G01*
X171957000Y-80145000D01*
G75*
G02*
X172332000Y-80520000I0J-375000D01*
G01*
X172332000Y-81270000D01*
G75*
G02*
X171957000Y-81645000I-375000J0D01*
G01*
G37*
G36*
G01*
X182047000Y-81645000D02*
X180597000Y-81645000D01*
G75*
G02*
X180222000Y-81270000I0J375000D01*
G01*
X180222000Y-80520000D01*
G75*
G02*
X180597000Y-80145000I375000J0D01*
G01*
X182047000Y-80145000D01*
G75*
G02*
X182422000Y-80520000I0J-375000D01*
G01*
X182422000Y-81270000D01*
G75*
G02*
X182047000Y-81645000I-375000J0D01*
G01*
G37*
G36*
G01*
X182047000Y-87945000D02*
X180597000Y-87945000D01*
G75*
G02*
X180222000Y-87570000I0J375000D01*
G01*
X180222000Y-86820000D01*
G75*
G02*
X180597000Y-86445000I375000J0D01*
G01*
X182047000Y-86445000D01*
G75*
G02*
X182422000Y-86820000I0J-375000D01*
G01*
X182422000Y-87570000D01*
G75*
G02*
X182047000Y-87945000I-375000J0D01*
G01*
G37*
G36*
G01*
X192437000Y-87955000D02*
X190987000Y-87955000D01*
G75*
G02*
X190612000Y-87580000I0J375000D01*
G01*
X190612000Y-86830000D01*
G75*
G02*
X190987000Y-86455000I375000J0D01*
G01*
X192437000Y-86455000D01*
G75*
G02*
X192812000Y-86830000I0J-375000D01*
G01*
X192812000Y-87580000D01*
G75*
G02*
X192437000Y-87955000I-375000J0D01*
G01*
G37*
G36*
G01*
X192437000Y-81655000D02*
X190987000Y-81655000D01*
G75*
G02*
X190612000Y-81280000I0J375000D01*
G01*
X190612000Y-80530000D01*
G75*
G02*
X190987000Y-80155000I375000J0D01*
G01*
X192437000Y-80155000D01*
G75*
G02*
X192812000Y-80530000I0J-375000D01*
G01*
X192812000Y-81280000D01*
G75*
G02*
X192437000Y-81655000I-375000J0D01*
G01*
G37*
G36*
G01*
X192342000Y-101140000D02*
X192342000Y-100190000D01*
G75*
G02*
X192592000Y-99940000I250000J0D01*
G01*
X193092000Y-99940000D01*
G75*
G02*
X193342000Y-100190000I0J-250000D01*
G01*
X193342000Y-101140000D01*
G75*
G02*
X193092000Y-101390000I-250000J0D01*
G01*
X192592000Y-101390000D01*
G75*
G02*
X192342000Y-101140000I0J250000D01*
G01*
G37*
G36*
G01*
X194242000Y-101140000D02*
X194242000Y-100190000D01*
G75*
G02*
X194492000Y-99940000I250000J0D01*
G01*
X194992000Y-99940000D01*
G75*
G02*
X195242000Y-100190000I0J-250000D01*
G01*
X195242000Y-101140000D01*
G75*
G02*
X194992000Y-101390000I-250000J0D01*
G01*
X194492000Y-101390000D01*
G75*
G02*
X194242000Y-101140000I0J250000D01*
G01*
G37*
G36*
G01*
X193917000Y-114205000D02*
X194867000Y-114205000D01*
G75*
G02*
X195117000Y-114455000I0J-250000D01*
G01*
X195117000Y-114955000D01*
G75*
G02*
X194867000Y-115205000I-250000J0D01*
G01*
X193917000Y-115205000D01*
G75*
G02*
X193667000Y-114955000I0J250000D01*
G01*
X193667000Y-114455000D01*
G75*
G02*
X193917000Y-114205000I250000J0D01*
G01*
G37*
G36*
G01*
X193917000Y-112305000D02*
X194867000Y-112305000D01*
G75*
G02*
X195117000Y-112555000I0J-250000D01*
G01*
X195117000Y-113055000D01*
G75*
G02*
X194867000Y-113305000I-250000J0D01*
G01*
X193917000Y-113305000D01*
G75*
G02*
X193667000Y-113055000I0J250000D01*
G01*
X193667000Y-112555000D01*
G75*
G02*
X193917000Y-112305000I250000J0D01*
G01*
G37*
G36*
G01*
X182122000Y-101100000D02*
X182122000Y-100150000D01*
G75*
G02*
X182372000Y-99900000I250000J0D01*
G01*
X182872000Y-99900000D01*
G75*
G02*
X183122000Y-100150000I0J-250000D01*
G01*
X183122000Y-101100000D01*
G75*
G02*
X182872000Y-101350000I-250000J0D01*
G01*
X182372000Y-101350000D01*
G75*
G02*
X182122000Y-101100000I0J250000D01*
G01*
G37*
G36*
G01*
X184022000Y-101100000D02*
X184022000Y-100150000D01*
G75*
G02*
X184272000Y-99900000I250000J0D01*
G01*
X184772000Y-99900000D01*
G75*
G02*
X185022000Y-100150000I0J-250000D01*
G01*
X185022000Y-101100000D01*
G75*
G02*
X184772000Y-101350000I-250000J0D01*
G01*
X184272000Y-101350000D01*
G75*
G02*
X184022000Y-101100000I0J250000D01*
G01*
G37*
G36*
G01*
X183707000Y-114205000D02*
X184657000Y-114205000D01*
G75*
G02*
X184907000Y-114455000I0J-250000D01*
G01*
X184907000Y-114955000D01*
G75*
G02*
X184657000Y-115205000I-250000J0D01*
G01*
X183707000Y-115205000D01*
G75*
G02*
X183457000Y-114955000I0J250000D01*
G01*
X183457000Y-114455000D01*
G75*
G02*
X183707000Y-114205000I250000J0D01*
G01*
G37*
G36*
G01*
X183707000Y-112305000D02*
X184657000Y-112305000D01*
G75*
G02*
X184907000Y-112555000I0J-250000D01*
G01*
X184907000Y-113055000D01*
G75*
G02*
X184657000Y-113305000I-250000J0D01*
G01*
X183707000Y-113305000D01*
G75*
G02*
X183457000Y-113055000I0J250000D01*
G01*
X183457000Y-112555000D01*
G75*
G02*
X183707000Y-112305000I250000J0D01*
G01*
G37*
G36*
G01*
X171972000Y-101140000D02*
X171972000Y-100190000D01*
G75*
G02*
X172222000Y-99940000I250000J0D01*
G01*
X172722000Y-99940000D01*
G75*
G02*
X172972000Y-100190000I0J-250000D01*
G01*
X172972000Y-101140000D01*
G75*
G02*
X172722000Y-101390000I-250000J0D01*
G01*
X172222000Y-101390000D01*
G75*
G02*
X171972000Y-101140000I0J250000D01*
G01*
G37*
G36*
G01*
X173872000Y-101140000D02*
X173872000Y-100190000D01*
G75*
G02*
X174122000Y-99940000I250000J0D01*
G01*
X174622000Y-99940000D01*
G75*
G02*
X174872000Y-100190000I0J-250000D01*
G01*
X174872000Y-101140000D01*
G75*
G02*
X174622000Y-101390000I-250000J0D01*
G01*
X174122000Y-101390000D01*
G75*
G02*
X173872000Y-101140000I0J250000D01*
G01*
G37*
G36*
G01*
X173557000Y-114195000D02*
X174507000Y-114195000D01*
G75*
G02*
X174757000Y-114445000I0J-250000D01*
G01*
X174757000Y-114945000D01*
G75*
G02*
X174507000Y-115195000I-250000J0D01*
G01*
X173557000Y-115195000D01*
G75*
G02*
X173307000Y-114945000I0J250000D01*
G01*
X173307000Y-114445000D01*
G75*
G02*
X173557000Y-114195000I250000J0D01*
G01*
G37*
G36*
G01*
X173557000Y-112295000D02*
X174507000Y-112295000D01*
G75*
G02*
X174757000Y-112545000I0J-250000D01*
G01*
X174757000Y-113045000D01*
G75*
G02*
X174507000Y-113295000I-250000J0D01*
G01*
X173557000Y-113295000D01*
G75*
G02*
X173307000Y-113045000I0J250000D01*
G01*
X173307000Y-112545000D01*
G75*
G02*
X173557000Y-112295000I250000J0D01*
G01*
G37*
G36*
G01*
X161792000Y-101080000D02*
X161792000Y-100130000D01*
G75*
G02*
X162042000Y-99880000I250000J0D01*
G01*
X162542000Y-99880000D01*
G75*
G02*
X162792000Y-100130000I0J-250000D01*
G01*
X162792000Y-101080000D01*
G75*
G02*
X162542000Y-101330000I-250000J0D01*
G01*
X162042000Y-101330000D01*
G75*
G02*
X161792000Y-101080000I0J250000D01*
G01*
G37*
G36*
G01*
X163692000Y-101080000D02*
X163692000Y-100130000D01*
G75*
G02*
X163942000Y-99880000I250000J0D01*
G01*
X164442000Y-99880000D01*
G75*
G02*
X164692000Y-100130000I0J-250000D01*
G01*
X164692000Y-101080000D01*
G75*
G02*
X164442000Y-101330000I-250000J0D01*
G01*
X163942000Y-101330000D01*
G75*
G02*
X163692000Y-101080000I0J250000D01*
G01*
G37*
G36*
G01*
X163327000Y-114195000D02*
X164277000Y-114195000D01*
G75*
G02*
X164527000Y-114445000I0J-250000D01*
G01*
X164527000Y-114945000D01*
G75*
G02*
X164277000Y-115195000I-250000J0D01*
G01*
X163327000Y-115195000D01*
G75*
G02*
X163077000Y-114945000I0J250000D01*
G01*
X163077000Y-114445000D01*
G75*
G02*
X163327000Y-114195000I250000J0D01*
G01*
G37*
G36*
G01*
X163327000Y-112295000D02*
X164277000Y-112295000D01*
G75*
G02*
X164527000Y-112545000I0J-250000D01*
G01*
X164527000Y-113045000D01*
G75*
G02*
X164277000Y-113295000I-250000J0D01*
G01*
X163327000Y-113295000D01*
G75*
G02*
X163077000Y-113045000I0J250000D01*
G01*
X163077000Y-112545000D01*
G75*
G02*
X163327000Y-112295000I250000J0D01*
G01*
G37*
D16*
X187562000Y-104725000D03*
X187562000Y-100725000D03*
X177372000Y-104755000D03*
X177372000Y-100755000D03*
X167192000Y-100755000D03*
X167192000Y-104755000D03*
X156902000Y-100735000D03*
X156902000Y-104735000D03*
G36*
G01*
X188577000Y-107425000D02*
X190027000Y-107425000D01*
G75*
G02*
X190402000Y-107800000I0J-375000D01*
G01*
X190402000Y-108550000D01*
G75*
G02*
X190027000Y-108925000I-375000J0D01*
G01*
X188577000Y-108925000D01*
G75*
G02*
X188202000Y-108550000I0J375000D01*
G01*
X188202000Y-107800000D01*
G75*
G02*
X188577000Y-107425000I375000J0D01*
G01*
G37*
G36*
G01*
X188577000Y-113725000D02*
X190027000Y-113725000D01*
G75*
G02*
X190402000Y-114100000I0J-375000D01*
G01*
X190402000Y-114850000D01*
G75*
G02*
X190027000Y-115225000I-375000J0D01*
G01*
X188577000Y-115225000D01*
G75*
G02*
X188202000Y-114850000I0J375000D01*
G01*
X188202000Y-114100000D01*
G75*
G02*
X188577000Y-113725000I375000J0D01*
G01*
G37*
G36*
G01*
X178377000Y-113725000D02*
X179827000Y-113725000D01*
G75*
G02*
X180202000Y-114100000I0J-375000D01*
G01*
X180202000Y-114850000D01*
G75*
G02*
X179827000Y-115225000I-375000J0D01*
G01*
X178377000Y-115225000D01*
G75*
G02*
X178002000Y-114850000I0J375000D01*
G01*
X178002000Y-114100000D01*
G75*
G02*
X178377000Y-113725000I375000J0D01*
G01*
G37*
G36*
G01*
X178377000Y-107425000D02*
X179827000Y-107425000D01*
G75*
G02*
X180202000Y-107800000I0J-375000D01*
G01*
X180202000Y-108550000D01*
G75*
G02*
X179827000Y-108925000I-375000J0D01*
G01*
X178377000Y-108925000D01*
G75*
G02*
X178002000Y-108550000I0J375000D01*
G01*
X178002000Y-107800000D01*
G75*
G02*
X178377000Y-107425000I375000J0D01*
G01*
G37*
G36*
G01*
X168187000Y-107425000D02*
X169637000Y-107425000D01*
G75*
G02*
X170012000Y-107800000I0J-375000D01*
G01*
X170012000Y-108550000D01*
G75*
G02*
X169637000Y-108925000I-375000J0D01*
G01*
X168187000Y-108925000D01*
G75*
G02*
X167812000Y-108550000I0J375000D01*
G01*
X167812000Y-107800000D01*
G75*
G02*
X168187000Y-107425000I375000J0D01*
G01*
G37*
G36*
G01*
X168187000Y-113725000D02*
X169637000Y-113725000D01*
G75*
G02*
X170012000Y-114100000I0J-375000D01*
G01*
X170012000Y-114850000D01*
G75*
G02*
X169637000Y-115225000I-375000J0D01*
G01*
X168187000Y-115225000D01*
G75*
G02*
X167812000Y-114850000I0J375000D01*
G01*
X167812000Y-114100000D01*
G75*
G02*
X168187000Y-113725000I375000J0D01*
G01*
G37*
G36*
G01*
X157997000Y-113715000D02*
X159447000Y-113715000D01*
G75*
G02*
X159822000Y-114090000I0J-375000D01*
G01*
X159822000Y-114840000D01*
G75*
G02*
X159447000Y-115215000I-375000J0D01*
G01*
X157997000Y-115215000D01*
G75*
G02*
X157622000Y-114840000I0J375000D01*
G01*
X157622000Y-114090000D01*
G75*
G02*
X157997000Y-113715000I375000J0D01*
G01*
G37*
G36*
G01*
X157997000Y-107415000D02*
X159447000Y-107415000D01*
G75*
G02*
X159822000Y-107790000I0J-375000D01*
G01*
X159822000Y-108540000D01*
G75*
G02*
X159447000Y-108915000I-375000J0D01*
G01*
X157997000Y-108915000D01*
G75*
G02*
X157622000Y-108540000I0J375000D01*
G01*
X157622000Y-107790000D01*
G75*
G02*
X157997000Y-107415000I375000J0D01*
G01*
G37*
D26*
X187912000Y-120225000D03*
D25*
X192992000Y-120225000D03*
X182822000Y-120225000D03*
D26*
X177742000Y-120225000D03*
X167572000Y-120225000D03*
D25*
X172652000Y-120225000D03*
X162472000Y-120225000D03*
D26*
X157392000Y-120225000D03*
G36*
G01*
X195017003Y-111530000D02*
X193766997Y-111530000D01*
G75*
G02*
X193517000Y-111280003I0J249997D01*
G01*
X193517000Y-110654997D01*
G75*
G02*
X193766997Y-110405000I249997J0D01*
G01*
X195017003Y-110405000D01*
G75*
G02*
X195267000Y-110654997I0J-249997D01*
G01*
X195267000Y-111280003D01*
G75*
G02*
X195017003Y-111530000I-249997J0D01*
G01*
G37*
G36*
G01*
X195017003Y-108605000D02*
X193766997Y-108605000D01*
G75*
G02*
X193517000Y-108355003I0J249997D01*
G01*
X193517000Y-107729997D01*
G75*
G02*
X193766997Y-107480000I249997J0D01*
G01*
X195017003Y-107480000D01*
G75*
G02*
X195267000Y-107729997I0J-249997D01*
G01*
X195267000Y-108355003D01*
G75*
G02*
X195017003Y-108605000I-249997J0D01*
G01*
G37*
G36*
G01*
X184827003Y-108595000D02*
X183576997Y-108595000D01*
G75*
G02*
X183327000Y-108345003I0J249997D01*
G01*
X183327000Y-107719997D01*
G75*
G02*
X183576997Y-107470000I249997J0D01*
G01*
X184827003Y-107470000D01*
G75*
G02*
X185077000Y-107719997I0J-249997D01*
G01*
X185077000Y-108345003D01*
G75*
G02*
X184827003Y-108595000I-249997J0D01*
G01*
G37*
G36*
G01*
X184827003Y-111520000D02*
X183576997Y-111520000D01*
G75*
G02*
X183327000Y-111270003I0J249997D01*
G01*
X183327000Y-110644997D01*
G75*
G02*
X183576997Y-110395000I249997J0D01*
G01*
X184827003Y-110395000D01*
G75*
G02*
X185077000Y-110644997I0J-249997D01*
G01*
X185077000Y-111270003D01*
G75*
G02*
X184827003Y-111520000I-249997J0D01*
G01*
G37*
G36*
G01*
X174637003Y-108595000D02*
X173386997Y-108595000D01*
G75*
G02*
X173137000Y-108345003I0J249997D01*
G01*
X173137000Y-107719997D01*
G75*
G02*
X173386997Y-107470000I249997J0D01*
G01*
X174637003Y-107470000D01*
G75*
G02*
X174887000Y-107719997I0J-249997D01*
G01*
X174887000Y-108345003D01*
G75*
G02*
X174637003Y-108595000I-249997J0D01*
G01*
G37*
G36*
G01*
X174637003Y-111520000D02*
X173386997Y-111520000D01*
G75*
G02*
X173137000Y-111270003I0J249997D01*
G01*
X173137000Y-110644997D01*
G75*
G02*
X173386997Y-110395000I249997J0D01*
G01*
X174637003Y-110395000D01*
G75*
G02*
X174887000Y-110644997I0J-249997D01*
G01*
X174887000Y-111270003D01*
G75*
G02*
X174637003Y-111520000I-249997J0D01*
G01*
G37*
G36*
G01*
X164467003Y-111470000D02*
X163216997Y-111470000D01*
G75*
G02*
X162967000Y-111220003I0J249997D01*
G01*
X162967000Y-110594997D01*
G75*
G02*
X163216997Y-110345000I249997J0D01*
G01*
X164467003Y-110345000D01*
G75*
G02*
X164717000Y-110594997I0J-249997D01*
G01*
X164717000Y-111220003D01*
G75*
G02*
X164467003Y-111470000I-249997J0D01*
G01*
G37*
G36*
G01*
X164467003Y-108545000D02*
X163216997Y-108545000D01*
G75*
G02*
X162967000Y-108295003I0J249997D01*
G01*
X162967000Y-107669997D01*
G75*
G02*
X163216997Y-107420000I249997J0D01*
G01*
X164467003Y-107420000D01*
G75*
G02*
X164717000Y-107669997I0J-249997D01*
G01*
X164717000Y-108295003D01*
G75*
G02*
X164467003Y-108545000I-249997J0D01*
G01*
G37*
D28*
X194522000Y-102905000D03*
X194522000Y-105905000D03*
X190822000Y-102905000D03*
X190822000Y-105905000D03*
D27*
G36*
X193572000Y-103905000D02*
G01*
X195272000Y-103905000D01*
X195272000Y-104905000D01*
X193572000Y-104905000D01*
X193072000Y-105405000D01*
X192272000Y-105405000D01*
X191772000Y-104905000D01*
X190072000Y-104905000D01*
X190072000Y-103905000D01*
X191772000Y-103905000D01*
X192272000Y-103405000D01*
X193072000Y-103405000D01*
X193572000Y-103905000D01*
G37*
G36*
X183342000Y-103885000D02*
G01*
X185042000Y-103885000D01*
X185042000Y-104885000D01*
X183342000Y-104885000D01*
X182842000Y-105385000D01*
X182042000Y-105385000D01*
X181542000Y-104885000D01*
X179842000Y-104885000D01*
X179842000Y-103885000D01*
X181542000Y-103885000D01*
X182042000Y-103385000D01*
X182842000Y-103385000D01*
X183342000Y-103885000D01*
G37*
D28*
X180592000Y-105885000D03*
X180592000Y-102885000D03*
X184292000Y-105885000D03*
X184292000Y-102885000D03*
X174142000Y-102885000D03*
X174142000Y-105885000D03*
X170442000Y-102885000D03*
X170442000Y-105885000D03*
D27*
G36*
X173192000Y-103885000D02*
G01*
X174892000Y-103885000D01*
X174892000Y-104885000D01*
X173192000Y-104885000D01*
X172692000Y-105385000D01*
X171892000Y-105385000D01*
X171392000Y-104885000D01*
X169692000Y-104885000D01*
X169692000Y-103885000D01*
X171392000Y-103885000D01*
X171892000Y-103385000D01*
X172692000Y-103385000D01*
X173192000Y-103885000D01*
G37*
G36*
X163002000Y-103865000D02*
G01*
X164702000Y-103865000D01*
X164702000Y-104865000D01*
X163002000Y-104865000D01*
X162502000Y-105365000D01*
X161702000Y-105365000D01*
X161202000Y-104865000D01*
X159502000Y-104865000D01*
X159502000Y-103865000D01*
X161202000Y-103865000D01*
X161702000Y-103365000D01*
X162502000Y-103365000D01*
X163002000Y-103865000D01*
G37*
D28*
X160252000Y-105865000D03*
X160252000Y-102865000D03*
X163952000Y-105865000D03*
X163952000Y-102865000D03*
D15*
X99462000Y-97585000D03*
M02*
