G04 #@! TF.GenerationSoftware,KiCad,Pcbnew,5.1.12-84ad8e8a86~92~ubuntu20.04.1*
G04 #@! TF.CreationDate,2021-11-09T21:57:18+01:00*
G04 #@! TF.ProjectId,CC dimmer low voltage,43432064-696d-46d6-9572-206c6f772076,0.82*
G04 #@! TF.SameCoordinates,Original*
G04 #@! TF.FileFunction,Soldermask,Bot*
G04 #@! TF.FilePolarity,Negative*
%FSLAX46Y46*%
G04 Gerber Fmt 4.6, Leading zero omitted, Abs format (unit mm)*
G04 Created by KiCad (PCBNEW 5.1.12-84ad8e8a86~92~ubuntu20.04.1) date 2021-11-09 21:57:18*
%MOMM*%
%LPD*%
G01*
G04 APERTURE LIST*
%ADD10C,1.400000*%
%ADD11O,2.000000X1.905000*%
%ADD12R,2.000000X1.905000*%
%ADD13C,3.000000*%
%ADD14R,1.700000X1.700000*%
%ADD15C,3.200000*%
%ADD16O,1.700000X1.950000*%
%ADD17O,1.500000X1.050000*%
%ADD18R,1.500000X1.050000*%
%ADD19R,1.905000X2.000000*%
%ADD20O,1.905000X2.000000*%
%ADD21R,2.600000X2.600000*%
%ADD22C,2.600000*%
%ADD23C,2.500000*%
%ADD24R,2.500000X2.500000*%
G04 APERTURE END LIST*
D10*
X128962000Y-95455000D03*
X128962000Y-97995000D03*
X126422000Y-95455000D03*
X126422000Y-97995000D03*
X123882000Y-95455000D03*
X123882000Y-97995000D03*
X121342000Y-95455000D03*
X121342000Y-97995000D03*
X118802000Y-95455000D03*
X118802000Y-97995000D03*
X116262000Y-95455000D03*
X116262000Y-97995000D03*
X113722000Y-95455000D03*
X113722000Y-97995000D03*
X111182000Y-95455000D03*
X111182000Y-97995000D03*
X108642000Y-95455000D03*
X108642000Y-97995000D03*
X106102000Y-95455000D03*
X106102000Y-97995000D03*
X128962000Y-120855000D03*
X128962000Y-123395000D03*
X126422000Y-120855000D03*
X126422000Y-123395000D03*
X123882000Y-120855000D03*
X123882000Y-123395000D03*
X121342000Y-120855000D03*
X121342000Y-123395000D03*
X118802000Y-120855000D03*
X118802000Y-123395000D03*
X116262000Y-120855000D03*
X116262000Y-123395000D03*
X113722000Y-120855000D03*
X113722000Y-123395000D03*
X111182000Y-120855000D03*
X111182000Y-123395000D03*
X108642000Y-120855000D03*
X108642000Y-123395000D03*
X106102000Y-123395000D03*
X106102000Y-120855000D03*
D11*
X137474200Y-78517000D03*
X137474200Y-75977000D03*
D12*
X137474200Y-73437000D03*
D13*
X132851400Y-75672200D03*
X110251400Y-75672200D03*
D14*
X149842000Y-112695000D03*
X149842000Y-106185000D03*
D15*
X198722000Y-72275000D03*
X198752000Y-122805000D03*
G36*
G01*
X138532000Y-99300000D02*
X138532000Y-97850000D01*
G75*
G02*
X138782000Y-97600000I250000J0D01*
G01*
X139982000Y-97600000D01*
G75*
G02*
X140232000Y-97850000I0J-250000D01*
G01*
X140232000Y-99300000D01*
G75*
G02*
X139982000Y-99550000I-250000J0D01*
G01*
X138782000Y-99550000D01*
G75*
G02*
X138532000Y-99300000I0J250000D01*
G01*
G37*
D16*
X141882000Y-98575000D03*
X144382000Y-98575000D03*
G36*
G01*
X138412000Y-120190000D02*
X138412000Y-118740000D01*
G75*
G02*
X138662000Y-118490000I250000J0D01*
G01*
X139862000Y-118490000D01*
G75*
G02*
X140112000Y-118740000I0J-250000D01*
G01*
X140112000Y-120190000D01*
G75*
G02*
X139862000Y-120440000I-250000J0D01*
G01*
X138662000Y-120440000D01*
G75*
G02*
X138412000Y-120190000I0J250000D01*
G01*
G37*
X141762000Y-119465000D03*
X144262000Y-119465000D03*
X146762000Y-119465000D03*
D14*
X147302000Y-106185000D03*
X147302000Y-112695000D03*
X115402000Y-89895000D03*
D17*
X107959400Y-87716000D03*
X107959400Y-86446000D03*
D18*
X107959400Y-88986000D03*
D19*
X138160000Y-88401800D03*
D20*
X135620000Y-88401800D03*
X133080000Y-88401800D03*
D21*
X103052000Y-73715000D03*
D22*
X103052000Y-78715000D03*
D23*
X157242000Y-75187000D03*
D24*
X162322000Y-75187000D03*
X172472000Y-75185000D03*
D23*
X167392000Y-75185000D03*
X177542000Y-75175000D03*
D24*
X182622000Y-75175000D03*
X192772000Y-75165000D03*
D23*
X187692000Y-75165000D03*
D24*
X187912000Y-120225000D03*
D23*
X192992000Y-120225000D03*
X182822000Y-120225000D03*
D24*
X177742000Y-120225000D03*
X167572000Y-120225000D03*
D23*
X172652000Y-120225000D03*
X162472000Y-120225000D03*
D24*
X157392000Y-120225000D03*
D15*
X99462000Y-97585000D03*
M02*
