M48
METRIC,TZ
T1C0.400
T2C0.750
T3C0.800
T4C0.950
T5C1.000
T6C1.100
T7C1.300
T8C1.500
%
G90
G05
T1
X107702Y-63895
X107772Y-53226
X107950Y-74054
X118631Y-82334
X118702Y-98895
X120929Y-73406
X121452Y-106395
X125311Y-54496
X126702Y-90645
X127702Y-64395
X130200Y-81556
X131839Y-59919
X132258Y-90983
X133668Y-89548
X134811Y-98933
X137852Y-97923
X138735Y-64427
X139195Y-89532
X139256Y-54585
X140310Y-88532
X140452Y-72145
X141189Y-83556
X142126Y-98971
X143702Y-86395
X144590Y-90983
X145783Y-61163
X145936Y-83556
X146726Y-92034
X146799Y-94971
X148202Y-86895
X148353Y-90974
X153022Y-54648
X162188Y-90974
X163195Y-53632
X163218Y-63688
X163218Y-67691
X164389Y-67691
X164395Y-64688
X164913Y-92034
X164960Y-96622
X164986Y-105067
X165452Y-73230
X168364Y-67691
X169506Y-88546
X169507Y-87046
X171636Y-71730
X171641Y-70231
X172733Y-91034
X173520Y-53658
X175513Y-73230
X175539Y-71730
X175681Y-85546
X175768Y-87046
X176797Y-105067
X178562Y-67691
X179540Y-87020
X179541Y-88520
X181915Y-71742
X182131Y-70256
X182728Y-91034
X183820Y-53721
X185534Y-71704
X185587Y-73204
X185828Y-85520
X185852Y-87020
X187008Y-105105
X188506Y-67716
X189714Y-88520
X189738Y-87020
X191872Y-71704
X191886Y-70204
X192900Y-91034
X194107Y-53721
X195655Y-73179
X195732Y-71679
X195948Y-87020
X196039Y-85520
X197091Y-105016
X198730Y-67742
X200014Y-88546
X200050Y-87046
X202222Y-71679
X202284Y-70179
X203289Y-91034
X206134Y-87046
X206209Y-85546
X208763Y-54178
X208826Y-63919
X209017Y-73101
X209626Y-84899
X209626Y-94513
X209664Y-104229
T2
X118389Y-68326
X118389Y-69596
X118389Y-70866
T3
X116332Y-76276
X116332Y-78816
X116332Y-101676
X116332Y-104216
X118872Y-76276
X118872Y-78816
X118872Y-101676
X118872Y-104216
X121412Y-76276
X121412Y-78816
X121412Y-101676
X121412Y-104216
X123952Y-76276
X123952Y-78816
X123952Y-101676
X123952Y-104216
X126492Y-76276
X126492Y-78816
X126492Y-101676
X126492Y-104216
X129032Y-76276
X129032Y-78816
X129032Y-101676
X129032Y-104216
X131572Y-76276
X131572Y-78816
X131572Y-101676
X131572Y-104216
X134112Y-76276
X134112Y-78816
X134112Y-101676
X134112Y-104216
X136652Y-76276
X136652Y-78816
X136652Y-101676
X136652Y-104216
X139192Y-76276
X139192Y-78816
X139192Y-101676
X139192Y-104216
T4
X149202Y-76657
X149202Y-102845
X151702Y-76657
X151702Y-102845
X154202Y-76657
X154202Y-102845
X156702Y-102845
T5
X125781Y-71374
X157202Y-84645
X157202Y-95645
X161023Y-84645
X161023Y-95645
T6
X143510Y-70282
X146050Y-70282
X147904Y-56007
X147904Y-58547
X147904Y-61087
X148590Y-70282
T7
X113792Y-56290
X113792Y-61290
X168046Y-58039
X168050Y-100711
X173046Y-58039
X173050Y-100711
X178232Y-58039
X178236Y-100711
X183232Y-58039
X183236Y-100711
X188417Y-58039
X188421Y-100736
X193417Y-58039
X193421Y-100736
X198603Y-58039
X198606Y-100736
X203603Y-58039
X203606Y-100736
T8
X120681Y-58242
X143281Y-58242
T0
M30
