G04 #@! TF.GenerationSoftware,KiCad,Pcbnew,5.1.11-e4df9d881f~92~ubuntu20.04.1*
G04 #@! TF.CreationDate,2021-10-31T15:28:21+01:00*
G04 #@! TF.ProjectId,CC dimmer low voltage,43432064-696d-46d6-9572-206c6f772076,0.96*
G04 #@! TF.SameCoordinates,Original*
G04 #@! TF.FileFunction,Legend,Top*
G04 #@! TF.FilePolarity,Positive*
%FSLAX46Y46*%
G04 Gerber Fmt 4.6, Leading zero omitted, Abs format (unit mm)*
G04 Created by KiCad (PCBNEW 5.1.11-e4df9d881f~92~ubuntu20.04.1) date 2021-10-31 15:28:21*
%MOMM*%
%LPD*%
G01*
G04 APERTURE LIST*
%ADD10C,0.100000*%
%ADD11C,0.150000*%
%ADD12C,0.400000*%
%ADD13C,0.120000*%
%ADD14C,0.010000*%
G04 APERTURE END LIST*
D10*
X209082952Y-105204523D02*
X209035333Y-105299761D01*
X208987714Y-105347380D01*
X208892476Y-105395000D01*
X208844857Y-105395000D01*
X208749619Y-105347380D01*
X208702000Y-105299761D01*
X208654380Y-105204523D01*
X208654380Y-105014047D01*
X208702000Y-104918809D01*
X208749619Y-104871190D01*
X208844857Y-104823571D01*
X208892476Y-104823571D01*
X208987714Y-104871190D01*
X209035333Y-104918809D01*
X209082952Y-105014047D01*
X209082952Y-105204523D01*
X209130571Y-105299761D01*
X209178190Y-105347380D01*
X209273428Y-105395000D01*
X209463904Y-105395000D01*
X209559142Y-105347380D01*
X209606761Y-105299761D01*
X209654380Y-105204523D01*
X209654380Y-105014047D01*
X209606761Y-104918809D01*
X209559142Y-104871190D01*
X209463904Y-104823571D01*
X209273428Y-104823571D01*
X209178190Y-104871190D01*
X209130571Y-104918809D01*
X209082952Y-105014047D01*
X209606761Y-103966428D02*
X209654380Y-104061666D01*
X209654380Y-104252142D01*
X209606761Y-104347380D01*
X209559142Y-104395000D01*
X209463904Y-104442619D01*
X209178190Y-104442619D01*
X209082952Y-104395000D01*
X209035333Y-104347380D01*
X208987714Y-104252142D01*
X208987714Y-104061666D01*
X209035333Y-103966428D01*
X209654380Y-103537857D02*
X208654380Y-103537857D01*
X209654380Y-103109285D02*
X209130571Y-103109285D01*
X209035333Y-103156904D01*
X208987714Y-103252142D01*
X208987714Y-103395000D01*
X209035333Y-103490238D01*
X209082952Y-103537857D01*
X209606761Y-101442619D02*
X209654380Y-101537857D01*
X209654380Y-101728333D01*
X209606761Y-101823571D01*
X209559142Y-101871190D01*
X209463904Y-101918809D01*
X209178190Y-101918809D01*
X209082952Y-101871190D01*
X209035333Y-101823571D01*
X208987714Y-101728333D01*
X208987714Y-101537857D01*
X209035333Y-101442619D01*
X209606761Y-100585476D02*
X209654380Y-100680714D01*
X209654380Y-100871190D01*
X209606761Y-100966428D01*
X209559142Y-101014047D01*
X209463904Y-101061666D01*
X209178190Y-101061666D01*
X209082952Y-101014047D01*
X209035333Y-100966428D01*
X208987714Y-100871190D01*
X208987714Y-100680714D01*
X209035333Y-100585476D01*
X209654380Y-99252142D02*
X209606761Y-99347380D01*
X209511523Y-99395000D01*
X208654380Y-99395000D01*
X209606761Y-98490238D02*
X209654380Y-98585476D01*
X209654380Y-98775952D01*
X209606761Y-98871190D01*
X209511523Y-98918809D01*
X209130571Y-98918809D01*
X209035333Y-98871190D01*
X208987714Y-98775952D01*
X208987714Y-98585476D01*
X209035333Y-98490238D01*
X209130571Y-98442619D01*
X209225809Y-98442619D01*
X209321047Y-98918809D01*
X209654380Y-97585476D02*
X208654380Y-97585476D01*
X209606761Y-97585476D02*
X209654380Y-97680714D01*
X209654380Y-97871190D01*
X209606761Y-97966428D01*
X209559142Y-98014047D01*
X209463904Y-98061666D01*
X209178190Y-98061666D01*
X209082952Y-98014047D01*
X209035333Y-97966428D01*
X208987714Y-97871190D01*
X208987714Y-97680714D01*
X209035333Y-97585476D01*
X209654380Y-95918809D02*
X208654380Y-95918809D01*
X209606761Y-95918809D02*
X209654380Y-96014047D01*
X209654380Y-96204523D01*
X209606761Y-96299761D01*
X209559142Y-96347380D01*
X209463904Y-96395000D01*
X209178190Y-96395000D01*
X209082952Y-96347380D01*
X209035333Y-96299761D01*
X208987714Y-96204523D01*
X208987714Y-96014047D01*
X209035333Y-95918809D01*
X209654380Y-95442619D02*
X208987714Y-95442619D01*
X209178190Y-95442619D02*
X209082952Y-95395000D01*
X209035333Y-95347380D01*
X208987714Y-95252142D01*
X208987714Y-95156904D01*
X209654380Y-94823571D02*
X208987714Y-94823571D01*
X208654380Y-94823571D02*
X208702000Y-94871190D01*
X208749619Y-94823571D01*
X208702000Y-94775952D01*
X208654380Y-94823571D01*
X208749619Y-94823571D01*
X208987714Y-94442619D02*
X209654380Y-94204523D01*
X208987714Y-93966428D01*
X209606761Y-93204523D02*
X209654380Y-93299761D01*
X209654380Y-93490238D01*
X209606761Y-93585476D01*
X209511523Y-93633095D01*
X209130571Y-93633095D01*
X209035333Y-93585476D01*
X208987714Y-93490238D01*
X208987714Y-93299761D01*
X209035333Y-93204523D01*
X209130571Y-93156904D01*
X209225809Y-93156904D01*
X209321047Y-93633095D01*
X209654380Y-92728333D02*
X208987714Y-92728333D01*
X209178190Y-92728333D02*
X209082952Y-92680714D01*
X209035333Y-92633095D01*
X208987714Y-92537857D01*
X208987714Y-92442619D01*
X210035333Y-91061666D02*
X209987714Y-91109285D01*
X209844857Y-91204523D01*
X209749619Y-91252142D01*
X209606761Y-91299761D01*
X209368666Y-91347380D01*
X209178190Y-91347380D01*
X208940095Y-91299761D01*
X208797238Y-91252142D01*
X208702000Y-91204523D01*
X208559142Y-91109285D01*
X208511523Y-91061666D01*
X208749619Y-90728333D02*
X208702000Y-90680714D01*
X208654380Y-90585476D01*
X208654380Y-90347380D01*
X208702000Y-90252142D01*
X208749619Y-90204523D01*
X208844857Y-90156904D01*
X208940095Y-90156904D01*
X209082952Y-90204523D01*
X209654380Y-90775952D01*
X209654380Y-90156904D01*
X209654380Y-89680714D02*
X209654380Y-89490238D01*
X209606761Y-89395000D01*
X209559142Y-89347380D01*
X209416285Y-89252142D01*
X209225809Y-89204523D01*
X208844857Y-89204523D01*
X208749619Y-89252142D01*
X208702000Y-89299761D01*
X208654380Y-89395000D01*
X208654380Y-89585476D01*
X208702000Y-89680714D01*
X208749619Y-89728333D01*
X208844857Y-89775952D01*
X209082952Y-89775952D01*
X209178190Y-89728333D01*
X209225809Y-89680714D01*
X209273428Y-89585476D01*
X209273428Y-89395000D01*
X209225809Y-89299761D01*
X209178190Y-89252142D01*
X209082952Y-89204523D01*
X208654380Y-88585476D02*
X208654380Y-88490238D01*
X208702000Y-88395000D01*
X208749619Y-88347380D01*
X208844857Y-88299761D01*
X209035333Y-88252142D01*
X209273428Y-88252142D01*
X209463904Y-88299761D01*
X209559142Y-88347380D01*
X209606761Y-88395000D01*
X209654380Y-88490238D01*
X209654380Y-88585476D01*
X209606761Y-88680714D01*
X209559142Y-88728333D01*
X209463904Y-88775952D01*
X209273428Y-88823571D01*
X209035333Y-88823571D01*
X208844857Y-88775952D01*
X208749619Y-88728333D01*
X208702000Y-88680714D01*
X208654380Y-88585476D01*
X209654380Y-87823571D02*
X208987714Y-87823571D01*
X209082952Y-87823571D02*
X209035333Y-87775952D01*
X208987714Y-87680714D01*
X208987714Y-87537857D01*
X209035333Y-87442619D01*
X209130571Y-87395000D01*
X209654380Y-87395000D01*
X209130571Y-87395000D02*
X209035333Y-87347380D01*
X208987714Y-87252142D01*
X208987714Y-87109285D01*
X209035333Y-87014047D01*
X209130571Y-86966428D01*
X209654380Y-86966428D01*
X209368666Y-86537857D02*
X209368666Y-86061666D01*
X209654380Y-86633095D02*
X208654380Y-86299761D01*
X209654380Y-85966428D01*
X210035333Y-85728333D02*
X209987714Y-85680714D01*
X209844857Y-85585476D01*
X209749619Y-85537857D01*
X209606761Y-85490238D01*
X209368666Y-85442619D01*
X209178190Y-85442619D01*
X208940095Y-85490238D01*
X208797238Y-85537857D01*
X208702000Y-85585476D01*
X208559142Y-85680714D01*
X208511523Y-85728333D01*
X150780709Y-62217271D02*
X150818804Y-62102985D01*
X150818804Y-61912509D01*
X150780709Y-61836319D01*
X150742614Y-61798223D01*
X150666423Y-61760128D01*
X150590233Y-61760128D01*
X150514042Y-61798223D01*
X150475947Y-61836319D01*
X150437852Y-61912509D01*
X150399757Y-62064890D01*
X150361661Y-62141080D01*
X150323566Y-62179176D01*
X150247376Y-62217271D01*
X150171185Y-62217271D01*
X150094995Y-62179176D01*
X150056900Y-62141080D01*
X150018804Y-62064890D01*
X150018804Y-61874414D01*
X150056900Y-61760128D01*
X150831504Y-58743823D02*
X150031504Y-58743823D01*
X150031504Y-58553347D01*
X150069600Y-58439061D01*
X150145790Y-58362871D01*
X150221980Y-58324776D01*
X150374361Y-58286680D01*
X150488647Y-58286680D01*
X150641028Y-58324776D01*
X150717219Y-58362871D01*
X150793409Y-58439061D01*
X150831504Y-58553347D01*
X150831504Y-58743823D01*
X150069600Y-55010076D02*
X150031504Y-55086266D01*
X150031504Y-55200552D01*
X150069600Y-55314838D01*
X150145790Y-55391028D01*
X150221980Y-55429123D01*
X150374361Y-55467219D01*
X150488647Y-55467219D01*
X150641028Y-55429123D01*
X150717219Y-55391028D01*
X150793409Y-55314838D01*
X150831504Y-55200552D01*
X150831504Y-55124361D01*
X150793409Y-55010076D01*
X150755314Y-54971980D01*
X150488647Y-54971980D01*
X150488647Y-55124361D01*
X145415076Y-72434500D02*
X145338885Y-72396404D01*
X145224600Y-72396404D01*
X145110314Y-72434500D01*
X145034123Y-72510690D01*
X144996028Y-72586880D01*
X144957933Y-72739261D01*
X144957933Y-72853547D01*
X144996028Y-73005928D01*
X145034123Y-73082119D01*
X145110314Y-73158309D01*
X145224600Y-73196404D01*
X145300790Y-73196404D01*
X145415076Y-73158309D01*
X145453171Y-73120214D01*
X145453171Y-72853547D01*
X145300790Y-72853547D01*
X145796028Y-73196404D02*
X145796028Y-72396404D01*
X146253171Y-73196404D01*
X146253171Y-72396404D01*
X146634123Y-73196404D02*
X146634123Y-72396404D01*
X146824600Y-72396404D01*
X146938885Y-72434500D01*
X147015076Y-72510690D01*
X147053171Y-72586880D01*
X147091266Y-72739261D01*
X147091266Y-72853547D01*
X147053171Y-73005928D01*
X147015076Y-73082119D01*
X146938885Y-73158309D01*
X146824600Y-73196404D01*
X146634123Y-73196404D01*
D11*
X110426452Y-71962971D02*
X109664547Y-71962971D01*
D10*
X141744800Y-72409104D02*
X141897180Y-72409104D01*
X141973371Y-72447200D01*
X142049561Y-72523390D01*
X142087657Y-72675771D01*
X142087657Y-72942438D01*
X142049561Y-73094819D01*
X141973371Y-73171009D01*
X141897180Y-73209104D01*
X141744800Y-73209104D01*
X141668609Y-73171009D01*
X141592419Y-73094819D01*
X141554323Y-72942438D01*
X141554323Y-72675771D01*
X141592419Y-72523390D01*
X141668609Y-72447200D01*
X141744800Y-72409104D01*
X142430514Y-72409104D02*
X142430514Y-73056723D01*
X142468609Y-73132914D01*
X142506704Y-73171009D01*
X142582895Y-73209104D01*
X142735276Y-73209104D01*
X142811466Y-73171009D01*
X142849561Y-73132914D01*
X142887657Y-73056723D01*
X142887657Y-72409104D01*
X143154323Y-72409104D02*
X143611466Y-72409104D01*
X143382895Y-73209104D02*
X143382895Y-72409104D01*
X149110752Y-73234504D02*
X149110752Y-72434504D01*
X149491704Y-73234504D02*
X149491704Y-72434504D01*
X149948847Y-73234504D01*
X149948847Y-72434504D01*
D11*
X148750328Y-66636852D02*
X148750328Y-65874947D01*
X203847747Y-76627028D02*
X204609652Y-76627028D01*
X188328252Y-82161071D02*
X187566347Y-82161071D01*
X193484547Y-76665128D02*
X194246452Y-76665128D01*
X177419047Y-82164228D02*
X178180952Y-82164228D01*
X183502347Y-76639728D02*
X184264252Y-76639728D01*
X197751747Y-82151528D02*
X198513652Y-82151528D01*
X167043147Y-82151528D02*
X167805052Y-82151528D01*
X173177247Y-76601628D02*
X173939152Y-76601628D01*
D12*
X109661438Y-81448423D02*
X111661438Y-81448423D01*
X110899533Y-81448423D02*
X110994771Y-81638900D01*
X110994771Y-82019852D01*
X110899533Y-82210328D01*
X110804295Y-82305566D01*
X110613819Y-82400804D01*
X110042390Y-82400804D01*
X109851914Y-82305566D01*
X109756676Y-82210328D01*
X109661438Y-82019852D01*
X109661438Y-81638900D01*
X109756676Y-81448423D01*
X110994771Y-83067471D02*
X109661438Y-83543661D01*
X110994771Y-84019852D02*
X109661438Y-83543661D01*
X109185247Y-83353185D01*
X109090009Y-83257947D01*
X108994771Y-83067471D01*
D10*
X208987714Y-71466428D02*
X209654380Y-71228333D01*
X208987714Y-70990238D01*
X208654380Y-70418809D02*
X208654380Y-70323571D01*
X208702000Y-70228333D01*
X208749619Y-70180714D01*
X208844857Y-70133095D01*
X209035333Y-70085476D01*
X209273428Y-70085476D01*
X209463904Y-70133095D01*
X209559142Y-70180714D01*
X209606761Y-70228333D01*
X209654380Y-70323571D01*
X209654380Y-70418809D01*
X209606761Y-70514047D01*
X209559142Y-70561666D01*
X209463904Y-70609285D01*
X209273428Y-70656904D01*
X209035333Y-70656904D01*
X208844857Y-70609285D01*
X208749619Y-70561666D01*
X208702000Y-70514047D01*
X208654380Y-70418809D01*
X209559142Y-69656904D02*
X209606761Y-69609285D01*
X209654380Y-69656904D01*
X209606761Y-69704523D01*
X209559142Y-69656904D01*
X209654380Y-69656904D01*
X209654380Y-69133095D02*
X209654380Y-68942619D01*
X209606761Y-68847380D01*
X209559142Y-68799761D01*
X209416285Y-68704523D01*
X209225809Y-68656904D01*
X208844857Y-68656904D01*
X208749619Y-68704523D01*
X208702000Y-68752142D01*
X208654380Y-68847380D01*
X208654380Y-69037857D01*
X208702000Y-69133095D01*
X208749619Y-69180714D01*
X208844857Y-69228333D01*
X209082952Y-69228333D01*
X209178190Y-69180714D01*
X209225809Y-69133095D01*
X209273428Y-69037857D01*
X209273428Y-68847380D01*
X209225809Y-68752142D01*
X209178190Y-68704523D01*
X209082952Y-68656904D01*
X208654380Y-67799761D02*
X208654380Y-67990238D01*
X208702000Y-68085476D01*
X208749619Y-68133095D01*
X208892476Y-68228333D01*
X209082952Y-68275952D01*
X209463904Y-68275952D01*
X209559142Y-68228333D01*
X209606761Y-68180714D01*
X209654380Y-68085476D01*
X209654380Y-67895000D01*
X209606761Y-67799761D01*
X209559142Y-67752142D01*
X209463904Y-67704523D01*
X209225809Y-67704523D01*
X209130571Y-67752142D01*
X209082952Y-67799761D01*
X209035333Y-67895000D01*
X209035333Y-68085476D01*
X209082952Y-68180714D01*
X209130571Y-68228333D01*
X209225809Y-68275952D01*
X209606761Y-67228333D02*
X209654380Y-67228333D01*
X209749619Y-67275952D01*
X209797238Y-67323571D01*
X208749619Y-66085476D02*
X208702000Y-66037857D01*
X208654380Y-65942619D01*
X208654380Y-65704523D01*
X208702000Y-65609285D01*
X208749619Y-65561666D01*
X208844857Y-65514047D01*
X208940095Y-65514047D01*
X209082952Y-65561666D01*
X209654380Y-66133095D01*
X209654380Y-65514047D01*
X208654380Y-64895000D02*
X208654380Y-64799761D01*
X208702000Y-64704523D01*
X208749619Y-64656904D01*
X208844857Y-64609285D01*
X209035333Y-64561666D01*
X209273428Y-64561666D01*
X209463904Y-64609285D01*
X209559142Y-64656904D01*
X209606761Y-64704523D01*
X209654380Y-64799761D01*
X209654380Y-64895000D01*
X209606761Y-64990238D01*
X209559142Y-65037857D01*
X209463904Y-65085476D01*
X209273428Y-65133095D01*
X209035333Y-65133095D01*
X208844857Y-65085476D01*
X208749619Y-65037857D01*
X208702000Y-64990238D01*
X208654380Y-64895000D01*
X208749619Y-64180714D02*
X208702000Y-64133095D01*
X208654380Y-64037857D01*
X208654380Y-63799761D01*
X208702000Y-63704523D01*
X208749619Y-63656904D01*
X208844857Y-63609285D01*
X208940095Y-63609285D01*
X209082952Y-63656904D01*
X209654380Y-64228333D01*
X209654380Y-63609285D01*
X209654380Y-62656904D02*
X209654380Y-63228333D01*
X209654380Y-62942619D02*
X208654380Y-62942619D01*
X208797238Y-63037857D01*
X208892476Y-63133095D01*
X208940095Y-63228333D01*
X209273428Y-62228333D02*
X209273428Y-61466428D01*
X209654380Y-60466428D02*
X209654380Y-61037857D01*
X209654380Y-60752142D02*
X208654380Y-60752142D01*
X208797238Y-60847380D01*
X208892476Y-60942619D01*
X208940095Y-61037857D01*
X208654380Y-59847380D02*
X208654380Y-59752142D01*
X208702000Y-59656904D01*
X208749619Y-59609285D01*
X208844857Y-59561666D01*
X209035333Y-59514047D01*
X209273428Y-59514047D01*
X209463904Y-59561666D01*
X209559142Y-59609285D01*
X209606761Y-59656904D01*
X209654380Y-59752142D01*
X209654380Y-59847380D01*
X209606761Y-59942619D01*
X209559142Y-59990238D01*
X209463904Y-60037857D01*
X209273428Y-60085476D01*
X209035333Y-60085476D01*
X208844857Y-60037857D01*
X208749619Y-59990238D01*
X208702000Y-59942619D01*
X208654380Y-59847380D01*
X209273428Y-59085476D02*
X209273428Y-58323571D01*
X208654380Y-57942619D02*
X208654380Y-57323571D01*
X209035333Y-57656904D01*
X209035333Y-57514047D01*
X209082952Y-57418809D01*
X209130571Y-57371190D01*
X209225809Y-57323571D01*
X209463904Y-57323571D01*
X209559142Y-57371190D01*
X209606761Y-57418809D01*
X209654380Y-57514047D01*
X209654380Y-57799761D01*
X209606761Y-57895000D01*
X209559142Y-57942619D01*
X208654380Y-56704523D02*
X208654380Y-56609285D01*
X208702000Y-56514047D01*
X208749619Y-56466428D01*
X208844857Y-56418809D01*
X209035333Y-56371190D01*
X209273428Y-56371190D01*
X209463904Y-56418809D01*
X209559142Y-56466428D01*
X209606761Y-56514047D01*
X209654380Y-56609285D01*
X209654380Y-56704523D01*
X209606761Y-56799761D01*
X209559142Y-56847380D01*
X209463904Y-56895000D01*
X209273428Y-56942619D01*
X209035333Y-56942619D01*
X208844857Y-56895000D01*
X208749619Y-56847380D01*
X208702000Y-56799761D01*
X208654380Y-56704523D01*
D13*
X167073948Y-76376200D02*
X167596452Y-76376200D01*
X167073948Y-74906200D02*
X167596452Y-74906200D01*
X169939800Y-69369600D02*
X169939800Y-69699600D01*
X169939800Y-74089600D02*
X169939800Y-73759600D01*
X169939800Y-74089600D02*
X167219800Y-74089600D01*
X167219800Y-74089600D02*
X167219800Y-73759600D01*
X171119800Y-73759600D02*
X169939800Y-73759600D01*
X167219800Y-69369600D02*
X169939800Y-69369600D01*
X167219800Y-69699600D02*
X167219800Y-69369600D01*
X174726400Y-58039000D02*
G75*
G03*
X174726400Y-58039000I-1680000J0D01*
G01*
X165486400Y-61539000D02*
X175606400Y-61539000D01*
X165486400Y-60039000D02*
X175606400Y-60039000D01*
X165486400Y-55738000D02*
X175606400Y-55738000D01*
X165486400Y-53679000D02*
X175606400Y-53679000D01*
X165486400Y-62099000D02*
X175606400Y-62099000D01*
X165486400Y-53679000D02*
X165486400Y-62099000D01*
X175606400Y-53679000D02*
X175606400Y-62099000D01*
X167046400Y-53739000D02*
X169046400Y-53739000D01*
X167046400Y-54739000D02*
X169046400Y-54739000D01*
X167046400Y-53739000D02*
X167046400Y-54739000D01*
X169046400Y-53739000D02*
X169046400Y-54739000D01*
X174321400Y-56970000D02*
X174274400Y-57016000D01*
X172012400Y-59278000D02*
X171977400Y-59313000D01*
X174116400Y-56764000D02*
X174081400Y-56800000D01*
X171819400Y-59062000D02*
X171772400Y-59108000D01*
X172046400Y-53739000D02*
X174046400Y-53739000D01*
X172046400Y-54739000D02*
X174046400Y-54739000D01*
X172046400Y-53739000D02*
X172046400Y-54739000D01*
X174046400Y-53739000D02*
X174046400Y-54739000D01*
X165246400Y-61599000D02*
X165246400Y-62339000D01*
X165246400Y-62339000D02*
X165746400Y-62339000D01*
X168075205Y-59719253D02*
G75*
G02*
X167362400Y-59574000I-28805J1680253D01*
G01*
X166510974Y-58722042D02*
G75*
G02*
X166511400Y-57355000I1535426J683042D01*
G01*
X167363358Y-56503574D02*
G75*
G02*
X168730400Y-56504000I683042J-1535426D01*
G01*
X169581826Y-57355958D02*
G75*
G02*
X169581400Y-58723000I-1535426J-683042D01*
G01*
X168729718Y-59573756D02*
G75*
G02*
X168046400Y-59719000I-683318J1534756D01*
G01*
X170048000Y-94330600D02*
X165740000Y-94330600D01*
X165740000Y-90022600D02*
X170048000Y-90022600D01*
X180436600Y-94330600D02*
X176128600Y-94330600D01*
X176128600Y-90022600D02*
X180436600Y-90022600D01*
X190554600Y-94330600D02*
X186246600Y-94330600D01*
X186246600Y-90022600D02*
X190554600Y-90022600D01*
X200782000Y-94330600D02*
X196474000Y-94330600D01*
X196474000Y-90022600D02*
X200782000Y-90022600D01*
X201477800Y-64444800D02*
X205785800Y-64444800D01*
X205785800Y-68752800D02*
X201477800Y-68752800D01*
X191140000Y-64444800D02*
X195448000Y-64444800D01*
X195448000Y-68752800D02*
X191140000Y-68752800D01*
X181056200Y-64394000D02*
X185364200Y-64394000D01*
X185364200Y-68702000D02*
X181056200Y-68702000D01*
X170870800Y-64419400D02*
X175178800Y-64419400D01*
X175178800Y-68727400D02*
X170870800Y-68727400D01*
X120681400Y-53442200D02*
X120681400Y-56242200D01*
X120681400Y-60242200D02*
X120681400Y-63042200D01*
X143281400Y-60242200D02*
X143281400Y-63042200D01*
X143281400Y-63042200D02*
X120681400Y-63042200D01*
X143281400Y-53442200D02*
X120681400Y-53442200D01*
X143281400Y-53442200D02*
X143281400Y-56242200D01*
X187438200Y-69674200D02*
X187438200Y-69344200D01*
X187438200Y-69344200D02*
X190158200Y-69344200D01*
X191338200Y-73734200D02*
X190158200Y-73734200D01*
X187438200Y-74064200D02*
X187438200Y-73734200D01*
X190158200Y-74064200D02*
X187438200Y-74064200D01*
X190158200Y-74064200D02*
X190158200Y-73734200D01*
X190158200Y-69344200D02*
X190158200Y-69674200D01*
X140462000Y-102946200D02*
X145542000Y-102946200D01*
X108712000Y-77546200D02*
X108712000Y-101676200D01*
X108712000Y-77546200D02*
X111252000Y-75006200D01*
X108712000Y-102946200D02*
X111252000Y-105486200D01*
X108712000Y-102946200D02*
X108712000Y-101676200D01*
X111252000Y-75006200D02*
X145542000Y-75006200D01*
X111252000Y-105486200D02*
X140462000Y-105486200D01*
X140462000Y-105486200D02*
X140462000Y-102946200D01*
D10*
G36*
X144272000Y-104216200D02*
G01*
X141732000Y-104216200D01*
X141732000Y-102946200D01*
X144272000Y-102946200D01*
X144272000Y-104216200D01*
G37*
X144272000Y-104216200D02*
X141732000Y-104216200D01*
X141732000Y-102946200D01*
X144272000Y-102946200D01*
X144272000Y-104216200D01*
D13*
X145542000Y-102946200D02*
X145542000Y-75006200D01*
X145542000Y-95326200D02*
X151892000Y-95326200D01*
X151892000Y-95326200D02*
X151892000Y-85166200D01*
X151892000Y-85166200D02*
X145542000Y-85166200D01*
X145542000Y-95326200D02*
X143002000Y-95326200D01*
X143002000Y-95326200D02*
X143002000Y-85166200D01*
X143002000Y-85166200D02*
X145542000Y-85166200D01*
X159693300Y-94315000D02*
X161023300Y-94315000D01*
X159693300Y-95645000D02*
X159693300Y-94315000D01*
X159693300Y-96915000D02*
X162353300Y-96915000D01*
X162353300Y-96915000D02*
X162353300Y-96975000D01*
X159693300Y-96915000D02*
X159693300Y-96975000D01*
X159693300Y-96975000D02*
X162353300Y-96975000D01*
X159693300Y-83315000D02*
X161023300Y-83315000D01*
X159693300Y-84645000D02*
X159693300Y-83315000D01*
X159693300Y-85915000D02*
X162353300Y-85915000D01*
X162353300Y-85915000D02*
X162353300Y-85975000D01*
X159693300Y-85915000D02*
X159693300Y-85975000D01*
X159693300Y-85975000D02*
X162353300Y-85975000D01*
D14*
G36*
X114007905Y-92570295D02*
G01*
X112458500Y-94120304D01*
X112458500Y-97497900D01*
X108445300Y-97497900D01*
X108445300Y-94120304D01*
X106895896Y-92570295D01*
X105346491Y-91020285D01*
X106895896Y-89471504D01*
X107777278Y-88590477D01*
X107777278Y-89575766D01*
X107678061Y-89576137D01*
X107200700Y-89580979D01*
X106629200Y-90147711D01*
X106435105Y-90340995D01*
X106269263Y-90507685D01*
X106143857Y-90635412D01*
X106071066Y-90711811D01*
X106057700Y-90727971D01*
X106106159Y-90731784D01*
X106242169Y-90735182D01*
X106451682Y-90738003D01*
X106720649Y-90740089D01*
X107035024Y-90741281D01*
X107248331Y-90741500D01*
X108438962Y-90741500D01*
X108445300Y-90519581D01*
X108445300Y-91300300D01*
X106034033Y-91300300D01*
X106591100Y-91859100D01*
X107148168Y-92417900D01*
X108445300Y-92417900D01*
X108445300Y-92976700D01*
X108115100Y-92976700D01*
X107946938Y-92982252D01*
X107828008Y-92996780D01*
X107784900Y-93016267D01*
X107818750Y-93067215D01*
X107909439Y-93170597D01*
X108040676Y-93308316D01*
X108115100Y-93383100D01*
X108445300Y-93710364D01*
X108445300Y-92976700D01*
X108445300Y-92417900D01*
X108445300Y-91300300D01*
X108445300Y-90519581D01*
X108454831Y-90185862D01*
X108470700Y-89630225D01*
X108313061Y-89600760D01*
X108191938Y-89588104D01*
X108002320Y-89579345D01*
X107777278Y-89575766D01*
X107777278Y-88590477D01*
X108445300Y-87922724D01*
X108445300Y-88331435D01*
X108115100Y-88658700D01*
X107970463Y-88803492D01*
X107858020Y-88918797D01*
X107793855Y-88987984D01*
X107784900Y-89000132D01*
X107831252Y-89007348D01*
X107952525Y-89012451D01*
X108115100Y-89014300D01*
X108445300Y-89014300D01*
X108445300Y-88331435D01*
X108445300Y-87922724D01*
X108445300Y-84543900D01*
X109486327Y-84543900D01*
X109486327Y-87185500D01*
X109467494Y-87229092D01*
X109461300Y-87312500D01*
X109485906Y-87412925D01*
X109558746Y-87439500D01*
X109703613Y-87456167D01*
X109782845Y-87520084D01*
X109813937Y-87652123D01*
X109816900Y-87747433D01*
X109812899Y-87895737D01*
X109788025Y-87972810D01*
X109722976Y-88009008D01*
X109639100Y-88027051D01*
X109516182Y-88063650D01*
X109467007Y-88126261D01*
X109461300Y-88182721D01*
X109477816Y-88271197D01*
X109546134Y-88284479D01*
X109575600Y-88278589D01*
X109688124Y-88254143D01*
X109869080Y-88216621D01*
X110099496Y-88169783D01*
X110360397Y-88117390D01*
X110477300Y-88094135D01*
X110477300Y-88506300D01*
X109461300Y-88506300D01*
X109461300Y-88637066D01*
X109469011Y-88715734D01*
X109509915Y-88752782D01*
X109610670Y-88761741D01*
X109702600Y-88759552D01*
X109859449Y-88756415D01*
X110081840Y-88754814D01*
X110333724Y-88754925D01*
X110472489Y-88755785D01*
X111001078Y-88760300D01*
X110502700Y-89268150D01*
X109982000Y-89268225D01*
X109747396Y-89269591D01*
X109596209Y-89275974D01*
X109510267Y-89290923D01*
X109471398Y-89317986D01*
X109461428Y-89360712D01*
X109461300Y-89369900D01*
X109465223Y-89404042D01*
X109485612Y-89429535D01*
X109535399Y-89447638D01*
X109627518Y-89459615D01*
X109774900Y-89466726D01*
X109990479Y-89470234D01*
X110287187Y-89471399D01*
X110502700Y-89471500D01*
X110852664Y-89471117D01*
X111113960Y-89469128D01*
X111299522Y-89464270D01*
X111422282Y-89455283D01*
X111495172Y-89440904D01*
X111531125Y-89419872D01*
X111543073Y-89390925D01*
X111544100Y-89369900D01*
X111544100Y-89776300D01*
X109450196Y-89776300D01*
X109469714Y-90162813D01*
X109484409Y-90369245D01*
X109508147Y-90501201D01*
X109548691Y-90585796D01*
X109607894Y-90645413D01*
X109664096Y-90682569D01*
X109737445Y-90708822D01*
X109845179Y-90726006D01*
X110004536Y-90735955D01*
X110232754Y-90740505D01*
X110510637Y-90741500D01*
X110809240Y-90740891D01*
X111023640Y-90737476D01*
X111171231Y-90728865D01*
X111269409Y-90712674D01*
X111335569Y-90686515D01*
X111387107Y-90648001D01*
X111417100Y-90619040D01*
X111417100Y-91046300D01*
X111314957Y-91072796D01*
X111290100Y-91122500D01*
X111276465Y-91151899D01*
X111226281Y-91172816D01*
X111125630Y-91186596D01*
X110960595Y-91194588D01*
X110717257Y-91198136D01*
X110502700Y-91198700D01*
X110198903Y-91197380D01*
X109982764Y-91192523D01*
X109840365Y-91182783D01*
X109757789Y-91166812D01*
X109721118Y-91143263D01*
X109715300Y-91122500D01*
X109671140Y-91061214D01*
X109588300Y-91046300D01*
X109512927Y-91054535D01*
X109475325Y-91096562D01*
X109462504Y-91198363D01*
X109461300Y-91300300D01*
X109465418Y-91451046D01*
X109486432Y-91526250D01*
X109537332Y-91551893D01*
X109588300Y-91554300D01*
X109690444Y-91527803D01*
X109715300Y-91478100D01*
X109728936Y-91448700D01*
X109779120Y-91427783D01*
X109879771Y-91414003D01*
X110044806Y-91406011D01*
X110288144Y-91402463D01*
X110502700Y-91401900D01*
X110806498Y-91403219D01*
X111022637Y-91408076D01*
X111165036Y-91417816D01*
X111247612Y-91433787D01*
X111284283Y-91457336D01*
X111290100Y-91478100D01*
X111334261Y-91539385D01*
X111417100Y-91554300D01*
X111492474Y-91546064D01*
X111530076Y-91504037D01*
X111542897Y-91402236D01*
X111544100Y-91300300D01*
X111544100Y-91859100D01*
X109461300Y-91859100D01*
X109461300Y-92243633D01*
X109462980Y-92438274D01*
X109472222Y-92551636D01*
X109495330Y-92604031D01*
X109538608Y-92615771D01*
X109575600Y-92611933D01*
X109645432Y-92589414D01*
X109679008Y-92529320D01*
X109688641Y-92403622D01*
X109688733Y-92354400D01*
X109693989Y-92206524D01*
X109718799Y-92134027D01*
X109773909Y-92111069D01*
X109790333Y-92110123D01*
X109874549Y-92109358D01*
X110040576Y-92109171D01*
X110268627Y-92109539D01*
X110538916Y-92110439D01*
X110718600Y-92111250D01*
X111333526Y-92114306D01*
X111333526Y-92925900D01*
X109671875Y-92925900D01*
X109566588Y-93059750D01*
X109474582Y-93248035D01*
X109477153Y-93445451D01*
X109513888Y-93538839D01*
X109540528Y-93619713D01*
X109513888Y-93637100D01*
X109474583Y-93680622D01*
X109461300Y-93766077D01*
X109461300Y-93895055D01*
X109461300Y-94144523D01*
X109461300Y-94517344D01*
X109464902Y-94702264D01*
X109474401Y-94844370D01*
X109487840Y-94915955D01*
X109489642Y-94918508D01*
X109556025Y-94930629D01*
X109616642Y-94921050D01*
X109677845Y-94886043D01*
X109707469Y-94804890D01*
X109715299Y-94650431D01*
X109715300Y-94647175D01*
X109715300Y-94399100D01*
X110731300Y-94399100D01*
X110731300Y-94576900D01*
X110742666Y-94699443D01*
X110787034Y-94748888D01*
X110832900Y-94754700D01*
X110902925Y-94734811D01*
X110931179Y-94657166D01*
X110934500Y-94576900D01*
X110942426Y-94457712D01*
X110986619Y-94408830D01*
X111097705Y-94399117D01*
X111109380Y-94399100D01*
X111219496Y-94405515D01*
X111272671Y-94443672D01*
X111293934Y-94541933D01*
X111299880Y-94615000D01*
X111319308Y-94755951D01*
X111361283Y-94824259D01*
X111429800Y-94847133D01*
X111489446Y-94849467D01*
X111523649Y-94821257D01*
X111539456Y-94741516D01*
X111543916Y-94589261D01*
X111544100Y-94506774D01*
X111544100Y-94150182D01*
X110502700Y-94147352D01*
X109461300Y-94144523D01*
X109461300Y-93895055D01*
X109905800Y-93880377D01*
X110350300Y-93865700D01*
X110350300Y-93611700D01*
X110344951Y-93459349D01*
X110322247Y-93383366D01*
X110272200Y-93358786D01*
X110248700Y-93357700D01*
X110165590Y-93391334D01*
X110131026Y-93497400D01*
X110105515Y-93594070D01*
X110037315Y-93631898D01*
X109945961Y-93637100D01*
X109814342Y-93616342D01*
X109742690Y-93541325D01*
X109716477Y-93392930D01*
X109715300Y-93333580D01*
X109742352Y-93213231D01*
X109795655Y-93159935D01*
X109881148Y-93146850D01*
X110042989Y-93137471D01*
X110255996Y-93131797D01*
X110494984Y-93129827D01*
X110734770Y-93131562D01*
X110950169Y-93137002D01*
X111116000Y-93146146D01*
X111207077Y-93158996D01*
X111209746Y-93159935D01*
X111266772Y-93223989D01*
X111289313Y-93367629D01*
X111290100Y-93413935D01*
X111295668Y-93552869D01*
X111322806Y-93617878D01*
X111387165Y-93636464D01*
X111417100Y-93637100D01*
X111496351Y-93627232D01*
X111533309Y-93579246D01*
X111543769Y-93465566D01*
X111544100Y-93415350D01*
X111505268Y-93178664D01*
X111438813Y-93059750D01*
X111333526Y-92925900D01*
X111333526Y-92114306D01*
X111544100Y-92115353D01*
X111544100Y-91859100D01*
X111544100Y-91300300D01*
X111539983Y-91149553D01*
X111518969Y-91074349D01*
X111468069Y-91048706D01*
X111417100Y-91046300D01*
X111417100Y-90619040D01*
X111419410Y-90616809D01*
X111486706Y-90536417D01*
X111524520Y-90443848D01*
X111540935Y-90307818D01*
X111544100Y-90134209D01*
X111544100Y-89776300D01*
X111544100Y-89369900D01*
X111534784Y-89317168D01*
X111492554Y-89286623D01*
X111395992Y-89272336D01*
X111223680Y-89268375D01*
X111177163Y-89268300D01*
X110810225Y-89268299D01*
X111151763Y-88924125D01*
X111299017Y-88772112D01*
X111414389Y-88646121D01*
X111482092Y-88563763D01*
X111493300Y-88543125D01*
X111445037Y-88531932D01*
X111310383Y-88522109D01*
X111104547Y-88514207D01*
X110842736Y-88508777D01*
X110540156Y-88506370D01*
X110477300Y-88506300D01*
X110477300Y-88094135D01*
X110632809Y-88063200D01*
X110897758Y-88010975D01*
X111136269Y-87964474D01*
X111329368Y-87927457D01*
X111458081Y-87903685D01*
X111502743Y-87896700D01*
X111531792Y-87852518D01*
X111544098Y-87746081D01*
X111544100Y-87744300D01*
X111538651Y-87637197D01*
X111525525Y-87591908D01*
X111525328Y-87591900D01*
X111472134Y-87582228D01*
X111334660Y-87555247D01*
X111128164Y-87514007D01*
X110867904Y-87461558D01*
X110569140Y-87400952D01*
X110508955Y-87388700D01*
X110204078Y-87326842D01*
X109934316Y-87272573D01*
X109715053Y-87228947D01*
X109561671Y-87199022D01*
X109489554Y-87185855D01*
X109486327Y-87185500D01*
X109486327Y-84543900D01*
X112458500Y-84543900D01*
X112458500Y-87922724D01*
X112458500Y-88331435D01*
X112458500Y-89014300D01*
X112788700Y-89014300D01*
X112956886Y-89012311D01*
X113075820Y-89007107D01*
X113118900Y-89000132D01*
X113085327Y-88960652D01*
X112995330Y-88866630D01*
X112864991Y-88734696D01*
X112788700Y-88658700D01*
X112458500Y-88331435D01*
X112458500Y-87922724D01*
X113704758Y-89168479D01*
X113704758Y-89573100D01*
X113115496Y-89573100D01*
X112880287Y-89575862D01*
X112683558Y-89583368D01*
X112546833Y-89594449D01*
X112492367Y-89606966D01*
X112478576Y-89668742D01*
X112467490Y-89809718D01*
X112460410Y-90007506D01*
X112458500Y-90191166D01*
X112458500Y-90741500D01*
X112458500Y-91300300D01*
X112458500Y-92417900D01*
X112812289Y-92417900D01*
X112812289Y-92977411D01*
X112662311Y-92980870D01*
X112543758Y-92993037D01*
X112492367Y-93010566D01*
X112475009Y-93075305D01*
X112462794Y-93211341D01*
X112458500Y-93377399D01*
X112458500Y-93710364D01*
X112788700Y-93383100D01*
X112933900Y-93235135D01*
X113046558Y-93112610D01*
X113110386Y-93033624D01*
X113118900Y-93016267D01*
X113073770Y-92995412D01*
X112960504Y-92982359D01*
X112812289Y-92977411D01*
X112812289Y-92417900D01*
X113755633Y-92417900D01*
X114312700Y-91859100D01*
X114869768Y-91300300D01*
X112458500Y-91300300D01*
X112458500Y-90741500D01*
X114869843Y-90741500D01*
X114287300Y-90157300D01*
X113704758Y-89573100D01*
X113704758Y-89168479D01*
X114007905Y-89471504D01*
X115557310Y-91020285D01*
X114007905Y-92570295D01*
G37*
X114007905Y-92570295D02*
X112458500Y-94120304D01*
X112458500Y-97497900D01*
X108445300Y-97497900D01*
X108445300Y-94120304D01*
X106895896Y-92570295D01*
X105346491Y-91020285D01*
X106895896Y-89471504D01*
X107777278Y-88590477D01*
X107777278Y-89575766D01*
X107678061Y-89576137D01*
X107200700Y-89580979D01*
X106629200Y-90147711D01*
X106435105Y-90340995D01*
X106269263Y-90507685D01*
X106143857Y-90635412D01*
X106071066Y-90711811D01*
X106057700Y-90727971D01*
X106106159Y-90731784D01*
X106242169Y-90735182D01*
X106451682Y-90738003D01*
X106720649Y-90740089D01*
X107035024Y-90741281D01*
X107248331Y-90741500D01*
X108438962Y-90741500D01*
X108445300Y-90519581D01*
X108445300Y-91300300D01*
X106034033Y-91300300D01*
X106591100Y-91859100D01*
X107148168Y-92417900D01*
X108445300Y-92417900D01*
X108445300Y-92976700D01*
X108115100Y-92976700D01*
X107946938Y-92982252D01*
X107828008Y-92996780D01*
X107784900Y-93016267D01*
X107818750Y-93067215D01*
X107909439Y-93170597D01*
X108040676Y-93308316D01*
X108115100Y-93383100D01*
X108445300Y-93710364D01*
X108445300Y-92976700D01*
X108445300Y-92417900D01*
X108445300Y-91300300D01*
X108445300Y-90519581D01*
X108454831Y-90185862D01*
X108470700Y-89630225D01*
X108313061Y-89600760D01*
X108191938Y-89588104D01*
X108002320Y-89579345D01*
X107777278Y-89575766D01*
X107777278Y-88590477D01*
X108445300Y-87922724D01*
X108445300Y-88331435D01*
X108115100Y-88658700D01*
X107970463Y-88803492D01*
X107858020Y-88918797D01*
X107793855Y-88987984D01*
X107784900Y-89000132D01*
X107831252Y-89007348D01*
X107952525Y-89012451D01*
X108115100Y-89014300D01*
X108445300Y-89014300D01*
X108445300Y-88331435D01*
X108445300Y-87922724D01*
X108445300Y-84543900D01*
X109486327Y-84543900D01*
X109486327Y-87185500D01*
X109467494Y-87229092D01*
X109461300Y-87312500D01*
X109485906Y-87412925D01*
X109558746Y-87439500D01*
X109703613Y-87456167D01*
X109782845Y-87520084D01*
X109813937Y-87652123D01*
X109816900Y-87747433D01*
X109812899Y-87895737D01*
X109788025Y-87972810D01*
X109722976Y-88009008D01*
X109639100Y-88027051D01*
X109516182Y-88063650D01*
X109467007Y-88126261D01*
X109461300Y-88182721D01*
X109477816Y-88271197D01*
X109546134Y-88284479D01*
X109575600Y-88278589D01*
X109688124Y-88254143D01*
X109869080Y-88216621D01*
X110099496Y-88169783D01*
X110360397Y-88117390D01*
X110477300Y-88094135D01*
X110477300Y-88506300D01*
X109461300Y-88506300D01*
X109461300Y-88637066D01*
X109469011Y-88715734D01*
X109509915Y-88752782D01*
X109610670Y-88761741D01*
X109702600Y-88759552D01*
X109859449Y-88756415D01*
X110081840Y-88754814D01*
X110333724Y-88754925D01*
X110472489Y-88755785D01*
X111001078Y-88760300D01*
X110502700Y-89268150D01*
X109982000Y-89268225D01*
X109747396Y-89269591D01*
X109596209Y-89275974D01*
X109510267Y-89290923D01*
X109471398Y-89317986D01*
X109461428Y-89360712D01*
X109461300Y-89369900D01*
X109465223Y-89404042D01*
X109485612Y-89429535D01*
X109535399Y-89447638D01*
X109627518Y-89459615D01*
X109774900Y-89466726D01*
X109990479Y-89470234D01*
X110287187Y-89471399D01*
X110502700Y-89471500D01*
X110852664Y-89471117D01*
X111113960Y-89469128D01*
X111299522Y-89464270D01*
X111422282Y-89455283D01*
X111495172Y-89440904D01*
X111531125Y-89419872D01*
X111543073Y-89390925D01*
X111544100Y-89369900D01*
X111544100Y-89776300D01*
X109450196Y-89776300D01*
X109469714Y-90162813D01*
X109484409Y-90369245D01*
X109508147Y-90501201D01*
X109548691Y-90585796D01*
X109607894Y-90645413D01*
X109664096Y-90682569D01*
X109737445Y-90708822D01*
X109845179Y-90726006D01*
X110004536Y-90735955D01*
X110232754Y-90740505D01*
X110510637Y-90741500D01*
X110809240Y-90740891D01*
X111023640Y-90737476D01*
X111171231Y-90728865D01*
X111269409Y-90712674D01*
X111335569Y-90686515D01*
X111387107Y-90648001D01*
X111417100Y-90619040D01*
X111417100Y-91046300D01*
X111314957Y-91072796D01*
X111290100Y-91122500D01*
X111276465Y-91151899D01*
X111226281Y-91172816D01*
X111125630Y-91186596D01*
X110960595Y-91194588D01*
X110717257Y-91198136D01*
X110502700Y-91198700D01*
X110198903Y-91197380D01*
X109982764Y-91192523D01*
X109840365Y-91182783D01*
X109757789Y-91166812D01*
X109721118Y-91143263D01*
X109715300Y-91122500D01*
X109671140Y-91061214D01*
X109588300Y-91046300D01*
X109512927Y-91054535D01*
X109475325Y-91096562D01*
X109462504Y-91198363D01*
X109461300Y-91300300D01*
X109465418Y-91451046D01*
X109486432Y-91526250D01*
X109537332Y-91551893D01*
X109588300Y-91554300D01*
X109690444Y-91527803D01*
X109715300Y-91478100D01*
X109728936Y-91448700D01*
X109779120Y-91427783D01*
X109879771Y-91414003D01*
X110044806Y-91406011D01*
X110288144Y-91402463D01*
X110502700Y-91401900D01*
X110806498Y-91403219D01*
X111022637Y-91408076D01*
X111165036Y-91417816D01*
X111247612Y-91433787D01*
X111284283Y-91457336D01*
X111290100Y-91478100D01*
X111334261Y-91539385D01*
X111417100Y-91554300D01*
X111492474Y-91546064D01*
X111530076Y-91504037D01*
X111542897Y-91402236D01*
X111544100Y-91300300D01*
X111544100Y-91859100D01*
X109461300Y-91859100D01*
X109461300Y-92243633D01*
X109462980Y-92438274D01*
X109472222Y-92551636D01*
X109495330Y-92604031D01*
X109538608Y-92615771D01*
X109575600Y-92611933D01*
X109645432Y-92589414D01*
X109679008Y-92529320D01*
X109688641Y-92403622D01*
X109688733Y-92354400D01*
X109693989Y-92206524D01*
X109718799Y-92134027D01*
X109773909Y-92111069D01*
X109790333Y-92110123D01*
X109874549Y-92109358D01*
X110040576Y-92109171D01*
X110268627Y-92109539D01*
X110538916Y-92110439D01*
X110718600Y-92111250D01*
X111333526Y-92114306D01*
X111333526Y-92925900D01*
X109671875Y-92925900D01*
X109566588Y-93059750D01*
X109474582Y-93248035D01*
X109477153Y-93445451D01*
X109513888Y-93538839D01*
X109540528Y-93619713D01*
X109513888Y-93637100D01*
X109474583Y-93680622D01*
X109461300Y-93766077D01*
X109461300Y-93895055D01*
X109461300Y-94144523D01*
X109461300Y-94517344D01*
X109464902Y-94702264D01*
X109474401Y-94844370D01*
X109487840Y-94915955D01*
X109489642Y-94918508D01*
X109556025Y-94930629D01*
X109616642Y-94921050D01*
X109677845Y-94886043D01*
X109707469Y-94804890D01*
X109715299Y-94650431D01*
X109715300Y-94647175D01*
X109715300Y-94399100D01*
X110731300Y-94399100D01*
X110731300Y-94576900D01*
X110742666Y-94699443D01*
X110787034Y-94748888D01*
X110832900Y-94754700D01*
X110902925Y-94734811D01*
X110931179Y-94657166D01*
X110934500Y-94576900D01*
X110942426Y-94457712D01*
X110986619Y-94408830D01*
X111097705Y-94399117D01*
X111109380Y-94399100D01*
X111219496Y-94405515D01*
X111272671Y-94443672D01*
X111293934Y-94541933D01*
X111299880Y-94615000D01*
X111319308Y-94755951D01*
X111361283Y-94824259D01*
X111429800Y-94847133D01*
X111489446Y-94849467D01*
X111523649Y-94821257D01*
X111539456Y-94741516D01*
X111543916Y-94589261D01*
X111544100Y-94506774D01*
X111544100Y-94150182D01*
X110502700Y-94147352D01*
X109461300Y-94144523D01*
X109461300Y-93895055D01*
X109905800Y-93880377D01*
X110350300Y-93865700D01*
X110350300Y-93611700D01*
X110344951Y-93459349D01*
X110322247Y-93383366D01*
X110272200Y-93358786D01*
X110248700Y-93357700D01*
X110165590Y-93391334D01*
X110131026Y-93497400D01*
X110105515Y-93594070D01*
X110037315Y-93631898D01*
X109945961Y-93637100D01*
X109814342Y-93616342D01*
X109742690Y-93541325D01*
X109716477Y-93392930D01*
X109715300Y-93333580D01*
X109742352Y-93213231D01*
X109795655Y-93159935D01*
X109881148Y-93146850D01*
X110042989Y-93137471D01*
X110255996Y-93131797D01*
X110494984Y-93129827D01*
X110734770Y-93131562D01*
X110950169Y-93137002D01*
X111116000Y-93146146D01*
X111207077Y-93158996D01*
X111209746Y-93159935D01*
X111266772Y-93223989D01*
X111289313Y-93367629D01*
X111290100Y-93413935D01*
X111295668Y-93552869D01*
X111322806Y-93617878D01*
X111387165Y-93636464D01*
X111417100Y-93637100D01*
X111496351Y-93627232D01*
X111533309Y-93579246D01*
X111543769Y-93465566D01*
X111544100Y-93415350D01*
X111505268Y-93178664D01*
X111438813Y-93059750D01*
X111333526Y-92925900D01*
X111333526Y-92114306D01*
X111544100Y-92115353D01*
X111544100Y-91859100D01*
X111544100Y-91300300D01*
X111539983Y-91149553D01*
X111518969Y-91074349D01*
X111468069Y-91048706D01*
X111417100Y-91046300D01*
X111417100Y-90619040D01*
X111419410Y-90616809D01*
X111486706Y-90536417D01*
X111524520Y-90443848D01*
X111540935Y-90307818D01*
X111544100Y-90134209D01*
X111544100Y-89776300D01*
X111544100Y-89369900D01*
X111534784Y-89317168D01*
X111492554Y-89286623D01*
X111395992Y-89272336D01*
X111223680Y-89268375D01*
X111177163Y-89268300D01*
X110810225Y-89268299D01*
X111151763Y-88924125D01*
X111299017Y-88772112D01*
X111414389Y-88646121D01*
X111482092Y-88563763D01*
X111493300Y-88543125D01*
X111445037Y-88531932D01*
X111310383Y-88522109D01*
X111104547Y-88514207D01*
X110842736Y-88508777D01*
X110540156Y-88506370D01*
X110477300Y-88506300D01*
X110477300Y-88094135D01*
X110632809Y-88063200D01*
X110897758Y-88010975D01*
X111136269Y-87964474D01*
X111329368Y-87927457D01*
X111458081Y-87903685D01*
X111502743Y-87896700D01*
X111531792Y-87852518D01*
X111544098Y-87746081D01*
X111544100Y-87744300D01*
X111538651Y-87637197D01*
X111525525Y-87591908D01*
X111525328Y-87591900D01*
X111472134Y-87582228D01*
X111334660Y-87555247D01*
X111128164Y-87514007D01*
X110867904Y-87461558D01*
X110569140Y-87400952D01*
X110508955Y-87388700D01*
X110204078Y-87326842D01*
X109934316Y-87272573D01*
X109715053Y-87228947D01*
X109561671Y-87199022D01*
X109489554Y-87185855D01*
X109486327Y-87185500D01*
X109486327Y-84543900D01*
X112458500Y-84543900D01*
X112458500Y-87922724D01*
X112458500Y-88331435D01*
X112458500Y-89014300D01*
X112788700Y-89014300D01*
X112956886Y-89012311D01*
X113075820Y-89007107D01*
X113118900Y-89000132D01*
X113085327Y-88960652D01*
X112995330Y-88866630D01*
X112864991Y-88734696D01*
X112788700Y-88658700D01*
X112458500Y-88331435D01*
X112458500Y-87922724D01*
X113704758Y-89168479D01*
X113704758Y-89573100D01*
X113115496Y-89573100D01*
X112880287Y-89575862D01*
X112683558Y-89583368D01*
X112546833Y-89594449D01*
X112492367Y-89606966D01*
X112478576Y-89668742D01*
X112467490Y-89809718D01*
X112460410Y-90007506D01*
X112458500Y-90191166D01*
X112458500Y-90741500D01*
X112458500Y-91300300D01*
X112458500Y-92417900D01*
X112812289Y-92417900D01*
X112812289Y-92977411D01*
X112662311Y-92980870D01*
X112543758Y-92993037D01*
X112492367Y-93010566D01*
X112475009Y-93075305D01*
X112462794Y-93211341D01*
X112458500Y-93377399D01*
X112458500Y-93710364D01*
X112788700Y-93383100D01*
X112933900Y-93235135D01*
X113046558Y-93112610D01*
X113110386Y-93033624D01*
X113118900Y-93016267D01*
X113073770Y-92995412D01*
X112960504Y-92982359D01*
X112812289Y-92977411D01*
X112812289Y-92417900D01*
X113755633Y-92417900D01*
X114312700Y-91859100D01*
X114869768Y-91300300D01*
X112458500Y-91300300D01*
X112458500Y-90741500D01*
X114869843Y-90741500D01*
X114287300Y-90157300D01*
X113704758Y-89573100D01*
X113704758Y-89168479D01*
X114007905Y-89471504D01*
X115557310Y-91020285D01*
X114007905Y-92570295D01*
G36*
X110948365Y-87746432D02*
G01*
X110881294Y-87772947D01*
X110744424Y-87808053D01*
X110578900Y-87841932D01*
X110394212Y-87877216D01*
X110240818Y-87909028D01*
X110159800Y-87928419D01*
X110103118Y-87929094D01*
X110077022Y-87872270D01*
X110070900Y-87742216D01*
X110076092Y-87609695D01*
X110101611Y-87554595D01*
X110162378Y-87552883D01*
X110185200Y-87558073D01*
X110293168Y-87581428D01*
X110463013Y-87614968D01*
X110643565Y-87648775D01*
X110807751Y-87684188D01*
X110917107Y-87718562D01*
X110949732Y-87744879D01*
X110948365Y-87746432D01*
G37*
X110948365Y-87746432D02*
X110881294Y-87772947D01*
X110744424Y-87808053D01*
X110578900Y-87841932D01*
X110394212Y-87877216D01*
X110240818Y-87909028D01*
X110159800Y-87928419D01*
X110103118Y-87929094D01*
X110077022Y-87872270D01*
X110070900Y-87742216D01*
X110076092Y-87609695D01*
X110101611Y-87554595D01*
X110162378Y-87552883D01*
X110185200Y-87558073D01*
X110293168Y-87581428D01*
X110463013Y-87614968D01*
X110643565Y-87648775D01*
X110807751Y-87684188D01*
X110917107Y-87718562D01*
X110949732Y-87744879D01*
X110948365Y-87746432D01*
G36*
X111281179Y-90348574D02*
G01*
X111244727Y-90431584D01*
X111166210Y-90486401D01*
X111031096Y-90518684D01*
X110824852Y-90534090D01*
X110532945Y-90538279D01*
X110502700Y-90538300D01*
X110202567Y-90534826D01*
X109989374Y-90520632D01*
X109848589Y-90490061D01*
X109765679Y-90437452D01*
X109726111Y-90357147D01*
X109715352Y-90243489D01*
X109715300Y-90231712D01*
X109715300Y-90030300D01*
X111290100Y-90030300D01*
X111290100Y-90231712D01*
X111281179Y-90348574D01*
G37*
X111281179Y-90348574D02*
X111244727Y-90431584D01*
X111166210Y-90486401D01*
X111031096Y-90518684D01*
X110824852Y-90534090D01*
X110532945Y-90538279D01*
X110502700Y-90538300D01*
X110202567Y-90534826D01*
X109989374Y-90520632D01*
X109848589Y-90490061D01*
X109765679Y-90437452D01*
X109726111Y-90357147D01*
X109715352Y-90243489D01*
X109715300Y-90231712D01*
X109715300Y-90030300D01*
X111290100Y-90030300D01*
X111290100Y-90231712D01*
X111281179Y-90348574D01*
D13*
X199770000Y-82629800D02*
X196470000Y-82629800D01*
X196470000Y-82629800D02*
X196470000Y-88029800D01*
X199770000Y-82629800D02*
X199770000Y-88029800D01*
X179424600Y-82629800D02*
X179424600Y-88029800D01*
X176124600Y-82629800D02*
X176124600Y-88029800D01*
X179424600Y-82629800D02*
X176124600Y-82629800D01*
X167150148Y-64543000D02*
X167672652Y-64543000D01*
X167150148Y-66013000D02*
X167672652Y-66013000D01*
X177360948Y-74906200D02*
X177883452Y-74906200D01*
X177360948Y-76376200D02*
X177883452Y-76376200D01*
X177360948Y-64568400D02*
X177883452Y-64568400D01*
X177360948Y-66038400D02*
X177883452Y-66038400D01*
X187368548Y-74906200D02*
X187891052Y-74906200D01*
X187368548Y-76376200D02*
X187891052Y-76376200D01*
X187444748Y-66038400D02*
X187967252Y-66038400D01*
X187444748Y-64568400D02*
X187967252Y-64568400D01*
X197655548Y-76325400D02*
X198178052Y-76325400D01*
X197655548Y-74855400D02*
X198178052Y-74855400D01*
X197655548Y-64568400D02*
X198178052Y-64568400D01*
X197655548Y-66038400D02*
X198178052Y-66038400D01*
X204502652Y-82373800D02*
X203980148Y-82373800D01*
X204502652Y-83843800D02*
X203980148Y-83843800D01*
X203980148Y-92711600D02*
X204502652Y-92711600D01*
X203980148Y-94181600D02*
X204502652Y-94181600D01*
X194241052Y-82348400D02*
X193718548Y-82348400D01*
X194241052Y-83818400D02*
X193718548Y-83818400D01*
X193733748Y-94181600D02*
X194256252Y-94181600D01*
X193733748Y-92711600D02*
X194256252Y-92711600D01*
X184081052Y-83818400D02*
X183558548Y-83818400D01*
X184081052Y-82348400D02*
X183558548Y-82348400D01*
X183558548Y-94181600D02*
X184081052Y-94181600D01*
X183558548Y-92711600D02*
X184081052Y-92711600D01*
X173997252Y-82348400D02*
X173474748Y-82348400D01*
X173997252Y-83818400D02*
X173474748Y-83818400D01*
X173464548Y-92711600D02*
X173987052Y-92711600D01*
X173464548Y-94181600D02*
X173987052Y-94181600D01*
X163756000Y-53414000D02*
X160006000Y-53414000D01*
X153236000Y-53414000D02*
X156986000Y-53414000D01*
X153236000Y-62869563D02*
X153236000Y-53414000D01*
X163756000Y-62869563D02*
X163756000Y-53414000D01*
X162691563Y-63934000D02*
X160006000Y-63934000D01*
X154300437Y-63934000D02*
X156986000Y-63934000D01*
X154300437Y-63934000D02*
X153236000Y-62869563D01*
X162691563Y-63934000D02*
X163756000Y-62869563D01*
X155736000Y-65424000D02*
X155736000Y-64174000D01*
X155111000Y-64799000D02*
X156361000Y-64799000D01*
X129127200Y-64331800D02*
X129127200Y-66681800D01*
X129127200Y-71151800D02*
X129127200Y-68801800D01*
X134882763Y-71151800D02*
X129127200Y-71151800D01*
X134882763Y-64331800D02*
X129127200Y-64331800D01*
X135947200Y-65396237D02*
X135947200Y-66681800D01*
X135947200Y-70087363D02*
X135947200Y-68801800D01*
X135947200Y-70087363D02*
X134882763Y-71151800D01*
X135947200Y-65396237D02*
X134882763Y-64331800D01*
X136974700Y-69589300D02*
X136187200Y-69589300D01*
X136580950Y-69983050D02*
X136580950Y-69195550D01*
X124283800Y-67672852D02*
X124283800Y-67150348D01*
X125753800Y-67672852D02*
X125753800Y-67150348D01*
X171882800Y-76145600D02*
X175182800Y-76145600D01*
X175182800Y-76145600D02*
X175182800Y-70745600D01*
X171882800Y-76145600D02*
X171882800Y-70745600D01*
X182119000Y-76120200D02*
X185419000Y-76120200D01*
X185419000Y-76120200D02*
X185419000Y-70720200D01*
X182119000Y-76120200D02*
X182119000Y-70720200D01*
X192126600Y-76094800D02*
X195426600Y-76094800D01*
X195426600Y-76094800D02*
X195426600Y-70694800D01*
X192126600Y-76094800D02*
X192126600Y-70694800D01*
X202515200Y-76120200D02*
X202515200Y-70720200D01*
X205815200Y-76120200D02*
X205815200Y-70720200D01*
X202515200Y-76120200D02*
X205815200Y-76120200D01*
X189559200Y-82629800D02*
X189559200Y-88029800D01*
X186259200Y-82629800D02*
X186259200Y-88029800D01*
X189559200Y-82629800D02*
X186259200Y-82629800D01*
X169036000Y-82655200D02*
X169036000Y-88055200D01*
X165736000Y-82655200D02*
X165736000Y-88055200D01*
X169036000Y-82655200D02*
X165736000Y-82655200D01*
X148337400Y-67118600D02*
X148337400Y-65418600D01*
X148337400Y-65418600D02*
X145787400Y-65418600D01*
X148337400Y-67118600D02*
X145787400Y-67118600D01*
X108897800Y-67691200D02*
X108897800Y-71576200D01*
X108897800Y-71576200D02*
X111167800Y-71576200D01*
X111167800Y-71576200D02*
X111167800Y-67691200D01*
X139850800Y-69029336D02*
X139850800Y-69483464D01*
X138380800Y-69029336D02*
X138380800Y-69483464D01*
X146592000Y-74947200D02*
X146592000Y-78967200D01*
X146592000Y-78967200D02*
X156812000Y-78967200D01*
X156812000Y-78967200D02*
X156812000Y-74947200D01*
X156812000Y-74947200D02*
X146592000Y-74947200D01*
X146592000Y-76657200D02*
X147092000Y-76657200D01*
X147092000Y-76657200D02*
X147092000Y-75447200D01*
X147092000Y-75447200D02*
X156312000Y-75447200D01*
X156312000Y-75447200D02*
X156312000Y-76657200D01*
X156312000Y-76657200D02*
X156812000Y-76657200D01*
X146592000Y-77467200D02*
X147592000Y-77467200D01*
X147592000Y-77467200D02*
X147592000Y-78967200D01*
X156812000Y-77467200D02*
X155812000Y-77467200D01*
X155812000Y-77467200D02*
X155812000Y-78967200D01*
X146292000Y-76767200D02*
X146292000Y-79267200D01*
X146292000Y-79267200D02*
X148792000Y-79267200D01*
X146592000Y-101134600D02*
X146592000Y-105154600D01*
X146592000Y-105154600D02*
X159312000Y-105154600D01*
X159312000Y-105154600D02*
X159312000Y-101134600D01*
X159312000Y-101134600D02*
X146592000Y-101134600D01*
X146592000Y-102844600D02*
X147092000Y-102844600D01*
X147092000Y-102844600D02*
X147092000Y-101634600D01*
X147092000Y-101634600D02*
X158812000Y-101634600D01*
X158812000Y-101634600D02*
X158812000Y-102844600D01*
X158812000Y-102844600D02*
X159312000Y-102844600D01*
X146592000Y-103654600D02*
X147592000Y-103654600D01*
X147592000Y-103654600D02*
X147592000Y-105154600D01*
X159312000Y-103654600D02*
X158312000Y-103654600D01*
X158312000Y-103654600D02*
X158312000Y-105154600D01*
X146292000Y-102954600D02*
X146292000Y-105454600D01*
X146292000Y-105454600D02*
X148792000Y-105454600D01*
X155872000Y-83315000D02*
X157202000Y-83315000D01*
X155872000Y-84645000D02*
X155872000Y-83315000D01*
X155872000Y-85915000D02*
X158532000Y-85915000D01*
X158532000Y-85915000D02*
X158532000Y-85975000D01*
X155872000Y-85915000D02*
X155872000Y-85975000D01*
X155872000Y-85975000D02*
X158532000Y-85975000D01*
X155872000Y-94315000D02*
X157202000Y-94315000D01*
X155872000Y-95645000D02*
X155872000Y-94315000D01*
X155872000Y-96915000D02*
X158532000Y-96915000D01*
X158532000Y-96915000D02*
X158532000Y-96975000D01*
X155872000Y-96915000D02*
X155872000Y-96975000D01*
X155872000Y-96975000D02*
X158532000Y-96975000D01*
X124450800Y-72704000D02*
X127110800Y-72704000D01*
X124450800Y-72644000D02*
X124450800Y-72704000D01*
X127110800Y-72644000D02*
X127110800Y-72704000D01*
X124450800Y-72644000D02*
X127110800Y-72644000D01*
X124450800Y-71374000D02*
X124450800Y-70044000D01*
X124450800Y-70044000D02*
X125780800Y-70044000D01*
X151174200Y-60398000D02*
X149664200Y-60398000D01*
X151174200Y-56697000D02*
X149664200Y-56697000D01*
X149664200Y-53427000D02*
X149664200Y-63667000D01*
X151174200Y-63667000D02*
X146533200Y-63667000D01*
X151174200Y-53427000D02*
X146533200Y-53427000D01*
X146533200Y-53427000D02*
X146533200Y-63667000D01*
X151174200Y-53427000D02*
X151174200Y-63667000D01*
X167268536Y-66781000D02*
X168722664Y-66781000D01*
X167268536Y-68601000D02*
X168722664Y-68601000D01*
X177479336Y-68601000D02*
X178933464Y-68601000D01*
X177479336Y-66781000D02*
X178933464Y-66781000D01*
X187537736Y-68626400D02*
X188991864Y-68626400D01*
X187537736Y-66806400D02*
X188991864Y-66806400D01*
X197773936Y-66831800D02*
X199228064Y-66831800D01*
X197773936Y-68651800D02*
X199228064Y-68651800D01*
X204384264Y-90123600D02*
X202930136Y-90123600D01*
X204384264Y-91943600D02*
X202930136Y-91943600D01*
X194133364Y-91943600D02*
X192679236Y-91943600D01*
X194133364Y-90123600D02*
X192679236Y-90123600D01*
X183962664Y-90123600D02*
X182508536Y-90123600D01*
X183962664Y-91943600D02*
X182508536Y-91943600D01*
X173853464Y-91943600D02*
X172399336Y-91943600D01*
X173853464Y-90123600D02*
X172399336Y-90123600D01*
X122858200Y-69038736D02*
X122858200Y-69492864D01*
X121388200Y-69038736D02*
X121388200Y-69492864D01*
X143102064Y-65533600D02*
X142647936Y-65533600D01*
X143102064Y-67003600D02*
X142647936Y-67003600D01*
X112726800Y-68908664D02*
X112726800Y-68454536D01*
X114196800Y-68908664D02*
X114196800Y-68454536D01*
X180125200Y-69369600D02*
X180125200Y-69699600D01*
X180125200Y-74089600D02*
X180125200Y-73759600D01*
X180125200Y-74089600D02*
X177405200Y-74089600D01*
X177405200Y-74089600D02*
X177405200Y-73759600D01*
X181305200Y-73759600D02*
X180125200Y-73759600D01*
X177405200Y-69369600D02*
X180125200Y-69369600D01*
X177405200Y-69699600D02*
X177405200Y-69369600D01*
X200419800Y-69318800D02*
X200419800Y-69648800D01*
X200419800Y-74038800D02*
X200419800Y-73708800D01*
X200419800Y-74038800D02*
X197699800Y-74038800D01*
X197699800Y-74038800D02*
X197699800Y-73708800D01*
X201599800Y-73708800D02*
X200419800Y-73708800D01*
X197699800Y-69318800D02*
X200419800Y-69318800D01*
X197699800Y-69648800D02*
X197699800Y-69318800D01*
X204458400Y-89075800D02*
X204458400Y-89405800D01*
X204458400Y-89405800D02*
X201738400Y-89405800D01*
X200558400Y-85015800D02*
X201738400Y-85015800D01*
X204458400Y-84685800D02*
X204458400Y-85015800D01*
X201738400Y-84685800D02*
X204458400Y-84685800D01*
X201738400Y-84685800D02*
X201738400Y-85015800D01*
X201738400Y-89405800D02*
X201738400Y-89075800D01*
X194196800Y-89050400D02*
X194196800Y-89380400D01*
X194196800Y-89380400D02*
X191476800Y-89380400D01*
X190296800Y-84990400D02*
X191476800Y-84990400D01*
X194196800Y-84660400D02*
X194196800Y-84990400D01*
X191476800Y-84660400D02*
X194196800Y-84660400D01*
X191476800Y-84660400D02*
X191476800Y-84990400D01*
X191476800Y-89380400D02*
X191476800Y-89050400D01*
X184036800Y-89050400D02*
X184036800Y-89380400D01*
X184036800Y-89380400D02*
X181316800Y-89380400D01*
X180136800Y-84990400D02*
X181316800Y-84990400D01*
X184036800Y-84660400D02*
X184036800Y-84990400D01*
X181316800Y-84660400D02*
X184036800Y-84660400D01*
X181316800Y-84660400D02*
X181316800Y-84990400D01*
X181316800Y-89380400D02*
X181316800Y-89050400D01*
X171233000Y-89405800D02*
X171233000Y-89075800D01*
X171233000Y-84685800D02*
X171233000Y-85015800D01*
X171233000Y-84685800D02*
X173953000Y-84685800D01*
X173953000Y-84685800D02*
X173953000Y-85015800D01*
X170053000Y-85015800D02*
X171233000Y-85015800D01*
X173953000Y-89405800D02*
X171233000Y-89405800D01*
X173953000Y-89075800D02*
X173953000Y-89405800D01*
X120239400Y-71396000D02*
X120239400Y-67796000D01*
X120227878Y-71434478D02*
G75*
G02*
X115789400Y-69596000I-1838478J1838478D01*
G01*
X120227878Y-67757522D02*
G75*
G03*
X115789400Y-69596000I-1838478J-1838478D01*
G01*
X151170000Y-73551800D02*
X140930000Y-73551800D01*
X151170000Y-68910800D02*
X140930000Y-68910800D01*
X151170000Y-73551800D02*
X151170000Y-68910800D01*
X140930000Y-73551800D02*
X140930000Y-68910800D01*
X151170000Y-72041800D02*
X140930000Y-72041800D01*
X147900000Y-73551800D02*
X147900000Y-72041800D01*
X144199000Y-73551800D02*
X144199000Y-72041800D01*
X184911800Y-58039000D02*
G75*
G03*
X184911800Y-58039000I-1680000J0D01*
G01*
X175671800Y-61539000D02*
X185791800Y-61539000D01*
X175671800Y-60039000D02*
X185791800Y-60039000D01*
X175671800Y-55738000D02*
X185791800Y-55738000D01*
X175671800Y-53679000D02*
X185791800Y-53679000D01*
X175671800Y-62099000D02*
X185791800Y-62099000D01*
X175671800Y-53679000D02*
X175671800Y-62099000D01*
X185791800Y-53679000D02*
X185791800Y-62099000D01*
X177231800Y-53739000D02*
X179231800Y-53739000D01*
X177231800Y-54739000D02*
X179231800Y-54739000D01*
X177231800Y-53739000D02*
X177231800Y-54739000D01*
X179231800Y-53739000D02*
X179231800Y-54739000D01*
X184506800Y-56970000D02*
X184459800Y-57016000D01*
X182197800Y-59278000D02*
X182162800Y-59313000D01*
X184301800Y-56764000D02*
X184266800Y-56800000D01*
X182004800Y-59062000D02*
X181957800Y-59108000D01*
X182231800Y-53739000D02*
X184231800Y-53739000D01*
X182231800Y-54739000D02*
X184231800Y-54739000D01*
X182231800Y-53739000D02*
X182231800Y-54739000D01*
X184231800Y-53739000D02*
X184231800Y-54739000D01*
X175431800Y-61599000D02*
X175431800Y-62339000D01*
X175431800Y-62339000D02*
X175931800Y-62339000D01*
X178260605Y-59719253D02*
G75*
G02*
X177547800Y-59574000I-28805J1680253D01*
G01*
X176696374Y-58722042D02*
G75*
G02*
X176696800Y-57355000I1535426J683042D01*
G01*
X177548758Y-56503574D02*
G75*
G02*
X178915800Y-56504000I683042J-1535426D01*
G01*
X179767226Y-57355958D02*
G75*
G02*
X179766800Y-58723000I-1535426J-683042D01*
G01*
X178915118Y-59573756D02*
G75*
G02*
X178231800Y-59719000I-683318J1534756D01*
G01*
X195097200Y-58039000D02*
G75*
G03*
X195097200Y-58039000I-1680000J0D01*
G01*
X185857200Y-61539000D02*
X195977200Y-61539000D01*
X185857200Y-60039000D02*
X195977200Y-60039000D01*
X185857200Y-55738000D02*
X195977200Y-55738000D01*
X185857200Y-53679000D02*
X195977200Y-53679000D01*
X185857200Y-62099000D02*
X195977200Y-62099000D01*
X185857200Y-53679000D02*
X185857200Y-62099000D01*
X195977200Y-53679000D02*
X195977200Y-62099000D01*
X187417200Y-53739000D02*
X189417200Y-53739000D01*
X187417200Y-54739000D02*
X189417200Y-54739000D01*
X187417200Y-53739000D02*
X187417200Y-54739000D01*
X189417200Y-53739000D02*
X189417200Y-54739000D01*
X194692200Y-56970000D02*
X194645200Y-57016000D01*
X192383200Y-59278000D02*
X192348200Y-59313000D01*
X194487200Y-56764000D02*
X194452200Y-56800000D01*
X192190200Y-59062000D02*
X192143200Y-59108000D01*
X192417200Y-53739000D02*
X194417200Y-53739000D01*
X192417200Y-54739000D02*
X194417200Y-54739000D01*
X192417200Y-53739000D02*
X192417200Y-54739000D01*
X194417200Y-53739000D02*
X194417200Y-54739000D01*
X185617200Y-61599000D02*
X185617200Y-62339000D01*
X185617200Y-62339000D02*
X186117200Y-62339000D01*
X188446005Y-59719253D02*
G75*
G02*
X187733200Y-59574000I-28805J1680253D01*
G01*
X186881774Y-58722042D02*
G75*
G02*
X186882200Y-57355000I1535426J683042D01*
G01*
X187734158Y-56503574D02*
G75*
G02*
X189101200Y-56504000I683042J-1535426D01*
G01*
X189952626Y-57355958D02*
G75*
G02*
X189952200Y-58723000I-1535426J-683042D01*
G01*
X189100518Y-59573756D02*
G75*
G02*
X188417200Y-59719000I-683318J1534756D01*
G01*
X205282600Y-58039000D02*
G75*
G03*
X205282600Y-58039000I-1680000J0D01*
G01*
X196042600Y-61539000D02*
X206162600Y-61539000D01*
X196042600Y-60039000D02*
X206162600Y-60039000D01*
X196042600Y-55738000D02*
X206162600Y-55738000D01*
X196042600Y-53679000D02*
X206162600Y-53679000D01*
X196042600Y-62099000D02*
X206162600Y-62099000D01*
X196042600Y-53679000D02*
X196042600Y-62099000D01*
X206162600Y-53679000D02*
X206162600Y-62099000D01*
X197602600Y-53739000D02*
X199602600Y-53739000D01*
X197602600Y-54739000D02*
X199602600Y-54739000D01*
X197602600Y-53739000D02*
X197602600Y-54739000D01*
X199602600Y-53739000D02*
X199602600Y-54739000D01*
X204877600Y-56970000D02*
X204830600Y-57016000D01*
X202568600Y-59278000D02*
X202533600Y-59313000D01*
X204672600Y-56764000D02*
X204637600Y-56800000D01*
X202375600Y-59062000D02*
X202328600Y-59108000D01*
X202602600Y-53739000D02*
X204602600Y-53739000D01*
X202602600Y-54739000D02*
X204602600Y-54739000D01*
X202602600Y-53739000D02*
X202602600Y-54739000D01*
X204602600Y-53739000D02*
X204602600Y-54739000D01*
X195802600Y-61599000D02*
X195802600Y-62339000D01*
X195802600Y-62339000D02*
X196302600Y-62339000D01*
X198631405Y-59719253D02*
G75*
G02*
X197918600Y-59574000I-28805J1680253D01*
G01*
X197067174Y-58722042D02*
G75*
G02*
X197067600Y-57355000I1535426J683042D01*
G01*
X197919558Y-56503574D02*
G75*
G02*
X199286600Y-56504000I683042J-1535426D01*
G01*
X200138026Y-57355958D02*
G75*
G02*
X200137600Y-58723000I-1535426J-683042D01*
G01*
X199285918Y-59573756D02*
G75*
G02*
X198602600Y-59719000I-683318J1534756D01*
G01*
X206406400Y-96436400D02*
X205906400Y-96436400D01*
X206406400Y-97176400D02*
X206406400Y-96436400D01*
X197606400Y-105036400D02*
X197606400Y-104036400D01*
X199606400Y-105036400D02*
X199606400Y-104036400D01*
X199606400Y-104036400D02*
X197606400Y-104036400D01*
X199606400Y-105036400D02*
X197606400Y-105036400D01*
X199833400Y-99713400D02*
X199880400Y-99667400D01*
X197536400Y-102011400D02*
X197571400Y-101975400D01*
X199640400Y-99497400D02*
X199675400Y-99462400D01*
X197331400Y-101805400D02*
X197378400Y-101759400D01*
X202606400Y-105036400D02*
X202606400Y-104036400D01*
X204606400Y-105036400D02*
X204606400Y-104036400D01*
X204606400Y-104036400D02*
X202606400Y-104036400D01*
X204606400Y-105036400D02*
X202606400Y-105036400D01*
X196046400Y-105096400D02*
X196046400Y-96676400D01*
X206166400Y-105096400D02*
X206166400Y-96676400D01*
X206166400Y-96676400D02*
X196046400Y-96676400D01*
X206166400Y-105096400D02*
X196046400Y-105096400D01*
X206166400Y-103037400D02*
X196046400Y-103037400D01*
X206166400Y-98736400D02*
X196046400Y-98736400D01*
X206166400Y-97236400D02*
X196046400Y-97236400D01*
X200286400Y-100736400D02*
G75*
G03*
X200286400Y-100736400I-1680000J0D01*
G01*
X202923082Y-99201644D02*
G75*
G02*
X203606400Y-99056400I683318J-1534756D01*
G01*
X202070974Y-101419442D02*
G75*
G02*
X202071400Y-100052400I1535426J683042D01*
G01*
X204289442Y-102271826D02*
G75*
G02*
X202922400Y-102271400I-683042J1535426D01*
G01*
X205141826Y-100053358D02*
G75*
G02*
X205141400Y-101420400I-1535426J-683042D01*
G01*
X203577595Y-99056147D02*
G75*
G02*
X204290400Y-99201400I28805J-1680253D01*
G01*
X196221000Y-96436400D02*
X195721000Y-96436400D01*
X196221000Y-97176400D02*
X196221000Y-96436400D01*
X187421000Y-105036400D02*
X187421000Y-104036400D01*
X189421000Y-105036400D02*
X189421000Y-104036400D01*
X189421000Y-104036400D02*
X187421000Y-104036400D01*
X189421000Y-105036400D02*
X187421000Y-105036400D01*
X189648000Y-99713400D02*
X189695000Y-99667400D01*
X187351000Y-102011400D02*
X187386000Y-101975400D01*
X189455000Y-99497400D02*
X189490000Y-99462400D01*
X187146000Y-101805400D02*
X187193000Y-101759400D01*
X192421000Y-105036400D02*
X192421000Y-104036400D01*
X194421000Y-105036400D02*
X194421000Y-104036400D01*
X194421000Y-104036400D02*
X192421000Y-104036400D01*
X194421000Y-105036400D02*
X192421000Y-105036400D01*
X185861000Y-105096400D02*
X185861000Y-96676400D01*
X195981000Y-105096400D02*
X195981000Y-96676400D01*
X195981000Y-96676400D02*
X185861000Y-96676400D01*
X195981000Y-105096400D02*
X185861000Y-105096400D01*
X195981000Y-103037400D02*
X185861000Y-103037400D01*
X195981000Y-98736400D02*
X185861000Y-98736400D01*
X195981000Y-97236400D02*
X185861000Y-97236400D01*
X190101000Y-100736400D02*
G75*
G03*
X190101000Y-100736400I-1680000J0D01*
G01*
X192737682Y-99201644D02*
G75*
G02*
X193421000Y-99056400I683318J-1534756D01*
G01*
X191885574Y-101419442D02*
G75*
G02*
X191886000Y-100052400I1535426J683042D01*
G01*
X194104042Y-102271826D02*
G75*
G02*
X192737000Y-102271400I-683042J1535426D01*
G01*
X194956426Y-100053358D02*
G75*
G02*
X194956000Y-101420400I-1535426J-683042D01*
G01*
X193392195Y-99056147D02*
G75*
G02*
X194105000Y-99201400I28805J-1680253D01*
G01*
X186035600Y-96411000D02*
X185535600Y-96411000D01*
X186035600Y-97151000D02*
X186035600Y-96411000D01*
X177235600Y-105011000D02*
X177235600Y-104011000D01*
X179235600Y-105011000D02*
X179235600Y-104011000D01*
X179235600Y-104011000D02*
X177235600Y-104011000D01*
X179235600Y-105011000D02*
X177235600Y-105011000D01*
X179462600Y-99688000D02*
X179509600Y-99642000D01*
X177165600Y-101986000D02*
X177200600Y-101950000D01*
X179269600Y-99472000D02*
X179304600Y-99437000D01*
X176960600Y-101780000D02*
X177007600Y-101734000D01*
X182235600Y-105011000D02*
X182235600Y-104011000D01*
X184235600Y-105011000D02*
X184235600Y-104011000D01*
X184235600Y-104011000D02*
X182235600Y-104011000D01*
X184235600Y-105011000D02*
X182235600Y-105011000D01*
X175675600Y-105071000D02*
X175675600Y-96651000D01*
X185795600Y-105071000D02*
X185795600Y-96651000D01*
X185795600Y-96651000D02*
X175675600Y-96651000D01*
X185795600Y-105071000D02*
X175675600Y-105071000D01*
X185795600Y-103012000D02*
X175675600Y-103012000D01*
X185795600Y-98711000D02*
X175675600Y-98711000D01*
X185795600Y-97211000D02*
X175675600Y-97211000D01*
X179915600Y-100711000D02*
G75*
G03*
X179915600Y-100711000I-1680000J0D01*
G01*
X182552282Y-99176244D02*
G75*
G02*
X183235600Y-99031000I683318J-1534756D01*
G01*
X181700174Y-101394042D02*
G75*
G02*
X181700600Y-100027000I1535426J683042D01*
G01*
X183918642Y-102246426D02*
G75*
G02*
X182551600Y-102246000I-683042J1535426D01*
G01*
X184771026Y-100027958D02*
G75*
G02*
X184770600Y-101395000I-1535426J-683042D01*
G01*
X183206795Y-99030747D02*
G75*
G02*
X183919600Y-99176000I28805J-1680253D01*
G01*
X175850200Y-96411000D02*
X175350200Y-96411000D01*
X175850200Y-97151000D02*
X175850200Y-96411000D01*
X167050200Y-105011000D02*
X167050200Y-104011000D01*
X169050200Y-105011000D02*
X169050200Y-104011000D01*
X169050200Y-104011000D02*
X167050200Y-104011000D01*
X169050200Y-105011000D02*
X167050200Y-105011000D01*
X169277200Y-99688000D02*
X169324200Y-99642000D01*
X166980200Y-101986000D02*
X167015200Y-101950000D01*
X169084200Y-99472000D02*
X169119200Y-99437000D01*
X166775200Y-101780000D02*
X166822200Y-101734000D01*
X172050200Y-105011000D02*
X172050200Y-104011000D01*
X174050200Y-105011000D02*
X174050200Y-104011000D01*
X174050200Y-104011000D02*
X172050200Y-104011000D01*
X174050200Y-105011000D02*
X172050200Y-105011000D01*
X165490200Y-105071000D02*
X165490200Y-96651000D01*
X175610200Y-105071000D02*
X175610200Y-96651000D01*
X175610200Y-96651000D02*
X165490200Y-96651000D01*
X175610200Y-105071000D02*
X165490200Y-105071000D01*
X175610200Y-103012000D02*
X165490200Y-103012000D01*
X175610200Y-98711000D02*
X165490200Y-98711000D01*
X175610200Y-97211000D02*
X165490200Y-97211000D01*
X169730200Y-100711000D02*
G75*
G03*
X169730200Y-100711000I-1680000J0D01*
G01*
X172366882Y-99176244D02*
G75*
G02*
X173050200Y-99031000I683318J-1534756D01*
G01*
X171514774Y-101394042D02*
G75*
G02*
X171515200Y-100027000I1535426J683042D01*
G01*
X173733242Y-102246426D02*
G75*
G02*
X172366200Y-102246000I-683042J1535426D01*
G01*
X174585626Y-100027958D02*
G75*
G02*
X174585200Y-101395000I-1535426J-683042D01*
G01*
X173021395Y-99030747D02*
G75*
G02*
X173734200Y-99176000I28805J-1680253D01*
G01*
X118092000Y-64090200D02*
X118092000Y-63590200D01*
X117352000Y-64090200D02*
X118092000Y-64090200D01*
X109492000Y-55290200D02*
X110492000Y-55290200D01*
X109492000Y-57290200D02*
X110492000Y-57290200D01*
X110492000Y-57290200D02*
X110492000Y-55290200D01*
X109492000Y-57290200D02*
X109492000Y-55290200D01*
X114815000Y-57517200D02*
X114861000Y-57564200D01*
X112517000Y-55220200D02*
X112553000Y-55255200D01*
X115031000Y-57324200D02*
X115066000Y-57359200D01*
X112723000Y-55015200D02*
X112769000Y-55062200D01*
X109492000Y-60290200D02*
X110492000Y-60290200D01*
X109492000Y-62290200D02*
X110492000Y-62290200D01*
X110492000Y-62290200D02*
X110492000Y-60290200D01*
X109492000Y-62290200D02*
X109492000Y-60290200D01*
X109432000Y-53730200D02*
X117852000Y-53730200D01*
X109432000Y-63850200D02*
X117852000Y-63850200D01*
X117852000Y-63850200D02*
X117852000Y-53730200D01*
X109432000Y-63850200D02*
X109432000Y-53730200D01*
X111491000Y-63850200D02*
X111491000Y-53730200D01*
X115792000Y-63850200D02*
X115792000Y-53730200D01*
X117292000Y-63850200D02*
X117292000Y-53730200D01*
X115472000Y-56290200D02*
G75*
G03*
X115472000Y-56290200I-1680000J0D01*
G01*
X115326756Y-60606882D02*
G75*
G02*
X115472000Y-61290200I-1534756J-683318D01*
G01*
X113108958Y-59754774D02*
G75*
G02*
X114476000Y-59755200I683042J-1535426D01*
G01*
X112256574Y-61973242D02*
G75*
G02*
X112257000Y-60606200I1535426J683042D01*
G01*
X114475042Y-62825626D02*
G75*
G02*
X113108000Y-62825200I-683042J1535426D01*
G01*
X115472253Y-61261395D02*
G75*
G02*
X115327000Y-61974200I-1680253J-28805D01*
G01*
D11*
X166692342Y-77649342D02*
X166644723Y-77696961D01*
X166501866Y-77744580D01*
X166406628Y-77744580D01*
X166263771Y-77696961D01*
X166168533Y-77601723D01*
X166120914Y-77506485D01*
X166073295Y-77316009D01*
X166073295Y-77173152D01*
X166120914Y-76982676D01*
X166168533Y-76887438D01*
X166263771Y-76792200D01*
X166406628Y-76744580D01*
X166501866Y-76744580D01*
X166644723Y-76792200D01*
X166692342Y-76839819D01*
X167644723Y-77744580D02*
X167073295Y-77744580D01*
X167359009Y-77744580D02*
X167359009Y-76744580D01*
X167263771Y-76887438D01*
X167168533Y-76982676D01*
X167073295Y-77030295D01*
X168597104Y-77744580D02*
X168025676Y-77744580D01*
X168311390Y-77744580D02*
X168311390Y-76744580D01*
X168216152Y-76887438D01*
X168120914Y-76982676D01*
X168025676Y-77030295D01*
X169926095Y-74483980D02*
X169926095Y-75293504D01*
X169973714Y-75388742D01*
X170021333Y-75436361D01*
X170116571Y-75483980D01*
X170307047Y-75483980D01*
X170402285Y-75436361D01*
X170449904Y-75388742D01*
X170497523Y-75293504D01*
X170497523Y-74483980D01*
X171497523Y-75483980D02*
X170926095Y-75483980D01*
X171211809Y-75483980D02*
X171211809Y-74483980D01*
X171116571Y-74626838D01*
X171021333Y-74722076D01*
X170926095Y-74769695D01*
X174558366Y-62736480D02*
X174558366Y-63450766D01*
X174510747Y-63593623D01*
X174415509Y-63688861D01*
X174272652Y-63736480D01*
X174177414Y-63736480D01*
X175558366Y-63736480D02*
X174986938Y-63736480D01*
X175272652Y-63736480D02*
X175272652Y-62736480D01*
X175177414Y-62879338D01*
X175082176Y-62974576D01*
X174986938Y-63022195D01*
X167664166Y-52306528D02*
X168426071Y-52306528D01*
X169378452Y-52687480D02*
X168902261Y-52687480D01*
X168902261Y-51687480D01*
X169711785Y-52163671D02*
X170045119Y-52163671D01*
X170187976Y-52687480D02*
X169711785Y-52687480D01*
X169711785Y-51687480D01*
X170187976Y-51687480D01*
X170616547Y-52687480D02*
X170616547Y-51687480D01*
X170854642Y-51687480D01*
X170997500Y-51735100D01*
X171092738Y-51830338D01*
X171140357Y-51925576D01*
X171187976Y-52116052D01*
X171187976Y-52258909D01*
X171140357Y-52449385D01*
X171092738Y-52544623D01*
X170997500Y-52639861D01*
X170854642Y-52687480D01*
X170616547Y-52687480D01*
X172140357Y-52687480D02*
X171568928Y-52687480D01*
X171854642Y-52687480D02*
X171854642Y-51687480D01*
X171759404Y-51830338D01*
X171664166Y-51925576D01*
X171568928Y-51973195D01*
X172568928Y-52306528D02*
X173330833Y-52306528D01*
X172949880Y-52687480D02*
X172949880Y-51925576D01*
X169441833Y-95676980D02*
X168965642Y-95676980D01*
X168965642Y-94676980D01*
X169918023Y-95105552D02*
X169822785Y-95057933D01*
X169775166Y-95010314D01*
X169727547Y-94915076D01*
X169727547Y-94867457D01*
X169775166Y-94772219D01*
X169822785Y-94724600D01*
X169918023Y-94676980D01*
X170108500Y-94676980D01*
X170203738Y-94724600D01*
X170251357Y-94772219D01*
X170298976Y-94867457D01*
X170298976Y-94915076D01*
X170251357Y-95010314D01*
X170203738Y-95057933D01*
X170108500Y-95105552D01*
X169918023Y-95105552D01*
X169822785Y-95153171D01*
X169775166Y-95200790D01*
X169727547Y-95296028D01*
X169727547Y-95486504D01*
X169775166Y-95581742D01*
X169822785Y-95629361D01*
X169918023Y-95676980D01*
X170108500Y-95676980D01*
X170203738Y-95629361D01*
X170251357Y-95581742D01*
X170298976Y-95486504D01*
X170298976Y-95296028D01*
X170251357Y-95200790D01*
X170203738Y-95153171D01*
X170108500Y-95105552D01*
X179614533Y-95702380D02*
X179138342Y-95702380D01*
X179138342Y-94702380D01*
X179852628Y-94702380D02*
X180519295Y-94702380D01*
X180090723Y-95702380D01*
X189838033Y-95676980D02*
X189361842Y-95676980D01*
X189361842Y-94676980D01*
X190599938Y-94676980D02*
X190409461Y-94676980D01*
X190314223Y-94724600D01*
X190266604Y-94772219D01*
X190171366Y-94915076D01*
X190123747Y-95105552D01*
X190123747Y-95486504D01*
X190171366Y-95581742D01*
X190218985Y-95629361D01*
X190314223Y-95676980D01*
X190504700Y-95676980D01*
X190599938Y-95629361D01*
X190647557Y-95581742D01*
X190695176Y-95486504D01*
X190695176Y-95248409D01*
X190647557Y-95153171D01*
X190599938Y-95105552D01*
X190504700Y-95057933D01*
X190314223Y-95057933D01*
X190218985Y-95105552D01*
X190171366Y-95153171D01*
X190123747Y-95248409D01*
X199985333Y-95626180D02*
X199509142Y-95626180D01*
X199509142Y-94626180D01*
X200794857Y-94626180D02*
X200318666Y-94626180D01*
X200271047Y-95102371D01*
X200318666Y-95054752D01*
X200413904Y-95007133D01*
X200652000Y-95007133D01*
X200747238Y-95054752D01*
X200794857Y-95102371D01*
X200842476Y-95197609D01*
X200842476Y-95435704D01*
X200794857Y-95530942D01*
X200747238Y-95578561D01*
X200652000Y-95626180D01*
X200413904Y-95626180D01*
X200318666Y-95578561D01*
X200271047Y-95530942D01*
X202296733Y-64092080D02*
X201820542Y-64092080D01*
X201820542Y-63092080D01*
X203058638Y-63425414D02*
X203058638Y-64092080D01*
X202820542Y-63044461D02*
X202582447Y-63758747D01*
X203201495Y-63758747D01*
X191946233Y-64117480D02*
X191470042Y-64117480D01*
X191470042Y-63117480D01*
X192184328Y-63117480D02*
X192803376Y-63117480D01*
X192470042Y-63498433D01*
X192612900Y-63498433D01*
X192708138Y-63546052D01*
X192755757Y-63593671D01*
X192803376Y-63688909D01*
X192803376Y-63927004D01*
X192755757Y-64022242D01*
X192708138Y-64069861D01*
X192612900Y-64117480D01*
X192327185Y-64117480D01*
X192231947Y-64069861D01*
X192184328Y-64022242D01*
X181595733Y-63977780D02*
X181119542Y-63977780D01*
X181119542Y-62977780D01*
X181881447Y-63073019D02*
X181929066Y-63025400D01*
X182024304Y-62977780D01*
X182262400Y-62977780D01*
X182357638Y-63025400D01*
X182405257Y-63073019D01*
X182452876Y-63168257D01*
X182452876Y-63263495D01*
X182405257Y-63406352D01*
X181833828Y-63977780D01*
X182452876Y-63977780D01*
X171435733Y-64104780D02*
X170959542Y-64104780D01*
X170959542Y-63104780D01*
X172292876Y-64104780D02*
X171721447Y-64104780D01*
X172007161Y-64104780D02*
X172007161Y-63104780D01*
X171911923Y-63247638D01*
X171816685Y-63342876D01*
X171721447Y-63390495D01*
X130768885Y-52531971D02*
X130435552Y-52531971D01*
X130435552Y-53055780D02*
X130435552Y-52055780D01*
X130911742Y-52055780D01*
X131816504Y-53055780D02*
X131245076Y-53055780D01*
X131530790Y-53055780D02*
X131530790Y-52055780D01*
X131435552Y-52198638D01*
X131340314Y-52293876D01*
X131245076Y-52341495D01*
X132435552Y-52055780D02*
X132530790Y-52055780D01*
X132626028Y-52103400D01*
X132673647Y-52151019D01*
X132721266Y-52246257D01*
X132768885Y-52436733D01*
X132768885Y-52674828D01*
X132721266Y-52865304D01*
X132673647Y-52960542D01*
X132626028Y-53008161D01*
X132530790Y-53055780D01*
X132435552Y-53055780D01*
X132340314Y-53008161D01*
X132292695Y-52960542D01*
X132245076Y-52865304D01*
X132197457Y-52674828D01*
X132197457Y-52436733D01*
X132245076Y-52246257D01*
X132292695Y-52151019D01*
X132340314Y-52103400D01*
X132435552Y-52055780D01*
X133387933Y-52055780D02*
X133483171Y-52055780D01*
X133578409Y-52103400D01*
X133626028Y-52151019D01*
X133673647Y-52246257D01*
X133721266Y-52436733D01*
X133721266Y-52674828D01*
X133673647Y-52865304D01*
X133626028Y-52960542D01*
X133578409Y-53008161D01*
X133483171Y-53055780D01*
X133387933Y-53055780D01*
X133292695Y-53008161D01*
X133245076Y-52960542D01*
X133197457Y-52865304D01*
X133149838Y-52674828D01*
X133149838Y-52436733D01*
X133197457Y-52246257D01*
X133245076Y-52151019D01*
X133292695Y-52103400D01*
X133387933Y-52055780D01*
X190017495Y-74585580D02*
X190017495Y-75395104D01*
X190065114Y-75490342D01*
X190112733Y-75537961D01*
X190207971Y-75585580D01*
X190398447Y-75585580D01*
X190493685Y-75537961D01*
X190541304Y-75490342D01*
X190588923Y-75395104D01*
X190588923Y-74585580D01*
X190969876Y-74585580D02*
X191588923Y-74585580D01*
X191255590Y-74966533D01*
X191398447Y-74966533D01*
X191493685Y-75014152D01*
X191541304Y-75061771D01*
X191588923Y-75157009D01*
X191588923Y-75395104D01*
X191541304Y-75490342D01*
X191493685Y-75537961D01*
X191398447Y-75585580D01*
X191112733Y-75585580D01*
X191017495Y-75537961D01*
X190969876Y-75490342D01*
X107448504Y-74839580D02*
X107448504Y-75649104D01*
X107496123Y-75744342D01*
X107543742Y-75791961D01*
X107638980Y-75839580D01*
X107829457Y-75839580D01*
X107924695Y-75791961D01*
X107972314Y-75744342D01*
X108019933Y-75649104D01*
X108019933Y-74839580D01*
X109019933Y-75839580D02*
X108448504Y-75839580D01*
X108734219Y-75839580D02*
X108734219Y-74839580D01*
X108638980Y-74982438D01*
X108543742Y-75077676D01*
X108448504Y-75125295D01*
X109638980Y-74839580D02*
X109734219Y-74839580D01*
X109829457Y-74887200D01*
X109877076Y-74934819D01*
X109924695Y-75030057D01*
X109972314Y-75220533D01*
X109972314Y-75458628D01*
X109924695Y-75649104D01*
X109877076Y-75744342D01*
X109829457Y-75791961D01*
X109734219Y-75839580D01*
X109638980Y-75839580D01*
X109543742Y-75791961D01*
X109496123Y-75744342D01*
X109448504Y-75649104D01*
X109400885Y-75458628D01*
X109400885Y-75220533D01*
X109448504Y-75030057D01*
X109496123Y-74934819D01*
X109543742Y-74887200D01*
X109638980Y-74839580D01*
X147534380Y-91508104D02*
X148343904Y-91508104D01*
X148439142Y-91460485D01*
X148486761Y-91412866D01*
X148534380Y-91317628D01*
X148534380Y-91127152D01*
X148486761Y-91031914D01*
X148439142Y-90984295D01*
X148343904Y-90936676D01*
X147534380Y-90936676D01*
X148486761Y-90508104D02*
X148534380Y-90365247D01*
X148534380Y-90127152D01*
X148486761Y-90031914D01*
X148439142Y-89984295D01*
X148343904Y-89936676D01*
X148248666Y-89936676D01*
X148153428Y-89984295D01*
X148105809Y-90031914D01*
X148058190Y-90127152D01*
X148010571Y-90317628D01*
X147962952Y-90412866D01*
X147915333Y-90460485D01*
X147820095Y-90508104D01*
X147724857Y-90508104D01*
X147629619Y-90460485D01*
X147582000Y-90412866D01*
X147534380Y-90317628D01*
X147534380Y-90079533D01*
X147582000Y-89936676D01*
X148010571Y-89174771D02*
X148058190Y-89031914D01*
X148105809Y-88984295D01*
X148201047Y-88936676D01*
X148343904Y-88936676D01*
X148439142Y-88984295D01*
X148486761Y-89031914D01*
X148534380Y-89127152D01*
X148534380Y-89508104D01*
X147534380Y-89508104D01*
X147534380Y-89174771D01*
X147582000Y-89079533D01*
X147629619Y-89031914D01*
X147724857Y-88984295D01*
X147820095Y-88984295D01*
X147915333Y-89031914D01*
X147962952Y-89079533D01*
X148010571Y-89174771D01*
X148010571Y-89508104D01*
X143454380Y-102223819D02*
X142978190Y-102557152D01*
X143454380Y-102795247D02*
X142454380Y-102795247D01*
X142454380Y-102414295D01*
X142502000Y-102319057D01*
X142549619Y-102271438D01*
X142644857Y-102223819D01*
X142787714Y-102223819D01*
X142882952Y-102271438D01*
X142930571Y-102319057D01*
X142978190Y-102414295D01*
X142978190Y-102795247D01*
X143406761Y-101842866D02*
X143454380Y-101700009D01*
X143454380Y-101461914D01*
X143406761Y-101366676D01*
X143359142Y-101319057D01*
X143263904Y-101271438D01*
X143168666Y-101271438D01*
X143073428Y-101319057D01*
X143025809Y-101366676D01*
X142978190Y-101461914D01*
X142930571Y-101652390D01*
X142882952Y-101747628D01*
X142835333Y-101795247D01*
X142740095Y-101842866D01*
X142644857Y-101842866D01*
X142549619Y-101795247D01*
X142502000Y-101747628D01*
X142454380Y-101652390D01*
X142454380Y-101414295D01*
X142502000Y-101271438D01*
X142454380Y-100985723D02*
X142454380Y-100414295D01*
X143454380Y-100700009D02*
X142454380Y-100700009D01*
X159261395Y-92767380D02*
X159261395Y-93481666D01*
X159213776Y-93624523D01*
X159118538Y-93719761D01*
X158975680Y-93767380D01*
X158880442Y-93767380D01*
X160261395Y-93767380D02*
X159689966Y-93767380D01*
X159975680Y-93767380D02*
X159975680Y-92767380D01*
X159880442Y-92910238D01*
X159785204Y-93005476D01*
X159689966Y-93053095D01*
X160880442Y-92767380D02*
X160975680Y-92767380D01*
X161070919Y-92815000D01*
X161118538Y-92862619D01*
X161166157Y-92957857D01*
X161213776Y-93148333D01*
X161213776Y-93386428D01*
X161166157Y-93576904D01*
X161118538Y-93672142D01*
X161070919Y-93719761D01*
X160975680Y-93767380D01*
X160880442Y-93767380D01*
X160785204Y-93719761D01*
X160737585Y-93672142D01*
X160689966Y-93576904D01*
X160642347Y-93386428D01*
X160642347Y-93148333D01*
X160689966Y-92957857D01*
X160737585Y-92862619D01*
X160785204Y-92815000D01*
X160880442Y-92767380D01*
X161547109Y-92767380D02*
X162166157Y-92767380D01*
X161832823Y-93148333D01*
X161975680Y-93148333D01*
X162070919Y-93195952D01*
X162118538Y-93243571D01*
X162166157Y-93338809D01*
X162166157Y-93576904D01*
X162118538Y-93672142D01*
X162070919Y-93719761D01*
X161975680Y-93767380D01*
X161689966Y-93767380D01*
X161594728Y-93719761D01*
X161547109Y-93672142D01*
X162499490Y-92767380D02*
X163118538Y-92767380D01*
X162785204Y-93148333D01*
X162928061Y-93148333D01*
X163023300Y-93195952D01*
X163070919Y-93243571D01*
X163118538Y-93338809D01*
X163118538Y-93576904D01*
X163070919Y-93672142D01*
X163023300Y-93719761D01*
X162928061Y-93767380D01*
X162642347Y-93767380D01*
X162547109Y-93719761D01*
X162499490Y-93672142D01*
D10*
X159816947Y-98572304D02*
X159816947Y-97772304D01*
X160350280Y-97772304D02*
X160502661Y-97772304D01*
X160578852Y-97810400D01*
X160655042Y-97886590D01*
X160693138Y-98038971D01*
X160693138Y-98305638D01*
X160655042Y-98458019D01*
X160578852Y-98534209D01*
X160502661Y-98572304D01*
X160350280Y-98572304D01*
X160274090Y-98534209D01*
X160197900Y-98458019D01*
X160159804Y-98305638D01*
X160159804Y-98038971D01*
X160197900Y-97886590D01*
X160274090Y-97810400D01*
X160350280Y-97772304D01*
X160959804Y-97772304D02*
X161455042Y-97772304D01*
X161188376Y-98077066D01*
X161302661Y-98077066D01*
X161378852Y-98115161D01*
X161416947Y-98153257D01*
X161455042Y-98229447D01*
X161455042Y-98419923D01*
X161416947Y-98496114D01*
X161378852Y-98534209D01*
X161302661Y-98572304D01*
X161074090Y-98572304D01*
X160997900Y-98534209D01*
X160959804Y-98496114D01*
X161721709Y-97772304D02*
X162216947Y-97772304D01*
X161950280Y-98077066D01*
X162064566Y-98077066D01*
X162140757Y-98115161D01*
X162178852Y-98153257D01*
X162216947Y-98229447D01*
X162216947Y-98419923D01*
X162178852Y-98496114D01*
X162140757Y-98534209D01*
X162064566Y-98572304D01*
X161835995Y-98572304D01*
X161759804Y-98534209D01*
X161721709Y-98496114D01*
D11*
X159261395Y-81767380D02*
X159261395Y-82481666D01*
X159213776Y-82624523D01*
X159118538Y-82719761D01*
X158975680Y-82767380D01*
X158880442Y-82767380D01*
X160261395Y-82767380D02*
X159689966Y-82767380D01*
X159975680Y-82767380D02*
X159975680Y-81767380D01*
X159880442Y-81910238D01*
X159785204Y-82005476D01*
X159689966Y-82053095D01*
X160880442Y-81767380D02*
X160975680Y-81767380D01*
X161070919Y-81815000D01*
X161118538Y-81862619D01*
X161166157Y-81957857D01*
X161213776Y-82148333D01*
X161213776Y-82386428D01*
X161166157Y-82576904D01*
X161118538Y-82672142D01*
X161070919Y-82719761D01*
X160975680Y-82767380D01*
X160880442Y-82767380D01*
X160785204Y-82719761D01*
X160737585Y-82672142D01*
X160689966Y-82576904D01*
X160642347Y-82386428D01*
X160642347Y-82148333D01*
X160689966Y-81957857D01*
X160737585Y-81862619D01*
X160785204Y-81815000D01*
X160880442Y-81767380D01*
X162166157Y-82767380D02*
X161594728Y-82767380D01*
X161880442Y-82767380D02*
X161880442Y-81767380D01*
X161785204Y-81910238D01*
X161689966Y-82005476D01*
X161594728Y-82053095D01*
X162499490Y-81767380D02*
X163118538Y-81767380D01*
X162785204Y-82148333D01*
X162928061Y-82148333D01*
X163023300Y-82195952D01*
X163070919Y-82243571D01*
X163118538Y-82338809D01*
X163118538Y-82576904D01*
X163070919Y-82672142D01*
X163023300Y-82719761D01*
X162928061Y-82767380D01*
X162642347Y-82767380D01*
X162547109Y-82719761D01*
X162499490Y-82672142D01*
D10*
X159842347Y-87419904D02*
X159842347Y-86619904D01*
X160375680Y-86619904D02*
X160528061Y-86619904D01*
X160604252Y-86658000D01*
X160680442Y-86734190D01*
X160718538Y-86886571D01*
X160718538Y-87153238D01*
X160680442Y-87305619D01*
X160604252Y-87381809D01*
X160528061Y-87419904D01*
X160375680Y-87419904D01*
X160299490Y-87381809D01*
X160223300Y-87305619D01*
X160185204Y-87153238D01*
X160185204Y-86886571D01*
X160223300Y-86734190D01*
X160299490Y-86658000D01*
X160375680Y-86619904D01*
X161480442Y-87419904D02*
X161023300Y-87419904D01*
X161251871Y-87419904D02*
X161251871Y-86619904D01*
X161175680Y-86734190D01*
X161099490Y-86810380D01*
X161023300Y-86848476D01*
X161747109Y-86619904D02*
X162242347Y-86619904D01*
X161975680Y-86924666D01*
X162089966Y-86924666D01*
X162166157Y-86962761D01*
X162204252Y-87000857D01*
X162242347Y-87077047D01*
X162242347Y-87267523D01*
X162204252Y-87343714D01*
X162166157Y-87381809D01*
X162089966Y-87419904D01*
X161861395Y-87419904D01*
X161785204Y-87381809D01*
X161747109Y-87343714D01*
D11*
X197343804Y-81897480D02*
X197343804Y-80897480D01*
X197581900Y-80897480D01*
X197724757Y-80945100D01*
X197819995Y-81040338D01*
X197867614Y-81135576D01*
X197915233Y-81326052D01*
X197915233Y-81468909D01*
X197867614Y-81659385D01*
X197819995Y-81754623D01*
X197724757Y-81849861D01*
X197581900Y-81897480D01*
X197343804Y-81897480D01*
X198819995Y-80897480D02*
X198343804Y-80897480D01*
X198296185Y-81373671D01*
X198343804Y-81326052D01*
X198439042Y-81278433D01*
X198677138Y-81278433D01*
X198772376Y-81326052D01*
X198819995Y-81373671D01*
X198867614Y-81468909D01*
X198867614Y-81707004D01*
X198819995Y-81802242D01*
X198772376Y-81849861D01*
X198677138Y-81897480D01*
X198439042Y-81897480D01*
X198343804Y-81849861D01*
X198296185Y-81802242D01*
X158440095Y-69222480D02*
X158440095Y-68222480D01*
X158440095Y-68698671D02*
X159011523Y-68698671D01*
X159011523Y-69222480D02*
X159011523Y-68222480D01*
X159440095Y-68317719D02*
X159487714Y-68270100D01*
X159582952Y-68222480D01*
X159821047Y-68222480D01*
X159916285Y-68270100D01*
X159963904Y-68317719D01*
X160011523Y-68412957D01*
X160011523Y-68508195D01*
X159963904Y-68651052D01*
X159392476Y-69222480D01*
X160011523Y-69222480D01*
X177100004Y-81948280D02*
X177100004Y-80948280D01*
X177338100Y-80948280D01*
X177480957Y-80995900D01*
X177576195Y-81091138D01*
X177623814Y-81186376D01*
X177671433Y-81376852D01*
X177671433Y-81519709D01*
X177623814Y-81710185D01*
X177576195Y-81805423D01*
X177480957Y-81900661D01*
X177338100Y-81948280D01*
X177100004Y-81948280D01*
X178004766Y-80948280D02*
X178671433Y-80948280D01*
X178242861Y-81948280D01*
X166692342Y-63984142D02*
X166644723Y-64031761D01*
X166501866Y-64079380D01*
X166406628Y-64079380D01*
X166263771Y-64031761D01*
X166168533Y-63936523D01*
X166120914Y-63841285D01*
X166073295Y-63650809D01*
X166073295Y-63507952D01*
X166120914Y-63317476D01*
X166168533Y-63222238D01*
X166263771Y-63127000D01*
X166406628Y-63079380D01*
X166501866Y-63079380D01*
X166644723Y-63127000D01*
X166692342Y-63174619D01*
X167644723Y-64079380D02*
X167073295Y-64079380D01*
X167359009Y-64079380D02*
X167359009Y-63079380D01*
X167263771Y-63222238D01*
X167168533Y-63317476D01*
X167073295Y-63365095D01*
X168025676Y-63174619D02*
X168073295Y-63127000D01*
X168168533Y-63079380D01*
X168406628Y-63079380D01*
X168501866Y-63127000D01*
X168549485Y-63174619D01*
X168597104Y-63269857D01*
X168597104Y-63365095D01*
X168549485Y-63507952D01*
X167978057Y-64079380D01*
X168597104Y-64079380D01*
X176979342Y-77649342D02*
X176931723Y-77696961D01*
X176788866Y-77744580D01*
X176693628Y-77744580D01*
X176550771Y-77696961D01*
X176455533Y-77601723D01*
X176407914Y-77506485D01*
X176360295Y-77316009D01*
X176360295Y-77173152D01*
X176407914Y-76982676D01*
X176455533Y-76887438D01*
X176550771Y-76792200D01*
X176693628Y-76744580D01*
X176788866Y-76744580D01*
X176931723Y-76792200D01*
X176979342Y-76839819D01*
X177360295Y-76839819D02*
X177407914Y-76792200D01*
X177503152Y-76744580D01*
X177741247Y-76744580D01*
X177836485Y-76792200D01*
X177884104Y-76839819D01*
X177931723Y-76935057D01*
X177931723Y-77030295D01*
X177884104Y-77173152D01*
X177312676Y-77744580D01*
X177931723Y-77744580D01*
X178884104Y-77744580D02*
X178312676Y-77744580D01*
X178598390Y-77744580D02*
X178598390Y-76744580D01*
X178503152Y-76887438D01*
X178407914Y-76982676D01*
X178312676Y-77030295D01*
X176852342Y-63882542D02*
X176804723Y-63930161D01*
X176661866Y-63977780D01*
X176566628Y-63977780D01*
X176423771Y-63930161D01*
X176328533Y-63834923D01*
X176280914Y-63739685D01*
X176233295Y-63549209D01*
X176233295Y-63406352D01*
X176280914Y-63215876D01*
X176328533Y-63120638D01*
X176423771Y-63025400D01*
X176566628Y-62977780D01*
X176661866Y-62977780D01*
X176804723Y-63025400D01*
X176852342Y-63073019D01*
X177233295Y-63073019D02*
X177280914Y-63025400D01*
X177376152Y-62977780D01*
X177614247Y-62977780D01*
X177709485Y-63025400D01*
X177757104Y-63073019D01*
X177804723Y-63168257D01*
X177804723Y-63263495D01*
X177757104Y-63406352D01*
X177185676Y-63977780D01*
X177804723Y-63977780D01*
X178185676Y-63073019D02*
X178233295Y-63025400D01*
X178328533Y-62977780D01*
X178566628Y-62977780D01*
X178661866Y-63025400D01*
X178709485Y-63073019D01*
X178757104Y-63168257D01*
X178757104Y-63263495D01*
X178709485Y-63406352D01*
X178138057Y-63977780D01*
X178757104Y-63977780D01*
X186986942Y-77649342D02*
X186939323Y-77696961D01*
X186796466Y-77744580D01*
X186701228Y-77744580D01*
X186558371Y-77696961D01*
X186463133Y-77601723D01*
X186415514Y-77506485D01*
X186367895Y-77316009D01*
X186367895Y-77173152D01*
X186415514Y-76982676D01*
X186463133Y-76887438D01*
X186558371Y-76792200D01*
X186701228Y-76744580D01*
X186796466Y-76744580D01*
X186939323Y-76792200D01*
X186986942Y-76839819D01*
X187320276Y-76744580D02*
X187939323Y-76744580D01*
X187605990Y-77125533D01*
X187748847Y-77125533D01*
X187844085Y-77173152D01*
X187891704Y-77220771D01*
X187939323Y-77316009D01*
X187939323Y-77554104D01*
X187891704Y-77649342D01*
X187844085Y-77696961D01*
X187748847Y-77744580D01*
X187463133Y-77744580D01*
X187367895Y-77696961D01*
X187320276Y-77649342D01*
X188891704Y-77744580D02*
X188320276Y-77744580D01*
X188605990Y-77744580D02*
X188605990Y-76744580D01*
X188510752Y-76887438D01*
X188415514Y-76982676D01*
X188320276Y-77030295D01*
X187101242Y-64009542D02*
X187053623Y-64057161D01*
X186910766Y-64104780D01*
X186815528Y-64104780D01*
X186672671Y-64057161D01*
X186577433Y-63961923D01*
X186529814Y-63866685D01*
X186482195Y-63676209D01*
X186482195Y-63533352D01*
X186529814Y-63342876D01*
X186577433Y-63247638D01*
X186672671Y-63152400D01*
X186815528Y-63104780D01*
X186910766Y-63104780D01*
X187053623Y-63152400D01*
X187101242Y-63200019D01*
X187434576Y-63104780D02*
X188053623Y-63104780D01*
X187720290Y-63485733D01*
X187863147Y-63485733D01*
X187958385Y-63533352D01*
X188006004Y-63580971D01*
X188053623Y-63676209D01*
X188053623Y-63914304D01*
X188006004Y-64009542D01*
X187958385Y-64057161D01*
X187863147Y-64104780D01*
X187577433Y-64104780D01*
X187482195Y-64057161D01*
X187434576Y-64009542D01*
X188434576Y-63200019D02*
X188482195Y-63152400D01*
X188577433Y-63104780D01*
X188815528Y-63104780D01*
X188910766Y-63152400D01*
X188958385Y-63200019D01*
X189006004Y-63295257D01*
X189006004Y-63390495D01*
X188958385Y-63533352D01*
X188386957Y-64104780D01*
X189006004Y-64104780D01*
X197273942Y-77598542D02*
X197226323Y-77646161D01*
X197083466Y-77693780D01*
X196988228Y-77693780D01*
X196845371Y-77646161D01*
X196750133Y-77550923D01*
X196702514Y-77455685D01*
X196654895Y-77265209D01*
X196654895Y-77122352D01*
X196702514Y-76931876D01*
X196750133Y-76836638D01*
X196845371Y-76741400D01*
X196988228Y-76693780D01*
X197083466Y-76693780D01*
X197226323Y-76741400D01*
X197273942Y-76789019D01*
X198131085Y-77027114D02*
X198131085Y-77693780D01*
X197892990Y-76646161D02*
X197654895Y-77360447D01*
X198273942Y-77360447D01*
X199178704Y-77693780D02*
X198607276Y-77693780D01*
X198892990Y-77693780D02*
X198892990Y-76693780D01*
X198797752Y-76836638D01*
X198702514Y-76931876D01*
X198607276Y-76979495D01*
X197273942Y-64073042D02*
X197226323Y-64120661D01*
X197083466Y-64168280D01*
X196988228Y-64168280D01*
X196845371Y-64120661D01*
X196750133Y-64025423D01*
X196702514Y-63930185D01*
X196654895Y-63739709D01*
X196654895Y-63596852D01*
X196702514Y-63406376D01*
X196750133Y-63311138D01*
X196845371Y-63215900D01*
X196988228Y-63168280D01*
X197083466Y-63168280D01*
X197226323Y-63215900D01*
X197273942Y-63263519D01*
X198131085Y-63501614D02*
X198131085Y-64168280D01*
X197892990Y-63120661D02*
X197654895Y-63834947D01*
X198273942Y-63834947D01*
X198607276Y-63263519D02*
X198654895Y-63215900D01*
X198750133Y-63168280D01*
X198988228Y-63168280D01*
X199083466Y-63215900D01*
X199131085Y-63263519D01*
X199178704Y-63358757D01*
X199178704Y-63453995D01*
X199131085Y-63596852D01*
X198559657Y-64168280D01*
X199178704Y-64168280D01*
X203598542Y-81814942D02*
X203550923Y-81862561D01*
X203408066Y-81910180D01*
X203312828Y-81910180D01*
X203169971Y-81862561D01*
X203074733Y-81767323D01*
X203027114Y-81672085D01*
X202979495Y-81481609D01*
X202979495Y-81338752D01*
X203027114Y-81148276D01*
X203074733Y-81053038D01*
X203169971Y-80957800D01*
X203312828Y-80910180D01*
X203408066Y-80910180D01*
X203550923Y-80957800D01*
X203598542Y-81005419D01*
X204503304Y-80910180D02*
X204027114Y-80910180D01*
X203979495Y-81386371D01*
X204027114Y-81338752D01*
X204122352Y-81291133D01*
X204360447Y-81291133D01*
X204455685Y-81338752D01*
X204503304Y-81386371D01*
X204550923Y-81481609D01*
X204550923Y-81719704D01*
X204503304Y-81814942D01*
X204455685Y-81862561D01*
X204360447Y-81910180D01*
X204122352Y-81910180D01*
X204027114Y-81862561D01*
X203979495Y-81814942D01*
X205503304Y-81910180D02*
X204931876Y-81910180D01*
X205217590Y-81910180D02*
X205217590Y-80910180D01*
X205122352Y-81053038D01*
X205027114Y-81148276D01*
X204931876Y-81195895D01*
X203547742Y-95543642D02*
X203500123Y-95591261D01*
X203357266Y-95638880D01*
X203262028Y-95638880D01*
X203119171Y-95591261D01*
X203023933Y-95496023D01*
X202976314Y-95400785D01*
X202928695Y-95210309D01*
X202928695Y-95067452D01*
X202976314Y-94876976D01*
X203023933Y-94781738D01*
X203119171Y-94686500D01*
X203262028Y-94638880D01*
X203357266Y-94638880D01*
X203500123Y-94686500D01*
X203547742Y-94734119D01*
X204452504Y-94638880D02*
X203976314Y-94638880D01*
X203928695Y-95115071D01*
X203976314Y-95067452D01*
X204071552Y-95019833D01*
X204309647Y-95019833D01*
X204404885Y-95067452D01*
X204452504Y-95115071D01*
X204500123Y-95210309D01*
X204500123Y-95448404D01*
X204452504Y-95543642D01*
X204404885Y-95591261D01*
X204309647Y-95638880D01*
X204071552Y-95638880D01*
X203976314Y-95591261D01*
X203928695Y-95543642D01*
X204881076Y-94734119D02*
X204928695Y-94686500D01*
X205023933Y-94638880D01*
X205262028Y-94638880D01*
X205357266Y-94686500D01*
X205404885Y-94734119D01*
X205452504Y-94829357D01*
X205452504Y-94924595D01*
X205404885Y-95067452D01*
X204833457Y-95638880D01*
X205452504Y-95638880D01*
X193336942Y-81789542D02*
X193289323Y-81837161D01*
X193146466Y-81884780D01*
X193051228Y-81884780D01*
X192908371Y-81837161D01*
X192813133Y-81741923D01*
X192765514Y-81646685D01*
X192717895Y-81456209D01*
X192717895Y-81313352D01*
X192765514Y-81122876D01*
X192813133Y-81027638D01*
X192908371Y-80932400D01*
X193051228Y-80884780D01*
X193146466Y-80884780D01*
X193289323Y-80932400D01*
X193336942Y-80980019D01*
X194194085Y-80884780D02*
X194003609Y-80884780D01*
X193908371Y-80932400D01*
X193860752Y-80980019D01*
X193765514Y-81122876D01*
X193717895Y-81313352D01*
X193717895Y-81694304D01*
X193765514Y-81789542D01*
X193813133Y-81837161D01*
X193908371Y-81884780D01*
X194098847Y-81884780D01*
X194194085Y-81837161D01*
X194241704Y-81789542D01*
X194289323Y-81694304D01*
X194289323Y-81456209D01*
X194241704Y-81360971D01*
X194194085Y-81313352D01*
X194098847Y-81265733D01*
X193908371Y-81265733D01*
X193813133Y-81313352D01*
X193765514Y-81360971D01*
X193717895Y-81456209D01*
X195241704Y-81884780D02*
X194670276Y-81884780D01*
X194955990Y-81884780D02*
X194955990Y-80884780D01*
X194860752Y-81027638D01*
X194765514Y-81122876D01*
X194670276Y-81170495D01*
X193235342Y-95530942D02*
X193187723Y-95578561D01*
X193044866Y-95626180D01*
X192949628Y-95626180D01*
X192806771Y-95578561D01*
X192711533Y-95483323D01*
X192663914Y-95388085D01*
X192616295Y-95197609D01*
X192616295Y-95054752D01*
X192663914Y-94864276D01*
X192711533Y-94769038D01*
X192806771Y-94673800D01*
X192949628Y-94626180D01*
X193044866Y-94626180D01*
X193187723Y-94673800D01*
X193235342Y-94721419D01*
X194092485Y-94626180D02*
X193902009Y-94626180D01*
X193806771Y-94673800D01*
X193759152Y-94721419D01*
X193663914Y-94864276D01*
X193616295Y-95054752D01*
X193616295Y-95435704D01*
X193663914Y-95530942D01*
X193711533Y-95578561D01*
X193806771Y-95626180D01*
X193997247Y-95626180D01*
X194092485Y-95578561D01*
X194140104Y-95530942D01*
X194187723Y-95435704D01*
X194187723Y-95197609D01*
X194140104Y-95102371D01*
X194092485Y-95054752D01*
X193997247Y-95007133D01*
X193806771Y-95007133D01*
X193711533Y-95054752D01*
X193663914Y-95102371D01*
X193616295Y-95197609D01*
X194568676Y-94721419D02*
X194616295Y-94673800D01*
X194711533Y-94626180D01*
X194949628Y-94626180D01*
X195044866Y-94673800D01*
X195092485Y-94721419D01*
X195140104Y-94816657D01*
X195140104Y-94911895D01*
X195092485Y-95054752D01*
X194521057Y-95626180D01*
X195140104Y-95626180D01*
X183176942Y-81789542D02*
X183129323Y-81837161D01*
X182986466Y-81884780D01*
X182891228Y-81884780D01*
X182748371Y-81837161D01*
X182653133Y-81741923D01*
X182605514Y-81646685D01*
X182557895Y-81456209D01*
X182557895Y-81313352D01*
X182605514Y-81122876D01*
X182653133Y-81027638D01*
X182748371Y-80932400D01*
X182891228Y-80884780D01*
X182986466Y-80884780D01*
X183129323Y-80932400D01*
X183176942Y-80980019D01*
X183510276Y-80884780D02*
X184176942Y-80884780D01*
X183748371Y-81884780D01*
X185081704Y-81884780D02*
X184510276Y-81884780D01*
X184795990Y-81884780D02*
X184795990Y-80884780D01*
X184700752Y-81027638D01*
X184605514Y-81122876D01*
X184510276Y-81170495D01*
X183164242Y-95530942D02*
X183116623Y-95578561D01*
X182973766Y-95626180D01*
X182878528Y-95626180D01*
X182735671Y-95578561D01*
X182640433Y-95483323D01*
X182592814Y-95388085D01*
X182545195Y-95197609D01*
X182545195Y-95054752D01*
X182592814Y-94864276D01*
X182640433Y-94769038D01*
X182735671Y-94673800D01*
X182878528Y-94626180D01*
X182973766Y-94626180D01*
X183116623Y-94673800D01*
X183164242Y-94721419D01*
X183497576Y-94626180D02*
X184164242Y-94626180D01*
X183735671Y-95626180D01*
X184497576Y-94721419D02*
X184545195Y-94673800D01*
X184640433Y-94626180D01*
X184878528Y-94626180D01*
X184973766Y-94673800D01*
X185021385Y-94721419D01*
X185069004Y-94816657D01*
X185069004Y-94911895D01*
X185021385Y-95054752D01*
X184449957Y-95626180D01*
X185069004Y-95626180D01*
X173093142Y-81789542D02*
X173045523Y-81837161D01*
X172902666Y-81884780D01*
X172807428Y-81884780D01*
X172664571Y-81837161D01*
X172569333Y-81741923D01*
X172521714Y-81646685D01*
X172474095Y-81456209D01*
X172474095Y-81313352D01*
X172521714Y-81122876D01*
X172569333Y-81027638D01*
X172664571Y-80932400D01*
X172807428Y-80884780D01*
X172902666Y-80884780D01*
X173045523Y-80932400D01*
X173093142Y-80980019D01*
X173664571Y-81313352D02*
X173569333Y-81265733D01*
X173521714Y-81218114D01*
X173474095Y-81122876D01*
X173474095Y-81075257D01*
X173521714Y-80980019D01*
X173569333Y-80932400D01*
X173664571Y-80884780D01*
X173855047Y-80884780D01*
X173950285Y-80932400D01*
X173997904Y-80980019D01*
X174045523Y-81075257D01*
X174045523Y-81122876D01*
X173997904Y-81218114D01*
X173950285Y-81265733D01*
X173855047Y-81313352D01*
X173664571Y-81313352D01*
X173569333Y-81360971D01*
X173521714Y-81408590D01*
X173474095Y-81503828D01*
X173474095Y-81694304D01*
X173521714Y-81789542D01*
X173569333Y-81837161D01*
X173664571Y-81884780D01*
X173855047Y-81884780D01*
X173950285Y-81837161D01*
X173997904Y-81789542D01*
X174045523Y-81694304D01*
X174045523Y-81503828D01*
X173997904Y-81408590D01*
X173950285Y-81360971D01*
X173855047Y-81313352D01*
X174997904Y-81884780D02*
X174426476Y-81884780D01*
X174712190Y-81884780D02*
X174712190Y-80884780D01*
X174616952Y-81027638D01*
X174521714Y-81122876D01*
X174426476Y-81170495D01*
X173080442Y-95556342D02*
X173032823Y-95603961D01*
X172889966Y-95651580D01*
X172794728Y-95651580D01*
X172651871Y-95603961D01*
X172556633Y-95508723D01*
X172509014Y-95413485D01*
X172461395Y-95223009D01*
X172461395Y-95080152D01*
X172509014Y-94889676D01*
X172556633Y-94794438D01*
X172651871Y-94699200D01*
X172794728Y-94651580D01*
X172889966Y-94651580D01*
X173032823Y-94699200D01*
X173080442Y-94746819D01*
X173651871Y-95080152D02*
X173556633Y-95032533D01*
X173509014Y-94984914D01*
X173461395Y-94889676D01*
X173461395Y-94842057D01*
X173509014Y-94746819D01*
X173556633Y-94699200D01*
X173651871Y-94651580D01*
X173842347Y-94651580D01*
X173937585Y-94699200D01*
X173985204Y-94746819D01*
X174032823Y-94842057D01*
X174032823Y-94889676D01*
X173985204Y-94984914D01*
X173937585Y-95032533D01*
X173842347Y-95080152D01*
X173651871Y-95080152D01*
X173556633Y-95127771D01*
X173509014Y-95175390D01*
X173461395Y-95270628D01*
X173461395Y-95461104D01*
X173509014Y-95556342D01*
X173556633Y-95603961D01*
X173651871Y-95651580D01*
X173842347Y-95651580D01*
X173937585Y-95603961D01*
X173985204Y-95556342D01*
X174032823Y-95461104D01*
X174032823Y-95270628D01*
X173985204Y-95175390D01*
X173937585Y-95127771D01*
X173842347Y-95080152D01*
X174413776Y-94746819D02*
X174461395Y-94699200D01*
X174556633Y-94651580D01*
X174794728Y-94651580D01*
X174889966Y-94699200D01*
X174937585Y-94746819D01*
X174985204Y-94842057D01*
X174985204Y-94937295D01*
X174937585Y-95080152D01*
X174366157Y-95651580D01*
X174985204Y-95651580D01*
X153770152Y-52909742D02*
X153722533Y-52957361D01*
X153579676Y-53004980D01*
X153484438Y-53004980D01*
X153341580Y-52957361D01*
X153246342Y-52862123D01*
X153198723Y-52766885D01*
X153151104Y-52576409D01*
X153151104Y-52433552D01*
X153198723Y-52243076D01*
X153246342Y-52147838D01*
X153341580Y-52052600D01*
X153484438Y-52004980D01*
X153579676Y-52004980D01*
X153722533Y-52052600D01*
X153770152Y-52100219D01*
X154722533Y-53004980D02*
X154151104Y-53004980D01*
X154436819Y-53004980D02*
X154436819Y-52004980D01*
X154341580Y-52147838D01*
X154246342Y-52243076D01*
X154151104Y-52290695D01*
X155341580Y-52004980D02*
X155436819Y-52004980D01*
X155532057Y-52052600D01*
X155579676Y-52100219D01*
X155627295Y-52195457D01*
X155674914Y-52385933D01*
X155674914Y-52624028D01*
X155627295Y-52814504D01*
X155579676Y-52909742D01*
X155532057Y-52957361D01*
X155436819Y-53004980D01*
X155341580Y-53004980D01*
X155246342Y-52957361D01*
X155198723Y-52909742D01*
X155151104Y-52814504D01*
X155103485Y-52624028D01*
X155103485Y-52385933D01*
X155151104Y-52195457D01*
X155198723Y-52100219D01*
X155246342Y-52052600D01*
X155341580Y-52004980D01*
X156293961Y-52004980D02*
X156389200Y-52004980D01*
X156484438Y-52052600D01*
X156532057Y-52100219D01*
X156579676Y-52195457D01*
X156627295Y-52385933D01*
X156627295Y-52624028D01*
X156579676Y-52814504D01*
X156532057Y-52909742D01*
X156484438Y-52957361D01*
X156389200Y-53004980D01*
X156293961Y-53004980D01*
X156198723Y-52957361D01*
X156151104Y-52909742D01*
X156103485Y-52814504D01*
X156055866Y-52624028D01*
X156055866Y-52385933D01*
X156103485Y-52195457D01*
X156151104Y-52100219D01*
X156198723Y-52052600D01*
X156293961Y-52004980D01*
X136358452Y-64746142D02*
X136310833Y-64793761D01*
X136167976Y-64841380D01*
X136072738Y-64841380D01*
X135929880Y-64793761D01*
X135834642Y-64698523D01*
X135787023Y-64603285D01*
X135739404Y-64412809D01*
X135739404Y-64269952D01*
X135787023Y-64079476D01*
X135834642Y-63984238D01*
X135929880Y-63889000D01*
X136072738Y-63841380D01*
X136167976Y-63841380D01*
X136310833Y-63889000D01*
X136358452Y-63936619D01*
X136739404Y-63936619D02*
X136787023Y-63889000D01*
X136882261Y-63841380D01*
X137120357Y-63841380D01*
X137215595Y-63889000D01*
X137263214Y-63936619D01*
X137310833Y-64031857D01*
X137310833Y-64127095D01*
X137263214Y-64269952D01*
X136691785Y-64841380D01*
X137310833Y-64841380D01*
X137929880Y-63841380D02*
X138025119Y-63841380D01*
X138120357Y-63889000D01*
X138167976Y-63936619D01*
X138215595Y-64031857D01*
X138263214Y-64222333D01*
X138263214Y-64460428D01*
X138215595Y-64650904D01*
X138167976Y-64746142D01*
X138120357Y-64793761D01*
X138025119Y-64841380D01*
X137929880Y-64841380D01*
X137834642Y-64793761D01*
X137787023Y-64746142D01*
X137739404Y-64650904D01*
X137691785Y-64460428D01*
X137691785Y-64222333D01*
X137739404Y-64031857D01*
X137787023Y-63936619D01*
X137834642Y-63889000D01*
X137929880Y-63841380D01*
X138882261Y-63841380D02*
X138977500Y-63841380D01*
X139072738Y-63889000D01*
X139120357Y-63936619D01*
X139167976Y-64031857D01*
X139215595Y-64222333D01*
X139215595Y-64460428D01*
X139167976Y-64650904D01*
X139120357Y-64746142D01*
X139072738Y-64793761D01*
X138977500Y-64841380D01*
X138882261Y-64841380D01*
X138787023Y-64793761D01*
X138739404Y-64746142D01*
X138691785Y-64650904D01*
X138644166Y-64460428D01*
X138644166Y-64222333D01*
X138691785Y-64031857D01*
X138739404Y-63936619D01*
X138787023Y-63889000D01*
X138882261Y-63841380D01*
X123899752Y-65355742D02*
X123852133Y-65403361D01*
X123709276Y-65450980D01*
X123614038Y-65450980D01*
X123471180Y-65403361D01*
X123375942Y-65308123D01*
X123328323Y-65212885D01*
X123280704Y-65022409D01*
X123280704Y-64879552D01*
X123328323Y-64689076D01*
X123375942Y-64593838D01*
X123471180Y-64498600D01*
X123614038Y-64450980D01*
X123709276Y-64450980D01*
X123852133Y-64498600D01*
X123899752Y-64546219D01*
X124280704Y-64546219D02*
X124328323Y-64498600D01*
X124423561Y-64450980D01*
X124661657Y-64450980D01*
X124756895Y-64498600D01*
X124804514Y-64546219D01*
X124852133Y-64641457D01*
X124852133Y-64736695D01*
X124804514Y-64879552D01*
X124233085Y-65450980D01*
X124852133Y-65450980D01*
X125471180Y-64450980D02*
X125566419Y-64450980D01*
X125661657Y-64498600D01*
X125709276Y-64546219D01*
X125756895Y-64641457D01*
X125804514Y-64831933D01*
X125804514Y-65070028D01*
X125756895Y-65260504D01*
X125709276Y-65355742D01*
X125661657Y-65403361D01*
X125566419Y-65450980D01*
X125471180Y-65450980D01*
X125375942Y-65403361D01*
X125328323Y-65355742D01*
X125280704Y-65260504D01*
X125233085Y-65070028D01*
X125233085Y-64831933D01*
X125280704Y-64641457D01*
X125328323Y-64546219D01*
X125375942Y-64498600D01*
X125471180Y-64450980D01*
X126756895Y-65450980D02*
X126185466Y-65450980D01*
X126471180Y-65450980D02*
X126471180Y-64450980D01*
X126375942Y-64593838D01*
X126280704Y-64689076D01*
X126185466Y-64736695D01*
X172807404Y-77820780D02*
X172807404Y-76820780D01*
X173045500Y-76820780D01*
X173188357Y-76868400D01*
X173283595Y-76963638D01*
X173331214Y-77058876D01*
X173378833Y-77249352D01*
X173378833Y-77392209D01*
X173331214Y-77582685D01*
X173283595Y-77677923D01*
X173188357Y-77773161D01*
X173045500Y-77820780D01*
X172807404Y-77820780D01*
X174331214Y-77820780D02*
X173759785Y-77820780D01*
X174045500Y-77820780D02*
X174045500Y-76820780D01*
X173950261Y-76963638D01*
X173855023Y-77058876D01*
X173759785Y-77106495D01*
X183132504Y-77896980D02*
X183132504Y-76896980D01*
X183370600Y-76896980D01*
X183513457Y-76944600D01*
X183608695Y-77039838D01*
X183656314Y-77135076D01*
X183703933Y-77325552D01*
X183703933Y-77468409D01*
X183656314Y-77658885D01*
X183608695Y-77754123D01*
X183513457Y-77849361D01*
X183370600Y-77896980D01*
X183132504Y-77896980D01*
X184084885Y-76992219D02*
X184132504Y-76944600D01*
X184227742Y-76896980D01*
X184465838Y-76896980D01*
X184561076Y-76944600D01*
X184608695Y-76992219D01*
X184656314Y-77087457D01*
X184656314Y-77182695D01*
X184608695Y-77325552D01*
X184037266Y-77896980D01*
X184656314Y-77896980D01*
X193051204Y-77922380D02*
X193051204Y-76922380D01*
X193289300Y-76922380D01*
X193432157Y-76970000D01*
X193527395Y-77065238D01*
X193575014Y-77160476D01*
X193622633Y-77350952D01*
X193622633Y-77493809D01*
X193575014Y-77684285D01*
X193527395Y-77779523D01*
X193432157Y-77874761D01*
X193289300Y-77922380D01*
X193051204Y-77922380D01*
X193955966Y-76922380D02*
X194575014Y-76922380D01*
X194241680Y-77303333D01*
X194384538Y-77303333D01*
X194479776Y-77350952D01*
X194527395Y-77398571D01*
X194575014Y-77493809D01*
X194575014Y-77731904D01*
X194527395Y-77827142D01*
X194479776Y-77874761D01*
X194384538Y-77922380D01*
X194098823Y-77922380D01*
X194003585Y-77874761D01*
X193955966Y-77827142D01*
X203452504Y-77896980D02*
X203452504Y-76896980D01*
X203690600Y-76896980D01*
X203833457Y-76944600D01*
X203928695Y-77039838D01*
X203976314Y-77135076D01*
X204023933Y-77325552D01*
X204023933Y-77468409D01*
X203976314Y-77658885D01*
X203928695Y-77754123D01*
X203833457Y-77849361D01*
X203690600Y-77896980D01*
X203452504Y-77896980D01*
X204881076Y-77230314D02*
X204881076Y-77896980D01*
X204642980Y-76849361D02*
X204404885Y-77563647D01*
X205023933Y-77563647D01*
X187171104Y-81922880D02*
X187171104Y-80922880D01*
X187409200Y-80922880D01*
X187552057Y-80970500D01*
X187647295Y-81065738D01*
X187694914Y-81160976D01*
X187742533Y-81351452D01*
X187742533Y-81494309D01*
X187694914Y-81684785D01*
X187647295Y-81780023D01*
X187552057Y-81875261D01*
X187409200Y-81922880D01*
X187171104Y-81922880D01*
X188599676Y-80922880D02*
X188409200Y-80922880D01*
X188313961Y-80970500D01*
X188266342Y-81018119D01*
X188171104Y-81160976D01*
X188123485Y-81351452D01*
X188123485Y-81732404D01*
X188171104Y-81827642D01*
X188218723Y-81875261D01*
X188313961Y-81922880D01*
X188504438Y-81922880D01*
X188599676Y-81875261D01*
X188647295Y-81827642D01*
X188694914Y-81732404D01*
X188694914Y-81494309D01*
X188647295Y-81399071D01*
X188599676Y-81351452D01*
X188504438Y-81303833D01*
X188313961Y-81303833D01*
X188218723Y-81351452D01*
X188171104Y-81399071D01*
X188123485Y-81494309D01*
X166686004Y-81872080D02*
X166686004Y-80872080D01*
X166924100Y-80872080D01*
X167066957Y-80919700D01*
X167162195Y-81014938D01*
X167209814Y-81110176D01*
X167257433Y-81300652D01*
X167257433Y-81443509D01*
X167209814Y-81633985D01*
X167162195Y-81729223D01*
X167066957Y-81824461D01*
X166924100Y-81872080D01*
X166686004Y-81872080D01*
X167828861Y-81300652D02*
X167733623Y-81253033D01*
X167686004Y-81205414D01*
X167638385Y-81110176D01*
X167638385Y-81062557D01*
X167686004Y-80967319D01*
X167733623Y-80919700D01*
X167828861Y-80872080D01*
X168019338Y-80872080D01*
X168114576Y-80919700D01*
X168162195Y-80967319D01*
X168209814Y-81062557D01*
X168209814Y-81110176D01*
X168162195Y-81205414D01*
X168114576Y-81253033D01*
X168019338Y-81300652D01*
X167828861Y-81300652D01*
X167733623Y-81348271D01*
X167686004Y-81395890D01*
X167638385Y-81491128D01*
X167638385Y-81681604D01*
X167686004Y-81776842D01*
X167733623Y-81824461D01*
X167828861Y-81872080D01*
X168019338Y-81872080D01*
X168114576Y-81824461D01*
X168162195Y-81776842D01*
X168209814Y-81681604D01*
X168209814Y-81491128D01*
X168162195Y-81395890D01*
X168114576Y-81348271D01*
X168019338Y-81300652D01*
X145223123Y-65146180D02*
X145223123Y-64146180D01*
X145461219Y-64146180D01*
X145604076Y-64193800D01*
X145699314Y-64289038D01*
X145746933Y-64384276D01*
X145794552Y-64574752D01*
X145794552Y-64717609D01*
X145746933Y-64908085D01*
X145699314Y-65003323D01*
X145604076Y-65098561D01*
X145461219Y-65146180D01*
X145223123Y-65146180D01*
X146746933Y-65146180D02*
X146175504Y-65146180D01*
X146461219Y-65146180D02*
X146461219Y-64146180D01*
X146365980Y-64289038D01*
X146270742Y-64384276D01*
X146175504Y-64431895D01*
X147365980Y-64146180D02*
X147461219Y-64146180D01*
X147556457Y-64193800D01*
X147604076Y-64241419D01*
X147651695Y-64336657D01*
X147699314Y-64527133D01*
X147699314Y-64765228D01*
X147651695Y-64955704D01*
X147604076Y-65050942D01*
X147556457Y-65098561D01*
X147461219Y-65146180D01*
X147365980Y-65146180D01*
X147270742Y-65098561D01*
X147223123Y-65050942D01*
X147175504Y-64955704D01*
X147127885Y-64765228D01*
X147127885Y-64527133D01*
X147175504Y-64336657D01*
X147223123Y-64241419D01*
X147270742Y-64193800D01*
X147365980Y-64146180D01*
X148318361Y-64146180D02*
X148413600Y-64146180D01*
X148508838Y-64193800D01*
X148556457Y-64241419D01*
X148604076Y-64336657D01*
X148651695Y-64527133D01*
X148651695Y-64765228D01*
X148604076Y-64955704D01*
X148556457Y-65050942D01*
X148508838Y-65098561D01*
X148413600Y-65146180D01*
X148318361Y-65146180D01*
X148223123Y-65098561D01*
X148175504Y-65050942D01*
X148127885Y-64955704D01*
X148080266Y-64765228D01*
X148080266Y-64527133D01*
X148127885Y-64336657D01*
X148175504Y-64241419D01*
X148223123Y-64193800D01*
X148318361Y-64146180D01*
X108291523Y-73210680D02*
X108291523Y-72210680D01*
X108529619Y-72210680D01*
X108672476Y-72258300D01*
X108767714Y-72353538D01*
X108815333Y-72448776D01*
X108862952Y-72639252D01*
X108862952Y-72782109D01*
X108815333Y-72972585D01*
X108767714Y-73067823D01*
X108672476Y-73163061D01*
X108529619Y-73210680D01*
X108291523Y-73210680D01*
X109243904Y-72305919D02*
X109291523Y-72258300D01*
X109386761Y-72210680D01*
X109624857Y-72210680D01*
X109720095Y-72258300D01*
X109767714Y-72305919D01*
X109815333Y-72401157D01*
X109815333Y-72496395D01*
X109767714Y-72639252D01*
X109196285Y-73210680D01*
X109815333Y-73210680D01*
X110434380Y-72210680D02*
X110529619Y-72210680D01*
X110624857Y-72258300D01*
X110672476Y-72305919D01*
X110720095Y-72401157D01*
X110767714Y-72591633D01*
X110767714Y-72829728D01*
X110720095Y-73020204D01*
X110672476Y-73115442D01*
X110624857Y-73163061D01*
X110529619Y-73210680D01*
X110434380Y-73210680D01*
X110339142Y-73163061D01*
X110291523Y-73115442D01*
X110243904Y-73020204D01*
X110196285Y-72829728D01*
X110196285Y-72591633D01*
X110243904Y-72401157D01*
X110291523Y-72305919D01*
X110339142Y-72258300D01*
X110434380Y-72210680D01*
X111386761Y-72210680D02*
X111482000Y-72210680D01*
X111577238Y-72258300D01*
X111624857Y-72305919D01*
X111672476Y-72401157D01*
X111720095Y-72591633D01*
X111720095Y-72829728D01*
X111672476Y-73020204D01*
X111624857Y-73115442D01*
X111577238Y-73163061D01*
X111482000Y-73210680D01*
X111386761Y-73210680D01*
X111291523Y-73163061D01*
X111243904Y-73115442D01*
X111196285Y-73020204D01*
X111148666Y-72829728D01*
X111148666Y-72591633D01*
X111196285Y-72401157D01*
X111243904Y-72305919D01*
X111291523Y-72258300D01*
X111386761Y-72210680D01*
X137830085Y-66619571D02*
X137496752Y-66619571D01*
X137496752Y-67143380D02*
X137496752Y-66143380D01*
X137972942Y-66143380D01*
X138306276Y-66238619D02*
X138353895Y-66191000D01*
X138449133Y-66143380D01*
X138687228Y-66143380D01*
X138782466Y-66191000D01*
X138830085Y-66238619D01*
X138877704Y-66333857D01*
X138877704Y-66429095D01*
X138830085Y-66571952D01*
X138258657Y-67143380D01*
X138877704Y-67143380D01*
X139496752Y-66143380D02*
X139591990Y-66143380D01*
X139687228Y-66191000D01*
X139734847Y-66238619D01*
X139782466Y-66333857D01*
X139830085Y-66524333D01*
X139830085Y-66762428D01*
X139782466Y-66952904D01*
X139734847Y-67048142D01*
X139687228Y-67095761D01*
X139591990Y-67143380D01*
X139496752Y-67143380D01*
X139401514Y-67095761D01*
X139353895Y-67048142D01*
X139306276Y-66952904D01*
X139258657Y-66762428D01*
X139258657Y-66524333D01*
X139306276Y-66333857D01*
X139353895Y-66238619D01*
X139401514Y-66191000D01*
X139496752Y-66143380D01*
X140449133Y-66143380D02*
X140544371Y-66143380D01*
X140639609Y-66191000D01*
X140687228Y-66238619D01*
X140734847Y-66333857D01*
X140782466Y-66524333D01*
X140782466Y-66762428D01*
X140734847Y-66952904D01*
X140687228Y-67048142D01*
X140639609Y-67095761D01*
X140544371Y-67143380D01*
X140449133Y-67143380D01*
X140353895Y-67095761D01*
X140306276Y-67048142D01*
X140258657Y-66952904D01*
X140211038Y-66762428D01*
X140211038Y-66524333D01*
X140258657Y-66333857D01*
X140306276Y-66238619D01*
X140353895Y-66191000D01*
X140449133Y-66143380D01*
X108419995Y-101747580D02*
X108419995Y-100747580D01*
X108419995Y-101223771D02*
X108991423Y-101223771D01*
X108991423Y-101747580D02*
X108991423Y-100747580D01*
X109991423Y-101747580D02*
X109419995Y-101747580D01*
X109705709Y-101747580D02*
X109705709Y-100747580D01*
X109610471Y-100890438D01*
X109515233Y-100985676D01*
X109419995Y-101033295D01*
X208254695Y-76944480D02*
X208254695Y-75944480D01*
X208254695Y-76420671D02*
X208826123Y-76420671D01*
X208826123Y-76944480D02*
X208826123Y-75944480D01*
X209207076Y-75944480D02*
X209826123Y-75944480D01*
X209492790Y-76325433D01*
X209635647Y-76325433D01*
X209730885Y-76373052D01*
X209778504Y-76420671D01*
X209826123Y-76515909D01*
X209826123Y-76754004D01*
X209778504Y-76849242D01*
X209730885Y-76896861D01*
X209635647Y-76944480D01*
X209349933Y-76944480D01*
X209254695Y-76896861D01*
X209207076Y-76849242D01*
X155174276Y-73391780D02*
X155174276Y-74106066D01*
X155126657Y-74248923D01*
X155031419Y-74344161D01*
X154888561Y-74391780D01*
X154793323Y-74391780D01*
X156174276Y-74391780D02*
X155602847Y-74391780D01*
X155888561Y-74391780D02*
X155888561Y-73391780D01*
X155793323Y-73534638D01*
X155698085Y-73629876D01*
X155602847Y-73677495D01*
X156793323Y-73391780D02*
X156888561Y-73391780D01*
X156983800Y-73439400D01*
X157031419Y-73487019D01*
X157079038Y-73582257D01*
X157126657Y-73772733D01*
X157126657Y-74010828D01*
X157079038Y-74201304D01*
X157031419Y-74296542D01*
X156983800Y-74344161D01*
X156888561Y-74391780D01*
X156793323Y-74391780D01*
X156698085Y-74344161D01*
X156650466Y-74296542D01*
X156602847Y-74201304D01*
X156555228Y-74010828D01*
X156555228Y-73772733D01*
X156602847Y-73582257D01*
X156650466Y-73487019D01*
X156698085Y-73439400D01*
X156793323Y-73391780D01*
D10*
X147538809Y-79648104D02*
X147157857Y-79648104D01*
X147119761Y-80029057D01*
X147157857Y-79990961D01*
X147234047Y-79952866D01*
X147424523Y-79952866D01*
X147500714Y-79990961D01*
X147538809Y-80029057D01*
X147576904Y-80105247D01*
X147576904Y-80295723D01*
X147538809Y-80371914D01*
X147500714Y-80410009D01*
X147424523Y-80448104D01*
X147234047Y-80448104D01*
X147157857Y-80410009D01*
X147119761Y-80371914D01*
X147805476Y-79648104D02*
X148072142Y-80448104D01*
X148338809Y-79648104D01*
X148872142Y-80029057D02*
X148605476Y-80029057D01*
X148605476Y-80448104D02*
X148605476Y-79648104D01*
X148986428Y-79648104D01*
X149291190Y-80143342D02*
X149900714Y-80143342D01*
X150281666Y-80448104D02*
X150281666Y-79648104D01*
X150815000Y-79648104D02*
X150967380Y-79648104D01*
X151043571Y-79686200D01*
X151119761Y-79762390D01*
X151157857Y-79914771D01*
X151157857Y-80181438D01*
X151119761Y-80333819D01*
X151043571Y-80410009D01*
X150967380Y-80448104D01*
X150815000Y-80448104D01*
X150738809Y-80410009D01*
X150662619Y-80333819D01*
X150624523Y-80181438D01*
X150624523Y-79914771D01*
X150662619Y-79762390D01*
X150738809Y-79686200D01*
X150815000Y-79648104D01*
X151424523Y-79648104D02*
X151919761Y-79648104D01*
X151653095Y-79952866D01*
X151767380Y-79952866D01*
X151843571Y-79990961D01*
X151881666Y-80029057D01*
X151919761Y-80105247D01*
X151919761Y-80295723D01*
X151881666Y-80371914D01*
X151843571Y-80410009D01*
X151767380Y-80448104D01*
X151538809Y-80448104D01*
X151462619Y-80410009D01*
X151424523Y-80371914D01*
X152224523Y-79724295D02*
X152262619Y-79686200D01*
X152338809Y-79648104D01*
X152529285Y-79648104D01*
X152605476Y-79686200D01*
X152643571Y-79724295D01*
X152681666Y-79800485D01*
X152681666Y-79876676D01*
X152643571Y-79990961D01*
X152186428Y-80448104D01*
X152681666Y-80448104D01*
X153024523Y-80143342D02*
X153634047Y-80143342D01*
X154434047Y-79686200D02*
X154357857Y-79648104D01*
X154243571Y-79648104D01*
X154129285Y-79686200D01*
X154053095Y-79762390D01*
X154015000Y-79838580D01*
X153976904Y-79990961D01*
X153976904Y-80105247D01*
X154015000Y-80257628D01*
X154053095Y-80333819D01*
X154129285Y-80410009D01*
X154243571Y-80448104D01*
X154319761Y-80448104D01*
X154434047Y-80410009D01*
X154472142Y-80371914D01*
X154472142Y-80105247D01*
X154319761Y-80105247D01*
X154815000Y-80448104D02*
X154815000Y-79648104D01*
X155272142Y-80448104D01*
X155272142Y-79648104D01*
X155653095Y-80448104D02*
X155653095Y-79648104D01*
X155843571Y-79648104D01*
X155957857Y-79686200D01*
X156034047Y-79762390D01*
X156072142Y-79838580D01*
X156110238Y-79990961D01*
X156110238Y-80105247D01*
X156072142Y-80257628D01*
X156034047Y-80333819D01*
X155957857Y-80410009D01*
X155843571Y-80448104D01*
X155653095Y-80448104D01*
D11*
X152142476Y-99496980D02*
X152142476Y-100211266D01*
X152094857Y-100354123D01*
X151999619Y-100449361D01*
X151856761Y-100496980D01*
X151761523Y-100496980D01*
X152571047Y-99592219D02*
X152618666Y-99544600D01*
X152713904Y-99496980D01*
X152952000Y-99496980D01*
X153047238Y-99544600D01*
X153094857Y-99592219D01*
X153142476Y-99687457D01*
X153142476Y-99782695D01*
X153094857Y-99925552D01*
X152523428Y-100496980D01*
X153142476Y-100496980D01*
X153761523Y-99496980D02*
X153856761Y-99496980D01*
X153952000Y-99544600D01*
X153999619Y-99592219D01*
X154047238Y-99687457D01*
X154094857Y-99877933D01*
X154094857Y-100116028D01*
X154047238Y-100306504D01*
X153999619Y-100401742D01*
X153952000Y-100449361D01*
X153856761Y-100496980D01*
X153761523Y-100496980D01*
X153666285Y-100449361D01*
X153618666Y-100401742D01*
X153571047Y-100306504D01*
X153523428Y-100116028D01*
X153523428Y-99877933D01*
X153571047Y-99687457D01*
X153618666Y-99592219D01*
X153666285Y-99544600D01*
X153761523Y-99496980D01*
D10*
X146323428Y-106606504D02*
X146323428Y-105806504D01*
X146856761Y-105806504D02*
X147009142Y-105806504D01*
X147085333Y-105844600D01*
X147161523Y-105920790D01*
X147199619Y-106073171D01*
X147199619Y-106339838D01*
X147161523Y-106492219D01*
X147085333Y-106568409D01*
X147009142Y-106606504D01*
X146856761Y-106606504D01*
X146780571Y-106568409D01*
X146704380Y-106492219D01*
X146666285Y-106339838D01*
X146666285Y-106073171D01*
X146704380Y-105920790D01*
X146780571Y-105844600D01*
X146856761Y-105806504D01*
X147694857Y-105806504D02*
X147771047Y-105806504D01*
X147847238Y-105844600D01*
X147885333Y-105882695D01*
X147923428Y-105958885D01*
X147961523Y-106111266D01*
X147961523Y-106301742D01*
X147923428Y-106454123D01*
X147885333Y-106530314D01*
X147847238Y-106568409D01*
X147771047Y-106606504D01*
X147694857Y-106606504D01*
X147618666Y-106568409D01*
X147580571Y-106530314D01*
X147542476Y-106454123D01*
X147504380Y-106301742D01*
X147504380Y-106111266D01*
X147542476Y-105958885D01*
X147580571Y-105882695D01*
X147618666Y-105844600D01*
X147694857Y-105806504D01*
X148685333Y-105806504D02*
X148304380Y-105806504D01*
X148266285Y-106187457D01*
X148304380Y-106149361D01*
X148380571Y-106111266D01*
X148571047Y-106111266D01*
X148647238Y-106149361D01*
X148685333Y-106187457D01*
X148723428Y-106263647D01*
X148723428Y-106454123D01*
X148685333Y-106530314D01*
X148647238Y-106568409D01*
X148571047Y-106606504D01*
X148380571Y-106606504D01*
X148304380Y-106568409D01*
X148266285Y-106530314D01*
X149066285Y-106301742D02*
X149675809Y-106301742D01*
X150056761Y-106606504D02*
X150056761Y-105806504D01*
X150590095Y-105806504D02*
X150742476Y-105806504D01*
X150818666Y-105844600D01*
X150894857Y-105920790D01*
X150932952Y-106073171D01*
X150932952Y-106339838D01*
X150894857Y-106492219D01*
X150818666Y-106568409D01*
X150742476Y-106606504D01*
X150590095Y-106606504D01*
X150513904Y-106568409D01*
X150437714Y-106492219D01*
X150399619Y-106339838D01*
X150399619Y-106073171D01*
X150437714Y-105920790D01*
X150513904Y-105844600D01*
X150590095Y-105806504D01*
X151237714Y-105882695D02*
X151275809Y-105844600D01*
X151352000Y-105806504D01*
X151542476Y-105806504D01*
X151618666Y-105844600D01*
X151656761Y-105882695D01*
X151694857Y-105958885D01*
X151694857Y-106035076D01*
X151656761Y-106149361D01*
X151199619Y-106606504D01*
X151694857Y-106606504D01*
X152380571Y-105806504D02*
X152228190Y-105806504D01*
X152152000Y-105844600D01*
X152113904Y-105882695D01*
X152037714Y-105996980D01*
X151999619Y-106149361D01*
X151999619Y-106454123D01*
X152037714Y-106530314D01*
X152075809Y-106568409D01*
X152152000Y-106606504D01*
X152304380Y-106606504D01*
X152380571Y-106568409D01*
X152418666Y-106530314D01*
X152456761Y-106454123D01*
X152456761Y-106263647D01*
X152418666Y-106187457D01*
X152380571Y-106149361D01*
X152304380Y-106111266D01*
X152152000Y-106111266D01*
X152075809Y-106149361D01*
X152037714Y-106187457D01*
X151999619Y-106263647D01*
X152799619Y-106301742D02*
X153409142Y-106301742D01*
X153790095Y-106606504D02*
X153790095Y-105806504D01*
X154323428Y-105806504D02*
X154475809Y-105806504D01*
X154552000Y-105844600D01*
X154628190Y-105920790D01*
X154666285Y-106073171D01*
X154666285Y-106339838D01*
X154628190Y-106492219D01*
X154552000Y-106568409D01*
X154475809Y-106606504D01*
X154323428Y-106606504D01*
X154247238Y-106568409D01*
X154171047Y-106492219D01*
X154132952Y-106339838D01*
X154132952Y-106073171D01*
X154171047Y-105920790D01*
X154247238Y-105844600D01*
X154323428Y-105806504D01*
X154971047Y-105882695D02*
X155009142Y-105844600D01*
X155085333Y-105806504D01*
X155275809Y-105806504D01*
X155352000Y-105844600D01*
X155390095Y-105882695D01*
X155428190Y-105958885D01*
X155428190Y-106035076D01*
X155390095Y-106149361D01*
X154932952Y-106606504D01*
X155428190Y-106606504D01*
X155694857Y-105806504D02*
X156228190Y-105806504D01*
X155885333Y-106606504D01*
X156532952Y-106301742D02*
X157142476Y-106301742D01*
X157942476Y-105844600D02*
X157866285Y-105806504D01*
X157752000Y-105806504D01*
X157637714Y-105844600D01*
X157561523Y-105920790D01*
X157523428Y-105996980D01*
X157485333Y-106149361D01*
X157485333Y-106263647D01*
X157523428Y-106416028D01*
X157561523Y-106492219D01*
X157637714Y-106568409D01*
X157752000Y-106606504D01*
X157828190Y-106606504D01*
X157942476Y-106568409D01*
X157980571Y-106530314D01*
X157980571Y-106263647D01*
X157828190Y-106263647D01*
X158323428Y-106606504D02*
X158323428Y-105806504D01*
X158780571Y-106606504D01*
X158780571Y-105806504D01*
X159161523Y-106606504D02*
X159161523Y-105806504D01*
X159352000Y-105806504D01*
X159466285Y-105844600D01*
X159542476Y-105920790D01*
X159580571Y-105996980D01*
X159618666Y-106149361D01*
X159618666Y-106263647D01*
X159580571Y-106416028D01*
X159542476Y-106492219D01*
X159466285Y-106568409D01*
X159352000Y-106606504D01*
X159161523Y-106606504D01*
D11*
X156392476Y-81767380D02*
X156392476Y-82481666D01*
X156344857Y-82624523D01*
X156249619Y-82719761D01*
X156106761Y-82767380D01*
X156011523Y-82767380D01*
X157297238Y-81767380D02*
X157106761Y-81767380D01*
X157011523Y-81815000D01*
X156963904Y-81862619D01*
X156868666Y-82005476D01*
X156821047Y-82195952D01*
X156821047Y-82576904D01*
X156868666Y-82672142D01*
X156916285Y-82719761D01*
X157011523Y-82767380D01*
X157202000Y-82767380D01*
X157297238Y-82719761D01*
X157344857Y-82672142D01*
X157392476Y-82576904D01*
X157392476Y-82338809D01*
X157344857Y-82243571D01*
X157297238Y-82195952D01*
X157202000Y-82148333D01*
X157011523Y-82148333D01*
X156916285Y-82195952D01*
X156868666Y-82243571D01*
X156821047Y-82338809D01*
X158344857Y-82767380D02*
X157773428Y-82767380D01*
X158059142Y-82767380D02*
X158059142Y-81767380D01*
X157963904Y-81910238D01*
X157868666Y-82005476D01*
X157773428Y-82053095D01*
D10*
X156592476Y-86632600D02*
X156516285Y-86594504D01*
X156402000Y-86594504D01*
X156287714Y-86632600D01*
X156211523Y-86708790D01*
X156173428Y-86784980D01*
X156135333Y-86937361D01*
X156135333Y-87051647D01*
X156173428Y-87204028D01*
X156211523Y-87280219D01*
X156287714Y-87356409D01*
X156402000Y-87394504D01*
X156478190Y-87394504D01*
X156592476Y-87356409D01*
X156630571Y-87318314D01*
X156630571Y-87051647D01*
X156478190Y-87051647D01*
X156973428Y-87394504D02*
X156973428Y-86594504D01*
X157430571Y-87394504D01*
X157430571Y-86594504D01*
X157811523Y-87394504D02*
X157811523Y-86594504D01*
X158002000Y-86594504D01*
X158116285Y-86632600D01*
X158192476Y-86708790D01*
X158230571Y-86784980D01*
X158268666Y-86937361D01*
X158268666Y-87051647D01*
X158230571Y-87204028D01*
X158192476Y-87280219D01*
X158116285Y-87356409D01*
X158002000Y-87394504D01*
X157811523Y-87394504D01*
D11*
X156392476Y-92767380D02*
X156392476Y-93481666D01*
X156344857Y-93624523D01*
X156249619Y-93719761D01*
X156106761Y-93767380D01*
X156011523Y-93767380D01*
X157297238Y-92767380D02*
X157106761Y-92767380D01*
X157011523Y-92815000D01*
X156963904Y-92862619D01*
X156868666Y-93005476D01*
X156821047Y-93195952D01*
X156821047Y-93576904D01*
X156868666Y-93672142D01*
X156916285Y-93719761D01*
X157011523Y-93767380D01*
X157202000Y-93767380D01*
X157297238Y-93719761D01*
X157344857Y-93672142D01*
X157392476Y-93576904D01*
X157392476Y-93338809D01*
X157344857Y-93243571D01*
X157297238Y-93195952D01*
X157202000Y-93148333D01*
X157011523Y-93148333D01*
X156916285Y-93195952D01*
X156868666Y-93243571D01*
X156821047Y-93338809D01*
X157773428Y-92862619D02*
X157821047Y-92815000D01*
X157916285Y-92767380D01*
X158154380Y-92767380D01*
X158249619Y-92815000D01*
X158297238Y-92862619D01*
X158344857Y-92957857D01*
X158344857Y-93053095D01*
X158297238Y-93195952D01*
X157725809Y-93767380D01*
X158344857Y-93767380D01*
D10*
X156567076Y-97886600D02*
X156490885Y-97848504D01*
X156376600Y-97848504D01*
X156262314Y-97886600D01*
X156186123Y-97962790D01*
X156148028Y-98038980D01*
X156109933Y-98191361D01*
X156109933Y-98305647D01*
X156148028Y-98458028D01*
X156186123Y-98534219D01*
X156262314Y-98610409D01*
X156376600Y-98648504D01*
X156452790Y-98648504D01*
X156567076Y-98610409D01*
X156605171Y-98572314D01*
X156605171Y-98305647D01*
X156452790Y-98305647D01*
X156948028Y-98648504D02*
X156948028Y-97848504D01*
X157405171Y-98648504D01*
X157405171Y-97848504D01*
X157786123Y-98648504D02*
X157786123Y-97848504D01*
X157976600Y-97848504D01*
X158090885Y-97886600D01*
X158167076Y-97962790D01*
X158205171Y-98038980D01*
X158243266Y-98191361D01*
X158243266Y-98305647D01*
X158205171Y-98458028D01*
X158167076Y-98534219D01*
X158090885Y-98610409D01*
X157976600Y-98648504D01*
X157786123Y-98648504D01*
D11*
X128076485Y-72007480D02*
X128076485Y-72721766D01*
X128028866Y-72864623D01*
X127933628Y-72959861D01*
X127790771Y-73007480D01*
X127695533Y-73007480D01*
X128505057Y-72102719D02*
X128552676Y-72055100D01*
X128647914Y-72007480D01*
X128886009Y-72007480D01*
X128981247Y-72055100D01*
X129028866Y-72102719D01*
X129076485Y-72197957D01*
X129076485Y-72293195D01*
X129028866Y-72436052D01*
X128457438Y-73007480D01*
X129076485Y-73007480D01*
X129695533Y-72007480D02*
X129790771Y-72007480D01*
X129886009Y-72055100D01*
X129933628Y-72102719D01*
X129981247Y-72197957D01*
X130028866Y-72388433D01*
X130028866Y-72626528D01*
X129981247Y-72817004D01*
X129933628Y-72912242D01*
X129886009Y-72959861D01*
X129790771Y-73007480D01*
X129695533Y-73007480D01*
X129600295Y-72959861D01*
X129552676Y-72912242D01*
X129505057Y-72817004D01*
X129457438Y-72626528D01*
X129457438Y-72388433D01*
X129505057Y-72197957D01*
X129552676Y-72102719D01*
X129600295Y-72055100D01*
X129695533Y-72007480D01*
X130647914Y-72007480D02*
X130743152Y-72007480D01*
X130838390Y-72055100D01*
X130886009Y-72102719D01*
X130933628Y-72197957D01*
X130981247Y-72388433D01*
X130981247Y-72626528D01*
X130933628Y-72817004D01*
X130886009Y-72912242D01*
X130838390Y-72959861D01*
X130743152Y-73007480D01*
X130647914Y-73007480D01*
X130552676Y-72959861D01*
X130505057Y-72912242D01*
X130457438Y-72817004D01*
X130409819Y-72626528D01*
X130409819Y-72388433D01*
X130457438Y-72197957D01*
X130505057Y-72102719D01*
X130552676Y-72055100D01*
X130647914Y-72007480D01*
D10*
X125399847Y-73265904D02*
X125018895Y-73265904D01*
X124980800Y-73646857D01*
X125018895Y-73608761D01*
X125095085Y-73570666D01*
X125285561Y-73570666D01*
X125361752Y-73608761D01*
X125399847Y-73646857D01*
X125437942Y-73723047D01*
X125437942Y-73913523D01*
X125399847Y-73989714D01*
X125361752Y-74027809D01*
X125285561Y-74065904D01*
X125095085Y-74065904D01*
X125018895Y-74027809D01*
X124980800Y-73989714D01*
X125666514Y-73265904D02*
X125933180Y-74065904D01*
X126199847Y-73265904D01*
X126352228Y-73532571D02*
X126656990Y-73532571D01*
X126466514Y-74065904D02*
X126466514Y-73380190D01*
X126504609Y-73304000D01*
X126580800Y-73265904D01*
X126656990Y-73265904D01*
D11*
X147669380Y-53049419D02*
X147574142Y-53001800D01*
X147478904Y-52906561D01*
X147336047Y-52763704D01*
X147240809Y-52716085D01*
X147145571Y-52716085D01*
X147193190Y-52954180D02*
X147097952Y-52906561D01*
X147002714Y-52811323D01*
X146955095Y-52620847D01*
X146955095Y-52287514D01*
X147002714Y-52097038D01*
X147097952Y-52001800D01*
X147193190Y-51954180D01*
X147383666Y-51954180D01*
X147478904Y-52001800D01*
X147574142Y-52097038D01*
X147621761Y-52287514D01*
X147621761Y-52620847D01*
X147574142Y-52811323D01*
X147478904Y-52906561D01*
X147383666Y-52954180D01*
X147193190Y-52954180D01*
X148574142Y-52954180D02*
X148002714Y-52954180D01*
X148288428Y-52954180D02*
X148288428Y-51954180D01*
X148193190Y-52097038D01*
X148097952Y-52192276D01*
X148002714Y-52239895D01*
X149193190Y-51954180D02*
X149288428Y-51954180D01*
X149383666Y-52001800D01*
X149431285Y-52049419D01*
X149478904Y-52144657D01*
X149526523Y-52335133D01*
X149526523Y-52573228D01*
X149478904Y-52763704D01*
X149431285Y-52858942D01*
X149383666Y-52906561D01*
X149288428Y-52954180D01*
X149193190Y-52954180D01*
X149097952Y-52906561D01*
X149050333Y-52858942D01*
X149002714Y-52763704D01*
X148955095Y-52573228D01*
X148955095Y-52335133D01*
X149002714Y-52144657D01*
X149050333Y-52049419D01*
X149097952Y-52001800D01*
X149193190Y-51954180D01*
X150145571Y-51954180D02*
X150240809Y-51954180D01*
X150336047Y-52001800D01*
X150383666Y-52049419D01*
X150431285Y-52144657D01*
X150478904Y-52335133D01*
X150478904Y-52573228D01*
X150431285Y-52763704D01*
X150383666Y-52858942D01*
X150336047Y-52906561D01*
X150240809Y-52954180D01*
X150145571Y-52954180D01*
X150050333Y-52906561D01*
X150002714Y-52858942D01*
X149955095Y-52763704D01*
X149907476Y-52573228D01*
X149907476Y-52335133D01*
X149955095Y-52144657D01*
X150002714Y-52049419D01*
X150050333Y-52001800D01*
X150145571Y-51954180D01*
X169937133Y-66390780D02*
X169603800Y-65914590D01*
X169365704Y-66390780D02*
X169365704Y-65390780D01*
X169746657Y-65390780D01*
X169841895Y-65438400D01*
X169889514Y-65486019D01*
X169937133Y-65581257D01*
X169937133Y-65724114D01*
X169889514Y-65819352D01*
X169841895Y-65866971D01*
X169746657Y-65914590D01*
X169365704Y-65914590D01*
X170889514Y-66390780D02*
X170318085Y-66390780D01*
X170603800Y-66390780D02*
X170603800Y-65390780D01*
X170508561Y-65533638D01*
X170413323Y-65628876D01*
X170318085Y-65676495D01*
X180224133Y-66390780D02*
X179890800Y-65914590D01*
X179652704Y-66390780D02*
X179652704Y-65390780D01*
X180033657Y-65390780D01*
X180128895Y-65438400D01*
X180176514Y-65486019D01*
X180224133Y-65581257D01*
X180224133Y-65724114D01*
X180176514Y-65819352D01*
X180128895Y-65866971D01*
X180033657Y-65914590D01*
X179652704Y-65914590D01*
X180605085Y-65486019D02*
X180652704Y-65438400D01*
X180747942Y-65390780D01*
X180986038Y-65390780D01*
X181081276Y-65438400D01*
X181128895Y-65486019D01*
X181176514Y-65581257D01*
X181176514Y-65676495D01*
X181128895Y-65819352D01*
X180557466Y-66390780D01*
X181176514Y-66390780D01*
X190092033Y-66466980D02*
X189758700Y-65990790D01*
X189520604Y-66466980D02*
X189520604Y-65466980D01*
X189901557Y-65466980D01*
X189996795Y-65514600D01*
X190044414Y-65562219D01*
X190092033Y-65657457D01*
X190092033Y-65800314D01*
X190044414Y-65895552D01*
X189996795Y-65943171D01*
X189901557Y-65990790D01*
X189520604Y-65990790D01*
X190425366Y-65466980D02*
X191044414Y-65466980D01*
X190711080Y-65847933D01*
X190853938Y-65847933D01*
X190949176Y-65895552D01*
X190996795Y-65943171D01*
X191044414Y-66038409D01*
X191044414Y-66276504D01*
X190996795Y-66371742D01*
X190949176Y-66419361D01*
X190853938Y-66466980D01*
X190568223Y-66466980D01*
X190472985Y-66419361D01*
X190425366Y-66371742D01*
X200315533Y-66466980D02*
X199982200Y-65990790D01*
X199744104Y-66466980D02*
X199744104Y-65466980D01*
X200125057Y-65466980D01*
X200220295Y-65514600D01*
X200267914Y-65562219D01*
X200315533Y-65657457D01*
X200315533Y-65800314D01*
X200267914Y-65895552D01*
X200220295Y-65943171D01*
X200125057Y-65990790D01*
X199744104Y-65990790D01*
X201172676Y-65800314D02*
X201172676Y-66466980D01*
X200934580Y-65419361D02*
X200696485Y-66133647D01*
X201315533Y-66133647D01*
X201433133Y-93594180D02*
X201099800Y-93117990D01*
X200861704Y-93594180D02*
X200861704Y-92594180D01*
X201242657Y-92594180D01*
X201337895Y-92641800D01*
X201385514Y-92689419D01*
X201433133Y-92784657D01*
X201433133Y-92927514D01*
X201385514Y-93022752D01*
X201337895Y-93070371D01*
X201242657Y-93117990D01*
X200861704Y-93117990D01*
X202337895Y-92594180D02*
X201861704Y-92594180D01*
X201814085Y-93070371D01*
X201861704Y-93022752D01*
X201956942Y-92975133D01*
X202195038Y-92975133D01*
X202290276Y-93022752D01*
X202337895Y-93070371D01*
X202385514Y-93165609D01*
X202385514Y-93403704D01*
X202337895Y-93498942D01*
X202290276Y-93546561D01*
X202195038Y-93594180D01*
X201956942Y-93594180D01*
X201861704Y-93546561D01*
X201814085Y-93498942D01*
X191336633Y-93619580D02*
X191003300Y-93143390D01*
X190765204Y-93619580D02*
X190765204Y-92619580D01*
X191146157Y-92619580D01*
X191241395Y-92667200D01*
X191289014Y-92714819D01*
X191336633Y-92810057D01*
X191336633Y-92952914D01*
X191289014Y-93048152D01*
X191241395Y-93095771D01*
X191146157Y-93143390D01*
X190765204Y-93143390D01*
X192193776Y-92619580D02*
X192003300Y-92619580D01*
X191908061Y-92667200D01*
X191860442Y-92714819D01*
X191765204Y-92857676D01*
X191717585Y-93048152D01*
X191717585Y-93429104D01*
X191765204Y-93524342D01*
X191812823Y-93571961D01*
X191908061Y-93619580D01*
X192098538Y-93619580D01*
X192193776Y-93571961D01*
X192241395Y-93524342D01*
X192289014Y-93429104D01*
X192289014Y-93191009D01*
X192241395Y-93095771D01*
X192193776Y-93048152D01*
X192098538Y-93000533D01*
X191908061Y-93000533D01*
X191812823Y-93048152D01*
X191765204Y-93095771D01*
X191717585Y-93191009D01*
X181062333Y-93416380D02*
X180729000Y-92940190D01*
X180490904Y-93416380D02*
X180490904Y-92416380D01*
X180871857Y-92416380D01*
X180967095Y-92464000D01*
X181014714Y-92511619D01*
X181062333Y-92606857D01*
X181062333Y-92749714D01*
X181014714Y-92844952D01*
X180967095Y-92892571D01*
X180871857Y-92940190D01*
X180490904Y-92940190D01*
X181395666Y-92416380D02*
X182062333Y-92416380D01*
X181633761Y-93416380D01*
X170864233Y-93492580D02*
X170530900Y-93016390D01*
X170292804Y-93492580D02*
X170292804Y-92492580D01*
X170673757Y-92492580D01*
X170768995Y-92540200D01*
X170816614Y-92587819D01*
X170864233Y-92683057D01*
X170864233Y-92825914D01*
X170816614Y-92921152D01*
X170768995Y-92968771D01*
X170673757Y-93016390D01*
X170292804Y-93016390D01*
X171435661Y-92921152D02*
X171340423Y-92873533D01*
X171292804Y-92825914D01*
X171245185Y-92730676D01*
X171245185Y-92683057D01*
X171292804Y-92587819D01*
X171340423Y-92540200D01*
X171435661Y-92492580D01*
X171626138Y-92492580D01*
X171721376Y-92540200D01*
X171768995Y-92587819D01*
X171816614Y-92683057D01*
X171816614Y-92730676D01*
X171768995Y-92825914D01*
X171721376Y-92873533D01*
X171626138Y-92921152D01*
X171435661Y-92921152D01*
X171340423Y-92968771D01*
X171292804Y-93016390D01*
X171245185Y-93111628D01*
X171245185Y-93302104D01*
X171292804Y-93397342D01*
X171340423Y-93444961D01*
X171435661Y-93492580D01*
X171626138Y-93492580D01*
X171721376Y-93444961D01*
X171768995Y-93397342D01*
X171816614Y-93302104D01*
X171816614Y-93111628D01*
X171768995Y-93016390D01*
X171721376Y-92968771D01*
X171626138Y-92921152D01*
X121378742Y-67279780D02*
X121045409Y-66803590D01*
X120807314Y-67279780D02*
X120807314Y-66279780D01*
X121188266Y-66279780D01*
X121283504Y-66327400D01*
X121331123Y-66375019D01*
X121378742Y-66470257D01*
X121378742Y-66613114D01*
X121331123Y-66708352D01*
X121283504Y-66755971D01*
X121188266Y-66803590D01*
X120807314Y-66803590D01*
X121712076Y-66279780D02*
X122331123Y-66279780D01*
X121997790Y-66660733D01*
X122140647Y-66660733D01*
X122235885Y-66708352D01*
X122283504Y-66755971D01*
X122331123Y-66851209D01*
X122331123Y-67089304D01*
X122283504Y-67184542D01*
X122235885Y-67232161D01*
X122140647Y-67279780D01*
X121854933Y-67279780D01*
X121759695Y-67232161D01*
X121712076Y-67184542D01*
X122950171Y-66279780D02*
X123045409Y-66279780D01*
X123140647Y-66327400D01*
X123188266Y-66375019D01*
X123235885Y-66470257D01*
X123283504Y-66660733D01*
X123283504Y-66898828D01*
X123235885Y-67089304D01*
X123188266Y-67184542D01*
X123140647Y-67232161D01*
X123045409Y-67279780D01*
X122950171Y-67279780D01*
X122854933Y-67232161D01*
X122807314Y-67184542D01*
X122759695Y-67089304D01*
X122712076Y-66898828D01*
X122712076Y-66660733D01*
X122759695Y-66470257D01*
X122807314Y-66375019D01*
X122854933Y-66327400D01*
X122950171Y-66279780D01*
X141806752Y-65146180D02*
X141473419Y-64669990D01*
X141235323Y-65146180D02*
X141235323Y-64146180D01*
X141616276Y-64146180D01*
X141711514Y-64193800D01*
X141759133Y-64241419D01*
X141806752Y-64336657D01*
X141806752Y-64479514D01*
X141759133Y-64574752D01*
X141711514Y-64622371D01*
X141616276Y-64669990D01*
X141235323Y-64669990D01*
X142759133Y-65146180D02*
X142187704Y-65146180D01*
X142473419Y-65146180D02*
X142473419Y-64146180D01*
X142378180Y-64289038D01*
X142282942Y-64384276D01*
X142187704Y-64431895D01*
X143378180Y-64146180D02*
X143473419Y-64146180D01*
X143568657Y-64193800D01*
X143616276Y-64241419D01*
X143663895Y-64336657D01*
X143711514Y-64527133D01*
X143711514Y-64765228D01*
X143663895Y-64955704D01*
X143616276Y-65050942D01*
X143568657Y-65098561D01*
X143473419Y-65146180D01*
X143378180Y-65146180D01*
X143282942Y-65098561D01*
X143235323Y-65050942D01*
X143187704Y-64955704D01*
X143140085Y-64765228D01*
X143140085Y-64527133D01*
X143187704Y-64336657D01*
X143235323Y-64241419D01*
X143282942Y-64193800D01*
X143378180Y-64146180D01*
X144330561Y-64146180D02*
X144425800Y-64146180D01*
X144521038Y-64193800D01*
X144568657Y-64241419D01*
X144616276Y-64336657D01*
X144663895Y-64527133D01*
X144663895Y-64765228D01*
X144616276Y-64955704D01*
X144568657Y-65050942D01*
X144521038Y-65098561D01*
X144425800Y-65146180D01*
X144330561Y-65146180D01*
X144235323Y-65098561D01*
X144187704Y-65050942D01*
X144140085Y-64955704D01*
X144092466Y-64765228D01*
X144092466Y-64527133D01*
X144140085Y-64336657D01*
X144187704Y-64241419D01*
X144235323Y-64193800D01*
X144330561Y-64146180D01*
X112342752Y-66746380D02*
X112009419Y-66270190D01*
X111771323Y-66746380D02*
X111771323Y-65746380D01*
X112152276Y-65746380D01*
X112247514Y-65794000D01*
X112295133Y-65841619D01*
X112342752Y-65936857D01*
X112342752Y-66079714D01*
X112295133Y-66174952D01*
X112247514Y-66222571D01*
X112152276Y-66270190D01*
X111771323Y-66270190D01*
X112723704Y-65841619D02*
X112771323Y-65794000D01*
X112866561Y-65746380D01*
X113104657Y-65746380D01*
X113199895Y-65794000D01*
X113247514Y-65841619D01*
X113295133Y-65936857D01*
X113295133Y-66032095D01*
X113247514Y-66174952D01*
X112676085Y-66746380D01*
X113295133Y-66746380D01*
X113914180Y-65746380D02*
X114009419Y-65746380D01*
X114104657Y-65794000D01*
X114152276Y-65841619D01*
X114199895Y-65936857D01*
X114247514Y-66127333D01*
X114247514Y-66365428D01*
X114199895Y-66555904D01*
X114152276Y-66651142D01*
X114104657Y-66698761D01*
X114009419Y-66746380D01*
X113914180Y-66746380D01*
X113818942Y-66698761D01*
X113771323Y-66651142D01*
X113723704Y-66555904D01*
X113676085Y-66365428D01*
X113676085Y-66127333D01*
X113723704Y-65936857D01*
X113771323Y-65841619D01*
X113818942Y-65794000D01*
X113914180Y-65746380D01*
X114866561Y-65746380D02*
X114961800Y-65746380D01*
X115057038Y-65794000D01*
X115104657Y-65841619D01*
X115152276Y-65936857D01*
X115199895Y-66127333D01*
X115199895Y-66365428D01*
X115152276Y-66555904D01*
X115104657Y-66651142D01*
X115057038Y-66698761D01*
X114961800Y-66746380D01*
X114866561Y-66746380D01*
X114771323Y-66698761D01*
X114723704Y-66651142D01*
X114676085Y-66555904D01*
X114628466Y-66365428D01*
X114628466Y-66127333D01*
X114676085Y-65936857D01*
X114723704Y-65841619D01*
X114771323Y-65794000D01*
X114866561Y-65746380D01*
X179984495Y-74636380D02*
X179984495Y-75445904D01*
X180032114Y-75541142D01*
X180079733Y-75588761D01*
X180174971Y-75636380D01*
X180365447Y-75636380D01*
X180460685Y-75588761D01*
X180508304Y-75541142D01*
X180555923Y-75445904D01*
X180555923Y-74636380D01*
X180984495Y-74731619D02*
X181032114Y-74684000D01*
X181127352Y-74636380D01*
X181365447Y-74636380D01*
X181460685Y-74684000D01*
X181508304Y-74731619D01*
X181555923Y-74826857D01*
X181555923Y-74922095D01*
X181508304Y-75064952D01*
X180936876Y-75636380D01*
X181555923Y-75636380D01*
X200215595Y-74560180D02*
X200215595Y-75369704D01*
X200263214Y-75464942D01*
X200310833Y-75512561D01*
X200406071Y-75560180D01*
X200596547Y-75560180D01*
X200691785Y-75512561D01*
X200739404Y-75464942D01*
X200787023Y-75369704D01*
X200787023Y-74560180D01*
X201691785Y-74893514D02*
X201691785Y-75560180D01*
X201453690Y-74512561D02*
X201215595Y-75226847D01*
X201834642Y-75226847D01*
X200444195Y-83107280D02*
X200444195Y-83916804D01*
X200491814Y-84012042D01*
X200539433Y-84059661D01*
X200634671Y-84107280D01*
X200825147Y-84107280D01*
X200920385Y-84059661D01*
X200968004Y-84012042D01*
X201015623Y-83916804D01*
X201015623Y-83107280D01*
X201968004Y-83107280D02*
X201491814Y-83107280D01*
X201444195Y-83583471D01*
X201491814Y-83535852D01*
X201587052Y-83488233D01*
X201825147Y-83488233D01*
X201920385Y-83535852D01*
X201968004Y-83583471D01*
X202015623Y-83678709D01*
X202015623Y-83916804D01*
X201968004Y-84012042D01*
X201920385Y-84059661D01*
X201825147Y-84107280D01*
X201587052Y-84107280D01*
X201491814Y-84059661D01*
X201444195Y-84012042D01*
X190055595Y-83081880D02*
X190055595Y-83891404D01*
X190103214Y-83986642D01*
X190150833Y-84034261D01*
X190246071Y-84081880D01*
X190436547Y-84081880D01*
X190531785Y-84034261D01*
X190579404Y-83986642D01*
X190627023Y-83891404D01*
X190627023Y-83081880D01*
X191531785Y-83081880D02*
X191341309Y-83081880D01*
X191246071Y-83129500D01*
X191198452Y-83177119D01*
X191103214Y-83319976D01*
X191055595Y-83510452D01*
X191055595Y-83891404D01*
X191103214Y-83986642D01*
X191150833Y-84034261D01*
X191246071Y-84081880D01*
X191436547Y-84081880D01*
X191531785Y-84034261D01*
X191579404Y-83986642D01*
X191627023Y-83891404D01*
X191627023Y-83653309D01*
X191579404Y-83558071D01*
X191531785Y-83510452D01*
X191436547Y-83462833D01*
X191246071Y-83462833D01*
X191150833Y-83510452D01*
X191103214Y-83558071D01*
X191055595Y-83653309D01*
X179959095Y-83132680D02*
X179959095Y-83942204D01*
X180006714Y-84037442D01*
X180054333Y-84085061D01*
X180149571Y-84132680D01*
X180340047Y-84132680D01*
X180435285Y-84085061D01*
X180482904Y-84037442D01*
X180530523Y-83942204D01*
X180530523Y-83132680D01*
X180911476Y-83132680D02*
X181578142Y-83132680D01*
X181149571Y-84132680D01*
X169875295Y-83208880D02*
X169875295Y-84018404D01*
X169922914Y-84113642D01*
X169970533Y-84161261D01*
X170065771Y-84208880D01*
X170256247Y-84208880D01*
X170351485Y-84161261D01*
X170399104Y-84113642D01*
X170446723Y-84018404D01*
X170446723Y-83208880D01*
X171065771Y-83637452D02*
X170970533Y-83589833D01*
X170922914Y-83542214D01*
X170875295Y-83446976D01*
X170875295Y-83399357D01*
X170922914Y-83304119D01*
X170970533Y-83256500D01*
X171065771Y-83208880D01*
X171256247Y-83208880D01*
X171351485Y-83256500D01*
X171399104Y-83304119D01*
X171446723Y-83399357D01*
X171446723Y-83446976D01*
X171399104Y-83542214D01*
X171351485Y-83589833D01*
X171256247Y-83637452D01*
X171065771Y-83637452D01*
X170970533Y-83685071D01*
X170922914Y-83732690D01*
X170875295Y-83827928D01*
X170875295Y-84018404D01*
X170922914Y-84113642D01*
X170970533Y-84161261D01*
X171065771Y-84208880D01*
X171256247Y-84208880D01*
X171351485Y-84161261D01*
X171399104Y-84113642D01*
X171446723Y-84018404D01*
X171446723Y-83827928D01*
X171399104Y-83732690D01*
X171351485Y-83685071D01*
X171256247Y-83637452D01*
X116719504Y-65695580D02*
X116719504Y-66505104D01*
X116767123Y-66600342D01*
X116814742Y-66647961D01*
X116909980Y-66695580D01*
X117100457Y-66695580D01*
X117195695Y-66647961D01*
X117243314Y-66600342D01*
X117290933Y-66505104D01*
X117290933Y-65695580D01*
X117719504Y-65790819D02*
X117767123Y-65743200D01*
X117862361Y-65695580D01*
X118100457Y-65695580D01*
X118195695Y-65743200D01*
X118243314Y-65790819D01*
X118290933Y-65886057D01*
X118290933Y-65981295D01*
X118243314Y-66124152D01*
X117671885Y-66695580D01*
X118290933Y-66695580D01*
X118909980Y-65695580D02*
X119005219Y-65695580D01*
X119100457Y-65743200D01*
X119148076Y-65790819D01*
X119195695Y-65886057D01*
X119243314Y-66076533D01*
X119243314Y-66314628D01*
X119195695Y-66505104D01*
X119148076Y-66600342D01*
X119100457Y-66647961D01*
X119005219Y-66695580D01*
X118909980Y-66695580D01*
X118814742Y-66647961D01*
X118767123Y-66600342D01*
X118719504Y-66505104D01*
X118671885Y-66314628D01*
X118671885Y-66076533D01*
X118719504Y-65886057D01*
X118767123Y-65790819D01*
X118814742Y-65743200D01*
X118909980Y-65695580D01*
X144157914Y-67549780D02*
X144157914Y-68359304D01*
X144205533Y-68454542D01*
X144253152Y-68502161D01*
X144348390Y-68549780D01*
X144538866Y-68549780D01*
X144634104Y-68502161D01*
X144681723Y-68454542D01*
X144729342Y-68359304D01*
X144729342Y-67549780D01*
X145157914Y-67645019D02*
X145205533Y-67597400D01*
X145300771Y-67549780D01*
X145538866Y-67549780D01*
X145634104Y-67597400D01*
X145681723Y-67645019D01*
X145729342Y-67740257D01*
X145729342Y-67835495D01*
X145681723Y-67978352D01*
X145110295Y-68549780D01*
X145729342Y-68549780D01*
X146348390Y-67549780D02*
X146443628Y-67549780D01*
X146538866Y-67597400D01*
X146586485Y-67645019D01*
X146634104Y-67740257D01*
X146681723Y-67930733D01*
X146681723Y-68168828D01*
X146634104Y-68359304D01*
X146586485Y-68454542D01*
X146538866Y-68502161D01*
X146443628Y-68549780D01*
X146348390Y-68549780D01*
X146253152Y-68502161D01*
X146205533Y-68454542D01*
X146157914Y-68359304D01*
X146110295Y-68168828D01*
X146110295Y-67930733D01*
X146157914Y-67740257D01*
X146205533Y-67645019D01*
X146253152Y-67597400D01*
X146348390Y-67549780D01*
X147300771Y-67549780D02*
X147396009Y-67549780D01*
X147491247Y-67597400D01*
X147538866Y-67645019D01*
X147586485Y-67740257D01*
X147634104Y-67930733D01*
X147634104Y-68168828D01*
X147586485Y-68359304D01*
X147538866Y-68454542D01*
X147491247Y-68502161D01*
X147396009Y-68549780D01*
X147300771Y-68549780D01*
X147205533Y-68502161D01*
X147157914Y-68454542D01*
X147110295Y-68359304D01*
X147062676Y-68168828D01*
X147062676Y-67930733D01*
X147110295Y-67740257D01*
X147157914Y-67645019D01*
X147205533Y-67597400D01*
X147300771Y-67549780D01*
X184438966Y-62774580D02*
X184438966Y-63488866D01*
X184391347Y-63631723D01*
X184296109Y-63726961D01*
X184153252Y-63774580D01*
X184058014Y-63774580D01*
X184867538Y-62869819D02*
X184915157Y-62822200D01*
X185010395Y-62774580D01*
X185248490Y-62774580D01*
X185343728Y-62822200D01*
X185391347Y-62869819D01*
X185438966Y-62965057D01*
X185438966Y-63060295D01*
X185391347Y-63203152D01*
X184819919Y-63774580D01*
X185438966Y-63774580D01*
X177887666Y-52382728D02*
X178649571Y-52382728D01*
X179601952Y-52763680D02*
X179125761Y-52763680D01*
X179125761Y-51763680D01*
X179935285Y-52239871D02*
X180268619Y-52239871D01*
X180411476Y-52763680D02*
X179935285Y-52763680D01*
X179935285Y-51763680D01*
X180411476Y-51763680D01*
X180840047Y-52763680D02*
X180840047Y-51763680D01*
X181078142Y-51763680D01*
X181221000Y-51811300D01*
X181316238Y-51906538D01*
X181363857Y-52001776D01*
X181411476Y-52192252D01*
X181411476Y-52335109D01*
X181363857Y-52525585D01*
X181316238Y-52620823D01*
X181221000Y-52716061D01*
X181078142Y-52763680D01*
X180840047Y-52763680D01*
X181792428Y-51858919D02*
X181840047Y-51811300D01*
X181935285Y-51763680D01*
X182173380Y-51763680D01*
X182268619Y-51811300D01*
X182316238Y-51858919D01*
X182363857Y-51954157D01*
X182363857Y-52049395D01*
X182316238Y-52192252D01*
X181744809Y-52763680D01*
X182363857Y-52763680D01*
X182792428Y-52382728D02*
X183554333Y-52382728D01*
X183173380Y-52763680D02*
X183173380Y-52001776D01*
X194535466Y-62812680D02*
X194535466Y-63526966D01*
X194487847Y-63669823D01*
X194392609Y-63765061D01*
X194249752Y-63812680D01*
X194154514Y-63812680D01*
X194916419Y-62812680D02*
X195535466Y-62812680D01*
X195202133Y-63193633D01*
X195344990Y-63193633D01*
X195440228Y-63241252D01*
X195487847Y-63288871D01*
X195535466Y-63384109D01*
X195535466Y-63622204D01*
X195487847Y-63717442D01*
X195440228Y-63765061D01*
X195344990Y-63812680D01*
X195059276Y-63812680D01*
X194964038Y-63765061D01*
X194916419Y-63717442D01*
X188123866Y-52446228D02*
X188885771Y-52446228D01*
X189838152Y-52827180D02*
X189361961Y-52827180D01*
X189361961Y-51827180D01*
X190171485Y-52303371D02*
X190504819Y-52303371D01*
X190647676Y-52827180D02*
X190171485Y-52827180D01*
X190171485Y-51827180D01*
X190647676Y-51827180D01*
X191076247Y-52827180D02*
X191076247Y-51827180D01*
X191314342Y-51827180D01*
X191457200Y-51874800D01*
X191552438Y-51970038D01*
X191600057Y-52065276D01*
X191647676Y-52255752D01*
X191647676Y-52398609D01*
X191600057Y-52589085D01*
X191552438Y-52684323D01*
X191457200Y-52779561D01*
X191314342Y-52827180D01*
X191076247Y-52827180D01*
X191981009Y-51827180D02*
X192600057Y-51827180D01*
X192266723Y-52208133D01*
X192409580Y-52208133D01*
X192504819Y-52255752D01*
X192552438Y-52303371D01*
X192600057Y-52398609D01*
X192600057Y-52636704D01*
X192552438Y-52731942D01*
X192504819Y-52779561D01*
X192409580Y-52827180D01*
X192123866Y-52827180D01*
X192028628Y-52779561D01*
X191981009Y-52731942D01*
X193028628Y-52446228D02*
X193790533Y-52446228D01*
X193409580Y-52827180D02*
X193409580Y-52065276D01*
X205190766Y-62749180D02*
X205190766Y-63463466D01*
X205143147Y-63606323D01*
X205047909Y-63701561D01*
X204905052Y-63749180D01*
X204809814Y-63749180D01*
X206095528Y-63082514D02*
X206095528Y-63749180D01*
X205857433Y-62701561D02*
X205619338Y-63415847D01*
X206238385Y-63415847D01*
X198106066Y-52370028D02*
X198867971Y-52370028D01*
X199820352Y-52750980D02*
X199344161Y-52750980D01*
X199344161Y-51750980D01*
X200153685Y-52227171D02*
X200487019Y-52227171D01*
X200629876Y-52750980D02*
X200153685Y-52750980D01*
X200153685Y-51750980D01*
X200629876Y-51750980D01*
X201058447Y-52750980D02*
X201058447Y-51750980D01*
X201296542Y-51750980D01*
X201439400Y-51798600D01*
X201534638Y-51893838D01*
X201582257Y-51989076D01*
X201629876Y-52179552D01*
X201629876Y-52322409D01*
X201582257Y-52512885D01*
X201534638Y-52608123D01*
X201439400Y-52703361D01*
X201296542Y-52750980D01*
X201058447Y-52750980D01*
X202487019Y-52084314D02*
X202487019Y-52750980D01*
X202248923Y-51703361D02*
X202010828Y-52417647D01*
X202629876Y-52417647D01*
X203010828Y-52370028D02*
X203772733Y-52370028D01*
X203391780Y-52750980D02*
X203391780Y-51989076D01*
X196796066Y-95032580D02*
X196796066Y-95746866D01*
X196748447Y-95889723D01*
X196653209Y-95984961D01*
X196510352Y-96032580D01*
X196415114Y-96032580D01*
X197748447Y-95032580D02*
X197272257Y-95032580D01*
X197224638Y-95508771D01*
X197272257Y-95461152D01*
X197367495Y-95413533D01*
X197605590Y-95413533D01*
X197700828Y-95461152D01*
X197748447Y-95508771D01*
X197796066Y-95604009D01*
X197796066Y-95842104D01*
X197748447Y-95937342D01*
X197700828Y-95984961D01*
X197605590Y-96032580D01*
X197367495Y-96032580D01*
X197272257Y-95984961D01*
X197224638Y-95937342D01*
X198423566Y-106522828D02*
X199185471Y-106522828D01*
X198804519Y-106903780D02*
X198804519Y-106141876D01*
X200137852Y-106903780D02*
X199661661Y-106903780D01*
X199661661Y-105903780D01*
X200471185Y-106379971D02*
X200804519Y-106379971D01*
X200947376Y-106903780D02*
X200471185Y-106903780D01*
X200471185Y-105903780D01*
X200947376Y-105903780D01*
X201375947Y-106903780D02*
X201375947Y-105903780D01*
X201614042Y-105903780D01*
X201756900Y-105951400D01*
X201852138Y-106046638D01*
X201899757Y-106141876D01*
X201947376Y-106332352D01*
X201947376Y-106475209D01*
X201899757Y-106665685D01*
X201852138Y-106760923D01*
X201756900Y-106856161D01*
X201614042Y-106903780D01*
X201375947Y-106903780D01*
X202852138Y-105903780D02*
X202375947Y-105903780D01*
X202328328Y-106379971D01*
X202375947Y-106332352D01*
X202471185Y-106284733D01*
X202709280Y-106284733D01*
X202804519Y-106332352D01*
X202852138Y-106379971D01*
X202899757Y-106475209D01*
X202899757Y-106713304D01*
X202852138Y-106808542D01*
X202804519Y-106856161D01*
X202709280Y-106903780D01*
X202471185Y-106903780D01*
X202375947Y-106856161D01*
X202328328Y-106808542D01*
X203328328Y-106522828D02*
X204090233Y-106522828D01*
X186737666Y-94956380D02*
X186737666Y-95670666D01*
X186690047Y-95813523D01*
X186594809Y-95908761D01*
X186451952Y-95956380D01*
X186356714Y-95956380D01*
X187642428Y-94956380D02*
X187451952Y-94956380D01*
X187356714Y-95004000D01*
X187309095Y-95051619D01*
X187213857Y-95194476D01*
X187166238Y-95384952D01*
X187166238Y-95765904D01*
X187213857Y-95861142D01*
X187261476Y-95908761D01*
X187356714Y-95956380D01*
X187547190Y-95956380D01*
X187642428Y-95908761D01*
X187690047Y-95861142D01*
X187737666Y-95765904D01*
X187737666Y-95527809D01*
X187690047Y-95432571D01*
X187642428Y-95384952D01*
X187547190Y-95337333D01*
X187356714Y-95337333D01*
X187261476Y-95384952D01*
X187213857Y-95432571D01*
X187166238Y-95527809D01*
X188327066Y-106599028D02*
X189088971Y-106599028D01*
X188708019Y-106979980D02*
X188708019Y-106218076D01*
X190041352Y-106979980D02*
X189565161Y-106979980D01*
X189565161Y-105979980D01*
X190374685Y-106456171D02*
X190708019Y-106456171D01*
X190850876Y-106979980D02*
X190374685Y-106979980D01*
X190374685Y-105979980D01*
X190850876Y-105979980D01*
X191279447Y-106979980D02*
X191279447Y-105979980D01*
X191517542Y-105979980D01*
X191660400Y-106027600D01*
X191755638Y-106122838D01*
X191803257Y-106218076D01*
X191850876Y-106408552D01*
X191850876Y-106551409D01*
X191803257Y-106741885D01*
X191755638Y-106837123D01*
X191660400Y-106932361D01*
X191517542Y-106979980D01*
X191279447Y-106979980D01*
X192708019Y-105979980D02*
X192517542Y-105979980D01*
X192422304Y-106027600D01*
X192374685Y-106075219D01*
X192279447Y-106218076D01*
X192231828Y-106408552D01*
X192231828Y-106789504D01*
X192279447Y-106884742D01*
X192327066Y-106932361D01*
X192422304Y-106979980D01*
X192612780Y-106979980D01*
X192708019Y-106932361D01*
X192755638Y-106884742D01*
X192803257Y-106789504D01*
X192803257Y-106551409D01*
X192755638Y-106456171D01*
X192708019Y-106408552D01*
X192612780Y-106360933D01*
X192422304Y-106360933D01*
X192327066Y-106408552D01*
X192279447Y-106456171D01*
X192231828Y-106551409D01*
X193231828Y-106599028D02*
X193993733Y-106599028D01*
X176552266Y-95032580D02*
X176552266Y-95746866D01*
X176504647Y-95889723D01*
X176409409Y-95984961D01*
X176266552Y-96032580D01*
X176171314Y-96032580D01*
X176933219Y-95032580D02*
X177599885Y-95032580D01*
X177171314Y-96032580D01*
X178243266Y-106624428D02*
X179005171Y-106624428D01*
X178624219Y-107005380D02*
X178624219Y-106243476D01*
X179957552Y-107005380D02*
X179481361Y-107005380D01*
X179481361Y-106005380D01*
X180290885Y-106481571D02*
X180624219Y-106481571D01*
X180767076Y-107005380D02*
X180290885Y-107005380D01*
X180290885Y-106005380D01*
X180767076Y-106005380D01*
X181195647Y-107005380D02*
X181195647Y-106005380D01*
X181433742Y-106005380D01*
X181576600Y-106053000D01*
X181671838Y-106148238D01*
X181719457Y-106243476D01*
X181767076Y-106433952D01*
X181767076Y-106576809D01*
X181719457Y-106767285D01*
X181671838Y-106862523D01*
X181576600Y-106957761D01*
X181433742Y-107005380D01*
X181195647Y-107005380D01*
X182100409Y-106005380D02*
X182767076Y-106005380D01*
X182338504Y-107005380D01*
X183148028Y-106624428D02*
X183909933Y-106624428D01*
X165566766Y-95057980D02*
X165566766Y-95772266D01*
X165519147Y-95915123D01*
X165423909Y-96010361D01*
X165281052Y-96057980D01*
X165185814Y-96057980D01*
X166185814Y-95486552D02*
X166090576Y-95438933D01*
X166042957Y-95391314D01*
X165995338Y-95296076D01*
X165995338Y-95248457D01*
X166042957Y-95153219D01*
X166090576Y-95105600D01*
X166185814Y-95057980D01*
X166376290Y-95057980D01*
X166471528Y-95105600D01*
X166519147Y-95153219D01*
X166566766Y-95248457D01*
X166566766Y-95296076D01*
X166519147Y-95391314D01*
X166471528Y-95438933D01*
X166376290Y-95486552D01*
X166185814Y-95486552D01*
X166090576Y-95534171D01*
X166042957Y-95581790D01*
X165995338Y-95677028D01*
X165995338Y-95867504D01*
X166042957Y-95962742D01*
X166090576Y-96010361D01*
X166185814Y-96057980D01*
X166376290Y-96057980D01*
X166471528Y-96010361D01*
X166519147Y-95962742D01*
X166566766Y-95867504D01*
X166566766Y-95677028D01*
X166519147Y-95581790D01*
X166471528Y-95534171D01*
X166376290Y-95486552D01*
X167778466Y-106560928D02*
X168540371Y-106560928D01*
X168159419Y-106941880D02*
X168159419Y-106179976D01*
X169492752Y-106941880D02*
X169016561Y-106941880D01*
X169016561Y-105941880D01*
X169826085Y-106418071D02*
X170159419Y-106418071D01*
X170302276Y-106941880D02*
X169826085Y-106941880D01*
X169826085Y-105941880D01*
X170302276Y-105941880D01*
X170730847Y-106941880D02*
X170730847Y-105941880D01*
X170968942Y-105941880D01*
X171111800Y-105989500D01*
X171207038Y-106084738D01*
X171254657Y-106179976D01*
X171302276Y-106370452D01*
X171302276Y-106513309D01*
X171254657Y-106703785D01*
X171207038Y-106799023D01*
X171111800Y-106894261D01*
X170968942Y-106941880D01*
X170730847Y-106941880D01*
X171873704Y-106370452D02*
X171778466Y-106322833D01*
X171730847Y-106275214D01*
X171683228Y-106179976D01*
X171683228Y-106132357D01*
X171730847Y-106037119D01*
X171778466Y-105989500D01*
X171873704Y-105941880D01*
X172064180Y-105941880D01*
X172159419Y-105989500D01*
X172207038Y-106037119D01*
X172254657Y-106132357D01*
X172254657Y-106179976D01*
X172207038Y-106275214D01*
X172159419Y-106322833D01*
X172064180Y-106370452D01*
X171873704Y-106370452D01*
X171778466Y-106418071D01*
X171730847Y-106465690D01*
X171683228Y-106560928D01*
X171683228Y-106751404D01*
X171730847Y-106846642D01*
X171778466Y-106894261D01*
X171873704Y-106941880D01*
X172064180Y-106941880D01*
X172159419Y-106894261D01*
X172207038Y-106846642D01*
X172254657Y-106751404D01*
X172254657Y-106560928D01*
X172207038Y-106465690D01*
X172159419Y-106418071D01*
X172064180Y-106370452D01*
X172683228Y-106560928D02*
X173445133Y-106560928D01*
X112557085Y-51801780D02*
X112557085Y-52516066D01*
X112509466Y-52658923D01*
X112414228Y-52754161D01*
X112271371Y-52801780D01*
X112176133Y-52801780D01*
X113557085Y-52801780D02*
X112985657Y-52801780D01*
X113271371Y-52801780D02*
X113271371Y-51801780D01*
X113176133Y-51944638D01*
X113080895Y-52039876D01*
X112985657Y-52087495D01*
X114176133Y-51801780D02*
X114271371Y-51801780D01*
X114366609Y-51849400D01*
X114414228Y-51897019D01*
X114461847Y-51992257D01*
X114509466Y-52182733D01*
X114509466Y-52420828D01*
X114461847Y-52611304D01*
X114414228Y-52706542D01*
X114366609Y-52754161D01*
X114271371Y-52801780D01*
X114176133Y-52801780D01*
X114080895Y-52754161D01*
X114033276Y-52706542D01*
X113985657Y-52611304D01*
X113938038Y-52420828D01*
X113938038Y-52182733D01*
X113985657Y-51992257D01*
X114033276Y-51897019D01*
X114080895Y-51849400D01*
X114176133Y-51801780D01*
X115128514Y-51801780D02*
X115223752Y-51801780D01*
X115318990Y-51849400D01*
X115366609Y-51897019D01*
X115414228Y-51992257D01*
X115461847Y-52182733D01*
X115461847Y-52420828D01*
X115414228Y-52611304D01*
X115366609Y-52706542D01*
X115318990Y-52754161D01*
X115223752Y-52801780D01*
X115128514Y-52801780D01*
X115033276Y-52754161D01*
X114985657Y-52706542D01*
X114938038Y-52611304D01*
X114890419Y-52420828D01*
X114890419Y-52182733D01*
X114938038Y-51992257D01*
X114985657Y-51897019D01*
X115033276Y-51849400D01*
X115128514Y-51801780D01*
X107996028Y-65231161D02*
X107996028Y-64469257D01*
X108376980Y-63993066D02*
X107376980Y-63993066D01*
X107376980Y-63754971D01*
X107424600Y-63612114D01*
X107519838Y-63516876D01*
X107615076Y-63469257D01*
X107805552Y-63421638D01*
X107948409Y-63421638D01*
X108138885Y-63469257D01*
X108234123Y-63516876D01*
X108329361Y-63612114D01*
X108376980Y-63754971D01*
X108376980Y-63993066D01*
X108281742Y-62421638D02*
X108329361Y-62469257D01*
X108376980Y-62612114D01*
X108376980Y-62707352D01*
X108329361Y-62850209D01*
X108234123Y-62945447D01*
X108138885Y-62993066D01*
X107948409Y-63040685D01*
X107805552Y-63040685D01*
X107615076Y-62993066D01*
X107519838Y-62945447D01*
X107424600Y-62850209D01*
X107376980Y-62707352D01*
X107376980Y-62612114D01*
X107424600Y-62469257D01*
X107472219Y-62421638D01*
X108376980Y-61231161D02*
X107710314Y-61231161D01*
X107376980Y-61231161D02*
X107424600Y-61278780D01*
X107472219Y-61231161D01*
X107424600Y-61183542D01*
X107376980Y-61231161D01*
X107472219Y-61231161D01*
X107710314Y-60754971D02*
X108376980Y-60754971D01*
X107805552Y-60754971D02*
X107757933Y-60707352D01*
X107710314Y-60612114D01*
X107710314Y-60469257D01*
X107757933Y-60374019D01*
X107853171Y-60326400D01*
X108376980Y-60326400D01*
X108376980Y-58564495D02*
X108376980Y-59135923D01*
X108376980Y-58850209D02*
X107376980Y-58850209D01*
X107519838Y-58945447D01*
X107615076Y-59040685D01*
X107662695Y-59135923D01*
X107472219Y-58183542D02*
X107424600Y-58135923D01*
X107376980Y-58040685D01*
X107376980Y-57802590D01*
X107424600Y-57707352D01*
X107472219Y-57659733D01*
X107567457Y-57612114D01*
X107662695Y-57612114D01*
X107805552Y-57659733D01*
X108376980Y-58231161D01*
X108376980Y-57612114D01*
X107996028Y-57183542D02*
X107996028Y-56421638D01*
X107472219Y-55993066D02*
X107424600Y-55945447D01*
X107376980Y-55850209D01*
X107376980Y-55612114D01*
X107424600Y-55516876D01*
X107472219Y-55469257D01*
X107567457Y-55421638D01*
X107662695Y-55421638D01*
X107805552Y-55469257D01*
X108376980Y-56040685D01*
X108376980Y-55421638D01*
X107710314Y-54564495D02*
X108376980Y-54564495D01*
X107329361Y-54802590D02*
X108043647Y-55040685D01*
X108043647Y-54421638D01*
X107376980Y-54183542D02*
X108376980Y-53850209D01*
X107376980Y-53516876D01*
X107996028Y-53183542D02*
X107996028Y-52421638D01*
X108376980Y-52802590D02*
X107615076Y-52802590D01*
M02*
