M48
METRIC,TZ
T1C0.400
T2C0.750
T3C0.800
T4C0.950
T5C1.000
T6C1.100
T7C1.300
T8C1.500
%
G90
G05
T1
X103862Y-66195
X103922Y-55165
X104022Y-75475
X114951Y-84264
X115022Y-100825
X117249Y-75336
X117772Y-108325
X121631Y-56426
X123022Y-92575
X124022Y-66325
X126582Y-83680
X128159Y-61849
X128578Y-92913
X129987Y-91478
X130686Y-100101
X134179Y-99860
X135055Y-66357
X135515Y-91462
X135576Y-56515
X136630Y-90462
X136772Y-74075
X137632Y-85685
X140022Y-88325
X140909Y-92913
X142103Y-63093
X142116Y-96926
X142197Y-85680
X143046Y-93964
X144512Y-88955
X144673Y-92904
X149342Y-56578
X158508Y-92904
X159515Y-55562
X159559Y-65618
X159559Y-69935
X160322Y-98525
X160709Y-69948
X160742Y-66618
X161233Y-93964
X161306Y-106997
X161772Y-75145
X164684Y-69621
X165826Y-90476
X165827Y-88976
X167956Y-73660
X167961Y-72161
X169133Y-92964
X171857Y-75160
X171859Y-73660
X172088Y-88976
X172272Y-87325
X173117Y-106997
X174726Y-69621
X175860Y-88950
X175861Y-90450
X178235Y-73672
X178451Y-72186
X179383Y-92964
X181713Y-75134
X181822Y-57325
X181854Y-73634
X182172Y-88950
X182522Y-87325
X183328Y-107035
X184951Y-69646
X186034Y-90450
X186058Y-88950
X188192Y-73634
X188312Y-72195
X189411Y-92964
X191988Y-75109
X192052Y-73609
X192268Y-88950
X192322Y-57275
X192772Y-87325
X193411Y-106946
X195119Y-69672
X196334Y-90476
X196370Y-88976
X198542Y-73609
X198604Y-72109
X199661Y-92964
X202454Y-88976
X203272Y-87325
X204872Y-105575
X205083Y-56108
X205146Y-65849
X205337Y-75031
X205522Y-96443
X206422Y-85075
T2
X114709Y-70256
X114709Y-71526
X114709Y-72796
T3
X112582Y-78125
X112582Y-80665
X112582Y-103525
X112582Y-106065
X115122Y-78125
X115122Y-80665
X115122Y-103525
X115122Y-106065
X117662Y-78125
X117662Y-80665
X117662Y-103525
X117662Y-106065
X120202Y-78125
X120202Y-80665
X120202Y-103525
X120202Y-106065
X122742Y-78125
X122742Y-80665
X122742Y-103525
X122742Y-106065
X125282Y-78125
X125282Y-80665
X125282Y-103525
X125282Y-106065
X127822Y-78125
X127822Y-80665
X127822Y-103525
X127822Y-106065
X130362Y-78125
X130362Y-80665
X130362Y-103525
X130362Y-106065
X132902Y-78125
X132902Y-80665
X132902Y-103525
X132902Y-106065
X135442Y-78125
X135442Y-80665
X135442Y-103525
X135442Y-106065
T4
X145422Y-81105
X145492Y-102135
X147922Y-81105
X147992Y-102135
X150422Y-81105
X150492Y-102135
X152992Y-102135
T5
X122101Y-73304
X153822Y-95855
X153832Y-88435
X156362Y-95855
X156372Y-88435
T6
X139830Y-72212
X142370Y-72212
X144224Y-57937
X144224Y-60477
X144224Y-63017
X144910Y-72212
T7
X109802Y-58215
X109802Y-63215
X163992Y-60065
X164192Y-102555
X169072Y-60065
X169272Y-102555
X174162Y-60065
X174342Y-102555
X179242Y-60065
X179422Y-102555
X184322Y-60065
X184502Y-102555
X189402Y-60065
X189582Y-102555
X194492Y-60065
X194662Y-102555
X199572Y-60065
X199742Y-102555
T8
X117001Y-60172
X139601Y-60172
T0
M30
