G04 #@! TF.GenerationSoftware,KiCad,Pcbnew,5.1.12-84ad8e8a86~92~ubuntu20.04.1*
G04 #@! TF.CreationDate,2021-11-06T19:01:57+01:00*
G04 #@! TF.ProjectId,CC dimmer low voltage,43432064-696d-46d6-9572-206c6f772076,0.99*
G04 #@! TF.SameCoordinates,Original*
G04 #@! TF.FileFunction,Copper,L2,Bot*
G04 #@! TF.FilePolarity,Positive*
%FSLAX46Y46*%
G04 Gerber Fmt 4.6, Leading zero omitted, Abs format (unit mm)*
G04 Created by KiCad (PCBNEW 5.1.12-84ad8e8a86~92~ubuntu20.04.1) date 2021-11-06 19:01:57*
%MOMM*%
%LPD*%
G01*
G04 APERTURE LIST*
G04 #@! TA.AperFunction,ComponentPad*
%ADD10C,3.000000*%
G04 #@! TD*
G04 #@! TA.AperFunction,ComponentPad*
%ADD11R,1.700000X1.700000*%
G04 #@! TD*
G04 #@! TA.AperFunction,ComponentPad*
%ADD12O,1.700000X1.950000*%
G04 #@! TD*
G04 #@! TA.AperFunction,ComponentPad*
%ADD13O,2.000000X1.905000*%
G04 #@! TD*
G04 #@! TA.AperFunction,ComponentPad*
%ADD14R,2.000000X1.905000*%
G04 #@! TD*
G04 #@! TA.AperFunction,ComponentPad*
%ADD15O,1.500000X1.050000*%
G04 #@! TD*
G04 #@! TA.AperFunction,ComponentPad*
%ADD16R,1.500000X1.050000*%
G04 #@! TD*
G04 #@! TA.AperFunction,ComponentPad*
%ADD17R,1.905000X2.000000*%
G04 #@! TD*
G04 #@! TA.AperFunction,ComponentPad*
%ADD18O,1.905000X2.000000*%
G04 #@! TD*
G04 #@! TA.AperFunction,ComponentPad*
%ADD19R,2.600000X2.600000*%
G04 #@! TD*
G04 #@! TA.AperFunction,ComponentPad*
%ADD20C,2.600000*%
G04 #@! TD*
G04 #@! TA.AperFunction,ComponentPad*
%ADD21C,2.500000*%
G04 #@! TD*
G04 #@! TA.AperFunction,ComponentPad*
%ADD22R,2.500000X2.500000*%
G04 #@! TD*
G04 #@! TA.AperFunction,ComponentPad*
%ADD23C,1.400000*%
G04 #@! TD*
G04 #@! TA.AperFunction,ViaPad*
%ADD24C,0.800000*%
G04 #@! TD*
G04 #@! TA.AperFunction,Conductor*
%ADD25C,0.800000*%
G04 #@! TD*
G04 #@! TA.AperFunction,Conductor*
%ADD26C,0.400000*%
G04 #@! TD*
G04 #@! TA.AperFunction,Conductor*
%ADD27C,0.254000*%
G04 #@! TD*
G04 #@! TA.AperFunction,Conductor*
%ADD28C,0.150000*%
G04 #@! TD*
G04 APERTURE END LIST*
D10*
X139601400Y-60172200D03*
X117001400Y-60172200D03*
D11*
X156362000Y-95855000D03*
X156372000Y-88435000D03*
G04 #@! TA.AperFunction,ComponentPad*
G36*
G01*
X144572000Y-81830000D02*
X144572000Y-80380000D01*
G75*
G02*
X144822000Y-80130000I250000J0D01*
G01*
X146022000Y-80130000D01*
G75*
G02*
X146272000Y-80380000I0J-250000D01*
G01*
X146272000Y-81830000D01*
G75*
G02*
X146022000Y-82080000I-250000J0D01*
G01*
X144822000Y-82080000D01*
G75*
G02*
X144572000Y-81830000I0J250000D01*
G01*
G37*
G04 #@! TD.AperFunction*
D12*
X147922000Y-81105000D03*
X150422000Y-81105000D03*
G04 #@! TA.AperFunction,ComponentPad*
G36*
G01*
X144642000Y-102860000D02*
X144642000Y-101410000D01*
G75*
G02*
X144892000Y-101160000I250000J0D01*
G01*
X146092000Y-101160000D01*
G75*
G02*
X146342000Y-101410000I0J-250000D01*
G01*
X146342000Y-102860000D01*
G75*
G02*
X146092000Y-103110000I-250000J0D01*
G01*
X144892000Y-103110000D01*
G75*
G02*
X144642000Y-102860000I0J250000D01*
G01*
G37*
G04 #@! TD.AperFunction*
X147992000Y-102135000D03*
X150492000Y-102135000D03*
X152992000Y-102135000D03*
D11*
X153832000Y-88435000D03*
X153822000Y-95855000D03*
X122100800Y-73304000D03*
D13*
X144224200Y-63017000D03*
X144224200Y-60477000D03*
D14*
X144224200Y-57937000D03*
D15*
X114709400Y-71526000D03*
X114709400Y-70256000D03*
D16*
X114709400Y-72796000D03*
D17*
X144910000Y-72211800D03*
D18*
X142370000Y-72211800D03*
X139830000Y-72211800D03*
D19*
X109802000Y-58215000D03*
D20*
X109802000Y-63215000D03*
D21*
X163992000Y-60065000D03*
D22*
X169072000Y-60065000D03*
X179242000Y-60065000D03*
D21*
X174162000Y-60065000D03*
X184322000Y-60065000D03*
D22*
X189402000Y-60065000D03*
X199572000Y-60065000D03*
D21*
X194492000Y-60065000D03*
D22*
X194662000Y-102555000D03*
D21*
X199742000Y-102555000D03*
X189582000Y-102555000D03*
D22*
X184502000Y-102555000D03*
X174342000Y-102555000D03*
D21*
X179422000Y-102555000D03*
X169272000Y-102555000D03*
D22*
X164192000Y-102555000D03*
D23*
X135442000Y-78125000D03*
X135442000Y-80665000D03*
X132902000Y-78125000D03*
X132902000Y-80665000D03*
X130362000Y-78125000D03*
X130362000Y-80665000D03*
X127822000Y-78125000D03*
X127822000Y-80665000D03*
X125282000Y-78125000D03*
X125282000Y-80665000D03*
X122742000Y-78125000D03*
X122742000Y-80665000D03*
X120202000Y-78125000D03*
X120202000Y-80665000D03*
X117662000Y-78125000D03*
X117662000Y-80665000D03*
X115122000Y-78125000D03*
X115122000Y-80665000D03*
X112582000Y-78125000D03*
X112582000Y-80665000D03*
X135442000Y-103525000D03*
X135442000Y-106065000D03*
X132902000Y-103525000D03*
X132902000Y-106065000D03*
X130362000Y-103525000D03*
X130362000Y-106065000D03*
X127822000Y-103525000D03*
X127822000Y-106065000D03*
X125282000Y-103525000D03*
X125282000Y-106065000D03*
X122742000Y-103525000D03*
X122742000Y-106065000D03*
X120202000Y-103525000D03*
X120202000Y-106065000D03*
X117662000Y-103525000D03*
X117662000Y-106065000D03*
X115122000Y-103525000D03*
X115122000Y-106065000D03*
X112582000Y-106065000D03*
X112582000Y-103525000D03*
D24*
X171859400Y-73659600D03*
X178234800Y-73672300D03*
X181854300Y-73634200D03*
X192052400Y-73608800D03*
X202453700Y-88975800D03*
X192268300Y-88950400D03*
X182171800Y-88950400D03*
X172088000Y-88975800D03*
X196370400Y-88975800D03*
X186058000Y-88950400D03*
X165826900Y-88975800D03*
X175859900Y-88950400D03*
X167955974Y-73659600D03*
X188191600Y-73634200D03*
X198542100Y-73608800D03*
X140022000Y-88325000D03*
X104022000Y-75475000D03*
X117249400Y-75336000D03*
X149342300Y-56578100D03*
X159515000Y-55562100D03*
X181822000Y-57325000D03*
X192322000Y-57275000D03*
X205082600Y-56108200D03*
X205336600Y-75031200D03*
X205146100Y-65849100D03*
X206422000Y-85075000D03*
X204872000Y-105575000D03*
X205522000Y-96443400D03*
X193411300Y-106946300D03*
X183327500Y-107035200D03*
X173116700Y-106997100D03*
X161305700Y-106997100D03*
X160322000Y-98525000D03*
X142116000Y-96926000D03*
X130686000Y-100101000D03*
X123022000Y-92575000D03*
X115022000Y-100825000D03*
X114950700Y-84264100D03*
X135054800Y-66357100D03*
X135575500Y-56514600D03*
X121630900Y-56425700D03*
X128158700Y-61848600D03*
X103922000Y-55165000D03*
X144512000Y-88955000D03*
X117772000Y-108325000D03*
X136772000Y-74075000D03*
X124022000Y-66325000D03*
X103862000Y-66195000D03*
X142103300Y-63093200D03*
X164683900Y-69621000D03*
X171856600Y-75159600D03*
X195118800Y-69671800D03*
X184950600Y-69646400D03*
X181712800Y-75134200D03*
X191988200Y-75108800D03*
X172272000Y-87325000D03*
X182522000Y-87325000D03*
X192772000Y-87325000D03*
X203272000Y-87325000D03*
X199660600Y-92963600D03*
X189410600Y-92963600D03*
X179383400Y-92963600D03*
X169133400Y-92963600D03*
X174726000Y-69621000D03*
X161772000Y-75145000D03*
X134178500Y-99859700D03*
X167960500Y-72161000D03*
X126582000Y-83680020D03*
X178450700Y-72186400D03*
X137632000Y-85685000D03*
X142196962Y-85680038D03*
X160708800Y-69948200D03*
X188312000Y-72195000D03*
X160742000Y-66617680D03*
X198604200Y-72108800D03*
X159559330Y-65617670D03*
X159559330Y-69935000D03*
X196333700Y-90475800D03*
X129987500Y-91477700D03*
X135515290Y-91461710D03*
X186034000Y-90450400D03*
X128577800Y-92912800D03*
X158507613Y-92904187D03*
X140909500Y-92912800D03*
X144672787Y-92904187D03*
X175861300Y-90450400D03*
X161232792Y-93963608D03*
X143046392Y-93963608D03*
X165825500Y-90475800D03*
X136629600Y-90461700D03*
D25*
X144224200Y-57937000D02*
X142776400Y-57937000D01*
X142776400Y-57937000D02*
X142090600Y-58622800D01*
X142090600Y-63080500D02*
X142103300Y-63093200D01*
X142090600Y-58622800D02*
X142090600Y-63080500D01*
X181712800Y-75134200D02*
X182712800Y-75134200D01*
X182712800Y-75134200D02*
X184522000Y-73325000D01*
X184522000Y-70075000D02*
X184921238Y-69675762D01*
X184522000Y-73325000D02*
X184522000Y-70075000D01*
X191988200Y-75108800D02*
X192988200Y-75108800D01*
X192988200Y-75108800D02*
X194772000Y-73325000D01*
X194772000Y-70018600D02*
X195118800Y-69671800D01*
X194772000Y-73325000D02*
X194772000Y-70018600D01*
X189410600Y-90120715D02*
X189410600Y-92963600D01*
X192206315Y-87325000D02*
X189410600Y-90120715D01*
X192772000Y-87325000D02*
X192206315Y-87325000D01*
X199660600Y-90288898D02*
X199660600Y-92963600D01*
X202624498Y-87325000D02*
X199660600Y-90288898D01*
X203272000Y-87325000D02*
X202624498Y-87325000D01*
X179383400Y-89897915D02*
X179383400Y-92963600D01*
X181956315Y-87325000D02*
X179383400Y-89897915D01*
X182522000Y-87325000D02*
X181956315Y-87325000D01*
X169133400Y-90463600D02*
X169133400Y-92963600D01*
X172272000Y-87325000D02*
X169133400Y-90463600D01*
X172687400Y-75159600D02*
X171856600Y-75159600D01*
X174726000Y-73121000D02*
X172687400Y-75159600D01*
X174726000Y-69621000D02*
X174726000Y-73121000D01*
X164277500Y-73669500D02*
X162792000Y-75155000D01*
X164277500Y-70027400D02*
X164277500Y-73669500D01*
X164683900Y-69621000D02*
X164277500Y-70027400D01*
X162782000Y-75145000D02*
X162792000Y-75155000D01*
X161772000Y-75145000D02*
X162782000Y-75145000D01*
X121034000Y-76225000D02*
X147196000Y-76225000D01*
X120212000Y-77047000D02*
X121034000Y-76225000D01*
X120212000Y-78155000D02*
X120212000Y-77047000D01*
X147922000Y-76951000D02*
X147196000Y-76225000D01*
X147922000Y-81105000D02*
X147922000Y-76951000D01*
X145492000Y-102135000D02*
X128312000Y-102135000D01*
X127832000Y-102615000D02*
X127832000Y-103555000D01*
X128312000Y-102135000D02*
X127832000Y-102615000D01*
D26*
X148022000Y-102165000D02*
X147992000Y-102135000D01*
X148022000Y-106075000D02*
X148022000Y-102165000D01*
X145487000Y-108610000D02*
X148022000Y-106075000D01*
X119433800Y-108610000D02*
X145487000Y-108610000D01*
X119002000Y-108178200D02*
X119433800Y-108610000D01*
X119002000Y-104876200D02*
X119002000Y-108178200D01*
X117732000Y-103606200D02*
X119002000Y-104876200D01*
D25*
X148204000Y-99847000D02*
X150492000Y-102135000D01*
X134191200Y-99847000D02*
X148204000Y-99847000D01*
X134178500Y-99859700D02*
X134191200Y-99847000D01*
X159060868Y-68617700D02*
X159060868Y-68620999D01*
X165094826Y-68617700D02*
X159060868Y-68617700D01*
X167960500Y-71483374D02*
X165094826Y-68617700D01*
X159060868Y-68620999D02*
X158537560Y-69144307D01*
X167960500Y-72161000D02*
X167960500Y-71483374D01*
X158537560Y-72640560D02*
X158537560Y-74667090D01*
X158537560Y-69144307D02*
X158537560Y-72640560D01*
X158537560Y-76579290D02*
X151436830Y-83680020D01*
X158537560Y-74667090D02*
X158537560Y-76579290D01*
X151436830Y-83680020D02*
X126582000Y-83680020D01*
X178450700Y-71620715D02*
X174447675Y-67617690D01*
X178450700Y-72186400D02*
X178450700Y-71620715D01*
X155914690Y-67617690D02*
X155468308Y-67617690D01*
X174447675Y-67617690D02*
X155914690Y-67617690D01*
X122752000Y-80695000D02*
X122752000Y-81555000D01*
X151022613Y-82680010D02*
X151902000Y-81800623D01*
X123877010Y-82680010D02*
X151022613Y-82680010D01*
X122752000Y-81555000D02*
X123877010Y-82680010D01*
X151902000Y-81800623D02*
X151902000Y-68405000D01*
X152689310Y-67617690D02*
X155914690Y-67617690D01*
X151902000Y-68405000D02*
X152689310Y-67617690D01*
X160708800Y-77378200D02*
X152600870Y-85486130D01*
X160708800Y-69621000D02*
X160708800Y-69948200D01*
X152406962Y-85680038D02*
X142196962Y-85680038D01*
X152600870Y-85486130D02*
X152406962Y-85680038D01*
X120212000Y-103105000D02*
X120212000Y-103555000D01*
X137632000Y-85685000D02*
X120212000Y-103105000D01*
X160708800Y-69948200D02*
X160708800Y-77378200D01*
X188312000Y-72195000D02*
X188312000Y-71117680D01*
X188312000Y-71117680D02*
X183812000Y-66617680D01*
X183812000Y-66617680D02*
X160742000Y-66617680D01*
X198604200Y-71543115D02*
X192678755Y-65617670D01*
X198604200Y-72108800D02*
X198604200Y-71543115D01*
X159559330Y-77113444D02*
X151992744Y-84680030D01*
X140882743Y-84680030D02*
X123157773Y-102405000D01*
X151992744Y-84680030D02*
X140882743Y-84680030D01*
X123157773Y-103149227D02*
X122752000Y-103555000D01*
X123157773Y-102405000D02*
X123157773Y-103149227D01*
X192678755Y-65617670D02*
X160194670Y-65617670D01*
X160194670Y-65617670D02*
X159559330Y-65617670D01*
X160734200Y-65617670D02*
X160194670Y-65617670D01*
X159559330Y-69935000D02*
X159559330Y-77113444D01*
X196333700Y-90475800D02*
X190845872Y-95963628D01*
X190845872Y-95963628D02*
X173176526Y-95963628D01*
X173176526Y-95963628D02*
X161242200Y-95963628D01*
X120272000Y-80746200D02*
X120272000Y-81762200D01*
X120272000Y-81762200D02*
X129987500Y-91477700D01*
X161242200Y-95963628D02*
X160152828Y-95963628D01*
X155650910Y-91461710D02*
X135515290Y-91461710D01*
X160152828Y-95963628D02*
X155650910Y-91461710D01*
X186034000Y-90450400D02*
X181520782Y-94963618D01*
X181520782Y-94963618D02*
X172762309Y-94963618D01*
X172762309Y-94963618D02*
X161286882Y-94963618D01*
X117732000Y-80746200D02*
X117732000Y-82054300D01*
X117732000Y-82054300D02*
X127549100Y-91871400D01*
X127549100Y-91871400D02*
X127549100Y-91884100D01*
X127549100Y-91884100D02*
X128577800Y-92912800D01*
X161286882Y-94963618D02*
X161204100Y-94963618D01*
X161286882Y-94963618D02*
X160567044Y-94963618D01*
X160567044Y-94963618D02*
X158507613Y-92904187D01*
X144664174Y-92912800D02*
X144672787Y-92904187D01*
X140909500Y-92912800D02*
X144664174Y-92912800D01*
X172348092Y-93963608D02*
X161232792Y-93963608D01*
X125352000Y-103606200D02*
X125352000Y-102475900D01*
X125352000Y-102475900D02*
X133873700Y-93954200D01*
X143036984Y-93954200D02*
X143046392Y-93963608D01*
X133873700Y-93954200D02*
X143036984Y-93954200D01*
X175861300Y-90450400D02*
X172348092Y-93963608D01*
X165825500Y-90475800D02*
X161253500Y-90475800D01*
X161253500Y-90475800D02*
X161267600Y-90461700D01*
X161267600Y-90461700D02*
X136629600Y-90461700D01*
D27*
X205429913Y-53211782D02*
X206020609Y-53269700D01*
X206556402Y-53431466D01*
X207050569Y-53694219D01*
X207484290Y-54047953D01*
X207841043Y-54479193D01*
X208107242Y-54971519D01*
X208272743Y-55506165D01*
X208334600Y-56094705D01*
X208334601Y-106112686D01*
X208276700Y-106703209D01*
X208114935Y-107239000D01*
X207852180Y-107733172D01*
X207498447Y-108166890D01*
X207067206Y-108523644D01*
X206574881Y-108789842D01*
X206040238Y-108955342D01*
X205451744Y-109017195D01*
X146290627Y-108987240D01*
X148583428Y-106694440D01*
X148615291Y-106668291D01*
X148719636Y-106541146D01*
X148797172Y-106396087D01*
X148844918Y-106238689D01*
X148857000Y-106116019D01*
X148857000Y-106116009D01*
X148861039Y-106075001D01*
X148857000Y-106033993D01*
X148857000Y-103471173D01*
X149047134Y-103315134D01*
X149232706Y-103089014D01*
X149242000Y-103071626D01*
X149251294Y-103089014D01*
X149436866Y-103315134D01*
X149662987Y-103500706D01*
X149920967Y-103638599D01*
X150200890Y-103723513D01*
X150492000Y-103752185D01*
X150783111Y-103723513D01*
X151063034Y-103638599D01*
X151321014Y-103500706D01*
X151547134Y-103315134D01*
X151732706Y-103089014D01*
X151746462Y-103063278D01*
X151902951Y-103269429D01*
X152120807Y-103462496D01*
X152372142Y-103609352D01*
X152635110Y-103701476D01*
X152865000Y-103580155D01*
X152865000Y-102262000D01*
X153119000Y-102262000D01*
X153119000Y-103580155D01*
X153348890Y-103701476D01*
X153611858Y-103609352D01*
X153863193Y-103462496D01*
X154081049Y-103269429D01*
X154257053Y-103037570D01*
X154384442Y-102775830D01*
X154458320Y-102494267D01*
X154318165Y-102262000D01*
X153119000Y-102262000D01*
X152865000Y-102262000D01*
X152845000Y-102262000D01*
X152845000Y-102008000D01*
X152865000Y-102008000D01*
X152865000Y-100689845D01*
X153119000Y-100689845D01*
X153119000Y-102008000D01*
X154318165Y-102008000D01*
X154458320Y-101775733D01*
X154384442Y-101494170D01*
X154292373Y-101305000D01*
X162303928Y-101305000D01*
X162303928Y-103805000D01*
X162316188Y-103929482D01*
X162352498Y-104049180D01*
X162411463Y-104159494D01*
X162490815Y-104256185D01*
X162587506Y-104335537D01*
X162697820Y-104394502D01*
X162817518Y-104430812D01*
X162942000Y-104443072D01*
X165442000Y-104443072D01*
X165566482Y-104430812D01*
X165686180Y-104394502D01*
X165796494Y-104335537D01*
X165893185Y-104256185D01*
X165972537Y-104159494D01*
X166031502Y-104049180D01*
X166067812Y-103929482D01*
X166080072Y-103805000D01*
X166080072Y-102369344D01*
X167387000Y-102369344D01*
X167387000Y-102740656D01*
X167459439Y-103104834D01*
X167601534Y-103447882D01*
X167807825Y-103756618D01*
X168070382Y-104019175D01*
X168379118Y-104225466D01*
X168722166Y-104367561D01*
X169086344Y-104440000D01*
X169457656Y-104440000D01*
X169821834Y-104367561D01*
X170164882Y-104225466D01*
X170473618Y-104019175D01*
X170736175Y-103756618D01*
X170942466Y-103447882D01*
X171084561Y-103104834D01*
X171157000Y-102740656D01*
X171157000Y-102369344D01*
X171084561Y-102005166D01*
X170942466Y-101662118D01*
X170736175Y-101353382D01*
X170687793Y-101305000D01*
X172453928Y-101305000D01*
X172453928Y-103805000D01*
X172466188Y-103929482D01*
X172502498Y-104049180D01*
X172561463Y-104159494D01*
X172640815Y-104256185D01*
X172737506Y-104335537D01*
X172847820Y-104394502D01*
X172967518Y-104430812D01*
X173092000Y-104443072D01*
X175592000Y-104443072D01*
X175716482Y-104430812D01*
X175836180Y-104394502D01*
X175946494Y-104335537D01*
X176043185Y-104256185D01*
X176122537Y-104159494D01*
X176181502Y-104049180D01*
X176217812Y-103929482D01*
X176230072Y-103805000D01*
X176230072Y-102369344D01*
X177537000Y-102369344D01*
X177537000Y-102740656D01*
X177609439Y-103104834D01*
X177751534Y-103447882D01*
X177957825Y-103756618D01*
X178220382Y-104019175D01*
X178529118Y-104225466D01*
X178872166Y-104367561D01*
X179236344Y-104440000D01*
X179607656Y-104440000D01*
X179971834Y-104367561D01*
X180314882Y-104225466D01*
X180623618Y-104019175D01*
X180886175Y-103756618D01*
X181092466Y-103447882D01*
X181234561Y-103104834D01*
X181307000Y-102740656D01*
X181307000Y-102369344D01*
X181234561Y-102005166D01*
X181092466Y-101662118D01*
X180886175Y-101353382D01*
X180837793Y-101305000D01*
X182613928Y-101305000D01*
X182613928Y-103805000D01*
X182626188Y-103929482D01*
X182662498Y-104049180D01*
X182721463Y-104159494D01*
X182800815Y-104256185D01*
X182897506Y-104335537D01*
X183007820Y-104394502D01*
X183127518Y-104430812D01*
X183252000Y-104443072D01*
X185752000Y-104443072D01*
X185876482Y-104430812D01*
X185996180Y-104394502D01*
X186106494Y-104335537D01*
X186203185Y-104256185D01*
X186282537Y-104159494D01*
X186341502Y-104049180D01*
X186377812Y-103929482D01*
X186390072Y-103805000D01*
X186390072Y-102369344D01*
X187697000Y-102369344D01*
X187697000Y-102740656D01*
X187769439Y-103104834D01*
X187911534Y-103447882D01*
X188117825Y-103756618D01*
X188380382Y-104019175D01*
X188689118Y-104225466D01*
X189032166Y-104367561D01*
X189396344Y-104440000D01*
X189767656Y-104440000D01*
X190131834Y-104367561D01*
X190474882Y-104225466D01*
X190783618Y-104019175D01*
X191046175Y-103756618D01*
X191252466Y-103447882D01*
X191394561Y-103104834D01*
X191467000Y-102740656D01*
X191467000Y-102369344D01*
X191394561Y-102005166D01*
X191252466Y-101662118D01*
X191046175Y-101353382D01*
X190997793Y-101305000D01*
X192773928Y-101305000D01*
X192773928Y-103805000D01*
X192786188Y-103929482D01*
X192822498Y-104049180D01*
X192881463Y-104159494D01*
X192960815Y-104256185D01*
X193057506Y-104335537D01*
X193167820Y-104394502D01*
X193287518Y-104430812D01*
X193412000Y-104443072D01*
X195912000Y-104443072D01*
X196036482Y-104430812D01*
X196156180Y-104394502D01*
X196266494Y-104335537D01*
X196363185Y-104256185D01*
X196442537Y-104159494D01*
X196501502Y-104049180D01*
X196537812Y-103929482D01*
X196550072Y-103805000D01*
X196550072Y-102369344D01*
X197857000Y-102369344D01*
X197857000Y-102740656D01*
X197929439Y-103104834D01*
X198071534Y-103447882D01*
X198277825Y-103756618D01*
X198540382Y-104019175D01*
X198849118Y-104225466D01*
X199192166Y-104367561D01*
X199556344Y-104440000D01*
X199927656Y-104440000D01*
X200291834Y-104367561D01*
X200634882Y-104225466D01*
X200943618Y-104019175D01*
X201206175Y-103756618D01*
X201412466Y-103447882D01*
X201554561Y-103104834D01*
X201627000Y-102740656D01*
X201627000Y-102369344D01*
X201554561Y-102005166D01*
X201412466Y-101662118D01*
X201206175Y-101353382D01*
X200943618Y-101090825D01*
X200634882Y-100884534D01*
X200291834Y-100742439D01*
X199927656Y-100670000D01*
X199556344Y-100670000D01*
X199192166Y-100742439D01*
X198849118Y-100884534D01*
X198540382Y-101090825D01*
X198277825Y-101353382D01*
X198071534Y-101662118D01*
X197929439Y-102005166D01*
X197857000Y-102369344D01*
X196550072Y-102369344D01*
X196550072Y-101305000D01*
X196537812Y-101180518D01*
X196501502Y-101060820D01*
X196442537Y-100950506D01*
X196363185Y-100853815D01*
X196266494Y-100774463D01*
X196156180Y-100715498D01*
X196036482Y-100679188D01*
X195912000Y-100666928D01*
X193412000Y-100666928D01*
X193287518Y-100679188D01*
X193167820Y-100715498D01*
X193057506Y-100774463D01*
X192960815Y-100853815D01*
X192881463Y-100950506D01*
X192822498Y-101060820D01*
X192786188Y-101180518D01*
X192773928Y-101305000D01*
X190997793Y-101305000D01*
X190783618Y-101090825D01*
X190474882Y-100884534D01*
X190131834Y-100742439D01*
X189767656Y-100670000D01*
X189396344Y-100670000D01*
X189032166Y-100742439D01*
X188689118Y-100884534D01*
X188380382Y-101090825D01*
X188117825Y-101353382D01*
X187911534Y-101662118D01*
X187769439Y-102005166D01*
X187697000Y-102369344D01*
X186390072Y-102369344D01*
X186390072Y-101305000D01*
X186377812Y-101180518D01*
X186341502Y-101060820D01*
X186282537Y-100950506D01*
X186203185Y-100853815D01*
X186106494Y-100774463D01*
X185996180Y-100715498D01*
X185876482Y-100679188D01*
X185752000Y-100666928D01*
X183252000Y-100666928D01*
X183127518Y-100679188D01*
X183007820Y-100715498D01*
X182897506Y-100774463D01*
X182800815Y-100853815D01*
X182721463Y-100950506D01*
X182662498Y-101060820D01*
X182626188Y-101180518D01*
X182613928Y-101305000D01*
X180837793Y-101305000D01*
X180623618Y-101090825D01*
X180314882Y-100884534D01*
X179971834Y-100742439D01*
X179607656Y-100670000D01*
X179236344Y-100670000D01*
X178872166Y-100742439D01*
X178529118Y-100884534D01*
X178220382Y-101090825D01*
X177957825Y-101353382D01*
X177751534Y-101662118D01*
X177609439Y-102005166D01*
X177537000Y-102369344D01*
X176230072Y-102369344D01*
X176230072Y-101305000D01*
X176217812Y-101180518D01*
X176181502Y-101060820D01*
X176122537Y-100950506D01*
X176043185Y-100853815D01*
X175946494Y-100774463D01*
X175836180Y-100715498D01*
X175716482Y-100679188D01*
X175592000Y-100666928D01*
X173092000Y-100666928D01*
X172967518Y-100679188D01*
X172847820Y-100715498D01*
X172737506Y-100774463D01*
X172640815Y-100853815D01*
X172561463Y-100950506D01*
X172502498Y-101060820D01*
X172466188Y-101180518D01*
X172453928Y-101305000D01*
X170687793Y-101305000D01*
X170473618Y-101090825D01*
X170164882Y-100884534D01*
X169821834Y-100742439D01*
X169457656Y-100670000D01*
X169086344Y-100670000D01*
X168722166Y-100742439D01*
X168379118Y-100884534D01*
X168070382Y-101090825D01*
X167807825Y-101353382D01*
X167601534Y-101662118D01*
X167459439Y-102005166D01*
X167387000Y-102369344D01*
X166080072Y-102369344D01*
X166080072Y-101305000D01*
X166067812Y-101180518D01*
X166031502Y-101060820D01*
X165972537Y-100950506D01*
X165893185Y-100853815D01*
X165796494Y-100774463D01*
X165686180Y-100715498D01*
X165566482Y-100679188D01*
X165442000Y-100666928D01*
X162942000Y-100666928D01*
X162817518Y-100679188D01*
X162697820Y-100715498D01*
X162587506Y-100774463D01*
X162490815Y-100853815D01*
X162411463Y-100950506D01*
X162352498Y-101060820D01*
X162316188Y-101180518D01*
X162303928Y-101305000D01*
X154292373Y-101305000D01*
X154257053Y-101232430D01*
X154081049Y-101000571D01*
X153863193Y-100807504D01*
X153611858Y-100660648D01*
X153348890Y-100568524D01*
X153119000Y-100689845D01*
X152865000Y-100689845D01*
X152635110Y-100568524D01*
X152372142Y-100660648D01*
X152120807Y-100807504D01*
X151902951Y-101000571D01*
X151746462Y-101206722D01*
X151732706Y-101180986D01*
X151547134Y-100954866D01*
X151321013Y-100769294D01*
X151063033Y-100631401D01*
X150783110Y-100546487D01*
X150492000Y-100517815D01*
X150352286Y-100531576D01*
X148971807Y-99151097D01*
X148939396Y-99111604D01*
X148781797Y-98982266D01*
X148601993Y-98886159D01*
X148406895Y-98826976D01*
X148254838Y-98812000D01*
X148254828Y-98812000D01*
X148204000Y-98806994D01*
X148153172Y-98812000D01*
X134242035Y-98812000D01*
X134191200Y-98806993D01*
X134140365Y-98812000D01*
X134140362Y-98812000D01*
X133988305Y-98826976D01*
X133793207Y-98886159D01*
X133613403Y-98982266D01*
X133546282Y-99037351D01*
X133518726Y-99055763D01*
X133495292Y-99079197D01*
X133455804Y-99111604D01*
X133423397Y-99151092D01*
X133374563Y-99199926D01*
X133346171Y-99242417D01*
X133313766Y-99281903D01*
X133289687Y-99326952D01*
X133261295Y-99369444D01*
X133241736Y-99416664D01*
X133217660Y-99461707D01*
X133202835Y-99510578D01*
X133183274Y-99557802D01*
X133173303Y-99607932D01*
X133158477Y-99656805D01*
X133153471Y-99707633D01*
X133143500Y-99757761D01*
X133143500Y-99808872D01*
X133138494Y-99859700D01*
X133143500Y-99910528D01*
X133143500Y-99961639D01*
X133153471Y-100011767D01*
X133158477Y-100062595D01*
X133173303Y-100111468D01*
X133183274Y-100161598D01*
X133202835Y-100208822D01*
X133217660Y-100257693D01*
X133241736Y-100302736D01*
X133261295Y-100349956D01*
X133289687Y-100392448D01*
X133313766Y-100437497D01*
X133346172Y-100476984D01*
X133374563Y-100519474D01*
X133410697Y-100555608D01*
X133443104Y-100595096D01*
X133482592Y-100627503D01*
X133518726Y-100663637D01*
X133561216Y-100692028D01*
X133600703Y-100724434D01*
X133645752Y-100748513D01*
X133688244Y-100776905D01*
X133735464Y-100796464D01*
X133780507Y-100820540D01*
X133829378Y-100835365D01*
X133876602Y-100854926D01*
X133926732Y-100864897D01*
X133975605Y-100879723D01*
X134026433Y-100884729D01*
X134076561Y-100894700D01*
X134127672Y-100894700D01*
X134178500Y-100899706D01*
X134229328Y-100894700D01*
X134280439Y-100894700D01*
X134330567Y-100884729D01*
X134358276Y-100882000D01*
X144182002Y-100882000D01*
X144153595Y-100916614D01*
X144071528Y-101070150D01*
X144062473Y-101100000D01*
X128362835Y-101100000D01*
X128312000Y-101094993D01*
X128261165Y-101100000D01*
X128261162Y-101100000D01*
X128184012Y-101107598D01*
X132586610Y-96705000D01*
X152333928Y-96705000D01*
X152346188Y-96829482D01*
X152382498Y-96949180D01*
X152441463Y-97059494D01*
X152520815Y-97156185D01*
X152617506Y-97235537D01*
X152727820Y-97294502D01*
X152847518Y-97330812D01*
X152972000Y-97343072D01*
X153536250Y-97340000D01*
X153695000Y-97181250D01*
X153695000Y-95982000D01*
X152495750Y-95982000D01*
X152337000Y-96140750D01*
X152333928Y-96705000D01*
X132586610Y-96705000D01*
X134286610Y-95005000D01*
X152333928Y-95005000D01*
X152337000Y-95569250D01*
X152495750Y-95728000D01*
X153695000Y-95728000D01*
X153695000Y-94528750D01*
X153536250Y-94370000D01*
X152972000Y-94366928D01*
X152847518Y-94379188D01*
X152727820Y-94415498D01*
X152617506Y-94474463D01*
X152520815Y-94553815D01*
X152441463Y-94650506D01*
X152382498Y-94760820D01*
X152346188Y-94880518D01*
X152333928Y-95005000D01*
X134286610Y-95005000D01*
X134302411Y-94989200D01*
X142897155Y-94989200D01*
X142944453Y-94998608D01*
X142995557Y-94998608D01*
X143046392Y-95003615D01*
X143097227Y-94998608D01*
X143148331Y-94998608D01*
X143198456Y-94988638D01*
X143249287Y-94983631D01*
X143298160Y-94968805D01*
X143348290Y-94958834D01*
X143395514Y-94939273D01*
X143444385Y-94924448D01*
X143489428Y-94900372D01*
X143536648Y-94880813D01*
X143579140Y-94852421D01*
X143624189Y-94828342D01*
X143663676Y-94795936D01*
X143706166Y-94767545D01*
X143742300Y-94731411D01*
X143781788Y-94699004D01*
X143814195Y-94659516D01*
X143850329Y-94623382D01*
X143878720Y-94580892D01*
X143911126Y-94541405D01*
X143935205Y-94496356D01*
X143963597Y-94453864D01*
X143983156Y-94406644D01*
X144007232Y-94361601D01*
X144022057Y-94312730D01*
X144041618Y-94265506D01*
X144051589Y-94215376D01*
X144066415Y-94166503D01*
X144071422Y-94115672D01*
X144081392Y-94065547D01*
X144081392Y-94014443D01*
X144086399Y-93963608D01*
X144084842Y-93947800D01*
X144613346Y-93947800D01*
X144664174Y-93952806D01*
X144715002Y-93947800D01*
X144715012Y-93947800D01*
X144867069Y-93932824D01*
X145062167Y-93873641D01*
X145149159Y-93827143D01*
X145163043Y-93821392D01*
X145175538Y-93813043D01*
X145241971Y-93777534D01*
X145300199Y-93729747D01*
X145332561Y-93708124D01*
X145360082Y-93680603D01*
X145399570Y-93648196D01*
X145431977Y-93608708D01*
X145476724Y-93563961D01*
X145505116Y-93521470D01*
X145537521Y-93481984D01*
X145561601Y-93436933D01*
X145589992Y-93394443D01*
X145609549Y-93347229D01*
X145633628Y-93302180D01*
X145648454Y-93253303D01*
X145668013Y-93206085D01*
X145677984Y-93155955D01*
X145692810Y-93107081D01*
X145697816Y-93056252D01*
X145707787Y-93006126D01*
X145707787Y-92955022D01*
X145712794Y-92904187D01*
X145707787Y-92853352D01*
X145707787Y-92802248D01*
X145697817Y-92752123D01*
X145692810Y-92701292D01*
X145677984Y-92652417D01*
X145668013Y-92602289D01*
X145648455Y-92555072D01*
X145633628Y-92506194D01*
X145628559Y-92496710D01*
X155222200Y-92496710D01*
X157092418Y-94366928D01*
X155512000Y-94366928D01*
X155387518Y-94379188D01*
X155267820Y-94415498D01*
X155157506Y-94474463D01*
X155092000Y-94528222D01*
X155026494Y-94474463D01*
X154916180Y-94415498D01*
X154796482Y-94379188D01*
X154672000Y-94366928D01*
X154107750Y-94370000D01*
X153949000Y-94528750D01*
X153949000Y-95728000D01*
X153969000Y-95728000D01*
X153969000Y-95982000D01*
X153949000Y-95982000D01*
X153949000Y-97181250D01*
X154107750Y-97340000D01*
X154672000Y-97343072D01*
X154796482Y-97330812D01*
X154916180Y-97294502D01*
X155026494Y-97235537D01*
X155092000Y-97181778D01*
X155157506Y-97235537D01*
X155267820Y-97294502D01*
X155387518Y-97330812D01*
X155512000Y-97343072D01*
X157212000Y-97343072D01*
X157336482Y-97330812D01*
X157456180Y-97294502D01*
X157566494Y-97235537D01*
X157663185Y-97156185D01*
X157742537Y-97059494D01*
X157801502Y-96949180D01*
X157837812Y-96829482D01*
X157850072Y-96705000D01*
X157850072Y-95124583D01*
X159385025Y-96659536D01*
X159417432Y-96699024D01*
X159575031Y-96828362D01*
X159754835Y-96924469D01*
X159949933Y-96983652D01*
X160101990Y-96998628D01*
X160101999Y-96998628D01*
X160152827Y-97003634D01*
X160203655Y-96998628D01*
X190795044Y-96998628D01*
X190845872Y-97003634D01*
X190896700Y-96998628D01*
X190896710Y-96998628D01*
X191048767Y-96983652D01*
X191243865Y-96924469D01*
X191423669Y-96828362D01*
X191581268Y-96699024D01*
X191613679Y-96659531D01*
X197101503Y-91171708D01*
X197137637Y-91135574D01*
X197166025Y-91093088D01*
X197198434Y-91053598D01*
X197222516Y-91008544D01*
X197250905Y-90966056D01*
X197270462Y-90918841D01*
X197294540Y-90873794D01*
X197309366Y-90824920D01*
X197328926Y-90777698D01*
X197338897Y-90727568D01*
X197353723Y-90678695D01*
X197358730Y-90627864D01*
X197368700Y-90577739D01*
X197368700Y-90526635D01*
X197373707Y-90475800D01*
X197368700Y-90424965D01*
X197368700Y-90373861D01*
X197358730Y-90323736D01*
X197355299Y-90288898D01*
X198620594Y-90288898D01*
X198625600Y-90339726D01*
X198625601Y-92861656D01*
X198625600Y-92861661D01*
X198625600Y-93065539D01*
X198635571Y-93115667D01*
X198640577Y-93166495D01*
X198655403Y-93215368D01*
X198665374Y-93265498D01*
X198684935Y-93312722D01*
X198699760Y-93361593D01*
X198723835Y-93406634D01*
X198743395Y-93453856D01*
X198771791Y-93496353D01*
X198795867Y-93541397D01*
X198828268Y-93580878D01*
X198856663Y-93623374D01*
X198892803Y-93659514D01*
X198925205Y-93698996D01*
X198964687Y-93731398D01*
X199000826Y-93767537D01*
X199043321Y-93795931D01*
X199082804Y-93828334D01*
X199127850Y-93852412D01*
X199170344Y-93880805D01*
X199217562Y-93900363D01*
X199262608Y-93924441D01*
X199311484Y-93939268D01*
X199358702Y-93958826D01*
X199408826Y-93968796D01*
X199457706Y-93983624D01*
X199508542Y-93988631D01*
X199558661Y-93998600D01*
X199609762Y-93998600D01*
X199660600Y-94003607D01*
X199711438Y-93998600D01*
X199762539Y-93998600D01*
X199812657Y-93988631D01*
X199863495Y-93983624D01*
X199912377Y-93968796D01*
X199962498Y-93958826D01*
X200009713Y-93939269D01*
X200058593Y-93924441D01*
X200103642Y-93900362D01*
X200150856Y-93880805D01*
X200193346Y-93852414D01*
X200238397Y-93828334D01*
X200277884Y-93795928D01*
X200320374Y-93767537D01*
X200356508Y-93731403D01*
X200395996Y-93698996D01*
X200428403Y-93659508D01*
X200464537Y-93623374D01*
X200492928Y-93580884D01*
X200525334Y-93541397D01*
X200549414Y-93496346D01*
X200577805Y-93453856D01*
X200597362Y-93406642D01*
X200621441Y-93361593D01*
X200636269Y-93312713D01*
X200655826Y-93265498D01*
X200665796Y-93215377D01*
X200680624Y-93166495D01*
X200685631Y-93115657D01*
X200695600Y-93065539D01*
X200695600Y-90717608D01*
X203053209Y-88360000D01*
X203373939Y-88360000D01*
X203424057Y-88350031D01*
X203474895Y-88345024D01*
X203523777Y-88330196D01*
X203573898Y-88320226D01*
X203621113Y-88300669D01*
X203669993Y-88285841D01*
X203715042Y-88261762D01*
X203762256Y-88242205D01*
X203804746Y-88213814D01*
X203849797Y-88189734D01*
X203889284Y-88157328D01*
X203931774Y-88128937D01*
X203967908Y-88092803D01*
X204007396Y-88060396D01*
X204039803Y-88020908D01*
X204075937Y-87984774D01*
X204104328Y-87942284D01*
X204136734Y-87902797D01*
X204160814Y-87857746D01*
X204189205Y-87815256D01*
X204208762Y-87768042D01*
X204232841Y-87722993D01*
X204247669Y-87674113D01*
X204267226Y-87626898D01*
X204277196Y-87576777D01*
X204292024Y-87527895D01*
X204297031Y-87477057D01*
X204307000Y-87426939D01*
X204307000Y-87375838D01*
X204312007Y-87325000D01*
X204307000Y-87274162D01*
X204307000Y-87223061D01*
X204297031Y-87172943D01*
X204292024Y-87122105D01*
X204277196Y-87073223D01*
X204267226Y-87023102D01*
X204247669Y-86975887D01*
X204232841Y-86927007D01*
X204208762Y-86881958D01*
X204189205Y-86834744D01*
X204160814Y-86792254D01*
X204136734Y-86747203D01*
X204104328Y-86707716D01*
X204075937Y-86665226D01*
X204039803Y-86629092D01*
X204007396Y-86589604D01*
X203967908Y-86557197D01*
X203931774Y-86521063D01*
X203889284Y-86492672D01*
X203849797Y-86460266D01*
X203804746Y-86436186D01*
X203762256Y-86407795D01*
X203715042Y-86388238D01*
X203669993Y-86364159D01*
X203621113Y-86349331D01*
X203573898Y-86329774D01*
X203523777Y-86319804D01*
X203474895Y-86304976D01*
X203424057Y-86299969D01*
X203373939Y-86290000D01*
X202675333Y-86290000D01*
X202624498Y-86284993D01*
X202573663Y-86290000D01*
X202573660Y-86290000D01*
X202421603Y-86304976D01*
X202226505Y-86364159D01*
X202195170Y-86380908D01*
X202046700Y-86460266D01*
X201966438Y-86526136D01*
X201889102Y-86589604D01*
X201856695Y-86629092D01*
X198964697Y-89521091D01*
X198925204Y-89553502D01*
X198795866Y-89711101D01*
X198699759Y-89890906D01*
X198640576Y-90086004D01*
X198625600Y-90238061D01*
X198625600Y-90238070D01*
X198620594Y-90288898D01*
X197355299Y-90288898D01*
X197353723Y-90272905D01*
X197338897Y-90224032D01*
X197328926Y-90173902D01*
X197309365Y-90126678D01*
X197294540Y-90077807D01*
X197270464Y-90032764D01*
X197250905Y-89985544D01*
X197222513Y-89943052D01*
X197198434Y-89898003D01*
X197166028Y-89858516D01*
X197137637Y-89816026D01*
X197101503Y-89779892D01*
X197069096Y-89740404D01*
X197029608Y-89707997D01*
X196993474Y-89671863D01*
X196950984Y-89643472D01*
X196911497Y-89611066D01*
X196866448Y-89586987D01*
X196823956Y-89558595D01*
X196776736Y-89539036D01*
X196731693Y-89514960D01*
X196682822Y-89500135D01*
X196635598Y-89480574D01*
X196585468Y-89470603D01*
X196536595Y-89455777D01*
X196485764Y-89450770D01*
X196435639Y-89440800D01*
X196384535Y-89440800D01*
X196333700Y-89435793D01*
X196282865Y-89440800D01*
X196231761Y-89440800D01*
X196181636Y-89450770D01*
X196130805Y-89455777D01*
X196081932Y-89470603D01*
X196031802Y-89480574D01*
X195984580Y-89500134D01*
X195935706Y-89514960D01*
X195890659Y-89539038D01*
X195843444Y-89558595D01*
X195800956Y-89586984D01*
X195755902Y-89611066D01*
X195716412Y-89643475D01*
X195673926Y-89671863D01*
X195637792Y-89707997D01*
X190417162Y-94928628D01*
X183019482Y-94928628D01*
X186801803Y-91146308D01*
X186837937Y-91110174D01*
X186866325Y-91067688D01*
X186898734Y-91028198D01*
X186922816Y-90983144D01*
X186951205Y-90940656D01*
X186970762Y-90893441D01*
X186994840Y-90848394D01*
X187009666Y-90799519D01*
X187029226Y-90752298D01*
X187039197Y-90702171D01*
X187054023Y-90653296D01*
X187059029Y-90602466D01*
X187069000Y-90552339D01*
X187069000Y-90501229D01*
X187074006Y-90450401D01*
X187069000Y-90399573D01*
X187069000Y-90348461D01*
X187059029Y-90298333D01*
X187054023Y-90247505D01*
X187039197Y-90198632D01*
X187029226Y-90148502D01*
X187017717Y-90120715D01*
X188370594Y-90120715D01*
X188375600Y-90171543D01*
X188375601Y-92861656D01*
X188375600Y-92861661D01*
X188375600Y-93065539D01*
X188385571Y-93115667D01*
X188390577Y-93166495D01*
X188405403Y-93215368D01*
X188415374Y-93265498D01*
X188434935Y-93312722D01*
X188449760Y-93361593D01*
X188473835Y-93406634D01*
X188493395Y-93453856D01*
X188521791Y-93496353D01*
X188545867Y-93541397D01*
X188578268Y-93580878D01*
X188606663Y-93623374D01*
X188642803Y-93659514D01*
X188675205Y-93698996D01*
X188714687Y-93731398D01*
X188750826Y-93767537D01*
X188793321Y-93795931D01*
X188832804Y-93828334D01*
X188877850Y-93852412D01*
X188920344Y-93880805D01*
X188967562Y-93900363D01*
X189012608Y-93924441D01*
X189061484Y-93939268D01*
X189108702Y-93958826D01*
X189158826Y-93968796D01*
X189207706Y-93983624D01*
X189258542Y-93988631D01*
X189308661Y-93998600D01*
X189359762Y-93998600D01*
X189410600Y-94003607D01*
X189461438Y-93998600D01*
X189512539Y-93998600D01*
X189562657Y-93988631D01*
X189613495Y-93983624D01*
X189662377Y-93968796D01*
X189712498Y-93958826D01*
X189759713Y-93939269D01*
X189808593Y-93924441D01*
X189853642Y-93900362D01*
X189900856Y-93880805D01*
X189943346Y-93852414D01*
X189988397Y-93828334D01*
X190027884Y-93795928D01*
X190070374Y-93767537D01*
X190106508Y-93731403D01*
X190145996Y-93698996D01*
X190178403Y-93659508D01*
X190214537Y-93623374D01*
X190242928Y-93580884D01*
X190275334Y-93541397D01*
X190299414Y-93496346D01*
X190327805Y-93453856D01*
X190347362Y-93406642D01*
X190371441Y-93361593D01*
X190386269Y-93312713D01*
X190405826Y-93265498D01*
X190415796Y-93215377D01*
X190430624Y-93166495D01*
X190435631Y-93115657D01*
X190445600Y-93065539D01*
X190445600Y-90549425D01*
X192635026Y-88360000D01*
X192873939Y-88360000D01*
X192924057Y-88350031D01*
X192974895Y-88345024D01*
X193023777Y-88330196D01*
X193073898Y-88320226D01*
X193121113Y-88300669D01*
X193169993Y-88285841D01*
X193215042Y-88261762D01*
X193262256Y-88242205D01*
X193304746Y-88213814D01*
X193349797Y-88189734D01*
X193389284Y-88157328D01*
X193431774Y-88128937D01*
X193467908Y-88092803D01*
X193507396Y-88060396D01*
X193539803Y-88020908D01*
X193575937Y-87984774D01*
X193604328Y-87942284D01*
X193636734Y-87902797D01*
X193660814Y-87857746D01*
X193689205Y-87815256D01*
X193708762Y-87768042D01*
X193732841Y-87722993D01*
X193747669Y-87674113D01*
X193767226Y-87626898D01*
X193777196Y-87576777D01*
X193792024Y-87527895D01*
X193797031Y-87477057D01*
X193807000Y-87426939D01*
X193807000Y-87375838D01*
X193812007Y-87325000D01*
X193807000Y-87274162D01*
X193807000Y-87223061D01*
X193797031Y-87172943D01*
X193792024Y-87122105D01*
X193777196Y-87073223D01*
X193767226Y-87023102D01*
X193747669Y-86975887D01*
X193732841Y-86927007D01*
X193708762Y-86881958D01*
X193689205Y-86834744D01*
X193660814Y-86792254D01*
X193636734Y-86747203D01*
X193604328Y-86707716D01*
X193575937Y-86665226D01*
X193539803Y-86629092D01*
X193507396Y-86589604D01*
X193467908Y-86557197D01*
X193431774Y-86521063D01*
X193389284Y-86492672D01*
X193349797Y-86460266D01*
X193304746Y-86436186D01*
X193262256Y-86407795D01*
X193215042Y-86388238D01*
X193169993Y-86364159D01*
X193121113Y-86349331D01*
X193073898Y-86329774D01*
X193023777Y-86319804D01*
X192974895Y-86304976D01*
X192924057Y-86299969D01*
X192873939Y-86290000D01*
X192257142Y-86290000D01*
X192206314Y-86284994D01*
X192155486Y-86290000D01*
X192155477Y-86290000D01*
X192003420Y-86304976D01*
X191808322Y-86364159D01*
X191776987Y-86380908D01*
X191628517Y-86460266D01*
X191548255Y-86526136D01*
X191470919Y-86589604D01*
X191438512Y-86629092D01*
X188714697Y-89352908D01*
X188675204Y-89385319D01*
X188545866Y-89542918D01*
X188449759Y-89722723D01*
X188390576Y-89917821D01*
X188375600Y-90069878D01*
X188375600Y-90069887D01*
X188370594Y-90120715D01*
X187017717Y-90120715D01*
X187009665Y-90101278D01*
X186994840Y-90052407D01*
X186970764Y-90007364D01*
X186951205Y-89960144D01*
X186922813Y-89917652D01*
X186898734Y-89872603D01*
X186866330Y-89833119D01*
X186837937Y-89790626D01*
X186801795Y-89754484D01*
X186769395Y-89715005D01*
X186729916Y-89682605D01*
X186693774Y-89646463D01*
X186651281Y-89618070D01*
X186611797Y-89585666D01*
X186566748Y-89561587D01*
X186524256Y-89533195D01*
X186477036Y-89513636D01*
X186431993Y-89489560D01*
X186383122Y-89474735D01*
X186335898Y-89455174D01*
X186285768Y-89445203D01*
X186236895Y-89430377D01*
X186186067Y-89425371D01*
X186135939Y-89415400D01*
X186084827Y-89415400D01*
X186033999Y-89410394D01*
X185983171Y-89415400D01*
X185932061Y-89415400D01*
X185881934Y-89425371D01*
X185831104Y-89430377D01*
X185782229Y-89445203D01*
X185732102Y-89455174D01*
X185684881Y-89474734D01*
X185636006Y-89489560D01*
X185590959Y-89513638D01*
X185543744Y-89533195D01*
X185501256Y-89561584D01*
X185456202Y-89585666D01*
X185416712Y-89618075D01*
X185374226Y-89646463D01*
X185338092Y-89682597D01*
X181092072Y-93928618D01*
X179767623Y-93928618D01*
X179781393Y-93924441D01*
X179826442Y-93900362D01*
X179873656Y-93880805D01*
X179916146Y-93852414D01*
X179961197Y-93828334D01*
X180000684Y-93795928D01*
X180043174Y-93767537D01*
X180079308Y-93731403D01*
X180118796Y-93698996D01*
X180151203Y-93659508D01*
X180187337Y-93623374D01*
X180215728Y-93580884D01*
X180248134Y-93541397D01*
X180272214Y-93496346D01*
X180300605Y-93453856D01*
X180320162Y-93406642D01*
X180344241Y-93361593D01*
X180359069Y-93312713D01*
X180378626Y-93265498D01*
X180388596Y-93215377D01*
X180403424Y-93166495D01*
X180408431Y-93115657D01*
X180418400Y-93065539D01*
X180418400Y-90326625D01*
X182385026Y-88360000D01*
X182623939Y-88360000D01*
X182674057Y-88350031D01*
X182724895Y-88345024D01*
X182773777Y-88330196D01*
X182823898Y-88320226D01*
X182871113Y-88300669D01*
X182919993Y-88285841D01*
X182965042Y-88261762D01*
X183012256Y-88242205D01*
X183054746Y-88213814D01*
X183099797Y-88189734D01*
X183139284Y-88157328D01*
X183181774Y-88128937D01*
X183217908Y-88092803D01*
X183257396Y-88060396D01*
X183289803Y-88020908D01*
X183325937Y-87984774D01*
X183354328Y-87942284D01*
X183386734Y-87902797D01*
X183410814Y-87857746D01*
X183439205Y-87815256D01*
X183458762Y-87768042D01*
X183482841Y-87722993D01*
X183497669Y-87674113D01*
X183517226Y-87626898D01*
X183527196Y-87576777D01*
X183542024Y-87527895D01*
X183547031Y-87477057D01*
X183557000Y-87426939D01*
X183557000Y-87375838D01*
X183562007Y-87325000D01*
X183557000Y-87274162D01*
X183557000Y-87223061D01*
X183547031Y-87172943D01*
X183542024Y-87122105D01*
X183527196Y-87073223D01*
X183517226Y-87023102D01*
X183497669Y-86975887D01*
X183482841Y-86927007D01*
X183458762Y-86881958D01*
X183439205Y-86834744D01*
X183410814Y-86792254D01*
X183386734Y-86747203D01*
X183354328Y-86707716D01*
X183325937Y-86665226D01*
X183289803Y-86629092D01*
X183257396Y-86589604D01*
X183217908Y-86557197D01*
X183181774Y-86521063D01*
X183139284Y-86492672D01*
X183099797Y-86460266D01*
X183054746Y-86436186D01*
X183012256Y-86407795D01*
X182965042Y-86388238D01*
X182919993Y-86364159D01*
X182871113Y-86349331D01*
X182823898Y-86329774D01*
X182773777Y-86319804D01*
X182724895Y-86304976D01*
X182674057Y-86299969D01*
X182623939Y-86290000D01*
X182007142Y-86290000D01*
X181956314Y-86284994D01*
X181905486Y-86290000D01*
X181905477Y-86290000D01*
X181753420Y-86304976D01*
X181558322Y-86364159D01*
X181526987Y-86380908D01*
X181378517Y-86460266D01*
X181298255Y-86526136D01*
X181220919Y-86589604D01*
X181188512Y-86629092D01*
X178687497Y-89130108D01*
X178648004Y-89162519D01*
X178518666Y-89320118D01*
X178422559Y-89499923D01*
X178363376Y-89695021D01*
X178348400Y-89847078D01*
X178348400Y-89847087D01*
X178343394Y-89897915D01*
X178348400Y-89948743D01*
X178348401Y-92861656D01*
X178348400Y-92861661D01*
X178348400Y-93065539D01*
X178358371Y-93115667D01*
X178363377Y-93166495D01*
X178378203Y-93215368D01*
X178388174Y-93265498D01*
X178407735Y-93312722D01*
X178422560Y-93361593D01*
X178446635Y-93406634D01*
X178466195Y-93453856D01*
X178494591Y-93496353D01*
X178518667Y-93541397D01*
X178551068Y-93580878D01*
X178579463Y-93623374D01*
X178615603Y-93659514D01*
X178648005Y-93698996D01*
X178687487Y-93731398D01*
X178723626Y-93767537D01*
X178766121Y-93795931D01*
X178805604Y-93828334D01*
X178850650Y-93852412D01*
X178893144Y-93880805D01*
X178940362Y-93900363D01*
X178985408Y-93924441D01*
X178999178Y-93928618D01*
X173846792Y-93928618D01*
X176629103Y-91146308D01*
X176665237Y-91110174D01*
X176693625Y-91067688D01*
X176726034Y-91028198D01*
X176750116Y-90983144D01*
X176778505Y-90940656D01*
X176798062Y-90893441D01*
X176822140Y-90848394D01*
X176836966Y-90799519D01*
X176856526Y-90752298D01*
X176866497Y-90702171D01*
X176881323Y-90653296D01*
X176886329Y-90602466D01*
X176896300Y-90552339D01*
X176896300Y-90501229D01*
X176901306Y-90450401D01*
X176896300Y-90399573D01*
X176896300Y-90348461D01*
X176886329Y-90298332D01*
X176881323Y-90247506D01*
X176866498Y-90198634D01*
X176856526Y-90148502D01*
X176836965Y-90101277D01*
X176822140Y-90052407D01*
X176798064Y-90007364D01*
X176778505Y-89960144D01*
X176750113Y-89917652D01*
X176726034Y-89872603D01*
X176693630Y-89833119D01*
X176665237Y-89790626D01*
X176629095Y-89754484D01*
X176596695Y-89715005D01*
X176557216Y-89682605D01*
X176521074Y-89646463D01*
X176478581Y-89618070D01*
X176439097Y-89585666D01*
X176394048Y-89561587D01*
X176351556Y-89533195D01*
X176304336Y-89513636D01*
X176259293Y-89489560D01*
X176210423Y-89474735D01*
X176163198Y-89455174D01*
X176113066Y-89445202D01*
X176064194Y-89430377D01*
X176013368Y-89425371D01*
X175963239Y-89415400D01*
X175912127Y-89415400D01*
X175861299Y-89410394D01*
X175810471Y-89415400D01*
X175759361Y-89415400D01*
X175709234Y-89425371D01*
X175658404Y-89430377D01*
X175609529Y-89445203D01*
X175559402Y-89455174D01*
X175512181Y-89474734D01*
X175463306Y-89489560D01*
X175418259Y-89513638D01*
X175371044Y-89533195D01*
X175328556Y-89561584D01*
X175283502Y-89585666D01*
X175244012Y-89618075D01*
X175201526Y-89646463D01*
X175165392Y-89682597D01*
X171919382Y-92928608D01*
X170168400Y-92928608D01*
X170168400Y-90892310D01*
X173039803Y-88020908D01*
X173075937Y-87984774D01*
X173104325Y-87942288D01*
X173136734Y-87902798D01*
X173160816Y-87857744D01*
X173189205Y-87815256D01*
X173208762Y-87768041D01*
X173232840Y-87722994D01*
X173247666Y-87674120D01*
X173267226Y-87626898D01*
X173277197Y-87576768D01*
X173292023Y-87527895D01*
X173297030Y-87477064D01*
X173307000Y-87426939D01*
X173307000Y-87375835D01*
X173312007Y-87325000D01*
X173307000Y-87274165D01*
X173307000Y-87223061D01*
X173297030Y-87172936D01*
X173292023Y-87122105D01*
X173277197Y-87073232D01*
X173267226Y-87023102D01*
X173247665Y-86975878D01*
X173232840Y-86927007D01*
X173208764Y-86881964D01*
X173189205Y-86834744D01*
X173160813Y-86792252D01*
X173136734Y-86747203D01*
X173104328Y-86707716D01*
X173075937Y-86665226D01*
X173039803Y-86629092D01*
X173007396Y-86589604D01*
X172967908Y-86557197D01*
X172931774Y-86521063D01*
X172889284Y-86492672D01*
X172849797Y-86460266D01*
X172804748Y-86436187D01*
X172762256Y-86407795D01*
X172715036Y-86388236D01*
X172669993Y-86364160D01*
X172621122Y-86349335D01*
X172573898Y-86329774D01*
X172523768Y-86319803D01*
X172474895Y-86304977D01*
X172424064Y-86299970D01*
X172373939Y-86290000D01*
X172322835Y-86290000D01*
X172272000Y-86284993D01*
X172221165Y-86290000D01*
X172170061Y-86290000D01*
X172119936Y-86299970D01*
X172069105Y-86304977D01*
X172020232Y-86319803D01*
X171970102Y-86329774D01*
X171922880Y-86349334D01*
X171874006Y-86364160D01*
X171828959Y-86388238D01*
X171781744Y-86407795D01*
X171739256Y-86436184D01*
X171694202Y-86460266D01*
X171654712Y-86492675D01*
X171612226Y-86521063D01*
X171576092Y-86557197D01*
X168437497Y-89695793D01*
X168398004Y-89728204D01*
X168268666Y-89885803D01*
X168172559Y-90065608D01*
X168113376Y-90260706D01*
X168098400Y-90412763D01*
X168098400Y-90412772D01*
X168093394Y-90463600D01*
X168098400Y-90514428D01*
X168098401Y-92861656D01*
X168098400Y-92861661D01*
X168098400Y-92928608D01*
X161130853Y-92928608D01*
X161080735Y-92938577D01*
X161029897Y-92943584D01*
X160981015Y-92958412D01*
X160930894Y-92968382D01*
X160883679Y-92987939D01*
X160834799Y-93002767D01*
X160789750Y-93026846D01*
X160742536Y-93046403D01*
X160700046Y-93074794D01*
X160654995Y-93098874D01*
X160615508Y-93131280D01*
X160573018Y-93159671D01*
X160536884Y-93195805D01*
X160497396Y-93228212D01*
X160464989Y-93267700D01*
X160428855Y-93303834D01*
X160405670Y-93338533D01*
X159311552Y-92244416D01*
X159311550Y-92244413D01*
X159167387Y-92100250D01*
X159124896Y-92071858D01*
X159085410Y-92039453D01*
X159040361Y-92015374D01*
X158997869Y-91986982D01*
X158950649Y-91967423D01*
X158905606Y-91943347D01*
X158856735Y-91928522D01*
X158809511Y-91908961D01*
X158759381Y-91898990D01*
X158710508Y-91884164D01*
X158659680Y-91879158D01*
X158609552Y-91869187D01*
X158558441Y-91869187D01*
X158507613Y-91864181D01*
X158456785Y-91869187D01*
X158405674Y-91869187D01*
X158355546Y-91879158D01*
X158304718Y-91884164D01*
X158255845Y-91898990D01*
X158205715Y-91908961D01*
X158158491Y-91928522D01*
X158109620Y-91943347D01*
X158064577Y-91967423D01*
X158017357Y-91986982D01*
X157974865Y-92015374D01*
X157929816Y-92039453D01*
X157890329Y-92071859D01*
X157847839Y-92100250D01*
X157811705Y-92136384D01*
X157799396Y-92146486D01*
X157149610Y-91496700D01*
X161059499Y-91496700D01*
X161202662Y-91510800D01*
X161202672Y-91510800D01*
X161253500Y-91515806D01*
X161304328Y-91510800D01*
X165927439Y-91510800D01*
X165977557Y-91500831D01*
X166028395Y-91495824D01*
X166077277Y-91480996D01*
X166127398Y-91471026D01*
X166174613Y-91451469D01*
X166223493Y-91436641D01*
X166268542Y-91412562D01*
X166315756Y-91393005D01*
X166358246Y-91364614D01*
X166403297Y-91340534D01*
X166442784Y-91308128D01*
X166485274Y-91279737D01*
X166521408Y-91243603D01*
X166560896Y-91211196D01*
X166593303Y-91171708D01*
X166629437Y-91135574D01*
X166657828Y-91093084D01*
X166690234Y-91053597D01*
X166714314Y-91008546D01*
X166742705Y-90966056D01*
X166762262Y-90918842D01*
X166786341Y-90873793D01*
X166801169Y-90824913D01*
X166820726Y-90777698D01*
X166830696Y-90727577D01*
X166845524Y-90678695D01*
X166850531Y-90627857D01*
X166860500Y-90577739D01*
X166860500Y-90526638D01*
X166865507Y-90475800D01*
X166860500Y-90424962D01*
X166860500Y-90373861D01*
X166850531Y-90323743D01*
X166845524Y-90272905D01*
X166830696Y-90224023D01*
X166820726Y-90173902D01*
X166801169Y-90126687D01*
X166786341Y-90077807D01*
X166762262Y-90032758D01*
X166742705Y-89985544D01*
X166714314Y-89943054D01*
X166690234Y-89898003D01*
X166657828Y-89858516D01*
X166629437Y-89816026D01*
X166593303Y-89779892D01*
X166560896Y-89740404D01*
X166521408Y-89707997D01*
X166485274Y-89671863D01*
X166442784Y-89643472D01*
X166403297Y-89611066D01*
X166358246Y-89586986D01*
X166315756Y-89558595D01*
X166268542Y-89539038D01*
X166223493Y-89514959D01*
X166174613Y-89500131D01*
X166127398Y-89480574D01*
X166077277Y-89470604D01*
X166028395Y-89455776D01*
X165977557Y-89450769D01*
X165927439Y-89440800D01*
X161461601Y-89440800D01*
X161318438Y-89426700D01*
X161318427Y-89426700D01*
X161267599Y-89421694D01*
X161216771Y-89426700D01*
X157842589Y-89426700D01*
X157847812Y-89409482D01*
X157860072Y-89285000D01*
X157860072Y-87585000D01*
X157847812Y-87460518D01*
X157811502Y-87340820D01*
X157752537Y-87230506D01*
X157673185Y-87133815D01*
X157576494Y-87054463D01*
X157466180Y-86995498D01*
X157346482Y-86959188D01*
X157222000Y-86946928D01*
X155522000Y-86946928D01*
X155397518Y-86959188D01*
X155277820Y-86995498D01*
X155167506Y-87054463D01*
X155102000Y-87108222D01*
X155036494Y-87054463D01*
X154926180Y-86995498D01*
X154806482Y-86959188D01*
X154682000Y-86946928D01*
X154117750Y-86950000D01*
X153959000Y-87108750D01*
X153959000Y-88308000D01*
X153979000Y-88308000D01*
X153979000Y-88562000D01*
X153959000Y-88562000D01*
X153959000Y-88582000D01*
X153705000Y-88582000D01*
X153705000Y-88562000D01*
X152505750Y-88562000D01*
X152347000Y-88720750D01*
X152343928Y-89285000D01*
X152356188Y-89409482D01*
X152361411Y-89426700D01*
X137599784Y-89426700D01*
X139441484Y-87585000D01*
X152343928Y-87585000D01*
X152347000Y-88149250D01*
X152505750Y-88308000D01*
X153705000Y-88308000D01*
X153705000Y-87108750D01*
X153546250Y-86950000D01*
X152982000Y-86946928D01*
X152857518Y-86959188D01*
X152737820Y-86995498D01*
X152627506Y-87054463D01*
X152530815Y-87133815D01*
X152451463Y-87230506D01*
X152392498Y-87340820D01*
X152356188Y-87460518D01*
X152343928Y-87585000D01*
X139441484Y-87585000D01*
X141173945Y-85852539D01*
X141176938Y-85882933D01*
X141191766Y-85931815D01*
X141201736Y-85981936D01*
X141221293Y-86029151D01*
X141236121Y-86078031D01*
X141260200Y-86123080D01*
X141279757Y-86170294D01*
X141308148Y-86212784D01*
X141332228Y-86257835D01*
X141364634Y-86297322D01*
X141393025Y-86339812D01*
X141429159Y-86375946D01*
X141461566Y-86415434D01*
X141501054Y-86447841D01*
X141537188Y-86483975D01*
X141579678Y-86512366D01*
X141619165Y-86544772D01*
X141664216Y-86568852D01*
X141706706Y-86597243D01*
X141753920Y-86616800D01*
X141798969Y-86640879D01*
X141847849Y-86655707D01*
X141895064Y-86675264D01*
X141945185Y-86685234D01*
X141994067Y-86700062D01*
X142044905Y-86705069D01*
X142095023Y-86715038D01*
X152356134Y-86715038D01*
X152406962Y-86720044D01*
X152457790Y-86715038D01*
X152457800Y-86715038D01*
X152609857Y-86700062D01*
X152804955Y-86640879D01*
X152984759Y-86544772D01*
X153142358Y-86415434D01*
X153174769Y-86375941D01*
X153368673Y-86182037D01*
X158719838Y-80830872D01*
X203101600Y-80830872D01*
X203101600Y-81271128D01*
X203187490Y-81702925D01*
X203355969Y-82109669D01*
X203600562Y-82475729D01*
X203911871Y-82787038D01*
X204277931Y-83031631D01*
X204684675Y-83200110D01*
X205116472Y-83286000D01*
X205556728Y-83286000D01*
X205988525Y-83200110D01*
X206395269Y-83031631D01*
X206761329Y-82787038D01*
X207072638Y-82475729D01*
X207317231Y-82109669D01*
X207485710Y-81702925D01*
X207571600Y-81271128D01*
X207571600Y-80830872D01*
X207485710Y-80399075D01*
X207317231Y-79992331D01*
X207072638Y-79626271D01*
X206761329Y-79314962D01*
X206395269Y-79070369D01*
X205988525Y-78901890D01*
X205556728Y-78816000D01*
X205116472Y-78816000D01*
X204684675Y-78901890D01*
X204277931Y-79070369D01*
X203911871Y-79314962D01*
X203600562Y-79626271D01*
X203355969Y-79992331D01*
X203187490Y-80399075D01*
X203101600Y-80830872D01*
X158719838Y-80830872D01*
X161404708Y-78146003D01*
X161444196Y-78113596D01*
X161476603Y-78074108D01*
X161573534Y-77955998D01*
X161669641Y-77776194D01*
X161698444Y-77681242D01*
X161728824Y-77581095D01*
X161743800Y-77429038D01*
X161743800Y-77429035D01*
X161748807Y-77378200D01*
X161743800Y-77327365D01*
X161743800Y-76180000D01*
X162639638Y-76180000D01*
X162791999Y-76195006D01*
X162792000Y-76195006D01*
X162994895Y-76175023D01*
X163189993Y-76115840D01*
X163369797Y-76019734D01*
X163487907Y-75922803D01*
X163487910Y-75922800D01*
X163527395Y-75890395D01*
X163559799Y-75850911D01*
X164973408Y-74437303D01*
X165012896Y-74404896D01*
X165045632Y-74365007D01*
X165142234Y-74247298D01*
X165213710Y-74113574D01*
X165238341Y-74067493D01*
X165297524Y-73872395D01*
X165312500Y-73720338D01*
X165312500Y-73720329D01*
X165317506Y-73669501D01*
X165312500Y-73618673D01*
X165312500Y-70456110D01*
X165343671Y-70424939D01*
X165343674Y-70424937D01*
X165391013Y-70377598D01*
X166925500Y-71912085D01*
X166925500Y-72262939D01*
X166935469Y-72313058D01*
X166940476Y-72363894D01*
X166955304Y-72412774D01*
X166965274Y-72462898D01*
X166984832Y-72510116D01*
X166999659Y-72558992D01*
X167023737Y-72604039D01*
X167043295Y-72651256D01*
X167071686Y-72693747D01*
X167095766Y-72738797D01*
X167128172Y-72778284D01*
X167156563Y-72820774D01*
X167192697Y-72856908D01*
X167225104Y-72896396D01*
X167264592Y-72928803D01*
X167300726Y-72964937D01*
X167343216Y-72993328D01*
X167382703Y-73025734D01*
X167427754Y-73049814D01*
X167470244Y-73078205D01*
X167517458Y-73097762D01*
X167562507Y-73121841D01*
X167611387Y-73136669D01*
X167658602Y-73156226D01*
X167708723Y-73166196D01*
X167757605Y-73181024D01*
X167808443Y-73186031D01*
X167858561Y-73196000D01*
X167909662Y-73196000D01*
X167960500Y-73201007D01*
X168011338Y-73196000D01*
X168062439Y-73196000D01*
X168112558Y-73186031D01*
X168163394Y-73181024D01*
X168212274Y-73166196D01*
X168262398Y-73156226D01*
X168309616Y-73136668D01*
X168358492Y-73121841D01*
X168403539Y-73097763D01*
X168450756Y-73078205D01*
X168493247Y-73049814D01*
X168538297Y-73025734D01*
X168577784Y-72993328D01*
X168620274Y-72964937D01*
X168656408Y-72928803D01*
X168695896Y-72896396D01*
X168728303Y-72856908D01*
X168764437Y-72820774D01*
X168792828Y-72778284D01*
X168825234Y-72738797D01*
X168849314Y-72693746D01*
X168877705Y-72651256D01*
X168897262Y-72604042D01*
X168921341Y-72558993D01*
X168936169Y-72510113D01*
X168955726Y-72462898D01*
X168965696Y-72412777D01*
X168980524Y-72363895D01*
X168985531Y-72313057D01*
X168995500Y-72262939D01*
X168995500Y-71534201D01*
X169000506Y-71483373D01*
X168995500Y-71432545D01*
X168995500Y-71432537D01*
X168980524Y-71280480D01*
X168921341Y-71085381D01*
X168866724Y-70983200D01*
X168825234Y-70905576D01*
X168728303Y-70787466D01*
X168695896Y-70747978D01*
X168656408Y-70715571D01*
X166593526Y-68652690D01*
X174018965Y-68652690D01*
X174134108Y-68767833D01*
X174108716Y-68788672D01*
X174066226Y-68817063D01*
X174030092Y-68853197D01*
X173990604Y-68885604D01*
X173958197Y-68925092D01*
X173922063Y-68961226D01*
X173893672Y-69003716D01*
X173861266Y-69043203D01*
X173837186Y-69088253D01*
X173808795Y-69130744D01*
X173789237Y-69177961D01*
X173765159Y-69223008D01*
X173750332Y-69271884D01*
X173730774Y-69319102D01*
X173720804Y-69369226D01*
X173705976Y-69418106D01*
X173700969Y-69468942D01*
X173691000Y-69519061D01*
X173691000Y-69570163D01*
X173691001Y-72692288D01*
X172258690Y-74124600D01*
X171754661Y-74124600D01*
X171704543Y-74134569D01*
X171653705Y-74139576D01*
X171604823Y-74154404D01*
X171554702Y-74164374D01*
X171507487Y-74183931D01*
X171458607Y-74198759D01*
X171413558Y-74222838D01*
X171366344Y-74242395D01*
X171323854Y-74270786D01*
X171278803Y-74294866D01*
X171239316Y-74327272D01*
X171196826Y-74355663D01*
X171160692Y-74391797D01*
X171121204Y-74424204D01*
X171088797Y-74463692D01*
X171052663Y-74499826D01*
X171024272Y-74542316D01*
X170991866Y-74581803D01*
X170967786Y-74626854D01*
X170939395Y-74669344D01*
X170919838Y-74716558D01*
X170895759Y-74761607D01*
X170880931Y-74810487D01*
X170861374Y-74857702D01*
X170851404Y-74907823D01*
X170836576Y-74956705D01*
X170831569Y-75007543D01*
X170821600Y-75057661D01*
X170821600Y-75108762D01*
X170816593Y-75159600D01*
X170821600Y-75210438D01*
X170821600Y-75261539D01*
X170831569Y-75311657D01*
X170836576Y-75362495D01*
X170851404Y-75411377D01*
X170861374Y-75461498D01*
X170880931Y-75508713D01*
X170895759Y-75557593D01*
X170919838Y-75602642D01*
X170939395Y-75649856D01*
X170967786Y-75692346D01*
X170991866Y-75737397D01*
X171024272Y-75776884D01*
X171052663Y-75819374D01*
X171088797Y-75855508D01*
X171121204Y-75894996D01*
X171160692Y-75927403D01*
X171196826Y-75963537D01*
X171239316Y-75991928D01*
X171278803Y-76024334D01*
X171323854Y-76048414D01*
X171366344Y-76076805D01*
X171413558Y-76096362D01*
X171458607Y-76120441D01*
X171507487Y-76135269D01*
X171554702Y-76154826D01*
X171604823Y-76164796D01*
X171653705Y-76179624D01*
X171704543Y-76184631D01*
X171754661Y-76194600D01*
X172636572Y-76194600D01*
X172687400Y-76199606D01*
X172738228Y-76194600D01*
X172738238Y-76194600D01*
X172890295Y-76179624D01*
X173085393Y-76120441D01*
X173265197Y-76024334D01*
X173422796Y-75894996D01*
X173455207Y-75855503D01*
X175421908Y-73888803D01*
X175461396Y-73856396D01*
X175505740Y-73802363D01*
X175590734Y-73698798D01*
X175642793Y-73601401D01*
X175686841Y-73518993D01*
X175746024Y-73323895D01*
X175761000Y-73171838D01*
X175761000Y-73171835D01*
X175766007Y-73121000D01*
X175761000Y-73070165D01*
X175761000Y-70394726D01*
X177415700Y-72049426D01*
X177415700Y-72288339D01*
X177425669Y-72338458D01*
X177430676Y-72389294D01*
X177445504Y-72438174D01*
X177455474Y-72488298D01*
X177475032Y-72535516D01*
X177489859Y-72584392D01*
X177513937Y-72629439D01*
X177533495Y-72676656D01*
X177561886Y-72719147D01*
X177585966Y-72764197D01*
X177618372Y-72803684D01*
X177646763Y-72846174D01*
X177682897Y-72882308D01*
X177715304Y-72921796D01*
X177754792Y-72954203D01*
X177790926Y-72990337D01*
X177833416Y-73018728D01*
X177872903Y-73051134D01*
X177917954Y-73075214D01*
X177960444Y-73103605D01*
X178007658Y-73123162D01*
X178052707Y-73147241D01*
X178101587Y-73162069D01*
X178148802Y-73181626D01*
X178198923Y-73191596D01*
X178247805Y-73206424D01*
X178298643Y-73211431D01*
X178348761Y-73221400D01*
X178399862Y-73221400D01*
X178450700Y-73226407D01*
X178501538Y-73221400D01*
X178552639Y-73221400D01*
X178602758Y-73211431D01*
X178653594Y-73206424D01*
X178702474Y-73191596D01*
X178752598Y-73181626D01*
X178799816Y-73162068D01*
X178848692Y-73147241D01*
X178893739Y-73123163D01*
X178940956Y-73103605D01*
X178983447Y-73075214D01*
X179028497Y-73051134D01*
X179067984Y-73018728D01*
X179110474Y-72990337D01*
X179146608Y-72954203D01*
X179186096Y-72921796D01*
X179218503Y-72882308D01*
X179254637Y-72846174D01*
X179283028Y-72803684D01*
X179315434Y-72764197D01*
X179339514Y-72719146D01*
X179367905Y-72676656D01*
X179387462Y-72629442D01*
X179411541Y-72584393D01*
X179426369Y-72535513D01*
X179445926Y-72488298D01*
X179455896Y-72438177D01*
X179470724Y-72389295D01*
X179475731Y-72338457D01*
X179485700Y-72288339D01*
X179485700Y-71671542D01*
X179490706Y-71620714D01*
X179485700Y-71569886D01*
X179485700Y-71569878D01*
X179470724Y-71417821D01*
X179411541Y-71222723D01*
X179394678Y-71191174D01*
X179315434Y-71042917D01*
X179218503Y-70924807D01*
X179186096Y-70885319D01*
X179146608Y-70852912D01*
X175946375Y-67652680D01*
X183383290Y-67652680D01*
X184460021Y-68729411D01*
X184290826Y-68842463D01*
X184146663Y-68986626D01*
X184146661Y-68986629D01*
X183826093Y-69307197D01*
X183786605Y-69339604D01*
X183754198Y-69379092D01*
X183754197Y-69379093D01*
X183657266Y-69497203D01*
X183561160Y-69677007D01*
X183501977Y-69872105D01*
X183481994Y-70075000D01*
X183487001Y-70125838D01*
X183487000Y-72896289D01*
X182284090Y-74099200D01*
X181610861Y-74099200D01*
X181560743Y-74109169D01*
X181509905Y-74114176D01*
X181461023Y-74129004D01*
X181410902Y-74138974D01*
X181363687Y-74158531D01*
X181314807Y-74173359D01*
X181269758Y-74197438D01*
X181222544Y-74216995D01*
X181180054Y-74245386D01*
X181135003Y-74269466D01*
X181095516Y-74301872D01*
X181053026Y-74330263D01*
X181016892Y-74366397D01*
X180977404Y-74398804D01*
X180944997Y-74438292D01*
X180908863Y-74474426D01*
X180880472Y-74516916D01*
X180848066Y-74556403D01*
X180823986Y-74601454D01*
X180795595Y-74643944D01*
X180776038Y-74691158D01*
X180751959Y-74736207D01*
X180737131Y-74785087D01*
X180717574Y-74832302D01*
X180707604Y-74882423D01*
X180692776Y-74931305D01*
X180687769Y-74982143D01*
X180677800Y-75032261D01*
X180677800Y-75083362D01*
X180672793Y-75134200D01*
X180677800Y-75185038D01*
X180677800Y-75236139D01*
X180687769Y-75286257D01*
X180692776Y-75337095D01*
X180707604Y-75385977D01*
X180717574Y-75436098D01*
X180737131Y-75483313D01*
X180751959Y-75532193D01*
X180776038Y-75577242D01*
X180795595Y-75624456D01*
X180823986Y-75666946D01*
X180848066Y-75711997D01*
X180880472Y-75751484D01*
X180908863Y-75793974D01*
X180944997Y-75830108D01*
X180977404Y-75869596D01*
X181016892Y-75902003D01*
X181053026Y-75938137D01*
X181095516Y-75966528D01*
X181135003Y-75998934D01*
X181180054Y-76023014D01*
X181222544Y-76051405D01*
X181269758Y-76070962D01*
X181314807Y-76095041D01*
X181363687Y-76109869D01*
X181410902Y-76129426D01*
X181461023Y-76139396D01*
X181509905Y-76154224D01*
X181560743Y-76159231D01*
X181610861Y-76169200D01*
X182661972Y-76169200D01*
X182712800Y-76174206D01*
X182763628Y-76169200D01*
X182763638Y-76169200D01*
X182915695Y-76154224D01*
X183110793Y-76095041D01*
X183290597Y-75998934D01*
X183448196Y-75869596D01*
X183480607Y-75830103D01*
X185217908Y-74092803D01*
X185257396Y-74060396D01*
X185289803Y-74020908D01*
X185386734Y-73902798D01*
X185472501Y-73742337D01*
X185482841Y-73722993D01*
X185542024Y-73527895D01*
X185557000Y-73375838D01*
X185557000Y-73375829D01*
X185562006Y-73325001D01*
X185557000Y-73274173D01*
X185557000Y-70503710D01*
X185610371Y-70450339D01*
X185610374Y-70450337D01*
X185754537Y-70306174D01*
X185867589Y-70136979D01*
X187277001Y-71546392D01*
X187277000Y-72093060D01*
X187277000Y-72296939D01*
X187286969Y-72347058D01*
X187291976Y-72397894D01*
X187306804Y-72446774D01*
X187316774Y-72496898D01*
X187336332Y-72544116D01*
X187351159Y-72592992D01*
X187375237Y-72638039D01*
X187394795Y-72685256D01*
X187423186Y-72727747D01*
X187447266Y-72772797D01*
X187479672Y-72812284D01*
X187508063Y-72854774D01*
X187544197Y-72890908D01*
X187576604Y-72930396D01*
X187616092Y-72962803D01*
X187652226Y-72998937D01*
X187694716Y-73027328D01*
X187734203Y-73059734D01*
X187779254Y-73083814D01*
X187821744Y-73112205D01*
X187868958Y-73131762D01*
X187914007Y-73155841D01*
X187962887Y-73170669D01*
X188010102Y-73190226D01*
X188060223Y-73200196D01*
X188109105Y-73215024D01*
X188159943Y-73220031D01*
X188210061Y-73230000D01*
X188261162Y-73230000D01*
X188312000Y-73235007D01*
X188362838Y-73230000D01*
X188413939Y-73230000D01*
X188464058Y-73220031D01*
X188514894Y-73215024D01*
X188563774Y-73200196D01*
X188613898Y-73190226D01*
X188661116Y-73170668D01*
X188709992Y-73155841D01*
X188755039Y-73131763D01*
X188802256Y-73112205D01*
X188844747Y-73083814D01*
X188889797Y-73059734D01*
X188929284Y-73027328D01*
X188971774Y-72998937D01*
X189007908Y-72962803D01*
X189047396Y-72930396D01*
X189079803Y-72890908D01*
X189115937Y-72854774D01*
X189144328Y-72812284D01*
X189176734Y-72772797D01*
X189200814Y-72727746D01*
X189229205Y-72685256D01*
X189248762Y-72638042D01*
X189272841Y-72592993D01*
X189287669Y-72544113D01*
X189307226Y-72496898D01*
X189317196Y-72446777D01*
X189332024Y-72397895D01*
X189337031Y-72347057D01*
X189347000Y-72296939D01*
X189347000Y-71168507D01*
X189352006Y-71117679D01*
X189347000Y-71066851D01*
X189347000Y-71066842D01*
X189332024Y-70914785D01*
X189272841Y-70719687D01*
X189211645Y-70605197D01*
X189176734Y-70539882D01*
X189079803Y-70421772D01*
X189047396Y-70382284D01*
X189007908Y-70349877D01*
X185310700Y-66652670D01*
X192250045Y-66652670D01*
X194462750Y-68865375D01*
X194459026Y-68867863D01*
X194314863Y-69012026D01*
X194314861Y-69012029D01*
X194076093Y-69250797D01*
X194036605Y-69283204D01*
X194004198Y-69322692D01*
X194004197Y-69322693D01*
X193907266Y-69440803D01*
X193811160Y-69620607D01*
X193751977Y-69815705D01*
X193731994Y-70018600D01*
X193737001Y-70069438D01*
X193737000Y-72896289D01*
X192559490Y-74073800D01*
X191886261Y-74073800D01*
X191836143Y-74083769D01*
X191785305Y-74088776D01*
X191736423Y-74103604D01*
X191686302Y-74113574D01*
X191639087Y-74133131D01*
X191590207Y-74147959D01*
X191545158Y-74172038D01*
X191497944Y-74191595D01*
X191455454Y-74219986D01*
X191410403Y-74244066D01*
X191370916Y-74276472D01*
X191328426Y-74304863D01*
X191292292Y-74340997D01*
X191252804Y-74373404D01*
X191220397Y-74412892D01*
X191184263Y-74449026D01*
X191155872Y-74491516D01*
X191123466Y-74531003D01*
X191099386Y-74576054D01*
X191070995Y-74618544D01*
X191051438Y-74665758D01*
X191027359Y-74710807D01*
X191012531Y-74759687D01*
X190992974Y-74806902D01*
X190983004Y-74857023D01*
X190968176Y-74905905D01*
X190963169Y-74956743D01*
X190953200Y-75006861D01*
X190953200Y-75057962D01*
X190948193Y-75108800D01*
X190953200Y-75159638D01*
X190953200Y-75210739D01*
X190963169Y-75260857D01*
X190968176Y-75311695D01*
X190983004Y-75360577D01*
X190992974Y-75410698D01*
X191012531Y-75457913D01*
X191027359Y-75506793D01*
X191051438Y-75551842D01*
X191070995Y-75599056D01*
X191099386Y-75641546D01*
X191123466Y-75686597D01*
X191155872Y-75726084D01*
X191184263Y-75768574D01*
X191220397Y-75804708D01*
X191252804Y-75844196D01*
X191292292Y-75876603D01*
X191328426Y-75912737D01*
X191370916Y-75941128D01*
X191410403Y-75973534D01*
X191455454Y-75997614D01*
X191497944Y-76026005D01*
X191545158Y-76045562D01*
X191590207Y-76069641D01*
X191639087Y-76084469D01*
X191686302Y-76104026D01*
X191736423Y-76113996D01*
X191785305Y-76128824D01*
X191836143Y-76133831D01*
X191886261Y-76143800D01*
X192937372Y-76143800D01*
X192988200Y-76148806D01*
X193039028Y-76143800D01*
X193039038Y-76143800D01*
X193191095Y-76128824D01*
X193386193Y-76069641D01*
X193565997Y-75973534D01*
X193723596Y-75844196D01*
X193756007Y-75804703D01*
X195467908Y-74092803D01*
X195507396Y-74060396D01*
X195539803Y-74020908D01*
X195636734Y-73902798D01*
X195722501Y-73742337D01*
X195732841Y-73722993D01*
X195792024Y-73527895D01*
X195807000Y-73375838D01*
X195807000Y-73375829D01*
X195812006Y-73325001D01*
X195807000Y-73274173D01*
X195807000Y-70447311D01*
X195922737Y-70331574D01*
X195925225Y-70327851D01*
X197569200Y-71971826D01*
X197569200Y-72210739D01*
X197579169Y-72260858D01*
X197584176Y-72311694D01*
X197599004Y-72360574D01*
X197608974Y-72410698D01*
X197628532Y-72457916D01*
X197643359Y-72506792D01*
X197667437Y-72551839D01*
X197686995Y-72599056D01*
X197715386Y-72641547D01*
X197739466Y-72686597D01*
X197771872Y-72726084D01*
X197800263Y-72768574D01*
X197836397Y-72804708D01*
X197868804Y-72844196D01*
X197908292Y-72876603D01*
X197944426Y-72912737D01*
X197986916Y-72941128D01*
X198026403Y-72973534D01*
X198071454Y-72997614D01*
X198113944Y-73026005D01*
X198161158Y-73045562D01*
X198206207Y-73069641D01*
X198255087Y-73084469D01*
X198302302Y-73104026D01*
X198352423Y-73113996D01*
X198401305Y-73128824D01*
X198452143Y-73133831D01*
X198502261Y-73143800D01*
X198553362Y-73143800D01*
X198604200Y-73148807D01*
X198655038Y-73143800D01*
X198706139Y-73143800D01*
X198756258Y-73133831D01*
X198807094Y-73128824D01*
X198855974Y-73113996D01*
X198906098Y-73104026D01*
X198953316Y-73084468D01*
X199002192Y-73069641D01*
X199047239Y-73045563D01*
X199094456Y-73026005D01*
X199136947Y-72997614D01*
X199181997Y-72973534D01*
X199221484Y-72941128D01*
X199263974Y-72912737D01*
X199300108Y-72876603D01*
X199339596Y-72844196D01*
X199372003Y-72804708D01*
X199408137Y-72768574D01*
X199436528Y-72726084D01*
X199468934Y-72686597D01*
X199493014Y-72641546D01*
X199521405Y-72599056D01*
X199540962Y-72551842D01*
X199565041Y-72506793D01*
X199579869Y-72457913D01*
X199599426Y-72410698D01*
X199609396Y-72360577D01*
X199624224Y-72311695D01*
X199629231Y-72260857D01*
X199639200Y-72210739D01*
X199639200Y-71593950D01*
X199644207Y-71543115D01*
X199633316Y-71432536D01*
X199624224Y-71340221D01*
X199565041Y-71145123D01*
X199534144Y-71087318D01*
X199468934Y-70965317D01*
X199372003Y-70847207D01*
X199339596Y-70807719D01*
X199300108Y-70775312D01*
X193446562Y-64921767D01*
X193414151Y-64882274D01*
X193256552Y-64752936D01*
X193076748Y-64656829D01*
X192881650Y-64597646D01*
X192729593Y-64582670D01*
X192729583Y-64582670D01*
X192678755Y-64577664D01*
X192627927Y-64582670D01*
X159457391Y-64582670D01*
X159407273Y-64592639D01*
X159356435Y-64597646D01*
X159307553Y-64612474D01*
X159257432Y-64622444D01*
X159210217Y-64642001D01*
X159161337Y-64656829D01*
X159116288Y-64680908D01*
X159069074Y-64700465D01*
X159026584Y-64728856D01*
X158981533Y-64752936D01*
X158942046Y-64785342D01*
X158899556Y-64813733D01*
X158863422Y-64849867D01*
X158823934Y-64882274D01*
X158791527Y-64921762D01*
X158755393Y-64957896D01*
X158727002Y-65000386D01*
X158694596Y-65039873D01*
X158670516Y-65084924D01*
X158642125Y-65127414D01*
X158622568Y-65174628D01*
X158598489Y-65219677D01*
X158583661Y-65268557D01*
X158564104Y-65315772D01*
X158554134Y-65365893D01*
X158539306Y-65414775D01*
X158534299Y-65465613D01*
X158524330Y-65515731D01*
X158524330Y-65566832D01*
X158519323Y-65617670D01*
X158524330Y-65668508D01*
X158524330Y-65719609D01*
X158534299Y-65769727D01*
X158539306Y-65820565D01*
X158554134Y-65869447D01*
X158564104Y-65919568D01*
X158583661Y-65966783D01*
X158598489Y-66015663D01*
X158622568Y-66060712D01*
X158642125Y-66107926D01*
X158670516Y-66150416D01*
X158694596Y-66195467D01*
X158727002Y-66234954D01*
X158755393Y-66277444D01*
X158791526Y-66313577D01*
X158823934Y-66353066D01*
X158863422Y-66385473D01*
X158899556Y-66421607D01*
X158942046Y-66449998D01*
X158981533Y-66482404D01*
X159026584Y-66506484D01*
X159069074Y-66534875D01*
X159116288Y-66554432D01*
X159161337Y-66578511D01*
X159175113Y-66582690D01*
X152740137Y-66582690D01*
X152689309Y-66577684D01*
X152638481Y-66582690D01*
X152638472Y-66582690D01*
X152486415Y-66597666D01*
X152291317Y-66656849D01*
X152111513Y-66752956D01*
X151953914Y-66882294D01*
X151921507Y-66921782D01*
X151206092Y-67637198D01*
X151166605Y-67669604D01*
X151134198Y-67709092D01*
X151134197Y-67709093D01*
X151037266Y-67827203D01*
X150941160Y-68007007D01*
X150881977Y-68202105D01*
X150861994Y-68405000D01*
X150867001Y-68455838D01*
X150867000Y-79569391D01*
X150778890Y-79538524D01*
X150549000Y-79659845D01*
X150549000Y-80978000D01*
X150569000Y-80978000D01*
X150569000Y-81232000D01*
X150549000Y-81232000D01*
X150549000Y-81252000D01*
X150295000Y-81252000D01*
X150295000Y-81232000D01*
X150275000Y-81232000D01*
X150275000Y-80978000D01*
X150295000Y-80978000D01*
X150295000Y-79659845D01*
X150065110Y-79538524D01*
X149802142Y-79630648D01*
X149550807Y-79777504D01*
X149332951Y-79970571D01*
X149176462Y-80176722D01*
X149162706Y-80150986D01*
X148977134Y-79924866D01*
X148957000Y-79908343D01*
X148957000Y-77001827D01*
X148962006Y-76950999D01*
X148957000Y-76900171D01*
X148957000Y-76900162D01*
X148942024Y-76748105D01*
X148882841Y-76553007D01*
X148838047Y-76469203D01*
X148786734Y-76373202D01*
X148689803Y-76255092D01*
X148657396Y-76215604D01*
X148617908Y-76183197D01*
X147963807Y-75529097D01*
X147931396Y-75489604D01*
X147773797Y-75360266D01*
X147593993Y-75264159D01*
X147398895Y-75204976D01*
X147246838Y-75190000D01*
X147246828Y-75190000D01*
X147196000Y-75184994D01*
X147145172Y-75190000D01*
X121084835Y-75190000D01*
X121034000Y-75184993D01*
X120983165Y-75190000D01*
X120983162Y-75190000D01*
X120831105Y-75204976D01*
X120699538Y-75244887D01*
X120636006Y-75264159D01*
X120456202Y-75360266D01*
X120394751Y-75410698D01*
X120298604Y-75489604D01*
X120266197Y-75529092D01*
X119516092Y-76279198D01*
X119476605Y-76311604D01*
X119444198Y-76351092D01*
X119444197Y-76351093D01*
X119347266Y-76469203D01*
X119251160Y-76649007D01*
X119191977Y-76844105D01*
X119171994Y-77047000D01*
X119177001Y-77097837D01*
X119177001Y-77262024D01*
X119165038Y-77273987D01*
X119018939Y-77492641D01*
X118932000Y-77702530D01*
X118845061Y-77492641D01*
X118698962Y-77273987D01*
X118513013Y-77088038D01*
X118294359Y-76941939D01*
X118051405Y-76841304D01*
X117793486Y-76790000D01*
X117530514Y-76790000D01*
X117272595Y-76841304D01*
X117029641Y-76941939D01*
X116810987Y-77088038D01*
X116625038Y-77273987D01*
X116478939Y-77492641D01*
X116392000Y-77702530D01*
X116305061Y-77492641D01*
X116158962Y-77273987D01*
X115973013Y-77088038D01*
X115754359Y-76941939D01*
X115511405Y-76841304D01*
X115253486Y-76790000D01*
X114990514Y-76790000D01*
X114732595Y-76841304D01*
X114489641Y-76941939D01*
X114270987Y-77088038D01*
X114085038Y-77273987D01*
X113938939Y-77492641D01*
X113850379Y-77706444D01*
X113790935Y-77543634D01*
X113737037Y-77442797D01*
X113503269Y-77383336D01*
X112761605Y-78125000D01*
X113503269Y-78866664D01*
X113737037Y-78807203D01*
X113847934Y-78568758D01*
X113852706Y-78549173D01*
X113938939Y-78757359D01*
X114085038Y-78976013D01*
X114270987Y-79161962D01*
X114489641Y-79308061D01*
X114699530Y-79395000D01*
X114489641Y-79481939D01*
X114270987Y-79628038D01*
X114085038Y-79813987D01*
X113938939Y-80032641D01*
X113852000Y-80242530D01*
X113765061Y-80032641D01*
X113618962Y-79813987D01*
X113433013Y-79628038D01*
X113214359Y-79481939D01*
X113000556Y-79393379D01*
X113163366Y-79333935D01*
X113264203Y-79280037D01*
X113323664Y-79046269D01*
X112582000Y-78304605D01*
X111840336Y-79046269D01*
X111899797Y-79280037D01*
X112138242Y-79390934D01*
X112157827Y-79395706D01*
X111949641Y-79481939D01*
X111730987Y-79628038D01*
X111545038Y-79813987D01*
X111398939Y-80032641D01*
X111298304Y-80275595D01*
X111247000Y-80533514D01*
X111247000Y-80796486D01*
X111298304Y-81054405D01*
X111398939Y-81297359D01*
X111545038Y-81516013D01*
X111730987Y-81701962D01*
X111949641Y-81848061D01*
X112192595Y-81948696D01*
X112450514Y-82000000D01*
X112713486Y-82000000D01*
X112971405Y-81948696D01*
X113214359Y-81848061D01*
X113433013Y-81701962D01*
X113618962Y-81516013D01*
X113765061Y-81297359D01*
X113852000Y-81087470D01*
X113938939Y-81297359D01*
X114085038Y-81516013D01*
X114270987Y-81701962D01*
X114489641Y-81848061D01*
X114732595Y-81948696D01*
X114990514Y-82000000D01*
X115253486Y-82000000D01*
X115511405Y-81948696D01*
X115754359Y-81848061D01*
X115973013Y-81701962D01*
X116158962Y-81516013D01*
X116305061Y-81297359D01*
X116392000Y-81087470D01*
X116478939Y-81297359D01*
X116625038Y-81516013D01*
X116697001Y-81587976D01*
X116697001Y-82003463D01*
X116691994Y-82054300D01*
X116711977Y-82257195D01*
X116771160Y-82452293D01*
X116867266Y-82632097D01*
X116964197Y-82750207D01*
X116996605Y-82789696D01*
X117036093Y-82822103D01*
X126723175Y-92509186D01*
X126813704Y-92619496D01*
X126853197Y-92651907D01*
X127773863Y-93572574D01*
X127918026Y-93716737D01*
X127960516Y-93745128D01*
X128000002Y-93777533D01*
X128045051Y-93801612D01*
X128049023Y-93804266D01*
X119516097Y-102337193D01*
X119476604Y-102369604D01*
X119413915Y-102445991D01*
X119350987Y-102488038D01*
X119165038Y-102673987D01*
X119018939Y-102892641D01*
X118932000Y-103102530D01*
X118845061Y-102892641D01*
X118698962Y-102673987D01*
X118513013Y-102488038D01*
X118294359Y-102341939D01*
X118051405Y-102241304D01*
X117793486Y-102190000D01*
X117530514Y-102190000D01*
X117272595Y-102241304D01*
X117029641Y-102341939D01*
X116810987Y-102488038D01*
X116625038Y-102673987D01*
X116478939Y-102892641D01*
X116392000Y-103102530D01*
X116305061Y-102892641D01*
X116158962Y-102673987D01*
X115973013Y-102488038D01*
X115754359Y-102341939D01*
X115511405Y-102241304D01*
X115253486Y-102190000D01*
X114990514Y-102190000D01*
X114732595Y-102241304D01*
X114489641Y-102341939D01*
X114270987Y-102488038D01*
X114085038Y-102673987D01*
X113938939Y-102892641D01*
X113852000Y-103102530D01*
X113765061Y-102892641D01*
X113618962Y-102673987D01*
X113433013Y-102488038D01*
X113214359Y-102341939D01*
X112971405Y-102241304D01*
X112713486Y-102190000D01*
X112450514Y-102190000D01*
X112192595Y-102241304D01*
X111949641Y-102341939D01*
X111730987Y-102488038D01*
X111545038Y-102673987D01*
X111398939Y-102892641D01*
X111298304Y-103135595D01*
X111247000Y-103393514D01*
X111247000Y-103656486D01*
X111298304Y-103914405D01*
X111398939Y-104157359D01*
X111545038Y-104376013D01*
X111730987Y-104561962D01*
X111949641Y-104708061D01*
X112163444Y-104796621D01*
X112000634Y-104856065D01*
X111899797Y-104909963D01*
X111840336Y-105143731D01*
X112582000Y-105885395D01*
X113323664Y-105143731D01*
X113264203Y-104909963D01*
X113025758Y-104799066D01*
X113006173Y-104794294D01*
X113214359Y-104708061D01*
X113433013Y-104561962D01*
X113618962Y-104376013D01*
X113765061Y-104157359D01*
X113852000Y-103947470D01*
X113938939Y-104157359D01*
X114085038Y-104376013D01*
X114270987Y-104561962D01*
X114489641Y-104708061D01*
X114699530Y-104795000D01*
X114489641Y-104881939D01*
X114270987Y-105028038D01*
X114085038Y-105213987D01*
X113938939Y-105432641D01*
X113850379Y-105646444D01*
X113790935Y-105483634D01*
X113737037Y-105382797D01*
X113503269Y-105323336D01*
X112761605Y-106065000D01*
X113503269Y-106806664D01*
X113737037Y-106747203D01*
X113847934Y-106508758D01*
X113852706Y-106489173D01*
X113938939Y-106697359D01*
X114085038Y-106916013D01*
X114270987Y-107101962D01*
X114489641Y-107248061D01*
X114732595Y-107348696D01*
X114990514Y-107400000D01*
X115253486Y-107400000D01*
X115511405Y-107348696D01*
X115754359Y-107248061D01*
X115973013Y-107101962D01*
X116158962Y-106916013D01*
X116305061Y-106697359D01*
X116392000Y-106487470D01*
X116478939Y-106697359D01*
X116625038Y-106916013D01*
X116810987Y-107101962D01*
X117029641Y-107248061D01*
X117272595Y-107348696D01*
X117530514Y-107400000D01*
X117793486Y-107400000D01*
X118051405Y-107348696D01*
X118167001Y-107300815D01*
X118167001Y-108137172D01*
X118162960Y-108178200D01*
X118179082Y-108341888D01*
X118226828Y-108499286D01*
X118304364Y-108644345D01*
X118318294Y-108661319D01*
X118408710Y-108771491D01*
X118440574Y-108797641D01*
X118616160Y-108973227D01*
X111004810Y-108969374D01*
X110995860Y-106986269D01*
X111840336Y-106986269D01*
X111899797Y-107220037D01*
X112138242Y-107330934D01*
X112393740Y-107393183D01*
X112656473Y-107404390D01*
X112916344Y-107364125D01*
X113163366Y-107273935D01*
X113264203Y-107220037D01*
X113323664Y-106986269D01*
X112582000Y-106244605D01*
X111840336Y-106986269D01*
X110995860Y-106986269D01*
X110992037Y-106139473D01*
X111242610Y-106139473D01*
X111282875Y-106399344D01*
X111373065Y-106646366D01*
X111426963Y-106747203D01*
X111660731Y-106806664D01*
X112402395Y-106065000D01*
X111660731Y-105323336D01*
X111426963Y-105382797D01*
X111316066Y-105621242D01*
X111253817Y-105876740D01*
X111242610Y-106139473D01*
X110992037Y-106139473D01*
X110865919Y-78199473D01*
X111242610Y-78199473D01*
X111282875Y-78459344D01*
X111373065Y-78706366D01*
X111426963Y-78807203D01*
X111660731Y-78866664D01*
X112402395Y-78125000D01*
X111660731Y-77383336D01*
X111426963Y-77442797D01*
X111316066Y-77681242D01*
X111253817Y-77936740D01*
X111242610Y-78199473D01*
X110865919Y-78199473D01*
X110861499Y-77220484D01*
X110859805Y-77203731D01*
X111840336Y-77203731D01*
X112582000Y-77945395D01*
X113323664Y-77203731D01*
X113264203Y-76969963D01*
X113025758Y-76859066D01*
X112770260Y-76796817D01*
X112507527Y-76785610D01*
X112247656Y-76825875D01*
X112000634Y-76916065D01*
X111899797Y-76969963D01*
X111840336Y-77203731D01*
X110859805Y-77203731D01*
X110859042Y-77196194D01*
X110851799Y-77172375D01*
X110840047Y-77150426D01*
X110824240Y-77131192D01*
X110804984Y-77115411D01*
X110783019Y-77103690D01*
X110759190Y-77096480D01*
X110734412Y-77094057D01*
X102292022Y-77099936D01*
X102295856Y-73321000D01*
X113321328Y-73321000D01*
X113333588Y-73445482D01*
X113369898Y-73565180D01*
X113428863Y-73675494D01*
X113508215Y-73772185D01*
X113604906Y-73851537D01*
X113715220Y-73910502D01*
X113834918Y-73946812D01*
X113959400Y-73959072D01*
X114423650Y-73956000D01*
X114582400Y-73797250D01*
X114582400Y-72923000D01*
X114836400Y-72923000D01*
X114836400Y-73797250D01*
X114995150Y-73956000D01*
X115459400Y-73959072D01*
X115583882Y-73946812D01*
X115703580Y-73910502D01*
X115813894Y-73851537D01*
X115910585Y-73772185D01*
X115989937Y-73675494D01*
X116048902Y-73565180D01*
X116085212Y-73445482D01*
X116097472Y-73321000D01*
X116094400Y-73081750D01*
X115935650Y-72923000D01*
X114836400Y-72923000D01*
X114582400Y-72923000D01*
X113483150Y-72923000D01*
X113324400Y-73081750D01*
X113321328Y-73321000D01*
X102295856Y-73321000D01*
X102298966Y-70256000D01*
X113318788Y-70256000D01*
X113341185Y-70483400D01*
X113407515Y-70702060D01*
X113508505Y-70891000D01*
X113407515Y-71079940D01*
X113341185Y-71298600D01*
X113318788Y-71526000D01*
X113341185Y-71753400D01*
X113404493Y-71962098D01*
X113369898Y-72026820D01*
X113333588Y-72146518D01*
X113321328Y-72271000D01*
X113324400Y-72510250D01*
X113483150Y-72669000D01*
X114256291Y-72669000D01*
X114257000Y-72669215D01*
X114427421Y-72686000D01*
X114991379Y-72686000D01*
X115161800Y-72669215D01*
X115162509Y-72669000D01*
X115935650Y-72669000D01*
X116094400Y-72510250D01*
X116095122Y-72454000D01*
X120612728Y-72454000D01*
X120612728Y-74154000D01*
X120624988Y-74278482D01*
X120661298Y-74398180D01*
X120720263Y-74508494D01*
X120799615Y-74605185D01*
X120896306Y-74684537D01*
X121006620Y-74743502D01*
X121126318Y-74779812D01*
X121250800Y-74792072D01*
X122950800Y-74792072D01*
X123075282Y-74779812D01*
X123194980Y-74743502D01*
X123305294Y-74684537D01*
X123401985Y-74605185D01*
X123481337Y-74508494D01*
X123540302Y-74398180D01*
X123576612Y-74278482D01*
X123588872Y-74154000D01*
X123588872Y-72454000D01*
X123576612Y-72329518D01*
X123540302Y-72209820D01*
X123481337Y-72099506D01*
X123470511Y-72086314D01*
X138242500Y-72086314D01*
X138242500Y-72337285D01*
X138265470Y-72570503D01*
X138356245Y-72869748D01*
X138503655Y-73145534D01*
X138702037Y-73387263D01*
X138943765Y-73585645D01*
X139219551Y-73733055D01*
X139518796Y-73823830D01*
X139830000Y-73854481D01*
X140141203Y-73823830D01*
X140440448Y-73733055D01*
X140716234Y-73585645D01*
X140957963Y-73387263D01*
X141105163Y-73207901D01*
X141260563Y-73393115D01*
X141503077Y-73587769D01*
X141778906Y-73731371D01*
X141997020Y-73802363D01*
X142243000Y-73682394D01*
X142243000Y-72338800D01*
X142223000Y-72338800D01*
X142223000Y-72084800D01*
X142243000Y-72084800D01*
X142243000Y-70741206D01*
X142497000Y-70741206D01*
X142497000Y-72084800D01*
X142517000Y-72084800D01*
X142517000Y-72338800D01*
X142497000Y-72338800D01*
X142497000Y-73682394D01*
X142742980Y-73802363D01*
X142961094Y-73731371D01*
X143236923Y-73587769D01*
X143377941Y-73474581D01*
X143426963Y-73566294D01*
X143506315Y-73662985D01*
X143603006Y-73742337D01*
X143713320Y-73801302D01*
X143833018Y-73837612D01*
X143957500Y-73849872D01*
X145862500Y-73849872D01*
X145986982Y-73837612D01*
X146106680Y-73801302D01*
X146216994Y-73742337D01*
X146313685Y-73662985D01*
X146393037Y-73566294D01*
X146452002Y-73455980D01*
X146488312Y-73336282D01*
X146500572Y-73211800D01*
X146500572Y-71211800D01*
X146488312Y-71087318D01*
X146452002Y-70967620D01*
X146393037Y-70857306D01*
X146313685Y-70760615D01*
X146216994Y-70681263D01*
X146106680Y-70622298D01*
X145986982Y-70585988D01*
X145862500Y-70573728D01*
X143957500Y-70573728D01*
X143833018Y-70585988D01*
X143713320Y-70622298D01*
X143603006Y-70681263D01*
X143506315Y-70760615D01*
X143426963Y-70857306D01*
X143377941Y-70949019D01*
X143236923Y-70835831D01*
X142961094Y-70692229D01*
X142742980Y-70621237D01*
X142497000Y-70741206D01*
X142243000Y-70741206D01*
X141997020Y-70621237D01*
X141778906Y-70692229D01*
X141503077Y-70835831D01*
X141260563Y-71030485D01*
X141105162Y-71215700D01*
X140957963Y-71036337D01*
X140716235Y-70837955D01*
X140440449Y-70690545D01*
X140141204Y-70599770D01*
X139830000Y-70569119D01*
X139518797Y-70599770D01*
X139219552Y-70690545D01*
X138943766Y-70837955D01*
X138702037Y-71036337D01*
X138503655Y-71278065D01*
X138356245Y-71553851D01*
X138265470Y-71853096D01*
X138242500Y-72086314D01*
X123470511Y-72086314D01*
X123401985Y-72002815D01*
X123305294Y-71923463D01*
X123194980Y-71864498D01*
X123075282Y-71828188D01*
X122950800Y-71815928D01*
X121250800Y-71815928D01*
X121126318Y-71828188D01*
X121006620Y-71864498D01*
X120896306Y-71923463D01*
X120799615Y-72002815D01*
X120720263Y-72099506D01*
X120661298Y-72209820D01*
X120624988Y-72329518D01*
X120612728Y-72454000D01*
X116095122Y-72454000D01*
X116097472Y-72271000D01*
X116085212Y-72146518D01*
X116048902Y-72026820D01*
X116014307Y-71962098D01*
X116077615Y-71753400D01*
X116100012Y-71526000D01*
X116077615Y-71298600D01*
X116011285Y-71079940D01*
X115910295Y-70891000D01*
X116011285Y-70702060D01*
X116077615Y-70483400D01*
X116100012Y-70256000D01*
X116077615Y-70028600D01*
X116011285Y-69809940D01*
X115903571Y-69608421D01*
X115758612Y-69431788D01*
X115581979Y-69286829D01*
X115380460Y-69179115D01*
X115161800Y-69112785D01*
X114991379Y-69096000D01*
X114427421Y-69096000D01*
X114257000Y-69112785D01*
X114038340Y-69179115D01*
X113836821Y-69286829D01*
X113660188Y-69431788D01*
X113515229Y-69608421D01*
X113407515Y-69809940D01*
X113341185Y-70028600D01*
X113318788Y-70256000D01*
X102298966Y-70256000D01*
X102306304Y-63024419D01*
X107867000Y-63024419D01*
X107867000Y-63405581D01*
X107941361Y-63779419D01*
X108087225Y-64131566D01*
X108298987Y-64448491D01*
X108568509Y-64718013D01*
X108885434Y-64929775D01*
X109237581Y-65075639D01*
X109611419Y-65150000D01*
X109992581Y-65150000D01*
X110366419Y-65075639D01*
X110718566Y-64929775D01*
X111035491Y-64718013D01*
X111305013Y-64448491D01*
X111516775Y-64131566D01*
X111662639Y-63779419D01*
X111737000Y-63405581D01*
X111737000Y-63024419D01*
X111662639Y-62650581D01*
X111516775Y-62298434D01*
X111305013Y-61981509D01*
X111035491Y-61711987D01*
X110718566Y-61500225D01*
X110366419Y-61354361D01*
X109992581Y-61280000D01*
X109611419Y-61280000D01*
X109237581Y-61354361D01*
X108885434Y-61500225D01*
X108568509Y-61711987D01*
X108298987Y-61981509D01*
X108087225Y-62298434D01*
X107941361Y-62650581D01*
X107867000Y-63024419D01*
X102306304Y-63024419D01*
X102309865Y-59515000D01*
X107863928Y-59515000D01*
X107876188Y-59639482D01*
X107912498Y-59759180D01*
X107971463Y-59869494D01*
X108050815Y-59966185D01*
X108147506Y-60045537D01*
X108257820Y-60104502D01*
X108377518Y-60140812D01*
X108502000Y-60153072D01*
X109516250Y-60150000D01*
X109675000Y-59991250D01*
X109675000Y-58342000D01*
X109929000Y-58342000D01*
X109929000Y-59991250D01*
X110087750Y-60150000D01*
X111102000Y-60153072D01*
X111226482Y-60140812D01*
X111346180Y-60104502D01*
X111456494Y-60045537D01*
X111553185Y-59966185D01*
X111556684Y-59961921D01*
X114866400Y-59961921D01*
X114866400Y-60382479D01*
X114948447Y-60794956D01*
X115109388Y-61183502D01*
X115343037Y-61533183D01*
X115640417Y-61830563D01*
X115990098Y-62064212D01*
X116378644Y-62225153D01*
X116791121Y-62307200D01*
X117211679Y-62307200D01*
X117624156Y-62225153D01*
X118012702Y-62064212D01*
X118362383Y-61830563D01*
X118659763Y-61533183D01*
X118893412Y-61183502D01*
X119054353Y-60794956D01*
X119136400Y-60382479D01*
X119136400Y-59961921D01*
X137466400Y-59961921D01*
X137466400Y-60382479D01*
X137548447Y-60794956D01*
X137709388Y-61183502D01*
X137943037Y-61533183D01*
X138240417Y-61830563D01*
X138590098Y-62064212D01*
X138978644Y-62225153D01*
X139391121Y-62307200D01*
X139811679Y-62307200D01*
X140224156Y-62225153D01*
X140612702Y-62064212D01*
X140962383Y-61830563D01*
X141055601Y-61737345D01*
X141055601Y-63029662D01*
X141050594Y-63080500D01*
X141070577Y-63283395D01*
X141129760Y-63478493D01*
X141225866Y-63658297D01*
X141280949Y-63725415D01*
X141299363Y-63752974D01*
X141322803Y-63776414D01*
X141355205Y-63815896D01*
X141394687Y-63848298D01*
X141443526Y-63897137D01*
X141486017Y-63925529D01*
X141525503Y-63957934D01*
X141570554Y-63982014D01*
X141613044Y-64010405D01*
X141660258Y-64029962D01*
X141705307Y-64054041D01*
X141754184Y-64068867D01*
X141801402Y-64088426D01*
X141851532Y-64098397D01*
X141900406Y-64113223D01*
X141951235Y-64118229D01*
X142001361Y-64128200D01*
X142052465Y-64128200D01*
X142103300Y-64133207D01*
X142154135Y-64128200D01*
X142205239Y-64128200D01*
X142255364Y-64118230D01*
X142306195Y-64113223D01*
X142355070Y-64098397D01*
X142405198Y-64088426D01*
X142452415Y-64068868D01*
X142501293Y-64054041D01*
X142546342Y-64029962D01*
X142593556Y-64010405D01*
X142636046Y-63982014D01*
X142681097Y-63957934D01*
X142720584Y-63925528D01*
X142763074Y-63897137D01*
X142799208Y-63861003D01*
X142819069Y-63844703D01*
X142850355Y-63903235D01*
X143048737Y-64144963D01*
X143290465Y-64343345D01*
X143566251Y-64490755D01*
X143865496Y-64581530D01*
X144098714Y-64604500D01*
X144349686Y-64604500D01*
X144582904Y-64581530D01*
X144882149Y-64490755D01*
X145157935Y-64343345D01*
X145399663Y-64144963D01*
X145598045Y-63903235D01*
X145745455Y-63627449D01*
X145836230Y-63328204D01*
X145866881Y-63017000D01*
X145836230Y-62705796D01*
X145745455Y-62406551D01*
X145598045Y-62130765D01*
X145399663Y-61889037D01*
X145226591Y-61747000D01*
X145399663Y-61604963D01*
X145598045Y-61363235D01*
X145745455Y-61087449D01*
X145836230Y-60788204D01*
X145866881Y-60477000D01*
X145836230Y-60165796D01*
X145749336Y-59879344D01*
X162107000Y-59879344D01*
X162107000Y-60250656D01*
X162179439Y-60614834D01*
X162321534Y-60957882D01*
X162527825Y-61266618D01*
X162790382Y-61529175D01*
X163099118Y-61735466D01*
X163442166Y-61877561D01*
X163806344Y-61950000D01*
X164177656Y-61950000D01*
X164541834Y-61877561D01*
X164884882Y-61735466D01*
X165193618Y-61529175D01*
X165456175Y-61266618D01*
X165662466Y-60957882D01*
X165804561Y-60614834D01*
X165877000Y-60250656D01*
X165877000Y-59879344D01*
X165804561Y-59515166D01*
X165662466Y-59172118D01*
X165456175Y-58863382D01*
X165407793Y-58815000D01*
X167183928Y-58815000D01*
X167183928Y-61315000D01*
X167196188Y-61439482D01*
X167232498Y-61559180D01*
X167291463Y-61669494D01*
X167370815Y-61766185D01*
X167467506Y-61845537D01*
X167577820Y-61904502D01*
X167697518Y-61940812D01*
X167822000Y-61953072D01*
X170322000Y-61953072D01*
X170446482Y-61940812D01*
X170566180Y-61904502D01*
X170676494Y-61845537D01*
X170773185Y-61766185D01*
X170852537Y-61669494D01*
X170911502Y-61559180D01*
X170947812Y-61439482D01*
X170960072Y-61315000D01*
X170960072Y-59879344D01*
X172277000Y-59879344D01*
X172277000Y-60250656D01*
X172349439Y-60614834D01*
X172491534Y-60957882D01*
X172697825Y-61266618D01*
X172960382Y-61529175D01*
X173269118Y-61735466D01*
X173612166Y-61877561D01*
X173976344Y-61950000D01*
X174347656Y-61950000D01*
X174711834Y-61877561D01*
X175054882Y-61735466D01*
X175363618Y-61529175D01*
X175626175Y-61266618D01*
X175832466Y-60957882D01*
X175974561Y-60614834D01*
X176047000Y-60250656D01*
X176047000Y-59879344D01*
X175974561Y-59515166D01*
X175832466Y-59172118D01*
X175626175Y-58863382D01*
X175577793Y-58815000D01*
X177353928Y-58815000D01*
X177353928Y-61315000D01*
X177366188Y-61439482D01*
X177402498Y-61559180D01*
X177461463Y-61669494D01*
X177540815Y-61766185D01*
X177637506Y-61845537D01*
X177747820Y-61904502D01*
X177867518Y-61940812D01*
X177992000Y-61953072D01*
X180492000Y-61953072D01*
X180616482Y-61940812D01*
X180736180Y-61904502D01*
X180846494Y-61845537D01*
X180943185Y-61766185D01*
X181022537Y-61669494D01*
X181081502Y-61559180D01*
X181117812Y-61439482D01*
X181130072Y-61315000D01*
X181130072Y-59879344D01*
X182437000Y-59879344D01*
X182437000Y-60250656D01*
X182509439Y-60614834D01*
X182651534Y-60957882D01*
X182857825Y-61266618D01*
X183120382Y-61529175D01*
X183429118Y-61735466D01*
X183772166Y-61877561D01*
X184136344Y-61950000D01*
X184507656Y-61950000D01*
X184871834Y-61877561D01*
X185214882Y-61735466D01*
X185523618Y-61529175D01*
X185786175Y-61266618D01*
X185992466Y-60957882D01*
X186134561Y-60614834D01*
X186207000Y-60250656D01*
X186207000Y-59879344D01*
X186134561Y-59515166D01*
X185992466Y-59172118D01*
X185786175Y-58863382D01*
X185737793Y-58815000D01*
X187513928Y-58815000D01*
X187513928Y-61315000D01*
X187526188Y-61439482D01*
X187562498Y-61559180D01*
X187621463Y-61669494D01*
X187700815Y-61766185D01*
X187797506Y-61845537D01*
X187907820Y-61904502D01*
X188027518Y-61940812D01*
X188152000Y-61953072D01*
X190652000Y-61953072D01*
X190776482Y-61940812D01*
X190896180Y-61904502D01*
X191006494Y-61845537D01*
X191103185Y-61766185D01*
X191182537Y-61669494D01*
X191241502Y-61559180D01*
X191277812Y-61439482D01*
X191290072Y-61315000D01*
X191290072Y-59879344D01*
X192607000Y-59879344D01*
X192607000Y-60250656D01*
X192679439Y-60614834D01*
X192821534Y-60957882D01*
X193027825Y-61266618D01*
X193290382Y-61529175D01*
X193599118Y-61735466D01*
X193942166Y-61877561D01*
X194306344Y-61950000D01*
X194677656Y-61950000D01*
X195041834Y-61877561D01*
X195384882Y-61735466D01*
X195693618Y-61529175D01*
X195956175Y-61266618D01*
X196162466Y-60957882D01*
X196304561Y-60614834D01*
X196377000Y-60250656D01*
X196377000Y-59879344D01*
X196304561Y-59515166D01*
X196162466Y-59172118D01*
X195956175Y-58863382D01*
X195907793Y-58815000D01*
X197683928Y-58815000D01*
X197683928Y-61315000D01*
X197696188Y-61439482D01*
X197732498Y-61559180D01*
X197791463Y-61669494D01*
X197870815Y-61766185D01*
X197967506Y-61845537D01*
X198077820Y-61904502D01*
X198197518Y-61940812D01*
X198322000Y-61953072D01*
X200822000Y-61953072D01*
X200946482Y-61940812D01*
X201066180Y-61904502D01*
X201176494Y-61845537D01*
X201273185Y-61766185D01*
X201352537Y-61669494D01*
X201411502Y-61559180D01*
X201447812Y-61439482D01*
X201460072Y-61315000D01*
X201460072Y-58815000D01*
X201447812Y-58690518D01*
X201411502Y-58570820D01*
X201352537Y-58460506D01*
X201273185Y-58363815D01*
X201176494Y-58284463D01*
X201066180Y-58225498D01*
X200946482Y-58189188D01*
X200822000Y-58176928D01*
X198322000Y-58176928D01*
X198197518Y-58189188D01*
X198077820Y-58225498D01*
X197967506Y-58284463D01*
X197870815Y-58363815D01*
X197791463Y-58460506D01*
X197732498Y-58570820D01*
X197696188Y-58690518D01*
X197683928Y-58815000D01*
X195907793Y-58815000D01*
X195693618Y-58600825D01*
X195384882Y-58394534D01*
X195041834Y-58252439D01*
X194677656Y-58180000D01*
X194306344Y-58180000D01*
X193942166Y-58252439D01*
X193599118Y-58394534D01*
X193290382Y-58600825D01*
X193027825Y-58863382D01*
X192821534Y-59172118D01*
X192679439Y-59515166D01*
X192607000Y-59879344D01*
X191290072Y-59879344D01*
X191290072Y-58815000D01*
X191277812Y-58690518D01*
X191241502Y-58570820D01*
X191182537Y-58460506D01*
X191103185Y-58363815D01*
X191006494Y-58284463D01*
X190896180Y-58225498D01*
X190776482Y-58189188D01*
X190652000Y-58176928D01*
X188152000Y-58176928D01*
X188027518Y-58189188D01*
X187907820Y-58225498D01*
X187797506Y-58284463D01*
X187700815Y-58363815D01*
X187621463Y-58460506D01*
X187562498Y-58570820D01*
X187526188Y-58690518D01*
X187513928Y-58815000D01*
X185737793Y-58815000D01*
X185523618Y-58600825D01*
X185214882Y-58394534D01*
X184871834Y-58252439D01*
X184507656Y-58180000D01*
X184136344Y-58180000D01*
X183772166Y-58252439D01*
X183429118Y-58394534D01*
X183120382Y-58600825D01*
X182857825Y-58863382D01*
X182651534Y-59172118D01*
X182509439Y-59515166D01*
X182437000Y-59879344D01*
X181130072Y-59879344D01*
X181130072Y-58815000D01*
X181117812Y-58690518D01*
X181081502Y-58570820D01*
X181022537Y-58460506D01*
X180943185Y-58363815D01*
X180846494Y-58284463D01*
X180736180Y-58225498D01*
X180616482Y-58189188D01*
X180492000Y-58176928D01*
X177992000Y-58176928D01*
X177867518Y-58189188D01*
X177747820Y-58225498D01*
X177637506Y-58284463D01*
X177540815Y-58363815D01*
X177461463Y-58460506D01*
X177402498Y-58570820D01*
X177366188Y-58690518D01*
X177353928Y-58815000D01*
X175577793Y-58815000D01*
X175363618Y-58600825D01*
X175054882Y-58394534D01*
X174711834Y-58252439D01*
X174347656Y-58180000D01*
X173976344Y-58180000D01*
X173612166Y-58252439D01*
X173269118Y-58394534D01*
X172960382Y-58600825D01*
X172697825Y-58863382D01*
X172491534Y-59172118D01*
X172349439Y-59515166D01*
X172277000Y-59879344D01*
X170960072Y-59879344D01*
X170960072Y-58815000D01*
X170947812Y-58690518D01*
X170911502Y-58570820D01*
X170852537Y-58460506D01*
X170773185Y-58363815D01*
X170676494Y-58284463D01*
X170566180Y-58225498D01*
X170446482Y-58189188D01*
X170322000Y-58176928D01*
X167822000Y-58176928D01*
X167697518Y-58189188D01*
X167577820Y-58225498D01*
X167467506Y-58284463D01*
X167370815Y-58363815D01*
X167291463Y-58460506D01*
X167232498Y-58570820D01*
X167196188Y-58690518D01*
X167183928Y-58815000D01*
X165407793Y-58815000D01*
X165193618Y-58600825D01*
X164884882Y-58394534D01*
X164541834Y-58252439D01*
X164177656Y-58180000D01*
X163806344Y-58180000D01*
X163442166Y-58252439D01*
X163099118Y-58394534D01*
X162790382Y-58600825D01*
X162527825Y-58863382D01*
X162321534Y-59172118D01*
X162179439Y-59515166D01*
X162107000Y-59879344D01*
X145749336Y-59879344D01*
X145745455Y-59866551D01*
X145598045Y-59590765D01*
X145494754Y-59464905D01*
X145578694Y-59420037D01*
X145675385Y-59340685D01*
X145754737Y-59243994D01*
X145813702Y-59133680D01*
X145850012Y-59013982D01*
X145862272Y-58889500D01*
X145862272Y-56984500D01*
X145850012Y-56860018D01*
X145813702Y-56740320D01*
X145754737Y-56630006D01*
X145675385Y-56533315D01*
X145578694Y-56453963D01*
X145468380Y-56394998D01*
X145348682Y-56358688D01*
X145224200Y-56346428D01*
X143224200Y-56346428D01*
X143099718Y-56358688D01*
X142980020Y-56394998D01*
X142869706Y-56453963D01*
X142773015Y-56533315D01*
X142693663Y-56630006D01*
X142634698Y-56740320D01*
X142598388Y-56860018D01*
X142592967Y-56915059D01*
X142573505Y-56916976D01*
X142378407Y-56976159D01*
X142294709Y-57020896D01*
X142198602Y-57072266D01*
X142136713Y-57123058D01*
X142041004Y-57201604D01*
X142008593Y-57241097D01*
X141394697Y-57854993D01*
X141355204Y-57887404D01*
X141225866Y-58045003D01*
X141129759Y-58224808D01*
X141070576Y-58419906D01*
X141055600Y-58571963D01*
X141055600Y-58571972D01*
X141052455Y-58603909D01*
X140962383Y-58513837D01*
X140612702Y-58280188D01*
X140224156Y-58119247D01*
X139811679Y-58037200D01*
X139391121Y-58037200D01*
X138978644Y-58119247D01*
X138590098Y-58280188D01*
X138240417Y-58513837D01*
X137943037Y-58811217D01*
X137709388Y-59160898D01*
X137548447Y-59549444D01*
X137466400Y-59961921D01*
X119136400Y-59961921D01*
X119054353Y-59549444D01*
X118893412Y-59160898D01*
X118659763Y-58811217D01*
X118362383Y-58513837D01*
X118012702Y-58280188D01*
X117624156Y-58119247D01*
X117211679Y-58037200D01*
X116791121Y-58037200D01*
X116378644Y-58119247D01*
X115990098Y-58280188D01*
X115640417Y-58513837D01*
X115343037Y-58811217D01*
X115109388Y-59160898D01*
X114948447Y-59549444D01*
X114866400Y-59961921D01*
X111556684Y-59961921D01*
X111632537Y-59869494D01*
X111691502Y-59759180D01*
X111727812Y-59639482D01*
X111740072Y-59515000D01*
X111737000Y-58500750D01*
X111578250Y-58342000D01*
X109929000Y-58342000D01*
X109675000Y-58342000D01*
X108025750Y-58342000D01*
X107867000Y-58500750D01*
X107863928Y-59515000D01*
X102309865Y-59515000D01*
X102312503Y-56915000D01*
X107863928Y-56915000D01*
X107867000Y-57929250D01*
X108025750Y-58088000D01*
X109675000Y-58088000D01*
X109675000Y-56438750D01*
X109929000Y-56438750D01*
X109929000Y-58088000D01*
X111578250Y-58088000D01*
X111737000Y-57929250D01*
X111740072Y-56915000D01*
X111727812Y-56790518D01*
X111691502Y-56670820D01*
X111632537Y-56560506D01*
X111553185Y-56463815D01*
X111456494Y-56384463D01*
X111346180Y-56325498D01*
X111226482Y-56289188D01*
X111102000Y-56276928D01*
X110087750Y-56280000D01*
X109929000Y-56438750D01*
X109675000Y-56438750D01*
X109516250Y-56280000D01*
X108502000Y-56276928D01*
X108377518Y-56289188D01*
X108257820Y-56325498D01*
X108147506Y-56384463D01*
X108050815Y-56463815D01*
X107971463Y-56560506D01*
X107912498Y-56670820D01*
X107876188Y-56790518D01*
X107863928Y-56915000D01*
X102312503Y-56915000D01*
X102313365Y-56065859D01*
X102371300Y-55474991D01*
X102533066Y-54939198D01*
X102795819Y-54445031D01*
X103149553Y-54011310D01*
X103580793Y-53654557D01*
X104073119Y-53388358D01*
X104607765Y-53222857D01*
X105196256Y-53161005D01*
X205429913Y-53211782D01*
G04 #@! TA.AperFunction,Conductor*
D28*
G36*
X205429913Y-53211782D02*
G01*
X206020609Y-53269700D01*
X206556402Y-53431466D01*
X207050569Y-53694219D01*
X207484290Y-54047953D01*
X207841043Y-54479193D01*
X208107242Y-54971519D01*
X208272743Y-55506165D01*
X208334600Y-56094705D01*
X208334601Y-106112686D01*
X208276700Y-106703209D01*
X208114935Y-107239000D01*
X207852180Y-107733172D01*
X207498447Y-108166890D01*
X207067206Y-108523644D01*
X206574881Y-108789842D01*
X206040238Y-108955342D01*
X205451744Y-109017195D01*
X146290627Y-108987240D01*
X148583428Y-106694440D01*
X148615291Y-106668291D01*
X148719636Y-106541146D01*
X148797172Y-106396087D01*
X148844918Y-106238689D01*
X148857000Y-106116019D01*
X148857000Y-106116009D01*
X148861039Y-106075001D01*
X148857000Y-106033993D01*
X148857000Y-103471173D01*
X149047134Y-103315134D01*
X149232706Y-103089014D01*
X149242000Y-103071626D01*
X149251294Y-103089014D01*
X149436866Y-103315134D01*
X149662987Y-103500706D01*
X149920967Y-103638599D01*
X150200890Y-103723513D01*
X150492000Y-103752185D01*
X150783111Y-103723513D01*
X151063034Y-103638599D01*
X151321014Y-103500706D01*
X151547134Y-103315134D01*
X151732706Y-103089014D01*
X151746462Y-103063278D01*
X151902951Y-103269429D01*
X152120807Y-103462496D01*
X152372142Y-103609352D01*
X152635110Y-103701476D01*
X152865000Y-103580155D01*
X152865000Y-102262000D01*
X153119000Y-102262000D01*
X153119000Y-103580155D01*
X153348890Y-103701476D01*
X153611858Y-103609352D01*
X153863193Y-103462496D01*
X154081049Y-103269429D01*
X154257053Y-103037570D01*
X154384442Y-102775830D01*
X154458320Y-102494267D01*
X154318165Y-102262000D01*
X153119000Y-102262000D01*
X152865000Y-102262000D01*
X152845000Y-102262000D01*
X152845000Y-102008000D01*
X152865000Y-102008000D01*
X152865000Y-100689845D01*
X153119000Y-100689845D01*
X153119000Y-102008000D01*
X154318165Y-102008000D01*
X154458320Y-101775733D01*
X154384442Y-101494170D01*
X154292373Y-101305000D01*
X162303928Y-101305000D01*
X162303928Y-103805000D01*
X162316188Y-103929482D01*
X162352498Y-104049180D01*
X162411463Y-104159494D01*
X162490815Y-104256185D01*
X162587506Y-104335537D01*
X162697820Y-104394502D01*
X162817518Y-104430812D01*
X162942000Y-104443072D01*
X165442000Y-104443072D01*
X165566482Y-104430812D01*
X165686180Y-104394502D01*
X165796494Y-104335537D01*
X165893185Y-104256185D01*
X165972537Y-104159494D01*
X166031502Y-104049180D01*
X166067812Y-103929482D01*
X166080072Y-103805000D01*
X166080072Y-102369344D01*
X167387000Y-102369344D01*
X167387000Y-102740656D01*
X167459439Y-103104834D01*
X167601534Y-103447882D01*
X167807825Y-103756618D01*
X168070382Y-104019175D01*
X168379118Y-104225466D01*
X168722166Y-104367561D01*
X169086344Y-104440000D01*
X169457656Y-104440000D01*
X169821834Y-104367561D01*
X170164882Y-104225466D01*
X170473618Y-104019175D01*
X170736175Y-103756618D01*
X170942466Y-103447882D01*
X171084561Y-103104834D01*
X171157000Y-102740656D01*
X171157000Y-102369344D01*
X171084561Y-102005166D01*
X170942466Y-101662118D01*
X170736175Y-101353382D01*
X170687793Y-101305000D01*
X172453928Y-101305000D01*
X172453928Y-103805000D01*
X172466188Y-103929482D01*
X172502498Y-104049180D01*
X172561463Y-104159494D01*
X172640815Y-104256185D01*
X172737506Y-104335537D01*
X172847820Y-104394502D01*
X172967518Y-104430812D01*
X173092000Y-104443072D01*
X175592000Y-104443072D01*
X175716482Y-104430812D01*
X175836180Y-104394502D01*
X175946494Y-104335537D01*
X176043185Y-104256185D01*
X176122537Y-104159494D01*
X176181502Y-104049180D01*
X176217812Y-103929482D01*
X176230072Y-103805000D01*
X176230072Y-102369344D01*
X177537000Y-102369344D01*
X177537000Y-102740656D01*
X177609439Y-103104834D01*
X177751534Y-103447882D01*
X177957825Y-103756618D01*
X178220382Y-104019175D01*
X178529118Y-104225466D01*
X178872166Y-104367561D01*
X179236344Y-104440000D01*
X179607656Y-104440000D01*
X179971834Y-104367561D01*
X180314882Y-104225466D01*
X180623618Y-104019175D01*
X180886175Y-103756618D01*
X181092466Y-103447882D01*
X181234561Y-103104834D01*
X181307000Y-102740656D01*
X181307000Y-102369344D01*
X181234561Y-102005166D01*
X181092466Y-101662118D01*
X180886175Y-101353382D01*
X180837793Y-101305000D01*
X182613928Y-101305000D01*
X182613928Y-103805000D01*
X182626188Y-103929482D01*
X182662498Y-104049180D01*
X182721463Y-104159494D01*
X182800815Y-104256185D01*
X182897506Y-104335537D01*
X183007820Y-104394502D01*
X183127518Y-104430812D01*
X183252000Y-104443072D01*
X185752000Y-104443072D01*
X185876482Y-104430812D01*
X185996180Y-104394502D01*
X186106494Y-104335537D01*
X186203185Y-104256185D01*
X186282537Y-104159494D01*
X186341502Y-104049180D01*
X186377812Y-103929482D01*
X186390072Y-103805000D01*
X186390072Y-102369344D01*
X187697000Y-102369344D01*
X187697000Y-102740656D01*
X187769439Y-103104834D01*
X187911534Y-103447882D01*
X188117825Y-103756618D01*
X188380382Y-104019175D01*
X188689118Y-104225466D01*
X189032166Y-104367561D01*
X189396344Y-104440000D01*
X189767656Y-104440000D01*
X190131834Y-104367561D01*
X190474882Y-104225466D01*
X190783618Y-104019175D01*
X191046175Y-103756618D01*
X191252466Y-103447882D01*
X191394561Y-103104834D01*
X191467000Y-102740656D01*
X191467000Y-102369344D01*
X191394561Y-102005166D01*
X191252466Y-101662118D01*
X191046175Y-101353382D01*
X190997793Y-101305000D01*
X192773928Y-101305000D01*
X192773928Y-103805000D01*
X192786188Y-103929482D01*
X192822498Y-104049180D01*
X192881463Y-104159494D01*
X192960815Y-104256185D01*
X193057506Y-104335537D01*
X193167820Y-104394502D01*
X193287518Y-104430812D01*
X193412000Y-104443072D01*
X195912000Y-104443072D01*
X196036482Y-104430812D01*
X196156180Y-104394502D01*
X196266494Y-104335537D01*
X196363185Y-104256185D01*
X196442537Y-104159494D01*
X196501502Y-104049180D01*
X196537812Y-103929482D01*
X196550072Y-103805000D01*
X196550072Y-102369344D01*
X197857000Y-102369344D01*
X197857000Y-102740656D01*
X197929439Y-103104834D01*
X198071534Y-103447882D01*
X198277825Y-103756618D01*
X198540382Y-104019175D01*
X198849118Y-104225466D01*
X199192166Y-104367561D01*
X199556344Y-104440000D01*
X199927656Y-104440000D01*
X200291834Y-104367561D01*
X200634882Y-104225466D01*
X200943618Y-104019175D01*
X201206175Y-103756618D01*
X201412466Y-103447882D01*
X201554561Y-103104834D01*
X201627000Y-102740656D01*
X201627000Y-102369344D01*
X201554561Y-102005166D01*
X201412466Y-101662118D01*
X201206175Y-101353382D01*
X200943618Y-101090825D01*
X200634882Y-100884534D01*
X200291834Y-100742439D01*
X199927656Y-100670000D01*
X199556344Y-100670000D01*
X199192166Y-100742439D01*
X198849118Y-100884534D01*
X198540382Y-101090825D01*
X198277825Y-101353382D01*
X198071534Y-101662118D01*
X197929439Y-102005166D01*
X197857000Y-102369344D01*
X196550072Y-102369344D01*
X196550072Y-101305000D01*
X196537812Y-101180518D01*
X196501502Y-101060820D01*
X196442537Y-100950506D01*
X196363185Y-100853815D01*
X196266494Y-100774463D01*
X196156180Y-100715498D01*
X196036482Y-100679188D01*
X195912000Y-100666928D01*
X193412000Y-100666928D01*
X193287518Y-100679188D01*
X193167820Y-100715498D01*
X193057506Y-100774463D01*
X192960815Y-100853815D01*
X192881463Y-100950506D01*
X192822498Y-101060820D01*
X192786188Y-101180518D01*
X192773928Y-101305000D01*
X190997793Y-101305000D01*
X190783618Y-101090825D01*
X190474882Y-100884534D01*
X190131834Y-100742439D01*
X189767656Y-100670000D01*
X189396344Y-100670000D01*
X189032166Y-100742439D01*
X188689118Y-100884534D01*
X188380382Y-101090825D01*
X188117825Y-101353382D01*
X187911534Y-101662118D01*
X187769439Y-102005166D01*
X187697000Y-102369344D01*
X186390072Y-102369344D01*
X186390072Y-101305000D01*
X186377812Y-101180518D01*
X186341502Y-101060820D01*
X186282537Y-100950506D01*
X186203185Y-100853815D01*
X186106494Y-100774463D01*
X185996180Y-100715498D01*
X185876482Y-100679188D01*
X185752000Y-100666928D01*
X183252000Y-100666928D01*
X183127518Y-100679188D01*
X183007820Y-100715498D01*
X182897506Y-100774463D01*
X182800815Y-100853815D01*
X182721463Y-100950506D01*
X182662498Y-101060820D01*
X182626188Y-101180518D01*
X182613928Y-101305000D01*
X180837793Y-101305000D01*
X180623618Y-101090825D01*
X180314882Y-100884534D01*
X179971834Y-100742439D01*
X179607656Y-100670000D01*
X179236344Y-100670000D01*
X178872166Y-100742439D01*
X178529118Y-100884534D01*
X178220382Y-101090825D01*
X177957825Y-101353382D01*
X177751534Y-101662118D01*
X177609439Y-102005166D01*
X177537000Y-102369344D01*
X176230072Y-102369344D01*
X176230072Y-101305000D01*
X176217812Y-101180518D01*
X176181502Y-101060820D01*
X176122537Y-100950506D01*
X176043185Y-100853815D01*
X175946494Y-100774463D01*
X175836180Y-100715498D01*
X175716482Y-100679188D01*
X175592000Y-100666928D01*
X173092000Y-100666928D01*
X172967518Y-100679188D01*
X172847820Y-100715498D01*
X172737506Y-100774463D01*
X172640815Y-100853815D01*
X172561463Y-100950506D01*
X172502498Y-101060820D01*
X172466188Y-101180518D01*
X172453928Y-101305000D01*
X170687793Y-101305000D01*
X170473618Y-101090825D01*
X170164882Y-100884534D01*
X169821834Y-100742439D01*
X169457656Y-100670000D01*
X169086344Y-100670000D01*
X168722166Y-100742439D01*
X168379118Y-100884534D01*
X168070382Y-101090825D01*
X167807825Y-101353382D01*
X167601534Y-101662118D01*
X167459439Y-102005166D01*
X167387000Y-102369344D01*
X166080072Y-102369344D01*
X166080072Y-101305000D01*
X166067812Y-101180518D01*
X166031502Y-101060820D01*
X165972537Y-100950506D01*
X165893185Y-100853815D01*
X165796494Y-100774463D01*
X165686180Y-100715498D01*
X165566482Y-100679188D01*
X165442000Y-100666928D01*
X162942000Y-100666928D01*
X162817518Y-100679188D01*
X162697820Y-100715498D01*
X162587506Y-100774463D01*
X162490815Y-100853815D01*
X162411463Y-100950506D01*
X162352498Y-101060820D01*
X162316188Y-101180518D01*
X162303928Y-101305000D01*
X154292373Y-101305000D01*
X154257053Y-101232430D01*
X154081049Y-101000571D01*
X153863193Y-100807504D01*
X153611858Y-100660648D01*
X153348890Y-100568524D01*
X153119000Y-100689845D01*
X152865000Y-100689845D01*
X152635110Y-100568524D01*
X152372142Y-100660648D01*
X152120807Y-100807504D01*
X151902951Y-101000571D01*
X151746462Y-101206722D01*
X151732706Y-101180986D01*
X151547134Y-100954866D01*
X151321013Y-100769294D01*
X151063033Y-100631401D01*
X150783110Y-100546487D01*
X150492000Y-100517815D01*
X150352286Y-100531576D01*
X148971807Y-99151097D01*
X148939396Y-99111604D01*
X148781797Y-98982266D01*
X148601993Y-98886159D01*
X148406895Y-98826976D01*
X148254838Y-98812000D01*
X148254828Y-98812000D01*
X148204000Y-98806994D01*
X148153172Y-98812000D01*
X134242035Y-98812000D01*
X134191200Y-98806993D01*
X134140365Y-98812000D01*
X134140362Y-98812000D01*
X133988305Y-98826976D01*
X133793207Y-98886159D01*
X133613403Y-98982266D01*
X133546282Y-99037351D01*
X133518726Y-99055763D01*
X133495292Y-99079197D01*
X133455804Y-99111604D01*
X133423397Y-99151092D01*
X133374563Y-99199926D01*
X133346171Y-99242417D01*
X133313766Y-99281903D01*
X133289687Y-99326952D01*
X133261295Y-99369444D01*
X133241736Y-99416664D01*
X133217660Y-99461707D01*
X133202835Y-99510578D01*
X133183274Y-99557802D01*
X133173303Y-99607932D01*
X133158477Y-99656805D01*
X133153471Y-99707633D01*
X133143500Y-99757761D01*
X133143500Y-99808872D01*
X133138494Y-99859700D01*
X133143500Y-99910528D01*
X133143500Y-99961639D01*
X133153471Y-100011767D01*
X133158477Y-100062595D01*
X133173303Y-100111468D01*
X133183274Y-100161598D01*
X133202835Y-100208822D01*
X133217660Y-100257693D01*
X133241736Y-100302736D01*
X133261295Y-100349956D01*
X133289687Y-100392448D01*
X133313766Y-100437497D01*
X133346172Y-100476984D01*
X133374563Y-100519474D01*
X133410697Y-100555608D01*
X133443104Y-100595096D01*
X133482592Y-100627503D01*
X133518726Y-100663637D01*
X133561216Y-100692028D01*
X133600703Y-100724434D01*
X133645752Y-100748513D01*
X133688244Y-100776905D01*
X133735464Y-100796464D01*
X133780507Y-100820540D01*
X133829378Y-100835365D01*
X133876602Y-100854926D01*
X133926732Y-100864897D01*
X133975605Y-100879723D01*
X134026433Y-100884729D01*
X134076561Y-100894700D01*
X134127672Y-100894700D01*
X134178500Y-100899706D01*
X134229328Y-100894700D01*
X134280439Y-100894700D01*
X134330567Y-100884729D01*
X134358276Y-100882000D01*
X144182002Y-100882000D01*
X144153595Y-100916614D01*
X144071528Y-101070150D01*
X144062473Y-101100000D01*
X128362835Y-101100000D01*
X128312000Y-101094993D01*
X128261165Y-101100000D01*
X128261162Y-101100000D01*
X128184012Y-101107598D01*
X132586610Y-96705000D01*
X152333928Y-96705000D01*
X152346188Y-96829482D01*
X152382498Y-96949180D01*
X152441463Y-97059494D01*
X152520815Y-97156185D01*
X152617506Y-97235537D01*
X152727820Y-97294502D01*
X152847518Y-97330812D01*
X152972000Y-97343072D01*
X153536250Y-97340000D01*
X153695000Y-97181250D01*
X153695000Y-95982000D01*
X152495750Y-95982000D01*
X152337000Y-96140750D01*
X152333928Y-96705000D01*
X132586610Y-96705000D01*
X134286610Y-95005000D01*
X152333928Y-95005000D01*
X152337000Y-95569250D01*
X152495750Y-95728000D01*
X153695000Y-95728000D01*
X153695000Y-94528750D01*
X153536250Y-94370000D01*
X152972000Y-94366928D01*
X152847518Y-94379188D01*
X152727820Y-94415498D01*
X152617506Y-94474463D01*
X152520815Y-94553815D01*
X152441463Y-94650506D01*
X152382498Y-94760820D01*
X152346188Y-94880518D01*
X152333928Y-95005000D01*
X134286610Y-95005000D01*
X134302411Y-94989200D01*
X142897155Y-94989200D01*
X142944453Y-94998608D01*
X142995557Y-94998608D01*
X143046392Y-95003615D01*
X143097227Y-94998608D01*
X143148331Y-94998608D01*
X143198456Y-94988638D01*
X143249287Y-94983631D01*
X143298160Y-94968805D01*
X143348290Y-94958834D01*
X143395514Y-94939273D01*
X143444385Y-94924448D01*
X143489428Y-94900372D01*
X143536648Y-94880813D01*
X143579140Y-94852421D01*
X143624189Y-94828342D01*
X143663676Y-94795936D01*
X143706166Y-94767545D01*
X143742300Y-94731411D01*
X143781788Y-94699004D01*
X143814195Y-94659516D01*
X143850329Y-94623382D01*
X143878720Y-94580892D01*
X143911126Y-94541405D01*
X143935205Y-94496356D01*
X143963597Y-94453864D01*
X143983156Y-94406644D01*
X144007232Y-94361601D01*
X144022057Y-94312730D01*
X144041618Y-94265506D01*
X144051589Y-94215376D01*
X144066415Y-94166503D01*
X144071422Y-94115672D01*
X144081392Y-94065547D01*
X144081392Y-94014443D01*
X144086399Y-93963608D01*
X144084842Y-93947800D01*
X144613346Y-93947800D01*
X144664174Y-93952806D01*
X144715002Y-93947800D01*
X144715012Y-93947800D01*
X144867069Y-93932824D01*
X145062167Y-93873641D01*
X145149159Y-93827143D01*
X145163043Y-93821392D01*
X145175538Y-93813043D01*
X145241971Y-93777534D01*
X145300199Y-93729747D01*
X145332561Y-93708124D01*
X145360082Y-93680603D01*
X145399570Y-93648196D01*
X145431977Y-93608708D01*
X145476724Y-93563961D01*
X145505116Y-93521470D01*
X145537521Y-93481984D01*
X145561601Y-93436933D01*
X145589992Y-93394443D01*
X145609549Y-93347229D01*
X145633628Y-93302180D01*
X145648454Y-93253303D01*
X145668013Y-93206085D01*
X145677984Y-93155955D01*
X145692810Y-93107081D01*
X145697816Y-93056252D01*
X145707787Y-93006126D01*
X145707787Y-92955022D01*
X145712794Y-92904187D01*
X145707787Y-92853352D01*
X145707787Y-92802248D01*
X145697817Y-92752123D01*
X145692810Y-92701292D01*
X145677984Y-92652417D01*
X145668013Y-92602289D01*
X145648455Y-92555072D01*
X145633628Y-92506194D01*
X145628559Y-92496710D01*
X155222200Y-92496710D01*
X157092418Y-94366928D01*
X155512000Y-94366928D01*
X155387518Y-94379188D01*
X155267820Y-94415498D01*
X155157506Y-94474463D01*
X155092000Y-94528222D01*
X155026494Y-94474463D01*
X154916180Y-94415498D01*
X154796482Y-94379188D01*
X154672000Y-94366928D01*
X154107750Y-94370000D01*
X153949000Y-94528750D01*
X153949000Y-95728000D01*
X153969000Y-95728000D01*
X153969000Y-95982000D01*
X153949000Y-95982000D01*
X153949000Y-97181250D01*
X154107750Y-97340000D01*
X154672000Y-97343072D01*
X154796482Y-97330812D01*
X154916180Y-97294502D01*
X155026494Y-97235537D01*
X155092000Y-97181778D01*
X155157506Y-97235537D01*
X155267820Y-97294502D01*
X155387518Y-97330812D01*
X155512000Y-97343072D01*
X157212000Y-97343072D01*
X157336482Y-97330812D01*
X157456180Y-97294502D01*
X157566494Y-97235537D01*
X157663185Y-97156185D01*
X157742537Y-97059494D01*
X157801502Y-96949180D01*
X157837812Y-96829482D01*
X157850072Y-96705000D01*
X157850072Y-95124583D01*
X159385025Y-96659536D01*
X159417432Y-96699024D01*
X159575031Y-96828362D01*
X159754835Y-96924469D01*
X159949933Y-96983652D01*
X160101990Y-96998628D01*
X160101999Y-96998628D01*
X160152827Y-97003634D01*
X160203655Y-96998628D01*
X190795044Y-96998628D01*
X190845872Y-97003634D01*
X190896700Y-96998628D01*
X190896710Y-96998628D01*
X191048767Y-96983652D01*
X191243865Y-96924469D01*
X191423669Y-96828362D01*
X191581268Y-96699024D01*
X191613679Y-96659531D01*
X197101503Y-91171708D01*
X197137637Y-91135574D01*
X197166025Y-91093088D01*
X197198434Y-91053598D01*
X197222516Y-91008544D01*
X197250905Y-90966056D01*
X197270462Y-90918841D01*
X197294540Y-90873794D01*
X197309366Y-90824920D01*
X197328926Y-90777698D01*
X197338897Y-90727568D01*
X197353723Y-90678695D01*
X197358730Y-90627864D01*
X197368700Y-90577739D01*
X197368700Y-90526635D01*
X197373707Y-90475800D01*
X197368700Y-90424965D01*
X197368700Y-90373861D01*
X197358730Y-90323736D01*
X197355299Y-90288898D01*
X198620594Y-90288898D01*
X198625600Y-90339726D01*
X198625601Y-92861656D01*
X198625600Y-92861661D01*
X198625600Y-93065539D01*
X198635571Y-93115667D01*
X198640577Y-93166495D01*
X198655403Y-93215368D01*
X198665374Y-93265498D01*
X198684935Y-93312722D01*
X198699760Y-93361593D01*
X198723835Y-93406634D01*
X198743395Y-93453856D01*
X198771791Y-93496353D01*
X198795867Y-93541397D01*
X198828268Y-93580878D01*
X198856663Y-93623374D01*
X198892803Y-93659514D01*
X198925205Y-93698996D01*
X198964687Y-93731398D01*
X199000826Y-93767537D01*
X199043321Y-93795931D01*
X199082804Y-93828334D01*
X199127850Y-93852412D01*
X199170344Y-93880805D01*
X199217562Y-93900363D01*
X199262608Y-93924441D01*
X199311484Y-93939268D01*
X199358702Y-93958826D01*
X199408826Y-93968796D01*
X199457706Y-93983624D01*
X199508542Y-93988631D01*
X199558661Y-93998600D01*
X199609762Y-93998600D01*
X199660600Y-94003607D01*
X199711438Y-93998600D01*
X199762539Y-93998600D01*
X199812657Y-93988631D01*
X199863495Y-93983624D01*
X199912377Y-93968796D01*
X199962498Y-93958826D01*
X200009713Y-93939269D01*
X200058593Y-93924441D01*
X200103642Y-93900362D01*
X200150856Y-93880805D01*
X200193346Y-93852414D01*
X200238397Y-93828334D01*
X200277884Y-93795928D01*
X200320374Y-93767537D01*
X200356508Y-93731403D01*
X200395996Y-93698996D01*
X200428403Y-93659508D01*
X200464537Y-93623374D01*
X200492928Y-93580884D01*
X200525334Y-93541397D01*
X200549414Y-93496346D01*
X200577805Y-93453856D01*
X200597362Y-93406642D01*
X200621441Y-93361593D01*
X200636269Y-93312713D01*
X200655826Y-93265498D01*
X200665796Y-93215377D01*
X200680624Y-93166495D01*
X200685631Y-93115657D01*
X200695600Y-93065539D01*
X200695600Y-90717608D01*
X203053209Y-88360000D01*
X203373939Y-88360000D01*
X203424057Y-88350031D01*
X203474895Y-88345024D01*
X203523777Y-88330196D01*
X203573898Y-88320226D01*
X203621113Y-88300669D01*
X203669993Y-88285841D01*
X203715042Y-88261762D01*
X203762256Y-88242205D01*
X203804746Y-88213814D01*
X203849797Y-88189734D01*
X203889284Y-88157328D01*
X203931774Y-88128937D01*
X203967908Y-88092803D01*
X204007396Y-88060396D01*
X204039803Y-88020908D01*
X204075937Y-87984774D01*
X204104328Y-87942284D01*
X204136734Y-87902797D01*
X204160814Y-87857746D01*
X204189205Y-87815256D01*
X204208762Y-87768042D01*
X204232841Y-87722993D01*
X204247669Y-87674113D01*
X204267226Y-87626898D01*
X204277196Y-87576777D01*
X204292024Y-87527895D01*
X204297031Y-87477057D01*
X204307000Y-87426939D01*
X204307000Y-87375838D01*
X204312007Y-87325000D01*
X204307000Y-87274162D01*
X204307000Y-87223061D01*
X204297031Y-87172943D01*
X204292024Y-87122105D01*
X204277196Y-87073223D01*
X204267226Y-87023102D01*
X204247669Y-86975887D01*
X204232841Y-86927007D01*
X204208762Y-86881958D01*
X204189205Y-86834744D01*
X204160814Y-86792254D01*
X204136734Y-86747203D01*
X204104328Y-86707716D01*
X204075937Y-86665226D01*
X204039803Y-86629092D01*
X204007396Y-86589604D01*
X203967908Y-86557197D01*
X203931774Y-86521063D01*
X203889284Y-86492672D01*
X203849797Y-86460266D01*
X203804746Y-86436186D01*
X203762256Y-86407795D01*
X203715042Y-86388238D01*
X203669993Y-86364159D01*
X203621113Y-86349331D01*
X203573898Y-86329774D01*
X203523777Y-86319804D01*
X203474895Y-86304976D01*
X203424057Y-86299969D01*
X203373939Y-86290000D01*
X202675333Y-86290000D01*
X202624498Y-86284993D01*
X202573663Y-86290000D01*
X202573660Y-86290000D01*
X202421603Y-86304976D01*
X202226505Y-86364159D01*
X202195170Y-86380908D01*
X202046700Y-86460266D01*
X201966438Y-86526136D01*
X201889102Y-86589604D01*
X201856695Y-86629092D01*
X198964697Y-89521091D01*
X198925204Y-89553502D01*
X198795866Y-89711101D01*
X198699759Y-89890906D01*
X198640576Y-90086004D01*
X198625600Y-90238061D01*
X198625600Y-90238070D01*
X198620594Y-90288898D01*
X197355299Y-90288898D01*
X197353723Y-90272905D01*
X197338897Y-90224032D01*
X197328926Y-90173902D01*
X197309365Y-90126678D01*
X197294540Y-90077807D01*
X197270464Y-90032764D01*
X197250905Y-89985544D01*
X197222513Y-89943052D01*
X197198434Y-89898003D01*
X197166028Y-89858516D01*
X197137637Y-89816026D01*
X197101503Y-89779892D01*
X197069096Y-89740404D01*
X197029608Y-89707997D01*
X196993474Y-89671863D01*
X196950984Y-89643472D01*
X196911497Y-89611066D01*
X196866448Y-89586987D01*
X196823956Y-89558595D01*
X196776736Y-89539036D01*
X196731693Y-89514960D01*
X196682822Y-89500135D01*
X196635598Y-89480574D01*
X196585468Y-89470603D01*
X196536595Y-89455777D01*
X196485764Y-89450770D01*
X196435639Y-89440800D01*
X196384535Y-89440800D01*
X196333700Y-89435793D01*
X196282865Y-89440800D01*
X196231761Y-89440800D01*
X196181636Y-89450770D01*
X196130805Y-89455777D01*
X196081932Y-89470603D01*
X196031802Y-89480574D01*
X195984580Y-89500134D01*
X195935706Y-89514960D01*
X195890659Y-89539038D01*
X195843444Y-89558595D01*
X195800956Y-89586984D01*
X195755902Y-89611066D01*
X195716412Y-89643475D01*
X195673926Y-89671863D01*
X195637792Y-89707997D01*
X190417162Y-94928628D01*
X183019482Y-94928628D01*
X186801803Y-91146308D01*
X186837937Y-91110174D01*
X186866325Y-91067688D01*
X186898734Y-91028198D01*
X186922816Y-90983144D01*
X186951205Y-90940656D01*
X186970762Y-90893441D01*
X186994840Y-90848394D01*
X187009666Y-90799519D01*
X187029226Y-90752298D01*
X187039197Y-90702171D01*
X187054023Y-90653296D01*
X187059029Y-90602466D01*
X187069000Y-90552339D01*
X187069000Y-90501229D01*
X187074006Y-90450401D01*
X187069000Y-90399573D01*
X187069000Y-90348461D01*
X187059029Y-90298333D01*
X187054023Y-90247505D01*
X187039197Y-90198632D01*
X187029226Y-90148502D01*
X187017717Y-90120715D01*
X188370594Y-90120715D01*
X188375600Y-90171543D01*
X188375601Y-92861656D01*
X188375600Y-92861661D01*
X188375600Y-93065539D01*
X188385571Y-93115667D01*
X188390577Y-93166495D01*
X188405403Y-93215368D01*
X188415374Y-93265498D01*
X188434935Y-93312722D01*
X188449760Y-93361593D01*
X188473835Y-93406634D01*
X188493395Y-93453856D01*
X188521791Y-93496353D01*
X188545867Y-93541397D01*
X188578268Y-93580878D01*
X188606663Y-93623374D01*
X188642803Y-93659514D01*
X188675205Y-93698996D01*
X188714687Y-93731398D01*
X188750826Y-93767537D01*
X188793321Y-93795931D01*
X188832804Y-93828334D01*
X188877850Y-93852412D01*
X188920344Y-93880805D01*
X188967562Y-93900363D01*
X189012608Y-93924441D01*
X189061484Y-93939268D01*
X189108702Y-93958826D01*
X189158826Y-93968796D01*
X189207706Y-93983624D01*
X189258542Y-93988631D01*
X189308661Y-93998600D01*
X189359762Y-93998600D01*
X189410600Y-94003607D01*
X189461438Y-93998600D01*
X189512539Y-93998600D01*
X189562657Y-93988631D01*
X189613495Y-93983624D01*
X189662377Y-93968796D01*
X189712498Y-93958826D01*
X189759713Y-93939269D01*
X189808593Y-93924441D01*
X189853642Y-93900362D01*
X189900856Y-93880805D01*
X189943346Y-93852414D01*
X189988397Y-93828334D01*
X190027884Y-93795928D01*
X190070374Y-93767537D01*
X190106508Y-93731403D01*
X190145996Y-93698996D01*
X190178403Y-93659508D01*
X190214537Y-93623374D01*
X190242928Y-93580884D01*
X190275334Y-93541397D01*
X190299414Y-93496346D01*
X190327805Y-93453856D01*
X190347362Y-93406642D01*
X190371441Y-93361593D01*
X190386269Y-93312713D01*
X190405826Y-93265498D01*
X190415796Y-93215377D01*
X190430624Y-93166495D01*
X190435631Y-93115657D01*
X190445600Y-93065539D01*
X190445600Y-90549425D01*
X192635026Y-88360000D01*
X192873939Y-88360000D01*
X192924057Y-88350031D01*
X192974895Y-88345024D01*
X193023777Y-88330196D01*
X193073898Y-88320226D01*
X193121113Y-88300669D01*
X193169993Y-88285841D01*
X193215042Y-88261762D01*
X193262256Y-88242205D01*
X193304746Y-88213814D01*
X193349797Y-88189734D01*
X193389284Y-88157328D01*
X193431774Y-88128937D01*
X193467908Y-88092803D01*
X193507396Y-88060396D01*
X193539803Y-88020908D01*
X193575937Y-87984774D01*
X193604328Y-87942284D01*
X193636734Y-87902797D01*
X193660814Y-87857746D01*
X193689205Y-87815256D01*
X193708762Y-87768042D01*
X193732841Y-87722993D01*
X193747669Y-87674113D01*
X193767226Y-87626898D01*
X193777196Y-87576777D01*
X193792024Y-87527895D01*
X193797031Y-87477057D01*
X193807000Y-87426939D01*
X193807000Y-87375838D01*
X193812007Y-87325000D01*
X193807000Y-87274162D01*
X193807000Y-87223061D01*
X193797031Y-87172943D01*
X193792024Y-87122105D01*
X193777196Y-87073223D01*
X193767226Y-87023102D01*
X193747669Y-86975887D01*
X193732841Y-86927007D01*
X193708762Y-86881958D01*
X193689205Y-86834744D01*
X193660814Y-86792254D01*
X193636734Y-86747203D01*
X193604328Y-86707716D01*
X193575937Y-86665226D01*
X193539803Y-86629092D01*
X193507396Y-86589604D01*
X193467908Y-86557197D01*
X193431774Y-86521063D01*
X193389284Y-86492672D01*
X193349797Y-86460266D01*
X193304746Y-86436186D01*
X193262256Y-86407795D01*
X193215042Y-86388238D01*
X193169993Y-86364159D01*
X193121113Y-86349331D01*
X193073898Y-86329774D01*
X193023777Y-86319804D01*
X192974895Y-86304976D01*
X192924057Y-86299969D01*
X192873939Y-86290000D01*
X192257142Y-86290000D01*
X192206314Y-86284994D01*
X192155486Y-86290000D01*
X192155477Y-86290000D01*
X192003420Y-86304976D01*
X191808322Y-86364159D01*
X191776987Y-86380908D01*
X191628517Y-86460266D01*
X191548255Y-86526136D01*
X191470919Y-86589604D01*
X191438512Y-86629092D01*
X188714697Y-89352908D01*
X188675204Y-89385319D01*
X188545866Y-89542918D01*
X188449759Y-89722723D01*
X188390576Y-89917821D01*
X188375600Y-90069878D01*
X188375600Y-90069887D01*
X188370594Y-90120715D01*
X187017717Y-90120715D01*
X187009665Y-90101278D01*
X186994840Y-90052407D01*
X186970764Y-90007364D01*
X186951205Y-89960144D01*
X186922813Y-89917652D01*
X186898734Y-89872603D01*
X186866330Y-89833119D01*
X186837937Y-89790626D01*
X186801795Y-89754484D01*
X186769395Y-89715005D01*
X186729916Y-89682605D01*
X186693774Y-89646463D01*
X186651281Y-89618070D01*
X186611797Y-89585666D01*
X186566748Y-89561587D01*
X186524256Y-89533195D01*
X186477036Y-89513636D01*
X186431993Y-89489560D01*
X186383122Y-89474735D01*
X186335898Y-89455174D01*
X186285768Y-89445203D01*
X186236895Y-89430377D01*
X186186067Y-89425371D01*
X186135939Y-89415400D01*
X186084827Y-89415400D01*
X186033999Y-89410394D01*
X185983171Y-89415400D01*
X185932061Y-89415400D01*
X185881934Y-89425371D01*
X185831104Y-89430377D01*
X185782229Y-89445203D01*
X185732102Y-89455174D01*
X185684881Y-89474734D01*
X185636006Y-89489560D01*
X185590959Y-89513638D01*
X185543744Y-89533195D01*
X185501256Y-89561584D01*
X185456202Y-89585666D01*
X185416712Y-89618075D01*
X185374226Y-89646463D01*
X185338092Y-89682597D01*
X181092072Y-93928618D01*
X179767623Y-93928618D01*
X179781393Y-93924441D01*
X179826442Y-93900362D01*
X179873656Y-93880805D01*
X179916146Y-93852414D01*
X179961197Y-93828334D01*
X180000684Y-93795928D01*
X180043174Y-93767537D01*
X180079308Y-93731403D01*
X180118796Y-93698996D01*
X180151203Y-93659508D01*
X180187337Y-93623374D01*
X180215728Y-93580884D01*
X180248134Y-93541397D01*
X180272214Y-93496346D01*
X180300605Y-93453856D01*
X180320162Y-93406642D01*
X180344241Y-93361593D01*
X180359069Y-93312713D01*
X180378626Y-93265498D01*
X180388596Y-93215377D01*
X180403424Y-93166495D01*
X180408431Y-93115657D01*
X180418400Y-93065539D01*
X180418400Y-90326625D01*
X182385026Y-88360000D01*
X182623939Y-88360000D01*
X182674057Y-88350031D01*
X182724895Y-88345024D01*
X182773777Y-88330196D01*
X182823898Y-88320226D01*
X182871113Y-88300669D01*
X182919993Y-88285841D01*
X182965042Y-88261762D01*
X183012256Y-88242205D01*
X183054746Y-88213814D01*
X183099797Y-88189734D01*
X183139284Y-88157328D01*
X183181774Y-88128937D01*
X183217908Y-88092803D01*
X183257396Y-88060396D01*
X183289803Y-88020908D01*
X183325937Y-87984774D01*
X183354328Y-87942284D01*
X183386734Y-87902797D01*
X183410814Y-87857746D01*
X183439205Y-87815256D01*
X183458762Y-87768042D01*
X183482841Y-87722993D01*
X183497669Y-87674113D01*
X183517226Y-87626898D01*
X183527196Y-87576777D01*
X183542024Y-87527895D01*
X183547031Y-87477057D01*
X183557000Y-87426939D01*
X183557000Y-87375838D01*
X183562007Y-87325000D01*
X183557000Y-87274162D01*
X183557000Y-87223061D01*
X183547031Y-87172943D01*
X183542024Y-87122105D01*
X183527196Y-87073223D01*
X183517226Y-87023102D01*
X183497669Y-86975887D01*
X183482841Y-86927007D01*
X183458762Y-86881958D01*
X183439205Y-86834744D01*
X183410814Y-86792254D01*
X183386734Y-86747203D01*
X183354328Y-86707716D01*
X183325937Y-86665226D01*
X183289803Y-86629092D01*
X183257396Y-86589604D01*
X183217908Y-86557197D01*
X183181774Y-86521063D01*
X183139284Y-86492672D01*
X183099797Y-86460266D01*
X183054746Y-86436186D01*
X183012256Y-86407795D01*
X182965042Y-86388238D01*
X182919993Y-86364159D01*
X182871113Y-86349331D01*
X182823898Y-86329774D01*
X182773777Y-86319804D01*
X182724895Y-86304976D01*
X182674057Y-86299969D01*
X182623939Y-86290000D01*
X182007142Y-86290000D01*
X181956314Y-86284994D01*
X181905486Y-86290000D01*
X181905477Y-86290000D01*
X181753420Y-86304976D01*
X181558322Y-86364159D01*
X181526987Y-86380908D01*
X181378517Y-86460266D01*
X181298255Y-86526136D01*
X181220919Y-86589604D01*
X181188512Y-86629092D01*
X178687497Y-89130108D01*
X178648004Y-89162519D01*
X178518666Y-89320118D01*
X178422559Y-89499923D01*
X178363376Y-89695021D01*
X178348400Y-89847078D01*
X178348400Y-89847087D01*
X178343394Y-89897915D01*
X178348400Y-89948743D01*
X178348401Y-92861656D01*
X178348400Y-92861661D01*
X178348400Y-93065539D01*
X178358371Y-93115667D01*
X178363377Y-93166495D01*
X178378203Y-93215368D01*
X178388174Y-93265498D01*
X178407735Y-93312722D01*
X178422560Y-93361593D01*
X178446635Y-93406634D01*
X178466195Y-93453856D01*
X178494591Y-93496353D01*
X178518667Y-93541397D01*
X178551068Y-93580878D01*
X178579463Y-93623374D01*
X178615603Y-93659514D01*
X178648005Y-93698996D01*
X178687487Y-93731398D01*
X178723626Y-93767537D01*
X178766121Y-93795931D01*
X178805604Y-93828334D01*
X178850650Y-93852412D01*
X178893144Y-93880805D01*
X178940362Y-93900363D01*
X178985408Y-93924441D01*
X178999178Y-93928618D01*
X173846792Y-93928618D01*
X176629103Y-91146308D01*
X176665237Y-91110174D01*
X176693625Y-91067688D01*
X176726034Y-91028198D01*
X176750116Y-90983144D01*
X176778505Y-90940656D01*
X176798062Y-90893441D01*
X176822140Y-90848394D01*
X176836966Y-90799519D01*
X176856526Y-90752298D01*
X176866497Y-90702171D01*
X176881323Y-90653296D01*
X176886329Y-90602466D01*
X176896300Y-90552339D01*
X176896300Y-90501229D01*
X176901306Y-90450401D01*
X176896300Y-90399573D01*
X176896300Y-90348461D01*
X176886329Y-90298332D01*
X176881323Y-90247506D01*
X176866498Y-90198634D01*
X176856526Y-90148502D01*
X176836965Y-90101277D01*
X176822140Y-90052407D01*
X176798064Y-90007364D01*
X176778505Y-89960144D01*
X176750113Y-89917652D01*
X176726034Y-89872603D01*
X176693630Y-89833119D01*
X176665237Y-89790626D01*
X176629095Y-89754484D01*
X176596695Y-89715005D01*
X176557216Y-89682605D01*
X176521074Y-89646463D01*
X176478581Y-89618070D01*
X176439097Y-89585666D01*
X176394048Y-89561587D01*
X176351556Y-89533195D01*
X176304336Y-89513636D01*
X176259293Y-89489560D01*
X176210423Y-89474735D01*
X176163198Y-89455174D01*
X176113066Y-89445202D01*
X176064194Y-89430377D01*
X176013368Y-89425371D01*
X175963239Y-89415400D01*
X175912127Y-89415400D01*
X175861299Y-89410394D01*
X175810471Y-89415400D01*
X175759361Y-89415400D01*
X175709234Y-89425371D01*
X175658404Y-89430377D01*
X175609529Y-89445203D01*
X175559402Y-89455174D01*
X175512181Y-89474734D01*
X175463306Y-89489560D01*
X175418259Y-89513638D01*
X175371044Y-89533195D01*
X175328556Y-89561584D01*
X175283502Y-89585666D01*
X175244012Y-89618075D01*
X175201526Y-89646463D01*
X175165392Y-89682597D01*
X171919382Y-92928608D01*
X170168400Y-92928608D01*
X170168400Y-90892310D01*
X173039803Y-88020908D01*
X173075937Y-87984774D01*
X173104325Y-87942288D01*
X173136734Y-87902798D01*
X173160816Y-87857744D01*
X173189205Y-87815256D01*
X173208762Y-87768041D01*
X173232840Y-87722994D01*
X173247666Y-87674120D01*
X173267226Y-87626898D01*
X173277197Y-87576768D01*
X173292023Y-87527895D01*
X173297030Y-87477064D01*
X173307000Y-87426939D01*
X173307000Y-87375835D01*
X173312007Y-87325000D01*
X173307000Y-87274165D01*
X173307000Y-87223061D01*
X173297030Y-87172936D01*
X173292023Y-87122105D01*
X173277197Y-87073232D01*
X173267226Y-87023102D01*
X173247665Y-86975878D01*
X173232840Y-86927007D01*
X173208764Y-86881964D01*
X173189205Y-86834744D01*
X173160813Y-86792252D01*
X173136734Y-86747203D01*
X173104328Y-86707716D01*
X173075937Y-86665226D01*
X173039803Y-86629092D01*
X173007396Y-86589604D01*
X172967908Y-86557197D01*
X172931774Y-86521063D01*
X172889284Y-86492672D01*
X172849797Y-86460266D01*
X172804748Y-86436187D01*
X172762256Y-86407795D01*
X172715036Y-86388236D01*
X172669993Y-86364160D01*
X172621122Y-86349335D01*
X172573898Y-86329774D01*
X172523768Y-86319803D01*
X172474895Y-86304977D01*
X172424064Y-86299970D01*
X172373939Y-86290000D01*
X172322835Y-86290000D01*
X172272000Y-86284993D01*
X172221165Y-86290000D01*
X172170061Y-86290000D01*
X172119936Y-86299970D01*
X172069105Y-86304977D01*
X172020232Y-86319803D01*
X171970102Y-86329774D01*
X171922880Y-86349334D01*
X171874006Y-86364160D01*
X171828959Y-86388238D01*
X171781744Y-86407795D01*
X171739256Y-86436184D01*
X171694202Y-86460266D01*
X171654712Y-86492675D01*
X171612226Y-86521063D01*
X171576092Y-86557197D01*
X168437497Y-89695793D01*
X168398004Y-89728204D01*
X168268666Y-89885803D01*
X168172559Y-90065608D01*
X168113376Y-90260706D01*
X168098400Y-90412763D01*
X168098400Y-90412772D01*
X168093394Y-90463600D01*
X168098400Y-90514428D01*
X168098401Y-92861656D01*
X168098400Y-92861661D01*
X168098400Y-92928608D01*
X161130853Y-92928608D01*
X161080735Y-92938577D01*
X161029897Y-92943584D01*
X160981015Y-92958412D01*
X160930894Y-92968382D01*
X160883679Y-92987939D01*
X160834799Y-93002767D01*
X160789750Y-93026846D01*
X160742536Y-93046403D01*
X160700046Y-93074794D01*
X160654995Y-93098874D01*
X160615508Y-93131280D01*
X160573018Y-93159671D01*
X160536884Y-93195805D01*
X160497396Y-93228212D01*
X160464989Y-93267700D01*
X160428855Y-93303834D01*
X160405670Y-93338533D01*
X159311552Y-92244416D01*
X159311550Y-92244413D01*
X159167387Y-92100250D01*
X159124896Y-92071858D01*
X159085410Y-92039453D01*
X159040361Y-92015374D01*
X158997869Y-91986982D01*
X158950649Y-91967423D01*
X158905606Y-91943347D01*
X158856735Y-91928522D01*
X158809511Y-91908961D01*
X158759381Y-91898990D01*
X158710508Y-91884164D01*
X158659680Y-91879158D01*
X158609552Y-91869187D01*
X158558441Y-91869187D01*
X158507613Y-91864181D01*
X158456785Y-91869187D01*
X158405674Y-91869187D01*
X158355546Y-91879158D01*
X158304718Y-91884164D01*
X158255845Y-91898990D01*
X158205715Y-91908961D01*
X158158491Y-91928522D01*
X158109620Y-91943347D01*
X158064577Y-91967423D01*
X158017357Y-91986982D01*
X157974865Y-92015374D01*
X157929816Y-92039453D01*
X157890329Y-92071859D01*
X157847839Y-92100250D01*
X157811705Y-92136384D01*
X157799396Y-92146486D01*
X157149610Y-91496700D01*
X161059499Y-91496700D01*
X161202662Y-91510800D01*
X161202672Y-91510800D01*
X161253500Y-91515806D01*
X161304328Y-91510800D01*
X165927439Y-91510800D01*
X165977557Y-91500831D01*
X166028395Y-91495824D01*
X166077277Y-91480996D01*
X166127398Y-91471026D01*
X166174613Y-91451469D01*
X166223493Y-91436641D01*
X166268542Y-91412562D01*
X166315756Y-91393005D01*
X166358246Y-91364614D01*
X166403297Y-91340534D01*
X166442784Y-91308128D01*
X166485274Y-91279737D01*
X166521408Y-91243603D01*
X166560896Y-91211196D01*
X166593303Y-91171708D01*
X166629437Y-91135574D01*
X166657828Y-91093084D01*
X166690234Y-91053597D01*
X166714314Y-91008546D01*
X166742705Y-90966056D01*
X166762262Y-90918842D01*
X166786341Y-90873793D01*
X166801169Y-90824913D01*
X166820726Y-90777698D01*
X166830696Y-90727577D01*
X166845524Y-90678695D01*
X166850531Y-90627857D01*
X166860500Y-90577739D01*
X166860500Y-90526638D01*
X166865507Y-90475800D01*
X166860500Y-90424962D01*
X166860500Y-90373861D01*
X166850531Y-90323743D01*
X166845524Y-90272905D01*
X166830696Y-90224023D01*
X166820726Y-90173902D01*
X166801169Y-90126687D01*
X166786341Y-90077807D01*
X166762262Y-90032758D01*
X166742705Y-89985544D01*
X166714314Y-89943054D01*
X166690234Y-89898003D01*
X166657828Y-89858516D01*
X166629437Y-89816026D01*
X166593303Y-89779892D01*
X166560896Y-89740404D01*
X166521408Y-89707997D01*
X166485274Y-89671863D01*
X166442784Y-89643472D01*
X166403297Y-89611066D01*
X166358246Y-89586986D01*
X166315756Y-89558595D01*
X166268542Y-89539038D01*
X166223493Y-89514959D01*
X166174613Y-89500131D01*
X166127398Y-89480574D01*
X166077277Y-89470604D01*
X166028395Y-89455776D01*
X165977557Y-89450769D01*
X165927439Y-89440800D01*
X161461601Y-89440800D01*
X161318438Y-89426700D01*
X161318427Y-89426700D01*
X161267599Y-89421694D01*
X161216771Y-89426700D01*
X157842589Y-89426700D01*
X157847812Y-89409482D01*
X157860072Y-89285000D01*
X157860072Y-87585000D01*
X157847812Y-87460518D01*
X157811502Y-87340820D01*
X157752537Y-87230506D01*
X157673185Y-87133815D01*
X157576494Y-87054463D01*
X157466180Y-86995498D01*
X157346482Y-86959188D01*
X157222000Y-86946928D01*
X155522000Y-86946928D01*
X155397518Y-86959188D01*
X155277820Y-86995498D01*
X155167506Y-87054463D01*
X155102000Y-87108222D01*
X155036494Y-87054463D01*
X154926180Y-86995498D01*
X154806482Y-86959188D01*
X154682000Y-86946928D01*
X154117750Y-86950000D01*
X153959000Y-87108750D01*
X153959000Y-88308000D01*
X153979000Y-88308000D01*
X153979000Y-88562000D01*
X153959000Y-88562000D01*
X153959000Y-88582000D01*
X153705000Y-88582000D01*
X153705000Y-88562000D01*
X152505750Y-88562000D01*
X152347000Y-88720750D01*
X152343928Y-89285000D01*
X152356188Y-89409482D01*
X152361411Y-89426700D01*
X137599784Y-89426700D01*
X139441484Y-87585000D01*
X152343928Y-87585000D01*
X152347000Y-88149250D01*
X152505750Y-88308000D01*
X153705000Y-88308000D01*
X153705000Y-87108750D01*
X153546250Y-86950000D01*
X152982000Y-86946928D01*
X152857518Y-86959188D01*
X152737820Y-86995498D01*
X152627506Y-87054463D01*
X152530815Y-87133815D01*
X152451463Y-87230506D01*
X152392498Y-87340820D01*
X152356188Y-87460518D01*
X152343928Y-87585000D01*
X139441484Y-87585000D01*
X141173945Y-85852539D01*
X141176938Y-85882933D01*
X141191766Y-85931815D01*
X141201736Y-85981936D01*
X141221293Y-86029151D01*
X141236121Y-86078031D01*
X141260200Y-86123080D01*
X141279757Y-86170294D01*
X141308148Y-86212784D01*
X141332228Y-86257835D01*
X141364634Y-86297322D01*
X141393025Y-86339812D01*
X141429159Y-86375946D01*
X141461566Y-86415434D01*
X141501054Y-86447841D01*
X141537188Y-86483975D01*
X141579678Y-86512366D01*
X141619165Y-86544772D01*
X141664216Y-86568852D01*
X141706706Y-86597243D01*
X141753920Y-86616800D01*
X141798969Y-86640879D01*
X141847849Y-86655707D01*
X141895064Y-86675264D01*
X141945185Y-86685234D01*
X141994067Y-86700062D01*
X142044905Y-86705069D01*
X142095023Y-86715038D01*
X152356134Y-86715038D01*
X152406962Y-86720044D01*
X152457790Y-86715038D01*
X152457800Y-86715038D01*
X152609857Y-86700062D01*
X152804955Y-86640879D01*
X152984759Y-86544772D01*
X153142358Y-86415434D01*
X153174769Y-86375941D01*
X153368673Y-86182037D01*
X158719838Y-80830872D01*
X203101600Y-80830872D01*
X203101600Y-81271128D01*
X203187490Y-81702925D01*
X203355969Y-82109669D01*
X203600562Y-82475729D01*
X203911871Y-82787038D01*
X204277931Y-83031631D01*
X204684675Y-83200110D01*
X205116472Y-83286000D01*
X205556728Y-83286000D01*
X205988525Y-83200110D01*
X206395269Y-83031631D01*
X206761329Y-82787038D01*
X207072638Y-82475729D01*
X207317231Y-82109669D01*
X207485710Y-81702925D01*
X207571600Y-81271128D01*
X207571600Y-80830872D01*
X207485710Y-80399075D01*
X207317231Y-79992331D01*
X207072638Y-79626271D01*
X206761329Y-79314962D01*
X206395269Y-79070369D01*
X205988525Y-78901890D01*
X205556728Y-78816000D01*
X205116472Y-78816000D01*
X204684675Y-78901890D01*
X204277931Y-79070369D01*
X203911871Y-79314962D01*
X203600562Y-79626271D01*
X203355969Y-79992331D01*
X203187490Y-80399075D01*
X203101600Y-80830872D01*
X158719838Y-80830872D01*
X161404708Y-78146003D01*
X161444196Y-78113596D01*
X161476603Y-78074108D01*
X161573534Y-77955998D01*
X161669641Y-77776194D01*
X161698444Y-77681242D01*
X161728824Y-77581095D01*
X161743800Y-77429038D01*
X161743800Y-77429035D01*
X161748807Y-77378200D01*
X161743800Y-77327365D01*
X161743800Y-76180000D01*
X162639638Y-76180000D01*
X162791999Y-76195006D01*
X162792000Y-76195006D01*
X162994895Y-76175023D01*
X163189993Y-76115840D01*
X163369797Y-76019734D01*
X163487907Y-75922803D01*
X163487910Y-75922800D01*
X163527395Y-75890395D01*
X163559799Y-75850911D01*
X164973408Y-74437303D01*
X165012896Y-74404896D01*
X165045632Y-74365007D01*
X165142234Y-74247298D01*
X165213710Y-74113574D01*
X165238341Y-74067493D01*
X165297524Y-73872395D01*
X165312500Y-73720338D01*
X165312500Y-73720329D01*
X165317506Y-73669501D01*
X165312500Y-73618673D01*
X165312500Y-70456110D01*
X165343671Y-70424939D01*
X165343674Y-70424937D01*
X165391013Y-70377598D01*
X166925500Y-71912085D01*
X166925500Y-72262939D01*
X166935469Y-72313058D01*
X166940476Y-72363894D01*
X166955304Y-72412774D01*
X166965274Y-72462898D01*
X166984832Y-72510116D01*
X166999659Y-72558992D01*
X167023737Y-72604039D01*
X167043295Y-72651256D01*
X167071686Y-72693747D01*
X167095766Y-72738797D01*
X167128172Y-72778284D01*
X167156563Y-72820774D01*
X167192697Y-72856908D01*
X167225104Y-72896396D01*
X167264592Y-72928803D01*
X167300726Y-72964937D01*
X167343216Y-72993328D01*
X167382703Y-73025734D01*
X167427754Y-73049814D01*
X167470244Y-73078205D01*
X167517458Y-73097762D01*
X167562507Y-73121841D01*
X167611387Y-73136669D01*
X167658602Y-73156226D01*
X167708723Y-73166196D01*
X167757605Y-73181024D01*
X167808443Y-73186031D01*
X167858561Y-73196000D01*
X167909662Y-73196000D01*
X167960500Y-73201007D01*
X168011338Y-73196000D01*
X168062439Y-73196000D01*
X168112558Y-73186031D01*
X168163394Y-73181024D01*
X168212274Y-73166196D01*
X168262398Y-73156226D01*
X168309616Y-73136668D01*
X168358492Y-73121841D01*
X168403539Y-73097763D01*
X168450756Y-73078205D01*
X168493247Y-73049814D01*
X168538297Y-73025734D01*
X168577784Y-72993328D01*
X168620274Y-72964937D01*
X168656408Y-72928803D01*
X168695896Y-72896396D01*
X168728303Y-72856908D01*
X168764437Y-72820774D01*
X168792828Y-72778284D01*
X168825234Y-72738797D01*
X168849314Y-72693746D01*
X168877705Y-72651256D01*
X168897262Y-72604042D01*
X168921341Y-72558993D01*
X168936169Y-72510113D01*
X168955726Y-72462898D01*
X168965696Y-72412777D01*
X168980524Y-72363895D01*
X168985531Y-72313057D01*
X168995500Y-72262939D01*
X168995500Y-71534201D01*
X169000506Y-71483373D01*
X168995500Y-71432545D01*
X168995500Y-71432537D01*
X168980524Y-71280480D01*
X168921341Y-71085381D01*
X168866724Y-70983200D01*
X168825234Y-70905576D01*
X168728303Y-70787466D01*
X168695896Y-70747978D01*
X168656408Y-70715571D01*
X166593526Y-68652690D01*
X174018965Y-68652690D01*
X174134108Y-68767833D01*
X174108716Y-68788672D01*
X174066226Y-68817063D01*
X174030092Y-68853197D01*
X173990604Y-68885604D01*
X173958197Y-68925092D01*
X173922063Y-68961226D01*
X173893672Y-69003716D01*
X173861266Y-69043203D01*
X173837186Y-69088253D01*
X173808795Y-69130744D01*
X173789237Y-69177961D01*
X173765159Y-69223008D01*
X173750332Y-69271884D01*
X173730774Y-69319102D01*
X173720804Y-69369226D01*
X173705976Y-69418106D01*
X173700969Y-69468942D01*
X173691000Y-69519061D01*
X173691000Y-69570163D01*
X173691001Y-72692288D01*
X172258690Y-74124600D01*
X171754661Y-74124600D01*
X171704543Y-74134569D01*
X171653705Y-74139576D01*
X171604823Y-74154404D01*
X171554702Y-74164374D01*
X171507487Y-74183931D01*
X171458607Y-74198759D01*
X171413558Y-74222838D01*
X171366344Y-74242395D01*
X171323854Y-74270786D01*
X171278803Y-74294866D01*
X171239316Y-74327272D01*
X171196826Y-74355663D01*
X171160692Y-74391797D01*
X171121204Y-74424204D01*
X171088797Y-74463692D01*
X171052663Y-74499826D01*
X171024272Y-74542316D01*
X170991866Y-74581803D01*
X170967786Y-74626854D01*
X170939395Y-74669344D01*
X170919838Y-74716558D01*
X170895759Y-74761607D01*
X170880931Y-74810487D01*
X170861374Y-74857702D01*
X170851404Y-74907823D01*
X170836576Y-74956705D01*
X170831569Y-75007543D01*
X170821600Y-75057661D01*
X170821600Y-75108762D01*
X170816593Y-75159600D01*
X170821600Y-75210438D01*
X170821600Y-75261539D01*
X170831569Y-75311657D01*
X170836576Y-75362495D01*
X170851404Y-75411377D01*
X170861374Y-75461498D01*
X170880931Y-75508713D01*
X170895759Y-75557593D01*
X170919838Y-75602642D01*
X170939395Y-75649856D01*
X170967786Y-75692346D01*
X170991866Y-75737397D01*
X171024272Y-75776884D01*
X171052663Y-75819374D01*
X171088797Y-75855508D01*
X171121204Y-75894996D01*
X171160692Y-75927403D01*
X171196826Y-75963537D01*
X171239316Y-75991928D01*
X171278803Y-76024334D01*
X171323854Y-76048414D01*
X171366344Y-76076805D01*
X171413558Y-76096362D01*
X171458607Y-76120441D01*
X171507487Y-76135269D01*
X171554702Y-76154826D01*
X171604823Y-76164796D01*
X171653705Y-76179624D01*
X171704543Y-76184631D01*
X171754661Y-76194600D01*
X172636572Y-76194600D01*
X172687400Y-76199606D01*
X172738228Y-76194600D01*
X172738238Y-76194600D01*
X172890295Y-76179624D01*
X173085393Y-76120441D01*
X173265197Y-76024334D01*
X173422796Y-75894996D01*
X173455207Y-75855503D01*
X175421908Y-73888803D01*
X175461396Y-73856396D01*
X175505740Y-73802363D01*
X175590734Y-73698798D01*
X175642793Y-73601401D01*
X175686841Y-73518993D01*
X175746024Y-73323895D01*
X175761000Y-73171838D01*
X175761000Y-73171835D01*
X175766007Y-73121000D01*
X175761000Y-73070165D01*
X175761000Y-70394726D01*
X177415700Y-72049426D01*
X177415700Y-72288339D01*
X177425669Y-72338458D01*
X177430676Y-72389294D01*
X177445504Y-72438174D01*
X177455474Y-72488298D01*
X177475032Y-72535516D01*
X177489859Y-72584392D01*
X177513937Y-72629439D01*
X177533495Y-72676656D01*
X177561886Y-72719147D01*
X177585966Y-72764197D01*
X177618372Y-72803684D01*
X177646763Y-72846174D01*
X177682897Y-72882308D01*
X177715304Y-72921796D01*
X177754792Y-72954203D01*
X177790926Y-72990337D01*
X177833416Y-73018728D01*
X177872903Y-73051134D01*
X177917954Y-73075214D01*
X177960444Y-73103605D01*
X178007658Y-73123162D01*
X178052707Y-73147241D01*
X178101587Y-73162069D01*
X178148802Y-73181626D01*
X178198923Y-73191596D01*
X178247805Y-73206424D01*
X178298643Y-73211431D01*
X178348761Y-73221400D01*
X178399862Y-73221400D01*
X178450700Y-73226407D01*
X178501538Y-73221400D01*
X178552639Y-73221400D01*
X178602758Y-73211431D01*
X178653594Y-73206424D01*
X178702474Y-73191596D01*
X178752598Y-73181626D01*
X178799816Y-73162068D01*
X178848692Y-73147241D01*
X178893739Y-73123163D01*
X178940956Y-73103605D01*
X178983447Y-73075214D01*
X179028497Y-73051134D01*
X179067984Y-73018728D01*
X179110474Y-72990337D01*
X179146608Y-72954203D01*
X179186096Y-72921796D01*
X179218503Y-72882308D01*
X179254637Y-72846174D01*
X179283028Y-72803684D01*
X179315434Y-72764197D01*
X179339514Y-72719146D01*
X179367905Y-72676656D01*
X179387462Y-72629442D01*
X179411541Y-72584393D01*
X179426369Y-72535513D01*
X179445926Y-72488298D01*
X179455896Y-72438177D01*
X179470724Y-72389295D01*
X179475731Y-72338457D01*
X179485700Y-72288339D01*
X179485700Y-71671542D01*
X179490706Y-71620714D01*
X179485700Y-71569886D01*
X179485700Y-71569878D01*
X179470724Y-71417821D01*
X179411541Y-71222723D01*
X179394678Y-71191174D01*
X179315434Y-71042917D01*
X179218503Y-70924807D01*
X179186096Y-70885319D01*
X179146608Y-70852912D01*
X175946375Y-67652680D01*
X183383290Y-67652680D01*
X184460021Y-68729411D01*
X184290826Y-68842463D01*
X184146663Y-68986626D01*
X184146661Y-68986629D01*
X183826093Y-69307197D01*
X183786605Y-69339604D01*
X183754198Y-69379092D01*
X183754197Y-69379093D01*
X183657266Y-69497203D01*
X183561160Y-69677007D01*
X183501977Y-69872105D01*
X183481994Y-70075000D01*
X183487001Y-70125838D01*
X183487000Y-72896289D01*
X182284090Y-74099200D01*
X181610861Y-74099200D01*
X181560743Y-74109169D01*
X181509905Y-74114176D01*
X181461023Y-74129004D01*
X181410902Y-74138974D01*
X181363687Y-74158531D01*
X181314807Y-74173359D01*
X181269758Y-74197438D01*
X181222544Y-74216995D01*
X181180054Y-74245386D01*
X181135003Y-74269466D01*
X181095516Y-74301872D01*
X181053026Y-74330263D01*
X181016892Y-74366397D01*
X180977404Y-74398804D01*
X180944997Y-74438292D01*
X180908863Y-74474426D01*
X180880472Y-74516916D01*
X180848066Y-74556403D01*
X180823986Y-74601454D01*
X180795595Y-74643944D01*
X180776038Y-74691158D01*
X180751959Y-74736207D01*
X180737131Y-74785087D01*
X180717574Y-74832302D01*
X180707604Y-74882423D01*
X180692776Y-74931305D01*
X180687769Y-74982143D01*
X180677800Y-75032261D01*
X180677800Y-75083362D01*
X180672793Y-75134200D01*
X180677800Y-75185038D01*
X180677800Y-75236139D01*
X180687769Y-75286257D01*
X180692776Y-75337095D01*
X180707604Y-75385977D01*
X180717574Y-75436098D01*
X180737131Y-75483313D01*
X180751959Y-75532193D01*
X180776038Y-75577242D01*
X180795595Y-75624456D01*
X180823986Y-75666946D01*
X180848066Y-75711997D01*
X180880472Y-75751484D01*
X180908863Y-75793974D01*
X180944997Y-75830108D01*
X180977404Y-75869596D01*
X181016892Y-75902003D01*
X181053026Y-75938137D01*
X181095516Y-75966528D01*
X181135003Y-75998934D01*
X181180054Y-76023014D01*
X181222544Y-76051405D01*
X181269758Y-76070962D01*
X181314807Y-76095041D01*
X181363687Y-76109869D01*
X181410902Y-76129426D01*
X181461023Y-76139396D01*
X181509905Y-76154224D01*
X181560743Y-76159231D01*
X181610861Y-76169200D01*
X182661972Y-76169200D01*
X182712800Y-76174206D01*
X182763628Y-76169200D01*
X182763638Y-76169200D01*
X182915695Y-76154224D01*
X183110793Y-76095041D01*
X183290597Y-75998934D01*
X183448196Y-75869596D01*
X183480607Y-75830103D01*
X185217908Y-74092803D01*
X185257396Y-74060396D01*
X185289803Y-74020908D01*
X185386734Y-73902798D01*
X185472501Y-73742337D01*
X185482841Y-73722993D01*
X185542024Y-73527895D01*
X185557000Y-73375838D01*
X185557000Y-73375829D01*
X185562006Y-73325001D01*
X185557000Y-73274173D01*
X185557000Y-70503710D01*
X185610371Y-70450339D01*
X185610374Y-70450337D01*
X185754537Y-70306174D01*
X185867589Y-70136979D01*
X187277001Y-71546392D01*
X187277000Y-72093060D01*
X187277000Y-72296939D01*
X187286969Y-72347058D01*
X187291976Y-72397894D01*
X187306804Y-72446774D01*
X187316774Y-72496898D01*
X187336332Y-72544116D01*
X187351159Y-72592992D01*
X187375237Y-72638039D01*
X187394795Y-72685256D01*
X187423186Y-72727747D01*
X187447266Y-72772797D01*
X187479672Y-72812284D01*
X187508063Y-72854774D01*
X187544197Y-72890908D01*
X187576604Y-72930396D01*
X187616092Y-72962803D01*
X187652226Y-72998937D01*
X187694716Y-73027328D01*
X187734203Y-73059734D01*
X187779254Y-73083814D01*
X187821744Y-73112205D01*
X187868958Y-73131762D01*
X187914007Y-73155841D01*
X187962887Y-73170669D01*
X188010102Y-73190226D01*
X188060223Y-73200196D01*
X188109105Y-73215024D01*
X188159943Y-73220031D01*
X188210061Y-73230000D01*
X188261162Y-73230000D01*
X188312000Y-73235007D01*
X188362838Y-73230000D01*
X188413939Y-73230000D01*
X188464058Y-73220031D01*
X188514894Y-73215024D01*
X188563774Y-73200196D01*
X188613898Y-73190226D01*
X188661116Y-73170668D01*
X188709992Y-73155841D01*
X188755039Y-73131763D01*
X188802256Y-73112205D01*
X188844747Y-73083814D01*
X188889797Y-73059734D01*
X188929284Y-73027328D01*
X188971774Y-72998937D01*
X189007908Y-72962803D01*
X189047396Y-72930396D01*
X189079803Y-72890908D01*
X189115937Y-72854774D01*
X189144328Y-72812284D01*
X189176734Y-72772797D01*
X189200814Y-72727746D01*
X189229205Y-72685256D01*
X189248762Y-72638042D01*
X189272841Y-72592993D01*
X189287669Y-72544113D01*
X189307226Y-72496898D01*
X189317196Y-72446777D01*
X189332024Y-72397895D01*
X189337031Y-72347057D01*
X189347000Y-72296939D01*
X189347000Y-71168507D01*
X189352006Y-71117679D01*
X189347000Y-71066851D01*
X189347000Y-71066842D01*
X189332024Y-70914785D01*
X189272841Y-70719687D01*
X189211645Y-70605197D01*
X189176734Y-70539882D01*
X189079803Y-70421772D01*
X189047396Y-70382284D01*
X189007908Y-70349877D01*
X185310700Y-66652670D01*
X192250045Y-66652670D01*
X194462750Y-68865375D01*
X194459026Y-68867863D01*
X194314863Y-69012026D01*
X194314861Y-69012029D01*
X194076093Y-69250797D01*
X194036605Y-69283204D01*
X194004198Y-69322692D01*
X194004197Y-69322693D01*
X193907266Y-69440803D01*
X193811160Y-69620607D01*
X193751977Y-69815705D01*
X193731994Y-70018600D01*
X193737001Y-70069438D01*
X193737000Y-72896289D01*
X192559490Y-74073800D01*
X191886261Y-74073800D01*
X191836143Y-74083769D01*
X191785305Y-74088776D01*
X191736423Y-74103604D01*
X191686302Y-74113574D01*
X191639087Y-74133131D01*
X191590207Y-74147959D01*
X191545158Y-74172038D01*
X191497944Y-74191595D01*
X191455454Y-74219986D01*
X191410403Y-74244066D01*
X191370916Y-74276472D01*
X191328426Y-74304863D01*
X191292292Y-74340997D01*
X191252804Y-74373404D01*
X191220397Y-74412892D01*
X191184263Y-74449026D01*
X191155872Y-74491516D01*
X191123466Y-74531003D01*
X191099386Y-74576054D01*
X191070995Y-74618544D01*
X191051438Y-74665758D01*
X191027359Y-74710807D01*
X191012531Y-74759687D01*
X190992974Y-74806902D01*
X190983004Y-74857023D01*
X190968176Y-74905905D01*
X190963169Y-74956743D01*
X190953200Y-75006861D01*
X190953200Y-75057962D01*
X190948193Y-75108800D01*
X190953200Y-75159638D01*
X190953200Y-75210739D01*
X190963169Y-75260857D01*
X190968176Y-75311695D01*
X190983004Y-75360577D01*
X190992974Y-75410698D01*
X191012531Y-75457913D01*
X191027359Y-75506793D01*
X191051438Y-75551842D01*
X191070995Y-75599056D01*
X191099386Y-75641546D01*
X191123466Y-75686597D01*
X191155872Y-75726084D01*
X191184263Y-75768574D01*
X191220397Y-75804708D01*
X191252804Y-75844196D01*
X191292292Y-75876603D01*
X191328426Y-75912737D01*
X191370916Y-75941128D01*
X191410403Y-75973534D01*
X191455454Y-75997614D01*
X191497944Y-76026005D01*
X191545158Y-76045562D01*
X191590207Y-76069641D01*
X191639087Y-76084469D01*
X191686302Y-76104026D01*
X191736423Y-76113996D01*
X191785305Y-76128824D01*
X191836143Y-76133831D01*
X191886261Y-76143800D01*
X192937372Y-76143800D01*
X192988200Y-76148806D01*
X193039028Y-76143800D01*
X193039038Y-76143800D01*
X193191095Y-76128824D01*
X193386193Y-76069641D01*
X193565997Y-75973534D01*
X193723596Y-75844196D01*
X193756007Y-75804703D01*
X195467908Y-74092803D01*
X195507396Y-74060396D01*
X195539803Y-74020908D01*
X195636734Y-73902798D01*
X195722501Y-73742337D01*
X195732841Y-73722993D01*
X195792024Y-73527895D01*
X195807000Y-73375838D01*
X195807000Y-73375829D01*
X195812006Y-73325001D01*
X195807000Y-73274173D01*
X195807000Y-70447311D01*
X195922737Y-70331574D01*
X195925225Y-70327851D01*
X197569200Y-71971826D01*
X197569200Y-72210739D01*
X197579169Y-72260858D01*
X197584176Y-72311694D01*
X197599004Y-72360574D01*
X197608974Y-72410698D01*
X197628532Y-72457916D01*
X197643359Y-72506792D01*
X197667437Y-72551839D01*
X197686995Y-72599056D01*
X197715386Y-72641547D01*
X197739466Y-72686597D01*
X197771872Y-72726084D01*
X197800263Y-72768574D01*
X197836397Y-72804708D01*
X197868804Y-72844196D01*
X197908292Y-72876603D01*
X197944426Y-72912737D01*
X197986916Y-72941128D01*
X198026403Y-72973534D01*
X198071454Y-72997614D01*
X198113944Y-73026005D01*
X198161158Y-73045562D01*
X198206207Y-73069641D01*
X198255087Y-73084469D01*
X198302302Y-73104026D01*
X198352423Y-73113996D01*
X198401305Y-73128824D01*
X198452143Y-73133831D01*
X198502261Y-73143800D01*
X198553362Y-73143800D01*
X198604200Y-73148807D01*
X198655038Y-73143800D01*
X198706139Y-73143800D01*
X198756258Y-73133831D01*
X198807094Y-73128824D01*
X198855974Y-73113996D01*
X198906098Y-73104026D01*
X198953316Y-73084468D01*
X199002192Y-73069641D01*
X199047239Y-73045563D01*
X199094456Y-73026005D01*
X199136947Y-72997614D01*
X199181997Y-72973534D01*
X199221484Y-72941128D01*
X199263974Y-72912737D01*
X199300108Y-72876603D01*
X199339596Y-72844196D01*
X199372003Y-72804708D01*
X199408137Y-72768574D01*
X199436528Y-72726084D01*
X199468934Y-72686597D01*
X199493014Y-72641546D01*
X199521405Y-72599056D01*
X199540962Y-72551842D01*
X199565041Y-72506793D01*
X199579869Y-72457913D01*
X199599426Y-72410698D01*
X199609396Y-72360577D01*
X199624224Y-72311695D01*
X199629231Y-72260857D01*
X199639200Y-72210739D01*
X199639200Y-71593950D01*
X199644207Y-71543115D01*
X199633316Y-71432536D01*
X199624224Y-71340221D01*
X199565041Y-71145123D01*
X199534144Y-71087318D01*
X199468934Y-70965317D01*
X199372003Y-70847207D01*
X199339596Y-70807719D01*
X199300108Y-70775312D01*
X193446562Y-64921767D01*
X193414151Y-64882274D01*
X193256552Y-64752936D01*
X193076748Y-64656829D01*
X192881650Y-64597646D01*
X192729593Y-64582670D01*
X192729583Y-64582670D01*
X192678755Y-64577664D01*
X192627927Y-64582670D01*
X159457391Y-64582670D01*
X159407273Y-64592639D01*
X159356435Y-64597646D01*
X159307553Y-64612474D01*
X159257432Y-64622444D01*
X159210217Y-64642001D01*
X159161337Y-64656829D01*
X159116288Y-64680908D01*
X159069074Y-64700465D01*
X159026584Y-64728856D01*
X158981533Y-64752936D01*
X158942046Y-64785342D01*
X158899556Y-64813733D01*
X158863422Y-64849867D01*
X158823934Y-64882274D01*
X158791527Y-64921762D01*
X158755393Y-64957896D01*
X158727002Y-65000386D01*
X158694596Y-65039873D01*
X158670516Y-65084924D01*
X158642125Y-65127414D01*
X158622568Y-65174628D01*
X158598489Y-65219677D01*
X158583661Y-65268557D01*
X158564104Y-65315772D01*
X158554134Y-65365893D01*
X158539306Y-65414775D01*
X158534299Y-65465613D01*
X158524330Y-65515731D01*
X158524330Y-65566832D01*
X158519323Y-65617670D01*
X158524330Y-65668508D01*
X158524330Y-65719609D01*
X158534299Y-65769727D01*
X158539306Y-65820565D01*
X158554134Y-65869447D01*
X158564104Y-65919568D01*
X158583661Y-65966783D01*
X158598489Y-66015663D01*
X158622568Y-66060712D01*
X158642125Y-66107926D01*
X158670516Y-66150416D01*
X158694596Y-66195467D01*
X158727002Y-66234954D01*
X158755393Y-66277444D01*
X158791526Y-66313577D01*
X158823934Y-66353066D01*
X158863422Y-66385473D01*
X158899556Y-66421607D01*
X158942046Y-66449998D01*
X158981533Y-66482404D01*
X159026584Y-66506484D01*
X159069074Y-66534875D01*
X159116288Y-66554432D01*
X159161337Y-66578511D01*
X159175113Y-66582690D01*
X152740137Y-66582690D01*
X152689309Y-66577684D01*
X152638481Y-66582690D01*
X152638472Y-66582690D01*
X152486415Y-66597666D01*
X152291317Y-66656849D01*
X152111513Y-66752956D01*
X151953914Y-66882294D01*
X151921507Y-66921782D01*
X151206092Y-67637198D01*
X151166605Y-67669604D01*
X151134198Y-67709092D01*
X151134197Y-67709093D01*
X151037266Y-67827203D01*
X150941160Y-68007007D01*
X150881977Y-68202105D01*
X150861994Y-68405000D01*
X150867001Y-68455838D01*
X150867000Y-79569391D01*
X150778890Y-79538524D01*
X150549000Y-79659845D01*
X150549000Y-80978000D01*
X150569000Y-80978000D01*
X150569000Y-81232000D01*
X150549000Y-81232000D01*
X150549000Y-81252000D01*
X150295000Y-81252000D01*
X150295000Y-81232000D01*
X150275000Y-81232000D01*
X150275000Y-80978000D01*
X150295000Y-80978000D01*
X150295000Y-79659845D01*
X150065110Y-79538524D01*
X149802142Y-79630648D01*
X149550807Y-79777504D01*
X149332951Y-79970571D01*
X149176462Y-80176722D01*
X149162706Y-80150986D01*
X148977134Y-79924866D01*
X148957000Y-79908343D01*
X148957000Y-77001827D01*
X148962006Y-76950999D01*
X148957000Y-76900171D01*
X148957000Y-76900162D01*
X148942024Y-76748105D01*
X148882841Y-76553007D01*
X148838047Y-76469203D01*
X148786734Y-76373202D01*
X148689803Y-76255092D01*
X148657396Y-76215604D01*
X148617908Y-76183197D01*
X147963807Y-75529097D01*
X147931396Y-75489604D01*
X147773797Y-75360266D01*
X147593993Y-75264159D01*
X147398895Y-75204976D01*
X147246838Y-75190000D01*
X147246828Y-75190000D01*
X147196000Y-75184994D01*
X147145172Y-75190000D01*
X121084835Y-75190000D01*
X121034000Y-75184993D01*
X120983165Y-75190000D01*
X120983162Y-75190000D01*
X120831105Y-75204976D01*
X120699538Y-75244887D01*
X120636006Y-75264159D01*
X120456202Y-75360266D01*
X120394751Y-75410698D01*
X120298604Y-75489604D01*
X120266197Y-75529092D01*
X119516092Y-76279198D01*
X119476605Y-76311604D01*
X119444198Y-76351092D01*
X119444197Y-76351093D01*
X119347266Y-76469203D01*
X119251160Y-76649007D01*
X119191977Y-76844105D01*
X119171994Y-77047000D01*
X119177001Y-77097837D01*
X119177001Y-77262024D01*
X119165038Y-77273987D01*
X119018939Y-77492641D01*
X118932000Y-77702530D01*
X118845061Y-77492641D01*
X118698962Y-77273987D01*
X118513013Y-77088038D01*
X118294359Y-76941939D01*
X118051405Y-76841304D01*
X117793486Y-76790000D01*
X117530514Y-76790000D01*
X117272595Y-76841304D01*
X117029641Y-76941939D01*
X116810987Y-77088038D01*
X116625038Y-77273987D01*
X116478939Y-77492641D01*
X116392000Y-77702530D01*
X116305061Y-77492641D01*
X116158962Y-77273987D01*
X115973013Y-77088038D01*
X115754359Y-76941939D01*
X115511405Y-76841304D01*
X115253486Y-76790000D01*
X114990514Y-76790000D01*
X114732595Y-76841304D01*
X114489641Y-76941939D01*
X114270987Y-77088038D01*
X114085038Y-77273987D01*
X113938939Y-77492641D01*
X113850379Y-77706444D01*
X113790935Y-77543634D01*
X113737037Y-77442797D01*
X113503269Y-77383336D01*
X112761605Y-78125000D01*
X113503269Y-78866664D01*
X113737037Y-78807203D01*
X113847934Y-78568758D01*
X113852706Y-78549173D01*
X113938939Y-78757359D01*
X114085038Y-78976013D01*
X114270987Y-79161962D01*
X114489641Y-79308061D01*
X114699530Y-79395000D01*
X114489641Y-79481939D01*
X114270987Y-79628038D01*
X114085038Y-79813987D01*
X113938939Y-80032641D01*
X113852000Y-80242530D01*
X113765061Y-80032641D01*
X113618962Y-79813987D01*
X113433013Y-79628038D01*
X113214359Y-79481939D01*
X113000556Y-79393379D01*
X113163366Y-79333935D01*
X113264203Y-79280037D01*
X113323664Y-79046269D01*
X112582000Y-78304605D01*
X111840336Y-79046269D01*
X111899797Y-79280037D01*
X112138242Y-79390934D01*
X112157827Y-79395706D01*
X111949641Y-79481939D01*
X111730987Y-79628038D01*
X111545038Y-79813987D01*
X111398939Y-80032641D01*
X111298304Y-80275595D01*
X111247000Y-80533514D01*
X111247000Y-80796486D01*
X111298304Y-81054405D01*
X111398939Y-81297359D01*
X111545038Y-81516013D01*
X111730987Y-81701962D01*
X111949641Y-81848061D01*
X112192595Y-81948696D01*
X112450514Y-82000000D01*
X112713486Y-82000000D01*
X112971405Y-81948696D01*
X113214359Y-81848061D01*
X113433013Y-81701962D01*
X113618962Y-81516013D01*
X113765061Y-81297359D01*
X113852000Y-81087470D01*
X113938939Y-81297359D01*
X114085038Y-81516013D01*
X114270987Y-81701962D01*
X114489641Y-81848061D01*
X114732595Y-81948696D01*
X114990514Y-82000000D01*
X115253486Y-82000000D01*
X115511405Y-81948696D01*
X115754359Y-81848061D01*
X115973013Y-81701962D01*
X116158962Y-81516013D01*
X116305061Y-81297359D01*
X116392000Y-81087470D01*
X116478939Y-81297359D01*
X116625038Y-81516013D01*
X116697001Y-81587976D01*
X116697001Y-82003463D01*
X116691994Y-82054300D01*
X116711977Y-82257195D01*
X116771160Y-82452293D01*
X116867266Y-82632097D01*
X116964197Y-82750207D01*
X116996605Y-82789696D01*
X117036093Y-82822103D01*
X126723175Y-92509186D01*
X126813704Y-92619496D01*
X126853197Y-92651907D01*
X127773863Y-93572574D01*
X127918026Y-93716737D01*
X127960516Y-93745128D01*
X128000002Y-93777533D01*
X128045051Y-93801612D01*
X128049023Y-93804266D01*
X119516097Y-102337193D01*
X119476604Y-102369604D01*
X119413915Y-102445991D01*
X119350987Y-102488038D01*
X119165038Y-102673987D01*
X119018939Y-102892641D01*
X118932000Y-103102530D01*
X118845061Y-102892641D01*
X118698962Y-102673987D01*
X118513013Y-102488038D01*
X118294359Y-102341939D01*
X118051405Y-102241304D01*
X117793486Y-102190000D01*
X117530514Y-102190000D01*
X117272595Y-102241304D01*
X117029641Y-102341939D01*
X116810987Y-102488038D01*
X116625038Y-102673987D01*
X116478939Y-102892641D01*
X116392000Y-103102530D01*
X116305061Y-102892641D01*
X116158962Y-102673987D01*
X115973013Y-102488038D01*
X115754359Y-102341939D01*
X115511405Y-102241304D01*
X115253486Y-102190000D01*
X114990514Y-102190000D01*
X114732595Y-102241304D01*
X114489641Y-102341939D01*
X114270987Y-102488038D01*
X114085038Y-102673987D01*
X113938939Y-102892641D01*
X113852000Y-103102530D01*
X113765061Y-102892641D01*
X113618962Y-102673987D01*
X113433013Y-102488038D01*
X113214359Y-102341939D01*
X112971405Y-102241304D01*
X112713486Y-102190000D01*
X112450514Y-102190000D01*
X112192595Y-102241304D01*
X111949641Y-102341939D01*
X111730987Y-102488038D01*
X111545038Y-102673987D01*
X111398939Y-102892641D01*
X111298304Y-103135595D01*
X111247000Y-103393514D01*
X111247000Y-103656486D01*
X111298304Y-103914405D01*
X111398939Y-104157359D01*
X111545038Y-104376013D01*
X111730987Y-104561962D01*
X111949641Y-104708061D01*
X112163444Y-104796621D01*
X112000634Y-104856065D01*
X111899797Y-104909963D01*
X111840336Y-105143731D01*
X112582000Y-105885395D01*
X113323664Y-105143731D01*
X113264203Y-104909963D01*
X113025758Y-104799066D01*
X113006173Y-104794294D01*
X113214359Y-104708061D01*
X113433013Y-104561962D01*
X113618962Y-104376013D01*
X113765061Y-104157359D01*
X113852000Y-103947470D01*
X113938939Y-104157359D01*
X114085038Y-104376013D01*
X114270987Y-104561962D01*
X114489641Y-104708061D01*
X114699530Y-104795000D01*
X114489641Y-104881939D01*
X114270987Y-105028038D01*
X114085038Y-105213987D01*
X113938939Y-105432641D01*
X113850379Y-105646444D01*
X113790935Y-105483634D01*
X113737037Y-105382797D01*
X113503269Y-105323336D01*
X112761605Y-106065000D01*
X113503269Y-106806664D01*
X113737037Y-106747203D01*
X113847934Y-106508758D01*
X113852706Y-106489173D01*
X113938939Y-106697359D01*
X114085038Y-106916013D01*
X114270987Y-107101962D01*
X114489641Y-107248061D01*
X114732595Y-107348696D01*
X114990514Y-107400000D01*
X115253486Y-107400000D01*
X115511405Y-107348696D01*
X115754359Y-107248061D01*
X115973013Y-107101962D01*
X116158962Y-106916013D01*
X116305061Y-106697359D01*
X116392000Y-106487470D01*
X116478939Y-106697359D01*
X116625038Y-106916013D01*
X116810987Y-107101962D01*
X117029641Y-107248061D01*
X117272595Y-107348696D01*
X117530514Y-107400000D01*
X117793486Y-107400000D01*
X118051405Y-107348696D01*
X118167001Y-107300815D01*
X118167001Y-108137172D01*
X118162960Y-108178200D01*
X118179082Y-108341888D01*
X118226828Y-108499286D01*
X118304364Y-108644345D01*
X118318294Y-108661319D01*
X118408710Y-108771491D01*
X118440574Y-108797641D01*
X118616160Y-108973227D01*
X111004810Y-108969374D01*
X110995860Y-106986269D01*
X111840336Y-106986269D01*
X111899797Y-107220037D01*
X112138242Y-107330934D01*
X112393740Y-107393183D01*
X112656473Y-107404390D01*
X112916344Y-107364125D01*
X113163366Y-107273935D01*
X113264203Y-107220037D01*
X113323664Y-106986269D01*
X112582000Y-106244605D01*
X111840336Y-106986269D01*
X110995860Y-106986269D01*
X110992037Y-106139473D01*
X111242610Y-106139473D01*
X111282875Y-106399344D01*
X111373065Y-106646366D01*
X111426963Y-106747203D01*
X111660731Y-106806664D01*
X112402395Y-106065000D01*
X111660731Y-105323336D01*
X111426963Y-105382797D01*
X111316066Y-105621242D01*
X111253817Y-105876740D01*
X111242610Y-106139473D01*
X110992037Y-106139473D01*
X110865919Y-78199473D01*
X111242610Y-78199473D01*
X111282875Y-78459344D01*
X111373065Y-78706366D01*
X111426963Y-78807203D01*
X111660731Y-78866664D01*
X112402395Y-78125000D01*
X111660731Y-77383336D01*
X111426963Y-77442797D01*
X111316066Y-77681242D01*
X111253817Y-77936740D01*
X111242610Y-78199473D01*
X110865919Y-78199473D01*
X110861499Y-77220484D01*
X110859805Y-77203731D01*
X111840336Y-77203731D01*
X112582000Y-77945395D01*
X113323664Y-77203731D01*
X113264203Y-76969963D01*
X113025758Y-76859066D01*
X112770260Y-76796817D01*
X112507527Y-76785610D01*
X112247656Y-76825875D01*
X112000634Y-76916065D01*
X111899797Y-76969963D01*
X111840336Y-77203731D01*
X110859805Y-77203731D01*
X110859042Y-77196194D01*
X110851799Y-77172375D01*
X110840047Y-77150426D01*
X110824240Y-77131192D01*
X110804984Y-77115411D01*
X110783019Y-77103690D01*
X110759190Y-77096480D01*
X110734412Y-77094057D01*
X102292022Y-77099936D01*
X102295856Y-73321000D01*
X113321328Y-73321000D01*
X113333588Y-73445482D01*
X113369898Y-73565180D01*
X113428863Y-73675494D01*
X113508215Y-73772185D01*
X113604906Y-73851537D01*
X113715220Y-73910502D01*
X113834918Y-73946812D01*
X113959400Y-73959072D01*
X114423650Y-73956000D01*
X114582400Y-73797250D01*
X114582400Y-72923000D01*
X114836400Y-72923000D01*
X114836400Y-73797250D01*
X114995150Y-73956000D01*
X115459400Y-73959072D01*
X115583882Y-73946812D01*
X115703580Y-73910502D01*
X115813894Y-73851537D01*
X115910585Y-73772185D01*
X115989937Y-73675494D01*
X116048902Y-73565180D01*
X116085212Y-73445482D01*
X116097472Y-73321000D01*
X116094400Y-73081750D01*
X115935650Y-72923000D01*
X114836400Y-72923000D01*
X114582400Y-72923000D01*
X113483150Y-72923000D01*
X113324400Y-73081750D01*
X113321328Y-73321000D01*
X102295856Y-73321000D01*
X102298966Y-70256000D01*
X113318788Y-70256000D01*
X113341185Y-70483400D01*
X113407515Y-70702060D01*
X113508505Y-70891000D01*
X113407515Y-71079940D01*
X113341185Y-71298600D01*
X113318788Y-71526000D01*
X113341185Y-71753400D01*
X113404493Y-71962098D01*
X113369898Y-72026820D01*
X113333588Y-72146518D01*
X113321328Y-72271000D01*
X113324400Y-72510250D01*
X113483150Y-72669000D01*
X114256291Y-72669000D01*
X114257000Y-72669215D01*
X114427421Y-72686000D01*
X114991379Y-72686000D01*
X115161800Y-72669215D01*
X115162509Y-72669000D01*
X115935650Y-72669000D01*
X116094400Y-72510250D01*
X116095122Y-72454000D01*
X120612728Y-72454000D01*
X120612728Y-74154000D01*
X120624988Y-74278482D01*
X120661298Y-74398180D01*
X120720263Y-74508494D01*
X120799615Y-74605185D01*
X120896306Y-74684537D01*
X121006620Y-74743502D01*
X121126318Y-74779812D01*
X121250800Y-74792072D01*
X122950800Y-74792072D01*
X123075282Y-74779812D01*
X123194980Y-74743502D01*
X123305294Y-74684537D01*
X123401985Y-74605185D01*
X123481337Y-74508494D01*
X123540302Y-74398180D01*
X123576612Y-74278482D01*
X123588872Y-74154000D01*
X123588872Y-72454000D01*
X123576612Y-72329518D01*
X123540302Y-72209820D01*
X123481337Y-72099506D01*
X123470511Y-72086314D01*
X138242500Y-72086314D01*
X138242500Y-72337285D01*
X138265470Y-72570503D01*
X138356245Y-72869748D01*
X138503655Y-73145534D01*
X138702037Y-73387263D01*
X138943765Y-73585645D01*
X139219551Y-73733055D01*
X139518796Y-73823830D01*
X139830000Y-73854481D01*
X140141203Y-73823830D01*
X140440448Y-73733055D01*
X140716234Y-73585645D01*
X140957963Y-73387263D01*
X141105163Y-73207901D01*
X141260563Y-73393115D01*
X141503077Y-73587769D01*
X141778906Y-73731371D01*
X141997020Y-73802363D01*
X142243000Y-73682394D01*
X142243000Y-72338800D01*
X142223000Y-72338800D01*
X142223000Y-72084800D01*
X142243000Y-72084800D01*
X142243000Y-70741206D01*
X142497000Y-70741206D01*
X142497000Y-72084800D01*
X142517000Y-72084800D01*
X142517000Y-72338800D01*
X142497000Y-72338800D01*
X142497000Y-73682394D01*
X142742980Y-73802363D01*
X142961094Y-73731371D01*
X143236923Y-73587769D01*
X143377941Y-73474581D01*
X143426963Y-73566294D01*
X143506315Y-73662985D01*
X143603006Y-73742337D01*
X143713320Y-73801302D01*
X143833018Y-73837612D01*
X143957500Y-73849872D01*
X145862500Y-73849872D01*
X145986982Y-73837612D01*
X146106680Y-73801302D01*
X146216994Y-73742337D01*
X146313685Y-73662985D01*
X146393037Y-73566294D01*
X146452002Y-73455980D01*
X146488312Y-73336282D01*
X146500572Y-73211800D01*
X146500572Y-71211800D01*
X146488312Y-71087318D01*
X146452002Y-70967620D01*
X146393037Y-70857306D01*
X146313685Y-70760615D01*
X146216994Y-70681263D01*
X146106680Y-70622298D01*
X145986982Y-70585988D01*
X145862500Y-70573728D01*
X143957500Y-70573728D01*
X143833018Y-70585988D01*
X143713320Y-70622298D01*
X143603006Y-70681263D01*
X143506315Y-70760615D01*
X143426963Y-70857306D01*
X143377941Y-70949019D01*
X143236923Y-70835831D01*
X142961094Y-70692229D01*
X142742980Y-70621237D01*
X142497000Y-70741206D01*
X142243000Y-70741206D01*
X141997020Y-70621237D01*
X141778906Y-70692229D01*
X141503077Y-70835831D01*
X141260563Y-71030485D01*
X141105162Y-71215700D01*
X140957963Y-71036337D01*
X140716235Y-70837955D01*
X140440449Y-70690545D01*
X140141204Y-70599770D01*
X139830000Y-70569119D01*
X139518797Y-70599770D01*
X139219552Y-70690545D01*
X138943766Y-70837955D01*
X138702037Y-71036337D01*
X138503655Y-71278065D01*
X138356245Y-71553851D01*
X138265470Y-71853096D01*
X138242500Y-72086314D01*
X123470511Y-72086314D01*
X123401985Y-72002815D01*
X123305294Y-71923463D01*
X123194980Y-71864498D01*
X123075282Y-71828188D01*
X122950800Y-71815928D01*
X121250800Y-71815928D01*
X121126318Y-71828188D01*
X121006620Y-71864498D01*
X120896306Y-71923463D01*
X120799615Y-72002815D01*
X120720263Y-72099506D01*
X120661298Y-72209820D01*
X120624988Y-72329518D01*
X120612728Y-72454000D01*
X116095122Y-72454000D01*
X116097472Y-72271000D01*
X116085212Y-72146518D01*
X116048902Y-72026820D01*
X116014307Y-71962098D01*
X116077615Y-71753400D01*
X116100012Y-71526000D01*
X116077615Y-71298600D01*
X116011285Y-71079940D01*
X115910295Y-70891000D01*
X116011285Y-70702060D01*
X116077615Y-70483400D01*
X116100012Y-70256000D01*
X116077615Y-70028600D01*
X116011285Y-69809940D01*
X115903571Y-69608421D01*
X115758612Y-69431788D01*
X115581979Y-69286829D01*
X115380460Y-69179115D01*
X115161800Y-69112785D01*
X114991379Y-69096000D01*
X114427421Y-69096000D01*
X114257000Y-69112785D01*
X114038340Y-69179115D01*
X113836821Y-69286829D01*
X113660188Y-69431788D01*
X113515229Y-69608421D01*
X113407515Y-69809940D01*
X113341185Y-70028600D01*
X113318788Y-70256000D01*
X102298966Y-70256000D01*
X102306304Y-63024419D01*
X107867000Y-63024419D01*
X107867000Y-63405581D01*
X107941361Y-63779419D01*
X108087225Y-64131566D01*
X108298987Y-64448491D01*
X108568509Y-64718013D01*
X108885434Y-64929775D01*
X109237581Y-65075639D01*
X109611419Y-65150000D01*
X109992581Y-65150000D01*
X110366419Y-65075639D01*
X110718566Y-64929775D01*
X111035491Y-64718013D01*
X111305013Y-64448491D01*
X111516775Y-64131566D01*
X111662639Y-63779419D01*
X111737000Y-63405581D01*
X111737000Y-63024419D01*
X111662639Y-62650581D01*
X111516775Y-62298434D01*
X111305013Y-61981509D01*
X111035491Y-61711987D01*
X110718566Y-61500225D01*
X110366419Y-61354361D01*
X109992581Y-61280000D01*
X109611419Y-61280000D01*
X109237581Y-61354361D01*
X108885434Y-61500225D01*
X108568509Y-61711987D01*
X108298987Y-61981509D01*
X108087225Y-62298434D01*
X107941361Y-62650581D01*
X107867000Y-63024419D01*
X102306304Y-63024419D01*
X102309865Y-59515000D01*
X107863928Y-59515000D01*
X107876188Y-59639482D01*
X107912498Y-59759180D01*
X107971463Y-59869494D01*
X108050815Y-59966185D01*
X108147506Y-60045537D01*
X108257820Y-60104502D01*
X108377518Y-60140812D01*
X108502000Y-60153072D01*
X109516250Y-60150000D01*
X109675000Y-59991250D01*
X109675000Y-58342000D01*
X109929000Y-58342000D01*
X109929000Y-59991250D01*
X110087750Y-60150000D01*
X111102000Y-60153072D01*
X111226482Y-60140812D01*
X111346180Y-60104502D01*
X111456494Y-60045537D01*
X111553185Y-59966185D01*
X111556684Y-59961921D01*
X114866400Y-59961921D01*
X114866400Y-60382479D01*
X114948447Y-60794956D01*
X115109388Y-61183502D01*
X115343037Y-61533183D01*
X115640417Y-61830563D01*
X115990098Y-62064212D01*
X116378644Y-62225153D01*
X116791121Y-62307200D01*
X117211679Y-62307200D01*
X117624156Y-62225153D01*
X118012702Y-62064212D01*
X118362383Y-61830563D01*
X118659763Y-61533183D01*
X118893412Y-61183502D01*
X119054353Y-60794956D01*
X119136400Y-60382479D01*
X119136400Y-59961921D01*
X137466400Y-59961921D01*
X137466400Y-60382479D01*
X137548447Y-60794956D01*
X137709388Y-61183502D01*
X137943037Y-61533183D01*
X138240417Y-61830563D01*
X138590098Y-62064212D01*
X138978644Y-62225153D01*
X139391121Y-62307200D01*
X139811679Y-62307200D01*
X140224156Y-62225153D01*
X140612702Y-62064212D01*
X140962383Y-61830563D01*
X141055601Y-61737345D01*
X141055601Y-63029662D01*
X141050594Y-63080500D01*
X141070577Y-63283395D01*
X141129760Y-63478493D01*
X141225866Y-63658297D01*
X141280949Y-63725415D01*
X141299363Y-63752974D01*
X141322803Y-63776414D01*
X141355205Y-63815896D01*
X141394687Y-63848298D01*
X141443526Y-63897137D01*
X141486017Y-63925529D01*
X141525503Y-63957934D01*
X141570554Y-63982014D01*
X141613044Y-64010405D01*
X141660258Y-64029962D01*
X141705307Y-64054041D01*
X141754184Y-64068867D01*
X141801402Y-64088426D01*
X141851532Y-64098397D01*
X141900406Y-64113223D01*
X141951235Y-64118229D01*
X142001361Y-64128200D01*
X142052465Y-64128200D01*
X142103300Y-64133207D01*
X142154135Y-64128200D01*
X142205239Y-64128200D01*
X142255364Y-64118230D01*
X142306195Y-64113223D01*
X142355070Y-64098397D01*
X142405198Y-64088426D01*
X142452415Y-64068868D01*
X142501293Y-64054041D01*
X142546342Y-64029962D01*
X142593556Y-64010405D01*
X142636046Y-63982014D01*
X142681097Y-63957934D01*
X142720584Y-63925528D01*
X142763074Y-63897137D01*
X142799208Y-63861003D01*
X142819069Y-63844703D01*
X142850355Y-63903235D01*
X143048737Y-64144963D01*
X143290465Y-64343345D01*
X143566251Y-64490755D01*
X143865496Y-64581530D01*
X144098714Y-64604500D01*
X144349686Y-64604500D01*
X144582904Y-64581530D01*
X144882149Y-64490755D01*
X145157935Y-64343345D01*
X145399663Y-64144963D01*
X145598045Y-63903235D01*
X145745455Y-63627449D01*
X145836230Y-63328204D01*
X145866881Y-63017000D01*
X145836230Y-62705796D01*
X145745455Y-62406551D01*
X145598045Y-62130765D01*
X145399663Y-61889037D01*
X145226591Y-61747000D01*
X145399663Y-61604963D01*
X145598045Y-61363235D01*
X145745455Y-61087449D01*
X145836230Y-60788204D01*
X145866881Y-60477000D01*
X145836230Y-60165796D01*
X145749336Y-59879344D01*
X162107000Y-59879344D01*
X162107000Y-60250656D01*
X162179439Y-60614834D01*
X162321534Y-60957882D01*
X162527825Y-61266618D01*
X162790382Y-61529175D01*
X163099118Y-61735466D01*
X163442166Y-61877561D01*
X163806344Y-61950000D01*
X164177656Y-61950000D01*
X164541834Y-61877561D01*
X164884882Y-61735466D01*
X165193618Y-61529175D01*
X165456175Y-61266618D01*
X165662466Y-60957882D01*
X165804561Y-60614834D01*
X165877000Y-60250656D01*
X165877000Y-59879344D01*
X165804561Y-59515166D01*
X165662466Y-59172118D01*
X165456175Y-58863382D01*
X165407793Y-58815000D01*
X167183928Y-58815000D01*
X167183928Y-61315000D01*
X167196188Y-61439482D01*
X167232498Y-61559180D01*
X167291463Y-61669494D01*
X167370815Y-61766185D01*
X167467506Y-61845537D01*
X167577820Y-61904502D01*
X167697518Y-61940812D01*
X167822000Y-61953072D01*
X170322000Y-61953072D01*
X170446482Y-61940812D01*
X170566180Y-61904502D01*
X170676494Y-61845537D01*
X170773185Y-61766185D01*
X170852537Y-61669494D01*
X170911502Y-61559180D01*
X170947812Y-61439482D01*
X170960072Y-61315000D01*
X170960072Y-59879344D01*
X172277000Y-59879344D01*
X172277000Y-60250656D01*
X172349439Y-60614834D01*
X172491534Y-60957882D01*
X172697825Y-61266618D01*
X172960382Y-61529175D01*
X173269118Y-61735466D01*
X173612166Y-61877561D01*
X173976344Y-61950000D01*
X174347656Y-61950000D01*
X174711834Y-61877561D01*
X175054882Y-61735466D01*
X175363618Y-61529175D01*
X175626175Y-61266618D01*
X175832466Y-60957882D01*
X175974561Y-60614834D01*
X176047000Y-60250656D01*
X176047000Y-59879344D01*
X175974561Y-59515166D01*
X175832466Y-59172118D01*
X175626175Y-58863382D01*
X175577793Y-58815000D01*
X177353928Y-58815000D01*
X177353928Y-61315000D01*
X177366188Y-61439482D01*
X177402498Y-61559180D01*
X177461463Y-61669494D01*
X177540815Y-61766185D01*
X177637506Y-61845537D01*
X177747820Y-61904502D01*
X177867518Y-61940812D01*
X177992000Y-61953072D01*
X180492000Y-61953072D01*
X180616482Y-61940812D01*
X180736180Y-61904502D01*
X180846494Y-61845537D01*
X180943185Y-61766185D01*
X181022537Y-61669494D01*
X181081502Y-61559180D01*
X181117812Y-61439482D01*
X181130072Y-61315000D01*
X181130072Y-59879344D01*
X182437000Y-59879344D01*
X182437000Y-60250656D01*
X182509439Y-60614834D01*
X182651534Y-60957882D01*
X182857825Y-61266618D01*
X183120382Y-61529175D01*
X183429118Y-61735466D01*
X183772166Y-61877561D01*
X184136344Y-61950000D01*
X184507656Y-61950000D01*
X184871834Y-61877561D01*
X185214882Y-61735466D01*
X185523618Y-61529175D01*
X185786175Y-61266618D01*
X185992466Y-60957882D01*
X186134561Y-60614834D01*
X186207000Y-60250656D01*
X186207000Y-59879344D01*
X186134561Y-59515166D01*
X185992466Y-59172118D01*
X185786175Y-58863382D01*
X185737793Y-58815000D01*
X187513928Y-58815000D01*
X187513928Y-61315000D01*
X187526188Y-61439482D01*
X187562498Y-61559180D01*
X187621463Y-61669494D01*
X187700815Y-61766185D01*
X187797506Y-61845537D01*
X187907820Y-61904502D01*
X188027518Y-61940812D01*
X188152000Y-61953072D01*
X190652000Y-61953072D01*
X190776482Y-61940812D01*
X190896180Y-61904502D01*
X191006494Y-61845537D01*
X191103185Y-61766185D01*
X191182537Y-61669494D01*
X191241502Y-61559180D01*
X191277812Y-61439482D01*
X191290072Y-61315000D01*
X191290072Y-59879344D01*
X192607000Y-59879344D01*
X192607000Y-60250656D01*
X192679439Y-60614834D01*
X192821534Y-60957882D01*
X193027825Y-61266618D01*
X193290382Y-61529175D01*
X193599118Y-61735466D01*
X193942166Y-61877561D01*
X194306344Y-61950000D01*
X194677656Y-61950000D01*
X195041834Y-61877561D01*
X195384882Y-61735466D01*
X195693618Y-61529175D01*
X195956175Y-61266618D01*
X196162466Y-60957882D01*
X196304561Y-60614834D01*
X196377000Y-60250656D01*
X196377000Y-59879344D01*
X196304561Y-59515166D01*
X196162466Y-59172118D01*
X195956175Y-58863382D01*
X195907793Y-58815000D01*
X197683928Y-58815000D01*
X197683928Y-61315000D01*
X197696188Y-61439482D01*
X197732498Y-61559180D01*
X197791463Y-61669494D01*
X197870815Y-61766185D01*
X197967506Y-61845537D01*
X198077820Y-61904502D01*
X198197518Y-61940812D01*
X198322000Y-61953072D01*
X200822000Y-61953072D01*
X200946482Y-61940812D01*
X201066180Y-61904502D01*
X201176494Y-61845537D01*
X201273185Y-61766185D01*
X201352537Y-61669494D01*
X201411502Y-61559180D01*
X201447812Y-61439482D01*
X201460072Y-61315000D01*
X201460072Y-58815000D01*
X201447812Y-58690518D01*
X201411502Y-58570820D01*
X201352537Y-58460506D01*
X201273185Y-58363815D01*
X201176494Y-58284463D01*
X201066180Y-58225498D01*
X200946482Y-58189188D01*
X200822000Y-58176928D01*
X198322000Y-58176928D01*
X198197518Y-58189188D01*
X198077820Y-58225498D01*
X197967506Y-58284463D01*
X197870815Y-58363815D01*
X197791463Y-58460506D01*
X197732498Y-58570820D01*
X197696188Y-58690518D01*
X197683928Y-58815000D01*
X195907793Y-58815000D01*
X195693618Y-58600825D01*
X195384882Y-58394534D01*
X195041834Y-58252439D01*
X194677656Y-58180000D01*
X194306344Y-58180000D01*
X193942166Y-58252439D01*
X193599118Y-58394534D01*
X193290382Y-58600825D01*
X193027825Y-58863382D01*
X192821534Y-59172118D01*
X192679439Y-59515166D01*
X192607000Y-59879344D01*
X191290072Y-59879344D01*
X191290072Y-58815000D01*
X191277812Y-58690518D01*
X191241502Y-58570820D01*
X191182537Y-58460506D01*
X191103185Y-58363815D01*
X191006494Y-58284463D01*
X190896180Y-58225498D01*
X190776482Y-58189188D01*
X190652000Y-58176928D01*
X188152000Y-58176928D01*
X188027518Y-58189188D01*
X187907820Y-58225498D01*
X187797506Y-58284463D01*
X187700815Y-58363815D01*
X187621463Y-58460506D01*
X187562498Y-58570820D01*
X187526188Y-58690518D01*
X187513928Y-58815000D01*
X185737793Y-58815000D01*
X185523618Y-58600825D01*
X185214882Y-58394534D01*
X184871834Y-58252439D01*
X184507656Y-58180000D01*
X184136344Y-58180000D01*
X183772166Y-58252439D01*
X183429118Y-58394534D01*
X183120382Y-58600825D01*
X182857825Y-58863382D01*
X182651534Y-59172118D01*
X182509439Y-59515166D01*
X182437000Y-59879344D01*
X181130072Y-59879344D01*
X181130072Y-58815000D01*
X181117812Y-58690518D01*
X181081502Y-58570820D01*
X181022537Y-58460506D01*
X180943185Y-58363815D01*
X180846494Y-58284463D01*
X180736180Y-58225498D01*
X180616482Y-58189188D01*
X180492000Y-58176928D01*
X177992000Y-58176928D01*
X177867518Y-58189188D01*
X177747820Y-58225498D01*
X177637506Y-58284463D01*
X177540815Y-58363815D01*
X177461463Y-58460506D01*
X177402498Y-58570820D01*
X177366188Y-58690518D01*
X177353928Y-58815000D01*
X175577793Y-58815000D01*
X175363618Y-58600825D01*
X175054882Y-58394534D01*
X174711834Y-58252439D01*
X174347656Y-58180000D01*
X173976344Y-58180000D01*
X173612166Y-58252439D01*
X173269118Y-58394534D01*
X172960382Y-58600825D01*
X172697825Y-58863382D01*
X172491534Y-59172118D01*
X172349439Y-59515166D01*
X172277000Y-59879344D01*
X170960072Y-59879344D01*
X170960072Y-58815000D01*
X170947812Y-58690518D01*
X170911502Y-58570820D01*
X170852537Y-58460506D01*
X170773185Y-58363815D01*
X170676494Y-58284463D01*
X170566180Y-58225498D01*
X170446482Y-58189188D01*
X170322000Y-58176928D01*
X167822000Y-58176928D01*
X167697518Y-58189188D01*
X167577820Y-58225498D01*
X167467506Y-58284463D01*
X167370815Y-58363815D01*
X167291463Y-58460506D01*
X167232498Y-58570820D01*
X167196188Y-58690518D01*
X167183928Y-58815000D01*
X165407793Y-58815000D01*
X165193618Y-58600825D01*
X164884882Y-58394534D01*
X164541834Y-58252439D01*
X164177656Y-58180000D01*
X163806344Y-58180000D01*
X163442166Y-58252439D01*
X163099118Y-58394534D01*
X162790382Y-58600825D01*
X162527825Y-58863382D01*
X162321534Y-59172118D01*
X162179439Y-59515166D01*
X162107000Y-59879344D01*
X145749336Y-59879344D01*
X145745455Y-59866551D01*
X145598045Y-59590765D01*
X145494754Y-59464905D01*
X145578694Y-59420037D01*
X145675385Y-59340685D01*
X145754737Y-59243994D01*
X145813702Y-59133680D01*
X145850012Y-59013982D01*
X145862272Y-58889500D01*
X145862272Y-56984500D01*
X145850012Y-56860018D01*
X145813702Y-56740320D01*
X145754737Y-56630006D01*
X145675385Y-56533315D01*
X145578694Y-56453963D01*
X145468380Y-56394998D01*
X145348682Y-56358688D01*
X145224200Y-56346428D01*
X143224200Y-56346428D01*
X143099718Y-56358688D01*
X142980020Y-56394998D01*
X142869706Y-56453963D01*
X142773015Y-56533315D01*
X142693663Y-56630006D01*
X142634698Y-56740320D01*
X142598388Y-56860018D01*
X142592967Y-56915059D01*
X142573505Y-56916976D01*
X142378407Y-56976159D01*
X142294709Y-57020896D01*
X142198602Y-57072266D01*
X142136713Y-57123058D01*
X142041004Y-57201604D01*
X142008593Y-57241097D01*
X141394697Y-57854993D01*
X141355204Y-57887404D01*
X141225866Y-58045003D01*
X141129759Y-58224808D01*
X141070576Y-58419906D01*
X141055600Y-58571963D01*
X141055600Y-58571972D01*
X141052455Y-58603909D01*
X140962383Y-58513837D01*
X140612702Y-58280188D01*
X140224156Y-58119247D01*
X139811679Y-58037200D01*
X139391121Y-58037200D01*
X138978644Y-58119247D01*
X138590098Y-58280188D01*
X138240417Y-58513837D01*
X137943037Y-58811217D01*
X137709388Y-59160898D01*
X137548447Y-59549444D01*
X137466400Y-59961921D01*
X119136400Y-59961921D01*
X119054353Y-59549444D01*
X118893412Y-59160898D01*
X118659763Y-58811217D01*
X118362383Y-58513837D01*
X118012702Y-58280188D01*
X117624156Y-58119247D01*
X117211679Y-58037200D01*
X116791121Y-58037200D01*
X116378644Y-58119247D01*
X115990098Y-58280188D01*
X115640417Y-58513837D01*
X115343037Y-58811217D01*
X115109388Y-59160898D01*
X114948447Y-59549444D01*
X114866400Y-59961921D01*
X111556684Y-59961921D01*
X111632537Y-59869494D01*
X111691502Y-59759180D01*
X111727812Y-59639482D01*
X111740072Y-59515000D01*
X111737000Y-58500750D01*
X111578250Y-58342000D01*
X109929000Y-58342000D01*
X109675000Y-58342000D01*
X108025750Y-58342000D01*
X107867000Y-58500750D01*
X107863928Y-59515000D01*
X102309865Y-59515000D01*
X102312503Y-56915000D01*
X107863928Y-56915000D01*
X107867000Y-57929250D01*
X108025750Y-58088000D01*
X109675000Y-58088000D01*
X109675000Y-56438750D01*
X109929000Y-56438750D01*
X109929000Y-58088000D01*
X111578250Y-58088000D01*
X111737000Y-57929250D01*
X111740072Y-56915000D01*
X111727812Y-56790518D01*
X111691502Y-56670820D01*
X111632537Y-56560506D01*
X111553185Y-56463815D01*
X111456494Y-56384463D01*
X111346180Y-56325498D01*
X111226482Y-56289188D01*
X111102000Y-56276928D01*
X110087750Y-56280000D01*
X109929000Y-56438750D01*
X109675000Y-56438750D01*
X109516250Y-56280000D01*
X108502000Y-56276928D01*
X108377518Y-56289188D01*
X108257820Y-56325498D01*
X108147506Y-56384463D01*
X108050815Y-56463815D01*
X107971463Y-56560506D01*
X107912498Y-56670820D01*
X107876188Y-56790518D01*
X107863928Y-56915000D01*
X102312503Y-56915000D01*
X102313365Y-56065859D01*
X102371300Y-55474991D01*
X102533066Y-54939198D01*
X102795819Y-54445031D01*
X103149553Y-54011310D01*
X103580793Y-53654557D01*
X104073119Y-53388358D01*
X104607765Y-53222857D01*
X105196256Y-53161005D01*
X205429913Y-53211782D01*
G37*
G04 #@! TD.AperFunction*
D27*
X129178939Y-78757359D02*
X129325038Y-78976013D01*
X129510987Y-79161962D01*
X129729641Y-79308061D01*
X129939530Y-79395000D01*
X129729641Y-79481939D01*
X129510987Y-79628038D01*
X129325038Y-79813987D01*
X129178939Y-80032641D01*
X129090379Y-80246444D01*
X129030935Y-80083634D01*
X128977037Y-79982797D01*
X128743269Y-79923336D01*
X128001605Y-80665000D01*
X128743269Y-81406664D01*
X128977037Y-81347203D01*
X129087934Y-81108758D01*
X129092706Y-81089173D01*
X129178939Y-81297359D01*
X129325038Y-81516013D01*
X129454035Y-81645010D01*
X128548723Y-81645010D01*
X128563664Y-81586269D01*
X127822000Y-80844605D01*
X127080336Y-81586269D01*
X127095277Y-81645010D01*
X126189965Y-81645010D01*
X126318962Y-81516013D01*
X126465061Y-81297359D01*
X126553621Y-81083556D01*
X126613065Y-81246366D01*
X126666963Y-81347203D01*
X126900731Y-81406664D01*
X127642395Y-80665000D01*
X126900731Y-79923336D01*
X126666963Y-79982797D01*
X126556066Y-80221242D01*
X126551294Y-80240827D01*
X126465061Y-80032641D01*
X126318962Y-79813987D01*
X126133013Y-79628038D01*
X125914359Y-79481939D01*
X125704470Y-79395000D01*
X125914359Y-79308061D01*
X126133013Y-79161962D01*
X126318962Y-78976013D01*
X126465061Y-78757359D01*
X126552000Y-78547470D01*
X126638939Y-78757359D01*
X126785038Y-78976013D01*
X126970987Y-79161962D01*
X127189641Y-79308061D01*
X127403444Y-79396621D01*
X127240634Y-79456065D01*
X127139797Y-79509963D01*
X127080336Y-79743731D01*
X127822000Y-80485395D01*
X128563664Y-79743731D01*
X128504203Y-79509963D01*
X128265758Y-79399066D01*
X128246173Y-79394294D01*
X128454359Y-79308061D01*
X128673013Y-79161962D01*
X128858962Y-78976013D01*
X129005061Y-78757359D01*
X129092000Y-78547470D01*
X129178939Y-78757359D01*
G04 #@! TA.AperFunction,Conductor*
D28*
G36*
X129178939Y-78757359D02*
G01*
X129325038Y-78976013D01*
X129510987Y-79161962D01*
X129729641Y-79308061D01*
X129939530Y-79395000D01*
X129729641Y-79481939D01*
X129510987Y-79628038D01*
X129325038Y-79813987D01*
X129178939Y-80032641D01*
X129090379Y-80246444D01*
X129030935Y-80083634D01*
X128977037Y-79982797D01*
X128743269Y-79923336D01*
X128001605Y-80665000D01*
X128743269Y-81406664D01*
X128977037Y-81347203D01*
X129087934Y-81108758D01*
X129092706Y-81089173D01*
X129178939Y-81297359D01*
X129325038Y-81516013D01*
X129454035Y-81645010D01*
X128548723Y-81645010D01*
X128563664Y-81586269D01*
X127822000Y-80844605D01*
X127080336Y-81586269D01*
X127095277Y-81645010D01*
X126189965Y-81645010D01*
X126318962Y-81516013D01*
X126465061Y-81297359D01*
X126553621Y-81083556D01*
X126613065Y-81246366D01*
X126666963Y-81347203D01*
X126900731Y-81406664D01*
X127642395Y-80665000D01*
X126900731Y-79923336D01*
X126666963Y-79982797D01*
X126556066Y-80221242D01*
X126551294Y-80240827D01*
X126465061Y-80032641D01*
X126318962Y-79813987D01*
X126133013Y-79628038D01*
X125914359Y-79481939D01*
X125704470Y-79395000D01*
X125914359Y-79308061D01*
X126133013Y-79161962D01*
X126318962Y-78976013D01*
X126465061Y-78757359D01*
X126552000Y-78547470D01*
X126638939Y-78757359D01*
X126785038Y-78976013D01*
X126970987Y-79161962D01*
X127189641Y-79308061D01*
X127403444Y-79396621D01*
X127240634Y-79456065D01*
X127139797Y-79509963D01*
X127080336Y-79743731D01*
X127822000Y-80485395D01*
X128563664Y-79743731D01*
X128504203Y-79509963D01*
X128265758Y-79399066D01*
X128246173Y-79394294D01*
X128454359Y-79308061D01*
X128673013Y-79161962D01*
X128858962Y-78976013D01*
X129005061Y-78757359D01*
X129092000Y-78547470D01*
X129178939Y-78757359D01*
G37*
G04 #@! TD.AperFunction*
M02*
