M48
METRIC,TZ
T1C0.400
T2C0.750
T3C0.800
T4C0.950
T5C1.000
T6C1.100
T7C1.300
T8C1.500
T9C1.520
%
G90
G05
T1
X107702Y-63895
X107772Y-53226
X107950Y-74054
X118631Y-82334
X118702Y-98895
X120929Y-73406
X121452Y-106395
X125311Y-54496
X126702Y-90645
X127702Y-64395
X130200Y-81556
X131839Y-59919
X132258Y-90983
X133668Y-89548
X134366Y-98171
X137859Y-97930
X138735Y-64427
X139195Y-89532
X139256Y-54585
X140310Y-88532
X140452Y-72145
X141189Y-83556
X143702Y-86395
X144590Y-90983
X145783Y-61163
X145796Y-94996
X145936Y-83556
X146726Y-92034
X148202Y-86895
X148353Y-90974
X152984Y-80556
X153022Y-54648
X156158Y-68678
X162188Y-90974
X163195Y-53632
X163218Y-63688
X163218Y-67691
X164389Y-67691
X164395Y-64688
X164913Y-92034
X164960Y-96622
X164986Y-105067
X165452Y-73230
X168364Y-67691
X169506Y-88546
X169507Y-87046
X171636Y-71730
X171641Y-70231
X172813Y-91034
X175537Y-73230
X175539Y-71730
X175768Y-87046
X175802Y-55345
X175952Y-85395
X176797Y-105067
X178406Y-67691
X179540Y-87020
X179541Y-88520
X181915Y-71742
X182131Y-70256
X183063Y-91034
X185393Y-73204
X185502Y-55395
X185534Y-71704
X185852Y-87020
X186202Y-85395
X187008Y-105105
X188631Y-67716
X189714Y-88520
X189738Y-87020
X191872Y-71704
X192102Y-70195
X193091Y-91034
X195668Y-73179
X195732Y-71679
X195948Y-87020
X196002Y-55345
X196452Y-85395
X197091Y-105016
X198799Y-67742
X200014Y-88546
X200050Y-87046
X202222Y-71679
X202284Y-70179
X203341Y-91034
X206134Y-87046
X206952Y-85395
X208763Y-54178
X208826Y-63919
X209017Y-73101
X209626Y-84899
X209626Y-94513
X209664Y-104229
T2
X118389Y-68326
X118389Y-69596
X118389Y-70866
T3
X116272Y-76225
X116272Y-78765
X116272Y-101625
X116272Y-104165
X118812Y-76225
X118812Y-78765
X118812Y-101625
X118812Y-104165
X121352Y-76225
X121352Y-78765
X121352Y-101625
X121352Y-104165
X123892Y-76225
X123892Y-78765
X123892Y-101625
X123892Y-104165
X126432Y-76225
X126432Y-78765
X126432Y-101625
X126432Y-104165
X128972Y-76225
X128972Y-78765
X128972Y-101625
X128972Y-104165
X131512Y-76225
X131512Y-78765
X131512Y-101625
X131512Y-104165
X134052Y-76225
X134052Y-78765
X134052Y-101625
X134052Y-104165
X136592Y-76225
X136592Y-78765
X136592Y-101625
X136592Y-104165
X139132Y-76225
X139132Y-78765
X139132Y-101625
X139132Y-104165
T4
X149202Y-76657
X149202Y-102845
X151702Y-76657
X151702Y-102845
X154202Y-76657
X154202Y-102845
X156702Y-102845
T5
X125781Y-71374
X157202Y-84645
X157202Y-95645
X161023Y-84645
X161023Y-95645
T6
X143510Y-70282
X146050Y-70282
X147904Y-56007
X147904Y-58547
X147904Y-61087
X148590Y-70282
T7
X113792Y-56290
X113792Y-61290
T8
X120681Y-58242
X143281Y-58242
T9
X167962Y-100645
X168202Y-58145
X173042Y-100645
X173282Y-58145
X178122Y-100645
X178362Y-58145
X183202Y-100645
X183442Y-58145
X188312Y-100645
X188552Y-58145
X193392Y-100645
X193632Y-58145
X198472Y-100645
X198712Y-58145
X203552Y-100645
X203792Y-58145
T0
M30
