G04 #@! TF.GenerationSoftware,KiCad,Pcbnew,5.1.11-e4df9d881f~92~ubuntu20.04.1*
G04 #@! TF.CreationDate,2021-11-03T00:14:50+01:00*
G04 #@! TF.ProjectId,CC dimmer low voltage,43432064-696d-46d6-9572-206c6f772076,0.97*
G04 #@! TF.SameCoordinates,Original*
G04 #@! TF.FileFunction,Soldermask,Bot*
G04 #@! TF.FilePolarity,Negative*
%FSLAX46Y46*%
G04 Gerber Fmt 4.6, Leading zero omitted, Abs format (unit mm)*
G04 Created by KiCad (PCBNEW 5.1.11-e4df9d881f~92~ubuntu20.04.1) date 2021-11-03 00:14:50*
%MOMM*%
%LPD*%
G01*
G04 APERTURE LIST*
%ADD10C,3.000000*%
%ADD11R,1.700000X1.700000*%
%ADD12C,3.200000*%
%ADD13O,1.700000X1.950000*%
%ADD14O,2.000000X1.905000*%
%ADD15R,2.000000X1.905000*%
%ADD16O,1.500000X1.050000*%
%ADD17R,1.500000X1.050000*%
%ADD18R,1.905000X2.000000*%
%ADD19O,1.905000X2.000000*%
%ADD20R,2.600000X2.600000*%
%ADD21C,2.600000*%
%ADD22R,3.000000X3.000000*%
%ADD23C,1.400000*%
G04 APERTURE END LIST*
D10*
X143281400Y-58242200D03*
X120681400Y-58242200D03*
D11*
X161023300Y-95645000D03*
X161023300Y-84645000D03*
D12*
X159202000Y-71145000D03*
X109169200Y-103886000D03*
X209016600Y-79121000D03*
G36*
G01*
X148352000Y-77382200D02*
X148352000Y-75932200D01*
G75*
G02*
X148602000Y-75682200I250000J0D01*
G01*
X149802000Y-75682200D01*
G75*
G02*
X150052000Y-75932200I0J-250000D01*
G01*
X150052000Y-77382200D01*
G75*
G02*
X149802000Y-77632200I-250000J0D01*
G01*
X148602000Y-77632200D01*
G75*
G02*
X148352000Y-77382200I0J250000D01*
G01*
G37*
D13*
X151702000Y-76657200D03*
X154202000Y-76657200D03*
G36*
G01*
X148352000Y-103569600D02*
X148352000Y-102119600D01*
G75*
G02*
X148602000Y-101869600I250000J0D01*
G01*
X149802000Y-101869600D01*
G75*
G02*
X150052000Y-102119600I0J-250000D01*
G01*
X150052000Y-103569600D01*
G75*
G02*
X149802000Y-103819600I-250000J0D01*
G01*
X148602000Y-103819600D01*
G75*
G02*
X148352000Y-103569600I0J250000D01*
G01*
G37*
X151702000Y-102844600D03*
X154202000Y-102844600D03*
X156702000Y-102844600D03*
D11*
X157202000Y-84645000D03*
X157202000Y-95645000D03*
X125780800Y-71374000D03*
D14*
X147904200Y-61087000D03*
X147904200Y-58547000D03*
D15*
X147904200Y-56007000D03*
D16*
X118389400Y-69596000D03*
X118389400Y-68326000D03*
D17*
X118389400Y-70866000D03*
D18*
X148590000Y-70281800D03*
D19*
X146050000Y-70281800D03*
X143510000Y-70281800D03*
D20*
X113792000Y-61290200D03*
D21*
X113792000Y-56290200D03*
D10*
X183442000Y-58145000D03*
D22*
X168202000Y-58145000D03*
D10*
X178362000Y-58145000D03*
X173282000Y-58145000D03*
X193632000Y-58145000D03*
X198712000Y-58145000D03*
D22*
X188552000Y-58145000D03*
D10*
X203792000Y-58145000D03*
X188312000Y-100645000D03*
D22*
X203552000Y-100645000D03*
D10*
X193392000Y-100645000D03*
X198472000Y-100645000D03*
X178122000Y-100645000D03*
X173042000Y-100645000D03*
D22*
X183202000Y-100645000D03*
D10*
X167962000Y-100645000D03*
D23*
X116272000Y-101625000D03*
X116272000Y-104165000D03*
X118812000Y-104165000D03*
X118812000Y-101625000D03*
X121352000Y-104165000D03*
X121352000Y-101625000D03*
X123892000Y-104165000D03*
X123892000Y-101625000D03*
X126432000Y-104165000D03*
X126432000Y-101625000D03*
X128972000Y-104165000D03*
X128972000Y-101625000D03*
X131512000Y-104165000D03*
X131512000Y-101625000D03*
X134052000Y-104165000D03*
X134052000Y-101625000D03*
X136592000Y-104165000D03*
X136592000Y-101625000D03*
X139132000Y-104165000D03*
X139132000Y-101625000D03*
X116272000Y-78765000D03*
X116272000Y-76225000D03*
X118812000Y-78765000D03*
X118812000Y-76225000D03*
X121352000Y-78765000D03*
X121352000Y-76225000D03*
X123892000Y-78765000D03*
X123892000Y-76225000D03*
X126432000Y-78765000D03*
X126432000Y-76225000D03*
X128972000Y-78765000D03*
X128972000Y-76225000D03*
X131512000Y-78765000D03*
X131512000Y-76225000D03*
X134052000Y-78765000D03*
X134052000Y-76225000D03*
X136592000Y-78765000D03*
X136592000Y-76225000D03*
X139132000Y-78765000D03*
X139132000Y-76225000D03*
M02*
