G04 #@! TF.GenerationSoftware,KiCad,Pcbnew,5.1.12-84ad8e8a86~92~ubuntu20.04.1*
G04 #@! TF.CreationDate,2021-11-06T00:10:49+01:00*
G04 #@! TF.ProjectId,CC dimmer low voltage,43432064-696d-46d6-9572-206c6f772076,0.98*
G04 #@! TF.SameCoordinates,Original*
G04 #@! TF.FileFunction,Soldermask,Top*
G04 #@! TF.FilePolarity,Negative*
%FSLAX46Y46*%
G04 Gerber Fmt 4.6, Leading zero omitted, Abs format (unit mm)*
G04 Created by KiCad (PCBNEW 5.1.12-84ad8e8a86~92~ubuntu20.04.1) date 2021-11-06 00:10:49*
%MOMM*%
%LPD*%
G01*
G04 APERTURE LIST*
%ADD10R,0.980000X3.400000*%
%ADD11C,3.000000*%
%ADD12R,1.700000X1.700000*%
%ADD13R,1.800000X2.500000*%
%ADD14C,3.200000*%
%ADD15R,0.600000X0.450000*%
%ADD16O,1.700000X1.950000*%
%ADD17O,2.000000X1.905000*%
%ADD18R,2.000000X1.905000*%
%ADD19O,1.500000X1.050000*%
%ADD20R,1.500000X1.050000*%
%ADD21R,1.905000X2.000000*%
%ADD22O,1.905000X2.000000*%
%ADD23R,2.600000X2.600000*%
%ADD24C,2.600000*%
%ADD25R,1.500000X0.700000*%
%ADD26C,0.150000*%
%ADD27C,1.400000*%
%ADD28C,2.500000*%
%ADD29R,2.500000X2.500000*%
G04 APERTURE END LIST*
G36*
G01*
X159235200Y-98516200D02*
X159235200Y-97566200D01*
G75*
G02*
X159485200Y-97316200I250000J0D01*
G01*
X159985200Y-97316200D01*
G75*
G02*
X160235200Y-97566200I0J-250000D01*
G01*
X160235200Y-98516200D01*
G75*
G02*
X159985200Y-98766200I-250000J0D01*
G01*
X159485200Y-98766200D01*
G75*
G02*
X159235200Y-98516200I0J250000D01*
G01*
G37*
G36*
G01*
X157335200Y-98516200D02*
X157335200Y-97566200D01*
G75*
G02*
X157585200Y-97316200I250000J0D01*
G01*
X158085200Y-97316200D01*
G75*
G02*
X158335200Y-97566200I0J-250000D01*
G01*
X158335200Y-98516200D01*
G75*
G02*
X158085200Y-98766200I-250000J0D01*
G01*
X157585200Y-98766200D01*
G75*
G02*
X157335200Y-98516200I0J250000D01*
G01*
G37*
D10*
X158159000Y-114576600D03*
X160529000Y-114576600D03*
X168547600Y-114576600D03*
X170917600Y-114576600D03*
X178665600Y-114576600D03*
X181035600Y-114576600D03*
X188893000Y-114576600D03*
X191263000Y-114576600D03*
X196266800Y-88998800D03*
X193896800Y-88998800D03*
X185929000Y-88998800D03*
X183559000Y-88998800D03*
X175845200Y-88948000D03*
X173475200Y-88948000D03*
X165659800Y-88973400D03*
X163289800Y-88973400D03*
D11*
X134731400Y-80642200D03*
X112131400Y-80642200D03*
D12*
X151492000Y-116325000D03*
X151502000Y-108905000D03*
D13*
X189570000Y-106429800D03*
X189570000Y-110429800D03*
D14*
X150652000Y-93545000D03*
D13*
X169224600Y-110429800D03*
X169224600Y-106429800D03*
G36*
G01*
X157411400Y-88153000D02*
X157411400Y-87203000D01*
G75*
G02*
X157661400Y-86953000I250000J0D01*
G01*
X158161400Y-86953000D01*
G75*
G02*
X158411400Y-87203000I0J-250000D01*
G01*
X158411400Y-88153000D01*
G75*
G02*
X158161400Y-88403000I-250000J0D01*
G01*
X157661400Y-88403000D01*
G75*
G02*
X157411400Y-88153000I0J250000D01*
G01*
G37*
G36*
G01*
X159311400Y-88153000D02*
X159311400Y-87203000D01*
G75*
G02*
X159561400Y-86953000I250000J0D01*
G01*
X160061400Y-86953000D01*
G75*
G02*
X160311400Y-87203000I0J-250000D01*
G01*
X160311400Y-88153000D01*
G75*
G02*
X160061400Y-88403000I-250000J0D01*
G01*
X159561400Y-88403000D01*
G75*
G02*
X159311400Y-88153000I0J250000D01*
G01*
G37*
G36*
G01*
X167622200Y-98516200D02*
X167622200Y-97566200D01*
G75*
G02*
X167872200Y-97316200I250000J0D01*
G01*
X168372200Y-97316200D01*
G75*
G02*
X168622200Y-97566200I0J-250000D01*
G01*
X168622200Y-98516200D01*
G75*
G02*
X168372200Y-98766200I-250000J0D01*
G01*
X167872200Y-98766200D01*
G75*
G02*
X167622200Y-98516200I0J250000D01*
G01*
G37*
G36*
G01*
X169522200Y-98516200D02*
X169522200Y-97566200D01*
G75*
G02*
X169772200Y-97316200I250000J0D01*
G01*
X170272200Y-97316200D01*
G75*
G02*
X170522200Y-97566200I0J-250000D01*
G01*
X170522200Y-98516200D01*
G75*
G02*
X170272200Y-98766200I-250000J0D01*
G01*
X169772200Y-98766200D01*
G75*
G02*
X169522200Y-98516200I0J250000D01*
G01*
G37*
G36*
G01*
X167622200Y-88178400D02*
X167622200Y-87228400D01*
G75*
G02*
X167872200Y-86978400I250000J0D01*
G01*
X168372200Y-86978400D01*
G75*
G02*
X168622200Y-87228400I0J-250000D01*
G01*
X168622200Y-88178400D01*
G75*
G02*
X168372200Y-88428400I-250000J0D01*
G01*
X167872200Y-88428400D01*
G75*
G02*
X167622200Y-88178400I0J250000D01*
G01*
G37*
G36*
G01*
X169522200Y-88178400D02*
X169522200Y-87228400D01*
G75*
G02*
X169772200Y-86978400I250000J0D01*
G01*
X170272200Y-86978400D01*
G75*
G02*
X170522200Y-87228400I0J-250000D01*
G01*
X170522200Y-88178400D01*
G75*
G02*
X170272200Y-88428400I-250000J0D01*
G01*
X169772200Y-88428400D01*
G75*
G02*
X169522200Y-88178400I0J250000D01*
G01*
G37*
G36*
G01*
X177629800Y-98516200D02*
X177629800Y-97566200D01*
G75*
G02*
X177879800Y-97316200I250000J0D01*
G01*
X178379800Y-97316200D01*
G75*
G02*
X178629800Y-97566200I0J-250000D01*
G01*
X178629800Y-98516200D01*
G75*
G02*
X178379800Y-98766200I-250000J0D01*
G01*
X177879800Y-98766200D01*
G75*
G02*
X177629800Y-98516200I0J250000D01*
G01*
G37*
G36*
G01*
X179529800Y-98516200D02*
X179529800Y-97566200D01*
G75*
G02*
X179779800Y-97316200I250000J0D01*
G01*
X180279800Y-97316200D01*
G75*
G02*
X180529800Y-97566200I0J-250000D01*
G01*
X180529800Y-98516200D01*
G75*
G02*
X180279800Y-98766200I-250000J0D01*
G01*
X179779800Y-98766200D01*
G75*
G02*
X179529800Y-98516200I0J250000D01*
G01*
G37*
G36*
G01*
X179606000Y-88178400D02*
X179606000Y-87228400D01*
G75*
G02*
X179856000Y-86978400I250000J0D01*
G01*
X180356000Y-86978400D01*
G75*
G02*
X180606000Y-87228400I0J-250000D01*
G01*
X180606000Y-88178400D01*
G75*
G02*
X180356000Y-88428400I-250000J0D01*
G01*
X179856000Y-88428400D01*
G75*
G02*
X179606000Y-88178400I0J250000D01*
G01*
G37*
G36*
G01*
X177706000Y-88178400D02*
X177706000Y-87228400D01*
G75*
G02*
X177956000Y-86978400I250000J0D01*
G01*
X178456000Y-86978400D01*
G75*
G02*
X178706000Y-87228400I0J-250000D01*
G01*
X178706000Y-88178400D01*
G75*
G02*
X178456000Y-88428400I-250000J0D01*
G01*
X177956000Y-88428400D01*
G75*
G02*
X177706000Y-88178400I0J250000D01*
G01*
G37*
G36*
G01*
X189816800Y-98465400D02*
X189816800Y-97515400D01*
G75*
G02*
X190066800Y-97265400I250000J0D01*
G01*
X190566800Y-97265400D01*
G75*
G02*
X190816800Y-97515400I0J-250000D01*
G01*
X190816800Y-98465400D01*
G75*
G02*
X190566800Y-98715400I-250000J0D01*
G01*
X190066800Y-98715400D01*
G75*
G02*
X189816800Y-98465400I0J250000D01*
G01*
G37*
G36*
G01*
X187916800Y-98465400D02*
X187916800Y-97515400D01*
G75*
G02*
X188166800Y-97265400I250000J0D01*
G01*
X188666800Y-97265400D01*
G75*
G02*
X188916800Y-97515400I0J-250000D01*
G01*
X188916800Y-98465400D01*
G75*
G02*
X188666800Y-98715400I-250000J0D01*
G01*
X188166800Y-98715400D01*
G75*
G02*
X187916800Y-98465400I0J250000D01*
G01*
G37*
G36*
G01*
X187916800Y-88178400D02*
X187916800Y-87228400D01*
G75*
G02*
X188166800Y-86978400I250000J0D01*
G01*
X188666800Y-86978400D01*
G75*
G02*
X188916800Y-87228400I0J-250000D01*
G01*
X188916800Y-88178400D01*
G75*
G02*
X188666800Y-88428400I-250000J0D01*
G01*
X188166800Y-88428400D01*
G75*
G02*
X187916800Y-88178400I0J250000D01*
G01*
G37*
G36*
G01*
X189816800Y-88178400D02*
X189816800Y-87228400D01*
G75*
G02*
X190066800Y-86978400I250000J0D01*
G01*
X190566800Y-86978400D01*
G75*
G02*
X190816800Y-87228400I0J-250000D01*
G01*
X190816800Y-88178400D01*
G75*
G02*
X190566800Y-88428400I-250000J0D01*
G01*
X190066800Y-88428400D01*
G75*
G02*
X189816800Y-88178400I0J250000D01*
G01*
G37*
G36*
G01*
X195241400Y-105033800D02*
X195241400Y-105983800D01*
G75*
G02*
X194991400Y-106233800I-250000J0D01*
G01*
X194491400Y-106233800D01*
G75*
G02*
X194241400Y-105983800I0J250000D01*
G01*
X194241400Y-105033800D01*
G75*
G02*
X194491400Y-104783800I250000J0D01*
G01*
X194991400Y-104783800D01*
G75*
G02*
X195241400Y-105033800I0J-250000D01*
G01*
G37*
G36*
G01*
X197141400Y-105033800D02*
X197141400Y-105983800D01*
G75*
G02*
X196891400Y-106233800I-250000J0D01*
G01*
X196391400Y-106233800D01*
G75*
G02*
X196141400Y-105983800I0J250000D01*
G01*
X196141400Y-105033800D01*
G75*
G02*
X196391400Y-104783800I250000J0D01*
G01*
X196891400Y-104783800D01*
G75*
G02*
X197141400Y-105033800I0J-250000D01*
G01*
G37*
G36*
G01*
X197141400Y-115371600D02*
X197141400Y-116321600D01*
G75*
G02*
X196891400Y-116571600I-250000J0D01*
G01*
X196391400Y-116571600D01*
G75*
G02*
X196141400Y-116321600I0J250000D01*
G01*
X196141400Y-115371600D01*
G75*
G02*
X196391400Y-115121600I250000J0D01*
G01*
X196891400Y-115121600D01*
G75*
G02*
X197141400Y-115371600I0J-250000D01*
G01*
G37*
G36*
G01*
X195241400Y-115371600D02*
X195241400Y-116321600D01*
G75*
G02*
X194991400Y-116571600I-250000J0D01*
G01*
X194491400Y-116571600D01*
G75*
G02*
X194241400Y-116321600I0J250000D01*
G01*
X194241400Y-115371600D01*
G75*
G02*
X194491400Y-115121600I250000J0D01*
G01*
X194991400Y-115121600D01*
G75*
G02*
X195241400Y-115371600I0J-250000D01*
G01*
G37*
G36*
G01*
X184979800Y-105008400D02*
X184979800Y-105958400D01*
G75*
G02*
X184729800Y-106208400I-250000J0D01*
G01*
X184229800Y-106208400D01*
G75*
G02*
X183979800Y-105958400I0J250000D01*
G01*
X183979800Y-105008400D01*
G75*
G02*
X184229800Y-104758400I250000J0D01*
G01*
X184729800Y-104758400D01*
G75*
G02*
X184979800Y-105008400I0J-250000D01*
G01*
G37*
G36*
G01*
X186879800Y-105008400D02*
X186879800Y-105958400D01*
G75*
G02*
X186629800Y-106208400I-250000J0D01*
G01*
X186129800Y-106208400D01*
G75*
G02*
X185879800Y-105958400I0J250000D01*
G01*
X185879800Y-105008400D01*
G75*
G02*
X186129800Y-104758400I250000J0D01*
G01*
X186629800Y-104758400D01*
G75*
G02*
X186879800Y-105008400I0J-250000D01*
G01*
G37*
G36*
G01*
X184995000Y-115371600D02*
X184995000Y-116321600D01*
G75*
G02*
X184745000Y-116571600I-250000J0D01*
G01*
X184245000Y-116571600D01*
G75*
G02*
X183995000Y-116321600I0J250000D01*
G01*
X183995000Y-115371600D01*
G75*
G02*
X184245000Y-115121600I250000J0D01*
G01*
X184745000Y-115121600D01*
G75*
G02*
X184995000Y-115371600I0J-250000D01*
G01*
G37*
G36*
G01*
X186895000Y-115371600D02*
X186895000Y-116321600D01*
G75*
G02*
X186645000Y-116571600I-250000J0D01*
G01*
X186145000Y-116571600D01*
G75*
G02*
X185895000Y-116321600I0J250000D01*
G01*
X185895000Y-115371600D01*
G75*
G02*
X186145000Y-115121600I250000J0D01*
G01*
X186645000Y-115121600D01*
G75*
G02*
X186895000Y-115371600I0J-250000D01*
G01*
G37*
G36*
G01*
X176719800Y-105008400D02*
X176719800Y-105958400D01*
G75*
G02*
X176469800Y-106208400I-250000J0D01*
G01*
X175969800Y-106208400D01*
G75*
G02*
X175719800Y-105958400I0J250000D01*
G01*
X175719800Y-105008400D01*
G75*
G02*
X175969800Y-104758400I250000J0D01*
G01*
X176469800Y-104758400D01*
G75*
G02*
X176719800Y-105008400I0J-250000D01*
G01*
G37*
G36*
G01*
X174819800Y-105008400D02*
X174819800Y-105958400D01*
G75*
G02*
X174569800Y-106208400I-250000J0D01*
G01*
X174069800Y-106208400D01*
G75*
G02*
X173819800Y-105958400I0J250000D01*
G01*
X173819800Y-105008400D01*
G75*
G02*
X174069800Y-104758400I250000J0D01*
G01*
X174569800Y-104758400D01*
G75*
G02*
X174819800Y-105008400I0J-250000D01*
G01*
G37*
G36*
G01*
X174819800Y-115371600D02*
X174819800Y-116321600D01*
G75*
G02*
X174569800Y-116571600I-250000J0D01*
G01*
X174069800Y-116571600D01*
G75*
G02*
X173819800Y-116321600I0J250000D01*
G01*
X173819800Y-115371600D01*
G75*
G02*
X174069800Y-115121600I250000J0D01*
G01*
X174569800Y-115121600D01*
G75*
G02*
X174819800Y-115371600I0J-250000D01*
G01*
G37*
G36*
G01*
X176719800Y-115371600D02*
X176719800Y-116321600D01*
G75*
G02*
X176469800Y-116571600I-250000J0D01*
G01*
X175969800Y-116571600D01*
G75*
G02*
X175719800Y-116321600I0J250000D01*
G01*
X175719800Y-115371600D01*
G75*
G02*
X175969800Y-115121600I250000J0D01*
G01*
X176469800Y-115121600D01*
G75*
G02*
X176719800Y-115371600I0J-250000D01*
G01*
G37*
G36*
G01*
X164736000Y-105008400D02*
X164736000Y-105958400D01*
G75*
G02*
X164486000Y-106208400I-250000J0D01*
G01*
X163986000Y-106208400D01*
G75*
G02*
X163736000Y-105958400I0J250000D01*
G01*
X163736000Y-105008400D01*
G75*
G02*
X163986000Y-104758400I250000J0D01*
G01*
X164486000Y-104758400D01*
G75*
G02*
X164736000Y-105008400I0J-250000D01*
G01*
G37*
G36*
G01*
X166636000Y-105008400D02*
X166636000Y-105958400D01*
G75*
G02*
X166386000Y-106208400I-250000J0D01*
G01*
X165886000Y-106208400D01*
G75*
G02*
X165636000Y-105958400I0J250000D01*
G01*
X165636000Y-105008400D01*
G75*
G02*
X165886000Y-104758400I250000J0D01*
G01*
X166386000Y-104758400D01*
G75*
G02*
X166636000Y-105008400I0J-250000D01*
G01*
G37*
G36*
G01*
X166625800Y-115371600D02*
X166625800Y-116321600D01*
G75*
G02*
X166375800Y-116571600I-250000J0D01*
G01*
X165875800Y-116571600D01*
G75*
G02*
X165625800Y-116321600I0J250000D01*
G01*
X165625800Y-115371600D01*
G75*
G02*
X165875800Y-115121600I250000J0D01*
G01*
X166375800Y-115121600D01*
G75*
G02*
X166625800Y-115371600I0J-250000D01*
G01*
G37*
G36*
G01*
X164725800Y-115371600D02*
X164725800Y-116321600D01*
G75*
G02*
X164475800Y-116571600I-250000J0D01*
G01*
X163975800Y-116571600D01*
G75*
G02*
X163725800Y-116321600I0J250000D01*
G01*
X163725800Y-115371600D01*
G75*
G02*
X163975800Y-115121600I250000J0D01*
G01*
X164475800Y-115121600D01*
G75*
G02*
X164725800Y-115371600I0J-250000D01*
G01*
G37*
G36*
G01*
X150946000Y-87074000D02*
X148946000Y-87074000D01*
G75*
G02*
X148696000Y-86824000I0J250000D01*
G01*
X148696000Y-83324000D01*
G75*
G02*
X148946000Y-83074000I250000J0D01*
G01*
X150946000Y-83074000D01*
G75*
G02*
X151196000Y-83324000I0J-250000D01*
G01*
X151196000Y-86824000D01*
G75*
G02*
X150946000Y-87074000I-250000J0D01*
G01*
G37*
G36*
G01*
X150946000Y-79074000D02*
X148946000Y-79074000D01*
G75*
G02*
X148696000Y-78824000I0J250000D01*
G01*
X148696000Y-75324000D01*
G75*
G02*
X148946000Y-75074000I250000J0D01*
G01*
X150946000Y-75074000D01*
G75*
G02*
X151196000Y-75324000I0J-250000D01*
G01*
X151196000Y-78824000D01*
G75*
G02*
X150946000Y-79074000I-250000J0D01*
G01*
G37*
G36*
G01*
X128537200Y-89591800D02*
X128537200Y-90691800D01*
G75*
G02*
X128287200Y-90941800I-250000J0D01*
G01*
X125287200Y-90941800D01*
G75*
G02*
X125037200Y-90691800I0J250000D01*
G01*
X125037200Y-89591800D01*
G75*
G02*
X125287200Y-89341800I250000J0D01*
G01*
X128287200Y-89341800D01*
G75*
G02*
X128537200Y-89591800I0J-250000D01*
G01*
G37*
G36*
G01*
X122937200Y-89591800D02*
X122937200Y-90691800D01*
G75*
G02*
X122687200Y-90941800I-250000J0D01*
G01*
X119687200Y-90941800D01*
G75*
G02*
X119437200Y-90691800I0J250000D01*
G01*
X119437200Y-89591800D01*
G75*
G02*
X119687200Y-89341800I250000J0D01*
G01*
X122687200Y-89341800D01*
G75*
G02*
X122937200Y-89591800I0J-250000D01*
G01*
G37*
G36*
G01*
X116943800Y-91261600D02*
X115993800Y-91261600D01*
G75*
G02*
X115743800Y-91011600I0J250000D01*
G01*
X115743800Y-90511600D01*
G75*
G02*
X115993800Y-90261600I250000J0D01*
G01*
X116943800Y-90261600D01*
G75*
G02*
X117193800Y-90511600I0J-250000D01*
G01*
X117193800Y-91011600D01*
G75*
G02*
X116943800Y-91261600I-250000J0D01*
G01*
G37*
G36*
G01*
X116943800Y-89361600D02*
X115993800Y-89361600D01*
G75*
G02*
X115743800Y-89111600I0J250000D01*
G01*
X115743800Y-88611600D01*
G75*
G02*
X115993800Y-88361600I250000J0D01*
G01*
X116943800Y-88361600D01*
G75*
G02*
X117193800Y-88611600I0J-250000D01*
G01*
X117193800Y-89111600D01*
G75*
G02*
X116943800Y-89361600I-250000J0D01*
G01*
G37*
X164982800Y-97145600D03*
X164982800Y-93145600D03*
X175219000Y-97120200D03*
X175219000Y-93120200D03*
X185226600Y-97094800D03*
X185226600Y-93094800D03*
X195615200Y-93120200D03*
X195615200Y-97120200D03*
X179359200Y-110429800D03*
X179359200Y-106429800D03*
X158836000Y-110455200D03*
X158836000Y-106455200D03*
D15*
X139337400Y-88668600D03*
X137237400Y-88668600D03*
G36*
G01*
X102107800Y-93716200D02*
X100857800Y-93716200D01*
G75*
G02*
X100607800Y-93466200I0J250000D01*
G01*
X100607800Y-92716200D01*
G75*
G02*
X100857800Y-92466200I250000J0D01*
G01*
X102107800Y-92466200D01*
G75*
G02*
X102357800Y-92716200I0J-250000D01*
G01*
X102357800Y-93466200D01*
G75*
G02*
X102107800Y-93716200I-250000J0D01*
G01*
G37*
G36*
G01*
X102107800Y-90916200D02*
X100857800Y-90916200D01*
G75*
G02*
X100607800Y-90666200I0J250000D01*
G01*
X100607800Y-89916200D01*
G75*
G02*
X100857800Y-89666200I250000J0D01*
G01*
X102107800Y-89666200D01*
G75*
G02*
X102357800Y-89916200I0J-250000D01*
G01*
X102357800Y-90666200D01*
G75*
G02*
X102107800Y-90916200I-250000J0D01*
G01*
G37*
G36*
G01*
X130115799Y-90056400D02*
X131015801Y-90056400D01*
G75*
G02*
X131265800Y-90306399I0J-249999D01*
G01*
X131265800Y-91006401D01*
G75*
G02*
X131015801Y-91256400I-249999J0D01*
G01*
X130115799Y-91256400D01*
G75*
G02*
X129865800Y-91006401I0J249999D01*
G01*
X129865800Y-90306399D01*
G75*
G02*
X130115799Y-90056400I249999J0D01*
G01*
G37*
G36*
G01*
X130115799Y-92056400D02*
X131015801Y-92056400D01*
G75*
G02*
X131265800Y-92306399I0J-249999D01*
G01*
X131265800Y-93006401D01*
G75*
G02*
X131015801Y-93256400I-249999J0D01*
G01*
X130115799Y-93256400D01*
G75*
G02*
X129865800Y-93006401I0J249999D01*
G01*
X129865800Y-92306399D01*
G75*
G02*
X130115799Y-92056400I249999J0D01*
G01*
G37*
D14*
X100619200Y-126286000D03*
X200466600Y-101521000D03*
G36*
G01*
X139702000Y-102300000D02*
X139702000Y-100850000D01*
G75*
G02*
X139952000Y-100600000I250000J0D01*
G01*
X141152000Y-100600000D01*
G75*
G02*
X141402000Y-100850000I0J-250000D01*
G01*
X141402000Y-102300000D01*
G75*
G02*
X141152000Y-102550000I-250000J0D01*
G01*
X139952000Y-102550000D01*
G75*
G02*
X139702000Y-102300000I0J250000D01*
G01*
G37*
D16*
X143052000Y-101575000D03*
X145552000Y-101575000D03*
G36*
G01*
X139772000Y-123330000D02*
X139772000Y-121880000D01*
G75*
G02*
X140022000Y-121630000I250000J0D01*
G01*
X141222000Y-121630000D01*
G75*
G02*
X141472000Y-121880000I0J-250000D01*
G01*
X141472000Y-123330000D01*
G75*
G02*
X141222000Y-123580000I-250000J0D01*
G01*
X140022000Y-123580000D01*
G75*
G02*
X139772000Y-123330000I0J250000D01*
G01*
G37*
X143122000Y-122605000D03*
X145622000Y-122605000D03*
X148122000Y-122605000D03*
D12*
X148962000Y-108905000D03*
X148952000Y-116325000D03*
X117230800Y-93774000D03*
D17*
X139354200Y-83487000D03*
X139354200Y-80947000D03*
D18*
X139354200Y-78407000D03*
G36*
G01*
X157420600Y-90716003D02*
X157420600Y-89465997D01*
G75*
G02*
X157670597Y-89216000I249997J0D01*
G01*
X158295603Y-89216000D01*
G75*
G02*
X158545600Y-89465997I0J-249997D01*
G01*
X158545600Y-90716003D01*
G75*
G02*
X158295603Y-90966000I-249997J0D01*
G01*
X157670597Y-90966000D01*
G75*
G02*
X157420600Y-90716003I0J249997D01*
G01*
G37*
G36*
G01*
X160345600Y-90716003D02*
X160345600Y-89465997D01*
G75*
G02*
X160595597Y-89216000I249997J0D01*
G01*
X161220603Y-89216000D01*
G75*
G02*
X161470600Y-89465997I0J-249997D01*
G01*
X161470600Y-90716003D01*
G75*
G02*
X161220603Y-90966000I-249997J0D01*
G01*
X160595597Y-90966000D01*
G75*
G02*
X160345600Y-90716003I0J249997D01*
G01*
G37*
G36*
G01*
X170556400Y-90716003D02*
X170556400Y-89465997D01*
G75*
G02*
X170806397Y-89216000I249997J0D01*
G01*
X171431403Y-89216000D01*
G75*
G02*
X171681400Y-89465997I0J-249997D01*
G01*
X171681400Y-90716003D01*
G75*
G02*
X171431403Y-90966000I-249997J0D01*
G01*
X170806397Y-90966000D01*
G75*
G02*
X170556400Y-90716003I0J249997D01*
G01*
G37*
G36*
G01*
X167631400Y-90716003D02*
X167631400Y-89465997D01*
G75*
G02*
X167881397Y-89216000I249997J0D01*
G01*
X168506403Y-89216000D01*
G75*
G02*
X168756400Y-89465997I0J-249997D01*
G01*
X168756400Y-90716003D01*
G75*
G02*
X168506403Y-90966000I-249997J0D01*
G01*
X167881397Y-90966000D01*
G75*
G02*
X167631400Y-90716003I0J249997D01*
G01*
G37*
G36*
G01*
X180614800Y-90741403D02*
X180614800Y-89491397D01*
G75*
G02*
X180864797Y-89241400I249997J0D01*
G01*
X181489803Y-89241400D01*
G75*
G02*
X181739800Y-89491397I0J-249997D01*
G01*
X181739800Y-90741403D01*
G75*
G02*
X181489803Y-90991400I-249997J0D01*
G01*
X180864797Y-90991400D01*
G75*
G02*
X180614800Y-90741403I0J249997D01*
G01*
G37*
G36*
G01*
X177689800Y-90741403D02*
X177689800Y-89491397D01*
G75*
G02*
X177939797Y-89241400I249997J0D01*
G01*
X178564803Y-89241400D01*
G75*
G02*
X178814800Y-89491397I0J-249997D01*
G01*
X178814800Y-90741403D01*
G75*
G02*
X178564803Y-90991400I-249997J0D01*
G01*
X177939797Y-90991400D01*
G75*
G02*
X177689800Y-90741403I0J249997D01*
G01*
G37*
G36*
G01*
X187926000Y-90766803D02*
X187926000Y-89516797D01*
G75*
G02*
X188175997Y-89266800I249997J0D01*
G01*
X188801003Y-89266800D01*
G75*
G02*
X189051000Y-89516797I0J-249997D01*
G01*
X189051000Y-90766803D01*
G75*
G02*
X188801003Y-91016800I-249997J0D01*
G01*
X188175997Y-91016800D01*
G75*
G02*
X187926000Y-90766803I0J249997D01*
G01*
G37*
G36*
G01*
X190851000Y-90766803D02*
X190851000Y-89516797D01*
G75*
G02*
X191100997Y-89266800I249997J0D01*
G01*
X191726003Y-89266800D01*
G75*
G02*
X191976000Y-89516797I0J-249997D01*
G01*
X191976000Y-90766803D01*
G75*
G02*
X191726003Y-91016800I-249997J0D01*
G01*
X191100997Y-91016800D01*
G75*
G02*
X190851000Y-90766803I0J249997D01*
G01*
G37*
G36*
G01*
X194202000Y-112869997D02*
X194202000Y-114120003D01*
G75*
G02*
X193952003Y-114370000I-249997J0D01*
G01*
X193326997Y-114370000D01*
G75*
G02*
X193077000Y-114120003I0J249997D01*
G01*
X193077000Y-112869997D01*
G75*
G02*
X193326997Y-112620000I249997J0D01*
G01*
X193952003Y-112620000D01*
G75*
G02*
X194202000Y-112869997I0J-249997D01*
G01*
G37*
G36*
G01*
X197127000Y-112869997D02*
X197127000Y-114120003D01*
G75*
G02*
X196877003Y-114370000I-249997J0D01*
G01*
X196251997Y-114370000D01*
G75*
G02*
X196002000Y-114120003I0J249997D01*
G01*
X196002000Y-112869997D01*
G75*
G02*
X196251997Y-112620000I249997J0D01*
G01*
X196877003Y-112620000D01*
G75*
G02*
X197127000Y-112869997I0J-249997D01*
G01*
G37*
G36*
G01*
X186881300Y-112808597D02*
X186881300Y-114058603D01*
G75*
G02*
X186631303Y-114308600I-249997J0D01*
G01*
X186006297Y-114308600D01*
G75*
G02*
X185756300Y-114058603I0J249997D01*
G01*
X185756300Y-112808597D01*
G75*
G02*
X186006297Y-112558600I249997J0D01*
G01*
X186631303Y-112558600D01*
G75*
G02*
X186881300Y-112808597I0J-249997D01*
G01*
G37*
G36*
G01*
X183956300Y-112808597D02*
X183956300Y-114058603D01*
G75*
G02*
X183706303Y-114308600I-249997J0D01*
G01*
X183081297Y-114308600D01*
G75*
G02*
X182831300Y-114058603I0J249997D01*
G01*
X182831300Y-112808597D01*
G75*
G02*
X183081297Y-112558600I249997J0D01*
G01*
X183706303Y-112558600D01*
G75*
G02*
X183956300Y-112808597I0J-249997D01*
G01*
G37*
G36*
G01*
X173852000Y-112808597D02*
X173852000Y-114058603D01*
G75*
G02*
X173602003Y-114308600I-249997J0D01*
G01*
X172976997Y-114308600D01*
G75*
G02*
X172727000Y-114058603I0J249997D01*
G01*
X172727000Y-112808597D01*
G75*
G02*
X172976997Y-112558600I249997J0D01*
G01*
X173602003Y-112558600D01*
G75*
G02*
X173852000Y-112808597I0J-249997D01*
G01*
G37*
G36*
G01*
X176777000Y-112808597D02*
X176777000Y-114058603D01*
G75*
G02*
X176527003Y-114308600I-249997J0D01*
G01*
X175901997Y-114308600D01*
G75*
G02*
X175652000Y-114058603I0J249997D01*
G01*
X175652000Y-112808597D01*
G75*
G02*
X175901997Y-112558600I249997J0D01*
G01*
X176527003Y-112558600D01*
G75*
G02*
X176777000Y-112808597I0J-249997D01*
G01*
G37*
G36*
G01*
X166577000Y-112869997D02*
X166577000Y-114120003D01*
G75*
G02*
X166327003Y-114370000I-249997J0D01*
G01*
X165701997Y-114370000D01*
G75*
G02*
X165452000Y-114120003I0J249997D01*
G01*
X165452000Y-112869997D01*
G75*
G02*
X165701997Y-112620000I249997J0D01*
G01*
X166327003Y-112620000D01*
G75*
G02*
X166577000Y-112869997I0J-249997D01*
G01*
G37*
G36*
G01*
X163652000Y-112869997D02*
X163652000Y-114120003D01*
G75*
G02*
X163402003Y-114370000I-249997J0D01*
G01*
X162776997Y-114370000D01*
G75*
G02*
X162527000Y-114120003I0J249997D01*
G01*
X162527000Y-112869997D01*
G75*
G02*
X162776997Y-112620000I249997J0D01*
G01*
X163402003Y-112620000D01*
G75*
G02*
X163652000Y-112869997I0J-249997D01*
G01*
G37*
G36*
G01*
X113123198Y-90240800D02*
X114023202Y-90240800D01*
G75*
G02*
X114273200Y-90490798I0J-249998D01*
G01*
X114273200Y-91015802D01*
G75*
G02*
X114023202Y-91265800I-249998J0D01*
G01*
X113123198Y-91265800D01*
G75*
G02*
X112873200Y-91015802I0J249998D01*
G01*
X112873200Y-90490798D01*
G75*
G02*
X113123198Y-90240800I249998J0D01*
G01*
G37*
G36*
G01*
X113123198Y-92065800D02*
X114023202Y-92065800D01*
G75*
G02*
X114273200Y-92315798I0J-249998D01*
G01*
X114273200Y-92840802D01*
G75*
G02*
X114023202Y-93090800I-249998J0D01*
G01*
X113123198Y-93090800D01*
G75*
G02*
X112873200Y-92840802I0J249998D01*
G01*
X112873200Y-92315798D01*
G75*
G02*
X113123198Y-92065800I249998J0D01*
G01*
G37*
G36*
G01*
X133925000Y-88218598D02*
X133925000Y-89118602D01*
G75*
G02*
X133675002Y-89368600I-249998J0D01*
G01*
X133149998Y-89368600D01*
G75*
G02*
X132900000Y-89118602I0J249998D01*
G01*
X132900000Y-88218598D01*
G75*
G02*
X133149998Y-87968600I249998J0D01*
G01*
X133675002Y-87968600D01*
G75*
G02*
X133925000Y-88218598I0J-249998D01*
G01*
G37*
G36*
G01*
X135750000Y-88218598D02*
X135750000Y-89118602D01*
G75*
G02*
X135500002Y-89368600I-249998J0D01*
G01*
X134974998Y-89368600D01*
G75*
G02*
X134725000Y-89118602I0J249998D01*
G01*
X134725000Y-88218598D01*
G75*
G02*
X134974998Y-87968600I249998J0D01*
G01*
X135500002Y-87968600D01*
G75*
G02*
X135750000Y-88218598I0J-249998D01*
G01*
G37*
G36*
G01*
X105361802Y-92506600D02*
X104461798Y-92506600D01*
G75*
G02*
X104211800Y-92256602I0J249998D01*
G01*
X104211800Y-91731598D01*
G75*
G02*
X104461798Y-91481600I249998J0D01*
G01*
X105361802Y-91481600D01*
G75*
G02*
X105611800Y-91731598I0J-249998D01*
G01*
X105611800Y-92256602D01*
G75*
G02*
X105361802Y-92506600I-249998J0D01*
G01*
G37*
G36*
G01*
X105361802Y-90681600D02*
X104461798Y-90681600D01*
G75*
G02*
X104211800Y-90431602I0J249998D01*
G01*
X104211800Y-89906598D01*
G75*
G02*
X104461798Y-89656600I249998J0D01*
G01*
X105361802Y-89656600D01*
G75*
G02*
X105611800Y-89906598I0J-249998D01*
G01*
X105611800Y-90431602D01*
G75*
G02*
X105361802Y-90681600I-249998J0D01*
G01*
G37*
D19*
X109839400Y-91996000D03*
X109839400Y-90726000D03*
D20*
X109839400Y-93266000D03*
D21*
X140040000Y-92681800D03*
D22*
X137500000Y-92681800D03*
X134960000Y-92681800D03*
D23*
X104932000Y-78685000D03*
D24*
X104932000Y-83685000D03*
D25*
X158152000Y-95645000D03*
X158152000Y-92645000D03*
X161852000Y-95645000D03*
X161852000Y-92645000D03*
D26*
G36*
X159102000Y-94645000D02*
G01*
X157402000Y-94645000D01*
X157402000Y-93645000D01*
X159102000Y-93645000D01*
X159602000Y-93145000D01*
X160402000Y-93145000D01*
X160902000Y-93645000D01*
X162602000Y-93645000D01*
X162602000Y-94645000D01*
X160902000Y-94645000D01*
X160402000Y-95145000D01*
X159602000Y-95145000D01*
X159102000Y-94645000D01*
G37*
D25*
X168352000Y-95645000D03*
X168352000Y-92645000D03*
X172052000Y-95645000D03*
X172052000Y-92645000D03*
D26*
G36*
X169302000Y-94645000D02*
G01*
X167602000Y-94645000D01*
X167602000Y-93645000D01*
X169302000Y-93645000D01*
X169802000Y-93145000D01*
X170602000Y-93145000D01*
X171102000Y-93645000D01*
X172802000Y-93645000D01*
X172802000Y-94645000D01*
X171102000Y-94645000D01*
X170602000Y-95145000D01*
X169802000Y-95145000D01*
X169302000Y-94645000D01*
G37*
G36*
X179352000Y-94595000D02*
G01*
X177652000Y-94595000D01*
X177652000Y-93595000D01*
X179352000Y-93595000D01*
X179852000Y-93095000D01*
X180652000Y-93095000D01*
X181152000Y-93595000D01*
X182852000Y-93595000D01*
X182852000Y-94595000D01*
X181152000Y-94595000D01*
X180652000Y-95095000D01*
X179852000Y-95095000D01*
X179352000Y-94595000D01*
G37*
D25*
X182102000Y-92595000D03*
X182102000Y-95595000D03*
X178402000Y-92595000D03*
X178402000Y-95595000D03*
D26*
G36*
X189602000Y-94595000D02*
G01*
X187902000Y-94595000D01*
X187902000Y-93595000D01*
X189602000Y-93595000D01*
X190102000Y-93095000D01*
X190902000Y-93095000D01*
X191402000Y-93595000D01*
X193102000Y-93595000D01*
X193102000Y-94595000D01*
X191402000Y-94595000D01*
X190902000Y-95095000D01*
X190102000Y-95095000D01*
X189602000Y-94595000D01*
G37*
D25*
X192352000Y-92595000D03*
X192352000Y-95595000D03*
X188652000Y-92595000D03*
X188652000Y-95595000D03*
D26*
G36*
X195452000Y-108945000D02*
G01*
X197152000Y-108945000D01*
X197152000Y-109945000D01*
X195452000Y-109945000D01*
X194952000Y-110445000D01*
X194152000Y-110445000D01*
X193652000Y-109945000D01*
X191952000Y-109945000D01*
X191952000Y-108945000D01*
X193652000Y-108945000D01*
X194152000Y-108445000D01*
X194952000Y-108445000D01*
X195452000Y-108945000D01*
G37*
D25*
X192702000Y-110945000D03*
X192702000Y-107945000D03*
X196402000Y-110945000D03*
X196402000Y-107945000D03*
D26*
G36*
X185202000Y-108945000D02*
G01*
X186902000Y-108945000D01*
X186902000Y-109945000D01*
X185202000Y-109945000D01*
X184702000Y-110445000D01*
X183902000Y-110445000D01*
X183402000Y-109945000D01*
X181702000Y-109945000D01*
X181702000Y-108945000D01*
X183402000Y-108945000D01*
X183902000Y-108445000D01*
X184702000Y-108445000D01*
X185202000Y-108945000D01*
G37*
D25*
X182452000Y-110945000D03*
X182452000Y-107945000D03*
X186152000Y-110945000D03*
X186152000Y-107945000D03*
X175952000Y-107945000D03*
X175952000Y-110945000D03*
X172252000Y-107945000D03*
X172252000Y-110945000D03*
D26*
G36*
X175002000Y-108945000D02*
G01*
X176702000Y-108945000D01*
X176702000Y-109945000D01*
X175002000Y-109945000D01*
X174502000Y-110445000D01*
X173702000Y-110445000D01*
X173202000Y-109945000D01*
X171502000Y-109945000D01*
X171502000Y-108945000D01*
X173202000Y-108945000D01*
X173702000Y-108445000D01*
X174502000Y-108445000D01*
X175002000Y-108945000D01*
G37*
D25*
X165902000Y-107945000D03*
X165902000Y-110945000D03*
X162202000Y-107945000D03*
X162202000Y-110945000D03*
D26*
G36*
X164952000Y-108945000D02*
G01*
X166652000Y-108945000D01*
X166652000Y-109945000D01*
X164952000Y-109945000D01*
X164452000Y-110445000D01*
X163652000Y-110445000D01*
X163152000Y-109945000D01*
X161452000Y-109945000D01*
X161452000Y-108945000D01*
X163152000Y-108945000D01*
X163652000Y-108445000D01*
X164452000Y-108445000D01*
X164952000Y-108945000D01*
G37*
D27*
X107722000Y-124025000D03*
X107722000Y-126565000D03*
X110262000Y-126565000D03*
X110262000Y-124025000D03*
X112802000Y-126565000D03*
X112802000Y-124025000D03*
X115342000Y-126565000D03*
X115342000Y-124025000D03*
X117882000Y-126565000D03*
X117882000Y-124025000D03*
X120422000Y-126565000D03*
X120422000Y-124025000D03*
X122962000Y-126565000D03*
X122962000Y-124025000D03*
X125502000Y-126565000D03*
X125502000Y-124025000D03*
X128042000Y-126565000D03*
X128042000Y-124025000D03*
X130582000Y-126565000D03*
X130582000Y-124025000D03*
X107722000Y-101165000D03*
X107722000Y-98625000D03*
X110262000Y-101165000D03*
X110262000Y-98625000D03*
X112802000Y-101165000D03*
X112802000Y-98625000D03*
X115342000Y-101165000D03*
X115342000Y-98625000D03*
X117882000Y-101165000D03*
X117882000Y-98625000D03*
X120422000Y-101165000D03*
X120422000Y-98625000D03*
X122962000Y-101165000D03*
X122962000Y-98625000D03*
X125502000Y-101165000D03*
X125502000Y-98625000D03*
X128042000Y-101165000D03*
X128042000Y-98625000D03*
X130582000Y-101165000D03*
X130582000Y-98625000D03*
D28*
X159122000Y-80535000D03*
D29*
X164202000Y-80535000D03*
X174372000Y-80535000D03*
D28*
X169292000Y-80535000D03*
X179452000Y-80535000D03*
D29*
X184532000Y-80535000D03*
X194702000Y-80535000D03*
D28*
X189622000Y-80535000D03*
D29*
X189792000Y-123025000D03*
D28*
X194872000Y-123025000D03*
X184712000Y-123025000D03*
D29*
X179632000Y-123025000D03*
X169472000Y-123025000D03*
D28*
X174552000Y-123025000D03*
X164402000Y-123025000D03*
D29*
X159322000Y-123025000D03*
M02*
