G04 #@! TF.GenerationSoftware,KiCad,Pcbnew,5.1.12-84ad8e8a86~92~ubuntu20.04.1*
G04 #@! TF.CreationDate,2021-11-06T00:10:49+01:00*
G04 #@! TF.ProjectId,CC dimmer low voltage,43432064-696d-46d6-9572-206c6f772076,0.98*
G04 #@! TF.SameCoordinates,Original*
G04 #@! TF.FileFunction,Copper,L2,Bot*
G04 #@! TF.FilePolarity,Positive*
%FSLAX46Y46*%
G04 Gerber Fmt 4.6, Leading zero omitted, Abs format (unit mm)*
G04 Created by KiCad (PCBNEW 5.1.12-84ad8e8a86~92~ubuntu20.04.1) date 2021-11-06 00:10:49*
%MOMM*%
%LPD*%
G01*
G04 APERTURE LIST*
G04 #@! TA.AperFunction,ComponentPad*
%ADD10C,3.000000*%
G04 #@! TD*
G04 #@! TA.AperFunction,ComponentPad*
%ADD11R,1.700000X1.700000*%
G04 #@! TD*
G04 #@! TA.AperFunction,ComponentPad*
%ADD12O,1.700000X1.950000*%
G04 #@! TD*
G04 #@! TA.AperFunction,ComponentPad*
%ADD13O,2.000000X1.905000*%
G04 #@! TD*
G04 #@! TA.AperFunction,ComponentPad*
%ADD14R,2.000000X1.905000*%
G04 #@! TD*
G04 #@! TA.AperFunction,ComponentPad*
%ADD15O,1.500000X1.050000*%
G04 #@! TD*
G04 #@! TA.AperFunction,ComponentPad*
%ADD16R,1.500000X1.050000*%
G04 #@! TD*
G04 #@! TA.AperFunction,ComponentPad*
%ADD17R,1.905000X2.000000*%
G04 #@! TD*
G04 #@! TA.AperFunction,ComponentPad*
%ADD18O,1.905000X2.000000*%
G04 #@! TD*
G04 #@! TA.AperFunction,ComponentPad*
%ADD19R,2.600000X2.600000*%
G04 #@! TD*
G04 #@! TA.AperFunction,ComponentPad*
%ADD20C,2.600000*%
G04 #@! TD*
G04 #@! TA.AperFunction,ComponentPad*
%ADD21C,1.400000*%
G04 #@! TD*
G04 #@! TA.AperFunction,ComponentPad*
%ADD22C,2.500000*%
G04 #@! TD*
G04 #@! TA.AperFunction,ComponentPad*
%ADD23R,2.500000X2.500000*%
G04 #@! TD*
G04 #@! TA.AperFunction,ViaPad*
%ADD24C,0.800000*%
G04 #@! TD*
G04 #@! TA.AperFunction,Conductor*
%ADD25C,0.800000*%
G04 #@! TD*
G04 #@! TA.AperFunction,Conductor*
%ADD26C,0.400000*%
G04 #@! TD*
G04 #@! TA.AperFunction,Conductor*
%ADD27C,0.254000*%
G04 #@! TD*
G04 #@! TA.AperFunction,Conductor*
%ADD28C,0.150000*%
G04 #@! TD*
G04 APERTURE END LIST*
D10*
X134731400Y-80642200D03*
X112131400Y-80642200D03*
D11*
X151492000Y-116325000D03*
X151502000Y-108905000D03*
G04 #@! TA.AperFunction,ComponentPad*
G36*
G01*
X139702000Y-102300000D02*
X139702000Y-100850000D01*
G75*
G02*
X139952000Y-100600000I250000J0D01*
G01*
X141152000Y-100600000D01*
G75*
G02*
X141402000Y-100850000I0J-250000D01*
G01*
X141402000Y-102300000D01*
G75*
G02*
X141152000Y-102550000I-250000J0D01*
G01*
X139952000Y-102550000D01*
G75*
G02*
X139702000Y-102300000I0J250000D01*
G01*
G37*
G04 #@! TD.AperFunction*
D12*
X143052000Y-101575000D03*
X145552000Y-101575000D03*
G04 #@! TA.AperFunction,ComponentPad*
G36*
G01*
X139772000Y-123330000D02*
X139772000Y-121880000D01*
G75*
G02*
X140022000Y-121630000I250000J0D01*
G01*
X141222000Y-121630000D01*
G75*
G02*
X141472000Y-121880000I0J-250000D01*
G01*
X141472000Y-123330000D01*
G75*
G02*
X141222000Y-123580000I-250000J0D01*
G01*
X140022000Y-123580000D01*
G75*
G02*
X139772000Y-123330000I0J250000D01*
G01*
G37*
G04 #@! TD.AperFunction*
X143122000Y-122605000D03*
X145622000Y-122605000D03*
X148122000Y-122605000D03*
D11*
X148962000Y-108905000D03*
X148952000Y-116325000D03*
X117230800Y-93774000D03*
D13*
X139354200Y-83487000D03*
X139354200Y-80947000D03*
D14*
X139354200Y-78407000D03*
D15*
X109839400Y-91996000D03*
X109839400Y-90726000D03*
D16*
X109839400Y-93266000D03*
D17*
X140040000Y-92681800D03*
D18*
X137500000Y-92681800D03*
X134960000Y-92681800D03*
D19*
X104932000Y-78685000D03*
D20*
X104932000Y-83685000D03*
D21*
X107722000Y-124025000D03*
X107722000Y-126565000D03*
X110262000Y-126565000D03*
X110262000Y-124025000D03*
X112802000Y-126565000D03*
X112802000Y-124025000D03*
X115342000Y-126565000D03*
X115342000Y-124025000D03*
X117882000Y-126565000D03*
X117882000Y-124025000D03*
X120422000Y-126565000D03*
X120422000Y-124025000D03*
X122962000Y-126565000D03*
X122962000Y-124025000D03*
X125502000Y-126565000D03*
X125502000Y-124025000D03*
X128042000Y-126565000D03*
X128042000Y-124025000D03*
X130582000Y-126565000D03*
X130582000Y-124025000D03*
X107722000Y-101165000D03*
X107722000Y-98625000D03*
X110262000Y-101165000D03*
X110262000Y-98625000D03*
X112802000Y-101165000D03*
X112802000Y-98625000D03*
X115342000Y-101165000D03*
X115342000Y-98625000D03*
X117882000Y-101165000D03*
X117882000Y-98625000D03*
X120422000Y-101165000D03*
X120422000Y-98625000D03*
X122962000Y-101165000D03*
X122962000Y-98625000D03*
X125502000Y-101165000D03*
X125502000Y-98625000D03*
X128042000Y-101165000D03*
X128042000Y-98625000D03*
X130582000Y-101165000D03*
X130582000Y-98625000D03*
D22*
X159122000Y-80535000D03*
D23*
X164202000Y-80535000D03*
X174372000Y-80535000D03*
D22*
X169292000Y-80535000D03*
X179452000Y-80535000D03*
D23*
X184532000Y-80535000D03*
X194702000Y-80535000D03*
D22*
X189622000Y-80535000D03*
D23*
X189792000Y-123025000D03*
D22*
X194872000Y-123025000D03*
X184712000Y-123025000D03*
D23*
X179632000Y-123025000D03*
X169472000Y-123025000D03*
D22*
X174552000Y-123025000D03*
X164402000Y-123025000D03*
D23*
X159322000Y-123025000D03*
D24*
X166989400Y-94129600D03*
X173364800Y-94142300D03*
X176984300Y-94104200D03*
X187182400Y-94078800D03*
X197583700Y-109445800D03*
X187398300Y-109420400D03*
X177301800Y-109420400D03*
X167218000Y-109445800D03*
X191500400Y-109445800D03*
X181188000Y-109420400D03*
X160956900Y-109445800D03*
X170989900Y-109420400D03*
X163085974Y-94129600D03*
X183321600Y-94104200D03*
X193672100Y-94078800D03*
X135152000Y-108795000D03*
X99152000Y-95945000D03*
X112379400Y-95806000D03*
X144472300Y-77048100D03*
X154645000Y-76032100D03*
X167252000Y-77745000D03*
X176952000Y-77795000D03*
X187452000Y-77745000D03*
X200212600Y-76578200D03*
X200466600Y-95501200D03*
X200276100Y-86319100D03*
X201552000Y-105545000D03*
X200002000Y-126045000D03*
X200652000Y-116913400D03*
X188541300Y-127416300D03*
X178457500Y-127505200D03*
X168246700Y-127467100D03*
X156435700Y-127467100D03*
X155452000Y-118995000D03*
X137246000Y-117396000D03*
X125816000Y-120571000D03*
X118152000Y-113045000D03*
X110152000Y-121295000D03*
X110080700Y-104734100D03*
X130184800Y-86827100D03*
X130705500Y-76984600D03*
X116760900Y-76895700D03*
X123288700Y-82318600D03*
X99052000Y-75635000D03*
X139642000Y-109425000D03*
X112902000Y-128795000D03*
X131902000Y-94545000D03*
X119152000Y-86795000D03*
X98992000Y-86665000D03*
X137233300Y-83563200D03*
X159813900Y-90091000D03*
X156902000Y-95629600D03*
X166986600Y-95629600D03*
X190248800Y-90141800D03*
X180080600Y-90116400D03*
X176842800Y-95604200D03*
X187118200Y-95578800D03*
X167402000Y-107795000D03*
X177652000Y-107795000D03*
X187902000Y-107795000D03*
X198402000Y-107795000D03*
X194790600Y-113433600D03*
X184540600Y-113433600D03*
X174513400Y-113433600D03*
X164263400Y-113433600D03*
X169856000Y-90091000D03*
X129308500Y-120329700D03*
X163090500Y-92631000D03*
X121712000Y-104150020D03*
X173580700Y-92656400D03*
X132762000Y-106155000D03*
X183552000Y-92595000D03*
X155844920Y-87087680D03*
X155838800Y-90091000D03*
X137326962Y-106150038D03*
X193734200Y-92578800D03*
X154689330Y-86087670D03*
X154689330Y-90102330D03*
X191463700Y-110945800D03*
X125117500Y-111947700D03*
X130645290Y-111931710D03*
X181164000Y-110920400D03*
X123707800Y-113382800D03*
X153637613Y-113374187D03*
X136039500Y-113382800D03*
X139802787Y-113374187D03*
X170991300Y-110920400D03*
X156362792Y-114433608D03*
X138176392Y-114433608D03*
X160955500Y-110945800D03*
X131759600Y-110931700D03*
D25*
X139354200Y-78407000D02*
X137906400Y-78407000D01*
X137906400Y-78407000D02*
X137220600Y-79092800D01*
X137220600Y-83550500D02*
X137233300Y-83563200D01*
X137220600Y-79092800D02*
X137220600Y-83550500D01*
X159813900Y-90091000D02*
X159407500Y-90497400D01*
X159407500Y-90497400D02*
X159407500Y-94066100D01*
X159407500Y-94066100D02*
X157844000Y-95629600D01*
X157844000Y-95629600D02*
X156902000Y-95629600D01*
X176842800Y-95604200D02*
X177842800Y-95604200D01*
X177842800Y-95604200D02*
X179652000Y-93795000D01*
X179652000Y-90545000D02*
X180051238Y-90145762D01*
X179652000Y-93795000D02*
X179652000Y-90545000D01*
X187118200Y-95578800D02*
X188118200Y-95578800D01*
X188118200Y-95578800D02*
X189902000Y-93795000D01*
X189902000Y-90488600D02*
X190248800Y-90141800D01*
X189902000Y-93795000D02*
X189902000Y-90488600D01*
X184540600Y-110590715D02*
X184540600Y-113433600D01*
X187336315Y-107795000D02*
X184540600Y-110590715D01*
X187902000Y-107795000D02*
X187336315Y-107795000D01*
X194790600Y-110758898D02*
X194790600Y-113433600D01*
X197754498Y-107795000D02*
X194790600Y-110758898D01*
X198402000Y-107795000D02*
X197754498Y-107795000D01*
X174513400Y-110367915D02*
X174513400Y-113433600D01*
X177086315Y-107795000D02*
X174513400Y-110367915D01*
X177652000Y-107795000D02*
X177086315Y-107795000D01*
X164263400Y-110933600D02*
X164263400Y-113433600D01*
X167402000Y-107795000D02*
X164263400Y-110933600D01*
X167817400Y-95629600D02*
X166986600Y-95629600D01*
X169856000Y-93591000D02*
X167817400Y-95629600D01*
X169856000Y-90091000D02*
X169856000Y-93591000D01*
X116164000Y-96695000D02*
X142326000Y-96695000D01*
X115342000Y-97517000D02*
X116164000Y-96695000D01*
X115342000Y-98625000D02*
X115342000Y-97517000D01*
X143052000Y-97421000D02*
X142326000Y-96695000D01*
X143052000Y-101575000D02*
X143052000Y-97421000D01*
X140622000Y-122605000D02*
X123442000Y-122605000D01*
X122962000Y-123085000D02*
X122962000Y-124025000D01*
X123442000Y-122605000D02*
X122962000Y-123085000D01*
D26*
X143152000Y-122635000D02*
X143122000Y-122605000D01*
X143152000Y-126545000D02*
X143152000Y-122635000D01*
X140617000Y-129080000D02*
X143152000Y-126545000D01*
X114563800Y-129080000D02*
X140617000Y-129080000D01*
X114132000Y-128648200D02*
X114563800Y-129080000D01*
X114132000Y-125346200D02*
X114132000Y-128648200D01*
X112862000Y-124076200D02*
X114132000Y-125346200D01*
D25*
X143334000Y-120317000D02*
X145622000Y-122605000D01*
X129321200Y-120317000D02*
X143334000Y-120317000D01*
X129308500Y-120329700D02*
X129321200Y-120317000D01*
X154190868Y-89087700D02*
X154190868Y-89090999D01*
X160224826Y-89087700D02*
X154190868Y-89087700D01*
X163090500Y-91953374D02*
X160224826Y-89087700D01*
X154190868Y-89090999D02*
X153667560Y-89614307D01*
X163090500Y-92631000D02*
X163090500Y-91953374D01*
X153667560Y-93110560D02*
X153667560Y-95137090D01*
X153667560Y-89614307D02*
X153667560Y-93110560D01*
X153667560Y-97049290D02*
X146566830Y-104150020D01*
X153667560Y-95137090D02*
X153667560Y-97049290D01*
X146566830Y-104150020D02*
X121712000Y-104150020D01*
X121712000Y-104150020D02*
X121712000Y-104150020D01*
X173580700Y-92090715D02*
X169577675Y-88087690D01*
X173580700Y-92656400D02*
X173580700Y-92090715D01*
X151044690Y-88087690D02*
X150598308Y-88087690D01*
X169577675Y-88087690D02*
X151044690Y-88087690D01*
X117882000Y-101165000D02*
X117882000Y-102025000D01*
X146152613Y-103150010D02*
X147032000Y-102270623D01*
X119007010Y-103150010D02*
X146152613Y-103150010D01*
X117882000Y-102025000D02*
X119007010Y-103150010D01*
X147032000Y-102270623D02*
X147032000Y-88875000D01*
X147819310Y-88087690D02*
X151044690Y-88087690D01*
X147032000Y-88875000D02*
X147819310Y-88087690D01*
X183552000Y-91695000D02*
X183552000Y-92595000D01*
X178944680Y-87087680D02*
X183552000Y-91695000D01*
X155844920Y-87087680D02*
X178944680Y-87087680D01*
X155838800Y-97848200D02*
X147730870Y-105956130D01*
X155838800Y-90091000D02*
X155838800Y-97848200D01*
X147536962Y-106150038D02*
X137326962Y-106150038D01*
X147730870Y-105956130D02*
X147536962Y-106150038D01*
X137326962Y-106150038D02*
X137326962Y-106150038D01*
X115342000Y-123575000D02*
X115342000Y-124025000D01*
X132762000Y-106155000D02*
X115342000Y-123575000D01*
X187808755Y-86087670D02*
X155864200Y-86087670D01*
X193734200Y-92013115D02*
X187808755Y-86087670D01*
X193734200Y-92578800D02*
X193734200Y-92013115D01*
X154689330Y-86087670D02*
X154689330Y-86087670D01*
X155864200Y-86087670D02*
X154689330Y-86087670D01*
X154689330Y-97583444D02*
X147122744Y-105150030D01*
X154689330Y-90102330D02*
X154689330Y-97583444D01*
X136012743Y-105150030D02*
X118287773Y-122875000D01*
X147122744Y-105150030D02*
X136012743Y-105150030D01*
X118287773Y-123619227D02*
X117882000Y-124025000D01*
X118287773Y-122875000D02*
X118287773Y-123619227D01*
X191463700Y-110945800D02*
X185975872Y-116433628D01*
X185975872Y-116433628D02*
X168306526Y-116433628D01*
X168306526Y-116433628D02*
X156372200Y-116433628D01*
X115402000Y-101216200D02*
X115402000Y-102232200D01*
X115402000Y-102232200D02*
X125117500Y-111947700D01*
X156372200Y-116433628D02*
X155282828Y-116433628D01*
X150780910Y-111931710D02*
X130645290Y-111931710D01*
X155282828Y-116433628D02*
X150780910Y-111931710D01*
X181164000Y-110920400D02*
X176650782Y-115433618D01*
X176650782Y-115433618D02*
X167892309Y-115433618D01*
X167892309Y-115433618D02*
X156416882Y-115433618D01*
X112862000Y-101216200D02*
X112862000Y-102524300D01*
X112862000Y-102524300D02*
X122679100Y-112341400D01*
X122679100Y-112341400D02*
X122679100Y-112354100D01*
X122679100Y-112354100D02*
X123707800Y-113382800D01*
X156416882Y-115433618D02*
X156334100Y-115433618D01*
X156416882Y-115433618D02*
X155697044Y-115433618D01*
X155697044Y-115433618D02*
X153637613Y-113374187D01*
X139794174Y-113382800D02*
X139802787Y-113374187D01*
X136039500Y-113382800D02*
X139794174Y-113382800D01*
X167478092Y-114433608D02*
X156362792Y-114433608D01*
X120482000Y-124076200D02*
X120482000Y-122945900D01*
X120482000Y-122945900D02*
X129003700Y-114424200D01*
X138166984Y-114424200D02*
X138176392Y-114433608D01*
X129003700Y-114424200D02*
X138166984Y-114424200D01*
X170991300Y-110920400D02*
X167478092Y-114433608D01*
X160955500Y-110945800D02*
X156383500Y-110945800D01*
X156383500Y-110945800D02*
X156397600Y-110931700D01*
X156397600Y-110931700D02*
X131759600Y-110931700D01*
D27*
X200559913Y-73681782D02*
X201150609Y-73739700D01*
X201686402Y-73901466D01*
X202180569Y-74164219D01*
X202614290Y-74517953D01*
X202971043Y-74949193D01*
X203237242Y-75441519D01*
X203402743Y-75976165D01*
X203464600Y-76564705D01*
X203464601Y-126582686D01*
X203406700Y-127173209D01*
X203244935Y-127709000D01*
X202982180Y-128203172D01*
X202628447Y-128636890D01*
X202197206Y-128993644D01*
X201704881Y-129259842D01*
X201170238Y-129425342D01*
X200581744Y-129487195D01*
X141420627Y-129457240D01*
X143713428Y-127164440D01*
X143745291Y-127138291D01*
X143849636Y-127011146D01*
X143927172Y-126866087D01*
X143974918Y-126708689D01*
X143987000Y-126586019D01*
X143987000Y-126586009D01*
X143991039Y-126545001D01*
X143987000Y-126503993D01*
X143987000Y-123941173D01*
X144177134Y-123785134D01*
X144362706Y-123559014D01*
X144372000Y-123541626D01*
X144381294Y-123559014D01*
X144566866Y-123785134D01*
X144792987Y-123970706D01*
X145050967Y-124108599D01*
X145330890Y-124193513D01*
X145622000Y-124222185D01*
X145913111Y-124193513D01*
X146193034Y-124108599D01*
X146451014Y-123970706D01*
X146677134Y-123785134D01*
X146862706Y-123559014D01*
X146876462Y-123533278D01*
X147032951Y-123739429D01*
X147250807Y-123932496D01*
X147502142Y-124079352D01*
X147765110Y-124171476D01*
X147995000Y-124050155D01*
X147995000Y-122732000D01*
X148249000Y-122732000D01*
X148249000Y-124050155D01*
X148478890Y-124171476D01*
X148741858Y-124079352D01*
X148993193Y-123932496D01*
X149211049Y-123739429D01*
X149387053Y-123507570D01*
X149514442Y-123245830D01*
X149588320Y-122964267D01*
X149448165Y-122732000D01*
X148249000Y-122732000D01*
X147995000Y-122732000D01*
X147975000Y-122732000D01*
X147975000Y-122478000D01*
X147995000Y-122478000D01*
X147995000Y-121159845D01*
X148249000Y-121159845D01*
X148249000Y-122478000D01*
X149448165Y-122478000D01*
X149588320Y-122245733D01*
X149514442Y-121964170D01*
X149422373Y-121775000D01*
X157433928Y-121775000D01*
X157433928Y-124275000D01*
X157446188Y-124399482D01*
X157482498Y-124519180D01*
X157541463Y-124629494D01*
X157620815Y-124726185D01*
X157717506Y-124805537D01*
X157827820Y-124864502D01*
X157947518Y-124900812D01*
X158072000Y-124913072D01*
X160572000Y-124913072D01*
X160696482Y-124900812D01*
X160816180Y-124864502D01*
X160926494Y-124805537D01*
X161023185Y-124726185D01*
X161102537Y-124629494D01*
X161161502Y-124519180D01*
X161197812Y-124399482D01*
X161210072Y-124275000D01*
X161210072Y-122839344D01*
X162517000Y-122839344D01*
X162517000Y-123210656D01*
X162589439Y-123574834D01*
X162731534Y-123917882D01*
X162937825Y-124226618D01*
X163200382Y-124489175D01*
X163509118Y-124695466D01*
X163852166Y-124837561D01*
X164216344Y-124910000D01*
X164587656Y-124910000D01*
X164951834Y-124837561D01*
X165294882Y-124695466D01*
X165603618Y-124489175D01*
X165866175Y-124226618D01*
X166072466Y-123917882D01*
X166214561Y-123574834D01*
X166287000Y-123210656D01*
X166287000Y-122839344D01*
X166214561Y-122475166D01*
X166072466Y-122132118D01*
X165866175Y-121823382D01*
X165817793Y-121775000D01*
X167583928Y-121775000D01*
X167583928Y-124275000D01*
X167596188Y-124399482D01*
X167632498Y-124519180D01*
X167691463Y-124629494D01*
X167770815Y-124726185D01*
X167867506Y-124805537D01*
X167977820Y-124864502D01*
X168097518Y-124900812D01*
X168222000Y-124913072D01*
X170722000Y-124913072D01*
X170846482Y-124900812D01*
X170966180Y-124864502D01*
X171076494Y-124805537D01*
X171173185Y-124726185D01*
X171252537Y-124629494D01*
X171311502Y-124519180D01*
X171347812Y-124399482D01*
X171360072Y-124275000D01*
X171360072Y-122839344D01*
X172667000Y-122839344D01*
X172667000Y-123210656D01*
X172739439Y-123574834D01*
X172881534Y-123917882D01*
X173087825Y-124226618D01*
X173350382Y-124489175D01*
X173659118Y-124695466D01*
X174002166Y-124837561D01*
X174366344Y-124910000D01*
X174737656Y-124910000D01*
X175101834Y-124837561D01*
X175444882Y-124695466D01*
X175753618Y-124489175D01*
X176016175Y-124226618D01*
X176222466Y-123917882D01*
X176364561Y-123574834D01*
X176437000Y-123210656D01*
X176437000Y-122839344D01*
X176364561Y-122475166D01*
X176222466Y-122132118D01*
X176016175Y-121823382D01*
X175967793Y-121775000D01*
X177743928Y-121775000D01*
X177743928Y-124275000D01*
X177756188Y-124399482D01*
X177792498Y-124519180D01*
X177851463Y-124629494D01*
X177930815Y-124726185D01*
X178027506Y-124805537D01*
X178137820Y-124864502D01*
X178257518Y-124900812D01*
X178382000Y-124913072D01*
X180882000Y-124913072D01*
X181006482Y-124900812D01*
X181126180Y-124864502D01*
X181236494Y-124805537D01*
X181333185Y-124726185D01*
X181412537Y-124629494D01*
X181471502Y-124519180D01*
X181507812Y-124399482D01*
X181520072Y-124275000D01*
X181520072Y-122839344D01*
X182827000Y-122839344D01*
X182827000Y-123210656D01*
X182899439Y-123574834D01*
X183041534Y-123917882D01*
X183247825Y-124226618D01*
X183510382Y-124489175D01*
X183819118Y-124695466D01*
X184162166Y-124837561D01*
X184526344Y-124910000D01*
X184897656Y-124910000D01*
X185261834Y-124837561D01*
X185604882Y-124695466D01*
X185913618Y-124489175D01*
X186176175Y-124226618D01*
X186382466Y-123917882D01*
X186524561Y-123574834D01*
X186597000Y-123210656D01*
X186597000Y-122839344D01*
X186524561Y-122475166D01*
X186382466Y-122132118D01*
X186176175Y-121823382D01*
X186127793Y-121775000D01*
X187903928Y-121775000D01*
X187903928Y-124275000D01*
X187916188Y-124399482D01*
X187952498Y-124519180D01*
X188011463Y-124629494D01*
X188090815Y-124726185D01*
X188187506Y-124805537D01*
X188297820Y-124864502D01*
X188417518Y-124900812D01*
X188542000Y-124913072D01*
X191042000Y-124913072D01*
X191166482Y-124900812D01*
X191286180Y-124864502D01*
X191396494Y-124805537D01*
X191493185Y-124726185D01*
X191572537Y-124629494D01*
X191631502Y-124519180D01*
X191667812Y-124399482D01*
X191680072Y-124275000D01*
X191680072Y-122839344D01*
X192987000Y-122839344D01*
X192987000Y-123210656D01*
X193059439Y-123574834D01*
X193201534Y-123917882D01*
X193407825Y-124226618D01*
X193670382Y-124489175D01*
X193979118Y-124695466D01*
X194322166Y-124837561D01*
X194686344Y-124910000D01*
X195057656Y-124910000D01*
X195421834Y-124837561D01*
X195764882Y-124695466D01*
X196073618Y-124489175D01*
X196336175Y-124226618D01*
X196542466Y-123917882D01*
X196684561Y-123574834D01*
X196757000Y-123210656D01*
X196757000Y-122839344D01*
X196684561Y-122475166D01*
X196542466Y-122132118D01*
X196336175Y-121823382D01*
X196073618Y-121560825D01*
X195764882Y-121354534D01*
X195421834Y-121212439D01*
X195057656Y-121140000D01*
X194686344Y-121140000D01*
X194322166Y-121212439D01*
X193979118Y-121354534D01*
X193670382Y-121560825D01*
X193407825Y-121823382D01*
X193201534Y-122132118D01*
X193059439Y-122475166D01*
X192987000Y-122839344D01*
X191680072Y-122839344D01*
X191680072Y-121775000D01*
X191667812Y-121650518D01*
X191631502Y-121530820D01*
X191572537Y-121420506D01*
X191493185Y-121323815D01*
X191396494Y-121244463D01*
X191286180Y-121185498D01*
X191166482Y-121149188D01*
X191042000Y-121136928D01*
X188542000Y-121136928D01*
X188417518Y-121149188D01*
X188297820Y-121185498D01*
X188187506Y-121244463D01*
X188090815Y-121323815D01*
X188011463Y-121420506D01*
X187952498Y-121530820D01*
X187916188Y-121650518D01*
X187903928Y-121775000D01*
X186127793Y-121775000D01*
X185913618Y-121560825D01*
X185604882Y-121354534D01*
X185261834Y-121212439D01*
X184897656Y-121140000D01*
X184526344Y-121140000D01*
X184162166Y-121212439D01*
X183819118Y-121354534D01*
X183510382Y-121560825D01*
X183247825Y-121823382D01*
X183041534Y-122132118D01*
X182899439Y-122475166D01*
X182827000Y-122839344D01*
X181520072Y-122839344D01*
X181520072Y-121775000D01*
X181507812Y-121650518D01*
X181471502Y-121530820D01*
X181412537Y-121420506D01*
X181333185Y-121323815D01*
X181236494Y-121244463D01*
X181126180Y-121185498D01*
X181006482Y-121149188D01*
X180882000Y-121136928D01*
X178382000Y-121136928D01*
X178257518Y-121149188D01*
X178137820Y-121185498D01*
X178027506Y-121244463D01*
X177930815Y-121323815D01*
X177851463Y-121420506D01*
X177792498Y-121530820D01*
X177756188Y-121650518D01*
X177743928Y-121775000D01*
X175967793Y-121775000D01*
X175753618Y-121560825D01*
X175444882Y-121354534D01*
X175101834Y-121212439D01*
X174737656Y-121140000D01*
X174366344Y-121140000D01*
X174002166Y-121212439D01*
X173659118Y-121354534D01*
X173350382Y-121560825D01*
X173087825Y-121823382D01*
X172881534Y-122132118D01*
X172739439Y-122475166D01*
X172667000Y-122839344D01*
X171360072Y-122839344D01*
X171360072Y-121775000D01*
X171347812Y-121650518D01*
X171311502Y-121530820D01*
X171252537Y-121420506D01*
X171173185Y-121323815D01*
X171076494Y-121244463D01*
X170966180Y-121185498D01*
X170846482Y-121149188D01*
X170722000Y-121136928D01*
X168222000Y-121136928D01*
X168097518Y-121149188D01*
X167977820Y-121185498D01*
X167867506Y-121244463D01*
X167770815Y-121323815D01*
X167691463Y-121420506D01*
X167632498Y-121530820D01*
X167596188Y-121650518D01*
X167583928Y-121775000D01*
X165817793Y-121775000D01*
X165603618Y-121560825D01*
X165294882Y-121354534D01*
X164951834Y-121212439D01*
X164587656Y-121140000D01*
X164216344Y-121140000D01*
X163852166Y-121212439D01*
X163509118Y-121354534D01*
X163200382Y-121560825D01*
X162937825Y-121823382D01*
X162731534Y-122132118D01*
X162589439Y-122475166D01*
X162517000Y-122839344D01*
X161210072Y-122839344D01*
X161210072Y-121775000D01*
X161197812Y-121650518D01*
X161161502Y-121530820D01*
X161102537Y-121420506D01*
X161023185Y-121323815D01*
X160926494Y-121244463D01*
X160816180Y-121185498D01*
X160696482Y-121149188D01*
X160572000Y-121136928D01*
X158072000Y-121136928D01*
X157947518Y-121149188D01*
X157827820Y-121185498D01*
X157717506Y-121244463D01*
X157620815Y-121323815D01*
X157541463Y-121420506D01*
X157482498Y-121530820D01*
X157446188Y-121650518D01*
X157433928Y-121775000D01*
X149422373Y-121775000D01*
X149387053Y-121702430D01*
X149211049Y-121470571D01*
X148993193Y-121277504D01*
X148741858Y-121130648D01*
X148478890Y-121038524D01*
X148249000Y-121159845D01*
X147995000Y-121159845D01*
X147765110Y-121038524D01*
X147502142Y-121130648D01*
X147250807Y-121277504D01*
X147032951Y-121470571D01*
X146876462Y-121676722D01*
X146862706Y-121650986D01*
X146677134Y-121424866D01*
X146451013Y-121239294D01*
X146193033Y-121101401D01*
X145913110Y-121016487D01*
X145622000Y-120987815D01*
X145482286Y-121001576D01*
X144101807Y-119621097D01*
X144069396Y-119581604D01*
X143911797Y-119452266D01*
X143731993Y-119356159D01*
X143536895Y-119296976D01*
X143384838Y-119282000D01*
X143384828Y-119282000D01*
X143334000Y-119276994D01*
X143283172Y-119282000D01*
X129372035Y-119282000D01*
X129321200Y-119276993D01*
X129270365Y-119282000D01*
X129270362Y-119282000D01*
X129118305Y-119296976D01*
X128923207Y-119356159D01*
X128743403Y-119452266D01*
X128676282Y-119507351D01*
X128648726Y-119525763D01*
X128625292Y-119549197D01*
X128585804Y-119581604D01*
X128553397Y-119621092D01*
X128504563Y-119669926D01*
X128476171Y-119712417D01*
X128443766Y-119751903D01*
X128419687Y-119796952D01*
X128391295Y-119839444D01*
X128371736Y-119886664D01*
X128347660Y-119931707D01*
X128332835Y-119980578D01*
X128313274Y-120027802D01*
X128303303Y-120077932D01*
X128288477Y-120126805D01*
X128283471Y-120177633D01*
X128273500Y-120227761D01*
X128273500Y-120278872D01*
X128268494Y-120329700D01*
X128273500Y-120380528D01*
X128273500Y-120431639D01*
X128283471Y-120481767D01*
X128288477Y-120532595D01*
X128303303Y-120581468D01*
X128313274Y-120631598D01*
X128332835Y-120678822D01*
X128347660Y-120727693D01*
X128371736Y-120772736D01*
X128391295Y-120819956D01*
X128419687Y-120862448D01*
X128443766Y-120907497D01*
X128476172Y-120946984D01*
X128504563Y-120989474D01*
X128540697Y-121025608D01*
X128573104Y-121065096D01*
X128612592Y-121097503D01*
X128648726Y-121133637D01*
X128691216Y-121162028D01*
X128730703Y-121194434D01*
X128775752Y-121218513D01*
X128818244Y-121246905D01*
X128865464Y-121266464D01*
X128910507Y-121290540D01*
X128959378Y-121305365D01*
X129006602Y-121324926D01*
X129056732Y-121334897D01*
X129105605Y-121349723D01*
X129156433Y-121354729D01*
X129206561Y-121364700D01*
X129257672Y-121364700D01*
X129308500Y-121369706D01*
X129359328Y-121364700D01*
X129410439Y-121364700D01*
X129460567Y-121354729D01*
X129488276Y-121352000D01*
X139312002Y-121352000D01*
X139283595Y-121386614D01*
X139201528Y-121540150D01*
X139192473Y-121570000D01*
X123492835Y-121570000D01*
X123442000Y-121564993D01*
X123391165Y-121570000D01*
X123391162Y-121570000D01*
X123314012Y-121577598D01*
X127716610Y-117175000D01*
X147463928Y-117175000D01*
X147476188Y-117299482D01*
X147512498Y-117419180D01*
X147571463Y-117529494D01*
X147650815Y-117626185D01*
X147747506Y-117705537D01*
X147857820Y-117764502D01*
X147977518Y-117800812D01*
X148102000Y-117813072D01*
X148666250Y-117810000D01*
X148825000Y-117651250D01*
X148825000Y-116452000D01*
X147625750Y-116452000D01*
X147467000Y-116610750D01*
X147463928Y-117175000D01*
X127716610Y-117175000D01*
X129416610Y-115475000D01*
X147463928Y-115475000D01*
X147467000Y-116039250D01*
X147625750Y-116198000D01*
X148825000Y-116198000D01*
X148825000Y-114998750D01*
X148666250Y-114840000D01*
X148102000Y-114836928D01*
X147977518Y-114849188D01*
X147857820Y-114885498D01*
X147747506Y-114944463D01*
X147650815Y-115023815D01*
X147571463Y-115120506D01*
X147512498Y-115230820D01*
X147476188Y-115350518D01*
X147463928Y-115475000D01*
X129416610Y-115475000D01*
X129432411Y-115459200D01*
X138027155Y-115459200D01*
X138074453Y-115468608D01*
X138125557Y-115468608D01*
X138176392Y-115473615D01*
X138227227Y-115468608D01*
X138278331Y-115468608D01*
X138328456Y-115458638D01*
X138379287Y-115453631D01*
X138428160Y-115438805D01*
X138478290Y-115428834D01*
X138525514Y-115409273D01*
X138574385Y-115394448D01*
X138619428Y-115370372D01*
X138666648Y-115350813D01*
X138709140Y-115322421D01*
X138754189Y-115298342D01*
X138793676Y-115265936D01*
X138836166Y-115237545D01*
X138872300Y-115201411D01*
X138911788Y-115169004D01*
X138944195Y-115129516D01*
X138980329Y-115093382D01*
X139008720Y-115050892D01*
X139041126Y-115011405D01*
X139065205Y-114966356D01*
X139093597Y-114923864D01*
X139113156Y-114876644D01*
X139137232Y-114831601D01*
X139152057Y-114782730D01*
X139171618Y-114735506D01*
X139181589Y-114685376D01*
X139196415Y-114636503D01*
X139201422Y-114585672D01*
X139211392Y-114535547D01*
X139211392Y-114484443D01*
X139216399Y-114433608D01*
X139214842Y-114417800D01*
X139743346Y-114417800D01*
X139794174Y-114422806D01*
X139845002Y-114417800D01*
X139845012Y-114417800D01*
X139997069Y-114402824D01*
X140192167Y-114343641D01*
X140279159Y-114297143D01*
X140293043Y-114291392D01*
X140305538Y-114283043D01*
X140371971Y-114247534D01*
X140430199Y-114199747D01*
X140462561Y-114178124D01*
X140490082Y-114150603D01*
X140529570Y-114118196D01*
X140561977Y-114078708D01*
X140606724Y-114033961D01*
X140635116Y-113991470D01*
X140667521Y-113951984D01*
X140691601Y-113906933D01*
X140719992Y-113864443D01*
X140739549Y-113817229D01*
X140763628Y-113772180D01*
X140778454Y-113723303D01*
X140798013Y-113676085D01*
X140807984Y-113625955D01*
X140822810Y-113577081D01*
X140827816Y-113526252D01*
X140837787Y-113476126D01*
X140837787Y-113425022D01*
X140842794Y-113374187D01*
X140837787Y-113323352D01*
X140837787Y-113272248D01*
X140827817Y-113222123D01*
X140822810Y-113171292D01*
X140807984Y-113122417D01*
X140798013Y-113072289D01*
X140778455Y-113025072D01*
X140763628Y-112976194D01*
X140758559Y-112966710D01*
X150352200Y-112966710D01*
X152222418Y-114836928D01*
X150642000Y-114836928D01*
X150517518Y-114849188D01*
X150397820Y-114885498D01*
X150287506Y-114944463D01*
X150222000Y-114998222D01*
X150156494Y-114944463D01*
X150046180Y-114885498D01*
X149926482Y-114849188D01*
X149802000Y-114836928D01*
X149237750Y-114840000D01*
X149079000Y-114998750D01*
X149079000Y-116198000D01*
X149099000Y-116198000D01*
X149099000Y-116452000D01*
X149079000Y-116452000D01*
X149079000Y-117651250D01*
X149237750Y-117810000D01*
X149802000Y-117813072D01*
X149926482Y-117800812D01*
X150046180Y-117764502D01*
X150156494Y-117705537D01*
X150222000Y-117651778D01*
X150287506Y-117705537D01*
X150397820Y-117764502D01*
X150517518Y-117800812D01*
X150642000Y-117813072D01*
X152342000Y-117813072D01*
X152466482Y-117800812D01*
X152586180Y-117764502D01*
X152696494Y-117705537D01*
X152793185Y-117626185D01*
X152872537Y-117529494D01*
X152931502Y-117419180D01*
X152967812Y-117299482D01*
X152980072Y-117175000D01*
X152980072Y-115594583D01*
X154515025Y-117129536D01*
X154547432Y-117169024D01*
X154705031Y-117298362D01*
X154884835Y-117394469D01*
X155079933Y-117453652D01*
X155231990Y-117468628D01*
X155231999Y-117468628D01*
X155282827Y-117473634D01*
X155333655Y-117468628D01*
X185925044Y-117468628D01*
X185975872Y-117473634D01*
X186026700Y-117468628D01*
X186026710Y-117468628D01*
X186178767Y-117453652D01*
X186373865Y-117394469D01*
X186553669Y-117298362D01*
X186711268Y-117169024D01*
X186743679Y-117129531D01*
X192231503Y-111641708D01*
X192267637Y-111605574D01*
X192296025Y-111563088D01*
X192328434Y-111523598D01*
X192352516Y-111478544D01*
X192380905Y-111436056D01*
X192400462Y-111388841D01*
X192424540Y-111343794D01*
X192439366Y-111294920D01*
X192458926Y-111247698D01*
X192468897Y-111197568D01*
X192483723Y-111148695D01*
X192488730Y-111097864D01*
X192498700Y-111047739D01*
X192498700Y-110996635D01*
X192503707Y-110945800D01*
X192498700Y-110894965D01*
X192498700Y-110843861D01*
X192488730Y-110793736D01*
X192485299Y-110758898D01*
X193750594Y-110758898D01*
X193755600Y-110809726D01*
X193755601Y-113331656D01*
X193755600Y-113331661D01*
X193755600Y-113535539D01*
X193765571Y-113585667D01*
X193770577Y-113636495D01*
X193785403Y-113685368D01*
X193795374Y-113735498D01*
X193814935Y-113782722D01*
X193829760Y-113831593D01*
X193853835Y-113876634D01*
X193873395Y-113923856D01*
X193901791Y-113966353D01*
X193925867Y-114011397D01*
X193958268Y-114050878D01*
X193986663Y-114093374D01*
X194022803Y-114129514D01*
X194055205Y-114168996D01*
X194094687Y-114201398D01*
X194130826Y-114237537D01*
X194173321Y-114265931D01*
X194212804Y-114298334D01*
X194257850Y-114322412D01*
X194300344Y-114350805D01*
X194347562Y-114370363D01*
X194392608Y-114394441D01*
X194441484Y-114409268D01*
X194488702Y-114428826D01*
X194538826Y-114438796D01*
X194587706Y-114453624D01*
X194638542Y-114458631D01*
X194688661Y-114468600D01*
X194739762Y-114468600D01*
X194790600Y-114473607D01*
X194841438Y-114468600D01*
X194892539Y-114468600D01*
X194942657Y-114458631D01*
X194993495Y-114453624D01*
X195042377Y-114438796D01*
X195092498Y-114428826D01*
X195139713Y-114409269D01*
X195188593Y-114394441D01*
X195233642Y-114370362D01*
X195280856Y-114350805D01*
X195323346Y-114322414D01*
X195368397Y-114298334D01*
X195407884Y-114265928D01*
X195450374Y-114237537D01*
X195486508Y-114201403D01*
X195525996Y-114168996D01*
X195558403Y-114129508D01*
X195594537Y-114093374D01*
X195622928Y-114050884D01*
X195655334Y-114011397D01*
X195679414Y-113966346D01*
X195707805Y-113923856D01*
X195727362Y-113876642D01*
X195751441Y-113831593D01*
X195766269Y-113782713D01*
X195785826Y-113735498D01*
X195795796Y-113685377D01*
X195810624Y-113636495D01*
X195815631Y-113585657D01*
X195825600Y-113535539D01*
X195825600Y-111187608D01*
X198183209Y-108830000D01*
X198503939Y-108830000D01*
X198554057Y-108820031D01*
X198604895Y-108815024D01*
X198653777Y-108800196D01*
X198703898Y-108790226D01*
X198751113Y-108770669D01*
X198799993Y-108755841D01*
X198845042Y-108731762D01*
X198892256Y-108712205D01*
X198934746Y-108683814D01*
X198979797Y-108659734D01*
X199019284Y-108627328D01*
X199061774Y-108598937D01*
X199097908Y-108562803D01*
X199137396Y-108530396D01*
X199169803Y-108490908D01*
X199205937Y-108454774D01*
X199234328Y-108412284D01*
X199266734Y-108372797D01*
X199290814Y-108327746D01*
X199319205Y-108285256D01*
X199338762Y-108238042D01*
X199362841Y-108192993D01*
X199377669Y-108144113D01*
X199397226Y-108096898D01*
X199407196Y-108046777D01*
X199422024Y-107997895D01*
X199427031Y-107947057D01*
X199437000Y-107896939D01*
X199437000Y-107845838D01*
X199442007Y-107795000D01*
X199437000Y-107744162D01*
X199437000Y-107693061D01*
X199427031Y-107642943D01*
X199422024Y-107592105D01*
X199407196Y-107543223D01*
X199397226Y-107493102D01*
X199377669Y-107445887D01*
X199362841Y-107397007D01*
X199338762Y-107351958D01*
X199319205Y-107304744D01*
X199290814Y-107262254D01*
X199266734Y-107217203D01*
X199234328Y-107177716D01*
X199205937Y-107135226D01*
X199169803Y-107099092D01*
X199137396Y-107059604D01*
X199097908Y-107027197D01*
X199061774Y-106991063D01*
X199019284Y-106962672D01*
X198979797Y-106930266D01*
X198934746Y-106906186D01*
X198892256Y-106877795D01*
X198845042Y-106858238D01*
X198799993Y-106834159D01*
X198751113Y-106819331D01*
X198703898Y-106799774D01*
X198653777Y-106789804D01*
X198604895Y-106774976D01*
X198554057Y-106769969D01*
X198503939Y-106760000D01*
X197805333Y-106760000D01*
X197754498Y-106754993D01*
X197703663Y-106760000D01*
X197703660Y-106760000D01*
X197551603Y-106774976D01*
X197356505Y-106834159D01*
X197325170Y-106850908D01*
X197176700Y-106930266D01*
X197096438Y-106996136D01*
X197019102Y-107059604D01*
X196986695Y-107099092D01*
X194094697Y-109991091D01*
X194055204Y-110023502D01*
X193925866Y-110181101D01*
X193829759Y-110360906D01*
X193770576Y-110556004D01*
X193755600Y-110708061D01*
X193755600Y-110708070D01*
X193750594Y-110758898D01*
X192485299Y-110758898D01*
X192483723Y-110742905D01*
X192468897Y-110694032D01*
X192458926Y-110643902D01*
X192439365Y-110596678D01*
X192424540Y-110547807D01*
X192400464Y-110502764D01*
X192380905Y-110455544D01*
X192352513Y-110413052D01*
X192328434Y-110368003D01*
X192296028Y-110328516D01*
X192267637Y-110286026D01*
X192231503Y-110249892D01*
X192199096Y-110210404D01*
X192159608Y-110177997D01*
X192123474Y-110141863D01*
X192080984Y-110113472D01*
X192041497Y-110081066D01*
X191996448Y-110056987D01*
X191953956Y-110028595D01*
X191906736Y-110009036D01*
X191861693Y-109984960D01*
X191812822Y-109970135D01*
X191765598Y-109950574D01*
X191715468Y-109940603D01*
X191666595Y-109925777D01*
X191615764Y-109920770D01*
X191565639Y-109910800D01*
X191514535Y-109910800D01*
X191463700Y-109905793D01*
X191412865Y-109910800D01*
X191361761Y-109910800D01*
X191311636Y-109920770D01*
X191260805Y-109925777D01*
X191211932Y-109940603D01*
X191161802Y-109950574D01*
X191114580Y-109970134D01*
X191065706Y-109984960D01*
X191020659Y-110009038D01*
X190973444Y-110028595D01*
X190930956Y-110056984D01*
X190885902Y-110081066D01*
X190846412Y-110113475D01*
X190803926Y-110141863D01*
X190767792Y-110177997D01*
X185547162Y-115398628D01*
X178149482Y-115398628D01*
X181931803Y-111616308D01*
X181967937Y-111580174D01*
X181996325Y-111537688D01*
X182028734Y-111498198D01*
X182052816Y-111453144D01*
X182081205Y-111410656D01*
X182100762Y-111363441D01*
X182124840Y-111318394D01*
X182139666Y-111269519D01*
X182159226Y-111222298D01*
X182169197Y-111172171D01*
X182184023Y-111123296D01*
X182189029Y-111072466D01*
X182199000Y-111022339D01*
X182199000Y-110971229D01*
X182204006Y-110920401D01*
X182199000Y-110869573D01*
X182199000Y-110818461D01*
X182189029Y-110768333D01*
X182184023Y-110717505D01*
X182169197Y-110668632D01*
X182159226Y-110618502D01*
X182147717Y-110590715D01*
X183500594Y-110590715D01*
X183505600Y-110641543D01*
X183505601Y-113331656D01*
X183505600Y-113331661D01*
X183505600Y-113535539D01*
X183515571Y-113585667D01*
X183520577Y-113636495D01*
X183535403Y-113685368D01*
X183545374Y-113735498D01*
X183564935Y-113782722D01*
X183579760Y-113831593D01*
X183603835Y-113876634D01*
X183623395Y-113923856D01*
X183651791Y-113966353D01*
X183675867Y-114011397D01*
X183708268Y-114050878D01*
X183736663Y-114093374D01*
X183772803Y-114129514D01*
X183805205Y-114168996D01*
X183844687Y-114201398D01*
X183880826Y-114237537D01*
X183923321Y-114265931D01*
X183962804Y-114298334D01*
X184007850Y-114322412D01*
X184050344Y-114350805D01*
X184097562Y-114370363D01*
X184142608Y-114394441D01*
X184191484Y-114409268D01*
X184238702Y-114428826D01*
X184288826Y-114438796D01*
X184337706Y-114453624D01*
X184388542Y-114458631D01*
X184438661Y-114468600D01*
X184489762Y-114468600D01*
X184540600Y-114473607D01*
X184591438Y-114468600D01*
X184642539Y-114468600D01*
X184692657Y-114458631D01*
X184743495Y-114453624D01*
X184792377Y-114438796D01*
X184842498Y-114428826D01*
X184889713Y-114409269D01*
X184938593Y-114394441D01*
X184983642Y-114370362D01*
X185030856Y-114350805D01*
X185073346Y-114322414D01*
X185118397Y-114298334D01*
X185157884Y-114265928D01*
X185200374Y-114237537D01*
X185236508Y-114201403D01*
X185275996Y-114168996D01*
X185308403Y-114129508D01*
X185344537Y-114093374D01*
X185372928Y-114050884D01*
X185405334Y-114011397D01*
X185429414Y-113966346D01*
X185457805Y-113923856D01*
X185477362Y-113876642D01*
X185501441Y-113831593D01*
X185516269Y-113782713D01*
X185535826Y-113735498D01*
X185545796Y-113685377D01*
X185560624Y-113636495D01*
X185565631Y-113585657D01*
X185575600Y-113535539D01*
X185575600Y-111019425D01*
X187765026Y-108830000D01*
X188003939Y-108830000D01*
X188054057Y-108820031D01*
X188104895Y-108815024D01*
X188153777Y-108800196D01*
X188203898Y-108790226D01*
X188251113Y-108770669D01*
X188299993Y-108755841D01*
X188345042Y-108731762D01*
X188392256Y-108712205D01*
X188434746Y-108683814D01*
X188479797Y-108659734D01*
X188519284Y-108627328D01*
X188561774Y-108598937D01*
X188597908Y-108562803D01*
X188637396Y-108530396D01*
X188669803Y-108490908D01*
X188705937Y-108454774D01*
X188734328Y-108412284D01*
X188766734Y-108372797D01*
X188790814Y-108327746D01*
X188819205Y-108285256D01*
X188838762Y-108238042D01*
X188862841Y-108192993D01*
X188877669Y-108144113D01*
X188897226Y-108096898D01*
X188907196Y-108046777D01*
X188922024Y-107997895D01*
X188927031Y-107947057D01*
X188937000Y-107896939D01*
X188937000Y-107845838D01*
X188942007Y-107795000D01*
X188937000Y-107744162D01*
X188937000Y-107693061D01*
X188927031Y-107642943D01*
X188922024Y-107592105D01*
X188907196Y-107543223D01*
X188897226Y-107493102D01*
X188877669Y-107445887D01*
X188862841Y-107397007D01*
X188838762Y-107351958D01*
X188819205Y-107304744D01*
X188790814Y-107262254D01*
X188766734Y-107217203D01*
X188734328Y-107177716D01*
X188705937Y-107135226D01*
X188669803Y-107099092D01*
X188637396Y-107059604D01*
X188597908Y-107027197D01*
X188561774Y-106991063D01*
X188519284Y-106962672D01*
X188479797Y-106930266D01*
X188434746Y-106906186D01*
X188392256Y-106877795D01*
X188345042Y-106858238D01*
X188299993Y-106834159D01*
X188251113Y-106819331D01*
X188203898Y-106799774D01*
X188153777Y-106789804D01*
X188104895Y-106774976D01*
X188054057Y-106769969D01*
X188003939Y-106760000D01*
X187387142Y-106760000D01*
X187336314Y-106754994D01*
X187285486Y-106760000D01*
X187285477Y-106760000D01*
X187133420Y-106774976D01*
X186938322Y-106834159D01*
X186906987Y-106850908D01*
X186758517Y-106930266D01*
X186678255Y-106996136D01*
X186600919Y-107059604D01*
X186568512Y-107099092D01*
X183844697Y-109822908D01*
X183805204Y-109855319D01*
X183675866Y-110012918D01*
X183579759Y-110192723D01*
X183520576Y-110387821D01*
X183505600Y-110539878D01*
X183505600Y-110539887D01*
X183500594Y-110590715D01*
X182147717Y-110590715D01*
X182139665Y-110571278D01*
X182124840Y-110522407D01*
X182100764Y-110477364D01*
X182081205Y-110430144D01*
X182052813Y-110387652D01*
X182028734Y-110342603D01*
X181996330Y-110303119D01*
X181967937Y-110260626D01*
X181931795Y-110224484D01*
X181899395Y-110185005D01*
X181859916Y-110152605D01*
X181823774Y-110116463D01*
X181781281Y-110088070D01*
X181741797Y-110055666D01*
X181696748Y-110031587D01*
X181654256Y-110003195D01*
X181607036Y-109983636D01*
X181561993Y-109959560D01*
X181513122Y-109944735D01*
X181465898Y-109925174D01*
X181415768Y-109915203D01*
X181366895Y-109900377D01*
X181316067Y-109895371D01*
X181265939Y-109885400D01*
X181214827Y-109885400D01*
X181163999Y-109880394D01*
X181113171Y-109885400D01*
X181062061Y-109885400D01*
X181011934Y-109895371D01*
X180961104Y-109900377D01*
X180912229Y-109915203D01*
X180862102Y-109925174D01*
X180814881Y-109944734D01*
X180766006Y-109959560D01*
X180720959Y-109983638D01*
X180673744Y-110003195D01*
X180631256Y-110031584D01*
X180586202Y-110055666D01*
X180546712Y-110088075D01*
X180504226Y-110116463D01*
X180468092Y-110152597D01*
X176222072Y-114398618D01*
X174897623Y-114398618D01*
X174911393Y-114394441D01*
X174956442Y-114370362D01*
X175003656Y-114350805D01*
X175046146Y-114322414D01*
X175091197Y-114298334D01*
X175130684Y-114265928D01*
X175173174Y-114237537D01*
X175209308Y-114201403D01*
X175248796Y-114168996D01*
X175281203Y-114129508D01*
X175317337Y-114093374D01*
X175345728Y-114050884D01*
X175378134Y-114011397D01*
X175402214Y-113966346D01*
X175430605Y-113923856D01*
X175450162Y-113876642D01*
X175474241Y-113831593D01*
X175489069Y-113782713D01*
X175508626Y-113735498D01*
X175518596Y-113685377D01*
X175533424Y-113636495D01*
X175538431Y-113585657D01*
X175548400Y-113535539D01*
X175548400Y-110796625D01*
X177515026Y-108830000D01*
X177753939Y-108830000D01*
X177804057Y-108820031D01*
X177854895Y-108815024D01*
X177903777Y-108800196D01*
X177953898Y-108790226D01*
X178001113Y-108770669D01*
X178049993Y-108755841D01*
X178095042Y-108731762D01*
X178142256Y-108712205D01*
X178184746Y-108683814D01*
X178229797Y-108659734D01*
X178269284Y-108627328D01*
X178311774Y-108598937D01*
X178347908Y-108562803D01*
X178387396Y-108530396D01*
X178419803Y-108490908D01*
X178455937Y-108454774D01*
X178484328Y-108412284D01*
X178516734Y-108372797D01*
X178540814Y-108327746D01*
X178569205Y-108285256D01*
X178588762Y-108238042D01*
X178612841Y-108192993D01*
X178627669Y-108144113D01*
X178647226Y-108096898D01*
X178657196Y-108046777D01*
X178672024Y-107997895D01*
X178677031Y-107947057D01*
X178687000Y-107896939D01*
X178687000Y-107845838D01*
X178692007Y-107795000D01*
X178687000Y-107744162D01*
X178687000Y-107693061D01*
X178677031Y-107642943D01*
X178672024Y-107592105D01*
X178657196Y-107543223D01*
X178647226Y-107493102D01*
X178627669Y-107445887D01*
X178612841Y-107397007D01*
X178588762Y-107351958D01*
X178569205Y-107304744D01*
X178540814Y-107262254D01*
X178516734Y-107217203D01*
X178484328Y-107177716D01*
X178455937Y-107135226D01*
X178419803Y-107099092D01*
X178387396Y-107059604D01*
X178347908Y-107027197D01*
X178311774Y-106991063D01*
X178269284Y-106962672D01*
X178229797Y-106930266D01*
X178184746Y-106906186D01*
X178142256Y-106877795D01*
X178095042Y-106858238D01*
X178049993Y-106834159D01*
X178001113Y-106819331D01*
X177953898Y-106799774D01*
X177903777Y-106789804D01*
X177854895Y-106774976D01*
X177804057Y-106769969D01*
X177753939Y-106760000D01*
X177137142Y-106760000D01*
X177086314Y-106754994D01*
X177035486Y-106760000D01*
X177035477Y-106760000D01*
X176883420Y-106774976D01*
X176688322Y-106834159D01*
X176656987Y-106850908D01*
X176508517Y-106930266D01*
X176428255Y-106996136D01*
X176350919Y-107059604D01*
X176318512Y-107099092D01*
X173817497Y-109600108D01*
X173778004Y-109632519D01*
X173648666Y-109790118D01*
X173552559Y-109969923D01*
X173493376Y-110165021D01*
X173478400Y-110317078D01*
X173478400Y-110317087D01*
X173473394Y-110367915D01*
X173478400Y-110418743D01*
X173478401Y-113331656D01*
X173478400Y-113331661D01*
X173478400Y-113535539D01*
X173488371Y-113585667D01*
X173493377Y-113636495D01*
X173508203Y-113685368D01*
X173518174Y-113735498D01*
X173537735Y-113782722D01*
X173552560Y-113831593D01*
X173576635Y-113876634D01*
X173596195Y-113923856D01*
X173624591Y-113966353D01*
X173648667Y-114011397D01*
X173681068Y-114050878D01*
X173709463Y-114093374D01*
X173745603Y-114129514D01*
X173778005Y-114168996D01*
X173817487Y-114201398D01*
X173853626Y-114237537D01*
X173896121Y-114265931D01*
X173935604Y-114298334D01*
X173980650Y-114322412D01*
X174023144Y-114350805D01*
X174070362Y-114370363D01*
X174115408Y-114394441D01*
X174129178Y-114398618D01*
X168976792Y-114398618D01*
X171759103Y-111616308D01*
X171795237Y-111580174D01*
X171823625Y-111537688D01*
X171856034Y-111498198D01*
X171880116Y-111453144D01*
X171908505Y-111410656D01*
X171928062Y-111363441D01*
X171952140Y-111318394D01*
X171966966Y-111269519D01*
X171986526Y-111222298D01*
X171996497Y-111172171D01*
X172011323Y-111123296D01*
X172016329Y-111072466D01*
X172026300Y-111022339D01*
X172026300Y-110971229D01*
X172031306Y-110920401D01*
X172026300Y-110869573D01*
X172026300Y-110818461D01*
X172016329Y-110768332D01*
X172011323Y-110717506D01*
X171996498Y-110668634D01*
X171986526Y-110618502D01*
X171966965Y-110571277D01*
X171952140Y-110522407D01*
X171928064Y-110477364D01*
X171908505Y-110430144D01*
X171880113Y-110387652D01*
X171856034Y-110342603D01*
X171823630Y-110303119D01*
X171795237Y-110260626D01*
X171759095Y-110224484D01*
X171726695Y-110185005D01*
X171687216Y-110152605D01*
X171651074Y-110116463D01*
X171608581Y-110088070D01*
X171569097Y-110055666D01*
X171524048Y-110031587D01*
X171481556Y-110003195D01*
X171434336Y-109983636D01*
X171389293Y-109959560D01*
X171340423Y-109944735D01*
X171293198Y-109925174D01*
X171243066Y-109915202D01*
X171194194Y-109900377D01*
X171143368Y-109895371D01*
X171093239Y-109885400D01*
X171042127Y-109885400D01*
X170991299Y-109880394D01*
X170940471Y-109885400D01*
X170889361Y-109885400D01*
X170839234Y-109895371D01*
X170788404Y-109900377D01*
X170739529Y-109915203D01*
X170689402Y-109925174D01*
X170642181Y-109944734D01*
X170593306Y-109959560D01*
X170548259Y-109983638D01*
X170501044Y-110003195D01*
X170458556Y-110031584D01*
X170413502Y-110055666D01*
X170374012Y-110088075D01*
X170331526Y-110116463D01*
X170295392Y-110152597D01*
X167049382Y-113398608D01*
X165298400Y-113398608D01*
X165298400Y-111362310D01*
X168169803Y-108490908D01*
X168205937Y-108454774D01*
X168234325Y-108412288D01*
X168266734Y-108372798D01*
X168290816Y-108327744D01*
X168319205Y-108285256D01*
X168338762Y-108238041D01*
X168362840Y-108192994D01*
X168377666Y-108144120D01*
X168397226Y-108096898D01*
X168407197Y-108046768D01*
X168422023Y-107997895D01*
X168427030Y-107947064D01*
X168437000Y-107896939D01*
X168437000Y-107845835D01*
X168442007Y-107795000D01*
X168437000Y-107744165D01*
X168437000Y-107693061D01*
X168427030Y-107642936D01*
X168422023Y-107592105D01*
X168407197Y-107543232D01*
X168397226Y-107493102D01*
X168377665Y-107445878D01*
X168362840Y-107397007D01*
X168338764Y-107351964D01*
X168319205Y-107304744D01*
X168290813Y-107262252D01*
X168266734Y-107217203D01*
X168234328Y-107177716D01*
X168205937Y-107135226D01*
X168169803Y-107099092D01*
X168137396Y-107059604D01*
X168097908Y-107027197D01*
X168061774Y-106991063D01*
X168019284Y-106962672D01*
X167979797Y-106930266D01*
X167934748Y-106906187D01*
X167892256Y-106877795D01*
X167845036Y-106858236D01*
X167799993Y-106834160D01*
X167751122Y-106819335D01*
X167703898Y-106799774D01*
X167653768Y-106789803D01*
X167604895Y-106774977D01*
X167554064Y-106769970D01*
X167503939Y-106760000D01*
X167452835Y-106760000D01*
X167402000Y-106754993D01*
X167351165Y-106760000D01*
X167300061Y-106760000D01*
X167249936Y-106769970D01*
X167199105Y-106774977D01*
X167150232Y-106789803D01*
X167100102Y-106799774D01*
X167052880Y-106819334D01*
X167004006Y-106834160D01*
X166958959Y-106858238D01*
X166911744Y-106877795D01*
X166869256Y-106906184D01*
X166824202Y-106930266D01*
X166784712Y-106962675D01*
X166742226Y-106991063D01*
X166706092Y-107027197D01*
X163567497Y-110165793D01*
X163528004Y-110198204D01*
X163398666Y-110355803D01*
X163302559Y-110535608D01*
X163243376Y-110730706D01*
X163228400Y-110882763D01*
X163228400Y-110882772D01*
X163223394Y-110933600D01*
X163228400Y-110984428D01*
X163228401Y-113331656D01*
X163228400Y-113331661D01*
X163228400Y-113398608D01*
X156260853Y-113398608D01*
X156210735Y-113408577D01*
X156159897Y-113413584D01*
X156111015Y-113428412D01*
X156060894Y-113438382D01*
X156013679Y-113457939D01*
X155964799Y-113472767D01*
X155919750Y-113496846D01*
X155872536Y-113516403D01*
X155830046Y-113544794D01*
X155784995Y-113568874D01*
X155745508Y-113601280D01*
X155703018Y-113629671D01*
X155666884Y-113665805D01*
X155627396Y-113698212D01*
X155594989Y-113737700D01*
X155558855Y-113773834D01*
X155535670Y-113808533D01*
X154441552Y-112714416D01*
X154441550Y-112714413D01*
X154297387Y-112570250D01*
X154254896Y-112541858D01*
X154215410Y-112509453D01*
X154170361Y-112485374D01*
X154127869Y-112456982D01*
X154080649Y-112437423D01*
X154035606Y-112413347D01*
X153986735Y-112398522D01*
X153939511Y-112378961D01*
X153889381Y-112368990D01*
X153840508Y-112354164D01*
X153789680Y-112349158D01*
X153739552Y-112339187D01*
X153688441Y-112339187D01*
X153637613Y-112334181D01*
X153586785Y-112339187D01*
X153535674Y-112339187D01*
X153485546Y-112349158D01*
X153434718Y-112354164D01*
X153385845Y-112368990D01*
X153335715Y-112378961D01*
X153288491Y-112398522D01*
X153239620Y-112413347D01*
X153194577Y-112437423D01*
X153147357Y-112456982D01*
X153104865Y-112485374D01*
X153059816Y-112509453D01*
X153020329Y-112541859D01*
X152977839Y-112570250D01*
X152941705Y-112606384D01*
X152929396Y-112616486D01*
X152279610Y-111966700D01*
X156189499Y-111966700D01*
X156332662Y-111980800D01*
X156332672Y-111980800D01*
X156383500Y-111985806D01*
X156434328Y-111980800D01*
X161057439Y-111980800D01*
X161107557Y-111970831D01*
X161158395Y-111965824D01*
X161207277Y-111950996D01*
X161257398Y-111941026D01*
X161304613Y-111921469D01*
X161353493Y-111906641D01*
X161398542Y-111882562D01*
X161445756Y-111863005D01*
X161488246Y-111834614D01*
X161533297Y-111810534D01*
X161572784Y-111778128D01*
X161615274Y-111749737D01*
X161651408Y-111713603D01*
X161690896Y-111681196D01*
X161723303Y-111641708D01*
X161759437Y-111605574D01*
X161787828Y-111563084D01*
X161820234Y-111523597D01*
X161844314Y-111478546D01*
X161872705Y-111436056D01*
X161892262Y-111388842D01*
X161916341Y-111343793D01*
X161931169Y-111294913D01*
X161950726Y-111247698D01*
X161960696Y-111197577D01*
X161975524Y-111148695D01*
X161980531Y-111097857D01*
X161990500Y-111047739D01*
X161990500Y-110996638D01*
X161995507Y-110945800D01*
X161990500Y-110894962D01*
X161990500Y-110843861D01*
X161980531Y-110793743D01*
X161975524Y-110742905D01*
X161960696Y-110694023D01*
X161950726Y-110643902D01*
X161931169Y-110596687D01*
X161916341Y-110547807D01*
X161892262Y-110502758D01*
X161872705Y-110455544D01*
X161844314Y-110413054D01*
X161820234Y-110368003D01*
X161787828Y-110328516D01*
X161759437Y-110286026D01*
X161723303Y-110249892D01*
X161690896Y-110210404D01*
X161651408Y-110177997D01*
X161615274Y-110141863D01*
X161572784Y-110113472D01*
X161533297Y-110081066D01*
X161488246Y-110056986D01*
X161445756Y-110028595D01*
X161398542Y-110009038D01*
X161353493Y-109984959D01*
X161304613Y-109970131D01*
X161257398Y-109950574D01*
X161207277Y-109940604D01*
X161158395Y-109925776D01*
X161107557Y-109920769D01*
X161057439Y-109910800D01*
X156591601Y-109910800D01*
X156448438Y-109896700D01*
X156448427Y-109896700D01*
X156397599Y-109891694D01*
X156346771Y-109896700D01*
X152972589Y-109896700D01*
X152977812Y-109879482D01*
X152990072Y-109755000D01*
X152990072Y-108055000D01*
X152977812Y-107930518D01*
X152941502Y-107810820D01*
X152882537Y-107700506D01*
X152803185Y-107603815D01*
X152706494Y-107524463D01*
X152596180Y-107465498D01*
X152476482Y-107429188D01*
X152352000Y-107416928D01*
X150652000Y-107416928D01*
X150527518Y-107429188D01*
X150407820Y-107465498D01*
X150297506Y-107524463D01*
X150232000Y-107578222D01*
X150166494Y-107524463D01*
X150056180Y-107465498D01*
X149936482Y-107429188D01*
X149812000Y-107416928D01*
X149247750Y-107420000D01*
X149089000Y-107578750D01*
X149089000Y-108778000D01*
X149109000Y-108778000D01*
X149109000Y-109032000D01*
X149089000Y-109032000D01*
X149089000Y-109052000D01*
X148835000Y-109052000D01*
X148835000Y-109032000D01*
X147635750Y-109032000D01*
X147477000Y-109190750D01*
X147473928Y-109755000D01*
X147486188Y-109879482D01*
X147491411Y-109896700D01*
X132729784Y-109896700D01*
X134571484Y-108055000D01*
X147473928Y-108055000D01*
X147477000Y-108619250D01*
X147635750Y-108778000D01*
X148835000Y-108778000D01*
X148835000Y-107578750D01*
X148676250Y-107420000D01*
X148112000Y-107416928D01*
X147987518Y-107429188D01*
X147867820Y-107465498D01*
X147757506Y-107524463D01*
X147660815Y-107603815D01*
X147581463Y-107700506D01*
X147522498Y-107810820D01*
X147486188Y-107930518D01*
X147473928Y-108055000D01*
X134571484Y-108055000D01*
X136303945Y-106322539D01*
X136306938Y-106352933D01*
X136321766Y-106401815D01*
X136331736Y-106451936D01*
X136351293Y-106499151D01*
X136366121Y-106548031D01*
X136390200Y-106593080D01*
X136409757Y-106640294D01*
X136438148Y-106682784D01*
X136462228Y-106727835D01*
X136494634Y-106767322D01*
X136523025Y-106809812D01*
X136559159Y-106845946D01*
X136591566Y-106885434D01*
X136631054Y-106917841D01*
X136667188Y-106953975D01*
X136709678Y-106982366D01*
X136749165Y-107014772D01*
X136794216Y-107038852D01*
X136836706Y-107067243D01*
X136883920Y-107086800D01*
X136928969Y-107110879D01*
X136977849Y-107125707D01*
X137025064Y-107145264D01*
X137075185Y-107155234D01*
X137124067Y-107170062D01*
X137174905Y-107175069D01*
X137225023Y-107185038D01*
X147486134Y-107185038D01*
X147536962Y-107190044D01*
X147587790Y-107185038D01*
X147587800Y-107185038D01*
X147739857Y-107170062D01*
X147934955Y-107110879D01*
X148114759Y-107014772D01*
X148272358Y-106885434D01*
X148304769Y-106845941D01*
X148498673Y-106652037D01*
X153849838Y-101300872D01*
X198231600Y-101300872D01*
X198231600Y-101741128D01*
X198317490Y-102172925D01*
X198485969Y-102579669D01*
X198730562Y-102945729D01*
X199041871Y-103257038D01*
X199407931Y-103501631D01*
X199814675Y-103670110D01*
X200246472Y-103756000D01*
X200686728Y-103756000D01*
X201118525Y-103670110D01*
X201525269Y-103501631D01*
X201891329Y-103257038D01*
X202202638Y-102945729D01*
X202447231Y-102579669D01*
X202615710Y-102172925D01*
X202701600Y-101741128D01*
X202701600Y-101300872D01*
X202615710Y-100869075D01*
X202447231Y-100462331D01*
X202202638Y-100096271D01*
X201891329Y-99784962D01*
X201525269Y-99540369D01*
X201118525Y-99371890D01*
X200686728Y-99286000D01*
X200246472Y-99286000D01*
X199814675Y-99371890D01*
X199407931Y-99540369D01*
X199041871Y-99784962D01*
X198730562Y-100096271D01*
X198485969Y-100462331D01*
X198317490Y-100869075D01*
X198231600Y-101300872D01*
X153849838Y-101300872D01*
X156534708Y-98616003D01*
X156574196Y-98583596D01*
X156606603Y-98544108D01*
X156703534Y-98425998D01*
X156799641Y-98246194D01*
X156826881Y-98156395D01*
X156858824Y-98051095D01*
X156873800Y-97899038D01*
X156873800Y-97899035D01*
X156878807Y-97848200D01*
X156873800Y-97797365D01*
X156873800Y-96664600D01*
X157793172Y-96664600D01*
X157844000Y-96669606D01*
X157894828Y-96664600D01*
X157894838Y-96664600D01*
X158046895Y-96649624D01*
X158241993Y-96590441D01*
X158421797Y-96494334D01*
X158579396Y-96364996D01*
X158611807Y-96325503D01*
X160103408Y-94833903D01*
X160142896Y-94801496D01*
X160180364Y-94755841D01*
X160272234Y-94643898D01*
X160368340Y-94464094D01*
X160368341Y-94464093D01*
X160427524Y-94268995D01*
X160442500Y-94116938D01*
X160442500Y-94116936D01*
X160447507Y-94066100D01*
X160442500Y-94015265D01*
X160442500Y-90926110D01*
X160473671Y-90894939D01*
X160473674Y-90894937D01*
X160521013Y-90847598D01*
X162055500Y-92382085D01*
X162055500Y-92732939D01*
X162065469Y-92783058D01*
X162070476Y-92833894D01*
X162085304Y-92882774D01*
X162095274Y-92932898D01*
X162114832Y-92980116D01*
X162129659Y-93028992D01*
X162153737Y-93074039D01*
X162173295Y-93121256D01*
X162201686Y-93163747D01*
X162225766Y-93208797D01*
X162258172Y-93248284D01*
X162286563Y-93290774D01*
X162322697Y-93326908D01*
X162355104Y-93366396D01*
X162394592Y-93398803D01*
X162430726Y-93434937D01*
X162473216Y-93463328D01*
X162512703Y-93495734D01*
X162557754Y-93519814D01*
X162600244Y-93548205D01*
X162647458Y-93567762D01*
X162692507Y-93591841D01*
X162741387Y-93606669D01*
X162788602Y-93626226D01*
X162838723Y-93636196D01*
X162887605Y-93651024D01*
X162938443Y-93656031D01*
X162988561Y-93666000D01*
X163039662Y-93666000D01*
X163090500Y-93671007D01*
X163141338Y-93666000D01*
X163192439Y-93666000D01*
X163242558Y-93656031D01*
X163293394Y-93651024D01*
X163342274Y-93636196D01*
X163392398Y-93626226D01*
X163439616Y-93606668D01*
X163488492Y-93591841D01*
X163533539Y-93567763D01*
X163580756Y-93548205D01*
X163623247Y-93519814D01*
X163668297Y-93495734D01*
X163707784Y-93463328D01*
X163750274Y-93434937D01*
X163786408Y-93398803D01*
X163825896Y-93366396D01*
X163858303Y-93326908D01*
X163894437Y-93290774D01*
X163922828Y-93248284D01*
X163955234Y-93208797D01*
X163979314Y-93163746D01*
X164007705Y-93121256D01*
X164027262Y-93074042D01*
X164051341Y-93028993D01*
X164066169Y-92980113D01*
X164085726Y-92932898D01*
X164095696Y-92882777D01*
X164110524Y-92833895D01*
X164115531Y-92783057D01*
X164125500Y-92732939D01*
X164125500Y-92004201D01*
X164130506Y-91953373D01*
X164125500Y-91902545D01*
X164125500Y-91902537D01*
X164110524Y-91750480D01*
X164051341Y-91555381D01*
X163999418Y-91458240D01*
X163955234Y-91375576D01*
X163858303Y-91257466D01*
X163825896Y-91217978D01*
X163786408Y-91185571D01*
X161723526Y-89122690D01*
X169148965Y-89122690D01*
X169264108Y-89237833D01*
X169238716Y-89258672D01*
X169196226Y-89287063D01*
X169160092Y-89323197D01*
X169120604Y-89355604D01*
X169088197Y-89395092D01*
X169052063Y-89431226D01*
X169023672Y-89473716D01*
X168991266Y-89513203D01*
X168967186Y-89558253D01*
X168938795Y-89600744D01*
X168919237Y-89647961D01*
X168895159Y-89693008D01*
X168880332Y-89741884D01*
X168860774Y-89789102D01*
X168850804Y-89839226D01*
X168835976Y-89888106D01*
X168830969Y-89938942D01*
X168821000Y-89989061D01*
X168821000Y-90040163D01*
X168821001Y-93162288D01*
X167388690Y-94594600D01*
X166884661Y-94594600D01*
X166834543Y-94604569D01*
X166783705Y-94609576D01*
X166734823Y-94624404D01*
X166684702Y-94634374D01*
X166637487Y-94653931D01*
X166588607Y-94668759D01*
X166543558Y-94692838D01*
X166496344Y-94712395D01*
X166453854Y-94740786D01*
X166408803Y-94764866D01*
X166369316Y-94797272D01*
X166326826Y-94825663D01*
X166290692Y-94861797D01*
X166251204Y-94894204D01*
X166218797Y-94933692D01*
X166182663Y-94969826D01*
X166154272Y-95012316D01*
X166121866Y-95051803D01*
X166097786Y-95096854D01*
X166069395Y-95139344D01*
X166049838Y-95186558D01*
X166025759Y-95231607D01*
X166010931Y-95280487D01*
X165991374Y-95327702D01*
X165981404Y-95377823D01*
X165966576Y-95426705D01*
X165961569Y-95477543D01*
X165951600Y-95527661D01*
X165951600Y-95578762D01*
X165946593Y-95629600D01*
X165951600Y-95680438D01*
X165951600Y-95731539D01*
X165961569Y-95781657D01*
X165966576Y-95832495D01*
X165981404Y-95881377D01*
X165991374Y-95931498D01*
X166010931Y-95978713D01*
X166025759Y-96027593D01*
X166049838Y-96072642D01*
X166069395Y-96119856D01*
X166097786Y-96162346D01*
X166121866Y-96207397D01*
X166154272Y-96246884D01*
X166182663Y-96289374D01*
X166218797Y-96325508D01*
X166251204Y-96364996D01*
X166290692Y-96397403D01*
X166326826Y-96433537D01*
X166369316Y-96461928D01*
X166408803Y-96494334D01*
X166453854Y-96518414D01*
X166496344Y-96546805D01*
X166543558Y-96566362D01*
X166588607Y-96590441D01*
X166637487Y-96605269D01*
X166684702Y-96624826D01*
X166734823Y-96634796D01*
X166783705Y-96649624D01*
X166834543Y-96654631D01*
X166884661Y-96664600D01*
X167766572Y-96664600D01*
X167817400Y-96669606D01*
X167868228Y-96664600D01*
X167868238Y-96664600D01*
X168020295Y-96649624D01*
X168215393Y-96590441D01*
X168395197Y-96494334D01*
X168552796Y-96364996D01*
X168585207Y-96325503D01*
X170551908Y-94358803D01*
X170591396Y-94326396D01*
X170635740Y-94272363D01*
X170720734Y-94168798D01*
X170775627Y-94066100D01*
X170816841Y-93988993D01*
X170876024Y-93793895D01*
X170891000Y-93641838D01*
X170891000Y-93641835D01*
X170896007Y-93591000D01*
X170891000Y-93540165D01*
X170891000Y-90864726D01*
X172545700Y-92519426D01*
X172545700Y-92758339D01*
X172555669Y-92808458D01*
X172560676Y-92859294D01*
X172575504Y-92908174D01*
X172585474Y-92958298D01*
X172605032Y-93005516D01*
X172619859Y-93054392D01*
X172643937Y-93099439D01*
X172663495Y-93146656D01*
X172691886Y-93189147D01*
X172715966Y-93234197D01*
X172748372Y-93273684D01*
X172776763Y-93316174D01*
X172812897Y-93352308D01*
X172845304Y-93391796D01*
X172884792Y-93424203D01*
X172920926Y-93460337D01*
X172963416Y-93488728D01*
X173002903Y-93521134D01*
X173047954Y-93545214D01*
X173090444Y-93573605D01*
X173137658Y-93593162D01*
X173182707Y-93617241D01*
X173231587Y-93632069D01*
X173278802Y-93651626D01*
X173328923Y-93661596D01*
X173377805Y-93676424D01*
X173428643Y-93681431D01*
X173478761Y-93691400D01*
X173529862Y-93691400D01*
X173580700Y-93696407D01*
X173631538Y-93691400D01*
X173682639Y-93691400D01*
X173732758Y-93681431D01*
X173783594Y-93676424D01*
X173832474Y-93661596D01*
X173882598Y-93651626D01*
X173929816Y-93632068D01*
X173978692Y-93617241D01*
X174023739Y-93593163D01*
X174070956Y-93573605D01*
X174113447Y-93545214D01*
X174158497Y-93521134D01*
X174197984Y-93488728D01*
X174240474Y-93460337D01*
X174276608Y-93424203D01*
X174316096Y-93391796D01*
X174348503Y-93352308D01*
X174384637Y-93316174D01*
X174413028Y-93273684D01*
X174445434Y-93234197D01*
X174469514Y-93189146D01*
X174497905Y-93146656D01*
X174517462Y-93099442D01*
X174541541Y-93054393D01*
X174556369Y-93005513D01*
X174575926Y-92958298D01*
X174585896Y-92908177D01*
X174600724Y-92859295D01*
X174605731Y-92808457D01*
X174615700Y-92758339D01*
X174615700Y-92141542D01*
X174620706Y-92090714D01*
X174615700Y-92039886D01*
X174615700Y-92039878D01*
X174600724Y-91887821D01*
X174541541Y-91692723D01*
X174524678Y-91661174D01*
X174445434Y-91512917D01*
X174348503Y-91394807D01*
X174316096Y-91355319D01*
X174276608Y-91322912D01*
X171076375Y-88122680D01*
X178515970Y-88122680D01*
X179591858Y-89198568D01*
X179590344Y-89199195D01*
X179420826Y-89312463D01*
X179276663Y-89456626D01*
X179276661Y-89456629D01*
X178956093Y-89777197D01*
X178916605Y-89809604D01*
X178884198Y-89849092D01*
X178884197Y-89849093D01*
X178787266Y-89967203D01*
X178691160Y-90147007D01*
X178631977Y-90342105D01*
X178611994Y-90545000D01*
X178617001Y-90595838D01*
X178617000Y-93366289D01*
X177414090Y-94569200D01*
X176740861Y-94569200D01*
X176690743Y-94579169D01*
X176639905Y-94584176D01*
X176591023Y-94599004D01*
X176540902Y-94608974D01*
X176493687Y-94628531D01*
X176444807Y-94643359D01*
X176399758Y-94667438D01*
X176352544Y-94686995D01*
X176310054Y-94715386D01*
X176265003Y-94739466D01*
X176225516Y-94771872D01*
X176183026Y-94800263D01*
X176146892Y-94836397D01*
X176107404Y-94868804D01*
X176074997Y-94908292D01*
X176038863Y-94944426D01*
X176010472Y-94986916D01*
X175978066Y-95026403D01*
X175953986Y-95071454D01*
X175925595Y-95113944D01*
X175906038Y-95161158D01*
X175881959Y-95206207D01*
X175867131Y-95255087D01*
X175847574Y-95302302D01*
X175837604Y-95352423D01*
X175822776Y-95401305D01*
X175817769Y-95452143D01*
X175807800Y-95502261D01*
X175807800Y-95553362D01*
X175802793Y-95604200D01*
X175807800Y-95655038D01*
X175807800Y-95706139D01*
X175817769Y-95756257D01*
X175822776Y-95807095D01*
X175837604Y-95855977D01*
X175847574Y-95906098D01*
X175867131Y-95953313D01*
X175881959Y-96002193D01*
X175906038Y-96047242D01*
X175925595Y-96094456D01*
X175953986Y-96136946D01*
X175978066Y-96181997D01*
X176010472Y-96221484D01*
X176038863Y-96263974D01*
X176074997Y-96300108D01*
X176107404Y-96339596D01*
X176146892Y-96372003D01*
X176183026Y-96408137D01*
X176225516Y-96436528D01*
X176265003Y-96468934D01*
X176310054Y-96493014D01*
X176352544Y-96521405D01*
X176399758Y-96540962D01*
X176444807Y-96565041D01*
X176493687Y-96579869D01*
X176540902Y-96599426D01*
X176591023Y-96609396D01*
X176639905Y-96624224D01*
X176690743Y-96629231D01*
X176740861Y-96639200D01*
X177791972Y-96639200D01*
X177842800Y-96644206D01*
X177893628Y-96639200D01*
X177893638Y-96639200D01*
X178045695Y-96624224D01*
X178240793Y-96565041D01*
X178420597Y-96468934D01*
X178578196Y-96339596D01*
X178610607Y-96300103D01*
X180347908Y-94562803D01*
X180387396Y-94530396D01*
X180441809Y-94464094D01*
X180516734Y-94372798D01*
X180602501Y-94212337D01*
X180612841Y-94192993D01*
X180672024Y-93997895D01*
X180687000Y-93845838D01*
X180687000Y-93845829D01*
X180692006Y-93795001D01*
X180687000Y-93744173D01*
X180687000Y-90973710D01*
X180740371Y-90920339D01*
X180740374Y-90920337D01*
X180884537Y-90776174D01*
X180997805Y-90606656D01*
X180998432Y-90605143D01*
X182517000Y-92123711D01*
X182517001Y-92493057D01*
X182517000Y-92493061D01*
X182517000Y-92696939D01*
X182526971Y-92747067D01*
X182531977Y-92797895D01*
X182546803Y-92846768D01*
X182556774Y-92896898D01*
X182576335Y-92944122D01*
X182591160Y-92992993D01*
X182615235Y-93038034D01*
X182634795Y-93085256D01*
X182663191Y-93127753D01*
X182687267Y-93172797D01*
X182719668Y-93212278D01*
X182748063Y-93254774D01*
X182784203Y-93290914D01*
X182816605Y-93330396D01*
X182856087Y-93362798D01*
X182892226Y-93398937D01*
X182934721Y-93427331D01*
X182974204Y-93459734D01*
X183019250Y-93483812D01*
X183061744Y-93512205D01*
X183108962Y-93531763D01*
X183154008Y-93555841D01*
X183202884Y-93570668D01*
X183250102Y-93590226D01*
X183300226Y-93600196D01*
X183349106Y-93615024D01*
X183399942Y-93620031D01*
X183450061Y-93630000D01*
X183501162Y-93630000D01*
X183552000Y-93635007D01*
X183602838Y-93630000D01*
X183653939Y-93630000D01*
X183704057Y-93620031D01*
X183754895Y-93615024D01*
X183803777Y-93600196D01*
X183853898Y-93590226D01*
X183901113Y-93570669D01*
X183949993Y-93555841D01*
X183995042Y-93531762D01*
X184042256Y-93512205D01*
X184084746Y-93483814D01*
X184129797Y-93459734D01*
X184169284Y-93427328D01*
X184211774Y-93398937D01*
X184247908Y-93362803D01*
X184287396Y-93330396D01*
X184319803Y-93290908D01*
X184355937Y-93254774D01*
X184384328Y-93212284D01*
X184416734Y-93172797D01*
X184440814Y-93127746D01*
X184469205Y-93085256D01*
X184488762Y-93038042D01*
X184512841Y-92992993D01*
X184527669Y-92944113D01*
X184547226Y-92896898D01*
X184557196Y-92846777D01*
X184572024Y-92797895D01*
X184577031Y-92747057D01*
X184587000Y-92696939D01*
X184587000Y-91745827D01*
X184592006Y-91694999D01*
X184587000Y-91644171D01*
X184587000Y-91644162D01*
X184572024Y-91492105D01*
X184512841Y-91297007D01*
X184435013Y-91151400D01*
X184416734Y-91117202D01*
X184319803Y-90999092D01*
X184287396Y-90959604D01*
X184247908Y-90927197D01*
X180443380Y-87122670D01*
X187380045Y-87122670D01*
X189592750Y-89335375D01*
X189589026Y-89337863D01*
X189444863Y-89482026D01*
X189444861Y-89482029D01*
X189206093Y-89720797D01*
X189166605Y-89753204D01*
X189134198Y-89792692D01*
X189134197Y-89792693D01*
X189037266Y-89910803D01*
X188941160Y-90090607D01*
X188881977Y-90285705D01*
X188861994Y-90488600D01*
X188867001Y-90539438D01*
X188867000Y-93366289D01*
X187689490Y-94543800D01*
X187016261Y-94543800D01*
X186966143Y-94553769D01*
X186915305Y-94558776D01*
X186866423Y-94573604D01*
X186816302Y-94583574D01*
X186769087Y-94603131D01*
X186720207Y-94617959D01*
X186675158Y-94642038D01*
X186627944Y-94661595D01*
X186585454Y-94689986D01*
X186540403Y-94714066D01*
X186500916Y-94746472D01*
X186458426Y-94774863D01*
X186422292Y-94810997D01*
X186382804Y-94843404D01*
X186350397Y-94882892D01*
X186314263Y-94919026D01*
X186285872Y-94961516D01*
X186253466Y-95001003D01*
X186229386Y-95046054D01*
X186200995Y-95088544D01*
X186181438Y-95135758D01*
X186157359Y-95180807D01*
X186142531Y-95229687D01*
X186122974Y-95276902D01*
X186113004Y-95327023D01*
X186098176Y-95375905D01*
X186093169Y-95426743D01*
X186083200Y-95476861D01*
X186083200Y-95527962D01*
X186078193Y-95578800D01*
X186083200Y-95629638D01*
X186083200Y-95680739D01*
X186093169Y-95730857D01*
X186098176Y-95781695D01*
X186113004Y-95830577D01*
X186122974Y-95880698D01*
X186142531Y-95927913D01*
X186157359Y-95976793D01*
X186181438Y-96021842D01*
X186200995Y-96069056D01*
X186229386Y-96111546D01*
X186253466Y-96156597D01*
X186285872Y-96196084D01*
X186314263Y-96238574D01*
X186350397Y-96274708D01*
X186382804Y-96314196D01*
X186422292Y-96346603D01*
X186458426Y-96382737D01*
X186500916Y-96411128D01*
X186540403Y-96443534D01*
X186585454Y-96467614D01*
X186627944Y-96496005D01*
X186675158Y-96515562D01*
X186720207Y-96539641D01*
X186769087Y-96554469D01*
X186816302Y-96574026D01*
X186866423Y-96583996D01*
X186915305Y-96598824D01*
X186966143Y-96603831D01*
X187016261Y-96613800D01*
X188067372Y-96613800D01*
X188118200Y-96618806D01*
X188169028Y-96613800D01*
X188169038Y-96613800D01*
X188321095Y-96598824D01*
X188516193Y-96539641D01*
X188695997Y-96443534D01*
X188853596Y-96314196D01*
X188886007Y-96274703D01*
X190597908Y-94562803D01*
X190637396Y-94530396D01*
X190691809Y-94464094D01*
X190766734Y-94372798D01*
X190852501Y-94212337D01*
X190862841Y-94192993D01*
X190922024Y-93997895D01*
X190937000Y-93845838D01*
X190937000Y-93845829D01*
X190942006Y-93795001D01*
X190937000Y-93744173D01*
X190937000Y-90917311D01*
X191052737Y-90801574D01*
X191055225Y-90797851D01*
X192699200Y-92441826D01*
X192699200Y-92680739D01*
X192709169Y-92730858D01*
X192714176Y-92781694D01*
X192729004Y-92830574D01*
X192738974Y-92880698D01*
X192758532Y-92927916D01*
X192773359Y-92976792D01*
X192797437Y-93021839D01*
X192816995Y-93069056D01*
X192845386Y-93111547D01*
X192869466Y-93156597D01*
X192901872Y-93196084D01*
X192930263Y-93238574D01*
X192966397Y-93274708D01*
X192998804Y-93314196D01*
X193038292Y-93346603D01*
X193074426Y-93382737D01*
X193116916Y-93411128D01*
X193156403Y-93443534D01*
X193201454Y-93467614D01*
X193243944Y-93496005D01*
X193291158Y-93515562D01*
X193336207Y-93539641D01*
X193385087Y-93554469D01*
X193432302Y-93574026D01*
X193482423Y-93583996D01*
X193531305Y-93598824D01*
X193582143Y-93603831D01*
X193632261Y-93613800D01*
X193683362Y-93613800D01*
X193734200Y-93618807D01*
X193785038Y-93613800D01*
X193836139Y-93613800D01*
X193886258Y-93603831D01*
X193937094Y-93598824D01*
X193985974Y-93583996D01*
X194036098Y-93574026D01*
X194083316Y-93554468D01*
X194132192Y-93539641D01*
X194177239Y-93515563D01*
X194224456Y-93496005D01*
X194266947Y-93467614D01*
X194311997Y-93443534D01*
X194351484Y-93411128D01*
X194393974Y-93382737D01*
X194430108Y-93346603D01*
X194469596Y-93314196D01*
X194502003Y-93274708D01*
X194538137Y-93238574D01*
X194566528Y-93196084D01*
X194598934Y-93156597D01*
X194623014Y-93111546D01*
X194651405Y-93069056D01*
X194670962Y-93021842D01*
X194695041Y-92976793D01*
X194709869Y-92927913D01*
X194729426Y-92880698D01*
X194739396Y-92830577D01*
X194754224Y-92781695D01*
X194759231Y-92730857D01*
X194769200Y-92680739D01*
X194769200Y-92063950D01*
X194774207Y-92013115D01*
X194768323Y-91953373D01*
X194754224Y-91810221D01*
X194695041Y-91615123D01*
X194667913Y-91564369D01*
X194598934Y-91435317D01*
X194502003Y-91317207D01*
X194469596Y-91277719D01*
X194430108Y-91245312D01*
X188576562Y-85391767D01*
X188544151Y-85352274D01*
X188386552Y-85222936D01*
X188206748Y-85126829D01*
X188011650Y-85067646D01*
X187859593Y-85052670D01*
X187859583Y-85052670D01*
X187808755Y-85047664D01*
X187757927Y-85052670D01*
X154587391Y-85052670D01*
X154537273Y-85062639D01*
X154486435Y-85067646D01*
X154437553Y-85082474D01*
X154387432Y-85092444D01*
X154340217Y-85112001D01*
X154291337Y-85126829D01*
X154246288Y-85150908D01*
X154199074Y-85170465D01*
X154156584Y-85198856D01*
X154111533Y-85222936D01*
X154072046Y-85255342D01*
X154029556Y-85283733D01*
X153993422Y-85319867D01*
X153953934Y-85352274D01*
X153921527Y-85391762D01*
X153885393Y-85427896D01*
X153857002Y-85470386D01*
X153824596Y-85509873D01*
X153800516Y-85554924D01*
X153772125Y-85597414D01*
X153752568Y-85644628D01*
X153728489Y-85689677D01*
X153713661Y-85738557D01*
X153694104Y-85785772D01*
X153684134Y-85835893D01*
X153669306Y-85884775D01*
X153664299Y-85935613D01*
X153654330Y-85985731D01*
X153654330Y-86036832D01*
X153649323Y-86087670D01*
X153654330Y-86138508D01*
X153654330Y-86189609D01*
X153664299Y-86239727D01*
X153669306Y-86290565D01*
X153684134Y-86339447D01*
X153694104Y-86389568D01*
X153713661Y-86436783D01*
X153728489Y-86485663D01*
X153752568Y-86530712D01*
X153772125Y-86577926D01*
X153800516Y-86620416D01*
X153824596Y-86665467D01*
X153857002Y-86704954D01*
X153885393Y-86747444D01*
X153921526Y-86783577D01*
X153953934Y-86823066D01*
X153993422Y-86855473D01*
X154029556Y-86891607D01*
X154072046Y-86919998D01*
X154111533Y-86952404D01*
X154156584Y-86976484D01*
X154199074Y-87004875D01*
X154246288Y-87024432D01*
X154291337Y-87048511D01*
X154305113Y-87052690D01*
X147870137Y-87052690D01*
X147819309Y-87047684D01*
X147768481Y-87052690D01*
X147768472Y-87052690D01*
X147616415Y-87067666D01*
X147421317Y-87126849D01*
X147241513Y-87222956D01*
X147083914Y-87352294D01*
X147051507Y-87391782D01*
X146336092Y-88107198D01*
X146296605Y-88139604D01*
X146264198Y-88179092D01*
X146264197Y-88179093D01*
X146167266Y-88297203D01*
X146071160Y-88477007D01*
X146011977Y-88672105D01*
X145991994Y-88875000D01*
X145997001Y-88925838D01*
X145997000Y-100039391D01*
X145908890Y-100008524D01*
X145679000Y-100129845D01*
X145679000Y-101448000D01*
X145699000Y-101448000D01*
X145699000Y-101702000D01*
X145679000Y-101702000D01*
X145679000Y-101722000D01*
X145425000Y-101722000D01*
X145425000Y-101702000D01*
X145405000Y-101702000D01*
X145405000Y-101448000D01*
X145425000Y-101448000D01*
X145425000Y-100129845D01*
X145195110Y-100008524D01*
X144932142Y-100100648D01*
X144680807Y-100247504D01*
X144462951Y-100440571D01*
X144306462Y-100646722D01*
X144292706Y-100620986D01*
X144107134Y-100394866D01*
X144087000Y-100378343D01*
X144087000Y-97471827D01*
X144092006Y-97420999D01*
X144087000Y-97370171D01*
X144087000Y-97370162D01*
X144072024Y-97218105D01*
X144012841Y-97023007D01*
X143968047Y-96939203D01*
X143916734Y-96843202D01*
X143819803Y-96725092D01*
X143787396Y-96685604D01*
X143747908Y-96653197D01*
X143093807Y-95999097D01*
X143061396Y-95959604D01*
X142903797Y-95830266D01*
X142723993Y-95734159D01*
X142528895Y-95674976D01*
X142376838Y-95660000D01*
X142376828Y-95660000D01*
X142326000Y-95654994D01*
X142275172Y-95660000D01*
X116214835Y-95660000D01*
X116164000Y-95654993D01*
X116113165Y-95660000D01*
X116113162Y-95660000D01*
X115961105Y-95674976D01*
X115829538Y-95714887D01*
X115766006Y-95734159D01*
X115586202Y-95830266D01*
X115524751Y-95880698D01*
X115428604Y-95959604D01*
X115396197Y-95999092D01*
X114646092Y-96749198D01*
X114606605Y-96781604D01*
X114574198Y-96821092D01*
X114574197Y-96821093D01*
X114477266Y-96939203D01*
X114381160Y-97119007D01*
X114321977Y-97314105D01*
X114301994Y-97517000D01*
X114307001Y-97567837D01*
X114307001Y-97772024D01*
X114305038Y-97773987D01*
X114158939Y-97992641D01*
X114072000Y-98202530D01*
X113985061Y-97992641D01*
X113838962Y-97773987D01*
X113653013Y-97588038D01*
X113434359Y-97441939D01*
X113191405Y-97341304D01*
X112933486Y-97290000D01*
X112670514Y-97290000D01*
X112412595Y-97341304D01*
X112169641Y-97441939D01*
X111950987Y-97588038D01*
X111765038Y-97773987D01*
X111618939Y-97992641D01*
X111532000Y-98202530D01*
X111445061Y-97992641D01*
X111298962Y-97773987D01*
X111113013Y-97588038D01*
X110894359Y-97441939D01*
X110651405Y-97341304D01*
X110393486Y-97290000D01*
X110130514Y-97290000D01*
X109872595Y-97341304D01*
X109629641Y-97441939D01*
X109410987Y-97588038D01*
X109225038Y-97773987D01*
X109078939Y-97992641D01*
X108990379Y-98206444D01*
X108930935Y-98043634D01*
X108877037Y-97942797D01*
X108643269Y-97883336D01*
X107901605Y-98625000D01*
X108643269Y-99366664D01*
X108877037Y-99307203D01*
X108987934Y-99068758D01*
X108992706Y-99049173D01*
X109078939Y-99257359D01*
X109225038Y-99476013D01*
X109410987Y-99661962D01*
X109629641Y-99808061D01*
X109839530Y-99895000D01*
X109629641Y-99981939D01*
X109410987Y-100128038D01*
X109225038Y-100313987D01*
X109078939Y-100532641D01*
X108992000Y-100742530D01*
X108905061Y-100532641D01*
X108758962Y-100313987D01*
X108573013Y-100128038D01*
X108354359Y-99981939D01*
X108140556Y-99893379D01*
X108303366Y-99833935D01*
X108404203Y-99780037D01*
X108463664Y-99546269D01*
X107722000Y-98804605D01*
X106980336Y-99546269D01*
X107039797Y-99780037D01*
X107278242Y-99890934D01*
X107297827Y-99895706D01*
X107089641Y-99981939D01*
X106870987Y-100128038D01*
X106685038Y-100313987D01*
X106538939Y-100532641D01*
X106438304Y-100775595D01*
X106387000Y-101033514D01*
X106387000Y-101296486D01*
X106438304Y-101554405D01*
X106538939Y-101797359D01*
X106685038Y-102016013D01*
X106870987Y-102201962D01*
X107089641Y-102348061D01*
X107332595Y-102448696D01*
X107590514Y-102500000D01*
X107853486Y-102500000D01*
X108111405Y-102448696D01*
X108354359Y-102348061D01*
X108573013Y-102201962D01*
X108758962Y-102016013D01*
X108905061Y-101797359D01*
X108992000Y-101587470D01*
X109078939Y-101797359D01*
X109225038Y-102016013D01*
X109410987Y-102201962D01*
X109629641Y-102348061D01*
X109872595Y-102448696D01*
X110130514Y-102500000D01*
X110393486Y-102500000D01*
X110651405Y-102448696D01*
X110894359Y-102348061D01*
X111113013Y-102201962D01*
X111298962Y-102016013D01*
X111445061Y-101797359D01*
X111532000Y-101587470D01*
X111618939Y-101797359D01*
X111765038Y-102016013D01*
X111827001Y-102077976D01*
X111827001Y-102473463D01*
X111821994Y-102524300D01*
X111841977Y-102727195D01*
X111901160Y-102922293D01*
X111997266Y-103102097D01*
X112094197Y-103220207D01*
X112126605Y-103259696D01*
X112166093Y-103292103D01*
X121853175Y-112979186D01*
X121943704Y-113089496D01*
X121983197Y-113121907D01*
X122903863Y-114042574D01*
X123048026Y-114186737D01*
X123090516Y-114215128D01*
X123130002Y-114247533D01*
X123175051Y-114271612D01*
X123179023Y-114274266D01*
X114646097Y-122807193D01*
X114606604Y-122839604D01*
X114477266Y-122997203D01*
X114472035Y-123006990D01*
X114305038Y-123173987D01*
X114158939Y-123392641D01*
X114072000Y-123602530D01*
X113985061Y-123392641D01*
X113838962Y-123173987D01*
X113653013Y-122988038D01*
X113434359Y-122841939D01*
X113191405Y-122741304D01*
X112933486Y-122690000D01*
X112670514Y-122690000D01*
X112412595Y-122741304D01*
X112169641Y-122841939D01*
X111950987Y-122988038D01*
X111765038Y-123173987D01*
X111618939Y-123392641D01*
X111532000Y-123602530D01*
X111445061Y-123392641D01*
X111298962Y-123173987D01*
X111113013Y-122988038D01*
X110894359Y-122841939D01*
X110651405Y-122741304D01*
X110393486Y-122690000D01*
X110130514Y-122690000D01*
X109872595Y-122741304D01*
X109629641Y-122841939D01*
X109410987Y-122988038D01*
X109225038Y-123173987D01*
X109078939Y-123392641D01*
X108992000Y-123602530D01*
X108905061Y-123392641D01*
X108758962Y-123173987D01*
X108573013Y-122988038D01*
X108354359Y-122841939D01*
X108111405Y-122741304D01*
X107853486Y-122690000D01*
X107590514Y-122690000D01*
X107332595Y-122741304D01*
X107089641Y-122841939D01*
X106870987Y-122988038D01*
X106685038Y-123173987D01*
X106538939Y-123392641D01*
X106438304Y-123635595D01*
X106387000Y-123893514D01*
X106387000Y-124156486D01*
X106438304Y-124414405D01*
X106538939Y-124657359D01*
X106685038Y-124876013D01*
X106870987Y-125061962D01*
X107089641Y-125208061D01*
X107303444Y-125296621D01*
X107140634Y-125356065D01*
X107039797Y-125409963D01*
X106980336Y-125643731D01*
X107722000Y-126385395D01*
X108463664Y-125643731D01*
X108404203Y-125409963D01*
X108165758Y-125299066D01*
X108146173Y-125294294D01*
X108354359Y-125208061D01*
X108573013Y-125061962D01*
X108758962Y-124876013D01*
X108905061Y-124657359D01*
X108992000Y-124447470D01*
X109078939Y-124657359D01*
X109225038Y-124876013D01*
X109410987Y-125061962D01*
X109629641Y-125208061D01*
X109839530Y-125295000D01*
X109629641Y-125381939D01*
X109410987Y-125528038D01*
X109225038Y-125713987D01*
X109078939Y-125932641D01*
X108990379Y-126146444D01*
X108930935Y-125983634D01*
X108877037Y-125882797D01*
X108643269Y-125823336D01*
X107901605Y-126565000D01*
X108643269Y-127306664D01*
X108877037Y-127247203D01*
X108987934Y-127008758D01*
X108992706Y-126989173D01*
X109078939Y-127197359D01*
X109225038Y-127416013D01*
X109410987Y-127601962D01*
X109629641Y-127748061D01*
X109872595Y-127848696D01*
X110130514Y-127900000D01*
X110393486Y-127900000D01*
X110651405Y-127848696D01*
X110894359Y-127748061D01*
X111113013Y-127601962D01*
X111298962Y-127416013D01*
X111445061Y-127197359D01*
X111532000Y-126987470D01*
X111618939Y-127197359D01*
X111765038Y-127416013D01*
X111950987Y-127601962D01*
X112169641Y-127748061D01*
X112412595Y-127848696D01*
X112670514Y-127900000D01*
X112933486Y-127900000D01*
X113191405Y-127848696D01*
X113297001Y-127804957D01*
X113297001Y-128607172D01*
X113292960Y-128648200D01*
X113309082Y-128811888D01*
X113356828Y-128969286D01*
X113434364Y-129114345D01*
X113448294Y-129131319D01*
X113538710Y-129241491D01*
X113570574Y-129267641D01*
X113746160Y-129443227D01*
X106134810Y-129439374D01*
X106125995Y-127486269D01*
X106980336Y-127486269D01*
X107039797Y-127720037D01*
X107278242Y-127830934D01*
X107533740Y-127893183D01*
X107796473Y-127904390D01*
X108056344Y-127864125D01*
X108303366Y-127773935D01*
X108404203Y-127720037D01*
X108463664Y-127486269D01*
X107722000Y-126744605D01*
X106980336Y-127486269D01*
X106125995Y-127486269D01*
X106122172Y-126639473D01*
X106382610Y-126639473D01*
X106422875Y-126899344D01*
X106513065Y-127146366D01*
X106566963Y-127247203D01*
X106800731Y-127306664D01*
X107542395Y-126565000D01*
X106800731Y-125823336D01*
X106566963Y-125882797D01*
X106456066Y-126121242D01*
X106393817Y-126376740D01*
X106382610Y-126639473D01*
X106122172Y-126639473D01*
X105996054Y-98699473D01*
X106382610Y-98699473D01*
X106422875Y-98959344D01*
X106513065Y-99206366D01*
X106566963Y-99307203D01*
X106800731Y-99366664D01*
X107542395Y-98625000D01*
X106800731Y-97883336D01*
X106566963Y-97942797D01*
X106456066Y-98181242D01*
X106393817Y-98436740D01*
X106382610Y-98699473D01*
X105996054Y-98699473D01*
X105991559Y-97703731D01*
X106980336Y-97703731D01*
X107722000Y-98445395D01*
X108463664Y-97703731D01*
X108404203Y-97469963D01*
X108165758Y-97359066D01*
X107910260Y-97296817D01*
X107647527Y-97285610D01*
X107387656Y-97325875D01*
X107140634Y-97416065D01*
X107039797Y-97469963D01*
X106980336Y-97703731D01*
X105991559Y-97703731D01*
X105991499Y-97690484D01*
X105989042Y-97666194D01*
X105981799Y-97642375D01*
X105970047Y-97620426D01*
X105954240Y-97601192D01*
X105934984Y-97585411D01*
X105913019Y-97573690D01*
X105889190Y-97566480D01*
X105864412Y-97564057D01*
X97422022Y-97569936D01*
X97425856Y-93791000D01*
X108451328Y-93791000D01*
X108463588Y-93915482D01*
X108499898Y-94035180D01*
X108558863Y-94145494D01*
X108638215Y-94242185D01*
X108734906Y-94321537D01*
X108845220Y-94380502D01*
X108964918Y-94416812D01*
X109089400Y-94429072D01*
X109553650Y-94426000D01*
X109712400Y-94267250D01*
X109712400Y-93393000D01*
X109966400Y-93393000D01*
X109966400Y-94267250D01*
X110125150Y-94426000D01*
X110589400Y-94429072D01*
X110713882Y-94416812D01*
X110833580Y-94380502D01*
X110943894Y-94321537D01*
X111040585Y-94242185D01*
X111119937Y-94145494D01*
X111178902Y-94035180D01*
X111215212Y-93915482D01*
X111227472Y-93791000D01*
X111224400Y-93551750D01*
X111065650Y-93393000D01*
X109966400Y-93393000D01*
X109712400Y-93393000D01*
X108613150Y-93393000D01*
X108454400Y-93551750D01*
X108451328Y-93791000D01*
X97425856Y-93791000D01*
X97428966Y-90726000D01*
X108448788Y-90726000D01*
X108471185Y-90953400D01*
X108537515Y-91172060D01*
X108638505Y-91361000D01*
X108537515Y-91549940D01*
X108471185Y-91768600D01*
X108448788Y-91996000D01*
X108471185Y-92223400D01*
X108534493Y-92432098D01*
X108499898Y-92496820D01*
X108463588Y-92616518D01*
X108451328Y-92741000D01*
X108454400Y-92980250D01*
X108613150Y-93139000D01*
X109386291Y-93139000D01*
X109387000Y-93139215D01*
X109557421Y-93156000D01*
X110121379Y-93156000D01*
X110291800Y-93139215D01*
X110292509Y-93139000D01*
X111065650Y-93139000D01*
X111224400Y-92980250D01*
X111225122Y-92924000D01*
X115742728Y-92924000D01*
X115742728Y-94624000D01*
X115754988Y-94748482D01*
X115791298Y-94868180D01*
X115850263Y-94978494D01*
X115929615Y-95075185D01*
X116026306Y-95154537D01*
X116136620Y-95213502D01*
X116256318Y-95249812D01*
X116380800Y-95262072D01*
X118080800Y-95262072D01*
X118205282Y-95249812D01*
X118324980Y-95213502D01*
X118435294Y-95154537D01*
X118531985Y-95075185D01*
X118611337Y-94978494D01*
X118670302Y-94868180D01*
X118706612Y-94748482D01*
X118718872Y-94624000D01*
X118718872Y-92924000D01*
X118706612Y-92799518D01*
X118670302Y-92679820D01*
X118611337Y-92569506D01*
X118600511Y-92556314D01*
X133372500Y-92556314D01*
X133372500Y-92807285D01*
X133395470Y-93040503D01*
X133486245Y-93339748D01*
X133633655Y-93615534D01*
X133832037Y-93857263D01*
X134073765Y-94055645D01*
X134349551Y-94203055D01*
X134648796Y-94293830D01*
X134960000Y-94324481D01*
X135271203Y-94293830D01*
X135570448Y-94203055D01*
X135846234Y-94055645D01*
X136087963Y-93857263D01*
X136235163Y-93677901D01*
X136390563Y-93863115D01*
X136633077Y-94057769D01*
X136908906Y-94201371D01*
X137127020Y-94272363D01*
X137373000Y-94152394D01*
X137373000Y-92808800D01*
X137353000Y-92808800D01*
X137353000Y-92554800D01*
X137373000Y-92554800D01*
X137373000Y-91211206D01*
X137627000Y-91211206D01*
X137627000Y-92554800D01*
X137647000Y-92554800D01*
X137647000Y-92808800D01*
X137627000Y-92808800D01*
X137627000Y-94152394D01*
X137872980Y-94272363D01*
X138091094Y-94201371D01*
X138366923Y-94057769D01*
X138507941Y-93944581D01*
X138556963Y-94036294D01*
X138636315Y-94132985D01*
X138733006Y-94212337D01*
X138843320Y-94271302D01*
X138963018Y-94307612D01*
X139087500Y-94319872D01*
X140992500Y-94319872D01*
X141116982Y-94307612D01*
X141236680Y-94271302D01*
X141346994Y-94212337D01*
X141443685Y-94132985D01*
X141523037Y-94036294D01*
X141582002Y-93925980D01*
X141618312Y-93806282D01*
X141630572Y-93681800D01*
X141630572Y-91681800D01*
X141618312Y-91557318D01*
X141582002Y-91437620D01*
X141523037Y-91327306D01*
X141443685Y-91230615D01*
X141346994Y-91151263D01*
X141236680Y-91092298D01*
X141116982Y-91055988D01*
X140992500Y-91043728D01*
X139087500Y-91043728D01*
X138963018Y-91055988D01*
X138843320Y-91092298D01*
X138733006Y-91151263D01*
X138636315Y-91230615D01*
X138556963Y-91327306D01*
X138507941Y-91419019D01*
X138366923Y-91305831D01*
X138091094Y-91162229D01*
X137872980Y-91091237D01*
X137627000Y-91211206D01*
X137373000Y-91211206D01*
X137127020Y-91091237D01*
X136908906Y-91162229D01*
X136633077Y-91305831D01*
X136390563Y-91500485D01*
X136235162Y-91685700D01*
X136087963Y-91506337D01*
X135846235Y-91307955D01*
X135570449Y-91160545D01*
X135271204Y-91069770D01*
X134960000Y-91039119D01*
X134648797Y-91069770D01*
X134349552Y-91160545D01*
X134073766Y-91307955D01*
X133832037Y-91506337D01*
X133633655Y-91748065D01*
X133486245Y-92023851D01*
X133395470Y-92323096D01*
X133372500Y-92556314D01*
X118600511Y-92556314D01*
X118531985Y-92472815D01*
X118435294Y-92393463D01*
X118324980Y-92334498D01*
X118205282Y-92298188D01*
X118080800Y-92285928D01*
X116380800Y-92285928D01*
X116256318Y-92298188D01*
X116136620Y-92334498D01*
X116026306Y-92393463D01*
X115929615Y-92472815D01*
X115850263Y-92569506D01*
X115791298Y-92679820D01*
X115754988Y-92799518D01*
X115742728Y-92924000D01*
X111225122Y-92924000D01*
X111227472Y-92741000D01*
X111215212Y-92616518D01*
X111178902Y-92496820D01*
X111144307Y-92432098D01*
X111207615Y-92223400D01*
X111230012Y-91996000D01*
X111207615Y-91768600D01*
X111141285Y-91549940D01*
X111040295Y-91361000D01*
X111141285Y-91172060D01*
X111207615Y-90953400D01*
X111230012Y-90726000D01*
X111207615Y-90498600D01*
X111141285Y-90279940D01*
X111033571Y-90078421D01*
X110888612Y-89901788D01*
X110711979Y-89756829D01*
X110510460Y-89649115D01*
X110291800Y-89582785D01*
X110121379Y-89566000D01*
X109557421Y-89566000D01*
X109387000Y-89582785D01*
X109168340Y-89649115D01*
X108966821Y-89756829D01*
X108790188Y-89901788D01*
X108645229Y-90078421D01*
X108537515Y-90279940D01*
X108471185Y-90498600D01*
X108448788Y-90726000D01*
X97428966Y-90726000D01*
X97436304Y-83494419D01*
X102997000Y-83494419D01*
X102997000Y-83875581D01*
X103071361Y-84249419D01*
X103217225Y-84601566D01*
X103428987Y-84918491D01*
X103698509Y-85188013D01*
X104015434Y-85399775D01*
X104367581Y-85545639D01*
X104741419Y-85620000D01*
X105122581Y-85620000D01*
X105496419Y-85545639D01*
X105848566Y-85399775D01*
X106165491Y-85188013D01*
X106435013Y-84918491D01*
X106646775Y-84601566D01*
X106792639Y-84249419D01*
X106867000Y-83875581D01*
X106867000Y-83494419D01*
X106792639Y-83120581D01*
X106646775Y-82768434D01*
X106435013Y-82451509D01*
X106165491Y-82181987D01*
X105848566Y-81970225D01*
X105496419Y-81824361D01*
X105122581Y-81750000D01*
X104741419Y-81750000D01*
X104367581Y-81824361D01*
X104015434Y-81970225D01*
X103698509Y-82181987D01*
X103428987Y-82451509D01*
X103217225Y-82768434D01*
X103071361Y-83120581D01*
X102997000Y-83494419D01*
X97436304Y-83494419D01*
X97439865Y-79985000D01*
X102993928Y-79985000D01*
X103006188Y-80109482D01*
X103042498Y-80229180D01*
X103101463Y-80339494D01*
X103180815Y-80436185D01*
X103277506Y-80515537D01*
X103387820Y-80574502D01*
X103507518Y-80610812D01*
X103632000Y-80623072D01*
X104646250Y-80620000D01*
X104805000Y-80461250D01*
X104805000Y-78812000D01*
X105059000Y-78812000D01*
X105059000Y-80461250D01*
X105217750Y-80620000D01*
X106232000Y-80623072D01*
X106356482Y-80610812D01*
X106476180Y-80574502D01*
X106586494Y-80515537D01*
X106683185Y-80436185D01*
X106686684Y-80431921D01*
X109996400Y-80431921D01*
X109996400Y-80852479D01*
X110078447Y-81264956D01*
X110239388Y-81653502D01*
X110473037Y-82003183D01*
X110770417Y-82300563D01*
X111120098Y-82534212D01*
X111508644Y-82695153D01*
X111921121Y-82777200D01*
X112341679Y-82777200D01*
X112754156Y-82695153D01*
X113142702Y-82534212D01*
X113492383Y-82300563D01*
X113789763Y-82003183D01*
X114023412Y-81653502D01*
X114184353Y-81264956D01*
X114266400Y-80852479D01*
X114266400Y-80431921D01*
X132596400Y-80431921D01*
X132596400Y-80852479D01*
X132678447Y-81264956D01*
X132839388Y-81653502D01*
X133073037Y-82003183D01*
X133370417Y-82300563D01*
X133720098Y-82534212D01*
X134108644Y-82695153D01*
X134521121Y-82777200D01*
X134941679Y-82777200D01*
X135354156Y-82695153D01*
X135742702Y-82534212D01*
X136092383Y-82300563D01*
X136185601Y-82207345D01*
X136185601Y-83499662D01*
X136180594Y-83550500D01*
X136200577Y-83753395D01*
X136259760Y-83948493D01*
X136355866Y-84128297D01*
X136410949Y-84195415D01*
X136429363Y-84222974D01*
X136452803Y-84246414D01*
X136485205Y-84285896D01*
X136524687Y-84318298D01*
X136573526Y-84367137D01*
X136616017Y-84395529D01*
X136655503Y-84427934D01*
X136700554Y-84452014D01*
X136743044Y-84480405D01*
X136790258Y-84499962D01*
X136835307Y-84524041D01*
X136884184Y-84538867D01*
X136931402Y-84558426D01*
X136981532Y-84568397D01*
X137030406Y-84583223D01*
X137081235Y-84588229D01*
X137131361Y-84598200D01*
X137182465Y-84598200D01*
X137233300Y-84603207D01*
X137284135Y-84598200D01*
X137335239Y-84598200D01*
X137385364Y-84588230D01*
X137436195Y-84583223D01*
X137485070Y-84568397D01*
X137535198Y-84558426D01*
X137582415Y-84538868D01*
X137631293Y-84524041D01*
X137676342Y-84499962D01*
X137723556Y-84480405D01*
X137766046Y-84452014D01*
X137811097Y-84427934D01*
X137850584Y-84395528D01*
X137893074Y-84367137D01*
X137929208Y-84331003D01*
X137949069Y-84314703D01*
X137980355Y-84373235D01*
X138178737Y-84614963D01*
X138420465Y-84813345D01*
X138696251Y-84960755D01*
X138995496Y-85051530D01*
X139228714Y-85074500D01*
X139479686Y-85074500D01*
X139712904Y-85051530D01*
X140012149Y-84960755D01*
X140287935Y-84813345D01*
X140529663Y-84614963D01*
X140728045Y-84373235D01*
X140875455Y-84097449D01*
X140966230Y-83798204D01*
X140996881Y-83487000D01*
X140966230Y-83175796D01*
X140875455Y-82876551D01*
X140728045Y-82600765D01*
X140529663Y-82359037D01*
X140356591Y-82217000D01*
X140529663Y-82074963D01*
X140728045Y-81833235D01*
X140875455Y-81557449D01*
X140966230Y-81258204D01*
X140996881Y-80947000D01*
X140966230Y-80635796D01*
X140879336Y-80349344D01*
X157237000Y-80349344D01*
X157237000Y-80720656D01*
X157309439Y-81084834D01*
X157451534Y-81427882D01*
X157657825Y-81736618D01*
X157920382Y-81999175D01*
X158229118Y-82205466D01*
X158572166Y-82347561D01*
X158936344Y-82420000D01*
X159307656Y-82420000D01*
X159671834Y-82347561D01*
X160014882Y-82205466D01*
X160323618Y-81999175D01*
X160586175Y-81736618D01*
X160792466Y-81427882D01*
X160934561Y-81084834D01*
X161007000Y-80720656D01*
X161007000Y-80349344D01*
X160934561Y-79985166D01*
X160792466Y-79642118D01*
X160586175Y-79333382D01*
X160537793Y-79285000D01*
X162313928Y-79285000D01*
X162313928Y-81785000D01*
X162326188Y-81909482D01*
X162362498Y-82029180D01*
X162421463Y-82139494D01*
X162500815Y-82236185D01*
X162597506Y-82315537D01*
X162707820Y-82374502D01*
X162827518Y-82410812D01*
X162952000Y-82423072D01*
X165452000Y-82423072D01*
X165576482Y-82410812D01*
X165696180Y-82374502D01*
X165806494Y-82315537D01*
X165903185Y-82236185D01*
X165982537Y-82139494D01*
X166041502Y-82029180D01*
X166077812Y-81909482D01*
X166090072Y-81785000D01*
X166090072Y-80349344D01*
X167407000Y-80349344D01*
X167407000Y-80720656D01*
X167479439Y-81084834D01*
X167621534Y-81427882D01*
X167827825Y-81736618D01*
X168090382Y-81999175D01*
X168399118Y-82205466D01*
X168742166Y-82347561D01*
X169106344Y-82420000D01*
X169477656Y-82420000D01*
X169841834Y-82347561D01*
X170184882Y-82205466D01*
X170493618Y-81999175D01*
X170756175Y-81736618D01*
X170962466Y-81427882D01*
X171104561Y-81084834D01*
X171177000Y-80720656D01*
X171177000Y-80349344D01*
X171104561Y-79985166D01*
X170962466Y-79642118D01*
X170756175Y-79333382D01*
X170707793Y-79285000D01*
X172483928Y-79285000D01*
X172483928Y-81785000D01*
X172496188Y-81909482D01*
X172532498Y-82029180D01*
X172591463Y-82139494D01*
X172670815Y-82236185D01*
X172767506Y-82315537D01*
X172877820Y-82374502D01*
X172997518Y-82410812D01*
X173122000Y-82423072D01*
X175622000Y-82423072D01*
X175746482Y-82410812D01*
X175866180Y-82374502D01*
X175976494Y-82315537D01*
X176073185Y-82236185D01*
X176152537Y-82139494D01*
X176211502Y-82029180D01*
X176247812Y-81909482D01*
X176260072Y-81785000D01*
X176260072Y-80349344D01*
X177567000Y-80349344D01*
X177567000Y-80720656D01*
X177639439Y-81084834D01*
X177781534Y-81427882D01*
X177987825Y-81736618D01*
X178250382Y-81999175D01*
X178559118Y-82205466D01*
X178902166Y-82347561D01*
X179266344Y-82420000D01*
X179637656Y-82420000D01*
X180001834Y-82347561D01*
X180344882Y-82205466D01*
X180653618Y-81999175D01*
X180916175Y-81736618D01*
X181122466Y-81427882D01*
X181264561Y-81084834D01*
X181337000Y-80720656D01*
X181337000Y-80349344D01*
X181264561Y-79985166D01*
X181122466Y-79642118D01*
X180916175Y-79333382D01*
X180867793Y-79285000D01*
X182643928Y-79285000D01*
X182643928Y-81785000D01*
X182656188Y-81909482D01*
X182692498Y-82029180D01*
X182751463Y-82139494D01*
X182830815Y-82236185D01*
X182927506Y-82315537D01*
X183037820Y-82374502D01*
X183157518Y-82410812D01*
X183282000Y-82423072D01*
X185782000Y-82423072D01*
X185906482Y-82410812D01*
X186026180Y-82374502D01*
X186136494Y-82315537D01*
X186233185Y-82236185D01*
X186312537Y-82139494D01*
X186371502Y-82029180D01*
X186407812Y-81909482D01*
X186420072Y-81785000D01*
X186420072Y-80349344D01*
X187737000Y-80349344D01*
X187737000Y-80720656D01*
X187809439Y-81084834D01*
X187951534Y-81427882D01*
X188157825Y-81736618D01*
X188420382Y-81999175D01*
X188729118Y-82205466D01*
X189072166Y-82347561D01*
X189436344Y-82420000D01*
X189807656Y-82420000D01*
X190171834Y-82347561D01*
X190514882Y-82205466D01*
X190823618Y-81999175D01*
X191086175Y-81736618D01*
X191292466Y-81427882D01*
X191434561Y-81084834D01*
X191507000Y-80720656D01*
X191507000Y-80349344D01*
X191434561Y-79985166D01*
X191292466Y-79642118D01*
X191086175Y-79333382D01*
X191037793Y-79285000D01*
X192813928Y-79285000D01*
X192813928Y-81785000D01*
X192826188Y-81909482D01*
X192862498Y-82029180D01*
X192921463Y-82139494D01*
X193000815Y-82236185D01*
X193097506Y-82315537D01*
X193207820Y-82374502D01*
X193327518Y-82410812D01*
X193452000Y-82423072D01*
X195952000Y-82423072D01*
X196076482Y-82410812D01*
X196196180Y-82374502D01*
X196306494Y-82315537D01*
X196403185Y-82236185D01*
X196482537Y-82139494D01*
X196541502Y-82029180D01*
X196577812Y-81909482D01*
X196590072Y-81785000D01*
X196590072Y-79285000D01*
X196577812Y-79160518D01*
X196541502Y-79040820D01*
X196482537Y-78930506D01*
X196403185Y-78833815D01*
X196306494Y-78754463D01*
X196196180Y-78695498D01*
X196076482Y-78659188D01*
X195952000Y-78646928D01*
X193452000Y-78646928D01*
X193327518Y-78659188D01*
X193207820Y-78695498D01*
X193097506Y-78754463D01*
X193000815Y-78833815D01*
X192921463Y-78930506D01*
X192862498Y-79040820D01*
X192826188Y-79160518D01*
X192813928Y-79285000D01*
X191037793Y-79285000D01*
X190823618Y-79070825D01*
X190514882Y-78864534D01*
X190171834Y-78722439D01*
X189807656Y-78650000D01*
X189436344Y-78650000D01*
X189072166Y-78722439D01*
X188729118Y-78864534D01*
X188420382Y-79070825D01*
X188157825Y-79333382D01*
X187951534Y-79642118D01*
X187809439Y-79985166D01*
X187737000Y-80349344D01*
X186420072Y-80349344D01*
X186420072Y-79285000D01*
X186407812Y-79160518D01*
X186371502Y-79040820D01*
X186312537Y-78930506D01*
X186233185Y-78833815D01*
X186136494Y-78754463D01*
X186026180Y-78695498D01*
X185906482Y-78659188D01*
X185782000Y-78646928D01*
X183282000Y-78646928D01*
X183157518Y-78659188D01*
X183037820Y-78695498D01*
X182927506Y-78754463D01*
X182830815Y-78833815D01*
X182751463Y-78930506D01*
X182692498Y-79040820D01*
X182656188Y-79160518D01*
X182643928Y-79285000D01*
X180867793Y-79285000D01*
X180653618Y-79070825D01*
X180344882Y-78864534D01*
X180001834Y-78722439D01*
X179637656Y-78650000D01*
X179266344Y-78650000D01*
X178902166Y-78722439D01*
X178559118Y-78864534D01*
X178250382Y-79070825D01*
X177987825Y-79333382D01*
X177781534Y-79642118D01*
X177639439Y-79985166D01*
X177567000Y-80349344D01*
X176260072Y-80349344D01*
X176260072Y-79285000D01*
X176247812Y-79160518D01*
X176211502Y-79040820D01*
X176152537Y-78930506D01*
X176073185Y-78833815D01*
X175976494Y-78754463D01*
X175866180Y-78695498D01*
X175746482Y-78659188D01*
X175622000Y-78646928D01*
X173122000Y-78646928D01*
X172997518Y-78659188D01*
X172877820Y-78695498D01*
X172767506Y-78754463D01*
X172670815Y-78833815D01*
X172591463Y-78930506D01*
X172532498Y-79040820D01*
X172496188Y-79160518D01*
X172483928Y-79285000D01*
X170707793Y-79285000D01*
X170493618Y-79070825D01*
X170184882Y-78864534D01*
X169841834Y-78722439D01*
X169477656Y-78650000D01*
X169106344Y-78650000D01*
X168742166Y-78722439D01*
X168399118Y-78864534D01*
X168090382Y-79070825D01*
X167827825Y-79333382D01*
X167621534Y-79642118D01*
X167479439Y-79985166D01*
X167407000Y-80349344D01*
X166090072Y-80349344D01*
X166090072Y-79285000D01*
X166077812Y-79160518D01*
X166041502Y-79040820D01*
X165982537Y-78930506D01*
X165903185Y-78833815D01*
X165806494Y-78754463D01*
X165696180Y-78695498D01*
X165576482Y-78659188D01*
X165452000Y-78646928D01*
X162952000Y-78646928D01*
X162827518Y-78659188D01*
X162707820Y-78695498D01*
X162597506Y-78754463D01*
X162500815Y-78833815D01*
X162421463Y-78930506D01*
X162362498Y-79040820D01*
X162326188Y-79160518D01*
X162313928Y-79285000D01*
X160537793Y-79285000D01*
X160323618Y-79070825D01*
X160014882Y-78864534D01*
X159671834Y-78722439D01*
X159307656Y-78650000D01*
X158936344Y-78650000D01*
X158572166Y-78722439D01*
X158229118Y-78864534D01*
X157920382Y-79070825D01*
X157657825Y-79333382D01*
X157451534Y-79642118D01*
X157309439Y-79985166D01*
X157237000Y-80349344D01*
X140879336Y-80349344D01*
X140875455Y-80336551D01*
X140728045Y-80060765D01*
X140624754Y-79934905D01*
X140708694Y-79890037D01*
X140805385Y-79810685D01*
X140884737Y-79713994D01*
X140943702Y-79603680D01*
X140980012Y-79483982D01*
X140992272Y-79359500D01*
X140992272Y-77454500D01*
X140980012Y-77330018D01*
X140943702Y-77210320D01*
X140884737Y-77100006D01*
X140805385Y-77003315D01*
X140708694Y-76923963D01*
X140598380Y-76864998D01*
X140478682Y-76828688D01*
X140354200Y-76816428D01*
X138354200Y-76816428D01*
X138229718Y-76828688D01*
X138110020Y-76864998D01*
X137999706Y-76923963D01*
X137903015Y-77003315D01*
X137823663Y-77100006D01*
X137764698Y-77210320D01*
X137728388Y-77330018D01*
X137722967Y-77385059D01*
X137703505Y-77386976D01*
X137508407Y-77446159D01*
X137424709Y-77490896D01*
X137328602Y-77542266D01*
X137266713Y-77593058D01*
X137171004Y-77671604D01*
X137138593Y-77711097D01*
X136524697Y-78324993D01*
X136485204Y-78357404D01*
X136355866Y-78515003D01*
X136259759Y-78694808D01*
X136200576Y-78889906D01*
X136185600Y-79041963D01*
X136185600Y-79041972D01*
X136182455Y-79073909D01*
X136092383Y-78983837D01*
X135742702Y-78750188D01*
X135354156Y-78589247D01*
X134941679Y-78507200D01*
X134521121Y-78507200D01*
X134108644Y-78589247D01*
X133720098Y-78750188D01*
X133370417Y-78983837D01*
X133073037Y-79281217D01*
X132839388Y-79630898D01*
X132678447Y-80019444D01*
X132596400Y-80431921D01*
X114266400Y-80431921D01*
X114184353Y-80019444D01*
X114023412Y-79630898D01*
X113789763Y-79281217D01*
X113492383Y-78983837D01*
X113142702Y-78750188D01*
X112754156Y-78589247D01*
X112341679Y-78507200D01*
X111921121Y-78507200D01*
X111508644Y-78589247D01*
X111120098Y-78750188D01*
X110770417Y-78983837D01*
X110473037Y-79281217D01*
X110239388Y-79630898D01*
X110078447Y-80019444D01*
X109996400Y-80431921D01*
X106686684Y-80431921D01*
X106762537Y-80339494D01*
X106821502Y-80229180D01*
X106857812Y-80109482D01*
X106870072Y-79985000D01*
X106867000Y-78970750D01*
X106708250Y-78812000D01*
X105059000Y-78812000D01*
X104805000Y-78812000D01*
X103155750Y-78812000D01*
X102997000Y-78970750D01*
X102993928Y-79985000D01*
X97439865Y-79985000D01*
X97442503Y-77385000D01*
X102993928Y-77385000D01*
X102997000Y-78399250D01*
X103155750Y-78558000D01*
X104805000Y-78558000D01*
X104805000Y-76908750D01*
X105059000Y-76908750D01*
X105059000Y-78558000D01*
X106708250Y-78558000D01*
X106867000Y-78399250D01*
X106870072Y-77385000D01*
X106857812Y-77260518D01*
X106821502Y-77140820D01*
X106762537Y-77030506D01*
X106683185Y-76933815D01*
X106586494Y-76854463D01*
X106476180Y-76795498D01*
X106356482Y-76759188D01*
X106232000Y-76746928D01*
X105217750Y-76750000D01*
X105059000Y-76908750D01*
X104805000Y-76908750D01*
X104646250Y-76750000D01*
X103632000Y-76746928D01*
X103507518Y-76759188D01*
X103387820Y-76795498D01*
X103277506Y-76854463D01*
X103180815Y-76933815D01*
X103101463Y-77030506D01*
X103042498Y-77140820D01*
X103006188Y-77260518D01*
X102993928Y-77385000D01*
X97442503Y-77385000D01*
X97443365Y-76535859D01*
X97501300Y-75944991D01*
X97663066Y-75409198D01*
X97925819Y-74915031D01*
X98279553Y-74481310D01*
X98710793Y-74124557D01*
X99203119Y-73858358D01*
X99737765Y-73692857D01*
X100326256Y-73631005D01*
X200559913Y-73681782D01*
G04 #@! TA.AperFunction,Conductor*
D28*
G36*
X200559913Y-73681782D02*
G01*
X201150609Y-73739700D01*
X201686402Y-73901466D01*
X202180569Y-74164219D01*
X202614290Y-74517953D01*
X202971043Y-74949193D01*
X203237242Y-75441519D01*
X203402743Y-75976165D01*
X203464600Y-76564705D01*
X203464601Y-126582686D01*
X203406700Y-127173209D01*
X203244935Y-127709000D01*
X202982180Y-128203172D01*
X202628447Y-128636890D01*
X202197206Y-128993644D01*
X201704881Y-129259842D01*
X201170238Y-129425342D01*
X200581744Y-129487195D01*
X141420627Y-129457240D01*
X143713428Y-127164440D01*
X143745291Y-127138291D01*
X143849636Y-127011146D01*
X143927172Y-126866087D01*
X143974918Y-126708689D01*
X143987000Y-126586019D01*
X143987000Y-126586009D01*
X143991039Y-126545001D01*
X143987000Y-126503993D01*
X143987000Y-123941173D01*
X144177134Y-123785134D01*
X144362706Y-123559014D01*
X144372000Y-123541626D01*
X144381294Y-123559014D01*
X144566866Y-123785134D01*
X144792987Y-123970706D01*
X145050967Y-124108599D01*
X145330890Y-124193513D01*
X145622000Y-124222185D01*
X145913111Y-124193513D01*
X146193034Y-124108599D01*
X146451014Y-123970706D01*
X146677134Y-123785134D01*
X146862706Y-123559014D01*
X146876462Y-123533278D01*
X147032951Y-123739429D01*
X147250807Y-123932496D01*
X147502142Y-124079352D01*
X147765110Y-124171476D01*
X147995000Y-124050155D01*
X147995000Y-122732000D01*
X148249000Y-122732000D01*
X148249000Y-124050155D01*
X148478890Y-124171476D01*
X148741858Y-124079352D01*
X148993193Y-123932496D01*
X149211049Y-123739429D01*
X149387053Y-123507570D01*
X149514442Y-123245830D01*
X149588320Y-122964267D01*
X149448165Y-122732000D01*
X148249000Y-122732000D01*
X147995000Y-122732000D01*
X147975000Y-122732000D01*
X147975000Y-122478000D01*
X147995000Y-122478000D01*
X147995000Y-121159845D01*
X148249000Y-121159845D01*
X148249000Y-122478000D01*
X149448165Y-122478000D01*
X149588320Y-122245733D01*
X149514442Y-121964170D01*
X149422373Y-121775000D01*
X157433928Y-121775000D01*
X157433928Y-124275000D01*
X157446188Y-124399482D01*
X157482498Y-124519180D01*
X157541463Y-124629494D01*
X157620815Y-124726185D01*
X157717506Y-124805537D01*
X157827820Y-124864502D01*
X157947518Y-124900812D01*
X158072000Y-124913072D01*
X160572000Y-124913072D01*
X160696482Y-124900812D01*
X160816180Y-124864502D01*
X160926494Y-124805537D01*
X161023185Y-124726185D01*
X161102537Y-124629494D01*
X161161502Y-124519180D01*
X161197812Y-124399482D01*
X161210072Y-124275000D01*
X161210072Y-122839344D01*
X162517000Y-122839344D01*
X162517000Y-123210656D01*
X162589439Y-123574834D01*
X162731534Y-123917882D01*
X162937825Y-124226618D01*
X163200382Y-124489175D01*
X163509118Y-124695466D01*
X163852166Y-124837561D01*
X164216344Y-124910000D01*
X164587656Y-124910000D01*
X164951834Y-124837561D01*
X165294882Y-124695466D01*
X165603618Y-124489175D01*
X165866175Y-124226618D01*
X166072466Y-123917882D01*
X166214561Y-123574834D01*
X166287000Y-123210656D01*
X166287000Y-122839344D01*
X166214561Y-122475166D01*
X166072466Y-122132118D01*
X165866175Y-121823382D01*
X165817793Y-121775000D01*
X167583928Y-121775000D01*
X167583928Y-124275000D01*
X167596188Y-124399482D01*
X167632498Y-124519180D01*
X167691463Y-124629494D01*
X167770815Y-124726185D01*
X167867506Y-124805537D01*
X167977820Y-124864502D01*
X168097518Y-124900812D01*
X168222000Y-124913072D01*
X170722000Y-124913072D01*
X170846482Y-124900812D01*
X170966180Y-124864502D01*
X171076494Y-124805537D01*
X171173185Y-124726185D01*
X171252537Y-124629494D01*
X171311502Y-124519180D01*
X171347812Y-124399482D01*
X171360072Y-124275000D01*
X171360072Y-122839344D01*
X172667000Y-122839344D01*
X172667000Y-123210656D01*
X172739439Y-123574834D01*
X172881534Y-123917882D01*
X173087825Y-124226618D01*
X173350382Y-124489175D01*
X173659118Y-124695466D01*
X174002166Y-124837561D01*
X174366344Y-124910000D01*
X174737656Y-124910000D01*
X175101834Y-124837561D01*
X175444882Y-124695466D01*
X175753618Y-124489175D01*
X176016175Y-124226618D01*
X176222466Y-123917882D01*
X176364561Y-123574834D01*
X176437000Y-123210656D01*
X176437000Y-122839344D01*
X176364561Y-122475166D01*
X176222466Y-122132118D01*
X176016175Y-121823382D01*
X175967793Y-121775000D01*
X177743928Y-121775000D01*
X177743928Y-124275000D01*
X177756188Y-124399482D01*
X177792498Y-124519180D01*
X177851463Y-124629494D01*
X177930815Y-124726185D01*
X178027506Y-124805537D01*
X178137820Y-124864502D01*
X178257518Y-124900812D01*
X178382000Y-124913072D01*
X180882000Y-124913072D01*
X181006482Y-124900812D01*
X181126180Y-124864502D01*
X181236494Y-124805537D01*
X181333185Y-124726185D01*
X181412537Y-124629494D01*
X181471502Y-124519180D01*
X181507812Y-124399482D01*
X181520072Y-124275000D01*
X181520072Y-122839344D01*
X182827000Y-122839344D01*
X182827000Y-123210656D01*
X182899439Y-123574834D01*
X183041534Y-123917882D01*
X183247825Y-124226618D01*
X183510382Y-124489175D01*
X183819118Y-124695466D01*
X184162166Y-124837561D01*
X184526344Y-124910000D01*
X184897656Y-124910000D01*
X185261834Y-124837561D01*
X185604882Y-124695466D01*
X185913618Y-124489175D01*
X186176175Y-124226618D01*
X186382466Y-123917882D01*
X186524561Y-123574834D01*
X186597000Y-123210656D01*
X186597000Y-122839344D01*
X186524561Y-122475166D01*
X186382466Y-122132118D01*
X186176175Y-121823382D01*
X186127793Y-121775000D01*
X187903928Y-121775000D01*
X187903928Y-124275000D01*
X187916188Y-124399482D01*
X187952498Y-124519180D01*
X188011463Y-124629494D01*
X188090815Y-124726185D01*
X188187506Y-124805537D01*
X188297820Y-124864502D01*
X188417518Y-124900812D01*
X188542000Y-124913072D01*
X191042000Y-124913072D01*
X191166482Y-124900812D01*
X191286180Y-124864502D01*
X191396494Y-124805537D01*
X191493185Y-124726185D01*
X191572537Y-124629494D01*
X191631502Y-124519180D01*
X191667812Y-124399482D01*
X191680072Y-124275000D01*
X191680072Y-122839344D01*
X192987000Y-122839344D01*
X192987000Y-123210656D01*
X193059439Y-123574834D01*
X193201534Y-123917882D01*
X193407825Y-124226618D01*
X193670382Y-124489175D01*
X193979118Y-124695466D01*
X194322166Y-124837561D01*
X194686344Y-124910000D01*
X195057656Y-124910000D01*
X195421834Y-124837561D01*
X195764882Y-124695466D01*
X196073618Y-124489175D01*
X196336175Y-124226618D01*
X196542466Y-123917882D01*
X196684561Y-123574834D01*
X196757000Y-123210656D01*
X196757000Y-122839344D01*
X196684561Y-122475166D01*
X196542466Y-122132118D01*
X196336175Y-121823382D01*
X196073618Y-121560825D01*
X195764882Y-121354534D01*
X195421834Y-121212439D01*
X195057656Y-121140000D01*
X194686344Y-121140000D01*
X194322166Y-121212439D01*
X193979118Y-121354534D01*
X193670382Y-121560825D01*
X193407825Y-121823382D01*
X193201534Y-122132118D01*
X193059439Y-122475166D01*
X192987000Y-122839344D01*
X191680072Y-122839344D01*
X191680072Y-121775000D01*
X191667812Y-121650518D01*
X191631502Y-121530820D01*
X191572537Y-121420506D01*
X191493185Y-121323815D01*
X191396494Y-121244463D01*
X191286180Y-121185498D01*
X191166482Y-121149188D01*
X191042000Y-121136928D01*
X188542000Y-121136928D01*
X188417518Y-121149188D01*
X188297820Y-121185498D01*
X188187506Y-121244463D01*
X188090815Y-121323815D01*
X188011463Y-121420506D01*
X187952498Y-121530820D01*
X187916188Y-121650518D01*
X187903928Y-121775000D01*
X186127793Y-121775000D01*
X185913618Y-121560825D01*
X185604882Y-121354534D01*
X185261834Y-121212439D01*
X184897656Y-121140000D01*
X184526344Y-121140000D01*
X184162166Y-121212439D01*
X183819118Y-121354534D01*
X183510382Y-121560825D01*
X183247825Y-121823382D01*
X183041534Y-122132118D01*
X182899439Y-122475166D01*
X182827000Y-122839344D01*
X181520072Y-122839344D01*
X181520072Y-121775000D01*
X181507812Y-121650518D01*
X181471502Y-121530820D01*
X181412537Y-121420506D01*
X181333185Y-121323815D01*
X181236494Y-121244463D01*
X181126180Y-121185498D01*
X181006482Y-121149188D01*
X180882000Y-121136928D01*
X178382000Y-121136928D01*
X178257518Y-121149188D01*
X178137820Y-121185498D01*
X178027506Y-121244463D01*
X177930815Y-121323815D01*
X177851463Y-121420506D01*
X177792498Y-121530820D01*
X177756188Y-121650518D01*
X177743928Y-121775000D01*
X175967793Y-121775000D01*
X175753618Y-121560825D01*
X175444882Y-121354534D01*
X175101834Y-121212439D01*
X174737656Y-121140000D01*
X174366344Y-121140000D01*
X174002166Y-121212439D01*
X173659118Y-121354534D01*
X173350382Y-121560825D01*
X173087825Y-121823382D01*
X172881534Y-122132118D01*
X172739439Y-122475166D01*
X172667000Y-122839344D01*
X171360072Y-122839344D01*
X171360072Y-121775000D01*
X171347812Y-121650518D01*
X171311502Y-121530820D01*
X171252537Y-121420506D01*
X171173185Y-121323815D01*
X171076494Y-121244463D01*
X170966180Y-121185498D01*
X170846482Y-121149188D01*
X170722000Y-121136928D01*
X168222000Y-121136928D01*
X168097518Y-121149188D01*
X167977820Y-121185498D01*
X167867506Y-121244463D01*
X167770815Y-121323815D01*
X167691463Y-121420506D01*
X167632498Y-121530820D01*
X167596188Y-121650518D01*
X167583928Y-121775000D01*
X165817793Y-121775000D01*
X165603618Y-121560825D01*
X165294882Y-121354534D01*
X164951834Y-121212439D01*
X164587656Y-121140000D01*
X164216344Y-121140000D01*
X163852166Y-121212439D01*
X163509118Y-121354534D01*
X163200382Y-121560825D01*
X162937825Y-121823382D01*
X162731534Y-122132118D01*
X162589439Y-122475166D01*
X162517000Y-122839344D01*
X161210072Y-122839344D01*
X161210072Y-121775000D01*
X161197812Y-121650518D01*
X161161502Y-121530820D01*
X161102537Y-121420506D01*
X161023185Y-121323815D01*
X160926494Y-121244463D01*
X160816180Y-121185498D01*
X160696482Y-121149188D01*
X160572000Y-121136928D01*
X158072000Y-121136928D01*
X157947518Y-121149188D01*
X157827820Y-121185498D01*
X157717506Y-121244463D01*
X157620815Y-121323815D01*
X157541463Y-121420506D01*
X157482498Y-121530820D01*
X157446188Y-121650518D01*
X157433928Y-121775000D01*
X149422373Y-121775000D01*
X149387053Y-121702430D01*
X149211049Y-121470571D01*
X148993193Y-121277504D01*
X148741858Y-121130648D01*
X148478890Y-121038524D01*
X148249000Y-121159845D01*
X147995000Y-121159845D01*
X147765110Y-121038524D01*
X147502142Y-121130648D01*
X147250807Y-121277504D01*
X147032951Y-121470571D01*
X146876462Y-121676722D01*
X146862706Y-121650986D01*
X146677134Y-121424866D01*
X146451013Y-121239294D01*
X146193033Y-121101401D01*
X145913110Y-121016487D01*
X145622000Y-120987815D01*
X145482286Y-121001576D01*
X144101807Y-119621097D01*
X144069396Y-119581604D01*
X143911797Y-119452266D01*
X143731993Y-119356159D01*
X143536895Y-119296976D01*
X143384838Y-119282000D01*
X143384828Y-119282000D01*
X143334000Y-119276994D01*
X143283172Y-119282000D01*
X129372035Y-119282000D01*
X129321200Y-119276993D01*
X129270365Y-119282000D01*
X129270362Y-119282000D01*
X129118305Y-119296976D01*
X128923207Y-119356159D01*
X128743403Y-119452266D01*
X128676282Y-119507351D01*
X128648726Y-119525763D01*
X128625292Y-119549197D01*
X128585804Y-119581604D01*
X128553397Y-119621092D01*
X128504563Y-119669926D01*
X128476171Y-119712417D01*
X128443766Y-119751903D01*
X128419687Y-119796952D01*
X128391295Y-119839444D01*
X128371736Y-119886664D01*
X128347660Y-119931707D01*
X128332835Y-119980578D01*
X128313274Y-120027802D01*
X128303303Y-120077932D01*
X128288477Y-120126805D01*
X128283471Y-120177633D01*
X128273500Y-120227761D01*
X128273500Y-120278872D01*
X128268494Y-120329700D01*
X128273500Y-120380528D01*
X128273500Y-120431639D01*
X128283471Y-120481767D01*
X128288477Y-120532595D01*
X128303303Y-120581468D01*
X128313274Y-120631598D01*
X128332835Y-120678822D01*
X128347660Y-120727693D01*
X128371736Y-120772736D01*
X128391295Y-120819956D01*
X128419687Y-120862448D01*
X128443766Y-120907497D01*
X128476172Y-120946984D01*
X128504563Y-120989474D01*
X128540697Y-121025608D01*
X128573104Y-121065096D01*
X128612592Y-121097503D01*
X128648726Y-121133637D01*
X128691216Y-121162028D01*
X128730703Y-121194434D01*
X128775752Y-121218513D01*
X128818244Y-121246905D01*
X128865464Y-121266464D01*
X128910507Y-121290540D01*
X128959378Y-121305365D01*
X129006602Y-121324926D01*
X129056732Y-121334897D01*
X129105605Y-121349723D01*
X129156433Y-121354729D01*
X129206561Y-121364700D01*
X129257672Y-121364700D01*
X129308500Y-121369706D01*
X129359328Y-121364700D01*
X129410439Y-121364700D01*
X129460567Y-121354729D01*
X129488276Y-121352000D01*
X139312002Y-121352000D01*
X139283595Y-121386614D01*
X139201528Y-121540150D01*
X139192473Y-121570000D01*
X123492835Y-121570000D01*
X123442000Y-121564993D01*
X123391165Y-121570000D01*
X123391162Y-121570000D01*
X123314012Y-121577598D01*
X127716610Y-117175000D01*
X147463928Y-117175000D01*
X147476188Y-117299482D01*
X147512498Y-117419180D01*
X147571463Y-117529494D01*
X147650815Y-117626185D01*
X147747506Y-117705537D01*
X147857820Y-117764502D01*
X147977518Y-117800812D01*
X148102000Y-117813072D01*
X148666250Y-117810000D01*
X148825000Y-117651250D01*
X148825000Y-116452000D01*
X147625750Y-116452000D01*
X147467000Y-116610750D01*
X147463928Y-117175000D01*
X127716610Y-117175000D01*
X129416610Y-115475000D01*
X147463928Y-115475000D01*
X147467000Y-116039250D01*
X147625750Y-116198000D01*
X148825000Y-116198000D01*
X148825000Y-114998750D01*
X148666250Y-114840000D01*
X148102000Y-114836928D01*
X147977518Y-114849188D01*
X147857820Y-114885498D01*
X147747506Y-114944463D01*
X147650815Y-115023815D01*
X147571463Y-115120506D01*
X147512498Y-115230820D01*
X147476188Y-115350518D01*
X147463928Y-115475000D01*
X129416610Y-115475000D01*
X129432411Y-115459200D01*
X138027155Y-115459200D01*
X138074453Y-115468608D01*
X138125557Y-115468608D01*
X138176392Y-115473615D01*
X138227227Y-115468608D01*
X138278331Y-115468608D01*
X138328456Y-115458638D01*
X138379287Y-115453631D01*
X138428160Y-115438805D01*
X138478290Y-115428834D01*
X138525514Y-115409273D01*
X138574385Y-115394448D01*
X138619428Y-115370372D01*
X138666648Y-115350813D01*
X138709140Y-115322421D01*
X138754189Y-115298342D01*
X138793676Y-115265936D01*
X138836166Y-115237545D01*
X138872300Y-115201411D01*
X138911788Y-115169004D01*
X138944195Y-115129516D01*
X138980329Y-115093382D01*
X139008720Y-115050892D01*
X139041126Y-115011405D01*
X139065205Y-114966356D01*
X139093597Y-114923864D01*
X139113156Y-114876644D01*
X139137232Y-114831601D01*
X139152057Y-114782730D01*
X139171618Y-114735506D01*
X139181589Y-114685376D01*
X139196415Y-114636503D01*
X139201422Y-114585672D01*
X139211392Y-114535547D01*
X139211392Y-114484443D01*
X139216399Y-114433608D01*
X139214842Y-114417800D01*
X139743346Y-114417800D01*
X139794174Y-114422806D01*
X139845002Y-114417800D01*
X139845012Y-114417800D01*
X139997069Y-114402824D01*
X140192167Y-114343641D01*
X140279159Y-114297143D01*
X140293043Y-114291392D01*
X140305538Y-114283043D01*
X140371971Y-114247534D01*
X140430199Y-114199747D01*
X140462561Y-114178124D01*
X140490082Y-114150603D01*
X140529570Y-114118196D01*
X140561977Y-114078708D01*
X140606724Y-114033961D01*
X140635116Y-113991470D01*
X140667521Y-113951984D01*
X140691601Y-113906933D01*
X140719992Y-113864443D01*
X140739549Y-113817229D01*
X140763628Y-113772180D01*
X140778454Y-113723303D01*
X140798013Y-113676085D01*
X140807984Y-113625955D01*
X140822810Y-113577081D01*
X140827816Y-113526252D01*
X140837787Y-113476126D01*
X140837787Y-113425022D01*
X140842794Y-113374187D01*
X140837787Y-113323352D01*
X140837787Y-113272248D01*
X140827817Y-113222123D01*
X140822810Y-113171292D01*
X140807984Y-113122417D01*
X140798013Y-113072289D01*
X140778455Y-113025072D01*
X140763628Y-112976194D01*
X140758559Y-112966710D01*
X150352200Y-112966710D01*
X152222418Y-114836928D01*
X150642000Y-114836928D01*
X150517518Y-114849188D01*
X150397820Y-114885498D01*
X150287506Y-114944463D01*
X150222000Y-114998222D01*
X150156494Y-114944463D01*
X150046180Y-114885498D01*
X149926482Y-114849188D01*
X149802000Y-114836928D01*
X149237750Y-114840000D01*
X149079000Y-114998750D01*
X149079000Y-116198000D01*
X149099000Y-116198000D01*
X149099000Y-116452000D01*
X149079000Y-116452000D01*
X149079000Y-117651250D01*
X149237750Y-117810000D01*
X149802000Y-117813072D01*
X149926482Y-117800812D01*
X150046180Y-117764502D01*
X150156494Y-117705537D01*
X150222000Y-117651778D01*
X150287506Y-117705537D01*
X150397820Y-117764502D01*
X150517518Y-117800812D01*
X150642000Y-117813072D01*
X152342000Y-117813072D01*
X152466482Y-117800812D01*
X152586180Y-117764502D01*
X152696494Y-117705537D01*
X152793185Y-117626185D01*
X152872537Y-117529494D01*
X152931502Y-117419180D01*
X152967812Y-117299482D01*
X152980072Y-117175000D01*
X152980072Y-115594583D01*
X154515025Y-117129536D01*
X154547432Y-117169024D01*
X154705031Y-117298362D01*
X154884835Y-117394469D01*
X155079933Y-117453652D01*
X155231990Y-117468628D01*
X155231999Y-117468628D01*
X155282827Y-117473634D01*
X155333655Y-117468628D01*
X185925044Y-117468628D01*
X185975872Y-117473634D01*
X186026700Y-117468628D01*
X186026710Y-117468628D01*
X186178767Y-117453652D01*
X186373865Y-117394469D01*
X186553669Y-117298362D01*
X186711268Y-117169024D01*
X186743679Y-117129531D01*
X192231503Y-111641708D01*
X192267637Y-111605574D01*
X192296025Y-111563088D01*
X192328434Y-111523598D01*
X192352516Y-111478544D01*
X192380905Y-111436056D01*
X192400462Y-111388841D01*
X192424540Y-111343794D01*
X192439366Y-111294920D01*
X192458926Y-111247698D01*
X192468897Y-111197568D01*
X192483723Y-111148695D01*
X192488730Y-111097864D01*
X192498700Y-111047739D01*
X192498700Y-110996635D01*
X192503707Y-110945800D01*
X192498700Y-110894965D01*
X192498700Y-110843861D01*
X192488730Y-110793736D01*
X192485299Y-110758898D01*
X193750594Y-110758898D01*
X193755600Y-110809726D01*
X193755601Y-113331656D01*
X193755600Y-113331661D01*
X193755600Y-113535539D01*
X193765571Y-113585667D01*
X193770577Y-113636495D01*
X193785403Y-113685368D01*
X193795374Y-113735498D01*
X193814935Y-113782722D01*
X193829760Y-113831593D01*
X193853835Y-113876634D01*
X193873395Y-113923856D01*
X193901791Y-113966353D01*
X193925867Y-114011397D01*
X193958268Y-114050878D01*
X193986663Y-114093374D01*
X194022803Y-114129514D01*
X194055205Y-114168996D01*
X194094687Y-114201398D01*
X194130826Y-114237537D01*
X194173321Y-114265931D01*
X194212804Y-114298334D01*
X194257850Y-114322412D01*
X194300344Y-114350805D01*
X194347562Y-114370363D01*
X194392608Y-114394441D01*
X194441484Y-114409268D01*
X194488702Y-114428826D01*
X194538826Y-114438796D01*
X194587706Y-114453624D01*
X194638542Y-114458631D01*
X194688661Y-114468600D01*
X194739762Y-114468600D01*
X194790600Y-114473607D01*
X194841438Y-114468600D01*
X194892539Y-114468600D01*
X194942657Y-114458631D01*
X194993495Y-114453624D01*
X195042377Y-114438796D01*
X195092498Y-114428826D01*
X195139713Y-114409269D01*
X195188593Y-114394441D01*
X195233642Y-114370362D01*
X195280856Y-114350805D01*
X195323346Y-114322414D01*
X195368397Y-114298334D01*
X195407884Y-114265928D01*
X195450374Y-114237537D01*
X195486508Y-114201403D01*
X195525996Y-114168996D01*
X195558403Y-114129508D01*
X195594537Y-114093374D01*
X195622928Y-114050884D01*
X195655334Y-114011397D01*
X195679414Y-113966346D01*
X195707805Y-113923856D01*
X195727362Y-113876642D01*
X195751441Y-113831593D01*
X195766269Y-113782713D01*
X195785826Y-113735498D01*
X195795796Y-113685377D01*
X195810624Y-113636495D01*
X195815631Y-113585657D01*
X195825600Y-113535539D01*
X195825600Y-111187608D01*
X198183209Y-108830000D01*
X198503939Y-108830000D01*
X198554057Y-108820031D01*
X198604895Y-108815024D01*
X198653777Y-108800196D01*
X198703898Y-108790226D01*
X198751113Y-108770669D01*
X198799993Y-108755841D01*
X198845042Y-108731762D01*
X198892256Y-108712205D01*
X198934746Y-108683814D01*
X198979797Y-108659734D01*
X199019284Y-108627328D01*
X199061774Y-108598937D01*
X199097908Y-108562803D01*
X199137396Y-108530396D01*
X199169803Y-108490908D01*
X199205937Y-108454774D01*
X199234328Y-108412284D01*
X199266734Y-108372797D01*
X199290814Y-108327746D01*
X199319205Y-108285256D01*
X199338762Y-108238042D01*
X199362841Y-108192993D01*
X199377669Y-108144113D01*
X199397226Y-108096898D01*
X199407196Y-108046777D01*
X199422024Y-107997895D01*
X199427031Y-107947057D01*
X199437000Y-107896939D01*
X199437000Y-107845838D01*
X199442007Y-107795000D01*
X199437000Y-107744162D01*
X199437000Y-107693061D01*
X199427031Y-107642943D01*
X199422024Y-107592105D01*
X199407196Y-107543223D01*
X199397226Y-107493102D01*
X199377669Y-107445887D01*
X199362841Y-107397007D01*
X199338762Y-107351958D01*
X199319205Y-107304744D01*
X199290814Y-107262254D01*
X199266734Y-107217203D01*
X199234328Y-107177716D01*
X199205937Y-107135226D01*
X199169803Y-107099092D01*
X199137396Y-107059604D01*
X199097908Y-107027197D01*
X199061774Y-106991063D01*
X199019284Y-106962672D01*
X198979797Y-106930266D01*
X198934746Y-106906186D01*
X198892256Y-106877795D01*
X198845042Y-106858238D01*
X198799993Y-106834159D01*
X198751113Y-106819331D01*
X198703898Y-106799774D01*
X198653777Y-106789804D01*
X198604895Y-106774976D01*
X198554057Y-106769969D01*
X198503939Y-106760000D01*
X197805333Y-106760000D01*
X197754498Y-106754993D01*
X197703663Y-106760000D01*
X197703660Y-106760000D01*
X197551603Y-106774976D01*
X197356505Y-106834159D01*
X197325170Y-106850908D01*
X197176700Y-106930266D01*
X197096438Y-106996136D01*
X197019102Y-107059604D01*
X196986695Y-107099092D01*
X194094697Y-109991091D01*
X194055204Y-110023502D01*
X193925866Y-110181101D01*
X193829759Y-110360906D01*
X193770576Y-110556004D01*
X193755600Y-110708061D01*
X193755600Y-110708070D01*
X193750594Y-110758898D01*
X192485299Y-110758898D01*
X192483723Y-110742905D01*
X192468897Y-110694032D01*
X192458926Y-110643902D01*
X192439365Y-110596678D01*
X192424540Y-110547807D01*
X192400464Y-110502764D01*
X192380905Y-110455544D01*
X192352513Y-110413052D01*
X192328434Y-110368003D01*
X192296028Y-110328516D01*
X192267637Y-110286026D01*
X192231503Y-110249892D01*
X192199096Y-110210404D01*
X192159608Y-110177997D01*
X192123474Y-110141863D01*
X192080984Y-110113472D01*
X192041497Y-110081066D01*
X191996448Y-110056987D01*
X191953956Y-110028595D01*
X191906736Y-110009036D01*
X191861693Y-109984960D01*
X191812822Y-109970135D01*
X191765598Y-109950574D01*
X191715468Y-109940603D01*
X191666595Y-109925777D01*
X191615764Y-109920770D01*
X191565639Y-109910800D01*
X191514535Y-109910800D01*
X191463700Y-109905793D01*
X191412865Y-109910800D01*
X191361761Y-109910800D01*
X191311636Y-109920770D01*
X191260805Y-109925777D01*
X191211932Y-109940603D01*
X191161802Y-109950574D01*
X191114580Y-109970134D01*
X191065706Y-109984960D01*
X191020659Y-110009038D01*
X190973444Y-110028595D01*
X190930956Y-110056984D01*
X190885902Y-110081066D01*
X190846412Y-110113475D01*
X190803926Y-110141863D01*
X190767792Y-110177997D01*
X185547162Y-115398628D01*
X178149482Y-115398628D01*
X181931803Y-111616308D01*
X181967937Y-111580174D01*
X181996325Y-111537688D01*
X182028734Y-111498198D01*
X182052816Y-111453144D01*
X182081205Y-111410656D01*
X182100762Y-111363441D01*
X182124840Y-111318394D01*
X182139666Y-111269519D01*
X182159226Y-111222298D01*
X182169197Y-111172171D01*
X182184023Y-111123296D01*
X182189029Y-111072466D01*
X182199000Y-111022339D01*
X182199000Y-110971229D01*
X182204006Y-110920401D01*
X182199000Y-110869573D01*
X182199000Y-110818461D01*
X182189029Y-110768333D01*
X182184023Y-110717505D01*
X182169197Y-110668632D01*
X182159226Y-110618502D01*
X182147717Y-110590715D01*
X183500594Y-110590715D01*
X183505600Y-110641543D01*
X183505601Y-113331656D01*
X183505600Y-113331661D01*
X183505600Y-113535539D01*
X183515571Y-113585667D01*
X183520577Y-113636495D01*
X183535403Y-113685368D01*
X183545374Y-113735498D01*
X183564935Y-113782722D01*
X183579760Y-113831593D01*
X183603835Y-113876634D01*
X183623395Y-113923856D01*
X183651791Y-113966353D01*
X183675867Y-114011397D01*
X183708268Y-114050878D01*
X183736663Y-114093374D01*
X183772803Y-114129514D01*
X183805205Y-114168996D01*
X183844687Y-114201398D01*
X183880826Y-114237537D01*
X183923321Y-114265931D01*
X183962804Y-114298334D01*
X184007850Y-114322412D01*
X184050344Y-114350805D01*
X184097562Y-114370363D01*
X184142608Y-114394441D01*
X184191484Y-114409268D01*
X184238702Y-114428826D01*
X184288826Y-114438796D01*
X184337706Y-114453624D01*
X184388542Y-114458631D01*
X184438661Y-114468600D01*
X184489762Y-114468600D01*
X184540600Y-114473607D01*
X184591438Y-114468600D01*
X184642539Y-114468600D01*
X184692657Y-114458631D01*
X184743495Y-114453624D01*
X184792377Y-114438796D01*
X184842498Y-114428826D01*
X184889713Y-114409269D01*
X184938593Y-114394441D01*
X184983642Y-114370362D01*
X185030856Y-114350805D01*
X185073346Y-114322414D01*
X185118397Y-114298334D01*
X185157884Y-114265928D01*
X185200374Y-114237537D01*
X185236508Y-114201403D01*
X185275996Y-114168996D01*
X185308403Y-114129508D01*
X185344537Y-114093374D01*
X185372928Y-114050884D01*
X185405334Y-114011397D01*
X185429414Y-113966346D01*
X185457805Y-113923856D01*
X185477362Y-113876642D01*
X185501441Y-113831593D01*
X185516269Y-113782713D01*
X185535826Y-113735498D01*
X185545796Y-113685377D01*
X185560624Y-113636495D01*
X185565631Y-113585657D01*
X185575600Y-113535539D01*
X185575600Y-111019425D01*
X187765026Y-108830000D01*
X188003939Y-108830000D01*
X188054057Y-108820031D01*
X188104895Y-108815024D01*
X188153777Y-108800196D01*
X188203898Y-108790226D01*
X188251113Y-108770669D01*
X188299993Y-108755841D01*
X188345042Y-108731762D01*
X188392256Y-108712205D01*
X188434746Y-108683814D01*
X188479797Y-108659734D01*
X188519284Y-108627328D01*
X188561774Y-108598937D01*
X188597908Y-108562803D01*
X188637396Y-108530396D01*
X188669803Y-108490908D01*
X188705937Y-108454774D01*
X188734328Y-108412284D01*
X188766734Y-108372797D01*
X188790814Y-108327746D01*
X188819205Y-108285256D01*
X188838762Y-108238042D01*
X188862841Y-108192993D01*
X188877669Y-108144113D01*
X188897226Y-108096898D01*
X188907196Y-108046777D01*
X188922024Y-107997895D01*
X188927031Y-107947057D01*
X188937000Y-107896939D01*
X188937000Y-107845838D01*
X188942007Y-107795000D01*
X188937000Y-107744162D01*
X188937000Y-107693061D01*
X188927031Y-107642943D01*
X188922024Y-107592105D01*
X188907196Y-107543223D01*
X188897226Y-107493102D01*
X188877669Y-107445887D01*
X188862841Y-107397007D01*
X188838762Y-107351958D01*
X188819205Y-107304744D01*
X188790814Y-107262254D01*
X188766734Y-107217203D01*
X188734328Y-107177716D01*
X188705937Y-107135226D01*
X188669803Y-107099092D01*
X188637396Y-107059604D01*
X188597908Y-107027197D01*
X188561774Y-106991063D01*
X188519284Y-106962672D01*
X188479797Y-106930266D01*
X188434746Y-106906186D01*
X188392256Y-106877795D01*
X188345042Y-106858238D01*
X188299993Y-106834159D01*
X188251113Y-106819331D01*
X188203898Y-106799774D01*
X188153777Y-106789804D01*
X188104895Y-106774976D01*
X188054057Y-106769969D01*
X188003939Y-106760000D01*
X187387142Y-106760000D01*
X187336314Y-106754994D01*
X187285486Y-106760000D01*
X187285477Y-106760000D01*
X187133420Y-106774976D01*
X186938322Y-106834159D01*
X186906987Y-106850908D01*
X186758517Y-106930266D01*
X186678255Y-106996136D01*
X186600919Y-107059604D01*
X186568512Y-107099092D01*
X183844697Y-109822908D01*
X183805204Y-109855319D01*
X183675866Y-110012918D01*
X183579759Y-110192723D01*
X183520576Y-110387821D01*
X183505600Y-110539878D01*
X183505600Y-110539887D01*
X183500594Y-110590715D01*
X182147717Y-110590715D01*
X182139665Y-110571278D01*
X182124840Y-110522407D01*
X182100764Y-110477364D01*
X182081205Y-110430144D01*
X182052813Y-110387652D01*
X182028734Y-110342603D01*
X181996330Y-110303119D01*
X181967937Y-110260626D01*
X181931795Y-110224484D01*
X181899395Y-110185005D01*
X181859916Y-110152605D01*
X181823774Y-110116463D01*
X181781281Y-110088070D01*
X181741797Y-110055666D01*
X181696748Y-110031587D01*
X181654256Y-110003195D01*
X181607036Y-109983636D01*
X181561993Y-109959560D01*
X181513122Y-109944735D01*
X181465898Y-109925174D01*
X181415768Y-109915203D01*
X181366895Y-109900377D01*
X181316067Y-109895371D01*
X181265939Y-109885400D01*
X181214827Y-109885400D01*
X181163999Y-109880394D01*
X181113171Y-109885400D01*
X181062061Y-109885400D01*
X181011934Y-109895371D01*
X180961104Y-109900377D01*
X180912229Y-109915203D01*
X180862102Y-109925174D01*
X180814881Y-109944734D01*
X180766006Y-109959560D01*
X180720959Y-109983638D01*
X180673744Y-110003195D01*
X180631256Y-110031584D01*
X180586202Y-110055666D01*
X180546712Y-110088075D01*
X180504226Y-110116463D01*
X180468092Y-110152597D01*
X176222072Y-114398618D01*
X174897623Y-114398618D01*
X174911393Y-114394441D01*
X174956442Y-114370362D01*
X175003656Y-114350805D01*
X175046146Y-114322414D01*
X175091197Y-114298334D01*
X175130684Y-114265928D01*
X175173174Y-114237537D01*
X175209308Y-114201403D01*
X175248796Y-114168996D01*
X175281203Y-114129508D01*
X175317337Y-114093374D01*
X175345728Y-114050884D01*
X175378134Y-114011397D01*
X175402214Y-113966346D01*
X175430605Y-113923856D01*
X175450162Y-113876642D01*
X175474241Y-113831593D01*
X175489069Y-113782713D01*
X175508626Y-113735498D01*
X175518596Y-113685377D01*
X175533424Y-113636495D01*
X175538431Y-113585657D01*
X175548400Y-113535539D01*
X175548400Y-110796625D01*
X177515026Y-108830000D01*
X177753939Y-108830000D01*
X177804057Y-108820031D01*
X177854895Y-108815024D01*
X177903777Y-108800196D01*
X177953898Y-108790226D01*
X178001113Y-108770669D01*
X178049993Y-108755841D01*
X178095042Y-108731762D01*
X178142256Y-108712205D01*
X178184746Y-108683814D01*
X178229797Y-108659734D01*
X178269284Y-108627328D01*
X178311774Y-108598937D01*
X178347908Y-108562803D01*
X178387396Y-108530396D01*
X178419803Y-108490908D01*
X178455937Y-108454774D01*
X178484328Y-108412284D01*
X178516734Y-108372797D01*
X178540814Y-108327746D01*
X178569205Y-108285256D01*
X178588762Y-108238042D01*
X178612841Y-108192993D01*
X178627669Y-108144113D01*
X178647226Y-108096898D01*
X178657196Y-108046777D01*
X178672024Y-107997895D01*
X178677031Y-107947057D01*
X178687000Y-107896939D01*
X178687000Y-107845838D01*
X178692007Y-107795000D01*
X178687000Y-107744162D01*
X178687000Y-107693061D01*
X178677031Y-107642943D01*
X178672024Y-107592105D01*
X178657196Y-107543223D01*
X178647226Y-107493102D01*
X178627669Y-107445887D01*
X178612841Y-107397007D01*
X178588762Y-107351958D01*
X178569205Y-107304744D01*
X178540814Y-107262254D01*
X178516734Y-107217203D01*
X178484328Y-107177716D01*
X178455937Y-107135226D01*
X178419803Y-107099092D01*
X178387396Y-107059604D01*
X178347908Y-107027197D01*
X178311774Y-106991063D01*
X178269284Y-106962672D01*
X178229797Y-106930266D01*
X178184746Y-106906186D01*
X178142256Y-106877795D01*
X178095042Y-106858238D01*
X178049993Y-106834159D01*
X178001113Y-106819331D01*
X177953898Y-106799774D01*
X177903777Y-106789804D01*
X177854895Y-106774976D01*
X177804057Y-106769969D01*
X177753939Y-106760000D01*
X177137142Y-106760000D01*
X177086314Y-106754994D01*
X177035486Y-106760000D01*
X177035477Y-106760000D01*
X176883420Y-106774976D01*
X176688322Y-106834159D01*
X176656987Y-106850908D01*
X176508517Y-106930266D01*
X176428255Y-106996136D01*
X176350919Y-107059604D01*
X176318512Y-107099092D01*
X173817497Y-109600108D01*
X173778004Y-109632519D01*
X173648666Y-109790118D01*
X173552559Y-109969923D01*
X173493376Y-110165021D01*
X173478400Y-110317078D01*
X173478400Y-110317087D01*
X173473394Y-110367915D01*
X173478400Y-110418743D01*
X173478401Y-113331656D01*
X173478400Y-113331661D01*
X173478400Y-113535539D01*
X173488371Y-113585667D01*
X173493377Y-113636495D01*
X173508203Y-113685368D01*
X173518174Y-113735498D01*
X173537735Y-113782722D01*
X173552560Y-113831593D01*
X173576635Y-113876634D01*
X173596195Y-113923856D01*
X173624591Y-113966353D01*
X173648667Y-114011397D01*
X173681068Y-114050878D01*
X173709463Y-114093374D01*
X173745603Y-114129514D01*
X173778005Y-114168996D01*
X173817487Y-114201398D01*
X173853626Y-114237537D01*
X173896121Y-114265931D01*
X173935604Y-114298334D01*
X173980650Y-114322412D01*
X174023144Y-114350805D01*
X174070362Y-114370363D01*
X174115408Y-114394441D01*
X174129178Y-114398618D01*
X168976792Y-114398618D01*
X171759103Y-111616308D01*
X171795237Y-111580174D01*
X171823625Y-111537688D01*
X171856034Y-111498198D01*
X171880116Y-111453144D01*
X171908505Y-111410656D01*
X171928062Y-111363441D01*
X171952140Y-111318394D01*
X171966966Y-111269519D01*
X171986526Y-111222298D01*
X171996497Y-111172171D01*
X172011323Y-111123296D01*
X172016329Y-111072466D01*
X172026300Y-111022339D01*
X172026300Y-110971229D01*
X172031306Y-110920401D01*
X172026300Y-110869573D01*
X172026300Y-110818461D01*
X172016329Y-110768332D01*
X172011323Y-110717506D01*
X171996498Y-110668634D01*
X171986526Y-110618502D01*
X171966965Y-110571277D01*
X171952140Y-110522407D01*
X171928064Y-110477364D01*
X171908505Y-110430144D01*
X171880113Y-110387652D01*
X171856034Y-110342603D01*
X171823630Y-110303119D01*
X171795237Y-110260626D01*
X171759095Y-110224484D01*
X171726695Y-110185005D01*
X171687216Y-110152605D01*
X171651074Y-110116463D01*
X171608581Y-110088070D01*
X171569097Y-110055666D01*
X171524048Y-110031587D01*
X171481556Y-110003195D01*
X171434336Y-109983636D01*
X171389293Y-109959560D01*
X171340423Y-109944735D01*
X171293198Y-109925174D01*
X171243066Y-109915202D01*
X171194194Y-109900377D01*
X171143368Y-109895371D01*
X171093239Y-109885400D01*
X171042127Y-109885400D01*
X170991299Y-109880394D01*
X170940471Y-109885400D01*
X170889361Y-109885400D01*
X170839234Y-109895371D01*
X170788404Y-109900377D01*
X170739529Y-109915203D01*
X170689402Y-109925174D01*
X170642181Y-109944734D01*
X170593306Y-109959560D01*
X170548259Y-109983638D01*
X170501044Y-110003195D01*
X170458556Y-110031584D01*
X170413502Y-110055666D01*
X170374012Y-110088075D01*
X170331526Y-110116463D01*
X170295392Y-110152597D01*
X167049382Y-113398608D01*
X165298400Y-113398608D01*
X165298400Y-111362310D01*
X168169803Y-108490908D01*
X168205937Y-108454774D01*
X168234325Y-108412288D01*
X168266734Y-108372798D01*
X168290816Y-108327744D01*
X168319205Y-108285256D01*
X168338762Y-108238041D01*
X168362840Y-108192994D01*
X168377666Y-108144120D01*
X168397226Y-108096898D01*
X168407197Y-108046768D01*
X168422023Y-107997895D01*
X168427030Y-107947064D01*
X168437000Y-107896939D01*
X168437000Y-107845835D01*
X168442007Y-107795000D01*
X168437000Y-107744165D01*
X168437000Y-107693061D01*
X168427030Y-107642936D01*
X168422023Y-107592105D01*
X168407197Y-107543232D01*
X168397226Y-107493102D01*
X168377665Y-107445878D01*
X168362840Y-107397007D01*
X168338764Y-107351964D01*
X168319205Y-107304744D01*
X168290813Y-107262252D01*
X168266734Y-107217203D01*
X168234328Y-107177716D01*
X168205937Y-107135226D01*
X168169803Y-107099092D01*
X168137396Y-107059604D01*
X168097908Y-107027197D01*
X168061774Y-106991063D01*
X168019284Y-106962672D01*
X167979797Y-106930266D01*
X167934748Y-106906187D01*
X167892256Y-106877795D01*
X167845036Y-106858236D01*
X167799993Y-106834160D01*
X167751122Y-106819335D01*
X167703898Y-106799774D01*
X167653768Y-106789803D01*
X167604895Y-106774977D01*
X167554064Y-106769970D01*
X167503939Y-106760000D01*
X167452835Y-106760000D01*
X167402000Y-106754993D01*
X167351165Y-106760000D01*
X167300061Y-106760000D01*
X167249936Y-106769970D01*
X167199105Y-106774977D01*
X167150232Y-106789803D01*
X167100102Y-106799774D01*
X167052880Y-106819334D01*
X167004006Y-106834160D01*
X166958959Y-106858238D01*
X166911744Y-106877795D01*
X166869256Y-106906184D01*
X166824202Y-106930266D01*
X166784712Y-106962675D01*
X166742226Y-106991063D01*
X166706092Y-107027197D01*
X163567497Y-110165793D01*
X163528004Y-110198204D01*
X163398666Y-110355803D01*
X163302559Y-110535608D01*
X163243376Y-110730706D01*
X163228400Y-110882763D01*
X163228400Y-110882772D01*
X163223394Y-110933600D01*
X163228400Y-110984428D01*
X163228401Y-113331656D01*
X163228400Y-113331661D01*
X163228400Y-113398608D01*
X156260853Y-113398608D01*
X156210735Y-113408577D01*
X156159897Y-113413584D01*
X156111015Y-113428412D01*
X156060894Y-113438382D01*
X156013679Y-113457939D01*
X155964799Y-113472767D01*
X155919750Y-113496846D01*
X155872536Y-113516403D01*
X155830046Y-113544794D01*
X155784995Y-113568874D01*
X155745508Y-113601280D01*
X155703018Y-113629671D01*
X155666884Y-113665805D01*
X155627396Y-113698212D01*
X155594989Y-113737700D01*
X155558855Y-113773834D01*
X155535670Y-113808533D01*
X154441552Y-112714416D01*
X154441550Y-112714413D01*
X154297387Y-112570250D01*
X154254896Y-112541858D01*
X154215410Y-112509453D01*
X154170361Y-112485374D01*
X154127869Y-112456982D01*
X154080649Y-112437423D01*
X154035606Y-112413347D01*
X153986735Y-112398522D01*
X153939511Y-112378961D01*
X153889381Y-112368990D01*
X153840508Y-112354164D01*
X153789680Y-112349158D01*
X153739552Y-112339187D01*
X153688441Y-112339187D01*
X153637613Y-112334181D01*
X153586785Y-112339187D01*
X153535674Y-112339187D01*
X153485546Y-112349158D01*
X153434718Y-112354164D01*
X153385845Y-112368990D01*
X153335715Y-112378961D01*
X153288491Y-112398522D01*
X153239620Y-112413347D01*
X153194577Y-112437423D01*
X153147357Y-112456982D01*
X153104865Y-112485374D01*
X153059816Y-112509453D01*
X153020329Y-112541859D01*
X152977839Y-112570250D01*
X152941705Y-112606384D01*
X152929396Y-112616486D01*
X152279610Y-111966700D01*
X156189499Y-111966700D01*
X156332662Y-111980800D01*
X156332672Y-111980800D01*
X156383500Y-111985806D01*
X156434328Y-111980800D01*
X161057439Y-111980800D01*
X161107557Y-111970831D01*
X161158395Y-111965824D01*
X161207277Y-111950996D01*
X161257398Y-111941026D01*
X161304613Y-111921469D01*
X161353493Y-111906641D01*
X161398542Y-111882562D01*
X161445756Y-111863005D01*
X161488246Y-111834614D01*
X161533297Y-111810534D01*
X161572784Y-111778128D01*
X161615274Y-111749737D01*
X161651408Y-111713603D01*
X161690896Y-111681196D01*
X161723303Y-111641708D01*
X161759437Y-111605574D01*
X161787828Y-111563084D01*
X161820234Y-111523597D01*
X161844314Y-111478546D01*
X161872705Y-111436056D01*
X161892262Y-111388842D01*
X161916341Y-111343793D01*
X161931169Y-111294913D01*
X161950726Y-111247698D01*
X161960696Y-111197577D01*
X161975524Y-111148695D01*
X161980531Y-111097857D01*
X161990500Y-111047739D01*
X161990500Y-110996638D01*
X161995507Y-110945800D01*
X161990500Y-110894962D01*
X161990500Y-110843861D01*
X161980531Y-110793743D01*
X161975524Y-110742905D01*
X161960696Y-110694023D01*
X161950726Y-110643902D01*
X161931169Y-110596687D01*
X161916341Y-110547807D01*
X161892262Y-110502758D01*
X161872705Y-110455544D01*
X161844314Y-110413054D01*
X161820234Y-110368003D01*
X161787828Y-110328516D01*
X161759437Y-110286026D01*
X161723303Y-110249892D01*
X161690896Y-110210404D01*
X161651408Y-110177997D01*
X161615274Y-110141863D01*
X161572784Y-110113472D01*
X161533297Y-110081066D01*
X161488246Y-110056986D01*
X161445756Y-110028595D01*
X161398542Y-110009038D01*
X161353493Y-109984959D01*
X161304613Y-109970131D01*
X161257398Y-109950574D01*
X161207277Y-109940604D01*
X161158395Y-109925776D01*
X161107557Y-109920769D01*
X161057439Y-109910800D01*
X156591601Y-109910800D01*
X156448438Y-109896700D01*
X156448427Y-109896700D01*
X156397599Y-109891694D01*
X156346771Y-109896700D01*
X152972589Y-109896700D01*
X152977812Y-109879482D01*
X152990072Y-109755000D01*
X152990072Y-108055000D01*
X152977812Y-107930518D01*
X152941502Y-107810820D01*
X152882537Y-107700506D01*
X152803185Y-107603815D01*
X152706494Y-107524463D01*
X152596180Y-107465498D01*
X152476482Y-107429188D01*
X152352000Y-107416928D01*
X150652000Y-107416928D01*
X150527518Y-107429188D01*
X150407820Y-107465498D01*
X150297506Y-107524463D01*
X150232000Y-107578222D01*
X150166494Y-107524463D01*
X150056180Y-107465498D01*
X149936482Y-107429188D01*
X149812000Y-107416928D01*
X149247750Y-107420000D01*
X149089000Y-107578750D01*
X149089000Y-108778000D01*
X149109000Y-108778000D01*
X149109000Y-109032000D01*
X149089000Y-109032000D01*
X149089000Y-109052000D01*
X148835000Y-109052000D01*
X148835000Y-109032000D01*
X147635750Y-109032000D01*
X147477000Y-109190750D01*
X147473928Y-109755000D01*
X147486188Y-109879482D01*
X147491411Y-109896700D01*
X132729784Y-109896700D01*
X134571484Y-108055000D01*
X147473928Y-108055000D01*
X147477000Y-108619250D01*
X147635750Y-108778000D01*
X148835000Y-108778000D01*
X148835000Y-107578750D01*
X148676250Y-107420000D01*
X148112000Y-107416928D01*
X147987518Y-107429188D01*
X147867820Y-107465498D01*
X147757506Y-107524463D01*
X147660815Y-107603815D01*
X147581463Y-107700506D01*
X147522498Y-107810820D01*
X147486188Y-107930518D01*
X147473928Y-108055000D01*
X134571484Y-108055000D01*
X136303945Y-106322539D01*
X136306938Y-106352933D01*
X136321766Y-106401815D01*
X136331736Y-106451936D01*
X136351293Y-106499151D01*
X136366121Y-106548031D01*
X136390200Y-106593080D01*
X136409757Y-106640294D01*
X136438148Y-106682784D01*
X136462228Y-106727835D01*
X136494634Y-106767322D01*
X136523025Y-106809812D01*
X136559159Y-106845946D01*
X136591566Y-106885434D01*
X136631054Y-106917841D01*
X136667188Y-106953975D01*
X136709678Y-106982366D01*
X136749165Y-107014772D01*
X136794216Y-107038852D01*
X136836706Y-107067243D01*
X136883920Y-107086800D01*
X136928969Y-107110879D01*
X136977849Y-107125707D01*
X137025064Y-107145264D01*
X137075185Y-107155234D01*
X137124067Y-107170062D01*
X137174905Y-107175069D01*
X137225023Y-107185038D01*
X147486134Y-107185038D01*
X147536962Y-107190044D01*
X147587790Y-107185038D01*
X147587800Y-107185038D01*
X147739857Y-107170062D01*
X147934955Y-107110879D01*
X148114759Y-107014772D01*
X148272358Y-106885434D01*
X148304769Y-106845941D01*
X148498673Y-106652037D01*
X153849838Y-101300872D01*
X198231600Y-101300872D01*
X198231600Y-101741128D01*
X198317490Y-102172925D01*
X198485969Y-102579669D01*
X198730562Y-102945729D01*
X199041871Y-103257038D01*
X199407931Y-103501631D01*
X199814675Y-103670110D01*
X200246472Y-103756000D01*
X200686728Y-103756000D01*
X201118525Y-103670110D01*
X201525269Y-103501631D01*
X201891329Y-103257038D01*
X202202638Y-102945729D01*
X202447231Y-102579669D01*
X202615710Y-102172925D01*
X202701600Y-101741128D01*
X202701600Y-101300872D01*
X202615710Y-100869075D01*
X202447231Y-100462331D01*
X202202638Y-100096271D01*
X201891329Y-99784962D01*
X201525269Y-99540369D01*
X201118525Y-99371890D01*
X200686728Y-99286000D01*
X200246472Y-99286000D01*
X199814675Y-99371890D01*
X199407931Y-99540369D01*
X199041871Y-99784962D01*
X198730562Y-100096271D01*
X198485969Y-100462331D01*
X198317490Y-100869075D01*
X198231600Y-101300872D01*
X153849838Y-101300872D01*
X156534708Y-98616003D01*
X156574196Y-98583596D01*
X156606603Y-98544108D01*
X156703534Y-98425998D01*
X156799641Y-98246194D01*
X156826881Y-98156395D01*
X156858824Y-98051095D01*
X156873800Y-97899038D01*
X156873800Y-97899035D01*
X156878807Y-97848200D01*
X156873800Y-97797365D01*
X156873800Y-96664600D01*
X157793172Y-96664600D01*
X157844000Y-96669606D01*
X157894828Y-96664600D01*
X157894838Y-96664600D01*
X158046895Y-96649624D01*
X158241993Y-96590441D01*
X158421797Y-96494334D01*
X158579396Y-96364996D01*
X158611807Y-96325503D01*
X160103408Y-94833903D01*
X160142896Y-94801496D01*
X160180364Y-94755841D01*
X160272234Y-94643898D01*
X160368340Y-94464094D01*
X160368341Y-94464093D01*
X160427524Y-94268995D01*
X160442500Y-94116938D01*
X160442500Y-94116936D01*
X160447507Y-94066100D01*
X160442500Y-94015265D01*
X160442500Y-90926110D01*
X160473671Y-90894939D01*
X160473674Y-90894937D01*
X160521013Y-90847598D01*
X162055500Y-92382085D01*
X162055500Y-92732939D01*
X162065469Y-92783058D01*
X162070476Y-92833894D01*
X162085304Y-92882774D01*
X162095274Y-92932898D01*
X162114832Y-92980116D01*
X162129659Y-93028992D01*
X162153737Y-93074039D01*
X162173295Y-93121256D01*
X162201686Y-93163747D01*
X162225766Y-93208797D01*
X162258172Y-93248284D01*
X162286563Y-93290774D01*
X162322697Y-93326908D01*
X162355104Y-93366396D01*
X162394592Y-93398803D01*
X162430726Y-93434937D01*
X162473216Y-93463328D01*
X162512703Y-93495734D01*
X162557754Y-93519814D01*
X162600244Y-93548205D01*
X162647458Y-93567762D01*
X162692507Y-93591841D01*
X162741387Y-93606669D01*
X162788602Y-93626226D01*
X162838723Y-93636196D01*
X162887605Y-93651024D01*
X162938443Y-93656031D01*
X162988561Y-93666000D01*
X163039662Y-93666000D01*
X163090500Y-93671007D01*
X163141338Y-93666000D01*
X163192439Y-93666000D01*
X163242558Y-93656031D01*
X163293394Y-93651024D01*
X163342274Y-93636196D01*
X163392398Y-93626226D01*
X163439616Y-93606668D01*
X163488492Y-93591841D01*
X163533539Y-93567763D01*
X163580756Y-93548205D01*
X163623247Y-93519814D01*
X163668297Y-93495734D01*
X163707784Y-93463328D01*
X163750274Y-93434937D01*
X163786408Y-93398803D01*
X163825896Y-93366396D01*
X163858303Y-93326908D01*
X163894437Y-93290774D01*
X163922828Y-93248284D01*
X163955234Y-93208797D01*
X163979314Y-93163746D01*
X164007705Y-93121256D01*
X164027262Y-93074042D01*
X164051341Y-93028993D01*
X164066169Y-92980113D01*
X164085726Y-92932898D01*
X164095696Y-92882777D01*
X164110524Y-92833895D01*
X164115531Y-92783057D01*
X164125500Y-92732939D01*
X164125500Y-92004201D01*
X164130506Y-91953373D01*
X164125500Y-91902545D01*
X164125500Y-91902537D01*
X164110524Y-91750480D01*
X164051341Y-91555381D01*
X163999418Y-91458240D01*
X163955234Y-91375576D01*
X163858303Y-91257466D01*
X163825896Y-91217978D01*
X163786408Y-91185571D01*
X161723526Y-89122690D01*
X169148965Y-89122690D01*
X169264108Y-89237833D01*
X169238716Y-89258672D01*
X169196226Y-89287063D01*
X169160092Y-89323197D01*
X169120604Y-89355604D01*
X169088197Y-89395092D01*
X169052063Y-89431226D01*
X169023672Y-89473716D01*
X168991266Y-89513203D01*
X168967186Y-89558253D01*
X168938795Y-89600744D01*
X168919237Y-89647961D01*
X168895159Y-89693008D01*
X168880332Y-89741884D01*
X168860774Y-89789102D01*
X168850804Y-89839226D01*
X168835976Y-89888106D01*
X168830969Y-89938942D01*
X168821000Y-89989061D01*
X168821000Y-90040163D01*
X168821001Y-93162288D01*
X167388690Y-94594600D01*
X166884661Y-94594600D01*
X166834543Y-94604569D01*
X166783705Y-94609576D01*
X166734823Y-94624404D01*
X166684702Y-94634374D01*
X166637487Y-94653931D01*
X166588607Y-94668759D01*
X166543558Y-94692838D01*
X166496344Y-94712395D01*
X166453854Y-94740786D01*
X166408803Y-94764866D01*
X166369316Y-94797272D01*
X166326826Y-94825663D01*
X166290692Y-94861797D01*
X166251204Y-94894204D01*
X166218797Y-94933692D01*
X166182663Y-94969826D01*
X166154272Y-95012316D01*
X166121866Y-95051803D01*
X166097786Y-95096854D01*
X166069395Y-95139344D01*
X166049838Y-95186558D01*
X166025759Y-95231607D01*
X166010931Y-95280487D01*
X165991374Y-95327702D01*
X165981404Y-95377823D01*
X165966576Y-95426705D01*
X165961569Y-95477543D01*
X165951600Y-95527661D01*
X165951600Y-95578762D01*
X165946593Y-95629600D01*
X165951600Y-95680438D01*
X165951600Y-95731539D01*
X165961569Y-95781657D01*
X165966576Y-95832495D01*
X165981404Y-95881377D01*
X165991374Y-95931498D01*
X166010931Y-95978713D01*
X166025759Y-96027593D01*
X166049838Y-96072642D01*
X166069395Y-96119856D01*
X166097786Y-96162346D01*
X166121866Y-96207397D01*
X166154272Y-96246884D01*
X166182663Y-96289374D01*
X166218797Y-96325508D01*
X166251204Y-96364996D01*
X166290692Y-96397403D01*
X166326826Y-96433537D01*
X166369316Y-96461928D01*
X166408803Y-96494334D01*
X166453854Y-96518414D01*
X166496344Y-96546805D01*
X166543558Y-96566362D01*
X166588607Y-96590441D01*
X166637487Y-96605269D01*
X166684702Y-96624826D01*
X166734823Y-96634796D01*
X166783705Y-96649624D01*
X166834543Y-96654631D01*
X166884661Y-96664600D01*
X167766572Y-96664600D01*
X167817400Y-96669606D01*
X167868228Y-96664600D01*
X167868238Y-96664600D01*
X168020295Y-96649624D01*
X168215393Y-96590441D01*
X168395197Y-96494334D01*
X168552796Y-96364996D01*
X168585207Y-96325503D01*
X170551908Y-94358803D01*
X170591396Y-94326396D01*
X170635740Y-94272363D01*
X170720734Y-94168798D01*
X170775627Y-94066100D01*
X170816841Y-93988993D01*
X170876024Y-93793895D01*
X170891000Y-93641838D01*
X170891000Y-93641835D01*
X170896007Y-93591000D01*
X170891000Y-93540165D01*
X170891000Y-90864726D01*
X172545700Y-92519426D01*
X172545700Y-92758339D01*
X172555669Y-92808458D01*
X172560676Y-92859294D01*
X172575504Y-92908174D01*
X172585474Y-92958298D01*
X172605032Y-93005516D01*
X172619859Y-93054392D01*
X172643937Y-93099439D01*
X172663495Y-93146656D01*
X172691886Y-93189147D01*
X172715966Y-93234197D01*
X172748372Y-93273684D01*
X172776763Y-93316174D01*
X172812897Y-93352308D01*
X172845304Y-93391796D01*
X172884792Y-93424203D01*
X172920926Y-93460337D01*
X172963416Y-93488728D01*
X173002903Y-93521134D01*
X173047954Y-93545214D01*
X173090444Y-93573605D01*
X173137658Y-93593162D01*
X173182707Y-93617241D01*
X173231587Y-93632069D01*
X173278802Y-93651626D01*
X173328923Y-93661596D01*
X173377805Y-93676424D01*
X173428643Y-93681431D01*
X173478761Y-93691400D01*
X173529862Y-93691400D01*
X173580700Y-93696407D01*
X173631538Y-93691400D01*
X173682639Y-93691400D01*
X173732758Y-93681431D01*
X173783594Y-93676424D01*
X173832474Y-93661596D01*
X173882598Y-93651626D01*
X173929816Y-93632068D01*
X173978692Y-93617241D01*
X174023739Y-93593163D01*
X174070956Y-93573605D01*
X174113447Y-93545214D01*
X174158497Y-93521134D01*
X174197984Y-93488728D01*
X174240474Y-93460337D01*
X174276608Y-93424203D01*
X174316096Y-93391796D01*
X174348503Y-93352308D01*
X174384637Y-93316174D01*
X174413028Y-93273684D01*
X174445434Y-93234197D01*
X174469514Y-93189146D01*
X174497905Y-93146656D01*
X174517462Y-93099442D01*
X174541541Y-93054393D01*
X174556369Y-93005513D01*
X174575926Y-92958298D01*
X174585896Y-92908177D01*
X174600724Y-92859295D01*
X174605731Y-92808457D01*
X174615700Y-92758339D01*
X174615700Y-92141542D01*
X174620706Y-92090714D01*
X174615700Y-92039886D01*
X174615700Y-92039878D01*
X174600724Y-91887821D01*
X174541541Y-91692723D01*
X174524678Y-91661174D01*
X174445434Y-91512917D01*
X174348503Y-91394807D01*
X174316096Y-91355319D01*
X174276608Y-91322912D01*
X171076375Y-88122680D01*
X178515970Y-88122680D01*
X179591858Y-89198568D01*
X179590344Y-89199195D01*
X179420826Y-89312463D01*
X179276663Y-89456626D01*
X179276661Y-89456629D01*
X178956093Y-89777197D01*
X178916605Y-89809604D01*
X178884198Y-89849092D01*
X178884197Y-89849093D01*
X178787266Y-89967203D01*
X178691160Y-90147007D01*
X178631977Y-90342105D01*
X178611994Y-90545000D01*
X178617001Y-90595838D01*
X178617000Y-93366289D01*
X177414090Y-94569200D01*
X176740861Y-94569200D01*
X176690743Y-94579169D01*
X176639905Y-94584176D01*
X176591023Y-94599004D01*
X176540902Y-94608974D01*
X176493687Y-94628531D01*
X176444807Y-94643359D01*
X176399758Y-94667438D01*
X176352544Y-94686995D01*
X176310054Y-94715386D01*
X176265003Y-94739466D01*
X176225516Y-94771872D01*
X176183026Y-94800263D01*
X176146892Y-94836397D01*
X176107404Y-94868804D01*
X176074997Y-94908292D01*
X176038863Y-94944426D01*
X176010472Y-94986916D01*
X175978066Y-95026403D01*
X175953986Y-95071454D01*
X175925595Y-95113944D01*
X175906038Y-95161158D01*
X175881959Y-95206207D01*
X175867131Y-95255087D01*
X175847574Y-95302302D01*
X175837604Y-95352423D01*
X175822776Y-95401305D01*
X175817769Y-95452143D01*
X175807800Y-95502261D01*
X175807800Y-95553362D01*
X175802793Y-95604200D01*
X175807800Y-95655038D01*
X175807800Y-95706139D01*
X175817769Y-95756257D01*
X175822776Y-95807095D01*
X175837604Y-95855977D01*
X175847574Y-95906098D01*
X175867131Y-95953313D01*
X175881959Y-96002193D01*
X175906038Y-96047242D01*
X175925595Y-96094456D01*
X175953986Y-96136946D01*
X175978066Y-96181997D01*
X176010472Y-96221484D01*
X176038863Y-96263974D01*
X176074997Y-96300108D01*
X176107404Y-96339596D01*
X176146892Y-96372003D01*
X176183026Y-96408137D01*
X176225516Y-96436528D01*
X176265003Y-96468934D01*
X176310054Y-96493014D01*
X176352544Y-96521405D01*
X176399758Y-96540962D01*
X176444807Y-96565041D01*
X176493687Y-96579869D01*
X176540902Y-96599426D01*
X176591023Y-96609396D01*
X176639905Y-96624224D01*
X176690743Y-96629231D01*
X176740861Y-96639200D01*
X177791972Y-96639200D01*
X177842800Y-96644206D01*
X177893628Y-96639200D01*
X177893638Y-96639200D01*
X178045695Y-96624224D01*
X178240793Y-96565041D01*
X178420597Y-96468934D01*
X178578196Y-96339596D01*
X178610607Y-96300103D01*
X180347908Y-94562803D01*
X180387396Y-94530396D01*
X180441809Y-94464094D01*
X180516734Y-94372798D01*
X180602501Y-94212337D01*
X180612841Y-94192993D01*
X180672024Y-93997895D01*
X180687000Y-93845838D01*
X180687000Y-93845829D01*
X180692006Y-93795001D01*
X180687000Y-93744173D01*
X180687000Y-90973710D01*
X180740371Y-90920339D01*
X180740374Y-90920337D01*
X180884537Y-90776174D01*
X180997805Y-90606656D01*
X180998432Y-90605143D01*
X182517000Y-92123711D01*
X182517001Y-92493057D01*
X182517000Y-92493061D01*
X182517000Y-92696939D01*
X182526971Y-92747067D01*
X182531977Y-92797895D01*
X182546803Y-92846768D01*
X182556774Y-92896898D01*
X182576335Y-92944122D01*
X182591160Y-92992993D01*
X182615235Y-93038034D01*
X182634795Y-93085256D01*
X182663191Y-93127753D01*
X182687267Y-93172797D01*
X182719668Y-93212278D01*
X182748063Y-93254774D01*
X182784203Y-93290914D01*
X182816605Y-93330396D01*
X182856087Y-93362798D01*
X182892226Y-93398937D01*
X182934721Y-93427331D01*
X182974204Y-93459734D01*
X183019250Y-93483812D01*
X183061744Y-93512205D01*
X183108962Y-93531763D01*
X183154008Y-93555841D01*
X183202884Y-93570668D01*
X183250102Y-93590226D01*
X183300226Y-93600196D01*
X183349106Y-93615024D01*
X183399942Y-93620031D01*
X183450061Y-93630000D01*
X183501162Y-93630000D01*
X183552000Y-93635007D01*
X183602838Y-93630000D01*
X183653939Y-93630000D01*
X183704057Y-93620031D01*
X183754895Y-93615024D01*
X183803777Y-93600196D01*
X183853898Y-93590226D01*
X183901113Y-93570669D01*
X183949993Y-93555841D01*
X183995042Y-93531762D01*
X184042256Y-93512205D01*
X184084746Y-93483814D01*
X184129797Y-93459734D01*
X184169284Y-93427328D01*
X184211774Y-93398937D01*
X184247908Y-93362803D01*
X184287396Y-93330396D01*
X184319803Y-93290908D01*
X184355937Y-93254774D01*
X184384328Y-93212284D01*
X184416734Y-93172797D01*
X184440814Y-93127746D01*
X184469205Y-93085256D01*
X184488762Y-93038042D01*
X184512841Y-92992993D01*
X184527669Y-92944113D01*
X184547226Y-92896898D01*
X184557196Y-92846777D01*
X184572024Y-92797895D01*
X184577031Y-92747057D01*
X184587000Y-92696939D01*
X184587000Y-91745827D01*
X184592006Y-91694999D01*
X184587000Y-91644171D01*
X184587000Y-91644162D01*
X184572024Y-91492105D01*
X184512841Y-91297007D01*
X184435013Y-91151400D01*
X184416734Y-91117202D01*
X184319803Y-90999092D01*
X184287396Y-90959604D01*
X184247908Y-90927197D01*
X180443380Y-87122670D01*
X187380045Y-87122670D01*
X189592750Y-89335375D01*
X189589026Y-89337863D01*
X189444863Y-89482026D01*
X189444861Y-89482029D01*
X189206093Y-89720797D01*
X189166605Y-89753204D01*
X189134198Y-89792692D01*
X189134197Y-89792693D01*
X189037266Y-89910803D01*
X188941160Y-90090607D01*
X188881977Y-90285705D01*
X188861994Y-90488600D01*
X188867001Y-90539438D01*
X188867000Y-93366289D01*
X187689490Y-94543800D01*
X187016261Y-94543800D01*
X186966143Y-94553769D01*
X186915305Y-94558776D01*
X186866423Y-94573604D01*
X186816302Y-94583574D01*
X186769087Y-94603131D01*
X186720207Y-94617959D01*
X186675158Y-94642038D01*
X186627944Y-94661595D01*
X186585454Y-94689986D01*
X186540403Y-94714066D01*
X186500916Y-94746472D01*
X186458426Y-94774863D01*
X186422292Y-94810997D01*
X186382804Y-94843404D01*
X186350397Y-94882892D01*
X186314263Y-94919026D01*
X186285872Y-94961516D01*
X186253466Y-95001003D01*
X186229386Y-95046054D01*
X186200995Y-95088544D01*
X186181438Y-95135758D01*
X186157359Y-95180807D01*
X186142531Y-95229687D01*
X186122974Y-95276902D01*
X186113004Y-95327023D01*
X186098176Y-95375905D01*
X186093169Y-95426743D01*
X186083200Y-95476861D01*
X186083200Y-95527962D01*
X186078193Y-95578800D01*
X186083200Y-95629638D01*
X186083200Y-95680739D01*
X186093169Y-95730857D01*
X186098176Y-95781695D01*
X186113004Y-95830577D01*
X186122974Y-95880698D01*
X186142531Y-95927913D01*
X186157359Y-95976793D01*
X186181438Y-96021842D01*
X186200995Y-96069056D01*
X186229386Y-96111546D01*
X186253466Y-96156597D01*
X186285872Y-96196084D01*
X186314263Y-96238574D01*
X186350397Y-96274708D01*
X186382804Y-96314196D01*
X186422292Y-96346603D01*
X186458426Y-96382737D01*
X186500916Y-96411128D01*
X186540403Y-96443534D01*
X186585454Y-96467614D01*
X186627944Y-96496005D01*
X186675158Y-96515562D01*
X186720207Y-96539641D01*
X186769087Y-96554469D01*
X186816302Y-96574026D01*
X186866423Y-96583996D01*
X186915305Y-96598824D01*
X186966143Y-96603831D01*
X187016261Y-96613800D01*
X188067372Y-96613800D01*
X188118200Y-96618806D01*
X188169028Y-96613800D01*
X188169038Y-96613800D01*
X188321095Y-96598824D01*
X188516193Y-96539641D01*
X188695997Y-96443534D01*
X188853596Y-96314196D01*
X188886007Y-96274703D01*
X190597908Y-94562803D01*
X190637396Y-94530396D01*
X190691809Y-94464094D01*
X190766734Y-94372798D01*
X190852501Y-94212337D01*
X190862841Y-94192993D01*
X190922024Y-93997895D01*
X190937000Y-93845838D01*
X190937000Y-93845829D01*
X190942006Y-93795001D01*
X190937000Y-93744173D01*
X190937000Y-90917311D01*
X191052737Y-90801574D01*
X191055225Y-90797851D01*
X192699200Y-92441826D01*
X192699200Y-92680739D01*
X192709169Y-92730858D01*
X192714176Y-92781694D01*
X192729004Y-92830574D01*
X192738974Y-92880698D01*
X192758532Y-92927916D01*
X192773359Y-92976792D01*
X192797437Y-93021839D01*
X192816995Y-93069056D01*
X192845386Y-93111547D01*
X192869466Y-93156597D01*
X192901872Y-93196084D01*
X192930263Y-93238574D01*
X192966397Y-93274708D01*
X192998804Y-93314196D01*
X193038292Y-93346603D01*
X193074426Y-93382737D01*
X193116916Y-93411128D01*
X193156403Y-93443534D01*
X193201454Y-93467614D01*
X193243944Y-93496005D01*
X193291158Y-93515562D01*
X193336207Y-93539641D01*
X193385087Y-93554469D01*
X193432302Y-93574026D01*
X193482423Y-93583996D01*
X193531305Y-93598824D01*
X193582143Y-93603831D01*
X193632261Y-93613800D01*
X193683362Y-93613800D01*
X193734200Y-93618807D01*
X193785038Y-93613800D01*
X193836139Y-93613800D01*
X193886258Y-93603831D01*
X193937094Y-93598824D01*
X193985974Y-93583996D01*
X194036098Y-93574026D01*
X194083316Y-93554468D01*
X194132192Y-93539641D01*
X194177239Y-93515563D01*
X194224456Y-93496005D01*
X194266947Y-93467614D01*
X194311997Y-93443534D01*
X194351484Y-93411128D01*
X194393974Y-93382737D01*
X194430108Y-93346603D01*
X194469596Y-93314196D01*
X194502003Y-93274708D01*
X194538137Y-93238574D01*
X194566528Y-93196084D01*
X194598934Y-93156597D01*
X194623014Y-93111546D01*
X194651405Y-93069056D01*
X194670962Y-93021842D01*
X194695041Y-92976793D01*
X194709869Y-92927913D01*
X194729426Y-92880698D01*
X194739396Y-92830577D01*
X194754224Y-92781695D01*
X194759231Y-92730857D01*
X194769200Y-92680739D01*
X194769200Y-92063950D01*
X194774207Y-92013115D01*
X194768323Y-91953373D01*
X194754224Y-91810221D01*
X194695041Y-91615123D01*
X194667913Y-91564369D01*
X194598934Y-91435317D01*
X194502003Y-91317207D01*
X194469596Y-91277719D01*
X194430108Y-91245312D01*
X188576562Y-85391767D01*
X188544151Y-85352274D01*
X188386552Y-85222936D01*
X188206748Y-85126829D01*
X188011650Y-85067646D01*
X187859593Y-85052670D01*
X187859583Y-85052670D01*
X187808755Y-85047664D01*
X187757927Y-85052670D01*
X154587391Y-85052670D01*
X154537273Y-85062639D01*
X154486435Y-85067646D01*
X154437553Y-85082474D01*
X154387432Y-85092444D01*
X154340217Y-85112001D01*
X154291337Y-85126829D01*
X154246288Y-85150908D01*
X154199074Y-85170465D01*
X154156584Y-85198856D01*
X154111533Y-85222936D01*
X154072046Y-85255342D01*
X154029556Y-85283733D01*
X153993422Y-85319867D01*
X153953934Y-85352274D01*
X153921527Y-85391762D01*
X153885393Y-85427896D01*
X153857002Y-85470386D01*
X153824596Y-85509873D01*
X153800516Y-85554924D01*
X153772125Y-85597414D01*
X153752568Y-85644628D01*
X153728489Y-85689677D01*
X153713661Y-85738557D01*
X153694104Y-85785772D01*
X153684134Y-85835893D01*
X153669306Y-85884775D01*
X153664299Y-85935613D01*
X153654330Y-85985731D01*
X153654330Y-86036832D01*
X153649323Y-86087670D01*
X153654330Y-86138508D01*
X153654330Y-86189609D01*
X153664299Y-86239727D01*
X153669306Y-86290565D01*
X153684134Y-86339447D01*
X153694104Y-86389568D01*
X153713661Y-86436783D01*
X153728489Y-86485663D01*
X153752568Y-86530712D01*
X153772125Y-86577926D01*
X153800516Y-86620416D01*
X153824596Y-86665467D01*
X153857002Y-86704954D01*
X153885393Y-86747444D01*
X153921526Y-86783577D01*
X153953934Y-86823066D01*
X153993422Y-86855473D01*
X154029556Y-86891607D01*
X154072046Y-86919998D01*
X154111533Y-86952404D01*
X154156584Y-86976484D01*
X154199074Y-87004875D01*
X154246288Y-87024432D01*
X154291337Y-87048511D01*
X154305113Y-87052690D01*
X147870137Y-87052690D01*
X147819309Y-87047684D01*
X147768481Y-87052690D01*
X147768472Y-87052690D01*
X147616415Y-87067666D01*
X147421317Y-87126849D01*
X147241513Y-87222956D01*
X147083914Y-87352294D01*
X147051507Y-87391782D01*
X146336092Y-88107198D01*
X146296605Y-88139604D01*
X146264198Y-88179092D01*
X146264197Y-88179093D01*
X146167266Y-88297203D01*
X146071160Y-88477007D01*
X146011977Y-88672105D01*
X145991994Y-88875000D01*
X145997001Y-88925838D01*
X145997000Y-100039391D01*
X145908890Y-100008524D01*
X145679000Y-100129845D01*
X145679000Y-101448000D01*
X145699000Y-101448000D01*
X145699000Y-101702000D01*
X145679000Y-101702000D01*
X145679000Y-101722000D01*
X145425000Y-101722000D01*
X145425000Y-101702000D01*
X145405000Y-101702000D01*
X145405000Y-101448000D01*
X145425000Y-101448000D01*
X145425000Y-100129845D01*
X145195110Y-100008524D01*
X144932142Y-100100648D01*
X144680807Y-100247504D01*
X144462951Y-100440571D01*
X144306462Y-100646722D01*
X144292706Y-100620986D01*
X144107134Y-100394866D01*
X144087000Y-100378343D01*
X144087000Y-97471827D01*
X144092006Y-97420999D01*
X144087000Y-97370171D01*
X144087000Y-97370162D01*
X144072024Y-97218105D01*
X144012841Y-97023007D01*
X143968047Y-96939203D01*
X143916734Y-96843202D01*
X143819803Y-96725092D01*
X143787396Y-96685604D01*
X143747908Y-96653197D01*
X143093807Y-95999097D01*
X143061396Y-95959604D01*
X142903797Y-95830266D01*
X142723993Y-95734159D01*
X142528895Y-95674976D01*
X142376838Y-95660000D01*
X142376828Y-95660000D01*
X142326000Y-95654994D01*
X142275172Y-95660000D01*
X116214835Y-95660000D01*
X116164000Y-95654993D01*
X116113165Y-95660000D01*
X116113162Y-95660000D01*
X115961105Y-95674976D01*
X115829538Y-95714887D01*
X115766006Y-95734159D01*
X115586202Y-95830266D01*
X115524751Y-95880698D01*
X115428604Y-95959604D01*
X115396197Y-95999092D01*
X114646092Y-96749198D01*
X114606605Y-96781604D01*
X114574198Y-96821092D01*
X114574197Y-96821093D01*
X114477266Y-96939203D01*
X114381160Y-97119007D01*
X114321977Y-97314105D01*
X114301994Y-97517000D01*
X114307001Y-97567837D01*
X114307001Y-97772024D01*
X114305038Y-97773987D01*
X114158939Y-97992641D01*
X114072000Y-98202530D01*
X113985061Y-97992641D01*
X113838962Y-97773987D01*
X113653013Y-97588038D01*
X113434359Y-97441939D01*
X113191405Y-97341304D01*
X112933486Y-97290000D01*
X112670514Y-97290000D01*
X112412595Y-97341304D01*
X112169641Y-97441939D01*
X111950987Y-97588038D01*
X111765038Y-97773987D01*
X111618939Y-97992641D01*
X111532000Y-98202530D01*
X111445061Y-97992641D01*
X111298962Y-97773987D01*
X111113013Y-97588038D01*
X110894359Y-97441939D01*
X110651405Y-97341304D01*
X110393486Y-97290000D01*
X110130514Y-97290000D01*
X109872595Y-97341304D01*
X109629641Y-97441939D01*
X109410987Y-97588038D01*
X109225038Y-97773987D01*
X109078939Y-97992641D01*
X108990379Y-98206444D01*
X108930935Y-98043634D01*
X108877037Y-97942797D01*
X108643269Y-97883336D01*
X107901605Y-98625000D01*
X108643269Y-99366664D01*
X108877037Y-99307203D01*
X108987934Y-99068758D01*
X108992706Y-99049173D01*
X109078939Y-99257359D01*
X109225038Y-99476013D01*
X109410987Y-99661962D01*
X109629641Y-99808061D01*
X109839530Y-99895000D01*
X109629641Y-99981939D01*
X109410987Y-100128038D01*
X109225038Y-100313987D01*
X109078939Y-100532641D01*
X108992000Y-100742530D01*
X108905061Y-100532641D01*
X108758962Y-100313987D01*
X108573013Y-100128038D01*
X108354359Y-99981939D01*
X108140556Y-99893379D01*
X108303366Y-99833935D01*
X108404203Y-99780037D01*
X108463664Y-99546269D01*
X107722000Y-98804605D01*
X106980336Y-99546269D01*
X107039797Y-99780037D01*
X107278242Y-99890934D01*
X107297827Y-99895706D01*
X107089641Y-99981939D01*
X106870987Y-100128038D01*
X106685038Y-100313987D01*
X106538939Y-100532641D01*
X106438304Y-100775595D01*
X106387000Y-101033514D01*
X106387000Y-101296486D01*
X106438304Y-101554405D01*
X106538939Y-101797359D01*
X106685038Y-102016013D01*
X106870987Y-102201962D01*
X107089641Y-102348061D01*
X107332595Y-102448696D01*
X107590514Y-102500000D01*
X107853486Y-102500000D01*
X108111405Y-102448696D01*
X108354359Y-102348061D01*
X108573013Y-102201962D01*
X108758962Y-102016013D01*
X108905061Y-101797359D01*
X108992000Y-101587470D01*
X109078939Y-101797359D01*
X109225038Y-102016013D01*
X109410987Y-102201962D01*
X109629641Y-102348061D01*
X109872595Y-102448696D01*
X110130514Y-102500000D01*
X110393486Y-102500000D01*
X110651405Y-102448696D01*
X110894359Y-102348061D01*
X111113013Y-102201962D01*
X111298962Y-102016013D01*
X111445061Y-101797359D01*
X111532000Y-101587470D01*
X111618939Y-101797359D01*
X111765038Y-102016013D01*
X111827001Y-102077976D01*
X111827001Y-102473463D01*
X111821994Y-102524300D01*
X111841977Y-102727195D01*
X111901160Y-102922293D01*
X111997266Y-103102097D01*
X112094197Y-103220207D01*
X112126605Y-103259696D01*
X112166093Y-103292103D01*
X121853175Y-112979186D01*
X121943704Y-113089496D01*
X121983197Y-113121907D01*
X122903863Y-114042574D01*
X123048026Y-114186737D01*
X123090516Y-114215128D01*
X123130002Y-114247533D01*
X123175051Y-114271612D01*
X123179023Y-114274266D01*
X114646097Y-122807193D01*
X114606604Y-122839604D01*
X114477266Y-122997203D01*
X114472035Y-123006990D01*
X114305038Y-123173987D01*
X114158939Y-123392641D01*
X114072000Y-123602530D01*
X113985061Y-123392641D01*
X113838962Y-123173987D01*
X113653013Y-122988038D01*
X113434359Y-122841939D01*
X113191405Y-122741304D01*
X112933486Y-122690000D01*
X112670514Y-122690000D01*
X112412595Y-122741304D01*
X112169641Y-122841939D01*
X111950987Y-122988038D01*
X111765038Y-123173987D01*
X111618939Y-123392641D01*
X111532000Y-123602530D01*
X111445061Y-123392641D01*
X111298962Y-123173987D01*
X111113013Y-122988038D01*
X110894359Y-122841939D01*
X110651405Y-122741304D01*
X110393486Y-122690000D01*
X110130514Y-122690000D01*
X109872595Y-122741304D01*
X109629641Y-122841939D01*
X109410987Y-122988038D01*
X109225038Y-123173987D01*
X109078939Y-123392641D01*
X108992000Y-123602530D01*
X108905061Y-123392641D01*
X108758962Y-123173987D01*
X108573013Y-122988038D01*
X108354359Y-122841939D01*
X108111405Y-122741304D01*
X107853486Y-122690000D01*
X107590514Y-122690000D01*
X107332595Y-122741304D01*
X107089641Y-122841939D01*
X106870987Y-122988038D01*
X106685038Y-123173987D01*
X106538939Y-123392641D01*
X106438304Y-123635595D01*
X106387000Y-123893514D01*
X106387000Y-124156486D01*
X106438304Y-124414405D01*
X106538939Y-124657359D01*
X106685038Y-124876013D01*
X106870987Y-125061962D01*
X107089641Y-125208061D01*
X107303444Y-125296621D01*
X107140634Y-125356065D01*
X107039797Y-125409963D01*
X106980336Y-125643731D01*
X107722000Y-126385395D01*
X108463664Y-125643731D01*
X108404203Y-125409963D01*
X108165758Y-125299066D01*
X108146173Y-125294294D01*
X108354359Y-125208061D01*
X108573013Y-125061962D01*
X108758962Y-124876013D01*
X108905061Y-124657359D01*
X108992000Y-124447470D01*
X109078939Y-124657359D01*
X109225038Y-124876013D01*
X109410987Y-125061962D01*
X109629641Y-125208061D01*
X109839530Y-125295000D01*
X109629641Y-125381939D01*
X109410987Y-125528038D01*
X109225038Y-125713987D01*
X109078939Y-125932641D01*
X108990379Y-126146444D01*
X108930935Y-125983634D01*
X108877037Y-125882797D01*
X108643269Y-125823336D01*
X107901605Y-126565000D01*
X108643269Y-127306664D01*
X108877037Y-127247203D01*
X108987934Y-127008758D01*
X108992706Y-126989173D01*
X109078939Y-127197359D01*
X109225038Y-127416013D01*
X109410987Y-127601962D01*
X109629641Y-127748061D01*
X109872595Y-127848696D01*
X110130514Y-127900000D01*
X110393486Y-127900000D01*
X110651405Y-127848696D01*
X110894359Y-127748061D01*
X111113013Y-127601962D01*
X111298962Y-127416013D01*
X111445061Y-127197359D01*
X111532000Y-126987470D01*
X111618939Y-127197359D01*
X111765038Y-127416013D01*
X111950987Y-127601962D01*
X112169641Y-127748061D01*
X112412595Y-127848696D01*
X112670514Y-127900000D01*
X112933486Y-127900000D01*
X113191405Y-127848696D01*
X113297001Y-127804957D01*
X113297001Y-128607172D01*
X113292960Y-128648200D01*
X113309082Y-128811888D01*
X113356828Y-128969286D01*
X113434364Y-129114345D01*
X113448294Y-129131319D01*
X113538710Y-129241491D01*
X113570574Y-129267641D01*
X113746160Y-129443227D01*
X106134810Y-129439374D01*
X106125995Y-127486269D01*
X106980336Y-127486269D01*
X107039797Y-127720037D01*
X107278242Y-127830934D01*
X107533740Y-127893183D01*
X107796473Y-127904390D01*
X108056344Y-127864125D01*
X108303366Y-127773935D01*
X108404203Y-127720037D01*
X108463664Y-127486269D01*
X107722000Y-126744605D01*
X106980336Y-127486269D01*
X106125995Y-127486269D01*
X106122172Y-126639473D01*
X106382610Y-126639473D01*
X106422875Y-126899344D01*
X106513065Y-127146366D01*
X106566963Y-127247203D01*
X106800731Y-127306664D01*
X107542395Y-126565000D01*
X106800731Y-125823336D01*
X106566963Y-125882797D01*
X106456066Y-126121242D01*
X106393817Y-126376740D01*
X106382610Y-126639473D01*
X106122172Y-126639473D01*
X105996054Y-98699473D01*
X106382610Y-98699473D01*
X106422875Y-98959344D01*
X106513065Y-99206366D01*
X106566963Y-99307203D01*
X106800731Y-99366664D01*
X107542395Y-98625000D01*
X106800731Y-97883336D01*
X106566963Y-97942797D01*
X106456066Y-98181242D01*
X106393817Y-98436740D01*
X106382610Y-98699473D01*
X105996054Y-98699473D01*
X105991559Y-97703731D01*
X106980336Y-97703731D01*
X107722000Y-98445395D01*
X108463664Y-97703731D01*
X108404203Y-97469963D01*
X108165758Y-97359066D01*
X107910260Y-97296817D01*
X107647527Y-97285610D01*
X107387656Y-97325875D01*
X107140634Y-97416065D01*
X107039797Y-97469963D01*
X106980336Y-97703731D01*
X105991559Y-97703731D01*
X105991499Y-97690484D01*
X105989042Y-97666194D01*
X105981799Y-97642375D01*
X105970047Y-97620426D01*
X105954240Y-97601192D01*
X105934984Y-97585411D01*
X105913019Y-97573690D01*
X105889190Y-97566480D01*
X105864412Y-97564057D01*
X97422022Y-97569936D01*
X97425856Y-93791000D01*
X108451328Y-93791000D01*
X108463588Y-93915482D01*
X108499898Y-94035180D01*
X108558863Y-94145494D01*
X108638215Y-94242185D01*
X108734906Y-94321537D01*
X108845220Y-94380502D01*
X108964918Y-94416812D01*
X109089400Y-94429072D01*
X109553650Y-94426000D01*
X109712400Y-94267250D01*
X109712400Y-93393000D01*
X109966400Y-93393000D01*
X109966400Y-94267250D01*
X110125150Y-94426000D01*
X110589400Y-94429072D01*
X110713882Y-94416812D01*
X110833580Y-94380502D01*
X110943894Y-94321537D01*
X111040585Y-94242185D01*
X111119937Y-94145494D01*
X111178902Y-94035180D01*
X111215212Y-93915482D01*
X111227472Y-93791000D01*
X111224400Y-93551750D01*
X111065650Y-93393000D01*
X109966400Y-93393000D01*
X109712400Y-93393000D01*
X108613150Y-93393000D01*
X108454400Y-93551750D01*
X108451328Y-93791000D01*
X97425856Y-93791000D01*
X97428966Y-90726000D01*
X108448788Y-90726000D01*
X108471185Y-90953400D01*
X108537515Y-91172060D01*
X108638505Y-91361000D01*
X108537515Y-91549940D01*
X108471185Y-91768600D01*
X108448788Y-91996000D01*
X108471185Y-92223400D01*
X108534493Y-92432098D01*
X108499898Y-92496820D01*
X108463588Y-92616518D01*
X108451328Y-92741000D01*
X108454400Y-92980250D01*
X108613150Y-93139000D01*
X109386291Y-93139000D01*
X109387000Y-93139215D01*
X109557421Y-93156000D01*
X110121379Y-93156000D01*
X110291800Y-93139215D01*
X110292509Y-93139000D01*
X111065650Y-93139000D01*
X111224400Y-92980250D01*
X111225122Y-92924000D01*
X115742728Y-92924000D01*
X115742728Y-94624000D01*
X115754988Y-94748482D01*
X115791298Y-94868180D01*
X115850263Y-94978494D01*
X115929615Y-95075185D01*
X116026306Y-95154537D01*
X116136620Y-95213502D01*
X116256318Y-95249812D01*
X116380800Y-95262072D01*
X118080800Y-95262072D01*
X118205282Y-95249812D01*
X118324980Y-95213502D01*
X118435294Y-95154537D01*
X118531985Y-95075185D01*
X118611337Y-94978494D01*
X118670302Y-94868180D01*
X118706612Y-94748482D01*
X118718872Y-94624000D01*
X118718872Y-92924000D01*
X118706612Y-92799518D01*
X118670302Y-92679820D01*
X118611337Y-92569506D01*
X118600511Y-92556314D01*
X133372500Y-92556314D01*
X133372500Y-92807285D01*
X133395470Y-93040503D01*
X133486245Y-93339748D01*
X133633655Y-93615534D01*
X133832037Y-93857263D01*
X134073765Y-94055645D01*
X134349551Y-94203055D01*
X134648796Y-94293830D01*
X134960000Y-94324481D01*
X135271203Y-94293830D01*
X135570448Y-94203055D01*
X135846234Y-94055645D01*
X136087963Y-93857263D01*
X136235163Y-93677901D01*
X136390563Y-93863115D01*
X136633077Y-94057769D01*
X136908906Y-94201371D01*
X137127020Y-94272363D01*
X137373000Y-94152394D01*
X137373000Y-92808800D01*
X137353000Y-92808800D01*
X137353000Y-92554800D01*
X137373000Y-92554800D01*
X137373000Y-91211206D01*
X137627000Y-91211206D01*
X137627000Y-92554800D01*
X137647000Y-92554800D01*
X137647000Y-92808800D01*
X137627000Y-92808800D01*
X137627000Y-94152394D01*
X137872980Y-94272363D01*
X138091094Y-94201371D01*
X138366923Y-94057769D01*
X138507941Y-93944581D01*
X138556963Y-94036294D01*
X138636315Y-94132985D01*
X138733006Y-94212337D01*
X138843320Y-94271302D01*
X138963018Y-94307612D01*
X139087500Y-94319872D01*
X140992500Y-94319872D01*
X141116982Y-94307612D01*
X141236680Y-94271302D01*
X141346994Y-94212337D01*
X141443685Y-94132985D01*
X141523037Y-94036294D01*
X141582002Y-93925980D01*
X141618312Y-93806282D01*
X141630572Y-93681800D01*
X141630572Y-91681800D01*
X141618312Y-91557318D01*
X141582002Y-91437620D01*
X141523037Y-91327306D01*
X141443685Y-91230615D01*
X141346994Y-91151263D01*
X141236680Y-91092298D01*
X141116982Y-91055988D01*
X140992500Y-91043728D01*
X139087500Y-91043728D01*
X138963018Y-91055988D01*
X138843320Y-91092298D01*
X138733006Y-91151263D01*
X138636315Y-91230615D01*
X138556963Y-91327306D01*
X138507941Y-91419019D01*
X138366923Y-91305831D01*
X138091094Y-91162229D01*
X137872980Y-91091237D01*
X137627000Y-91211206D01*
X137373000Y-91211206D01*
X137127020Y-91091237D01*
X136908906Y-91162229D01*
X136633077Y-91305831D01*
X136390563Y-91500485D01*
X136235162Y-91685700D01*
X136087963Y-91506337D01*
X135846235Y-91307955D01*
X135570449Y-91160545D01*
X135271204Y-91069770D01*
X134960000Y-91039119D01*
X134648797Y-91069770D01*
X134349552Y-91160545D01*
X134073766Y-91307955D01*
X133832037Y-91506337D01*
X133633655Y-91748065D01*
X133486245Y-92023851D01*
X133395470Y-92323096D01*
X133372500Y-92556314D01*
X118600511Y-92556314D01*
X118531985Y-92472815D01*
X118435294Y-92393463D01*
X118324980Y-92334498D01*
X118205282Y-92298188D01*
X118080800Y-92285928D01*
X116380800Y-92285928D01*
X116256318Y-92298188D01*
X116136620Y-92334498D01*
X116026306Y-92393463D01*
X115929615Y-92472815D01*
X115850263Y-92569506D01*
X115791298Y-92679820D01*
X115754988Y-92799518D01*
X115742728Y-92924000D01*
X111225122Y-92924000D01*
X111227472Y-92741000D01*
X111215212Y-92616518D01*
X111178902Y-92496820D01*
X111144307Y-92432098D01*
X111207615Y-92223400D01*
X111230012Y-91996000D01*
X111207615Y-91768600D01*
X111141285Y-91549940D01*
X111040295Y-91361000D01*
X111141285Y-91172060D01*
X111207615Y-90953400D01*
X111230012Y-90726000D01*
X111207615Y-90498600D01*
X111141285Y-90279940D01*
X111033571Y-90078421D01*
X110888612Y-89901788D01*
X110711979Y-89756829D01*
X110510460Y-89649115D01*
X110291800Y-89582785D01*
X110121379Y-89566000D01*
X109557421Y-89566000D01*
X109387000Y-89582785D01*
X109168340Y-89649115D01*
X108966821Y-89756829D01*
X108790188Y-89901788D01*
X108645229Y-90078421D01*
X108537515Y-90279940D01*
X108471185Y-90498600D01*
X108448788Y-90726000D01*
X97428966Y-90726000D01*
X97436304Y-83494419D01*
X102997000Y-83494419D01*
X102997000Y-83875581D01*
X103071361Y-84249419D01*
X103217225Y-84601566D01*
X103428987Y-84918491D01*
X103698509Y-85188013D01*
X104015434Y-85399775D01*
X104367581Y-85545639D01*
X104741419Y-85620000D01*
X105122581Y-85620000D01*
X105496419Y-85545639D01*
X105848566Y-85399775D01*
X106165491Y-85188013D01*
X106435013Y-84918491D01*
X106646775Y-84601566D01*
X106792639Y-84249419D01*
X106867000Y-83875581D01*
X106867000Y-83494419D01*
X106792639Y-83120581D01*
X106646775Y-82768434D01*
X106435013Y-82451509D01*
X106165491Y-82181987D01*
X105848566Y-81970225D01*
X105496419Y-81824361D01*
X105122581Y-81750000D01*
X104741419Y-81750000D01*
X104367581Y-81824361D01*
X104015434Y-81970225D01*
X103698509Y-82181987D01*
X103428987Y-82451509D01*
X103217225Y-82768434D01*
X103071361Y-83120581D01*
X102997000Y-83494419D01*
X97436304Y-83494419D01*
X97439865Y-79985000D01*
X102993928Y-79985000D01*
X103006188Y-80109482D01*
X103042498Y-80229180D01*
X103101463Y-80339494D01*
X103180815Y-80436185D01*
X103277506Y-80515537D01*
X103387820Y-80574502D01*
X103507518Y-80610812D01*
X103632000Y-80623072D01*
X104646250Y-80620000D01*
X104805000Y-80461250D01*
X104805000Y-78812000D01*
X105059000Y-78812000D01*
X105059000Y-80461250D01*
X105217750Y-80620000D01*
X106232000Y-80623072D01*
X106356482Y-80610812D01*
X106476180Y-80574502D01*
X106586494Y-80515537D01*
X106683185Y-80436185D01*
X106686684Y-80431921D01*
X109996400Y-80431921D01*
X109996400Y-80852479D01*
X110078447Y-81264956D01*
X110239388Y-81653502D01*
X110473037Y-82003183D01*
X110770417Y-82300563D01*
X111120098Y-82534212D01*
X111508644Y-82695153D01*
X111921121Y-82777200D01*
X112341679Y-82777200D01*
X112754156Y-82695153D01*
X113142702Y-82534212D01*
X113492383Y-82300563D01*
X113789763Y-82003183D01*
X114023412Y-81653502D01*
X114184353Y-81264956D01*
X114266400Y-80852479D01*
X114266400Y-80431921D01*
X132596400Y-80431921D01*
X132596400Y-80852479D01*
X132678447Y-81264956D01*
X132839388Y-81653502D01*
X133073037Y-82003183D01*
X133370417Y-82300563D01*
X133720098Y-82534212D01*
X134108644Y-82695153D01*
X134521121Y-82777200D01*
X134941679Y-82777200D01*
X135354156Y-82695153D01*
X135742702Y-82534212D01*
X136092383Y-82300563D01*
X136185601Y-82207345D01*
X136185601Y-83499662D01*
X136180594Y-83550500D01*
X136200577Y-83753395D01*
X136259760Y-83948493D01*
X136355866Y-84128297D01*
X136410949Y-84195415D01*
X136429363Y-84222974D01*
X136452803Y-84246414D01*
X136485205Y-84285896D01*
X136524687Y-84318298D01*
X136573526Y-84367137D01*
X136616017Y-84395529D01*
X136655503Y-84427934D01*
X136700554Y-84452014D01*
X136743044Y-84480405D01*
X136790258Y-84499962D01*
X136835307Y-84524041D01*
X136884184Y-84538867D01*
X136931402Y-84558426D01*
X136981532Y-84568397D01*
X137030406Y-84583223D01*
X137081235Y-84588229D01*
X137131361Y-84598200D01*
X137182465Y-84598200D01*
X137233300Y-84603207D01*
X137284135Y-84598200D01*
X137335239Y-84598200D01*
X137385364Y-84588230D01*
X137436195Y-84583223D01*
X137485070Y-84568397D01*
X137535198Y-84558426D01*
X137582415Y-84538868D01*
X137631293Y-84524041D01*
X137676342Y-84499962D01*
X137723556Y-84480405D01*
X137766046Y-84452014D01*
X137811097Y-84427934D01*
X137850584Y-84395528D01*
X137893074Y-84367137D01*
X137929208Y-84331003D01*
X137949069Y-84314703D01*
X137980355Y-84373235D01*
X138178737Y-84614963D01*
X138420465Y-84813345D01*
X138696251Y-84960755D01*
X138995496Y-85051530D01*
X139228714Y-85074500D01*
X139479686Y-85074500D01*
X139712904Y-85051530D01*
X140012149Y-84960755D01*
X140287935Y-84813345D01*
X140529663Y-84614963D01*
X140728045Y-84373235D01*
X140875455Y-84097449D01*
X140966230Y-83798204D01*
X140996881Y-83487000D01*
X140966230Y-83175796D01*
X140875455Y-82876551D01*
X140728045Y-82600765D01*
X140529663Y-82359037D01*
X140356591Y-82217000D01*
X140529663Y-82074963D01*
X140728045Y-81833235D01*
X140875455Y-81557449D01*
X140966230Y-81258204D01*
X140996881Y-80947000D01*
X140966230Y-80635796D01*
X140879336Y-80349344D01*
X157237000Y-80349344D01*
X157237000Y-80720656D01*
X157309439Y-81084834D01*
X157451534Y-81427882D01*
X157657825Y-81736618D01*
X157920382Y-81999175D01*
X158229118Y-82205466D01*
X158572166Y-82347561D01*
X158936344Y-82420000D01*
X159307656Y-82420000D01*
X159671834Y-82347561D01*
X160014882Y-82205466D01*
X160323618Y-81999175D01*
X160586175Y-81736618D01*
X160792466Y-81427882D01*
X160934561Y-81084834D01*
X161007000Y-80720656D01*
X161007000Y-80349344D01*
X160934561Y-79985166D01*
X160792466Y-79642118D01*
X160586175Y-79333382D01*
X160537793Y-79285000D01*
X162313928Y-79285000D01*
X162313928Y-81785000D01*
X162326188Y-81909482D01*
X162362498Y-82029180D01*
X162421463Y-82139494D01*
X162500815Y-82236185D01*
X162597506Y-82315537D01*
X162707820Y-82374502D01*
X162827518Y-82410812D01*
X162952000Y-82423072D01*
X165452000Y-82423072D01*
X165576482Y-82410812D01*
X165696180Y-82374502D01*
X165806494Y-82315537D01*
X165903185Y-82236185D01*
X165982537Y-82139494D01*
X166041502Y-82029180D01*
X166077812Y-81909482D01*
X166090072Y-81785000D01*
X166090072Y-80349344D01*
X167407000Y-80349344D01*
X167407000Y-80720656D01*
X167479439Y-81084834D01*
X167621534Y-81427882D01*
X167827825Y-81736618D01*
X168090382Y-81999175D01*
X168399118Y-82205466D01*
X168742166Y-82347561D01*
X169106344Y-82420000D01*
X169477656Y-82420000D01*
X169841834Y-82347561D01*
X170184882Y-82205466D01*
X170493618Y-81999175D01*
X170756175Y-81736618D01*
X170962466Y-81427882D01*
X171104561Y-81084834D01*
X171177000Y-80720656D01*
X171177000Y-80349344D01*
X171104561Y-79985166D01*
X170962466Y-79642118D01*
X170756175Y-79333382D01*
X170707793Y-79285000D01*
X172483928Y-79285000D01*
X172483928Y-81785000D01*
X172496188Y-81909482D01*
X172532498Y-82029180D01*
X172591463Y-82139494D01*
X172670815Y-82236185D01*
X172767506Y-82315537D01*
X172877820Y-82374502D01*
X172997518Y-82410812D01*
X173122000Y-82423072D01*
X175622000Y-82423072D01*
X175746482Y-82410812D01*
X175866180Y-82374502D01*
X175976494Y-82315537D01*
X176073185Y-82236185D01*
X176152537Y-82139494D01*
X176211502Y-82029180D01*
X176247812Y-81909482D01*
X176260072Y-81785000D01*
X176260072Y-80349344D01*
X177567000Y-80349344D01*
X177567000Y-80720656D01*
X177639439Y-81084834D01*
X177781534Y-81427882D01*
X177987825Y-81736618D01*
X178250382Y-81999175D01*
X178559118Y-82205466D01*
X178902166Y-82347561D01*
X179266344Y-82420000D01*
X179637656Y-82420000D01*
X180001834Y-82347561D01*
X180344882Y-82205466D01*
X180653618Y-81999175D01*
X180916175Y-81736618D01*
X181122466Y-81427882D01*
X181264561Y-81084834D01*
X181337000Y-80720656D01*
X181337000Y-80349344D01*
X181264561Y-79985166D01*
X181122466Y-79642118D01*
X180916175Y-79333382D01*
X180867793Y-79285000D01*
X182643928Y-79285000D01*
X182643928Y-81785000D01*
X182656188Y-81909482D01*
X182692498Y-82029180D01*
X182751463Y-82139494D01*
X182830815Y-82236185D01*
X182927506Y-82315537D01*
X183037820Y-82374502D01*
X183157518Y-82410812D01*
X183282000Y-82423072D01*
X185782000Y-82423072D01*
X185906482Y-82410812D01*
X186026180Y-82374502D01*
X186136494Y-82315537D01*
X186233185Y-82236185D01*
X186312537Y-82139494D01*
X186371502Y-82029180D01*
X186407812Y-81909482D01*
X186420072Y-81785000D01*
X186420072Y-80349344D01*
X187737000Y-80349344D01*
X187737000Y-80720656D01*
X187809439Y-81084834D01*
X187951534Y-81427882D01*
X188157825Y-81736618D01*
X188420382Y-81999175D01*
X188729118Y-82205466D01*
X189072166Y-82347561D01*
X189436344Y-82420000D01*
X189807656Y-82420000D01*
X190171834Y-82347561D01*
X190514882Y-82205466D01*
X190823618Y-81999175D01*
X191086175Y-81736618D01*
X191292466Y-81427882D01*
X191434561Y-81084834D01*
X191507000Y-80720656D01*
X191507000Y-80349344D01*
X191434561Y-79985166D01*
X191292466Y-79642118D01*
X191086175Y-79333382D01*
X191037793Y-79285000D01*
X192813928Y-79285000D01*
X192813928Y-81785000D01*
X192826188Y-81909482D01*
X192862498Y-82029180D01*
X192921463Y-82139494D01*
X193000815Y-82236185D01*
X193097506Y-82315537D01*
X193207820Y-82374502D01*
X193327518Y-82410812D01*
X193452000Y-82423072D01*
X195952000Y-82423072D01*
X196076482Y-82410812D01*
X196196180Y-82374502D01*
X196306494Y-82315537D01*
X196403185Y-82236185D01*
X196482537Y-82139494D01*
X196541502Y-82029180D01*
X196577812Y-81909482D01*
X196590072Y-81785000D01*
X196590072Y-79285000D01*
X196577812Y-79160518D01*
X196541502Y-79040820D01*
X196482537Y-78930506D01*
X196403185Y-78833815D01*
X196306494Y-78754463D01*
X196196180Y-78695498D01*
X196076482Y-78659188D01*
X195952000Y-78646928D01*
X193452000Y-78646928D01*
X193327518Y-78659188D01*
X193207820Y-78695498D01*
X193097506Y-78754463D01*
X193000815Y-78833815D01*
X192921463Y-78930506D01*
X192862498Y-79040820D01*
X192826188Y-79160518D01*
X192813928Y-79285000D01*
X191037793Y-79285000D01*
X190823618Y-79070825D01*
X190514882Y-78864534D01*
X190171834Y-78722439D01*
X189807656Y-78650000D01*
X189436344Y-78650000D01*
X189072166Y-78722439D01*
X188729118Y-78864534D01*
X188420382Y-79070825D01*
X188157825Y-79333382D01*
X187951534Y-79642118D01*
X187809439Y-79985166D01*
X187737000Y-80349344D01*
X186420072Y-80349344D01*
X186420072Y-79285000D01*
X186407812Y-79160518D01*
X186371502Y-79040820D01*
X186312537Y-78930506D01*
X186233185Y-78833815D01*
X186136494Y-78754463D01*
X186026180Y-78695498D01*
X185906482Y-78659188D01*
X185782000Y-78646928D01*
X183282000Y-78646928D01*
X183157518Y-78659188D01*
X183037820Y-78695498D01*
X182927506Y-78754463D01*
X182830815Y-78833815D01*
X182751463Y-78930506D01*
X182692498Y-79040820D01*
X182656188Y-79160518D01*
X182643928Y-79285000D01*
X180867793Y-79285000D01*
X180653618Y-79070825D01*
X180344882Y-78864534D01*
X180001834Y-78722439D01*
X179637656Y-78650000D01*
X179266344Y-78650000D01*
X178902166Y-78722439D01*
X178559118Y-78864534D01*
X178250382Y-79070825D01*
X177987825Y-79333382D01*
X177781534Y-79642118D01*
X177639439Y-79985166D01*
X177567000Y-80349344D01*
X176260072Y-80349344D01*
X176260072Y-79285000D01*
X176247812Y-79160518D01*
X176211502Y-79040820D01*
X176152537Y-78930506D01*
X176073185Y-78833815D01*
X175976494Y-78754463D01*
X175866180Y-78695498D01*
X175746482Y-78659188D01*
X175622000Y-78646928D01*
X173122000Y-78646928D01*
X172997518Y-78659188D01*
X172877820Y-78695498D01*
X172767506Y-78754463D01*
X172670815Y-78833815D01*
X172591463Y-78930506D01*
X172532498Y-79040820D01*
X172496188Y-79160518D01*
X172483928Y-79285000D01*
X170707793Y-79285000D01*
X170493618Y-79070825D01*
X170184882Y-78864534D01*
X169841834Y-78722439D01*
X169477656Y-78650000D01*
X169106344Y-78650000D01*
X168742166Y-78722439D01*
X168399118Y-78864534D01*
X168090382Y-79070825D01*
X167827825Y-79333382D01*
X167621534Y-79642118D01*
X167479439Y-79985166D01*
X167407000Y-80349344D01*
X166090072Y-80349344D01*
X166090072Y-79285000D01*
X166077812Y-79160518D01*
X166041502Y-79040820D01*
X165982537Y-78930506D01*
X165903185Y-78833815D01*
X165806494Y-78754463D01*
X165696180Y-78695498D01*
X165576482Y-78659188D01*
X165452000Y-78646928D01*
X162952000Y-78646928D01*
X162827518Y-78659188D01*
X162707820Y-78695498D01*
X162597506Y-78754463D01*
X162500815Y-78833815D01*
X162421463Y-78930506D01*
X162362498Y-79040820D01*
X162326188Y-79160518D01*
X162313928Y-79285000D01*
X160537793Y-79285000D01*
X160323618Y-79070825D01*
X160014882Y-78864534D01*
X159671834Y-78722439D01*
X159307656Y-78650000D01*
X158936344Y-78650000D01*
X158572166Y-78722439D01*
X158229118Y-78864534D01*
X157920382Y-79070825D01*
X157657825Y-79333382D01*
X157451534Y-79642118D01*
X157309439Y-79985166D01*
X157237000Y-80349344D01*
X140879336Y-80349344D01*
X140875455Y-80336551D01*
X140728045Y-80060765D01*
X140624754Y-79934905D01*
X140708694Y-79890037D01*
X140805385Y-79810685D01*
X140884737Y-79713994D01*
X140943702Y-79603680D01*
X140980012Y-79483982D01*
X140992272Y-79359500D01*
X140992272Y-77454500D01*
X140980012Y-77330018D01*
X140943702Y-77210320D01*
X140884737Y-77100006D01*
X140805385Y-77003315D01*
X140708694Y-76923963D01*
X140598380Y-76864998D01*
X140478682Y-76828688D01*
X140354200Y-76816428D01*
X138354200Y-76816428D01*
X138229718Y-76828688D01*
X138110020Y-76864998D01*
X137999706Y-76923963D01*
X137903015Y-77003315D01*
X137823663Y-77100006D01*
X137764698Y-77210320D01*
X137728388Y-77330018D01*
X137722967Y-77385059D01*
X137703505Y-77386976D01*
X137508407Y-77446159D01*
X137424709Y-77490896D01*
X137328602Y-77542266D01*
X137266713Y-77593058D01*
X137171004Y-77671604D01*
X137138593Y-77711097D01*
X136524697Y-78324993D01*
X136485204Y-78357404D01*
X136355866Y-78515003D01*
X136259759Y-78694808D01*
X136200576Y-78889906D01*
X136185600Y-79041963D01*
X136185600Y-79041972D01*
X136182455Y-79073909D01*
X136092383Y-78983837D01*
X135742702Y-78750188D01*
X135354156Y-78589247D01*
X134941679Y-78507200D01*
X134521121Y-78507200D01*
X134108644Y-78589247D01*
X133720098Y-78750188D01*
X133370417Y-78983837D01*
X133073037Y-79281217D01*
X132839388Y-79630898D01*
X132678447Y-80019444D01*
X132596400Y-80431921D01*
X114266400Y-80431921D01*
X114184353Y-80019444D01*
X114023412Y-79630898D01*
X113789763Y-79281217D01*
X113492383Y-78983837D01*
X113142702Y-78750188D01*
X112754156Y-78589247D01*
X112341679Y-78507200D01*
X111921121Y-78507200D01*
X111508644Y-78589247D01*
X111120098Y-78750188D01*
X110770417Y-78983837D01*
X110473037Y-79281217D01*
X110239388Y-79630898D01*
X110078447Y-80019444D01*
X109996400Y-80431921D01*
X106686684Y-80431921D01*
X106762537Y-80339494D01*
X106821502Y-80229180D01*
X106857812Y-80109482D01*
X106870072Y-79985000D01*
X106867000Y-78970750D01*
X106708250Y-78812000D01*
X105059000Y-78812000D01*
X104805000Y-78812000D01*
X103155750Y-78812000D01*
X102997000Y-78970750D01*
X102993928Y-79985000D01*
X97439865Y-79985000D01*
X97442503Y-77385000D01*
X102993928Y-77385000D01*
X102997000Y-78399250D01*
X103155750Y-78558000D01*
X104805000Y-78558000D01*
X104805000Y-76908750D01*
X105059000Y-76908750D01*
X105059000Y-78558000D01*
X106708250Y-78558000D01*
X106867000Y-78399250D01*
X106870072Y-77385000D01*
X106857812Y-77260518D01*
X106821502Y-77140820D01*
X106762537Y-77030506D01*
X106683185Y-76933815D01*
X106586494Y-76854463D01*
X106476180Y-76795498D01*
X106356482Y-76759188D01*
X106232000Y-76746928D01*
X105217750Y-76750000D01*
X105059000Y-76908750D01*
X104805000Y-76908750D01*
X104646250Y-76750000D01*
X103632000Y-76746928D01*
X103507518Y-76759188D01*
X103387820Y-76795498D01*
X103277506Y-76854463D01*
X103180815Y-76933815D01*
X103101463Y-77030506D01*
X103042498Y-77140820D01*
X103006188Y-77260518D01*
X102993928Y-77385000D01*
X97442503Y-77385000D01*
X97443365Y-76535859D01*
X97501300Y-75944991D01*
X97663066Y-75409198D01*
X97925819Y-74915031D01*
X98279553Y-74481310D01*
X98710793Y-74124557D01*
X99203119Y-73858358D01*
X99737765Y-73692857D01*
X100326256Y-73631005D01*
X200559913Y-73681782D01*
G37*
G04 #@! TD.AperFunction*
D27*
X124318939Y-99257359D02*
X124465038Y-99476013D01*
X124650987Y-99661962D01*
X124869641Y-99808061D01*
X125079530Y-99895000D01*
X124869641Y-99981939D01*
X124650987Y-100128038D01*
X124465038Y-100313987D01*
X124318939Y-100532641D01*
X124230379Y-100746444D01*
X124170935Y-100583634D01*
X124117037Y-100482797D01*
X123883269Y-100423336D01*
X123141605Y-101165000D01*
X123883269Y-101906664D01*
X124117037Y-101847203D01*
X124227934Y-101608758D01*
X124232706Y-101589173D01*
X124318939Y-101797359D01*
X124465038Y-102016013D01*
X124564035Y-102115010D01*
X123696353Y-102115010D01*
X123703664Y-102086269D01*
X122962000Y-101344605D01*
X122220336Y-102086269D01*
X122227647Y-102115010D01*
X121359965Y-102115010D01*
X121458962Y-102016013D01*
X121605061Y-101797359D01*
X121693621Y-101583556D01*
X121753065Y-101746366D01*
X121806963Y-101847203D01*
X122040731Y-101906664D01*
X122782395Y-101165000D01*
X122040731Y-100423336D01*
X121806963Y-100482797D01*
X121696066Y-100721242D01*
X121691294Y-100740827D01*
X121605061Y-100532641D01*
X121458962Y-100313987D01*
X121273013Y-100128038D01*
X121054359Y-99981939D01*
X120844470Y-99895000D01*
X121054359Y-99808061D01*
X121273013Y-99661962D01*
X121458962Y-99476013D01*
X121605061Y-99257359D01*
X121692000Y-99047470D01*
X121778939Y-99257359D01*
X121925038Y-99476013D01*
X122110987Y-99661962D01*
X122329641Y-99808061D01*
X122543444Y-99896621D01*
X122380634Y-99956065D01*
X122279797Y-100009963D01*
X122220336Y-100243731D01*
X122962000Y-100985395D01*
X123703664Y-100243731D01*
X123644203Y-100009963D01*
X123405758Y-99899066D01*
X123386173Y-99894294D01*
X123594359Y-99808061D01*
X123813013Y-99661962D01*
X123998962Y-99476013D01*
X124145061Y-99257359D01*
X124232000Y-99047470D01*
X124318939Y-99257359D01*
G04 #@! TA.AperFunction,Conductor*
D28*
G36*
X124318939Y-99257359D02*
G01*
X124465038Y-99476013D01*
X124650987Y-99661962D01*
X124869641Y-99808061D01*
X125079530Y-99895000D01*
X124869641Y-99981939D01*
X124650987Y-100128038D01*
X124465038Y-100313987D01*
X124318939Y-100532641D01*
X124230379Y-100746444D01*
X124170935Y-100583634D01*
X124117037Y-100482797D01*
X123883269Y-100423336D01*
X123141605Y-101165000D01*
X123883269Y-101906664D01*
X124117037Y-101847203D01*
X124227934Y-101608758D01*
X124232706Y-101589173D01*
X124318939Y-101797359D01*
X124465038Y-102016013D01*
X124564035Y-102115010D01*
X123696353Y-102115010D01*
X123703664Y-102086269D01*
X122962000Y-101344605D01*
X122220336Y-102086269D01*
X122227647Y-102115010D01*
X121359965Y-102115010D01*
X121458962Y-102016013D01*
X121605061Y-101797359D01*
X121693621Y-101583556D01*
X121753065Y-101746366D01*
X121806963Y-101847203D01*
X122040731Y-101906664D01*
X122782395Y-101165000D01*
X122040731Y-100423336D01*
X121806963Y-100482797D01*
X121696066Y-100721242D01*
X121691294Y-100740827D01*
X121605061Y-100532641D01*
X121458962Y-100313987D01*
X121273013Y-100128038D01*
X121054359Y-99981939D01*
X120844470Y-99895000D01*
X121054359Y-99808061D01*
X121273013Y-99661962D01*
X121458962Y-99476013D01*
X121605061Y-99257359D01*
X121692000Y-99047470D01*
X121778939Y-99257359D01*
X121925038Y-99476013D01*
X122110987Y-99661962D01*
X122329641Y-99808061D01*
X122543444Y-99896621D01*
X122380634Y-99956065D01*
X122279797Y-100009963D01*
X122220336Y-100243731D01*
X122962000Y-100985395D01*
X123703664Y-100243731D01*
X123644203Y-100009963D01*
X123405758Y-99899066D01*
X123386173Y-99894294D01*
X123594359Y-99808061D01*
X123813013Y-99661962D01*
X123998962Y-99476013D01*
X124145061Y-99257359D01*
X124232000Y-99047470D01*
X124318939Y-99257359D01*
G37*
G04 #@! TD.AperFunction*
M02*
