M48
METRIC,TZ
T1C0.400
T2C0.750
T3C0.800
T4C0.950
T5C1.000
T6C1.100
T7C1.300
T8C1.500
%
G90
G05
T1
X98992Y-86665
X99052Y-75635
X99152Y-95945
X110081Y-104734
X110152Y-121295
X112379Y-95806
X112902Y-128795
X116761Y-76896
X118152Y-113045
X119152Y-86795
X121712Y-104150
X123289Y-82319
X123708Y-113383
X125118Y-111948
X125816Y-120571
X129308Y-120330
X130185Y-86827
X130645Y-111932
X130706Y-76985
X131760Y-110932
X131902Y-94545
X132762Y-106155
X135152Y-108795
X136040Y-113383
X137233Y-83563
X137246Y-117396
X137327Y-106150
X138176Y-114434
X139642Y-109425
X139803Y-113374
X144472Y-77048
X153638Y-113374
X154645Y-76032
X154689Y-86088
X154689Y-90102
X155452Y-118995
X155839Y-90091
X155845Y-87088
X156363Y-114434
X156436Y-127467
X156902Y-95630
X159814Y-90091
X160956Y-110946
X160957Y-109446
X163086Y-94130
X163091Y-92631
X164263Y-113434
X166987Y-95630
X166989Y-94130
X167218Y-109446
X167252Y-77745
X167402Y-107795
X168247Y-127467
X169856Y-90091
X170990Y-109420
X170991Y-110920
X173365Y-94142
X173581Y-92656
X174513Y-113434
X176843Y-95604
X176952Y-77795
X176984Y-94104
X177302Y-109420
X177652Y-107795
X178458Y-127505
X180081Y-90116
X181164Y-110920
X181188Y-109420
X183322Y-94104
X183552Y-92595
X184541Y-113434
X187118Y-95579
X187182Y-94079
X187398Y-109420
X187452Y-77745
X187902Y-107795
X188541Y-127416
X190249Y-90142
X191464Y-110946
X191500Y-109446
X193672Y-94079
X193734Y-92579
X194791Y-113434
X197584Y-109446
X198402Y-107795
X200002Y-126045
X200213Y-76578
X200276Y-86319
X200467Y-95501
X200652Y-116913
X201552Y-105545
T2
X109839Y-90726
X109839Y-91996
X109839Y-93266
T3
X107722Y-98625
X107722Y-101165
X107722Y-124025
X107722Y-126565
X110262Y-98625
X110262Y-101165
X110262Y-124025
X110262Y-126565
X112802Y-98625
X112802Y-101165
X112802Y-124025
X112802Y-126565
X115342Y-98625
X115342Y-101165
X115342Y-124025
X115342Y-126565
X117882Y-98625
X117882Y-101165
X117882Y-124025
X117882Y-126565
X120422Y-98625
X120422Y-101165
X120422Y-124025
X120422Y-126565
X122962Y-98625
X122962Y-101165
X122962Y-124025
X122962Y-126565
X125502Y-98625
X125502Y-101165
X125502Y-124025
X125502Y-126565
X128042Y-98625
X128042Y-101165
X128042Y-124025
X128042Y-126565
X130582Y-98625
X130582Y-101165
X130582Y-124025
X130582Y-126565
T4
X140552Y-101575
X140622Y-122605
X143052Y-101575
X143122Y-122605
X145552Y-101575
X145622Y-122605
X148122Y-122605
T5
X117231Y-93774
X148952Y-116325
X148962Y-108905
X151492Y-116325
X151502Y-108905
T6
X134960Y-92682
X137500Y-92682
X139354Y-78407
X139354Y-80947
X139354Y-83487
X140040Y-92682
T7
X104932Y-78685
X104932Y-83685
X159122Y-80535
X159322Y-123025
X164202Y-80535
X164402Y-123025
X169292Y-80535
X169472Y-123025
X174372Y-80535
X174552Y-123025
X179452Y-80535
X179632Y-123025
X184532Y-80535
X184712Y-123025
X189622Y-80535
X189792Y-123025
X194702Y-80535
X194872Y-123025
T8
X112131Y-80642
X134731Y-80642
T0
M30
