G04 #@! TF.GenerationSoftware,KiCad,Pcbnew,5.1.11-e4df9d881f~92~ubuntu20.04.1*
G04 #@! TF.CreationDate,2021-10-29T00:11:59+02:00*
G04 #@! TF.ProjectId,CC dimmer low voltage,43432064-696d-46d6-9572-206c6f772076,0.95*
G04 #@! TF.SameCoordinates,Original*
G04 #@! TF.FileFunction,Soldermask,Top*
G04 #@! TF.FilePolarity,Negative*
%FSLAX46Y46*%
G04 Gerber Fmt 4.6, Leading zero omitted, Abs format (unit mm)*
G04 Created by KiCad (PCBNEW 5.1.11-e4df9d881f~92~ubuntu20.04.1) date 2021-10-29 00:11:59*
%MOMM*%
%LPD*%
G01*
G04 APERTURE LIST*
%ADD10C,3.000000*%
%ADD11R,1.500000X0.700000*%
%ADD12C,0.150000*%
%ADD13C,1.400000*%
%ADD14R,1.700000X1.700000*%
%ADD15R,5.400000X2.900000*%
%ADD16R,1.800000X2.500000*%
%ADD17C,3.200000*%
%ADD18R,0.600000X0.450000*%
%ADD19O,1.700000X1.950000*%
%ADD20O,1.905000X2.000000*%
%ADD21R,1.905000X2.000000*%
%ADD22O,1.500000X1.050000*%
%ADD23R,1.500000X1.050000*%
%ADD24R,2.000000X1.905000*%
%ADD25O,2.000000X1.905000*%
%ADD26C,2.600000*%
%ADD27R,2.600000X2.600000*%
G04 APERTURE END LIST*
D10*
X145186400Y-47828200D03*
X122586400Y-47828200D03*
D11*
X185094000Y-74144000D03*
X185094000Y-71144000D03*
X188794000Y-74144000D03*
X188794000Y-71144000D03*
D12*
G36*
X186044000Y-73144000D02*
G01*
X184344000Y-73144000D01*
X184344000Y-72144000D01*
X186044000Y-72144000D01*
X186544000Y-71644000D01*
X187344000Y-71644000D01*
X187844000Y-72144000D01*
X189544000Y-72144000D01*
X189544000Y-73144000D01*
X187844000Y-73144000D01*
X187344000Y-73644000D01*
X186544000Y-73644000D01*
X186044000Y-73144000D01*
G37*
D13*
X132562600Y-83108800D03*
X132562600Y-85648800D03*
X130022600Y-83108800D03*
X130022600Y-85648800D03*
X127482600Y-83108800D03*
X127482600Y-85648800D03*
X124942600Y-83108800D03*
X124942600Y-85648800D03*
X122402600Y-83108800D03*
X122402600Y-85648800D03*
X119862600Y-83108800D03*
X119862600Y-85648800D03*
X117322600Y-83108800D03*
X117322600Y-85648800D03*
X114782600Y-83108800D03*
X114782600Y-85648800D03*
X112242600Y-83108800D03*
X112242600Y-85648800D03*
X109702600Y-83108800D03*
X109702600Y-85648800D03*
X132562600Y-108508800D03*
X132562600Y-111048800D03*
X130022600Y-108508800D03*
X130022600Y-111048800D03*
X127482600Y-108508800D03*
X127482600Y-111048800D03*
X124942600Y-108508800D03*
X124942600Y-111048800D03*
X122402600Y-108508800D03*
X122402600Y-111048800D03*
X119862600Y-108508800D03*
X119862600Y-111048800D03*
X117322600Y-108508800D03*
X117322600Y-111048800D03*
X114782600Y-108508800D03*
X114782600Y-111048800D03*
X112242600Y-108508800D03*
X112242600Y-111048800D03*
X109702600Y-111048800D03*
X109702600Y-108508800D03*
D14*
X149453600Y-106476800D03*
X149479000Y-87604600D03*
D15*
X174879000Y-92078000D03*
X174879000Y-101978000D03*
D16*
X198437500Y-83979000D03*
X198437500Y-87979000D03*
D17*
X212598000Y-43942000D03*
D16*
X170053000Y-87915500D03*
X170053000Y-83915500D03*
G36*
G01*
X157676000Y-77310000D02*
X157676000Y-76360000D01*
G75*
G02*
X157926000Y-76110000I250000J0D01*
G01*
X158426000Y-76110000D01*
G75*
G02*
X158676000Y-76360000I0J-250000D01*
G01*
X158676000Y-77310000D01*
G75*
G02*
X158426000Y-77560000I-250000J0D01*
G01*
X157926000Y-77560000D01*
G75*
G02*
X157676000Y-77310000I0J250000D01*
G01*
G37*
G36*
G01*
X155776000Y-77310000D02*
X155776000Y-76360000D01*
G75*
G02*
X156026000Y-76110000I250000J0D01*
G01*
X156526000Y-76110000D01*
G75*
G02*
X156776000Y-76360000I0J-250000D01*
G01*
X156776000Y-77310000D01*
G75*
G02*
X156526000Y-77560000I-250000J0D01*
G01*
X156026000Y-77560000D01*
G75*
G02*
X155776000Y-77310000I0J250000D01*
G01*
G37*
G36*
G01*
X161851000Y-53627000D02*
X161851000Y-54577000D01*
G75*
G02*
X161601000Y-54827000I-250000J0D01*
G01*
X161101000Y-54827000D01*
G75*
G02*
X160851000Y-54577000I0J250000D01*
G01*
X160851000Y-53627000D01*
G75*
G02*
X161101000Y-53377000I250000J0D01*
G01*
X161601000Y-53377000D01*
G75*
G02*
X161851000Y-53627000I0J-250000D01*
G01*
G37*
G36*
G01*
X159951000Y-53627000D02*
X159951000Y-54577000D01*
G75*
G02*
X159701000Y-54827000I-250000J0D01*
G01*
X159201000Y-54827000D01*
G75*
G02*
X158951000Y-54577000I0J250000D01*
G01*
X158951000Y-53627000D01*
G75*
G02*
X159201000Y-53377000I250000J0D01*
G01*
X159701000Y-53377000D01*
G75*
G02*
X159951000Y-53627000I0J-250000D01*
G01*
G37*
G36*
G01*
X170127000Y-77310000D02*
X170127000Y-76360000D01*
G75*
G02*
X170377000Y-76110000I250000J0D01*
G01*
X170877000Y-76110000D01*
G75*
G02*
X171127000Y-76360000I0J-250000D01*
G01*
X171127000Y-77310000D01*
G75*
G02*
X170877000Y-77560000I-250000J0D01*
G01*
X170377000Y-77560000D01*
G75*
G02*
X170127000Y-77310000I0J250000D01*
G01*
G37*
G36*
G01*
X172027000Y-77310000D02*
X172027000Y-76360000D01*
G75*
G02*
X172277000Y-76110000I250000J0D01*
G01*
X172777000Y-76110000D01*
G75*
G02*
X173027000Y-76360000I0J-250000D01*
G01*
X173027000Y-77310000D01*
G75*
G02*
X172777000Y-77560000I-250000J0D01*
G01*
X172277000Y-77560000D01*
G75*
G02*
X172027000Y-77310000I0J250000D01*
G01*
G37*
G36*
G01*
X176456000Y-53690500D02*
X176456000Y-54640500D01*
G75*
G02*
X176206000Y-54890500I-250000J0D01*
G01*
X175706000Y-54890500D01*
G75*
G02*
X175456000Y-54640500I0J250000D01*
G01*
X175456000Y-53690500D01*
G75*
G02*
X175706000Y-53440500I250000J0D01*
G01*
X176206000Y-53440500D01*
G75*
G02*
X176456000Y-53690500I0J-250000D01*
G01*
G37*
G36*
G01*
X174556000Y-53690500D02*
X174556000Y-54640500D01*
G75*
G02*
X174306000Y-54890500I-250000J0D01*
G01*
X173806000Y-54890500D01*
G75*
G02*
X173556000Y-54640500I0J250000D01*
G01*
X173556000Y-53690500D01*
G75*
G02*
X173806000Y-53440500I250000J0D01*
G01*
X174306000Y-53440500D01*
G75*
G02*
X174556000Y-53690500I0J-250000D01*
G01*
G37*
G36*
G01*
X184605000Y-77310000D02*
X184605000Y-76360000D01*
G75*
G02*
X184855000Y-76110000I250000J0D01*
G01*
X185355000Y-76110000D01*
G75*
G02*
X185605000Y-76360000I0J-250000D01*
G01*
X185605000Y-77310000D01*
G75*
G02*
X185355000Y-77560000I-250000J0D01*
G01*
X184855000Y-77560000D01*
G75*
G02*
X184605000Y-77310000I0J250000D01*
G01*
G37*
G36*
G01*
X186505000Y-77310000D02*
X186505000Y-76360000D01*
G75*
G02*
X186755000Y-76110000I250000J0D01*
G01*
X187255000Y-76110000D01*
G75*
G02*
X187505000Y-76360000I0J-250000D01*
G01*
X187505000Y-77310000D01*
G75*
G02*
X187255000Y-77560000I-250000J0D01*
G01*
X186755000Y-77560000D01*
G75*
G02*
X186505000Y-77310000I0J250000D01*
G01*
G37*
G36*
G01*
X188780000Y-53754000D02*
X188780000Y-54704000D01*
G75*
G02*
X188530000Y-54954000I-250000J0D01*
G01*
X188030000Y-54954000D01*
G75*
G02*
X187780000Y-54704000I0J250000D01*
G01*
X187780000Y-53754000D01*
G75*
G02*
X188030000Y-53504000I250000J0D01*
G01*
X188530000Y-53504000D01*
G75*
G02*
X188780000Y-53754000I0J-250000D01*
G01*
G37*
G36*
G01*
X190680000Y-53754000D02*
X190680000Y-54704000D01*
G75*
G02*
X190430000Y-54954000I-250000J0D01*
G01*
X189930000Y-54954000D01*
G75*
G02*
X189680000Y-54704000I0J250000D01*
G01*
X189680000Y-53754000D01*
G75*
G02*
X189930000Y-53504000I250000J0D01*
G01*
X190430000Y-53504000D01*
G75*
G02*
X190680000Y-53754000I0J-250000D01*
G01*
G37*
G36*
G01*
X200729000Y-77310000D02*
X200729000Y-76360000D01*
G75*
G02*
X200979000Y-76110000I250000J0D01*
G01*
X201479000Y-76110000D01*
G75*
G02*
X201729000Y-76360000I0J-250000D01*
G01*
X201729000Y-77310000D01*
G75*
G02*
X201479000Y-77560000I-250000J0D01*
G01*
X200979000Y-77560000D01*
G75*
G02*
X200729000Y-77310000I0J250000D01*
G01*
G37*
G36*
G01*
X198829000Y-77310000D02*
X198829000Y-76360000D01*
G75*
G02*
X199079000Y-76110000I250000J0D01*
G01*
X199579000Y-76110000D01*
G75*
G02*
X199829000Y-76360000I0J-250000D01*
G01*
X199829000Y-77310000D01*
G75*
G02*
X199579000Y-77560000I-250000J0D01*
G01*
X199079000Y-77560000D01*
G75*
G02*
X198829000Y-77310000I0J250000D01*
G01*
G37*
G36*
G01*
X204904000Y-53754000D02*
X204904000Y-54704000D01*
G75*
G02*
X204654000Y-54954000I-250000J0D01*
G01*
X204154000Y-54954000D01*
G75*
G02*
X203904000Y-54704000I0J250000D01*
G01*
X203904000Y-53754000D01*
G75*
G02*
X204154000Y-53504000I250000J0D01*
G01*
X204654000Y-53504000D01*
G75*
G02*
X204904000Y-53754000I0J-250000D01*
G01*
G37*
G36*
G01*
X203004000Y-53754000D02*
X203004000Y-54704000D01*
G75*
G02*
X202754000Y-54954000I-250000J0D01*
G01*
X202254000Y-54954000D01*
G75*
G02*
X202004000Y-54704000I0J250000D01*
G01*
X202004000Y-53754000D01*
G75*
G02*
X202254000Y-53504000I250000J0D01*
G01*
X202754000Y-53504000D01*
G75*
G02*
X203004000Y-53754000I0J-250000D01*
G01*
G37*
G36*
G01*
X204528000Y-82329000D02*
X204528000Y-83279000D01*
G75*
G02*
X204278000Y-83529000I-250000J0D01*
G01*
X203778000Y-83529000D01*
G75*
G02*
X203528000Y-83279000I0J250000D01*
G01*
X203528000Y-82329000D01*
G75*
G02*
X203778000Y-82079000I250000J0D01*
G01*
X204278000Y-82079000D01*
G75*
G02*
X204528000Y-82329000I0J-250000D01*
G01*
G37*
G36*
G01*
X206428000Y-82329000D02*
X206428000Y-83279000D01*
G75*
G02*
X206178000Y-83529000I-250000J0D01*
G01*
X205678000Y-83529000D01*
G75*
G02*
X205428000Y-83279000I0J250000D01*
G01*
X205428000Y-82329000D01*
G75*
G02*
X205678000Y-82079000I250000J0D01*
G01*
X206178000Y-82079000D01*
G75*
G02*
X206428000Y-82329000I0J-250000D01*
G01*
G37*
G36*
G01*
X203189500Y-105252500D02*
X203189500Y-106202500D01*
G75*
G02*
X202939500Y-106452500I-250000J0D01*
G01*
X202439500Y-106452500D01*
G75*
G02*
X202189500Y-106202500I0J250000D01*
G01*
X202189500Y-105252500D01*
G75*
G02*
X202439500Y-105002500I250000J0D01*
G01*
X202939500Y-105002500D01*
G75*
G02*
X203189500Y-105252500I0J-250000D01*
G01*
G37*
G36*
G01*
X201289500Y-105252500D02*
X201289500Y-106202500D01*
G75*
G02*
X201039500Y-106452500I-250000J0D01*
G01*
X200539500Y-106452500D01*
G75*
G02*
X200289500Y-106202500I0J250000D01*
G01*
X200289500Y-105252500D01*
G75*
G02*
X200539500Y-105002500I250000J0D01*
G01*
X201039500Y-105002500D01*
G75*
G02*
X201289500Y-105252500I0J-250000D01*
G01*
G37*
G36*
G01*
X190177000Y-82329000D02*
X190177000Y-83279000D01*
G75*
G02*
X189927000Y-83529000I-250000J0D01*
G01*
X189427000Y-83529000D01*
G75*
G02*
X189177000Y-83279000I0J250000D01*
G01*
X189177000Y-82329000D01*
G75*
G02*
X189427000Y-82079000I250000J0D01*
G01*
X189927000Y-82079000D01*
G75*
G02*
X190177000Y-82329000I0J-250000D01*
G01*
G37*
G36*
G01*
X192077000Y-82329000D02*
X192077000Y-83279000D01*
G75*
G02*
X191827000Y-83529000I-250000J0D01*
G01*
X191327000Y-83529000D01*
G75*
G02*
X191077000Y-83279000I0J250000D01*
G01*
X191077000Y-82329000D01*
G75*
G02*
X191327000Y-82079000I250000J0D01*
G01*
X191827000Y-82079000D01*
G75*
G02*
X192077000Y-82329000I0J-250000D01*
G01*
G37*
G36*
G01*
X186875000Y-105252500D02*
X186875000Y-106202500D01*
G75*
G02*
X186625000Y-106452500I-250000J0D01*
G01*
X186125000Y-106452500D01*
G75*
G02*
X185875000Y-106202500I0J250000D01*
G01*
X185875000Y-105252500D01*
G75*
G02*
X186125000Y-105002500I250000J0D01*
G01*
X186625000Y-105002500D01*
G75*
G02*
X186875000Y-105252500I0J-250000D01*
G01*
G37*
G36*
G01*
X188775000Y-105252500D02*
X188775000Y-106202500D01*
G75*
G02*
X188525000Y-106452500I-250000J0D01*
G01*
X188025000Y-106452500D01*
G75*
G02*
X187775000Y-106202500I0J250000D01*
G01*
X187775000Y-105252500D01*
G75*
G02*
X188025000Y-105002500I250000J0D01*
G01*
X188525000Y-105002500D01*
G75*
G02*
X188775000Y-105252500I0J-250000D01*
G01*
G37*
G36*
G01*
X177980000Y-82329000D02*
X177980000Y-83279000D01*
G75*
G02*
X177730000Y-83529000I-250000J0D01*
G01*
X177230000Y-83529000D01*
G75*
G02*
X176980000Y-83279000I0J250000D01*
G01*
X176980000Y-82329000D01*
G75*
G02*
X177230000Y-82079000I250000J0D01*
G01*
X177730000Y-82079000D01*
G75*
G02*
X177980000Y-82329000I0J-250000D01*
G01*
G37*
G36*
G01*
X176080000Y-82329000D02*
X176080000Y-83279000D01*
G75*
G02*
X175830000Y-83529000I-250000J0D01*
G01*
X175330000Y-83529000D01*
G75*
G02*
X175080000Y-83279000I0J250000D01*
G01*
X175080000Y-82329000D01*
G75*
G02*
X175330000Y-82079000I250000J0D01*
G01*
X175830000Y-82079000D01*
G75*
G02*
X176080000Y-82329000I0J-250000D01*
G01*
G37*
G36*
G01*
X172651000Y-105252500D02*
X172651000Y-106202500D01*
G75*
G02*
X172401000Y-106452500I-250000J0D01*
G01*
X171901000Y-106452500D01*
G75*
G02*
X171651000Y-106202500I0J250000D01*
G01*
X171651000Y-105252500D01*
G75*
G02*
X171901000Y-105002500I250000J0D01*
G01*
X172401000Y-105002500D01*
G75*
G02*
X172651000Y-105252500I0J-250000D01*
G01*
G37*
G36*
G01*
X174551000Y-105252500D02*
X174551000Y-106202500D01*
G75*
G02*
X174301000Y-106452500I-250000J0D01*
G01*
X173801000Y-106452500D01*
G75*
G02*
X173551000Y-106202500I0J250000D01*
G01*
X173551000Y-105252500D01*
G75*
G02*
X173801000Y-105002500I250000J0D01*
G01*
X174301000Y-105002500D01*
G75*
G02*
X174551000Y-105252500I0J-250000D01*
G01*
G37*
G36*
G01*
X161856000Y-82456000D02*
X161856000Y-83406000D01*
G75*
G02*
X161606000Y-83656000I-250000J0D01*
G01*
X161106000Y-83656000D01*
G75*
G02*
X160856000Y-83406000I0J250000D01*
G01*
X160856000Y-82456000D01*
G75*
G02*
X161106000Y-82206000I250000J0D01*
G01*
X161606000Y-82206000D01*
G75*
G02*
X161856000Y-82456000I0J-250000D01*
G01*
G37*
G36*
G01*
X163756000Y-82456000D02*
X163756000Y-83406000D01*
G75*
G02*
X163506000Y-83656000I-250000J0D01*
G01*
X163006000Y-83656000D01*
G75*
G02*
X162756000Y-83406000I0J250000D01*
G01*
X162756000Y-82456000D01*
G75*
G02*
X163006000Y-82206000I250000J0D01*
G01*
X163506000Y-82206000D01*
G75*
G02*
X163756000Y-82456000I0J-250000D01*
G01*
G37*
G36*
G01*
X160835000Y-105252500D02*
X160835000Y-106202500D01*
G75*
G02*
X160585000Y-106452500I-250000J0D01*
G01*
X160085000Y-106452500D01*
G75*
G02*
X159835000Y-106202500I0J250000D01*
G01*
X159835000Y-105252500D01*
G75*
G02*
X160085000Y-105002500I250000J0D01*
G01*
X160585000Y-105002500D01*
G75*
G02*
X160835000Y-105252500I0J-250000D01*
G01*
G37*
G36*
G01*
X158935000Y-105252500D02*
X158935000Y-106202500D01*
G75*
G02*
X158685000Y-106452500I-250000J0D01*
G01*
X158185000Y-106452500D01*
G75*
G02*
X157935000Y-106202500I0J250000D01*
G01*
X157935000Y-105252500D01*
G75*
G02*
X158185000Y-105002500I250000J0D01*
G01*
X158685000Y-105002500D01*
G75*
G02*
X158935000Y-105252500I0J-250000D01*
G01*
G37*
G36*
G01*
X143312400Y-69789800D02*
X143312400Y-71789800D01*
G75*
G02*
X143062400Y-72039800I-250000J0D01*
G01*
X139562400Y-72039800D01*
G75*
G02*
X139312400Y-71789800I0J250000D01*
G01*
X139312400Y-69789800D01*
G75*
G02*
X139562400Y-69539800I250000J0D01*
G01*
X143062400Y-69539800D01*
G75*
G02*
X143312400Y-69789800I0J-250000D01*
G01*
G37*
G36*
G01*
X135312400Y-69789800D02*
X135312400Y-71789800D01*
G75*
G02*
X135062400Y-72039800I-250000J0D01*
G01*
X131562400Y-72039800D01*
G75*
G02*
X131312400Y-71789800I0J250000D01*
G01*
X131312400Y-69789800D01*
G75*
G02*
X131562400Y-69539800I250000J0D01*
G01*
X135062400Y-69539800D01*
G75*
G02*
X135312400Y-69789800I0J-250000D01*
G01*
G37*
G36*
G01*
X122450000Y-59122400D02*
X122450000Y-58022400D01*
G75*
G02*
X122700000Y-57772400I250000J0D01*
G01*
X125700000Y-57772400D01*
G75*
G02*
X125950000Y-58022400I0J-250000D01*
G01*
X125950000Y-59122400D01*
G75*
G02*
X125700000Y-59372400I-250000J0D01*
G01*
X122700000Y-59372400D01*
G75*
G02*
X122450000Y-59122400I0J250000D01*
G01*
G37*
G36*
G01*
X128050000Y-59122400D02*
X128050000Y-58022400D01*
G75*
G02*
X128300000Y-57772400I250000J0D01*
G01*
X131300000Y-57772400D01*
G75*
G02*
X131550000Y-58022400I0J-250000D01*
G01*
X131550000Y-59122400D01*
G75*
G02*
X131300000Y-59372400I-250000J0D01*
G01*
X128300000Y-59372400D01*
G75*
G02*
X128050000Y-59122400I0J250000D01*
G01*
G37*
G36*
G01*
X109146000Y-58326000D02*
X109146000Y-59276000D01*
G75*
G02*
X108896000Y-59526000I-250000J0D01*
G01*
X108396000Y-59526000D01*
G75*
G02*
X108146000Y-59276000I0J250000D01*
G01*
X108146000Y-58326000D01*
G75*
G02*
X108396000Y-58076000I250000J0D01*
G01*
X108896000Y-58076000D01*
G75*
G02*
X109146000Y-58326000I0J-250000D01*
G01*
G37*
G36*
G01*
X107246000Y-58326000D02*
X107246000Y-59276000D01*
G75*
G02*
X106996000Y-59526000I-250000J0D01*
G01*
X106496000Y-59526000D01*
G75*
G02*
X106246000Y-59276000I0J250000D01*
G01*
X106246000Y-58326000D01*
G75*
G02*
X106496000Y-58076000I250000J0D01*
G01*
X106996000Y-58076000D01*
G75*
G02*
X107246000Y-58326000I0J-250000D01*
G01*
G37*
X163830000Y-75787000D03*
X163830000Y-71787000D03*
X178054000Y-75787000D03*
X178054000Y-71787000D03*
X192405000Y-75660000D03*
X192405000Y-71660000D03*
X206756000Y-71660000D03*
X206756000Y-75660000D03*
X184150000Y-87915500D03*
X184150000Y-83915500D03*
X155956000Y-87915500D03*
X155956000Y-83915500D03*
D18*
X140648400Y-62382400D03*
X138548400Y-62382400D03*
G36*
G01*
X106537600Y-61221000D02*
X107787600Y-61221000D01*
G75*
G02*
X108037600Y-61471000I0J-250000D01*
G01*
X108037600Y-62221000D01*
G75*
G02*
X107787600Y-62471000I-250000J0D01*
G01*
X106537600Y-62471000D01*
G75*
G02*
X106287600Y-62221000I0J250000D01*
G01*
X106287600Y-61471000D01*
G75*
G02*
X106537600Y-61221000I250000J0D01*
G01*
G37*
G36*
G01*
X106537600Y-64021000D02*
X107787600Y-64021000D01*
G75*
G02*
X108037600Y-64271000I0J-250000D01*
G01*
X108037600Y-65021000D01*
G75*
G02*
X107787600Y-65271000I-250000J0D01*
G01*
X106537600Y-65271000D01*
G75*
G02*
X106287600Y-65021000I0J250000D01*
G01*
X106287600Y-64271000D01*
G75*
G02*
X106537600Y-64021000I250000J0D01*
G01*
G37*
G36*
G01*
X123571200Y-65372401D02*
X123571200Y-64472399D01*
G75*
G02*
X123821199Y-64222400I249999J0D01*
G01*
X124521201Y-64222400D01*
G75*
G02*
X124771200Y-64472399I0J-249999D01*
G01*
X124771200Y-65372401D01*
G75*
G02*
X124521201Y-65622400I-249999J0D01*
G01*
X123821199Y-65622400D01*
G75*
G02*
X123571200Y-65372401I0J249999D01*
G01*
G37*
G36*
G01*
X125571200Y-65372401D02*
X125571200Y-64472399D01*
G75*
G02*
X125821199Y-64222400I249999J0D01*
G01*
X126521201Y-64222400D01*
G75*
G02*
X126771200Y-64472399I0J-249999D01*
G01*
X126771200Y-65372401D01*
G75*
G02*
X126521201Y-65622400I-249999J0D01*
G01*
X125821199Y-65622400D01*
G75*
G02*
X125571200Y-65372401I0J249999D01*
G01*
G37*
D17*
X100584000Y-79375000D03*
X212572600Y-115773200D03*
G36*
G01*
X107227000Y-77636200D02*
X107227000Y-76186200D01*
G75*
G02*
X107477000Y-75936200I250000J0D01*
G01*
X108677000Y-75936200D01*
G75*
G02*
X108927000Y-76186200I0J-250000D01*
G01*
X108927000Y-77636200D01*
G75*
G02*
X108677000Y-77886200I-250000J0D01*
G01*
X107477000Y-77886200D01*
G75*
G02*
X107227000Y-77636200I0J250000D01*
G01*
G37*
D19*
X110577000Y-76911200D03*
X113077000Y-76911200D03*
G36*
G01*
X141923400Y-114644000D02*
X141923400Y-113194000D01*
G75*
G02*
X142173400Y-112944000I250000J0D01*
G01*
X143373400Y-112944000D01*
G75*
G02*
X143623400Y-113194000I0J-250000D01*
G01*
X143623400Y-114644000D01*
G75*
G02*
X143373400Y-114894000I-250000J0D01*
G01*
X142173400Y-114894000D01*
G75*
G02*
X141923400Y-114644000I0J250000D01*
G01*
G37*
X145273400Y-113919000D03*
X147773400Y-113919000D03*
X150273400Y-113919000D03*
D14*
X143560800Y-87604600D03*
X143459200Y-106426000D03*
X209423000Y-80010000D03*
X114579400Y-58801000D03*
D15*
X159004000Y-67561000D03*
X159004000Y-57661000D03*
X173228000Y-57661000D03*
X173228000Y-67561000D03*
X187579000Y-57661000D03*
X187579000Y-67561000D03*
X201930000Y-67561000D03*
X201930000Y-57661000D03*
X203263500Y-92141500D03*
X203263500Y-102041500D03*
X189039500Y-92141500D03*
X189039500Y-102041500D03*
X160782000Y-102041500D03*
X160782000Y-92141500D03*
D20*
X142951200Y-58013600D03*
X140411200Y-58013600D03*
D21*
X137871200Y-58013600D03*
G36*
G01*
X152917997Y-70746000D02*
X154168003Y-70746000D01*
G75*
G02*
X154418000Y-70995997I0J-249997D01*
G01*
X154418000Y-71621003D01*
G75*
G02*
X154168003Y-71871000I-249997J0D01*
G01*
X152917997Y-71871000D01*
G75*
G02*
X152668000Y-71621003I0J249997D01*
G01*
X152668000Y-70995997D01*
G75*
G02*
X152917997Y-70746000I249997J0D01*
G01*
G37*
G36*
G01*
X152917997Y-73671000D02*
X154168003Y-73671000D01*
G75*
G02*
X154418000Y-73920997I0J-249997D01*
G01*
X154418000Y-74546003D01*
G75*
G02*
X154168003Y-74796000I-249997J0D01*
G01*
X152917997Y-74796000D01*
G75*
G02*
X152668000Y-74546003I0J249997D01*
G01*
X152668000Y-73920997D01*
G75*
G02*
X152917997Y-73671000I249997J0D01*
G01*
G37*
G36*
G01*
X167141997Y-73671000D02*
X168392003Y-73671000D01*
G75*
G02*
X168642000Y-73920997I0J-249997D01*
G01*
X168642000Y-74546003D01*
G75*
G02*
X168392003Y-74796000I-249997J0D01*
G01*
X167141997Y-74796000D01*
G75*
G02*
X166892000Y-74546003I0J249997D01*
G01*
X166892000Y-73920997D01*
G75*
G02*
X167141997Y-73671000I249997J0D01*
G01*
G37*
G36*
G01*
X167141997Y-70746000D02*
X168392003Y-70746000D01*
G75*
G02*
X168642000Y-70995997I0J-249997D01*
G01*
X168642000Y-71621003D01*
G75*
G02*
X168392003Y-71871000I-249997J0D01*
G01*
X167141997Y-71871000D01*
G75*
G02*
X166892000Y-71621003I0J249997D01*
G01*
X166892000Y-70995997D01*
G75*
G02*
X167141997Y-70746000I249997J0D01*
G01*
G37*
G36*
G01*
X181492997Y-73605500D02*
X182743003Y-73605500D01*
G75*
G02*
X182993000Y-73855497I0J-249997D01*
G01*
X182993000Y-74480503D01*
G75*
G02*
X182743003Y-74730500I-249997J0D01*
G01*
X181492997Y-74730500D01*
G75*
G02*
X181243000Y-74480503I0J249997D01*
G01*
X181243000Y-73855497D01*
G75*
G02*
X181492997Y-73605500I249997J0D01*
G01*
G37*
G36*
G01*
X181492997Y-70680500D02*
X182743003Y-70680500D01*
G75*
G02*
X182993000Y-70930497I0J-249997D01*
G01*
X182993000Y-71555503D01*
G75*
G02*
X182743003Y-71805500I-249997J0D01*
G01*
X181492997Y-71805500D01*
G75*
G02*
X181243000Y-71555503I0J249997D01*
G01*
X181243000Y-70930497D01*
G75*
G02*
X181492997Y-70680500I249997J0D01*
G01*
G37*
G36*
G01*
X195780497Y-70682500D02*
X197030503Y-70682500D01*
G75*
G02*
X197280500Y-70932497I0J-249997D01*
G01*
X197280500Y-71557503D01*
G75*
G02*
X197030503Y-71807500I-249997J0D01*
G01*
X195780497Y-71807500D01*
G75*
G02*
X195530500Y-71557503I0J249997D01*
G01*
X195530500Y-70932497D01*
G75*
G02*
X195780497Y-70682500I249997J0D01*
G01*
G37*
G36*
G01*
X195780497Y-73607500D02*
X197030503Y-73607500D01*
G75*
G02*
X197280500Y-73857497I0J-249997D01*
G01*
X197280500Y-74482503D01*
G75*
G02*
X197030503Y-74732500I-249997J0D01*
G01*
X195780497Y-74732500D01*
G75*
G02*
X195530500Y-74482503I0J249997D01*
G01*
X195530500Y-73857497D01*
G75*
G02*
X195780497Y-73607500I249997J0D01*
G01*
G37*
G36*
G01*
X209349503Y-86095000D02*
X208099497Y-86095000D01*
G75*
G02*
X207849500Y-85845003I0J249997D01*
G01*
X207849500Y-85219997D01*
G75*
G02*
X208099497Y-84970000I249997J0D01*
G01*
X209349503Y-84970000D01*
G75*
G02*
X209599500Y-85219997I0J-249997D01*
G01*
X209599500Y-85845003D01*
G75*
G02*
X209349503Y-86095000I-249997J0D01*
G01*
G37*
G36*
G01*
X209349503Y-89020000D02*
X208099497Y-89020000D01*
G75*
G02*
X207849500Y-88770003I0J249997D01*
G01*
X207849500Y-88144997D01*
G75*
G02*
X208099497Y-87895000I249997J0D01*
G01*
X209349503Y-87895000D01*
G75*
G02*
X209599500Y-88144997I0J-249997D01*
G01*
X209599500Y-88770003D01*
G75*
G02*
X209349503Y-89020000I-249997J0D01*
G01*
G37*
G36*
G01*
X195125503Y-89018000D02*
X193875497Y-89018000D01*
G75*
G02*
X193625500Y-88768003I0J249997D01*
G01*
X193625500Y-88142997D01*
G75*
G02*
X193875497Y-87893000I249997J0D01*
G01*
X195125503Y-87893000D01*
G75*
G02*
X195375500Y-88142997I0J-249997D01*
G01*
X195375500Y-88768003D01*
G75*
G02*
X195125503Y-89018000I-249997J0D01*
G01*
G37*
G36*
G01*
X195125503Y-86093000D02*
X193875497Y-86093000D01*
G75*
G02*
X193625500Y-85843003I0J249997D01*
G01*
X193625500Y-85217997D01*
G75*
G02*
X193875497Y-84968000I249997J0D01*
G01*
X195125503Y-84968000D01*
G75*
G02*
X195375500Y-85217997I0J-249997D01*
G01*
X195375500Y-85843003D01*
G75*
G02*
X195125503Y-86093000I-249997J0D01*
G01*
G37*
G36*
G01*
X180965003Y-86031500D02*
X179714997Y-86031500D01*
G75*
G02*
X179465000Y-85781503I0J249997D01*
G01*
X179465000Y-85156497D01*
G75*
G02*
X179714997Y-84906500I249997J0D01*
G01*
X180965003Y-84906500D01*
G75*
G02*
X181215000Y-85156497I0J-249997D01*
G01*
X181215000Y-85781503D01*
G75*
G02*
X180965003Y-86031500I-249997J0D01*
G01*
G37*
G36*
G01*
X180965003Y-88956500D02*
X179714997Y-88956500D01*
G75*
G02*
X179465000Y-88706503I0J249997D01*
G01*
X179465000Y-88081497D01*
G75*
G02*
X179714997Y-87831500I249997J0D01*
G01*
X180965003Y-87831500D01*
G75*
G02*
X181215000Y-88081497I0J-249997D01*
G01*
X181215000Y-88706503D01*
G75*
G02*
X180965003Y-88956500I-249997J0D01*
G01*
G37*
G36*
G01*
X166741003Y-88956500D02*
X165490997Y-88956500D01*
G75*
G02*
X165241000Y-88706503I0J249997D01*
G01*
X165241000Y-88081497D01*
G75*
G02*
X165490997Y-87831500I249997J0D01*
G01*
X166741003Y-87831500D01*
G75*
G02*
X166991000Y-88081497I0J-249997D01*
G01*
X166991000Y-88706503D01*
G75*
G02*
X166741003Y-88956500I-249997J0D01*
G01*
G37*
G36*
G01*
X166741003Y-86031500D02*
X165490997Y-86031500D01*
G75*
G02*
X165241000Y-85781503I0J249997D01*
G01*
X165241000Y-85156497D01*
G75*
G02*
X165490997Y-84906500I249997J0D01*
G01*
X166741003Y-84906500D01*
G75*
G02*
X166991000Y-85156497I0J-249997D01*
G01*
X166991000Y-85781503D01*
G75*
G02*
X166741003Y-86031500I-249997J0D01*
G01*
G37*
G36*
G01*
X112910198Y-67307400D02*
X113810202Y-67307400D01*
G75*
G02*
X114060200Y-67557398I0J-249998D01*
G01*
X114060200Y-68082402D01*
G75*
G02*
X113810202Y-68332400I-249998J0D01*
G01*
X112910198Y-68332400D01*
G75*
G02*
X112660200Y-68082402I0J249998D01*
G01*
X112660200Y-67557398D01*
G75*
G02*
X112910198Y-67307400I249998J0D01*
G01*
G37*
G36*
G01*
X112910198Y-69132400D02*
X113810202Y-69132400D01*
G75*
G02*
X114060200Y-69382398I0J-249998D01*
G01*
X114060200Y-69907402D01*
G75*
G02*
X113810202Y-70157400I-249998J0D01*
G01*
X112910198Y-70157400D01*
G75*
G02*
X112660200Y-69907402I0J249998D01*
G01*
X112660200Y-69382398D01*
G75*
G02*
X112910198Y-69132400I249998J0D01*
G01*
G37*
G36*
G01*
X134626400Y-61932398D02*
X134626400Y-62832402D01*
G75*
G02*
X134376402Y-63082400I-249998J0D01*
G01*
X133851398Y-63082400D01*
G75*
G02*
X133601400Y-62832402I0J249998D01*
G01*
X133601400Y-61932398D01*
G75*
G02*
X133851398Y-61682400I249998J0D01*
G01*
X134376402Y-61682400D01*
G75*
G02*
X134626400Y-61932398I0J-249998D01*
G01*
G37*
G36*
G01*
X136451400Y-61932398D02*
X136451400Y-62832402D01*
G75*
G02*
X136201402Y-63082400I-249998J0D01*
G01*
X135676398Y-63082400D01*
G75*
G02*
X135426400Y-62832402I0J249998D01*
G01*
X135426400Y-61932398D01*
G75*
G02*
X135676398Y-61682400I249998J0D01*
G01*
X136201402Y-61682400D01*
G75*
G02*
X136451400Y-61932398I0J-249998D01*
G01*
G37*
G36*
G01*
X110446398Y-62329000D02*
X111346402Y-62329000D01*
G75*
G02*
X111596400Y-62578998I0J-249998D01*
G01*
X111596400Y-63104002D01*
G75*
G02*
X111346402Y-63354000I-249998J0D01*
G01*
X110446398Y-63354000D01*
G75*
G02*
X110196400Y-63104002I0J249998D01*
G01*
X110196400Y-62578998D01*
G75*
G02*
X110446398Y-62329000I249998J0D01*
G01*
G37*
G36*
G01*
X110446398Y-64154000D02*
X111346402Y-64154000D01*
G75*
G02*
X111596400Y-64403998I0J-249998D01*
G01*
X111596400Y-64929002D01*
G75*
G02*
X111346402Y-65179000I-249998J0D01*
G01*
X110446398Y-65179000D01*
G75*
G02*
X110196400Y-64929002I0J249998D01*
G01*
X110196400Y-64403998D01*
G75*
G02*
X110446398Y-64154000I249998J0D01*
G01*
G37*
D12*
G36*
X157342000Y-73271000D02*
G01*
X155642000Y-73271000D01*
X155642000Y-72271000D01*
X157342000Y-72271000D01*
X157842000Y-71771000D01*
X158642000Y-71771000D01*
X159142000Y-72271000D01*
X160842000Y-72271000D01*
X160842000Y-73271000D01*
X159142000Y-73271000D01*
X158642000Y-73771000D01*
X157842000Y-73771000D01*
X157342000Y-73271000D01*
G37*
D11*
X160092000Y-71271000D03*
X160092000Y-74271000D03*
X156392000Y-71271000D03*
X156392000Y-74271000D03*
D12*
G36*
X171566000Y-73271000D02*
G01*
X169866000Y-73271000D01*
X169866000Y-72271000D01*
X171566000Y-72271000D01*
X172066000Y-71771000D01*
X172866000Y-71771000D01*
X173366000Y-72271000D01*
X175066000Y-72271000D01*
X175066000Y-73271000D01*
X173366000Y-73271000D01*
X172866000Y-73771000D01*
X172066000Y-73771000D01*
X171566000Y-73271000D01*
G37*
D11*
X174316000Y-71271000D03*
X174316000Y-74271000D03*
X170616000Y-71271000D03*
X170616000Y-74271000D03*
D12*
G36*
X200331500Y-73144000D02*
G01*
X198631500Y-73144000D01*
X198631500Y-72144000D01*
X200331500Y-72144000D01*
X200831500Y-71644000D01*
X201631500Y-71644000D01*
X202131500Y-72144000D01*
X203831500Y-72144000D01*
X203831500Y-73144000D01*
X202131500Y-73144000D01*
X201631500Y-73644000D01*
X200831500Y-73644000D01*
X200331500Y-73144000D01*
G37*
D11*
X203081500Y-71144000D03*
X203081500Y-74144000D03*
X199381500Y-71144000D03*
X199381500Y-74144000D03*
X205875500Y-85431500D03*
X205875500Y-88431500D03*
X202175500Y-85431500D03*
X202175500Y-88431500D03*
D12*
G36*
X204925500Y-86431500D02*
G01*
X206625500Y-86431500D01*
X206625500Y-87431500D01*
X204925500Y-87431500D01*
X204425500Y-87931500D01*
X203625500Y-87931500D01*
X203125500Y-87431500D01*
X201425500Y-87431500D01*
X201425500Y-86431500D01*
X203125500Y-86431500D01*
X203625500Y-85931500D01*
X204425500Y-85931500D01*
X204925500Y-86431500D01*
G37*
D11*
X191524500Y-85431500D03*
X191524500Y-88431500D03*
X187824500Y-85431500D03*
X187824500Y-88431500D03*
D12*
G36*
X190574500Y-86431500D02*
G01*
X192274500Y-86431500D01*
X192274500Y-87431500D01*
X190574500Y-87431500D01*
X190074500Y-87931500D01*
X189274500Y-87931500D01*
X188774500Y-87431500D01*
X187074500Y-87431500D01*
X187074500Y-86431500D01*
X188774500Y-86431500D01*
X189274500Y-85931500D01*
X190074500Y-85931500D01*
X190574500Y-86431500D01*
G37*
D11*
X177491000Y-85431500D03*
X177491000Y-88431500D03*
X173791000Y-85431500D03*
X173791000Y-88431500D03*
D12*
G36*
X176541000Y-86431500D02*
G01*
X178241000Y-86431500D01*
X178241000Y-87431500D01*
X176541000Y-87431500D01*
X176041000Y-87931500D01*
X175241000Y-87931500D01*
X174741000Y-87431500D01*
X173041000Y-87431500D01*
X173041000Y-86431500D01*
X174741000Y-86431500D01*
X175241000Y-85931500D01*
X176041000Y-85931500D01*
X176541000Y-86431500D01*
G37*
G36*
X162317000Y-86431500D02*
G01*
X164017000Y-86431500D01*
X164017000Y-87431500D01*
X162317000Y-87431500D01*
X161817000Y-87931500D01*
X161017000Y-87931500D01*
X160517000Y-87431500D01*
X158817000Y-87431500D01*
X158817000Y-86431500D01*
X160517000Y-86431500D01*
X161017000Y-85931500D01*
X161817000Y-85931500D01*
X162317000Y-86431500D01*
G37*
D11*
X159567000Y-88431500D03*
X159567000Y-85431500D03*
X163267000Y-88431500D03*
X163267000Y-85431500D03*
D22*
X108788200Y-69392800D03*
X108788200Y-68122800D03*
D23*
X108788200Y-70662800D03*
D24*
X126238000Y-75082400D03*
D25*
X126238000Y-72542400D03*
X126238000Y-70002400D03*
D26*
X162162500Y-47815500D03*
D27*
X157162500Y-47815500D03*
D26*
X176450000Y-47815500D03*
D27*
X171450000Y-47815500D03*
D26*
X190801000Y-47752000D03*
D27*
X185801000Y-47752000D03*
D26*
X205152000Y-47752000D03*
D27*
X200152000Y-47752000D03*
X205600300Y-111988600D03*
D26*
X200600300Y-111988600D03*
D27*
X191439800Y-111861600D03*
D26*
X186439800Y-111861600D03*
D27*
X177215800Y-111861600D03*
D26*
X172215800Y-111861600D03*
D27*
X163372800Y-111798100D03*
D26*
X158372800Y-111798100D03*
D27*
X110032800Y-50977800D03*
D26*
X110032800Y-45977800D03*
M02*
