G04 #@! TF.GenerationSoftware,KiCad,Pcbnew,5.1.12-84ad8e8a86~92~ubuntu20.04.1*
G04 #@! TF.CreationDate,2021-11-25T00:21:49+01:00*
G04 #@! TF.ProjectId,CC dimmer low voltage,43432064-696d-46d6-9572-206c6f772076,0.93*
G04 #@! TF.SameCoordinates,Original*
G04 #@! TF.FileFunction,Soldermask,Top*
G04 #@! TF.FilePolarity,Negative*
%FSLAX46Y46*%
G04 Gerber Fmt 4.6, Leading zero omitted, Abs format (unit mm)*
G04 Created by KiCad (PCBNEW 5.1.12-84ad8e8a86~92~ubuntu20.04.1) date 2021-11-25 00:21:49*
%MOMM*%
%LPD*%
G01*
G04 APERTURE LIST*
%ADD10R,0.600000X0.450000*%
%ADD11C,1.400000*%
%ADD12O,2.000000X1.905000*%
%ADD13R,2.000000X1.905000*%
%ADD14C,3.000000*%
%ADD15R,1.700000X1.700000*%
%ADD16C,3.200000*%
%ADD17R,1.800000X2.500000*%
%ADD18O,1.700000X1.950000*%
%ADD19O,1.500000X1.050000*%
%ADD20R,1.500000X1.050000*%
%ADD21R,1.905000X2.000000*%
%ADD22O,1.905000X2.000000*%
%ADD23R,2.600000X2.600000*%
%ADD24C,2.600000*%
%ADD25C,2.500000*%
%ADD26R,2.500000X2.500000*%
%ADD27C,0.150000*%
%ADD28R,1.500000X0.700000*%
%ADD29C,0.900000*%
%ADD30R,0.800000X1.000000*%
G04 APERTURE END LIST*
D10*
X148447400Y-63998600D03*
X146347400Y-63998600D03*
G36*
G01*
X141997000Y-64435001D02*
X141997000Y-63534999D01*
G75*
G02*
X142246999Y-63285000I249999J0D01*
G01*
X142772001Y-63285000D01*
G75*
G02*
X143022000Y-63534999I0J-249999D01*
G01*
X143022000Y-64435001D01*
G75*
G02*
X142772001Y-64685000I-249999J0D01*
G01*
X142246999Y-64685000D01*
G75*
G02*
X141997000Y-64435001I0J249999D01*
G01*
G37*
G36*
G01*
X143822000Y-64435001D02*
X143822000Y-63534999D01*
G75*
G02*
X144071999Y-63285000I249999J0D01*
G01*
X144597001Y-63285000D01*
G75*
G02*
X144847000Y-63534999I0J-249999D01*
G01*
X144847000Y-64435001D01*
G75*
G02*
X144597001Y-64685000I-249999J0D01*
G01*
X144071999Y-64685000D01*
G75*
G02*
X143822000Y-64435001I0J249999D01*
G01*
G37*
D11*
X136522000Y-77775000D03*
X136522000Y-80315000D03*
X133982000Y-77775000D03*
X133982000Y-80315000D03*
X131442000Y-77775000D03*
X131442000Y-80315000D03*
X128902000Y-77775000D03*
X128902000Y-80315000D03*
X126362000Y-77775000D03*
X126362000Y-80315000D03*
X123822000Y-77775000D03*
X123822000Y-80315000D03*
X121282000Y-77775000D03*
X121282000Y-80315000D03*
X118742000Y-77775000D03*
X118742000Y-80315000D03*
X116202000Y-77775000D03*
X116202000Y-80315000D03*
X113662000Y-77775000D03*
X113662000Y-80315000D03*
X136522000Y-103175000D03*
X136522000Y-105715000D03*
X133982000Y-103175000D03*
X133982000Y-105715000D03*
X131442000Y-103175000D03*
X131442000Y-105715000D03*
X128902000Y-103175000D03*
X128902000Y-105715000D03*
X126362000Y-103175000D03*
X126362000Y-105715000D03*
X123822000Y-103175000D03*
X123822000Y-105715000D03*
X121282000Y-103175000D03*
X121282000Y-105715000D03*
X118742000Y-103175000D03*
X118742000Y-105715000D03*
X116202000Y-103175000D03*
X116202000Y-105715000D03*
X113662000Y-105715000D03*
X113662000Y-103175000D03*
D12*
X145796000Y-58703000D03*
X145796000Y-56163000D03*
D13*
X145796000Y-53623000D03*
D14*
X141212000Y-55875000D03*
X118612000Y-55875000D03*
D15*
X159222000Y-96275000D03*
D16*
X102880000Y-107300000D03*
G36*
G01*
X156462000Y-65195000D02*
X154462000Y-65195000D01*
G75*
G02*
X154212000Y-64945000I0J250000D01*
G01*
X154212000Y-61445000D01*
G75*
G02*
X154462000Y-61195000I250000J0D01*
G01*
X156462000Y-61195000D01*
G75*
G02*
X156712000Y-61445000I0J-250000D01*
G01*
X156712000Y-64945000D01*
G75*
G02*
X156462000Y-65195000I-250000J0D01*
G01*
G37*
G36*
G01*
X156462000Y-57195000D02*
X154462000Y-57195000D01*
G75*
G02*
X154212000Y-56945000I0J250000D01*
G01*
X154212000Y-53445000D01*
G75*
G02*
X154462000Y-53195000I250000J0D01*
G01*
X156462000Y-53195000D01*
G75*
G02*
X156712000Y-53445000I0J-250000D01*
G01*
X156712000Y-56945000D01*
G75*
G02*
X156462000Y-57195000I-250000J0D01*
G01*
G37*
G36*
G01*
X121982000Y-74185000D02*
X120882000Y-74185000D01*
G75*
G02*
X120632000Y-73935000I0J250000D01*
G01*
X120632000Y-70935000D01*
G75*
G02*
X120882000Y-70685000I250000J0D01*
G01*
X121982000Y-70685000D01*
G75*
G02*
X122232000Y-70935000I0J-250000D01*
G01*
X122232000Y-73935000D01*
G75*
G02*
X121982000Y-74185000I-250000J0D01*
G01*
G37*
G36*
G01*
X121982000Y-68585000D02*
X120882000Y-68585000D01*
G75*
G02*
X120632000Y-68335000I0J250000D01*
G01*
X120632000Y-65335000D01*
G75*
G02*
X120882000Y-65085000I250000J0D01*
G01*
X121982000Y-65085000D01*
G75*
G02*
X122232000Y-65335000I0J-250000D01*
G01*
X122232000Y-68335000D01*
G75*
G02*
X121982000Y-68585000I-250000J0D01*
G01*
G37*
D17*
X170492000Y-77185000D03*
X170492000Y-73185000D03*
X180762000Y-77205000D03*
X180762000Y-73205000D03*
X190832000Y-77195000D03*
X190832000Y-73195000D03*
X201302000Y-73225000D03*
X201302000Y-77225000D03*
G36*
G01*
X105977000Y-79000000D02*
X105977000Y-77750000D01*
G75*
G02*
X106227000Y-77500000I250000J0D01*
G01*
X106977000Y-77500000D01*
G75*
G02*
X107227000Y-77750000I0J-250000D01*
G01*
X107227000Y-79000000D01*
G75*
G02*
X106977000Y-79250000I-250000J0D01*
G01*
X106227000Y-79250000D01*
G75*
G02*
X105977000Y-79000000I0J250000D01*
G01*
G37*
G36*
G01*
X108777000Y-79000000D02*
X108777000Y-77750000D01*
G75*
G02*
X109027000Y-77500000I250000J0D01*
G01*
X109777000Y-77500000D01*
G75*
G02*
X110027000Y-77750000I0J-250000D01*
G01*
X110027000Y-79000000D01*
G75*
G02*
X109777000Y-79250000I-250000J0D01*
G01*
X109027000Y-79250000D01*
G75*
G02*
X108777000Y-79000000I0J250000D01*
G01*
G37*
G36*
G01*
X109732000Y-75524999D02*
X109732000Y-76425001D01*
G75*
G02*
X109482001Y-76675000I-249999J0D01*
G01*
X108781999Y-76675000D01*
G75*
G02*
X108532000Y-76425001I0J249999D01*
G01*
X108532000Y-75524999D01*
G75*
G02*
X108781999Y-75275000I249999J0D01*
G01*
X109482001Y-75275000D01*
G75*
G02*
X109732000Y-75524999I0J-249999D01*
G01*
G37*
G36*
G01*
X107732000Y-75524999D02*
X107732000Y-76425001D01*
G75*
G02*
X107482001Y-76675000I-249999J0D01*
G01*
X106781999Y-76675000D01*
G75*
G02*
X106532000Y-76425001I0J249999D01*
G01*
X106532000Y-75524999D01*
G75*
G02*
X106781999Y-75275000I249999J0D01*
G01*
X107482001Y-75275000D01*
G75*
G02*
X107732000Y-75524999I0J-249999D01*
G01*
G37*
D16*
X207880000Y-52300000D03*
G36*
G01*
X146242000Y-79310000D02*
X146242000Y-77860000D01*
G75*
G02*
X146492000Y-77610000I250000J0D01*
G01*
X147692000Y-77610000D01*
G75*
G02*
X147942000Y-77860000I0J-250000D01*
G01*
X147942000Y-79310000D01*
G75*
G02*
X147692000Y-79560000I-250000J0D01*
G01*
X146492000Y-79560000D01*
G75*
G02*
X146242000Y-79310000I0J250000D01*
G01*
G37*
D18*
X149592000Y-78585000D03*
X152092000Y-78585000D03*
G36*
G01*
X146132000Y-105040000D02*
X146132000Y-103590000D01*
G75*
G02*
X146382000Y-103340000I250000J0D01*
G01*
X147582000Y-103340000D01*
G75*
G02*
X147832000Y-103590000I0J-250000D01*
G01*
X147832000Y-105040000D01*
G75*
G02*
X147582000Y-105290000I-250000J0D01*
G01*
X146382000Y-105290000D01*
G75*
G02*
X146132000Y-105040000I0J250000D01*
G01*
G37*
X149482000Y-104315000D03*
X151982000Y-104315000D03*
X154482000Y-104315000D03*
D15*
X156672000Y-96275000D03*
X112292000Y-74275000D03*
G36*
G01*
X162896997Y-66230000D02*
X164147003Y-66230000D01*
G75*
G02*
X164397000Y-66479997I0J-249997D01*
G01*
X164397000Y-67105003D01*
G75*
G02*
X164147003Y-67355000I-249997J0D01*
G01*
X162896997Y-67355000D01*
G75*
G02*
X162647000Y-67105003I0J249997D01*
G01*
X162647000Y-66479997D01*
G75*
G02*
X162896997Y-66230000I249997J0D01*
G01*
G37*
G36*
G01*
X162896997Y-69155000D02*
X164147003Y-69155000D01*
G75*
G02*
X164397000Y-69404997I0J-249997D01*
G01*
X164397000Y-70030003D01*
G75*
G02*
X164147003Y-70280000I-249997J0D01*
G01*
X162896997Y-70280000D01*
G75*
G02*
X162647000Y-70030003I0J249997D01*
G01*
X162647000Y-69404997D01*
G75*
G02*
X162896997Y-69155000I249997J0D01*
G01*
G37*
G36*
G01*
X173046997Y-69135000D02*
X174297003Y-69135000D01*
G75*
G02*
X174547000Y-69384997I0J-249997D01*
G01*
X174547000Y-70010003D01*
G75*
G02*
X174297003Y-70260000I-249997J0D01*
G01*
X173046997Y-70260000D01*
G75*
G02*
X172797000Y-70010003I0J249997D01*
G01*
X172797000Y-69384997D01*
G75*
G02*
X173046997Y-69135000I249997J0D01*
G01*
G37*
G36*
G01*
X173046997Y-66210000D02*
X174297003Y-66210000D01*
G75*
G02*
X174547000Y-66459997I0J-249997D01*
G01*
X174547000Y-67085003D01*
G75*
G02*
X174297003Y-67335000I-249997J0D01*
G01*
X173046997Y-67335000D01*
G75*
G02*
X172797000Y-67085003I0J249997D01*
G01*
X172797000Y-66459997D01*
G75*
G02*
X173046997Y-66210000I249997J0D01*
G01*
G37*
G36*
G01*
X183206997Y-69125000D02*
X184457003Y-69125000D01*
G75*
G02*
X184707000Y-69374997I0J-249997D01*
G01*
X184707000Y-70000003D01*
G75*
G02*
X184457003Y-70250000I-249997J0D01*
G01*
X183206997Y-70250000D01*
G75*
G02*
X182957000Y-70000003I0J249997D01*
G01*
X182957000Y-69374997D01*
G75*
G02*
X183206997Y-69125000I249997J0D01*
G01*
G37*
G36*
G01*
X183206997Y-66200000D02*
X184457003Y-66200000D01*
G75*
G02*
X184707000Y-66449997I0J-249997D01*
G01*
X184707000Y-67075003D01*
G75*
G02*
X184457003Y-67325000I-249997J0D01*
G01*
X183206997Y-67325000D01*
G75*
G02*
X182957000Y-67075003I0J249997D01*
G01*
X182957000Y-66449997D01*
G75*
G02*
X183206997Y-66200000I249997J0D01*
G01*
G37*
G36*
G01*
X193446997Y-66200000D02*
X194697003Y-66200000D01*
G75*
G02*
X194947000Y-66449997I0J-249997D01*
G01*
X194947000Y-67075003D01*
G75*
G02*
X194697003Y-67325000I-249997J0D01*
G01*
X193446997Y-67325000D01*
G75*
G02*
X193197000Y-67075003I0J249997D01*
G01*
X193197000Y-66449997D01*
G75*
G02*
X193446997Y-66200000I249997J0D01*
G01*
G37*
G36*
G01*
X193446997Y-69125000D02*
X194697003Y-69125000D01*
G75*
G02*
X194947000Y-69374997I0J-249997D01*
G01*
X194947000Y-70000003D01*
G75*
G02*
X194697003Y-70250000I-249997J0D01*
G01*
X193446997Y-70250000D01*
G75*
G02*
X193197000Y-70000003I0J249997D01*
G01*
X193197000Y-69374997D01*
G75*
G02*
X193446997Y-69125000I249997J0D01*
G01*
G37*
D19*
X137862000Y-68685000D03*
X137862000Y-69955000D03*
D20*
X137862000Y-67415000D03*
D21*
X149152000Y-67985000D03*
D22*
X146612000Y-67985000D03*
X144072000Y-67985000D03*
D23*
X111412000Y-53895000D03*
D24*
X111412000Y-58895000D03*
D25*
X164802000Y-57507000D03*
D26*
X169882000Y-57507000D03*
X180032000Y-57505000D03*
D25*
X174952000Y-57505000D03*
X185102000Y-57495000D03*
D26*
X190182000Y-57495000D03*
X200332000Y-57485000D03*
D25*
X195252000Y-57485000D03*
D27*
G36*
X164392000Y-73835000D02*
G01*
X162692000Y-73835000D01*
X162692000Y-72835000D01*
X164392000Y-72835000D01*
X164892000Y-72335000D01*
X165692000Y-72335000D01*
X166192000Y-72835000D01*
X167892000Y-72835000D01*
X167892000Y-73835000D01*
X166192000Y-73835000D01*
X165692000Y-74335000D01*
X164892000Y-74335000D01*
X164392000Y-73835000D01*
G37*
D28*
X167142000Y-71835000D03*
X167142000Y-74835000D03*
X163442000Y-71835000D03*
X163442000Y-74835000D03*
D27*
G36*
X174822000Y-73835000D02*
G01*
X173122000Y-73835000D01*
X173122000Y-72835000D01*
X174822000Y-72835000D01*
X175322000Y-72335000D01*
X176122000Y-72335000D01*
X176622000Y-72835000D01*
X178322000Y-72835000D01*
X178322000Y-73835000D01*
X176622000Y-73835000D01*
X176122000Y-74335000D01*
X175322000Y-74335000D01*
X174822000Y-73835000D01*
G37*
D28*
X177572000Y-71835000D03*
X177572000Y-74835000D03*
X173872000Y-71835000D03*
X173872000Y-74835000D03*
D27*
G36*
X184882000Y-73825000D02*
G01*
X183182000Y-73825000D01*
X183182000Y-72825000D01*
X184882000Y-72825000D01*
X185382000Y-72325000D01*
X186182000Y-72325000D01*
X186682000Y-72825000D01*
X188382000Y-72825000D01*
X188382000Y-73825000D01*
X186682000Y-73825000D01*
X186182000Y-74325000D01*
X185382000Y-74325000D01*
X184882000Y-73825000D01*
G37*
D28*
X187632000Y-71825000D03*
X187632000Y-74825000D03*
X183932000Y-71825000D03*
X183932000Y-74825000D03*
D27*
G36*
X195032000Y-73825000D02*
G01*
X193332000Y-73825000D01*
X193332000Y-72825000D01*
X195032000Y-72825000D01*
X195532000Y-72325000D01*
X196332000Y-72325000D01*
X196832000Y-72825000D01*
X198532000Y-72825000D01*
X198532000Y-73825000D01*
X196832000Y-73825000D01*
X196332000Y-74325000D01*
X195532000Y-74325000D01*
X195032000Y-73825000D01*
G37*
D28*
X197782000Y-71825000D03*
X197782000Y-74825000D03*
X194082000Y-71825000D03*
X194082000Y-74825000D03*
G36*
G01*
X169317000Y-70285000D02*
X167867000Y-70285000D01*
G75*
G02*
X167492000Y-69910000I0J375000D01*
G01*
X167492000Y-69160000D01*
G75*
G02*
X167867000Y-68785000I375000J0D01*
G01*
X169317000Y-68785000D01*
G75*
G02*
X169692000Y-69160000I0J-375000D01*
G01*
X169692000Y-69910000D01*
G75*
G02*
X169317000Y-70285000I-375000J0D01*
G01*
G37*
G36*
G01*
X169317000Y-63985000D02*
X167867000Y-63985000D01*
G75*
G02*
X167492000Y-63610000I0J375000D01*
G01*
X167492000Y-62860000D01*
G75*
G02*
X167867000Y-62485000I375000J0D01*
G01*
X169317000Y-62485000D01*
G75*
G02*
X169692000Y-62860000I0J-375000D01*
G01*
X169692000Y-63610000D01*
G75*
G02*
X169317000Y-63985000I-375000J0D01*
G01*
G37*
G36*
G01*
X179517000Y-70265000D02*
X178067000Y-70265000D01*
G75*
G02*
X177692000Y-69890000I0J375000D01*
G01*
X177692000Y-69140000D01*
G75*
G02*
X178067000Y-68765000I375000J0D01*
G01*
X179517000Y-68765000D01*
G75*
G02*
X179892000Y-69140000I0J-375000D01*
G01*
X179892000Y-69890000D01*
G75*
G02*
X179517000Y-70265000I-375000J0D01*
G01*
G37*
G36*
G01*
X179517000Y-63965000D02*
X178067000Y-63965000D01*
G75*
G02*
X177692000Y-63590000I0J375000D01*
G01*
X177692000Y-62840000D01*
G75*
G02*
X178067000Y-62465000I375000J0D01*
G01*
X179517000Y-62465000D01*
G75*
G02*
X179892000Y-62840000I0J-375000D01*
G01*
X179892000Y-63590000D01*
G75*
G02*
X179517000Y-63965000I-375000J0D01*
G01*
G37*
G36*
G01*
X189607000Y-63965000D02*
X188157000Y-63965000D01*
G75*
G02*
X187782000Y-63590000I0J375000D01*
G01*
X187782000Y-62840000D01*
G75*
G02*
X188157000Y-62465000I375000J0D01*
G01*
X189607000Y-62465000D01*
G75*
G02*
X189982000Y-62840000I0J-375000D01*
G01*
X189982000Y-63590000D01*
G75*
G02*
X189607000Y-63965000I-375000J0D01*
G01*
G37*
G36*
G01*
X189607000Y-70265000D02*
X188157000Y-70265000D01*
G75*
G02*
X187782000Y-69890000I0J375000D01*
G01*
X187782000Y-69140000D01*
G75*
G02*
X188157000Y-68765000I375000J0D01*
G01*
X189607000Y-68765000D01*
G75*
G02*
X189982000Y-69140000I0J-375000D01*
G01*
X189982000Y-69890000D01*
G75*
G02*
X189607000Y-70265000I-375000J0D01*
G01*
G37*
G36*
G01*
X199997000Y-70275000D02*
X198547000Y-70275000D01*
G75*
G02*
X198172000Y-69900000I0J375000D01*
G01*
X198172000Y-69150000D01*
G75*
G02*
X198547000Y-68775000I375000J0D01*
G01*
X199997000Y-68775000D01*
G75*
G02*
X200372000Y-69150000I0J-375000D01*
G01*
X200372000Y-69900000D01*
G75*
G02*
X199997000Y-70275000I-375000J0D01*
G01*
G37*
G36*
G01*
X199997000Y-63975000D02*
X198547000Y-63975000D01*
G75*
G02*
X198172000Y-63600000I0J375000D01*
G01*
X198172000Y-62850000D01*
G75*
G02*
X198547000Y-62475000I375000J0D01*
G01*
X199997000Y-62475000D01*
G75*
G02*
X200372000Y-62850000I0J-375000D01*
G01*
X200372000Y-63600000D01*
G75*
G02*
X199997000Y-63975000I-375000J0D01*
G01*
G37*
D17*
X195122000Y-87045000D03*
X195122000Y-83045000D03*
X184932000Y-87075000D03*
X184932000Y-83075000D03*
X174752000Y-83075000D03*
X174752000Y-87075000D03*
X164462000Y-83055000D03*
X164462000Y-87055000D03*
G36*
G01*
X196137000Y-89745000D02*
X197587000Y-89745000D01*
G75*
G02*
X197962000Y-90120000I0J-375000D01*
G01*
X197962000Y-90870000D01*
G75*
G02*
X197587000Y-91245000I-375000J0D01*
G01*
X196137000Y-91245000D01*
G75*
G02*
X195762000Y-90870000I0J375000D01*
G01*
X195762000Y-90120000D01*
G75*
G02*
X196137000Y-89745000I375000J0D01*
G01*
G37*
G36*
G01*
X196137000Y-96045000D02*
X197587000Y-96045000D01*
G75*
G02*
X197962000Y-96420000I0J-375000D01*
G01*
X197962000Y-97170000D01*
G75*
G02*
X197587000Y-97545000I-375000J0D01*
G01*
X196137000Y-97545000D01*
G75*
G02*
X195762000Y-97170000I0J375000D01*
G01*
X195762000Y-96420000D01*
G75*
G02*
X196137000Y-96045000I375000J0D01*
G01*
G37*
G36*
G01*
X185937000Y-96045000D02*
X187387000Y-96045000D01*
G75*
G02*
X187762000Y-96420000I0J-375000D01*
G01*
X187762000Y-97170000D01*
G75*
G02*
X187387000Y-97545000I-375000J0D01*
G01*
X185937000Y-97545000D01*
G75*
G02*
X185562000Y-97170000I0J375000D01*
G01*
X185562000Y-96420000D01*
G75*
G02*
X185937000Y-96045000I375000J0D01*
G01*
G37*
G36*
G01*
X185937000Y-89745000D02*
X187387000Y-89745000D01*
G75*
G02*
X187762000Y-90120000I0J-375000D01*
G01*
X187762000Y-90870000D01*
G75*
G02*
X187387000Y-91245000I-375000J0D01*
G01*
X185937000Y-91245000D01*
G75*
G02*
X185562000Y-90870000I0J375000D01*
G01*
X185562000Y-90120000D01*
G75*
G02*
X185937000Y-89745000I375000J0D01*
G01*
G37*
G36*
G01*
X175747000Y-89745000D02*
X177197000Y-89745000D01*
G75*
G02*
X177572000Y-90120000I0J-375000D01*
G01*
X177572000Y-90870000D01*
G75*
G02*
X177197000Y-91245000I-375000J0D01*
G01*
X175747000Y-91245000D01*
G75*
G02*
X175372000Y-90870000I0J375000D01*
G01*
X175372000Y-90120000D01*
G75*
G02*
X175747000Y-89745000I375000J0D01*
G01*
G37*
G36*
G01*
X175747000Y-96045000D02*
X177197000Y-96045000D01*
G75*
G02*
X177572000Y-96420000I0J-375000D01*
G01*
X177572000Y-97170000D01*
G75*
G02*
X177197000Y-97545000I-375000J0D01*
G01*
X175747000Y-97545000D01*
G75*
G02*
X175372000Y-97170000I0J375000D01*
G01*
X175372000Y-96420000D01*
G75*
G02*
X175747000Y-96045000I375000J0D01*
G01*
G37*
G36*
G01*
X165557000Y-96035000D02*
X167007000Y-96035000D01*
G75*
G02*
X167382000Y-96410000I0J-375000D01*
G01*
X167382000Y-97160000D01*
G75*
G02*
X167007000Y-97535000I-375000J0D01*
G01*
X165557000Y-97535000D01*
G75*
G02*
X165182000Y-97160000I0J375000D01*
G01*
X165182000Y-96410000D01*
G75*
G02*
X165557000Y-96035000I375000J0D01*
G01*
G37*
G36*
G01*
X165557000Y-89735000D02*
X167007000Y-89735000D01*
G75*
G02*
X167382000Y-90110000I0J-375000D01*
G01*
X167382000Y-90860000D01*
G75*
G02*
X167007000Y-91235000I-375000J0D01*
G01*
X165557000Y-91235000D01*
G75*
G02*
X165182000Y-90860000I0J375000D01*
G01*
X165182000Y-90110000D01*
G75*
G02*
X165557000Y-89735000I375000J0D01*
G01*
G37*
D26*
X195472000Y-102545000D03*
D25*
X200552000Y-102545000D03*
X190382000Y-102545000D03*
D26*
X185302000Y-102545000D03*
X175132000Y-102545000D03*
D25*
X180212000Y-102545000D03*
X170032000Y-102545000D03*
D26*
X164952000Y-102545000D03*
G36*
G01*
X202577003Y-93850000D02*
X201326997Y-93850000D01*
G75*
G02*
X201077000Y-93600003I0J249997D01*
G01*
X201077000Y-92974997D01*
G75*
G02*
X201326997Y-92725000I249997J0D01*
G01*
X202577003Y-92725000D01*
G75*
G02*
X202827000Y-92974997I0J-249997D01*
G01*
X202827000Y-93600003D01*
G75*
G02*
X202577003Y-93850000I-249997J0D01*
G01*
G37*
G36*
G01*
X202577003Y-90925000D02*
X201326997Y-90925000D01*
G75*
G02*
X201077000Y-90675003I0J249997D01*
G01*
X201077000Y-90049997D01*
G75*
G02*
X201326997Y-89800000I249997J0D01*
G01*
X202577003Y-89800000D01*
G75*
G02*
X202827000Y-90049997I0J-249997D01*
G01*
X202827000Y-90675003D01*
G75*
G02*
X202577003Y-90925000I-249997J0D01*
G01*
G37*
G36*
G01*
X192387003Y-90915000D02*
X191136997Y-90915000D01*
G75*
G02*
X190887000Y-90665003I0J249997D01*
G01*
X190887000Y-90039997D01*
G75*
G02*
X191136997Y-89790000I249997J0D01*
G01*
X192387003Y-89790000D01*
G75*
G02*
X192637000Y-90039997I0J-249997D01*
G01*
X192637000Y-90665003D01*
G75*
G02*
X192387003Y-90915000I-249997J0D01*
G01*
G37*
G36*
G01*
X192387003Y-93840000D02*
X191136997Y-93840000D01*
G75*
G02*
X190887000Y-93590003I0J249997D01*
G01*
X190887000Y-92964997D01*
G75*
G02*
X191136997Y-92715000I249997J0D01*
G01*
X192387003Y-92715000D01*
G75*
G02*
X192637000Y-92964997I0J-249997D01*
G01*
X192637000Y-93590003D01*
G75*
G02*
X192387003Y-93840000I-249997J0D01*
G01*
G37*
G36*
G01*
X182197003Y-90915000D02*
X180946997Y-90915000D01*
G75*
G02*
X180697000Y-90665003I0J249997D01*
G01*
X180697000Y-90039997D01*
G75*
G02*
X180946997Y-89790000I249997J0D01*
G01*
X182197003Y-89790000D01*
G75*
G02*
X182447000Y-90039997I0J-249997D01*
G01*
X182447000Y-90665003D01*
G75*
G02*
X182197003Y-90915000I-249997J0D01*
G01*
G37*
G36*
G01*
X182197003Y-93840000D02*
X180946997Y-93840000D01*
G75*
G02*
X180697000Y-93590003I0J249997D01*
G01*
X180697000Y-92964997D01*
G75*
G02*
X180946997Y-92715000I249997J0D01*
G01*
X182197003Y-92715000D01*
G75*
G02*
X182447000Y-92964997I0J-249997D01*
G01*
X182447000Y-93590003D01*
G75*
G02*
X182197003Y-93840000I-249997J0D01*
G01*
G37*
G36*
G01*
X172027003Y-93790000D02*
X170776997Y-93790000D01*
G75*
G02*
X170527000Y-93540003I0J249997D01*
G01*
X170527000Y-92914997D01*
G75*
G02*
X170776997Y-92665000I249997J0D01*
G01*
X172027003Y-92665000D01*
G75*
G02*
X172277000Y-92914997I0J-249997D01*
G01*
X172277000Y-93540003D01*
G75*
G02*
X172027003Y-93790000I-249997J0D01*
G01*
G37*
G36*
G01*
X172027003Y-90865000D02*
X170776997Y-90865000D01*
G75*
G02*
X170527000Y-90615003I0J249997D01*
G01*
X170527000Y-89989997D01*
G75*
G02*
X170776997Y-89740000I249997J0D01*
G01*
X172027003Y-89740000D01*
G75*
G02*
X172277000Y-89989997I0J-249997D01*
G01*
X172277000Y-90615003D01*
G75*
G02*
X172027003Y-90865000I-249997J0D01*
G01*
G37*
D28*
X202082000Y-85225000D03*
X202082000Y-88225000D03*
X198382000Y-85225000D03*
X198382000Y-88225000D03*
D27*
G36*
X201132000Y-86225000D02*
G01*
X202832000Y-86225000D01*
X202832000Y-87225000D01*
X201132000Y-87225000D01*
X200632000Y-87725000D01*
X199832000Y-87725000D01*
X199332000Y-87225000D01*
X197632000Y-87225000D01*
X197632000Y-86225000D01*
X199332000Y-86225000D01*
X199832000Y-85725000D01*
X200632000Y-85725000D01*
X201132000Y-86225000D01*
G37*
G36*
X190902000Y-86205000D02*
G01*
X192602000Y-86205000D01*
X192602000Y-87205000D01*
X190902000Y-87205000D01*
X190402000Y-87705000D01*
X189602000Y-87705000D01*
X189102000Y-87205000D01*
X187402000Y-87205000D01*
X187402000Y-86205000D01*
X189102000Y-86205000D01*
X189602000Y-85705000D01*
X190402000Y-85705000D01*
X190902000Y-86205000D01*
G37*
D28*
X188152000Y-88205000D03*
X188152000Y-85205000D03*
X191852000Y-88205000D03*
X191852000Y-85205000D03*
X181702000Y-85205000D03*
X181702000Y-88205000D03*
X178002000Y-85205000D03*
X178002000Y-88205000D03*
D27*
G36*
X180752000Y-86205000D02*
G01*
X182452000Y-86205000D01*
X182452000Y-87205000D01*
X180752000Y-87205000D01*
X180252000Y-87705000D01*
X179452000Y-87705000D01*
X178952000Y-87205000D01*
X177252000Y-87205000D01*
X177252000Y-86205000D01*
X178952000Y-86205000D01*
X179452000Y-85705000D01*
X180252000Y-85705000D01*
X180752000Y-86205000D01*
G37*
G36*
X170562000Y-86185000D02*
G01*
X172262000Y-86185000D01*
X172262000Y-87185000D01*
X170562000Y-87185000D01*
X170062000Y-87685000D01*
X169262000Y-87685000D01*
X168762000Y-87185000D01*
X167062000Y-87185000D01*
X167062000Y-86185000D01*
X168762000Y-86185000D01*
X169262000Y-85685000D01*
X170062000Y-85685000D01*
X170562000Y-86185000D01*
G37*
D28*
X167812000Y-88185000D03*
X167812000Y-85185000D03*
X171512000Y-88185000D03*
X171512000Y-85185000D03*
D16*
X102880000Y-52300000D03*
X207880000Y-107300000D03*
G36*
G01*
X162872000Y-77780000D02*
X162872000Y-76830000D01*
G75*
G02*
X163122000Y-76580000I250000J0D01*
G01*
X163622000Y-76580000D01*
G75*
G02*
X163872000Y-76830000I0J-250000D01*
G01*
X163872000Y-77780000D01*
G75*
G02*
X163622000Y-78030000I-250000J0D01*
G01*
X163122000Y-78030000D01*
G75*
G02*
X162872000Y-77780000I0J250000D01*
G01*
G37*
G36*
G01*
X164772000Y-77780000D02*
X164772000Y-76830000D01*
G75*
G02*
X165022000Y-76580000I250000J0D01*
G01*
X165522000Y-76580000D01*
G75*
G02*
X165772000Y-76830000I0J-250000D01*
G01*
X165772000Y-77780000D01*
G75*
G02*
X165522000Y-78030000I-250000J0D01*
G01*
X165022000Y-78030000D01*
G75*
G02*
X164772000Y-77780000I0J250000D01*
G01*
G37*
G36*
G01*
X164017000Y-65445000D02*
X163067000Y-65445000D01*
G75*
G02*
X162817000Y-65195000I0J250000D01*
G01*
X162817000Y-64695000D01*
G75*
G02*
X163067000Y-64445000I250000J0D01*
G01*
X164017000Y-64445000D01*
G75*
G02*
X164267000Y-64695000I0J-250000D01*
G01*
X164267000Y-65195000D01*
G75*
G02*
X164017000Y-65445000I-250000J0D01*
G01*
G37*
G36*
G01*
X164017000Y-63545000D02*
X163067000Y-63545000D01*
G75*
G02*
X162817000Y-63295000I0J250000D01*
G01*
X162817000Y-62795000D01*
G75*
G02*
X163067000Y-62545000I250000J0D01*
G01*
X164017000Y-62545000D01*
G75*
G02*
X164267000Y-62795000I0J-250000D01*
G01*
X164267000Y-63295000D01*
G75*
G02*
X164017000Y-63545000I-250000J0D01*
G01*
G37*
G36*
G01*
X175202000Y-77810000D02*
X175202000Y-76860000D01*
G75*
G02*
X175452000Y-76610000I250000J0D01*
G01*
X175952000Y-76610000D01*
G75*
G02*
X176202000Y-76860000I0J-250000D01*
G01*
X176202000Y-77810000D01*
G75*
G02*
X175952000Y-78060000I-250000J0D01*
G01*
X175452000Y-78060000D01*
G75*
G02*
X175202000Y-77810000I0J250000D01*
G01*
G37*
G36*
G01*
X173302000Y-77810000D02*
X173302000Y-76860000D01*
G75*
G02*
X173552000Y-76610000I250000J0D01*
G01*
X174052000Y-76610000D01*
G75*
G02*
X174302000Y-76860000I0J-250000D01*
G01*
X174302000Y-77810000D01*
G75*
G02*
X174052000Y-78060000I-250000J0D01*
G01*
X173552000Y-78060000D01*
G75*
G02*
X173302000Y-77810000I0J250000D01*
G01*
G37*
G36*
G01*
X174202000Y-63545000D02*
X173252000Y-63545000D01*
G75*
G02*
X173002000Y-63295000I0J250000D01*
G01*
X173002000Y-62795000D01*
G75*
G02*
X173252000Y-62545000I250000J0D01*
G01*
X174202000Y-62545000D01*
G75*
G02*
X174452000Y-62795000I0J-250000D01*
G01*
X174452000Y-63295000D01*
G75*
G02*
X174202000Y-63545000I-250000J0D01*
G01*
G37*
G36*
G01*
X174202000Y-65445000D02*
X173252000Y-65445000D01*
G75*
G02*
X173002000Y-65195000I0J250000D01*
G01*
X173002000Y-64695000D01*
G75*
G02*
X173252000Y-64445000I250000J0D01*
G01*
X174202000Y-64445000D01*
G75*
G02*
X174452000Y-64695000I0J-250000D01*
G01*
X174452000Y-65195000D01*
G75*
G02*
X174202000Y-65445000I-250000J0D01*
G01*
G37*
G36*
G01*
X183352000Y-77845000D02*
X183352000Y-76895000D01*
G75*
G02*
X183602000Y-76645000I250000J0D01*
G01*
X184102000Y-76645000D01*
G75*
G02*
X184352000Y-76895000I0J-250000D01*
G01*
X184352000Y-77845000D01*
G75*
G02*
X184102000Y-78095000I-250000J0D01*
G01*
X183602000Y-78095000D01*
G75*
G02*
X183352000Y-77845000I0J250000D01*
G01*
G37*
G36*
G01*
X185252000Y-77845000D02*
X185252000Y-76895000D01*
G75*
G02*
X185502000Y-76645000I250000J0D01*
G01*
X186002000Y-76645000D01*
G75*
G02*
X186252000Y-76895000I0J-250000D01*
G01*
X186252000Y-77845000D01*
G75*
G02*
X186002000Y-78095000I-250000J0D01*
G01*
X185502000Y-78095000D01*
G75*
G02*
X185252000Y-77845000I0J250000D01*
G01*
G37*
G36*
G01*
X184302000Y-65420000D02*
X183352000Y-65420000D01*
G75*
G02*
X183102000Y-65170000I0J250000D01*
G01*
X183102000Y-64670000D01*
G75*
G02*
X183352000Y-64420000I250000J0D01*
G01*
X184302000Y-64420000D01*
G75*
G02*
X184552000Y-64670000I0J-250000D01*
G01*
X184552000Y-65170000D01*
G75*
G02*
X184302000Y-65420000I-250000J0D01*
G01*
G37*
G36*
G01*
X184302000Y-63520000D02*
X183352000Y-63520000D01*
G75*
G02*
X183102000Y-63270000I0J250000D01*
G01*
X183102000Y-62770000D01*
G75*
G02*
X183352000Y-62520000I250000J0D01*
G01*
X184302000Y-62520000D01*
G75*
G02*
X184552000Y-62770000I0J-250000D01*
G01*
X184552000Y-63270000D01*
G75*
G02*
X184302000Y-63520000I-250000J0D01*
G01*
G37*
G36*
G01*
X195422000Y-77770000D02*
X195422000Y-76820000D01*
G75*
G02*
X195672000Y-76570000I250000J0D01*
G01*
X196172000Y-76570000D01*
G75*
G02*
X196422000Y-76820000I0J-250000D01*
G01*
X196422000Y-77770000D01*
G75*
G02*
X196172000Y-78020000I-250000J0D01*
G01*
X195672000Y-78020000D01*
G75*
G02*
X195422000Y-77770000I0J250000D01*
G01*
G37*
G36*
G01*
X193522000Y-77770000D02*
X193522000Y-76820000D01*
G75*
G02*
X193772000Y-76570000I250000J0D01*
G01*
X194272000Y-76570000D01*
G75*
G02*
X194522000Y-76820000I0J-250000D01*
G01*
X194522000Y-77770000D01*
G75*
G02*
X194272000Y-78020000I-250000J0D01*
G01*
X193772000Y-78020000D01*
G75*
G02*
X193522000Y-77770000I0J250000D01*
G01*
G37*
G36*
G01*
X194602000Y-63520000D02*
X193652000Y-63520000D01*
G75*
G02*
X193402000Y-63270000I0J250000D01*
G01*
X193402000Y-62770000D01*
G75*
G02*
X193652000Y-62520000I250000J0D01*
G01*
X194602000Y-62520000D01*
G75*
G02*
X194852000Y-62770000I0J-250000D01*
G01*
X194852000Y-63270000D01*
G75*
G02*
X194602000Y-63520000I-250000J0D01*
G01*
G37*
G36*
G01*
X194602000Y-65420000D02*
X193652000Y-65420000D01*
G75*
G02*
X193402000Y-65170000I0J250000D01*
G01*
X193402000Y-64670000D01*
G75*
G02*
X193652000Y-64420000I250000J0D01*
G01*
X194602000Y-64420000D01*
G75*
G02*
X194852000Y-64670000I0J-250000D01*
G01*
X194852000Y-65170000D01*
G75*
G02*
X194602000Y-65420000I-250000J0D01*
G01*
G37*
G36*
G01*
X200752000Y-82420000D02*
X200752000Y-83370000D01*
G75*
G02*
X200502000Y-83620000I-250000J0D01*
G01*
X200002000Y-83620000D01*
G75*
G02*
X199752000Y-83370000I0J250000D01*
G01*
X199752000Y-82420000D01*
G75*
G02*
X200002000Y-82170000I250000J0D01*
G01*
X200502000Y-82170000D01*
G75*
G02*
X200752000Y-82420000I0J-250000D01*
G01*
G37*
G36*
G01*
X202652000Y-82420000D02*
X202652000Y-83370000D01*
G75*
G02*
X202402000Y-83620000I-250000J0D01*
G01*
X201902000Y-83620000D01*
G75*
G02*
X201652000Y-83370000I0J250000D01*
G01*
X201652000Y-82420000D01*
G75*
G02*
X201902000Y-82170000I250000J0D01*
G01*
X202402000Y-82170000D01*
G75*
G02*
X202652000Y-82420000I0J-250000D01*
G01*
G37*
G36*
G01*
X201477000Y-96520000D02*
X202427000Y-96520000D01*
G75*
G02*
X202677000Y-96770000I0J-250000D01*
G01*
X202677000Y-97270000D01*
G75*
G02*
X202427000Y-97520000I-250000J0D01*
G01*
X201477000Y-97520000D01*
G75*
G02*
X201227000Y-97270000I0J250000D01*
G01*
X201227000Y-96770000D01*
G75*
G02*
X201477000Y-96520000I250000J0D01*
G01*
G37*
G36*
G01*
X201477000Y-94620000D02*
X202427000Y-94620000D01*
G75*
G02*
X202677000Y-94870000I0J-250000D01*
G01*
X202677000Y-95370000D01*
G75*
G02*
X202427000Y-95620000I-250000J0D01*
G01*
X201477000Y-95620000D01*
G75*
G02*
X201227000Y-95370000I0J250000D01*
G01*
X201227000Y-94870000D01*
G75*
G02*
X201477000Y-94620000I250000J0D01*
G01*
G37*
G36*
G01*
X192412000Y-82320000D02*
X192412000Y-83270000D01*
G75*
G02*
X192162000Y-83520000I-250000J0D01*
G01*
X191662000Y-83520000D01*
G75*
G02*
X191412000Y-83270000I0J250000D01*
G01*
X191412000Y-82320000D01*
G75*
G02*
X191662000Y-82070000I250000J0D01*
G01*
X192162000Y-82070000D01*
G75*
G02*
X192412000Y-82320000I0J-250000D01*
G01*
G37*
G36*
G01*
X190512000Y-82320000D02*
X190512000Y-83270000D01*
G75*
G02*
X190262000Y-83520000I-250000J0D01*
G01*
X189762000Y-83520000D01*
G75*
G02*
X189512000Y-83270000I0J250000D01*
G01*
X189512000Y-82320000D01*
G75*
G02*
X189762000Y-82070000I250000J0D01*
G01*
X190262000Y-82070000D01*
G75*
G02*
X190512000Y-82320000I0J-250000D01*
G01*
G37*
G36*
G01*
X191277000Y-94620000D02*
X192227000Y-94620000D01*
G75*
G02*
X192477000Y-94870000I0J-250000D01*
G01*
X192477000Y-95370000D01*
G75*
G02*
X192227000Y-95620000I-250000J0D01*
G01*
X191277000Y-95620000D01*
G75*
G02*
X191027000Y-95370000I0J250000D01*
G01*
X191027000Y-94870000D01*
G75*
G02*
X191277000Y-94620000I250000J0D01*
G01*
G37*
G36*
G01*
X191277000Y-96520000D02*
X192227000Y-96520000D01*
G75*
G02*
X192477000Y-96770000I0J-250000D01*
G01*
X192477000Y-97270000D01*
G75*
G02*
X192227000Y-97520000I-250000J0D01*
G01*
X191277000Y-97520000D01*
G75*
G02*
X191027000Y-97270000I0J250000D01*
G01*
X191027000Y-96770000D01*
G75*
G02*
X191277000Y-96520000I250000J0D01*
G01*
G37*
G36*
G01*
X182252000Y-82330000D02*
X182252000Y-83280000D01*
G75*
G02*
X182002000Y-83530000I-250000J0D01*
G01*
X181502000Y-83530000D01*
G75*
G02*
X181252000Y-83280000I0J250000D01*
G01*
X181252000Y-82330000D01*
G75*
G02*
X181502000Y-82080000I250000J0D01*
G01*
X182002000Y-82080000D01*
G75*
G02*
X182252000Y-82330000I0J-250000D01*
G01*
G37*
G36*
G01*
X180352000Y-82330000D02*
X180352000Y-83280000D01*
G75*
G02*
X180102000Y-83530000I-250000J0D01*
G01*
X179602000Y-83530000D01*
G75*
G02*
X179352000Y-83280000I0J250000D01*
G01*
X179352000Y-82330000D01*
G75*
G02*
X179602000Y-82080000I250000J0D01*
G01*
X180102000Y-82080000D01*
G75*
G02*
X180352000Y-82330000I0J-250000D01*
G01*
G37*
G36*
G01*
X181077000Y-96545000D02*
X182027000Y-96545000D01*
G75*
G02*
X182277000Y-96795000I0J-250000D01*
G01*
X182277000Y-97295000D01*
G75*
G02*
X182027000Y-97545000I-250000J0D01*
G01*
X181077000Y-97545000D01*
G75*
G02*
X180827000Y-97295000I0J250000D01*
G01*
X180827000Y-96795000D01*
G75*
G02*
X181077000Y-96545000I250000J0D01*
G01*
G37*
G36*
G01*
X181077000Y-94645000D02*
X182027000Y-94645000D01*
G75*
G02*
X182277000Y-94895000I0J-250000D01*
G01*
X182277000Y-95395000D01*
G75*
G02*
X182027000Y-95645000I-250000J0D01*
G01*
X181077000Y-95645000D01*
G75*
G02*
X180827000Y-95395000I0J250000D01*
G01*
X180827000Y-94895000D01*
G75*
G02*
X181077000Y-94645000I250000J0D01*
G01*
G37*
G36*
G01*
X170182000Y-82300000D02*
X170182000Y-83250000D01*
G75*
G02*
X169932000Y-83500000I-250000J0D01*
G01*
X169432000Y-83500000D01*
G75*
G02*
X169182000Y-83250000I0J250000D01*
G01*
X169182000Y-82300000D01*
G75*
G02*
X169432000Y-82050000I250000J0D01*
G01*
X169932000Y-82050000D01*
G75*
G02*
X170182000Y-82300000I0J-250000D01*
G01*
G37*
G36*
G01*
X172082000Y-82300000D02*
X172082000Y-83250000D01*
G75*
G02*
X171832000Y-83500000I-250000J0D01*
G01*
X171332000Y-83500000D01*
G75*
G02*
X171082000Y-83250000I0J250000D01*
G01*
X171082000Y-82300000D01*
G75*
G02*
X171332000Y-82050000I250000J0D01*
G01*
X171832000Y-82050000D01*
G75*
G02*
X172082000Y-82300000I0J-250000D01*
G01*
G37*
G36*
G01*
X170902000Y-94620000D02*
X171852000Y-94620000D01*
G75*
G02*
X172102000Y-94870000I0J-250000D01*
G01*
X172102000Y-95370000D01*
G75*
G02*
X171852000Y-95620000I-250000J0D01*
G01*
X170902000Y-95620000D01*
G75*
G02*
X170652000Y-95370000I0J250000D01*
G01*
X170652000Y-94870000D01*
G75*
G02*
X170902000Y-94620000I250000J0D01*
G01*
G37*
G36*
G01*
X170902000Y-96520000D02*
X171852000Y-96520000D01*
G75*
G02*
X172102000Y-96770000I0J-250000D01*
G01*
X172102000Y-97270000D01*
G75*
G02*
X171852000Y-97520000I-250000J0D01*
G01*
X170902000Y-97520000D01*
G75*
G02*
X170652000Y-97270000I0J250000D01*
G01*
X170652000Y-96770000D01*
G75*
G02*
X170902000Y-96520000I250000J0D01*
G01*
G37*
G36*
G01*
X151032000Y-51420000D02*
X151032000Y-52370000D01*
G75*
G02*
X150782000Y-52620000I-250000J0D01*
G01*
X150282000Y-52620000D01*
G75*
G02*
X150032000Y-52370000I0J250000D01*
G01*
X150032000Y-51420000D01*
G75*
G02*
X150282000Y-51170000I250000J0D01*
G01*
X150782000Y-51170000D01*
G75*
G02*
X151032000Y-51420000I0J-250000D01*
G01*
G37*
G36*
G01*
X152932000Y-51420000D02*
X152932000Y-52370000D01*
G75*
G02*
X152682000Y-52620000I-250000J0D01*
G01*
X152182000Y-52620000D01*
G75*
G02*
X151932000Y-52370000I0J250000D01*
G01*
X151932000Y-51420000D01*
G75*
G02*
X152182000Y-51170000I250000J0D01*
G01*
X152682000Y-51170000D01*
G75*
G02*
X152932000Y-51420000I0J-250000D01*
G01*
G37*
G36*
G01*
X126927000Y-70275000D02*
X125977000Y-70275000D01*
G75*
G02*
X125727000Y-70025000I0J250000D01*
G01*
X125727000Y-69525000D01*
G75*
G02*
X125977000Y-69275000I250000J0D01*
G01*
X126927000Y-69275000D01*
G75*
G02*
X127177000Y-69525000I0J-250000D01*
G01*
X127177000Y-70025000D01*
G75*
G02*
X126927000Y-70275000I-250000J0D01*
G01*
G37*
G36*
G01*
X126927000Y-68375000D02*
X125977000Y-68375000D01*
G75*
G02*
X125727000Y-68125000I0J250000D01*
G01*
X125727000Y-67625000D01*
G75*
G02*
X125977000Y-67375000I250000J0D01*
G01*
X126927000Y-67375000D01*
G75*
G02*
X127177000Y-67625000I0J-250000D01*
G01*
X127177000Y-68125000D01*
G75*
G02*
X126927000Y-68375000I-250000J0D01*
G01*
G37*
G36*
G01*
X125981999Y-75065000D02*
X126882001Y-75065000D01*
G75*
G02*
X127132000Y-75314999I0J-249999D01*
G01*
X127132000Y-75840001D01*
G75*
G02*
X126882001Y-76090000I-249999J0D01*
G01*
X125981999Y-76090000D01*
G75*
G02*
X125732000Y-75840001I0J249999D01*
G01*
X125732000Y-75314999D01*
G75*
G02*
X125981999Y-75065000I249999J0D01*
G01*
G37*
G36*
G01*
X125981999Y-73240000D02*
X126882001Y-73240000D01*
G75*
G02*
X127132000Y-73489999I0J-249999D01*
G01*
X127132000Y-74015001D01*
G75*
G02*
X126882001Y-74265000I-249999J0D01*
G01*
X125981999Y-74265000D01*
G75*
G02*
X125732000Y-74015001I0J249999D01*
G01*
X125732000Y-73489999D01*
G75*
G02*
X125981999Y-73240000I249999J0D01*
G01*
G37*
G36*
G01*
X111942001Y-80400000D02*
X111041999Y-80400000D01*
G75*
G02*
X110792000Y-80150001I0J249999D01*
G01*
X110792000Y-79624999D01*
G75*
G02*
X111041999Y-79375000I249999J0D01*
G01*
X111942001Y-79375000D01*
G75*
G02*
X112192000Y-79624999I0J-249999D01*
G01*
X112192000Y-80150001D01*
G75*
G02*
X111942001Y-80400000I-249999J0D01*
G01*
G37*
G36*
G01*
X111942001Y-78575000D02*
X111041999Y-78575000D01*
G75*
G02*
X110792000Y-78325001I0J249999D01*
G01*
X110792000Y-77799999D01*
G75*
G02*
X111041999Y-77550000I249999J0D01*
G01*
X111942001Y-77550000D01*
G75*
G02*
X112192000Y-77799999I0J-249999D01*
G01*
X112192000Y-78325001D01*
G75*
G02*
X111942001Y-78575000I-249999J0D01*
G01*
G37*
G36*
G01*
X152522000Y-87720000D02*
X152522000Y-86270000D01*
G75*
G02*
X152772000Y-86020000I250000J0D01*
G01*
X153972000Y-86020000D01*
G75*
G02*
X154222000Y-86270000I0J-250000D01*
G01*
X154222000Y-87720000D01*
G75*
G02*
X153972000Y-87970000I-250000J0D01*
G01*
X152772000Y-87970000D01*
G75*
G02*
X152522000Y-87720000I0J250000D01*
G01*
G37*
D18*
X155872000Y-86995000D03*
X158372000Y-86995000D03*
D23*
X111412000Y-64055000D03*
D24*
X111412000Y-69055000D03*
D29*
X102662000Y-73735000D03*
X102662000Y-76735000D03*
D28*
X104422000Y-72985000D03*
X104422000Y-75985000D03*
X104422000Y-77485000D03*
D30*
X101562000Y-71585000D03*
X101562000Y-78885000D03*
X103772000Y-78885000D03*
X103772000Y-71585000D03*
M02*
