M48
METRIC,TZ
T1C0.400
T2C0.750
T3C0.800
T4C0.950
T5C1.000
T6C1.100
T7C1.300
T8C1.500
%
G90
G05
T1
X101482Y-74465
X102122Y-58695
X102162Y-68905
X107892Y-78375
X113342Y-98155
X113402Y-84905
X113402Y-91525
X118722Y-69595
X121272Y-108715
X121372Y-98135
X121422Y-91555
X122892Y-52175
X123012Y-59845
X124072Y-69575
X125512Y-88575
X126992Y-83225
X130252Y-56265
X132422Y-69665
X132802Y-88025
X133242Y-109375
X133317Y-100060
X133322Y-99060
X134892Y-75095
X135262Y-95885
X136852Y-51985
X136912Y-59725
X138422Y-104375
X139042Y-76475
X140112Y-72705
X143562Y-61845
X144392Y-97705
X145372Y-93195
X147822Y-94825
X147972Y-109335
X148912Y-50135
X152272Y-55635
X155672Y-81875
X155872Y-90155
X158602Y-80135
X159402Y-55755
X159412Y-108905
X160072Y-93475
X160122Y-101395
X160812Y-87065
X160982Y-90825
X161192Y-82445
X161332Y-77455
X162022Y-91835
X163952Y-79855
X164332Y-94645
X164802Y-50465
X165292Y-75265
X166272Y-87105
X166382Y-88835
X167012Y-70425
X167302Y-82975
X167412Y-54615
X167442Y-80065
X167562Y-105415
X167612Y-77405
X168392Y-93345
X169662Y-84625
X170142Y-109345
X170592Y-65165
X172272Y-77455
X172462Y-54565
X172612Y-105415
X172642Y-80045
X173062Y-83005
X174202Y-94775
X174922Y-50465
X175722Y-75265
X176552Y-87055
X176607Y-88700
X177262Y-70465
X177562Y-54615
X177592Y-82935
X177772Y-80025
X177812Y-105465
X177912Y-77475
X178322Y-93345
X179852Y-84635
X180402Y-109345
X180722Y-65165
X182402Y-77425
X182662Y-54615
X182812Y-105515
X182832Y-80125
X183242Y-83035
X184402Y-94795
X185162Y-50465
X185772Y-75275
X186717Y-88690
X186722Y-87035
X187342Y-70445
X187712Y-54615
X187782Y-82915
X187912Y-105515
X187952Y-80005
X188062Y-77425
X188532Y-93355
X188872Y-73155
X190002Y-84655
X190432Y-109345
X191072Y-65165
X192542Y-77355
X192762Y-54615
X192912Y-105515
X192962Y-80155
X193402Y-83005
X194552Y-94775
X195152Y-50535
X195912Y-75265
X196892Y-87085
X196962Y-88715
X197702Y-70445
X197762Y-54615
X197942Y-82915
X198062Y-105515
X198202Y-79985
X198272Y-77375
X198612Y-93395
X199332Y-73135
X200232Y-84675
X200442Y-66415
X200632Y-109175
X203332Y-80255
X203442Y-77405
X203622Y-82945
X207232Y-58795
X207332Y-101445
X207372Y-92105
X207372Y-97055
X207382Y-74685
X207382Y-80335
X207382Y-86225
X207442Y-69045
X207462Y-63845
T2
X137862Y-67415
X137862Y-68685
X137862Y-69955
T3
X113662Y-77775
X113662Y-80315
X113662Y-103175
X113662Y-105715
X116202Y-77775
X116202Y-80315
X116202Y-103175
X116202Y-105715
X118742Y-77775
X118742Y-80315
X118742Y-103175
X118742Y-105715
X121282Y-77775
X121282Y-80315
X121282Y-103175
X121282Y-105715
X123822Y-77775
X123822Y-80315
X123822Y-103175
X123822Y-105715
X126362Y-77775
X126362Y-80315
X126362Y-103175
X126362Y-105715
X128902Y-77775
X128902Y-80315
X128902Y-103175
X128902Y-105715
X131442Y-77775
X131442Y-80315
X131442Y-103175
X131442Y-105715
X133982Y-77775
X133982Y-80315
X133982Y-103175
X133982Y-105715
X136522Y-77775
X136522Y-80315
X136522Y-103175
X136522Y-105715
T4
X146982Y-104315
X147092Y-78585
X149482Y-104315
X149592Y-78585
X151982Y-104315
X152092Y-78585
X153372Y-86995
X154482Y-104315
X155872Y-86995
X158372Y-86995
T5
X112292Y-74275
X156672Y-96275
X159222Y-96275
T6
X144072Y-67985
X145796Y-53623
X145796Y-56163
X145796Y-58703
X146612Y-67985
X149152Y-67985
T7
X111412Y-53895
X111412Y-58895
X111412Y-64055
X111412Y-69055
X164802Y-57507
X164952Y-102545
X169882Y-57507
X170032Y-102545
X174952Y-57505
X175132Y-102545
X180032Y-57505
X180212Y-102545
X185102Y-57495
X185302Y-102545
X190182Y-57495
X190382Y-102545
X195252Y-57485
X195472Y-102545
X200332Y-57485
X200552Y-102545
T8
X118612Y-55875
X141212Y-55875
T0
M30
