G04 #@! TF.GenerationSoftware,KiCad,Pcbnew,5.1.12-84ad8e8a86~92~ubuntu20.04.1*
G04 #@! TF.CreationDate,2021-11-25T00:21:49+01:00*
G04 #@! TF.ProjectId,CC dimmer low voltage,43432064-696d-46d6-9572-206c6f772076,0.93*
G04 #@! TF.SameCoordinates,Original*
G04 #@! TF.FileFunction,Copper,L2,Bot*
G04 #@! TF.FilePolarity,Positive*
%FSLAX46Y46*%
G04 Gerber Fmt 4.6, Leading zero omitted, Abs format (unit mm)*
G04 Created by KiCad (PCBNEW 5.1.12-84ad8e8a86~92~ubuntu20.04.1) date 2021-11-25 00:21:49*
%MOMM*%
%LPD*%
G01*
G04 APERTURE LIST*
G04 #@! TA.AperFunction,ComponentPad*
%ADD10C,1.400000*%
G04 #@! TD*
G04 #@! TA.AperFunction,ComponentPad*
%ADD11O,2.000000X1.905000*%
G04 #@! TD*
G04 #@! TA.AperFunction,ComponentPad*
%ADD12R,2.000000X1.905000*%
G04 #@! TD*
G04 #@! TA.AperFunction,ComponentPad*
%ADD13C,3.000000*%
G04 #@! TD*
G04 #@! TA.AperFunction,ComponentPad*
%ADD14R,1.700000X1.700000*%
G04 #@! TD*
G04 #@! TA.AperFunction,ComponentPad*
%ADD15O,1.700000X1.950000*%
G04 #@! TD*
G04 #@! TA.AperFunction,ComponentPad*
%ADD16O,1.500000X1.050000*%
G04 #@! TD*
G04 #@! TA.AperFunction,ComponentPad*
%ADD17R,1.500000X1.050000*%
G04 #@! TD*
G04 #@! TA.AperFunction,ComponentPad*
%ADD18R,1.905000X2.000000*%
G04 #@! TD*
G04 #@! TA.AperFunction,ComponentPad*
%ADD19O,1.905000X2.000000*%
G04 #@! TD*
G04 #@! TA.AperFunction,ComponentPad*
%ADD20R,2.600000X2.600000*%
G04 #@! TD*
G04 #@! TA.AperFunction,ComponentPad*
%ADD21C,2.600000*%
G04 #@! TD*
G04 #@! TA.AperFunction,ComponentPad*
%ADD22C,2.500000*%
G04 #@! TD*
G04 #@! TA.AperFunction,ComponentPad*
%ADD23R,2.500000X2.500000*%
G04 #@! TD*
G04 #@! TA.AperFunction,ViaPad*
%ADD24C,0.800000*%
G04 #@! TD*
G04 #@! TA.AperFunction,Conductor*
%ADD25C,0.800000*%
G04 #@! TD*
G04 #@! TA.AperFunction,Conductor*
%ADD26C,0.254000*%
G04 #@! TD*
G04 #@! TA.AperFunction,Conductor*
%ADD27C,0.150000*%
G04 #@! TD*
G04 APERTURE END LIST*
D10*
X136522000Y-77775000D03*
X136522000Y-80315000D03*
X133982000Y-77775000D03*
X133982000Y-80315000D03*
X131442000Y-77775000D03*
X131442000Y-80315000D03*
X128902000Y-77775000D03*
X128902000Y-80315000D03*
X126362000Y-77775000D03*
X126362000Y-80315000D03*
X123822000Y-77775000D03*
X123822000Y-80315000D03*
X121282000Y-77775000D03*
X121282000Y-80315000D03*
X118742000Y-77775000D03*
X118742000Y-80315000D03*
X116202000Y-77775000D03*
X116202000Y-80315000D03*
X113662000Y-77775000D03*
X113662000Y-80315000D03*
X136522000Y-103175000D03*
X136522000Y-105715000D03*
X133982000Y-103175000D03*
X133982000Y-105715000D03*
X131442000Y-103175000D03*
X131442000Y-105715000D03*
X128902000Y-103175000D03*
X128902000Y-105715000D03*
X126362000Y-103175000D03*
X126362000Y-105715000D03*
X123822000Y-103175000D03*
X123822000Y-105715000D03*
X121282000Y-103175000D03*
X121282000Y-105715000D03*
X118742000Y-103175000D03*
X118742000Y-105715000D03*
X116202000Y-103175000D03*
X116202000Y-105715000D03*
X113662000Y-105715000D03*
X113662000Y-103175000D03*
D11*
X145796000Y-58703000D03*
X145796000Y-56163000D03*
D12*
X145796000Y-53623000D03*
D13*
X141212000Y-55875000D03*
X118612000Y-55875000D03*
D14*
X159222000Y-96275000D03*
G04 #@! TA.AperFunction,ComponentPad*
G36*
G01*
X146242000Y-79310000D02*
X146242000Y-77860000D01*
G75*
G02*
X146492000Y-77610000I250000J0D01*
G01*
X147692000Y-77610000D01*
G75*
G02*
X147942000Y-77860000I0J-250000D01*
G01*
X147942000Y-79310000D01*
G75*
G02*
X147692000Y-79560000I-250000J0D01*
G01*
X146492000Y-79560000D01*
G75*
G02*
X146242000Y-79310000I0J250000D01*
G01*
G37*
G04 #@! TD.AperFunction*
D15*
X149592000Y-78585000D03*
X152092000Y-78585000D03*
G04 #@! TA.AperFunction,ComponentPad*
G36*
G01*
X146132000Y-105040000D02*
X146132000Y-103590000D01*
G75*
G02*
X146382000Y-103340000I250000J0D01*
G01*
X147582000Y-103340000D01*
G75*
G02*
X147832000Y-103590000I0J-250000D01*
G01*
X147832000Y-105040000D01*
G75*
G02*
X147582000Y-105290000I-250000J0D01*
G01*
X146382000Y-105290000D01*
G75*
G02*
X146132000Y-105040000I0J250000D01*
G01*
G37*
G04 #@! TD.AperFunction*
X149482000Y-104315000D03*
X151982000Y-104315000D03*
X154482000Y-104315000D03*
D14*
X156672000Y-96275000D03*
X112292000Y-74275000D03*
D16*
X137862000Y-68685000D03*
X137862000Y-69955000D03*
D17*
X137862000Y-67415000D03*
D18*
X149152000Y-67985000D03*
D19*
X146612000Y-67985000D03*
X144072000Y-67985000D03*
D20*
X111412000Y-53895000D03*
D21*
X111412000Y-58895000D03*
D22*
X164802000Y-57507000D03*
D23*
X169882000Y-57507000D03*
X180032000Y-57505000D03*
D22*
X174952000Y-57505000D03*
X185102000Y-57495000D03*
D23*
X190182000Y-57495000D03*
X200332000Y-57485000D03*
D22*
X195252000Y-57485000D03*
D23*
X195472000Y-102545000D03*
D22*
X200552000Y-102545000D03*
X190382000Y-102545000D03*
D23*
X185302000Y-102545000D03*
X175132000Y-102545000D03*
D22*
X180212000Y-102545000D03*
X170032000Y-102545000D03*
D23*
X164952000Y-102545000D03*
G04 #@! TA.AperFunction,ComponentPad*
G36*
G01*
X152522000Y-87720000D02*
X152522000Y-86270000D01*
G75*
G02*
X152772000Y-86020000I250000J0D01*
G01*
X153972000Y-86020000D01*
G75*
G02*
X154222000Y-86270000I0J-250000D01*
G01*
X154222000Y-87720000D01*
G75*
G02*
X153972000Y-87970000I-250000J0D01*
G01*
X152772000Y-87970000D01*
G75*
G02*
X152522000Y-87720000I0J250000D01*
G01*
G37*
G04 #@! TD.AperFunction*
D15*
X155872000Y-86995000D03*
X158372000Y-86995000D03*
D20*
X111412000Y-64055000D03*
D21*
X111412000Y-69055000D03*
D24*
X207232000Y-58795000D03*
X207442000Y-69045000D03*
X207382000Y-80335000D03*
X207332000Y-101445000D03*
X207372000Y-92105000D03*
X160072000Y-93475000D03*
X113342000Y-98155000D03*
X166272000Y-87105000D03*
X176552000Y-87055000D03*
X186722000Y-87035000D03*
X196892000Y-87085000D03*
X199332000Y-73135000D03*
X188872000Y-73155000D03*
X135262000Y-95885000D03*
X113402000Y-91525000D03*
X121372000Y-98135000D03*
X159412000Y-108905000D03*
X178322000Y-93345000D03*
X168392000Y-93345000D03*
X188532000Y-93355000D03*
X198612000Y-93395000D03*
X160122000Y-101395000D03*
X172612000Y-105415000D03*
X167562000Y-105415000D03*
X177812000Y-105465000D03*
X182812000Y-105515000D03*
X187912000Y-105515000D03*
X192912000Y-105515000D03*
X198062000Y-105515000D03*
X167412000Y-54615000D03*
X172462000Y-54565000D03*
X177562000Y-54615000D03*
X182662000Y-54615000D03*
X187712000Y-54615000D03*
X192762000Y-54615000D03*
X197762000Y-54615000D03*
X121272000Y-108715000D03*
X138422000Y-104375000D03*
X185772000Y-75275000D03*
X175722000Y-75265000D03*
X195912000Y-75265000D03*
X125512000Y-88575000D03*
X132802000Y-88025000D03*
X169662000Y-84625000D03*
X179852000Y-84635000D03*
X190002000Y-84655000D03*
X200232000Y-84675000D03*
X200442000Y-66415000D03*
X191072000Y-65165000D03*
X180722000Y-65165000D03*
X170592000Y-65165000D03*
X174202000Y-94775000D03*
X184402000Y-94795000D03*
X194552000Y-94775000D03*
X207372000Y-97055000D03*
X207382000Y-86225000D03*
X207382000Y-74685000D03*
X207462000Y-63845000D03*
X113402000Y-84905000D03*
X121422000Y-91555000D03*
X164332000Y-94645000D03*
X144392000Y-97705000D03*
X133242000Y-109375000D03*
X147972000Y-109335000D03*
X170142000Y-109345000D03*
X180402000Y-109345000D03*
X190432000Y-109345000D03*
X200632000Y-109175000D03*
X164802000Y-50465000D03*
X174922000Y-50465000D03*
X185162000Y-50465000D03*
X195152000Y-50535000D03*
X165292000Y-75265000D03*
X107892000Y-78375000D03*
X102122000Y-58695000D03*
X102162000Y-68905000D03*
X118722000Y-69595000D03*
X124072000Y-69575000D03*
X132422000Y-69665000D03*
X140112000Y-72705000D03*
X155672000Y-81875000D03*
X122892000Y-52175000D03*
X136852000Y-51985000D03*
X136912000Y-59725000D03*
X123012000Y-59845000D03*
X130252000Y-56265000D03*
X145372000Y-93195000D03*
X148912000Y-50135000D03*
X152272000Y-55635000D03*
X159402000Y-55755000D03*
X101482000Y-74465000D03*
X134892000Y-75095000D03*
X203332000Y-80255000D03*
X198202000Y-79985000D03*
X187952000Y-80005000D03*
X177772000Y-80025000D03*
X167442000Y-80065000D03*
X161332000Y-77455000D03*
X198272000Y-77375000D03*
X197942000Y-82915000D03*
X187782000Y-82915000D03*
X188062000Y-77425000D03*
X192962000Y-80155000D03*
X182832000Y-80125000D03*
X177912000Y-77475000D03*
X177592000Y-82935000D03*
X172642000Y-80045000D03*
X167612000Y-77405000D03*
X167302000Y-82975000D03*
X163952000Y-79855000D03*
X161192000Y-82445000D03*
X182402000Y-77425000D03*
X192542000Y-77355000D03*
X193402000Y-83005000D03*
X183242000Y-83035000D03*
X173062000Y-83005000D03*
X203622000Y-82945000D03*
X203442000Y-77405000D03*
X158602000Y-80135000D03*
X172272000Y-77455000D03*
X139041999Y-76474999D03*
X133316990Y-100059990D03*
X133322000Y-99059980D03*
X167012000Y-70425000D03*
X126992000Y-83225000D03*
X177262000Y-70465000D03*
X187342000Y-70445000D03*
X197702000Y-70445000D03*
X196962000Y-88715000D03*
X162022000Y-91835030D03*
X160982000Y-90825000D03*
X186717000Y-88690000D03*
X176607000Y-88700000D03*
X160812011Y-87065011D03*
X166382000Y-88835000D03*
X143562000Y-61845000D03*
X155872000Y-90155000D03*
X147822001Y-94824999D03*
D25*
X134892000Y-70105000D02*
X134892000Y-75095000D01*
X136312000Y-68685000D02*
X134892000Y-70105000D01*
X137862000Y-68685000D02*
X136312000Y-68685000D01*
X147092000Y-78585000D02*
X147092000Y-79555000D01*
X153372000Y-85835000D02*
X153372000Y-86995000D01*
X147092000Y-79555000D02*
X153372000Y-85835000D01*
X121282000Y-77775000D02*
X121282000Y-76515000D01*
X121322001Y-76474999D02*
X139041999Y-76474999D01*
X121282000Y-76515000D02*
X121322001Y-76474999D01*
X128902000Y-102409228D02*
X129526228Y-101785000D01*
X129676228Y-101635000D02*
X128902000Y-102409228D01*
X128902000Y-103175000D02*
X128902000Y-102409228D01*
X129676228Y-101635000D02*
X146432000Y-101635000D01*
X146982000Y-102185000D02*
X146982000Y-104315000D01*
X146432000Y-101635000D02*
X146982000Y-102185000D01*
X149482000Y-100555000D02*
X149482000Y-104315000D01*
X148986990Y-100059990D02*
X149482000Y-100555000D01*
X133316990Y-100059990D02*
X148986990Y-100059990D01*
X151982000Y-99395000D02*
X151982000Y-104315000D01*
X151646980Y-99059980D02*
X151982000Y-99395000D01*
X133322000Y-99059980D02*
X151646980Y-99059980D01*
X138597774Y-83225000D02*
X138607774Y-83235000D01*
X126992000Y-83225000D02*
X138597774Y-83225000D01*
X167012000Y-70425000D02*
X152492000Y-70425000D01*
X153152000Y-70425000D02*
X152492000Y-70425000D01*
X138617775Y-83225000D02*
X138597774Y-83225000D01*
X143536357Y-78306418D02*
X138617775Y-83225000D01*
X143536357Y-71822189D02*
X143536357Y-78306418D01*
X144933546Y-70425000D02*
X143536357Y-71822189D01*
X152492000Y-70425000D02*
X144933546Y-70425000D01*
X167491992Y-69424990D02*
X168532002Y-70465000D01*
X124332000Y-82225000D02*
X138203548Y-82225000D01*
X168532002Y-70465000D02*
X177262000Y-70465000D01*
X123822000Y-81715000D02*
X124332000Y-82225000D01*
X123822000Y-80315000D02*
X123822000Y-81715000D01*
X164451992Y-66384990D02*
X167491992Y-69424990D01*
X143428930Y-66384990D02*
X164451992Y-66384990D01*
X142519490Y-77787510D02*
X142519490Y-67294430D01*
X142519490Y-67294430D02*
X143428930Y-66384990D01*
X138203548Y-82103452D02*
X142519490Y-77787510D01*
X138203548Y-82225000D02*
X138203548Y-82103452D01*
X121282000Y-101975000D02*
X121282000Y-103175000D01*
X144536367Y-78720633D02*
X121282000Y-101975000D01*
X144536367Y-72236406D02*
X144536367Y-78720633D01*
X145197773Y-71575000D02*
X144536367Y-72236406D01*
X177632002Y-71575000D02*
X145197773Y-71575000D01*
X178782002Y-70425000D02*
X177632002Y-71575000D01*
X187322000Y-70425000D02*
X178782002Y-70425000D01*
X187342000Y-70445000D02*
X187322000Y-70425000D01*
X145536377Y-79773525D02*
X123822000Y-101487902D01*
X123822000Y-101487902D02*
X123822000Y-103175000D01*
X177996377Y-72650623D02*
X145536377Y-72650623D01*
X179201990Y-71445010D02*
X177996377Y-72650623D01*
X187756217Y-71445010D02*
X179201990Y-71445010D01*
X145536377Y-72650623D02*
X145536377Y-79773525D01*
X188756227Y-70445000D02*
X187756217Y-71445010D01*
X197702000Y-70445000D02*
X188756227Y-70445000D01*
X196962000Y-88715000D02*
X193841970Y-91835030D01*
X193841970Y-91835030D02*
X167624651Y-91835030D01*
X167624651Y-91835030D02*
X162022000Y-91835030D01*
X160992020Y-90835020D02*
X160982000Y-90825000D01*
X186717000Y-88690000D02*
X184571980Y-90835020D01*
X184571980Y-90835020D02*
X160992020Y-90835020D01*
X161802010Y-89835010D02*
X175471990Y-89835010D01*
X161791999Y-89824999D02*
X161802010Y-89835010D01*
X160022001Y-89824999D02*
X161791999Y-89824999D01*
X136492000Y-91845000D02*
X158002000Y-91845000D01*
X175471990Y-89835010D02*
X176607000Y-88700000D01*
X126362000Y-101975000D02*
X136492000Y-91845000D01*
X158002000Y-91845000D02*
X160022001Y-89824999D01*
X126362000Y-103175000D02*
X126362000Y-101975000D01*
X162582000Y-88835000D02*
X160812011Y-87065011D01*
X166382000Y-88835000D02*
X162582000Y-88835000D01*
X145796000Y-53623000D02*
X144864000Y-53623000D01*
X144864000Y-53623000D02*
X143562000Y-54925000D01*
X143562000Y-54925000D02*
X143562000Y-61845000D01*
X143562000Y-61845000D02*
X143562000Y-61845000D01*
X155872000Y-86995000D02*
X155872000Y-90155000D01*
X155872000Y-90155000D02*
X155872000Y-90155000D01*
X159222000Y-96275000D02*
X159222000Y-94895000D01*
X159151999Y-94824999D02*
X147822001Y-94824999D01*
X159222000Y-94895000D02*
X159151999Y-94824999D01*
X147822001Y-94824999D02*
X147822001Y-94824999D01*
D26*
X204335097Y-76941691D02*
X204339902Y-83202972D01*
X159329289Y-83193016D01*
X155545471Y-76822546D01*
X204335097Y-76941691D01*
G04 #@! TA.AperFunction,Conductor*
D27*
G36*
X204335097Y-76941691D02*
G01*
X204339902Y-83202972D01*
X159329289Y-83193016D01*
X155545471Y-76822546D01*
X204335097Y-76941691D01*
G37*
G04 #@! TD.AperFunction*
D26*
X204217186Y-55778316D02*
X204219607Y-55803245D01*
X204226816Y-55827075D01*
X204238535Y-55849041D01*
X204254314Y-55868298D01*
X204273547Y-55884107D01*
X204295494Y-55895860D01*
X204319313Y-55903106D01*
X204344088Y-55905565D01*
X210695000Y-55910484D01*
X210695000Y-75815583D01*
X153802240Y-75708000D01*
X153777459Y-75710394D01*
X153753621Y-75717576D01*
X153731642Y-75729270D01*
X153712367Y-75745028D01*
X153696537Y-75764243D01*
X153684759Y-75786177D01*
X153677487Y-75809988D01*
X153675000Y-75834760D01*
X153677394Y-75859541D01*
X153684576Y-75883379D01*
X153693367Y-75900786D01*
X158683367Y-84140786D01*
X158698288Y-84160716D01*
X158716811Y-84177351D01*
X158738224Y-84190053D01*
X158761703Y-84198333D01*
X158791910Y-84202000D01*
X210695001Y-84238981D01*
X210695001Y-103574166D01*
X204297321Y-103558000D01*
X204272298Y-103560425D01*
X204248469Y-103567638D01*
X204226506Y-103579361D01*
X204207251Y-103595144D01*
X204191446Y-103614379D01*
X204179696Y-103636329D01*
X204172455Y-103660149D01*
X204170000Y-103684924D01*
X204166150Y-110115000D01*
X112154385Y-110115000D01*
X112155539Y-106636269D01*
X112920336Y-106636269D01*
X112979797Y-106870037D01*
X113218242Y-106980934D01*
X113473740Y-107043183D01*
X113736473Y-107054390D01*
X113996344Y-107014125D01*
X114243366Y-106923935D01*
X114344203Y-106870037D01*
X114403664Y-106636269D01*
X113662000Y-105894605D01*
X112920336Y-106636269D01*
X112155539Y-106636269D01*
X112155820Y-105789473D01*
X112322610Y-105789473D01*
X112362875Y-106049344D01*
X112453065Y-106296366D01*
X112506963Y-106397203D01*
X112740731Y-106456664D01*
X113482395Y-105715000D01*
X112740731Y-104973336D01*
X112506963Y-105032797D01*
X112396066Y-105271242D01*
X112333817Y-105526740D01*
X112322610Y-105789473D01*
X112155820Y-105789473D01*
X112164315Y-80183514D01*
X112327000Y-80183514D01*
X112327000Y-80446486D01*
X112378304Y-80704405D01*
X112478939Y-80947359D01*
X112625038Y-81166013D01*
X112810987Y-81351962D01*
X113029641Y-81498061D01*
X113272595Y-81598696D01*
X113530514Y-81650000D01*
X113793486Y-81650000D01*
X114051405Y-81598696D01*
X114294359Y-81498061D01*
X114513013Y-81351962D01*
X114698962Y-81166013D01*
X114845061Y-80947359D01*
X114932000Y-80737470D01*
X115018939Y-80947359D01*
X115165038Y-81166013D01*
X115350987Y-81351962D01*
X115569641Y-81498061D01*
X115812595Y-81598696D01*
X116070514Y-81650000D01*
X116333486Y-81650000D01*
X116591405Y-81598696D01*
X116834359Y-81498061D01*
X117053013Y-81351962D01*
X117238962Y-81166013D01*
X117385061Y-80947359D01*
X117472000Y-80737470D01*
X117558939Y-80947359D01*
X117705038Y-81166013D01*
X117890987Y-81351962D01*
X118109641Y-81498061D01*
X118352595Y-81598696D01*
X118610514Y-81650000D01*
X118873486Y-81650000D01*
X119131405Y-81598696D01*
X119374359Y-81498061D01*
X119593013Y-81351962D01*
X119778962Y-81166013D01*
X119925061Y-80947359D01*
X120012000Y-80737470D01*
X120098939Y-80947359D01*
X120245038Y-81166013D01*
X120430987Y-81351962D01*
X120649641Y-81498061D01*
X120892595Y-81598696D01*
X121150514Y-81650000D01*
X121413486Y-81650000D01*
X121671405Y-81598696D01*
X121914359Y-81498061D01*
X122133013Y-81351962D01*
X122318962Y-81166013D01*
X122465061Y-80947359D01*
X122552000Y-80737470D01*
X122638939Y-80947359D01*
X122785038Y-81166013D01*
X122787001Y-81167976D01*
X122787001Y-81664163D01*
X122781994Y-81715000D01*
X122801977Y-81917895D01*
X122861160Y-82112993D01*
X122957266Y-82292797D01*
X123054197Y-82410907D01*
X123086605Y-82450396D01*
X123126093Y-82482803D01*
X123564193Y-82920903D01*
X123596604Y-82960396D01*
X123754203Y-83089734D01*
X123934007Y-83185841D01*
X124129105Y-83245024D01*
X124281162Y-83260000D01*
X124281164Y-83260000D01*
X124332000Y-83265007D01*
X124382835Y-83260000D01*
X125955440Y-83260000D01*
X125957000Y-83275838D01*
X125957000Y-83326939D01*
X125966969Y-83377057D01*
X125971976Y-83427895D01*
X125986804Y-83476777D01*
X125996774Y-83526898D01*
X126016331Y-83574113D01*
X126031159Y-83622993D01*
X126055238Y-83668042D01*
X126074795Y-83715256D01*
X126103186Y-83757746D01*
X126127266Y-83802797D01*
X126159672Y-83842284D01*
X126188063Y-83884774D01*
X126224196Y-83920907D01*
X126256604Y-83960396D01*
X126296092Y-83992803D01*
X126332226Y-84028937D01*
X126374716Y-84057328D01*
X126414203Y-84089734D01*
X126459254Y-84113814D01*
X126501744Y-84142205D01*
X126548958Y-84161762D01*
X126594007Y-84185841D01*
X126642887Y-84200669D01*
X126690102Y-84220226D01*
X126740223Y-84230196D01*
X126789105Y-84245024D01*
X126839943Y-84250031D01*
X126890061Y-84260000D01*
X137533289Y-84260000D01*
X120586097Y-101207193D01*
X120546604Y-101239604D01*
X120417266Y-101397203D01*
X120321159Y-101577008D01*
X120261976Y-101772106D01*
X120247000Y-101924163D01*
X120247000Y-101924172D01*
X120241994Y-101975000D01*
X120247000Y-102025829D01*
X120247000Y-102322025D01*
X120245038Y-102323987D01*
X120098939Y-102542641D01*
X120012000Y-102752530D01*
X119925061Y-102542641D01*
X119778962Y-102323987D01*
X119593013Y-102138038D01*
X119374359Y-101991939D01*
X119131405Y-101891304D01*
X118873486Y-101840000D01*
X118610514Y-101840000D01*
X118352595Y-101891304D01*
X118109641Y-101991939D01*
X117890987Y-102138038D01*
X117705038Y-102323987D01*
X117558939Y-102542641D01*
X117472000Y-102752530D01*
X117385061Y-102542641D01*
X117238962Y-102323987D01*
X117053013Y-102138038D01*
X116834359Y-101991939D01*
X116591405Y-101891304D01*
X116333486Y-101840000D01*
X116070514Y-101840000D01*
X115812595Y-101891304D01*
X115569641Y-101991939D01*
X115350987Y-102138038D01*
X115165038Y-102323987D01*
X115018939Y-102542641D01*
X114932000Y-102752530D01*
X114845061Y-102542641D01*
X114698962Y-102323987D01*
X114513013Y-102138038D01*
X114294359Y-101991939D01*
X114051405Y-101891304D01*
X113793486Y-101840000D01*
X113530514Y-101840000D01*
X113272595Y-101891304D01*
X113029641Y-101991939D01*
X112810987Y-102138038D01*
X112625038Y-102323987D01*
X112478939Y-102542641D01*
X112378304Y-102785595D01*
X112327000Y-103043514D01*
X112327000Y-103306486D01*
X112378304Y-103564405D01*
X112478939Y-103807359D01*
X112625038Y-104026013D01*
X112810987Y-104211962D01*
X113029641Y-104358061D01*
X113243444Y-104446621D01*
X113080634Y-104506065D01*
X112979797Y-104559963D01*
X112920336Y-104793731D01*
X113662000Y-105535395D01*
X114403664Y-104793731D01*
X114344203Y-104559963D01*
X114105758Y-104449066D01*
X114086173Y-104444294D01*
X114294359Y-104358061D01*
X114513013Y-104211962D01*
X114698962Y-104026013D01*
X114845061Y-103807359D01*
X114932000Y-103597470D01*
X115018939Y-103807359D01*
X115165038Y-104026013D01*
X115350987Y-104211962D01*
X115569641Y-104358061D01*
X115779530Y-104445000D01*
X115569641Y-104531939D01*
X115350987Y-104678038D01*
X115165038Y-104863987D01*
X115018939Y-105082641D01*
X114930379Y-105296444D01*
X114870935Y-105133634D01*
X114817037Y-105032797D01*
X114583269Y-104973336D01*
X113841605Y-105715000D01*
X114583269Y-106456664D01*
X114817037Y-106397203D01*
X114927934Y-106158758D01*
X114932706Y-106139173D01*
X115018939Y-106347359D01*
X115165038Y-106566013D01*
X115350987Y-106751962D01*
X115569641Y-106898061D01*
X115812595Y-106998696D01*
X116070514Y-107050000D01*
X116333486Y-107050000D01*
X116591405Y-106998696D01*
X116834359Y-106898061D01*
X117053013Y-106751962D01*
X117238962Y-106566013D01*
X117385061Y-106347359D01*
X117472000Y-106137470D01*
X117558939Y-106347359D01*
X117705038Y-106566013D01*
X117890987Y-106751962D01*
X118109641Y-106898061D01*
X118352595Y-106998696D01*
X118610514Y-107050000D01*
X118873486Y-107050000D01*
X119131405Y-106998696D01*
X119374359Y-106898061D01*
X119593013Y-106751962D01*
X119778962Y-106566013D01*
X119925061Y-106347359D01*
X120012000Y-106137470D01*
X120098939Y-106347359D01*
X120245038Y-106566013D01*
X120430987Y-106751962D01*
X120649641Y-106898061D01*
X120892595Y-106998696D01*
X121150514Y-107050000D01*
X121413486Y-107050000D01*
X121671405Y-106998696D01*
X121914359Y-106898061D01*
X122133013Y-106751962D01*
X122318962Y-106566013D01*
X122465061Y-106347359D01*
X122552000Y-106137470D01*
X122638939Y-106347359D01*
X122785038Y-106566013D01*
X122970987Y-106751962D01*
X123189641Y-106898061D01*
X123432595Y-106998696D01*
X123690514Y-107050000D01*
X123953486Y-107050000D01*
X124211405Y-106998696D01*
X124454359Y-106898061D01*
X124673013Y-106751962D01*
X124858962Y-106566013D01*
X125005061Y-106347359D01*
X125092000Y-106137470D01*
X125178939Y-106347359D01*
X125325038Y-106566013D01*
X125510987Y-106751962D01*
X125729641Y-106898061D01*
X125972595Y-106998696D01*
X126230514Y-107050000D01*
X126493486Y-107050000D01*
X126751405Y-106998696D01*
X126994359Y-106898061D01*
X127213013Y-106751962D01*
X127398962Y-106566013D01*
X127545061Y-106347359D01*
X127632000Y-106137470D01*
X127718939Y-106347359D01*
X127865038Y-106566013D01*
X128050987Y-106751962D01*
X128269641Y-106898061D01*
X128512595Y-106998696D01*
X128770514Y-107050000D01*
X129033486Y-107050000D01*
X129291405Y-106998696D01*
X129534359Y-106898061D01*
X129753013Y-106751962D01*
X129938962Y-106566013D01*
X130085061Y-106347359D01*
X130172000Y-106137470D01*
X130258939Y-106347359D01*
X130405038Y-106566013D01*
X130590987Y-106751962D01*
X130809641Y-106898061D01*
X131052595Y-106998696D01*
X131310514Y-107050000D01*
X131573486Y-107050000D01*
X131831405Y-106998696D01*
X132074359Y-106898061D01*
X132293013Y-106751962D01*
X132478962Y-106566013D01*
X132625061Y-106347359D01*
X132712000Y-106137470D01*
X132798939Y-106347359D01*
X132945038Y-106566013D01*
X133130987Y-106751962D01*
X133349641Y-106898061D01*
X133592595Y-106998696D01*
X133850514Y-107050000D01*
X134113486Y-107050000D01*
X134371405Y-106998696D01*
X134614359Y-106898061D01*
X134833013Y-106751962D01*
X135018962Y-106566013D01*
X135165061Y-106347359D01*
X135252000Y-106137470D01*
X135338939Y-106347359D01*
X135485038Y-106566013D01*
X135670987Y-106751962D01*
X135889641Y-106898061D01*
X136132595Y-106998696D01*
X136390514Y-107050000D01*
X136653486Y-107050000D01*
X136911405Y-106998696D01*
X137154359Y-106898061D01*
X137373013Y-106751962D01*
X137558962Y-106566013D01*
X137705061Y-106347359D01*
X137805696Y-106104405D01*
X137857000Y-105846486D01*
X137857000Y-105583514D01*
X137805696Y-105325595D01*
X137705061Y-105082641D01*
X137558962Y-104863987D01*
X137373013Y-104678038D01*
X137154359Y-104531939D01*
X136944470Y-104445000D01*
X137154359Y-104358061D01*
X137373013Y-104211962D01*
X137558962Y-104026013D01*
X137705061Y-103807359D01*
X137805696Y-103564405D01*
X137857000Y-103306486D01*
X137857000Y-103043514D01*
X137805696Y-102785595D01*
X137757815Y-102670000D01*
X145947000Y-102670000D01*
X145947000Y-102820387D01*
X145888614Y-102851595D01*
X145754038Y-102962038D01*
X145643595Y-103096614D01*
X145561528Y-103250150D01*
X145510992Y-103416746D01*
X145493928Y-103590000D01*
X145493928Y-105040000D01*
X145510992Y-105213254D01*
X145561528Y-105379850D01*
X145643595Y-105533386D01*
X145754038Y-105667962D01*
X145888614Y-105778405D01*
X146042150Y-105860472D01*
X146208746Y-105911008D01*
X146382000Y-105928072D01*
X147582000Y-105928072D01*
X147755254Y-105911008D01*
X147921850Y-105860472D01*
X148075386Y-105778405D01*
X148209962Y-105667962D01*
X148320405Y-105533386D01*
X148374777Y-105431663D01*
X148426866Y-105495134D01*
X148652987Y-105680706D01*
X148910967Y-105818599D01*
X149190890Y-105903513D01*
X149482000Y-105932185D01*
X149773111Y-105903513D01*
X150053034Y-105818599D01*
X150311014Y-105680706D01*
X150537134Y-105495134D01*
X150722706Y-105269014D01*
X150732000Y-105251626D01*
X150741294Y-105269014D01*
X150926866Y-105495134D01*
X151152987Y-105680706D01*
X151410967Y-105818599D01*
X151690890Y-105903513D01*
X151982000Y-105932185D01*
X152273111Y-105903513D01*
X152553034Y-105818599D01*
X152811014Y-105680706D01*
X153037134Y-105495134D01*
X153222706Y-105269014D01*
X153236462Y-105243278D01*
X153392951Y-105449429D01*
X153610807Y-105642496D01*
X153862142Y-105789352D01*
X154125110Y-105881476D01*
X154355000Y-105760155D01*
X154355000Y-104442000D01*
X154609000Y-104442000D01*
X154609000Y-105760155D01*
X154838890Y-105881476D01*
X155101858Y-105789352D01*
X155353193Y-105642496D01*
X155571049Y-105449429D01*
X155747053Y-105217570D01*
X155874442Y-104955830D01*
X155948320Y-104674267D01*
X155808165Y-104442000D01*
X154609000Y-104442000D01*
X154355000Y-104442000D01*
X154335000Y-104442000D01*
X154335000Y-104188000D01*
X154355000Y-104188000D01*
X154355000Y-102869845D01*
X154609000Y-102869845D01*
X154609000Y-104188000D01*
X155808165Y-104188000D01*
X155948320Y-103955733D01*
X155874442Y-103674170D01*
X155747053Y-103412430D01*
X155571049Y-103180571D01*
X155353193Y-102987504D01*
X155101858Y-102840648D01*
X154838890Y-102748524D01*
X154609000Y-102869845D01*
X154355000Y-102869845D01*
X154125110Y-102748524D01*
X153862142Y-102840648D01*
X153610807Y-102987504D01*
X153392951Y-103180571D01*
X153236462Y-103386722D01*
X153222706Y-103360986D01*
X153037134Y-103134866D01*
X153017000Y-103118343D01*
X153017000Y-101295000D01*
X163063928Y-101295000D01*
X163063928Y-103795000D01*
X163076188Y-103919482D01*
X163112498Y-104039180D01*
X163171463Y-104149494D01*
X163250815Y-104246185D01*
X163347506Y-104325537D01*
X163457820Y-104384502D01*
X163577518Y-104420812D01*
X163702000Y-104433072D01*
X166202000Y-104433072D01*
X166326482Y-104420812D01*
X166446180Y-104384502D01*
X166556494Y-104325537D01*
X166653185Y-104246185D01*
X166732537Y-104149494D01*
X166791502Y-104039180D01*
X166827812Y-103919482D01*
X166840072Y-103795000D01*
X166840072Y-102359344D01*
X168147000Y-102359344D01*
X168147000Y-102730656D01*
X168219439Y-103094834D01*
X168361534Y-103437882D01*
X168567825Y-103746618D01*
X168830382Y-104009175D01*
X169139118Y-104215466D01*
X169482166Y-104357561D01*
X169846344Y-104430000D01*
X170217656Y-104430000D01*
X170581834Y-104357561D01*
X170924882Y-104215466D01*
X171233618Y-104009175D01*
X171496175Y-103746618D01*
X171702466Y-103437882D01*
X171844561Y-103094834D01*
X171917000Y-102730656D01*
X171917000Y-102359344D01*
X171844561Y-101995166D01*
X171702466Y-101652118D01*
X171496175Y-101343382D01*
X171447793Y-101295000D01*
X173243928Y-101295000D01*
X173243928Y-103795000D01*
X173256188Y-103919482D01*
X173292498Y-104039180D01*
X173351463Y-104149494D01*
X173430815Y-104246185D01*
X173527506Y-104325537D01*
X173637820Y-104384502D01*
X173757518Y-104420812D01*
X173882000Y-104433072D01*
X176382000Y-104433072D01*
X176506482Y-104420812D01*
X176626180Y-104384502D01*
X176736494Y-104325537D01*
X176833185Y-104246185D01*
X176912537Y-104149494D01*
X176971502Y-104039180D01*
X177007812Y-103919482D01*
X177020072Y-103795000D01*
X177020072Y-102359344D01*
X178327000Y-102359344D01*
X178327000Y-102730656D01*
X178399439Y-103094834D01*
X178541534Y-103437882D01*
X178747825Y-103746618D01*
X179010382Y-104009175D01*
X179319118Y-104215466D01*
X179662166Y-104357561D01*
X180026344Y-104430000D01*
X180397656Y-104430000D01*
X180761834Y-104357561D01*
X181104882Y-104215466D01*
X181413618Y-104009175D01*
X181676175Y-103746618D01*
X181882466Y-103437882D01*
X182024561Y-103094834D01*
X182097000Y-102730656D01*
X182097000Y-102359344D01*
X182024561Y-101995166D01*
X181882466Y-101652118D01*
X181676175Y-101343382D01*
X181627793Y-101295000D01*
X183413928Y-101295000D01*
X183413928Y-103795000D01*
X183426188Y-103919482D01*
X183462498Y-104039180D01*
X183521463Y-104149494D01*
X183600815Y-104246185D01*
X183697506Y-104325537D01*
X183807820Y-104384502D01*
X183927518Y-104420812D01*
X184052000Y-104433072D01*
X186552000Y-104433072D01*
X186676482Y-104420812D01*
X186796180Y-104384502D01*
X186906494Y-104325537D01*
X187003185Y-104246185D01*
X187082537Y-104149494D01*
X187141502Y-104039180D01*
X187177812Y-103919482D01*
X187190072Y-103795000D01*
X187190072Y-102359344D01*
X188497000Y-102359344D01*
X188497000Y-102730656D01*
X188569439Y-103094834D01*
X188711534Y-103437882D01*
X188917825Y-103746618D01*
X189180382Y-104009175D01*
X189489118Y-104215466D01*
X189832166Y-104357561D01*
X190196344Y-104430000D01*
X190567656Y-104430000D01*
X190931834Y-104357561D01*
X191274882Y-104215466D01*
X191583618Y-104009175D01*
X191846175Y-103746618D01*
X192052466Y-103437882D01*
X192194561Y-103094834D01*
X192267000Y-102730656D01*
X192267000Y-102359344D01*
X192194561Y-101995166D01*
X192052466Y-101652118D01*
X191846175Y-101343382D01*
X191797793Y-101295000D01*
X193583928Y-101295000D01*
X193583928Y-103795000D01*
X193596188Y-103919482D01*
X193632498Y-104039180D01*
X193691463Y-104149494D01*
X193770815Y-104246185D01*
X193867506Y-104325537D01*
X193977820Y-104384502D01*
X194097518Y-104420812D01*
X194222000Y-104433072D01*
X196722000Y-104433072D01*
X196846482Y-104420812D01*
X196966180Y-104384502D01*
X197076494Y-104325537D01*
X197173185Y-104246185D01*
X197252537Y-104149494D01*
X197311502Y-104039180D01*
X197347812Y-103919482D01*
X197360072Y-103795000D01*
X197360072Y-102359344D01*
X198667000Y-102359344D01*
X198667000Y-102730656D01*
X198739439Y-103094834D01*
X198881534Y-103437882D01*
X199087825Y-103746618D01*
X199350382Y-104009175D01*
X199659118Y-104215466D01*
X200002166Y-104357561D01*
X200366344Y-104430000D01*
X200737656Y-104430000D01*
X201101834Y-104357561D01*
X201444882Y-104215466D01*
X201753618Y-104009175D01*
X202016175Y-103746618D01*
X202222466Y-103437882D01*
X202364561Y-103094834D01*
X202437000Y-102730656D01*
X202437000Y-102359344D01*
X202364561Y-101995166D01*
X202222466Y-101652118D01*
X202016175Y-101343382D01*
X201753618Y-101080825D01*
X201444882Y-100874534D01*
X201101834Y-100732439D01*
X200737656Y-100660000D01*
X200366344Y-100660000D01*
X200002166Y-100732439D01*
X199659118Y-100874534D01*
X199350382Y-101080825D01*
X199087825Y-101343382D01*
X198881534Y-101652118D01*
X198739439Y-101995166D01*
X198667000Y-102359344D01*
X197360072Y-102359344D01*
X197360072Y-101295000D01*
X197347812Y-101170518D01*
X197311502Y-101050820D01*
X197252537Y-100940506D01*
X197173185Y-100843815D01*
X197076494Y-100764463D01*
X196966180Y-100705498D01*
X196846482Y-100669188D01*
X196722000Y-100656928D01*
X194222000Y-100656928D01*
X194097518Y-100669188D01*
X193977820Y-100705498D01*
X193867506Y-100764463D01*
X193770815Y-100843815D01*
X193691463Y-100940506D01*
X193632498Y-101050820D01*
X193596188Y-101170518D01*
X193583928Y-101295000D01*
X191797793Y-101295000D01*
X191583618Y-101080825D01*
X191274882Y-100874534D01*
X190931834Y-100732439D01*
X190567656Y-100660000D01*
X190196344Y-100660000D01*
X189832166Y-100732439D01*
X189489118Y-100874534D01*
X189180382Y-101080825D01*
X188917825Y-101343382D01*
X188711534Y-101652118D01*
X188569439Y-101995166D01*
X188497000Y-102359344D01*
X187190072Y-102359344D01*
X187190072Y-101295000D01*
X187177812Y-101170518D01*
X187141502Y-101050820D01*
X187082537Y-100940506D01*
X187003185Y-100843815D01*
X186906494Y-100764463D01*
X186796180Y-100705498D01*
X186676482Y-100669188D01*
X186552000Y-100656928D01*
X184052000Y-100656928D01*
X183927518Y-100669188D01*
X183807820Y-100705498D01*
X183697506Y-100764463D01*
X183600815Y-100843815D01*
X183521463Y-100940506D01*
X183462498Y-101050820D01*
X183426188Y-101170518D01*
X183413928Y-101295000D01*
X181627793Y-101295000D01*
X181413618Y-101080825D01*
X181104882Y-100874534D01*
X180761834Y-100732439D01*
X180397656Y-100660000D01*
X180026344Y-100660000D01*
X179662166Y-100732439D01*
X179319118Y-100874534D01*
X179010382Y-101080825D01*
X178747825Y-101343382D01*
X178541534Y-101652118D01*
X178399439Y-101995166D01*
X178327000Y-102359344D01*
X177020072Y-102359344D01*
X177020072Y-101295000D01*
X177007812Y-101170518D01*
X176971502Y-101050820D01*
X176912537Y-100940506D01*
X176833185Y-100843815D01*
X176736494Y-100764463D01*
X176626180Y-100705498D01*
X176506482Y-100669188D01*
X176382000Y-100656928D01*
X173882000Y-100656928D01*
X173757518Y-100669188D01*
X173637820Y-100705498D01*
X173527506Y-100764463D01*
X173430815Y-100843815D01*
X173351463Y-100940506D01*
X173292498Y-101050820D01*
X173256188Y-101170518D01*
X173243928Y-101295000D01*
X171447793Y-101295000D01*
X171233618Y-101080825D01*
X170924882Y-100874534D01*
X170581834Y-100732439D01*
X170217656Y-100660000D01*
X169846344Y-100660000D01*
X169482166Y-100732439D01*
X169139118Y-100874534D01*
X168830382Y-101080825D01*
X168567825Y-101343382D01*
X168361534Y-101652118D01*
X168219439Y-101995166D01*
X168147000Y-102359344D01*
X166840072Y-102359344D01*
X166840072Y-101295000D01*
X166827812Y-101170518D01*
X166791502Y-101050820D01*
X166732537Y-100940506D01*
X166653185Y-100843815D01*
X166556494Y-100764463D01*
X166446180Y-100705498D01*
X166326482Y-100669188D01*
X166202000Y-100656928D01*
X163702000Y-100656928D01*
X163577518Y-100669188D01*
X163457820Y-100705498D01*
X163347506Y-100764463D01*
X163250815Y-100843815D01*
X163171463Y-100940506D01*
X163112498Y-101050820D01*
X163076188Y-101170518D01*
X163063928Y-101295000D01*
X153017000Y-101295000D01*
X153017000Y-99445835D01*
X153022007Y-99395000D01*
X153017000Y-99344162D01*
X153002024Y-99192105D01*
X152942841Y-98997007D01*
X152846734Y-98817203D01*
X152717396Y-98659604D01*
X152677903Y-98627193D01*
X152414787Y-98364077D01*
X152382376Y-98324584D01*
X152224777Y-98195246D01*
X152044973Y-98099139D01*
X151849875Y-98039956D01*
X151697818Y-98024980D01*
X151697808Y-98024980D01*
X151646980Y-98019974D01*
X151596152Y-98024980D01*
X133220061Y-98024980D01*
X133169943Y-98034949D01*
X133119105Y-98039956D01*
X133070223Y-98054784D01*
X133020102Y-98064754D01*
X132972887Y-98084311D01*
X132924007Y-98099139D01*
X132878958Y-98123218D01*
X132831744Y-98142775D01*
X132789254Y-98171166D01*
X132744203Y-98195246D01*
X132704716Y-98227652D01*
X132662226Y-98256043D01*
X132626092Y-98292177D01*
X132586604Y-98324584D01*
X132554197Y-98364072D01*
X132518063Y-98400206D01*
X132489672Y-98442696D01*
X132457266Y-98482183D01*
X132433186Y-98527234D01*
X132404795Y-98569724D01*
X132385238Y-98616938D01*
X132361159Y-98661987D01*
X132346331Y-98710867D01*
X132326774Y-98758082D01*
X132316804Y-98808203D01*
X132301976Y-98857085D01*
X132296969Y-98907923D01*
X132287000Y-98958041D01*
X132287000Y-99009142D01*
X132281993Y-99059980D01*
X132287000Y-99110818D01*
X132287000Y-99161919D01*
X132296969Y-99212037D01*
X132301976Y-99262875D01*
X132316804Y-99311757D01*
X132326774Y-99361878D01*
X132346331Y-99409093D01*
X132361159Y-99457973D01*
X132385238Y-99503022D01*
X132404795Y-99550236D01*
X132408804Y-99556236D01*
X132399785Y-99569734D01*
X132380228Y-99616948D01*
X132356149Y-99661997D01*
X132341321Y-99710877D01*
X132321764Y-99758092D01*
X132311794Y-99808213D01*
X132296966Y-99857095D01*
X132291959Y-99907933D01*
X132281990Y-99958051D01*
X132281990Y-100009152D01*
X132276983Y-100059990D01*
X132281990Y-100110828D01*
X132281990Y-100161929D01*
X132291959Y-100212047D01*
X132296966Y-100262885D01*
X132311794Y-100311767D01*
X132321764Y-100361888D01*
X132341321Y-100409103D01*
X132356149Y-100457983D01*
X132380228Y-100503032D01*
X132399785Y-100550246D01*
X132428176Y-100592736D01*
X132432058Y-100600000D01*
X129727063Y-100600000D01*
X129676228Y-100594993D01*
X129625393Y-100600000D01*
X129625390Y-100600000D01*
X129473333Y-100614976D01*
X129278235Y-100674159D01*
X129219604Y-100705498D01*
X129098430Y-100770266D01*
X128980320Y-100867197D01*
X128940832Y-100899604D01*
X128908425Y-100939092D01*
X128206092Y-101641426D01*
X128166605Y-101673832D01*
X128134198Y-101713320D01*
X128134197Y-101713321D01*
X128037266Y-101831431D01*
X127960528Y-101975000D01*
X127941160Y-102011235D01*
X127881977Y-102206333D01*
X127870973Y-102318052D01*
X127865038Y-102323987D01*
X127718939Y-102542641D01*
X127632000Y-102752530D01*
X127545061Y-102542641D01*
X127430109Y-102370601D01*
X132675710Y-97125000D01*
X155183928Y-97125000D01*
X155196188Y-97249482D01*
X155232498Y-97369180D01*
X155291463Y-97479494D01*
X155370815Y-97576185D01*
X155467506Y-97655537D01*
X155577820Y-97714502D01*
X155697518Y-97750812D01*
X155822000Y-97763072D01*
X156386250Y-97760000D01*
X156545000Y-97601250D01*
X156545000Y-96402000D01*
X155345750Y-96402000D01*
X155187000Y-96560750D01*
X155183928Y-97125000D01*
X132675710Y-97125000D01*
X134975711Y-94824999D01*
X146781994Y-94824999D01*
X146787001Y-94875837D01*
X146787001Y-94926938D01*
X146796970Y-94977056D01*
X146801977Y-95027894D01*
X146816805Y-95076776D01*
X146826775Y-95126897D01*
X146846332Y-95174112D01*
X146861160Y-95222992D01*
X146885239Y-95268041D01*
X146904796Y-95315255D01*
X146933187Y-95357745D01*
X146957267Y-95402796D01*
X146989673Y-95442283D01*
X147018064Y-95484773D01*
X147054197Y-95520906D01*
X147086605Y-95560395D01*
X147126093Y-95592802D01*
X147162227Y-95628936D01*
X147204717Y-95657327D01*
X147244204Y-95689733D01*
X147289255Y-95713813D01*
X147331745Y-95742204D01*
X147378959Y-95761761D01*
X147424008Y-95785840D01*
X147472888Y-95800668D01*
X147520103Y-95820225D01*
X147570224Y-95830195D01*
X147619106Y-95845023D01*
X147669944Y-95850030D01*
X147720062Y-95859999D01*
X155186296Y-95859999D01*
X155187000Y-95989250D01*
X155345750Y-96148000D01*
X156545000Y-96148000D01*
X156545000Y-96128000D01*
X156799000Y-96128000D01*
X156799000Y-96148000D01*
X156819000Y-96148000D01*
X156819000Y-96402000D01*
X156799000Y-96402000D01*
X156799000Y-97601250D01*
X156957750Y-97760000D01*
X157522000Y-97763072D01*
X157646482Y-97750812D01*
X157766180Y-97714502D01*
X157876494Y-97655537D01*
X157947000Y-97597674D01*
X158017506Y-97655537D01*
X158127820Y-97714502D01*
X158247518Y-97750812D01*
X158372000Y-97763072D01*
X160072000Y-97763072D01*
X160196482Y-97750812D01*
X160316180Y-97714502D01*
X160426494Y-97655537D01*
X160523185Y-97576185D01*
X160602537Y-97479494D01*
X160661502Y-97369180D01*
X160697812Y-97249482D01*
X160710072Y-97125000D01*
X160710072Y-95425000D01*
X160697812Y-95300518D01*
X160661502Y-95180820D01*
X160602537Y-95070506D01*
X160523185Y-94973815D01*
X160426494Y-94894463D01*
X160316180Y-94835498D01*
X160254298Y-94816726D01*
X160242024Y-94692105D01*
X160182841Y-94497007D01*
X160086734Y-94317203D01*
X159957396Y-94159604D01*
X159918948Y-94128051D01*
X159887395Y-94089603D01*
X159729796Y-93960265D01*
X159549992Y-93864158D01*
X159354894Y-93804975D01*
X159202837Y-93789999D01*
X159202827Y-93789999D01*
X159151999Y-93784993D01*
X159101171Y-93789999D01*
X147720062Y-93789999D01*
X147669944Y-93799968D01*
X147619106Y-93804975D01*
X147570224Y-93819803D01*
X147520103Y-93829773D01*
X147472888Y-93849330D01*
X147424008Y-93864158D01*
X147378959Y-93888237D01*
X147331745Y-93907794D01*
X147289255Y-93936185D01*
X147244204Y-93960265D01*
X147204717Y-93992671D01*
X147162227Y-94021062D01*
X147126093Y-94057196D01*
X147086605Y-94089603D01*
X147054198Y-94129091D01*
X147018064Y-94165225D01*
X146989673Y-94207715D01*
X146957267Y-94247202D01*
X146933187Y-94292253D01*
X146904796Y-94334743D01*
X146885239Y-94381957D01*
X146861160Y-94427006D01*
X146846332Y-94475886D01*
X146826775Y-94523101D01*
X146816805Y-94573222D01*
X146801977Y-94622104D01*
X146796970Y-94672942D01*
X146787001Y-94723060D01*
X146787001Y-94774161D01*
X146781994Y-94824999D01*
X134975711Y-94824999D01*
X136920711Y-92880000D01*
X157951172Y-92880000D01*
X158002000Y-92885006D01*
X158052828Y-92880000D01*
X158052838Y-92880000D01*
X158204895Y-92865024D01*
X158399993Y-92805841D01*
X158579797Y-92709734D01*
X158737396Y-92580396D01*
X158769807Y-92540903D01*
X160044344Y-91266367D01*
X160045236Y-91268036D01*
X160064795Y-91315256D01*
X160093187Y-91357748D01*
X160117266Y-91402797D01*
X160149671Y-91442283D01*
X160178063Y-91484774D01*
X160224217Y-91530928D01*
X160256624Y-91570416D01*
X160296112Y-91602823D01*
X160322226Y-91628937D01*
X160352933Y-91649455D01*
X160414223Y-91699754D01*
X160484149Y-91737130D01*
X160491744Y-91742205D01*
X160500184Y-91745701D01*
X160594027Y-91795861D01*
X160789125Y-91855044D01*
X160941182Y-91870020D01*
X160941191Y-91870020D01*
X160985873Y-91874421D01*
X160987000Y-91885868D01*
X160987000Y-91936969D01*
X160996969Y-91987087D01*
X161001976Y-92037925D01*
X161016804Y-92086807D01*
X161026774Y-92136928D01*
X161046331Y-92184143D01*
X161061159Y-92233023D01*
X161085238Y-92278072D01*
X161104795Y-92325286D01*
X161133186Y-92367776D01*
X161157266Y-92412827D01*
X161189672Y-92452314D01*
X161218063Y-92494804D01*
X161254197Y-92530938D01*
X161286604Y-92570426D01*
X161326092Y-92602833D01*
X161362226Y-92638967D01*
X161404716Y-92667358D01*
X161444203Y-92699764D01*
X161489254Y-92723844D01*
X161531744Y-92752235D01*
X161578958Y-92771792D01*
X161624007Y-92795871D01*
X161672887Y-92810699D01*
X161720102Y-92830256D01*
X161770223Y-92840226D01*
X161819105Y-92855054D01*
X161869943Y-92860061D01*
X161920061Y-92870030D01*
X193791142Y-92870030D01*
X193841970Y-92875036D01*
X193892798Y-92870030D01*
X193892808Y-92870030D01*
X194044865Y-92855054D01*
X194239963Y-92795871D01*
X194419767Y-92699764D01*
X194577366Y-92570426D01*
X194609777Y-92530933D01*
X197729803Y-89410908D01*
X197765937Y-89374774D01*
X197794325Y-89332288D01*
X197826734Y-89292798D01*
X197850816Y-89247744D01*
X197879205Y-89205256D01*
X197898762Y-89158041D01*
X197922840Y-89112994D01*
X197937666Y-89064120D01*
X197957226Y-89016898D01*
X197967197Y-88966768D01*
X197982023Y-88917895D01*
X197987030Y-88867064D01*
X197997000Y-88816939D01*
X197997000Y-88765835D01*
X198002007Y-88715000D01*
X197997000Y-88664165D01*
X197997000Y-88613061D01*
X197987030Y-88562936D01*
X197982023Y-88512105D01*
X197967197Y-88463232D01*
X197957226Y-88413102D01*
X197937665Y-88365878D01*
X197922840Y-88317007D01*
X197898764Y-88271964D01*
X197879205Y-88224744D01*
X197850813Y-88182252D01*
X197826734Y-88137203D01*
X197794328Y-88097716D01*
X197765937Y-88055226D01*
X197729803Y-88019092D01*
X197697396Y-87979604D01*
X197657908Y-87947197D01*
X197621774Y-87911063D01*
X197579284Y-87882672D01*
X197539797Y-87850266D01*
X197494748Y-87826187D01*
X197452256Y-87797795D01*
X197405036Y-87778236D01*
X197359993Y-87754160D01*
X197311122Y-87739335D01*
X197263898Y-87719774D01*
X197213768Y-87709803D01*
X197164895Y-87694977D01*
X197114064Y-87689970D01*
X197063939Y-87680000D01*
X197012835Y-87680000D01*
X196962000Y-87674993D01*
X196911165Y-87680000D01*
X196860061Y-87680000D01*
X196809936Y-87689970D01*
X196759105Y-87694977D01*
X196710232Y-87709803D01*
X196660102Y-87719774D01*
X196612880Y-87739334D01*
X196564006Y-87754160D01*
X196518959Y-87778238D01*
X196471744Y-87797795D01*
X196429256Y-87826184D01*
X196384202Y-87850266D01*
X196344712Y-87882675D01*
X196302226Y-87911063D01*
X196266092Y-87947197D01*
X193413260Y-90800030D01*
X186070680Y-90800030D01*
X187484803Y-89385908D01*
X187520937Y-89349774D01*
X187549325Y-89307288D01*
X187581734Y-89267798D01*
X187605816Y-89222744D01*
X187634205Y-89180256D01*
X187653762Y-89133041D01*
X187677840Y-89087994D01*
X187692666Y-89039119D01*
X187712226Y-88991898D01*
X187722197Y-88941771D01*
X187737023Y-88892896D01*
X187742029Y-88842066D01*
X187752000Y-88791939D01*
X187752000Y-88740829D01*
X187757006Y-88690001D01*
X187752000Y-88639173D01*
X187752000Y-88588061D01*
X187742029Y-88537932D01*
X187737023Y-88487106D01*
X187722198Y-88438234D01*
X187712226Y-88388102D01*
X187692665Y-88340877D01*
X187677840Y-88292007D01*
X187653764Y-88246964D01*
X187634205Y-88199744D01*
X187605813Y-88157252D01*
X187581734Y-88112203D01*
X187549330Y-88072719D01*
X187520937Y-88030226D01*
X187484795Y-87994084D01*
X187452395Y-87954605D01*
X187412916Y-87922205D01*
X187376774Y-87886063D01*
X187334281Y-87857670D01*
X187294797Y-87825266D01*
X187249748Y-87801187D01*
X187207256Y-87772795D01*
X187160036Y-87753236D01*
X187114993Y-87729160D01*
X187066123Y-87714335D01*
X187018898Y-87694774D01*
X186968766Y-87684802D01*
X186919894Y-87669977D01*
X186869068Y-87664971D01*
X186818939Y-87655000D01*
X186767827Y-87655000D01*
X186716999Y-87649994D01*
X186666171Y-87655000D01*
X186615061Y-87655000D01*
X186564934Y-87664971D01*
X186514104Y-87669977D01*
X186465229Y-87684803D01*
X186415102Y-87694774D01*
X186367881Y-87714334D01*
X186319006Y-87729160D01*
X186273959Y-87753238D01*
X186226744Y-87772795D01*
X186184256Y-87801184D01*
X186139202Y-87825266D01*
X186099712Y-87857675D01*
X186057226Y-87886063D01*
X186021092Y-87922197D01*
X184143270Y-89800020D01*
X176970691Y-89800020D01*
X177410937Y-89359774D01*
X177439325Y-89317288D01*
X177471734Y-89277798D01*
X177495817Y-89232742D01*
X177524205Y-89190256D01*
X177543760Y-89143047D01*
X177567841Y-89097994D01*
X177582669Y-89049113D01*
X177602226Y-89001898D01*
X177612197Y-88951771D01*
X177627023Y-88902895D01*
X177632030Y-88852064D01*
X177642000Y-88801939D01*
X177642000Y-88750835D01*
X177647007Y-88700000D01*
X177642000Y-88649165D01*
X177642000Y-88598061D01*
X177632030Y-88547936D01*
X177627023Y-88497105D01*
X177612197Y-88448230D01*
X177602226Y-88398102D01*
X177582668Y-88350885D01*
X177567841Y-88302007D01*
X177543762Y-88256958D01*
X177524205Y-88209744D01*
X177495814Y-88167254D01*
X177471734Y-88122203D01*
X177439328Y-88082716D01*
X177410937Y-88040226D01*
X177374803Y-88004092D01*
X177342396Y-87964604D01*
X177302908Y-87932197D01*
X177266774Y-87896063D01*
X177224284Y-87867672D01*
X177184797Y-87835266D01*
X177139746Y-87811186D01*
X177097256Y-87782795D01*
X177050042Y-87763238D01*
X177004993Y-87739159D01*
X176956115Y-87724332D01*
X176908898Y-87704774D01*
X176858770Y-87694803D01*
X176809895Y-87679977D01*
X176759064Y-87674970D01*
X176708939Y-87665000D01*
X176657835Y-87665000D01*
X176607000Y-87659993D01*
X176556165Y-87665000D01*
X176505061Y-87665000D01*
X176454936Y-87674970D01*
X176404105Y-87679977D01*
X176355229Y-87694803D01*
X176305102Y-87704774D01*
X176257887Y-87724331D01*
X176209006Y-87739159D01*
X176163953Y-87763240D01*
X176116744Y-87782795D01*
X176074258Y-87811183D01*
X176029202Y-87835266D01*
X175989712Y-87867675D01*
X175947226Y-87896063D01*
X175911092Y-87932197D01*
X175043280Y-88800010D01*
X167418561Y-88800010D01*
X167417000Y-88784162D01*
X167417000Y-88733061D01*
X167407031Y-88682943D01*
X167402024Y-88632105D01*
X167387196Y-88583223D01*
X167377226Y-88533102D01*
X167357669Y-88485887D01*
X167342841Y-88437007D01*
X167318762Y-88391958D01*
X167299205Y-88344744D01*
X167270814Y-88302254D01*
X167246734Y-88257203D01*
X167214328Y-88217716D01*
X167185937Y-88175226D01*
X167149803Y-88139092D01*
X167117396Y-88099604D01*
X167077908Y-88067197D01*
X167041774Y-88031063D01*
X166999284Y-88002672D01*
X166959797Y-87970266D01*
X166914746Y-87946186D01*
X166872256Y-87917795D01*
X166825042Y-87898238D01*
X166779993Y-87874159D01*
X166731113Y-87859331D01*
X166683898Y-87839774D01*
X166633777Y-87829804D01*
X166584895Y-87814976D01*
X166534057Y-87809969D01*
X166483939Y-87800000D01*
X163010711Y-87800000D01*
X161615950Y-86405240D01*
X161615948Y-86405237D01*
X161471785Y-86261074D01*
X161429294Y-86232682D01*
X161389808Y-86200277D01*
X161344759Y-86176198D01*
X161302267Y-86147806D01*
X161255047Y-86128247D01*
X161210004Y-86104171D01*
X161161133Y-86089346D01*
X161113909Y-86069785D01*
X161063779Y-86059814D01*
X161014906Y-86044988D01*
X160964078Y-86039982D01*
X160913950Y-86030011D01*
X160862839Y-86030011D01*
X160812011Y-86025005D01*
X160761183Y-86030011D01*
X160710072Y-86030011D01*
X160659944Y-86039982D01*
X160609116Y-86044988D01*
X160560243Y-86059814D01*
X160510113Y-86069785D01*
X160462889Y-86089346D01*
X160414018Y-86104171D01*
X160368975Y-86128247D01*
X160321755Y-86147806D01*
X160279263Y-86176198D01*
X160234214Y-86200277D01*
X160194727Y-86232683D01*
X160152237Y-86261074D01*
X160116103Y-86297208D01*
X160076615Y-86329615D01*
X160044208Y-86369103D01*
X160008074Y-86405237D01*
X159979683Y-86447727D01*
X159947277Y-86487214D01*
X159923198Y-86532263D01*
X159894806Y-86574755D01*
X159875247Y-86621975D01*
X159851171Y-86667018D01*
X159836346Y-86715889D01*
X159816785Y-86763113D01*
X159806814Y-86813243D01*
X159791988Y-86862116D01*
X159791409Y-86867998D01*
X159698166Y-86867998D01*
X159838320Y-86635733D01*
X159764442Y-86354170D01*
X159637053Y-86092430D01*
X159461049Y-85860571D01*
X159243193Y-85667504D01*
X158991858Y-85520648D01*
X158728890Y-85428524D01*
X158499000Y-85549845D01*
X158499000Y-86868000D01*
X158519000Y-86868000D01*
X158519000Y-87122000D01*
X158499000Y-87122000D01*
X158499000Y-88440155D01*
X158728890Y-88561476D01*
X158991858Y-88469352D01*
X159243193Y-88322496D01*
X159461049Y-88129429D01*
X159637053Y-87897570D01*
X159764442Y-87635830D01*
X159827938Y-87393835D01*
X159836346Y-87414133D01*
X159851171Y-87463004D01*
X159875247Y-87508047D01*
X159894806Y-87555267D01*
X159923198Y-87597759D01*
X159947277Y-87642808D01*
X159979682Y-87682294D01*
X160008074Y-87724785D01*
X160152237Y-87868948D01*
X160152240Y-87868950D01*
X161073288Y-88789999D01*
X160072836Y-88789999D01*
X160022001Y-88784992D01*
X159971166Y-88789999D01*
X159971163Y-88789999D01*
X159819106Y-88804975D01*
X159624008Y-88864158D01*
X159605279Y-88874169D01*
X159444203Y-88960265D01*
X159349611Y-89037895D01*
X159286605Y-89089603D01*
X159254198Y-89129091D01*
X157573290Y-90810000D01*
X156679127Y-90810000D01*
X156704328Y-90772284D01*
X156736734Y-90732797D01*
X156760814Y-90687746D01*
X156789205Y-90645256D01*
X156808762Y-90598042D01*
X156832841Y-90552993D01*
X156847669Y-90504113D01*
X156867226Y-90456898D01*
X156877196Y-90406777D01*
X156892024Y-90357895D01*
X156897031Y-90307057D01*
X156907000Y-90256939D01*
X156907000Y-90205838D01*
X156912007Y-90155000D01*
X156907000Y-90104162D01*
X156907000Y-88191658D01*
X156927134Y-88175134D01*
X157112706Y-87949014D01*
X157126462Y-87923278D01*
X157282951Y-88129429D01*
X157500807Y-88322496D01*
X157752142Y-88469352D01*
X158015110Y-88561476D01*
X158245000Y-88440155D01*
X158245000Y-87122000D01*
X158225000Y-87122000D01*
X158225000Y-86868000D01*
X158245000Y-86868000D01*
X158245000Y-85549845D01*
X158015110Y-85428524D01*
X157752142Y-85520648D01*
X157500807Y-85667504D01*
X157282951Y-85860571D01*
X157126462Y-86066722D01*
X157112706Y-86040986D01*
X156927134Y-85814866D01*
X156701013Y-85629294D01*
X156443033Y-85491401D01*
X156163110Y-85406487D01*
X155872000Y-85377815D01*
X155580889Y-85406487D01*
X155300966Y-85491401D01*
X155042986Y-85629294D01*
X154816866Y-85814866D01*
X154764777Y-85878337D01*
X154710405Y-85776614D01*
X154599962Y-85642038D01*
X154465386Y-85531595D01*
X154341437Y-85465342D01*
X154332841Y-85437007D01*
X154288104Y-85353309D01*
X154236734Y-85257202D01*
X154139803Y-85139092D01*
X154107396Y-85099604D01*
X154067908Y-85067197D01*
X149119068Y-80118358D01*
X149300890Y-80173513D01*
X149592000Y-80202185D01*
X149883111Y-80173513D01*
X150163034Y-80088599D01*
X150421014Y-79950706D01*
X150647134Y-79765134D01*
X150832706Y-79539014D01*
X150846462Y-79513278D01*
X151002951Y-79719429D01*
X151220807Y-79912496D01*
X151472142Y-80059352D01*
X151735110Y-80151476D01*
X151965000Y-80030155D01*
X151965000Y-78712000D01*
X152219000Y-78712000D01*
X152219000Y-80030155D01*
X152448890Y-80151476D01*
X152711858Y-80059352D01*
X152963193Y-79912496D01*
X153181049Y-79719429D01*
X153357053Y-79487570D01*
X153484442Y-79225830D01*
X153558320Y-78944267D01*
X153418165Y-78712000D01*
X152219000Y-78712000D01*
X151965000Y-78712000D01*
X151945000Y-78712000D01*
X151945000Y-78458000D01*
X151965000Y-78458000D01*
X151965000Y-77139845D01*
X152219000Y-77139845D01*
X152219000Y-78458000D01*
X153418165Y-78458000D01*
X153558320Y-78225733D01*
X153484442Y-77944170D01*
X153357053Y-77682430D01*
X153181049Y-77450571D01*
X152963193Y-77257504D01*
X152711858Y-77110648D01*
X152448890Y-77018524D01*
X152219000Y-77139845D01*
X151965000Y-77139845D01*
X151735110Y-77018524D01*
X151472142Y-77110648D01*
X151220807Y-77257504D01*
X151002951Y-77450571D01*
X150846462Y-77656722D01*
X150832706Y-77630986D01*
X150647134Y-77404866D01*
X150421013Y-77219294D01*
X150163033Y-77081401D01*
X149883110Y-76996487D01*
X149592000Y-76967815D01*
X149300889Y-76996487D01*
X149020966Y-77081401D01*
X148762986Y-77219294D01*
X148536866Y-77404866D01*
X148484777Y-77468337D01*
X148430405Y-77366614D01*
X148319962Y-77232038D01*
X148185386Y-77121595D01*
X148031850Y-77039528D01*
X147865254Y-76988992D01*
X147692000Y-76971928D01*
X146571377Y-76971928D01*
X146571377Y-73685623D01*
X177945549Y-73685623D01*
X177996377Y-73690629D01*
X178047205Y-73685623D01*
X178047215Y-73685623D01*
X178199272Y-73670647D01*
X178394370Y-73611464D01*
X178574174Y-73515357D01*
X178731773Y-73386019D01*
X178764184Y-73346526D01*
X179630701Y-72480010D01*
X187705389Y-72480010D01*
X187756217Y-72485016D01*
X187807045Y-72480010D01*
X187807055Y-72480010D01*
X187959112Y-72465034D01*
X188154210Y-72405851D01*
X188334014Y-72309744D01*
X188491613Y-72180406D01*
X188524024Y-72140913D01*
X189184938Y-71480000D01*
X197803939Y-71480000D01*
X197854057Y-71470031D01*
X197904895Y-71465024D01*
X197953777Y-71450196D01*
X198003898Y-71440226D01*
X198051113Y-71420669D01*
X198099993Y-71405841D01*
X198145042Y-71381762D01*
X198192256Y-71362205D01*
X198234746Y-71333814D01*
X198279797Y-71309734D01*
X198319284Y-71277328D01*
X198361774Y-71248937D01*
X198397908Y-71212803D01*
X198437396Y-71180396D01*
X198469803Y-71140908D01*
X198505937Y-71104774D01*
X198534328Y-71062284D01*
X198566734Y-71022797D01*
X198590814Y-70977746D01*
X198619205Y-70935256D01*
X198638762Y-70888042D01*
X198662841Y-70842993D01*
X198677669Y-70794113D01*
X198697226Y-70746898D01*
X198707196Y-70696777D01*
X198722024Y-70647895D01*
X198727031Y-70597057D01*
X198737000Y-70546939D01*
X198737000Y-70495838D01*
X198742007Y-70445000D01*
X198737000Y-70394162D01*
X198737000Y-70343061D01*
X198727031Y-70292943D01*
X198722024Y-70242105D01*
X198707196Y-70193223D01*
X198697226Y-70143102D01*
X198677669Y-70095887D01*
X198662841Y-70047007D01*
X198638762Y-70001958D01*
X198619205Y-69954744D01*
X198590814Y-69912254D01*
X198566734Y-69867203D01*
X198534328Y-69827716D01*
X198505937Y-69785226D01*
X198469803Y-69749092D01*
X198437396Y-69709604D01*
X198397908Y-69677197D01*
X198361774Y-69641063D01*
X198319284Y-69612672D01*
X198279797Y-69580266D01*
X198234746Y-69556186D01*
X198192256Y-69527795D01*
X198145042Y-69508238D01*
X198099993Y-69484159D01*
X198051113Y-69469331D01*
X198003898Y-69449774D01*
X197953777Y-69439804D01*
X197904895Y-69424976D01*
X197854057Y-69419969D01*
X197803939Y-69410000D01*
X188807062Y-69410000D01*
X188756227Y-69404993D01*
X188705392Y-69410000D01*
X188705389Y-69410000D01*
X188553332Y-69424976D01*
X188358234Y-69484159D01*
X188314014Y-69507795D01*
X188178429Y-69580266D01*
X188088376Y-69654171D01*
X188051299Y-69684600D01*
X188017908Y-69657197D01*
X188001774Y-69641063D01*
X187982802Y-69628386D01*
X187899797Y-69560266D01*
X187719993Y-69464159D01*
X187524895Y-69404976D01*
X187372838Y-69390000D01*
X187372828Y-69390000D01*
X187322000Y-69384994D01*
X187271172Y-69390000D01*
X178832837Y-69390000D01*
X178782002Y-69384993D01*
X178731167Y-69390000D01*
X178731164Y-69390000D01*
X178579107Y-69404976D01*
X178431429Y-69449774D01*
X178384008Y-69464159D01*
X178204204Y-69560266D01*
X178122059Y-69627681D01*
X178046606Y-69689604D01*
X178014199Y-69729092D01*
X178004739Y-69738552D01*
X177997396Y-69729604D01*
X177957908Y-69697197D01*
X177921774Y-69661063D01*
X177879284Y-69632672D01*
X177839797Y-69600266D01*
X177794746Y-69576186D01*
X177752256Y-69547795D01*
X177705042Y-69528238D01*
X177659993Y-69504159D01*
X177611113Y-69489331D01*
X177563898Y-69469774D01*
X177513777Y-69459804D01*
X177464895Y-69444976D01*
X177414057Y-69439969D01*
X177363939Y-69430000D01*
X168960713Y-69430000D01*
X168259799Y-68729087D01*
X168259795Y-68729082D01*
X165219799Y-65689087D01*
X165187388Y-65649594D01*
X165029789Y-65520256D01*
X164849985Y-65424149D01*
X164654887Y-65364966D01*
X164502830Y-65349990D01*
X164502820Y-65349990D01*
X164451992Y-65344984D01*
X164401164Y-65349990D01*
X143479757Y-65349990D01*
X143428929Y-65344984D01*
X143378101Y-65349990D01*
X143378092Y-65349990D01*
X143226035Y-65364966D01*
X143030937Y-65424149D01*
X142947239Y-65468886D01*
X142851132Y-65520256D01*
X142733022Y-65617187D01*
X142693534Y-65649594D01*
X142661127Y-65689082D01*
X141823582Y-66526628D01*
X141784095Y-66559034D01*
X141751688Y-66598522D01*
X141751687Y-66598523D01*
X141654756Y-66716633D01*
X141577849Y-66860518D01*
X141558650Y-66896437D01*
X141499467Y-67091535D01*
X141496664Y-67120000D01*
X141479484Y-67294430D01*
X141484491Y-67345268D01*
X141484490Y-77358799D01*
X137653290Y-81190000D01*
X137534975Y-81190000D01*
X137558962Y-81166013D01*
X137705061Y-80947359D01*
X137805696Y-80704405D01*
X137857000Y-80446486D01*
X137857000Y-80183514D01*
X137805696Y-79925595D01*
X137705061Y-79682641D01*
X137558962Y-79463987D01*
X137373013Y-79278038D01*
X137154359Y-79131939D01*
X136944470Y-79045000D01*
X137154359Y-78958061D01*
X137373013Y-78811962D01*
X137558962Y-78626013D01*
X137705061Y-78407359D01*
X137805696Y-78164405D01*
X137857000Y-77906486D01*
X137857000Y-77643514D01*
X137830442Y-77509999D01*
X139143938Y-77509999D01*
X139194056Y-77500030D01*
X139244894Y-77495023D01*
X139293776Y-77480195D01*
X139343897Y-77470225D01*
X139391112Y-77450668D01*
X139439992Y-77435840D01*
X139485041Y-77411761D01*
X139532255Y-77392204D01*
X139574745Y-77363813D01*
X139619796Y-77339733D01*
X139659283Y-77307327D01*
X139701773Y-77278936D01*
X139737907Y-77242802D01*
X139777395Y-77210395D01*
X139809803Y-77170906D01*
X139845936Y-77134773D01*
X139874327Y-77092283D01*
X139906733Y-77052796D01*
X139930813Y-77007745D01*
X139959204Y-76965255D01*
X139978761Y-76918041D01*
X140002840Y-76872992D01*
X140017668Y-76824112D01*
X140037225Y-76776897D01*
X140047195Y-76726776D01*
X140062023Y-76677894D01*
X140067030Y-76627056D01*
X140076999Y-76576938D01*
X140076999Y-76525837D01*
X140082006Y-76474999D01*
X140076999Y-76424161D01*
X140076999Y-76373060D01*
X140067030Y-76322942D01*
X140062023Y-76272104D01*
X140047195Y-76223222D01*
X140037225Y-76173101D01*
X140017668Y-76125886D01*
X140002840Y-76077006D01*
X139978761Y-76031957D01*
X139959204Y-75984743D01*
X139930813Y-75942253D01*
X139906733Y-75897202D01*
X139874327Y-75857715D01*
X139845936Y-75815225D01*
X139809802Y-75779091D01*
X139777395Y-75739603D01*
X139737907Y-75707196D01*
X139701773Y-75671062D01*
X139659283Y-75642671D01*
X139619796Y-75610265D01*
X139574745Y-75586185D01*
X139532255Y-75557794D01*
X139485041Y-75538237D01*
X139439992Y-75514158D01*
X139391112Y-75499330D01*
X139343897Y-75479773D01*
X139293776Y-75469803D01*
X139244894Y-75454975D01*
X139194056Y-75449968D01*
X139143938Y-75439999D01*
X135869373Y-75439999D01*
X135887226Y-75396898D01*
X135897196Y-75346777D01*
X135912024Y-75297895D01*
X135917031Y-75247057D01*
X135927000Y-75196939D01*
X135927000Y-70533710D01*
X136474465Y-69986245D01*
X136493785Y-70182400D01*
X136560115Y-70401060D01*
X136667829Y-70602579D01*
X136812788Y-70779212D01*
X136989421Y-70924171D01*
X137190940Y-71031885D01*
X137409600Y-71098215D01*
X137580021Y-71115000D01*
X138143979Y-71115000D01*
X138314400Y-71098215D01*
X138533060Y-71031885D01*
X138734579Y-70924171D01*
X138911212Y-70779212D01*
X139056171Y-70602579D01*
X139163885Y-70401060D01*
X139230215Y-70182400D01*
X139252612Y-69955000D01*
X139230215Y-69727600D01*
X139163885Y-69508940D01*
X139062895Y-69320000D01*
X139163885Y-69131060D01*
X139230215Y-68912400D01*
X139252612Y-68685000D01*
X139230215Y-68457600D01*
X139166907Y-68248902D01*
X139201502Y-68184180D01*
X139237812Y-68064482D01*
X139250072Y-67940000D01*
X139247000Y-67700750D01*
X139088250Y-67542000D01*
X138315109Y-67542000D01*
X138314400Y-67541785D01*
X138143979Y-67525000D01*
X137580021Y-67525000D01*
X137409600Y-67541785D01*
X137408891Y-67542000D01*
X136635750Y-67542000D01*
X136527750Y-67650000D01*
X136362827Y-67650000D01*
X136311999Y-67644994D01*
X136261171Y-67650000D01*
X136261162Y-67650000D01*
X136109105Y-67664976D01*
X135914007Y-67724159D01*
X135830309Y-67768896D01*
X135734202Y-67820266D01*
X135670888Y-67872227D01*
X135576604Y-67949604D01*
X135544197Y-67989092D01*
X134196097Y-69337193D01*
X134156604Y-69369604D01*
X134027266Y-69527203D01*
X133931159Y-69707008D01*
X133871976Y-69902106D01*
X133857000Y-70054163D01*
X133857000Y-70054172D01*
X133851994Y-70105000D01*
X133857000Y-70155828D01*
X133857001Y-74993056D01*
X133857000Y-74993061D01*
X133857000Y-75196939D01*
X133866971Y-75247067D01*
X133871977Y-75297895D01*
X133886803Y-75346768D01*
X133896774Y-75396898D01*
X133914627Y-75439999D01*
X121372836Y-75439999D01*
X121322001Y-75434992D01*
X121271166Y-75439999D01*
X121271163Y-75439999D01*
X121119106Y-75454975D01*
X120924008Y-75514158D01*
X120744204Y-75610265D01*
X120586605Y-75739603D01*
X120568572Y-75761576D01*
X120546605Y-75779604D01*
X120514198Y-75819092D01*
X120514197Y-75819093D01*
X120417266Y-75937203D01*
X120321160Y-76117007D01*
X120261977Y-76312105D01*
X120241994Y-76515000D01*
X120247001Y-76565837D01*
X120247001Y-76922024D01*
X120245038Y-76923987D01*
X120098939Y-77142641D01*
X120012000Y-77352530D01*
X119925061Y-77142641D01*
X119778962Y-76923987D01*
X119593013Y-76738038D01*
X119374359Y-76591939D01*
X119131405Y-76491304D01*
X118873486Y-76440000D01*
X118610514Y-76440000D01*
X118352595Y-76491304D01*
X118109641Y-76591939D01*
X117890987Y-76738038D01*
X117705038Y-76923987D01*
X117558939Y-77142641D01*
X117472000Y-77352530D01*
X117385061Y-77142641D01*
X117238962Y-76923987D01*
X117053013Y-76738038D01*
X116834359Y-76591939D01*
X116591405Y-76491304D01*
X116333486Y-76440000D01*
X116070514Y-76440000D01*
X115812595Y-76491304D01*
X115569641Y-76591939D01*
X115350987Y-76738038D01*
X115165038Y-76923987D01*
X115018939Y-77142641D01*
X114930379Y-77356444D01*
X114870935Y-77193634D01*
X114817037Y-77092797D01*
X114583269Y-77033336D01*
X113841605Y-77775000D01*
X114583269Y-78516664D01*
X114817037Y-78457203D01*
X114927934Y-78218758D01*
X114932706Y-78199173D01*
X115018939Y-78407359D01*
X115165038Y-78626013D01*
X115350987Y-78811962D01*
X115569641Y-78958061D01*
X115779530Y-79045000D01*
X115569641Y-79131939D01*
X115350987Y-79278038D01*
X115165038Y-79463987D01*
X115018939Y-79682641D01*
X114932000Y-79892530D01*
X114845061Y-79682641D01*
X114698962Y-79463987D01*
X114513013Y-79278038D01*
X114294359Y-79131939D01*
X114080556Y-79043379D01*
X114243366Y-78983935D01*
X114344203Y-78930037D01*
X114403664Y-78696269D01*
X113662000Y-77954605D01*
X112920336Y-78696269D01*
X112979797Y-78930037D01*
X113218242Y-79040934D01*
X113237827Y-79045706D01*
X113029641Y-79131939D01*
X112810987Y-79278038D01*
X112625038Y-79463987D01*
X112478939Y-79682641D01*
X112378304Y-79925595D01*
X112327000Y-80183514D01*
X112164315Y-80183514D01*
X112164391Y-79956728D01*
X112162003Y-79932175D01*
X112154827Y-79908336D01*
X112143138Y-79886354D01*
X112127385Y-79867075D01*
X112108173Y-79851240D01*
X112086242Y-79839457D01*
X112062433Y-79832179D01*
X112037662Y-79829686D01*
X100065000Y-79804149D01*
X100065000Y-77849473D01*
X112322610Y-77849473D01*
X112362875Y-78109344D01*
X112453065Y-78356366D01*
X112506963Y-78457203D01*
X112740731Y-78516664D01*
X113482395Y-77775000D01*
X112740731Y-77033336D01*
X112506963Y-77092797D01*
X112396066Y-77331242D01*
X112333817Y-77586740D01*
X112322610Y-77849473D01*
X100065000Y-77849473D01*
X100065000Y-76628137D01*
X101577000Y-76628137D01*
X101577000Y-76841863D01*
X101618696Y-77051483D01*
X101700485Y-77248940D01*
X101819225Y-77426647D01*
X101970353Y-77577775D01*
X102148060Y-77696515D01*
X102345517Y-77778304D01*
X102555137Y-77820000D01*
X102768863Y-77820000D01*
X102978483Y-77778304D01*
X103175940Y-77696515D01*
X103353647Y-77577775D01*
X103504775Y-77426647D01*
X103623515Y-77248940D01*
X103705304Y-77051483D01*
X103744639Y-76853731D01*
X112920336Y-76853731D01*
X113662000Y-77595395D01*
X114403664Y-76853731D01*
X114344203Y-76619963D01*
X114105758Y-76509066D01*
X113850260Y-76446817D01*
X113587527Y-76435610D01*
X113327656Y-76475875D01*
X113080634Y-76566065D01*
X112979797Y-76619963D01*
X112920336Y-76853731D01*
X103744639Y-76853731D01*
X103747000Y-76841863D01*
X103747000Y-76628137D01*
X103705304Y-76418517D01*
X103623515Y-76221060D01*
X103504775Y-76043353D01*
X103353647Y-75892225D01*
X103175940Y-75773485D01*
X102978483Y-75691696D01*
X102768863Y-75650000D01*
X102555137Y-75650000D01*
X102345517Y-75691696D01*
X102148060Y-75773485D01*
X101970353Y-75892225D01*
X101819225Y-76043353D01*
X101700485Y-76221060D01*
X101618696Y-76418517D01*
X101577000Y-76628137D01*
X100065000Y-76628137D01*
X100065000Y-73628137D01*
X101577000Y-73628137D01*
X101577000Y-73841863D01*
X101618696Y-74051483D01*
X101700485Y-74248940D01*
X101819225Y-74426647D01*
X101970353Y-74577775D01*
X102148060Y-74696515D01*
X102345517Y-74778304D01*
X102555137Y-74820000D01*
X102768863Y-74820000D01*
X102978483Y-74778304D01*
X103175940Y-74696515D01*
X103353647Y-74577775D01*
X103504775Y-74426647D01*
X103623515Y-74248940D01*
X103705304Y-74051483D01*
X103747000Y-73841863D01*
X103747000Y-73628137D01*
X103706594Y-73425000D01*
X110803928Y-73425000D01*
X110803928Y-75125000D01*
X110816188Y-75249482D01*
X110852498Y-75369180D01*
X110911463Y-75479494D01*
X110990815Y-75576185D01*
X111087506Y-75655537D01*
X111197820Y-75714502D01*
X111317518Y-75750812D01*
X111442000Y-75763072D01*
X113142000Y-75763072D01*
X113266482Y-75750812D01*
X113386180Y-75714502D01*
X113496494Y-75655537D01*
X113593185Y-75576185D01*
X113672537Y-75479494D01*
X113731502Y-75369180D01*
X113767812Y-75249482D01*
X113780072Y-75125000D01*
X113780072Y-73425000D01*
X113767812Y-73300518D01*
X113731502Y-73180820D01*
X113672537Y-73070506D01*
X113593185Y-72973815D01*
X113496494Y-72894463D01*
X113386180Y-72835498D01*
X113266482Y-72799188D01*
X113142000Y-72786928D01*
X111442000Y-72786928D01*
X111317518Y-72799188D01*
X111197820Y-72835498D01*
X111087506Y-72894463D01*
X110990815Y-72973815D01*
X110911463Y-73070506D01*
X110852498Y-73180820D01*
X110816188Y-73300518D01*
X110803928Y-73425000D01*
X103706594Y-73425000D01*
X103705304Y-73418517D01*
X103623515Y-73221060D01*
X103504775Y-73043353D01*
X103353647Y-72892225D01*
X103175940Y-72773485D01*
X102978483Y-72691696D01*
X102768863Y-72650000D01*
X102555137Y-72650000D01*
X102345517Y-72691696D01*
X102148060Y-72773485D01*
X101970353Y-72892225D01*
X101819225Y-73043353D01*
X101700485Y-73221060D01*
X101618696Y-73418517D01*
X101577000Y-73628137D01*
X100065000Y-73628137D01*
X100065000Y-68864419D01*
X109477000Y-68864419D01*
X109477000Y-69245581D01*
X109551361Y-69619419D01*
X109697225Y-69971566D01*
X109908987Y-70288491D01*
X110178509Y-70558013D01*
X110495434Y-70769775D01*
X110847581Y-70915639D01*
X111221419Y-70990000D01*
X111602581Y-70990000D01*
X111976419Y-70915639D01*
X112328566Y-70769775D01*
X112645491Y-70558013D01*
X112915013Y-70288491D01*
X113126775Y-69971566D01*
X113272639Y-69619419D01*
X113347000Y-69245581D01*
X113347000Y-68864419D01*
X113272639Y-68490581D01*
X113126775Y-68138434D01*
X112915013Y-67821509D01*
X112645491Y-67551987D01*
X112328566Y-67340225D01*
X111976419Y-67194361D01*
X111602581Y-67120000D01*
X111221419Y-67120000D01*
X110847581Y-67194361D01*
X110495434Y-67340225D01*
X110178509Y-67551987D01*
X109908987Y-67821509D01*
X109697225Y-68138434D01*
X109551361Y-68490581D01*
X109477000Y-68864419D01*
X100065000Y-68864419D01*
X100065000Y-66890000D01*
X136473928Y-66890000D01*
X136477000Y-67129250D01*
X136635750Y-67288000D01*
X137735000Y-67288000D01*
X137735000Y-66413750D01*
X137989000Y-66413750D01*
X137989000Y-67288000D01*
X139088250Y-67288000D01*
X139247000Y-67129250D01*
X139250072Y-66890000D01*
X139237812Y-66765518D01*
X139201502Y-66645820D01*
X139142537Y-66535506D01*
X139063185Y-66438815D01*
X138966494Y-66359463D01*
X138856180Y-66300498D01*
X138736482Y-66264188D01*
X138612000Y-66251928D01*
X138147750Y-66255000D01*
X137989000Y-66413750D01*
X137735000Y-66413750D01*
X137576250Y-66255000D01*
X137112000Y-66251928D01*
X136987518Y-66264188D01*
X136867820Y-66300498D01*
X136757506Y-66359463D01*
X136660815Y-66438815D01*
X136581463Y-66535506D01*
X136522498Y-66645820D01*
X136486188Y-66765518D01*
X136473928Y-66890000D01*
X100065000Y-66890000D01*
X100065000Y-65355000D01*
X109473928Y-65355000D01*
X109486188Y-65479482D01*
X109522498Y-65599180D01*
X109581463Y-65709494D01*
X109660815Y-65806185D01*
X109757506Y-65885537D01*
X109867820Y-65944502D01*
X109987518Y-65980812D01*
X110112000Y-65993072D01*
X111126250Y-65990000D01*
X111285000Y-65831250D01*
X111285000Y-64182000D01*
X111539000Y-64182000D01*
X111539000Y-65831250D01*
X111697750Y-65990000D01*
X112712000Y-65993072D01*
X112836482Y-65980812D01*
X112956180Y-65944502D01*
X113066494Y-65885537D01*
X113163185Y-65806185D01*
X113242537Y-65709494D01*
X113301502Y-65599180D01*
X113337812Y-65479482D01*
X113350072Y-65355000D01*
X113347000Y-64340750D01*
X113188250Y-64182000D01*
X111539000Y-64182000D01*
X111285000Y-64182000D01*
X109635750Y-64182000D01*
X109477000Y-64340750D01*
X109473928Y-65355000D01*
X100065000Y-65355000D01*
X100065000Y-62755000D01*
X109473928Y-62755000D01*
X109477000Y-63769250D01*
X109635750Y-63928000D01*
X111285000Y-63928000D01*
X111285000Y-62278750D01*
X111539000Y-62278750D01*
X111539000Y-63928000D01*
X113188250Y-63928000D01*
X113347000Y-63769250D01*
X113350072Y-62755000D01*
X113337812Y-62630518D01*
X113301502Y-62510820D01*
X113242537Y-62400506D01*
X113163185Y-62303815D01*
X113066494Y-62224463D01*
X112956180Y-62165498D01*
X112836482Y-62129188D01*
X112712000Y-62116928D01*
X111697750Y-62120000D01*
X111539000Y-62278750D01*
X111285000Y-62278750D01*
X111126250Y-62120000D01*
X110112000Y-62116928D01*
X109987518Y-62129188D01*
X109867820Y-62165498D01*
X109757506Y-62224463D01*
X109660815Y-62303815D01*
X109581463Y-62400506D01*
X109522498Y-62510820D01*
X109486188Y-62630518D01*
X109473928Y-62755000D01*
X100065000Y-62755000D01*
X100065000Y-58704419D01*
X109477000Y-58704419D01*
X109477000Y-59085581D01*
X109551361Y-59459419D01*
X109697225Y-59811566D01*
X109908987Y-60128491D01*
X110178509Y-60398013D01*
X110495434Y-60609775D01*
X110847581Y-60755639D01*
X111221419Y-60830000D01*
X111602581Y-60830000D01*
X111976419Y-60755639D01*
X112328566Y-60609775D01*
X112645491Y-60398013D01*
X112915013Y-60128491D01*
X113126775Y-59811566D01*
X113272639Y-59459419D01*
X113347000Y-59085581D01*
X113347000Y-58704419D01*
X113272639Y-58330581D01*
X113126775Y-57978434D01*
X112915013Y-57661509D01*
X112645491Y-57391987D01*
X112328566Y-57180225D01*
X111976419Y-57034361D01*
X111602581Y-56960000D01*
X111221419Y-56960000D01*
X110847581Y-57034361D01*
X110495434Y-57180225D01*
X110178509Y-57391987D01*
X109908987Y-57661509D01*
X109697225Y-57978434D01*
X109551361Y-58330581D01*
X109477000Y-58704419D01*
X100065000Y-58704419D01*
X100065000Y-55972000D01*
X106412000Y-55972000D01*
X106436776Y-55969560D01*
X106460601Y-55962333D01*
X106482557Y-55950597D01*
X106501803Y-55934803D01*
X106517597Y-55915557D01*
X106529333Y-55893601D01*
X106536560Y-55869776D01*
X106539000Y-55845000D01*
X106539000Y-55195000D01*
X109473928Y-55195000D01*
X109486188Y-55319482D01*
X109522498Y-55439180D01*
X109581463Y-55549494D01*
X109660815Y-55646185D01*
X109757506Y-55725537D01*
X109867820Y-55784502D01*
X109987518Y-55820812D01*
X110112000Y-55833072D01*
X111126250Y-55830000D01*
X111285000Y-55671250D01*
X111285000Y-54022000D01*
X111539000Y-54022000D01*
X111539000Y-55671250D01*
X111697750Y-55830000D01*
X112712000Y-55833072D01*
X112836482Y-55820812D01*
X112956180Y-55784502D01*
X113066494Y-55725537D01*
X113140598Y-55664721D01*
X116477000Y-55664721D01*
X116477000Y-56085279D01*
X116559047Y-56497756D01*
X116719988Y-56886302D01*
X116953637Y-57235983D01*
X117251017Y-57533363D01*
X117600698Y-57767012D01*
X117989244Y-57927953D01*
X118401721Y-58010000D01*
X118822279Y-58010000D01*
X119234756Y-57927953D01*
X119623302Y-57767012D01*
X119972983Y-57533363D01*
X120270363Y-57235983D01*
X120504012Y-56886302D01*
X120664953Y-56497756D01*
X120747000Y-56085279D01*
X120747000Y-55664721D01*
X139077000Y-55664721D01*
X139077000Y-56085279D01*
X139159047Y-56497756D01*
X139319988Y-56886302D01*
X139553637Y-57235983D01*
X139851017Y-57533363D01*
X140200698Y-57767012D01*
X140589244Y-57927953D01*
X141001721Y-58010000D01*
X141422279Y-58010000D01*
X141834756Y-57927953D01*
X142223302Y-57767012D01*
X142527000Y-57564088D01*
X142527001Y-61743056D01*
X142527000Y-61743061D01*
X142527000Y-61794162D01*
X142521993Y-61845000D01*
X142527000Y-61895838D01*
X142527000Y-61946939D01*
X142536969Y-61997057D01*
X142541976Y-62047895D01*
X142556804Y-62096777D01*
X142566774Y-62146898D01*
X142586331Y-62194113D01*
X142601159Y-62242993D01*
X142625238Y-62288042D01*
X142644795Y-62335256D01*
X142673186Y-62377746D01*
X142697266Y-62422797D01*
X142729672Y-62462284D01*
X142758063Y-62504774D01*
X142794197Y-62540908D01*
X142826604Y-62580396D01*
X142866092Y-62612803D01*
X142902226Y-62648937D01*
X142944716Y-62677328D01*
X142984203Y-62709734D01*
X143029254Y-62733814D01*
X143071744Y-62762205D01*
X143118958Y-62781762D01*
X143164007Y-62805841D01*
X143212887Y-62820669D01*
X143260102Y-62840226D01*
X143310223Y-62850196D01*
X143359105Y-62865024D01*
X143409943Y-62870031D01*
X143460061Y-62880000D01*
X143511162Y-62880000D01*
X143562000Y-62885007D01*
X143612838Y-62880000D01*
X143663939Y-62880000D01*
X143714057Y-62870031D01*
X143764895Y-62865024D01*
X143813777Y-62850196D01*
X143863898Y-62840226D01*
X143911113Y-62820669D01*
X143959993Y-62805841D01*
X144005042Y-62781762D01*
X144052256Y-62762205D01*
X144094746Y-62733814D01*
X144139797Y-62709734D01*
X144179284Y-62677328D01*
X144221774Y-62648937D01*
X144257908Y-62612803D01*
X144297396Y-62580396D01*
X144329803Y-62540908D01*
X144365937Y-62504774D01*
X144394328Y-62462284D01*
X144426734Y-62422797D01*
X144450814Y-62377746D01*
X144479205Y-62335256D01*
X144498762Y-62288042D01*
X144522841Y-62242993D01*
X144537669Y-62194113D01*
X144557226Y-62146898D01*
X144567196Y-62096777D01*
X144582024Y-62047895D01*
X144587031Y-61997057D01*
X144597000Y-61946939D01*
X144597000Y-61895838D01*
X144602007Y-61845000D01*
X144597000Y-61794162D01*
X144597000Y-59802283D01*
X144620537Y-59830963D01*
X144862265Y-60029345D01*
X145138051Y-60176755D01*
X145437296Y-60267530D01*
X145670514Y-60290500D01*
X145921486Y-60290500D01*
X146154704Y-60267530D01*
X146453949Y-60176755D01*
X146729735Y-60029345D01*
X146971463Y-59830963D01*
X147169845Y-59589235D01*
X147317255Y-59313449D01*
X147408030Y-59014204D01*
X147438681Y-58703000D01*
X147408030Y-58391796D01*
X147317255Y-58092551D01*
X147169845Y-57816765D01*
X146971463Y-57575037D01*
X146798391Y-57433000D01*
X146934443Y-57321344D01*
X162917000Y-57321344D01*
X162917000Y-57692656D01*
X162989439Y-58056834D01*
X163131534Y-58399882D01*
X163337825Y-58708618D01*
X163600382Y-58971175D01*
X163909118Y-59177466D01*
X164252166Y-59319561D01*
X164616344Y-59392000D01*
X164987656Y-59392000D01*
X165351834Y-59319561D01*
X165694882Y-59177466D01*
X166003618Y-58971175D01*
X166266175Y-58708618D01*
X166472466Y-58399882D01*
X166614561Y-58056834D01*
X166687000Y-57692656D01*
X166687000Y-57321344D01*
X166614561Y-56957166D01*
X166472466Y-56614118D01*
X166266175Y-56305382D01*
X166217793Y-56257000D01*
X167993928Y-56257000D01*
X167993928Y-58757000D01*
X168006188Y-58881482D01*
X168042498Y-59001180D01*
X168101463Y-59111494D01*
X168180815Y-59208185D01*
X168277506Y-59287537D01*
X168387820Y-59346502D01*
X168507518Y-59382812D01*
X168632000Y-59395072D01*
X171132000Y-59395072D01*
X171256482Y-59382812D01*
X171376180Y-59346502D01*
X171486494Y-59287537D01*
X171583185Y-59208185D01*
X171662537Y-59111494D01*
X171721502Y-59001180D01*
X171757812Y-58881482D01*
X171770072Y-58757000D01*
X171770072Y-57319344D01*
X173067000Y-57319344D01*
X173067000Y-57690656D01*
X173139439Y-58054834D01*
X173281534Y-58397882D01*
X173487825Y-58706618D01*
X173750382Y-58969175D01*
X174059118Y-59175466D01*
X174402166Y-59317561D01*
X174766344Y-59390000D01*
X175137656Y-59390000D01*
X175501834Y-59317561D01*
X175844882Y-59175466D01*
X176153618Y-58969175D01*
X176416175Y-58706618D01*
X176622466Y-58397882D01*
X176764561Y-58054834D01*
X176837000Y-57690656D01*
X176837000Y-57319344D01*
X176764561Y-56955166D01*
X176622466Y-56612118D01*
X176416175Y-56303382D01*
X176367793Y-56255000D01*
X178143928Y-56255000D01*
X178143928Y-58755000D01*
X178156188Y-58879482D01*
X178192498Y-58999180D01*
X178251463Y-59109494D01*
X178330815Y-59206185D01*
X178427506Y-59285537D01*
X178537820Y-59344502D01*
X178657518Y-59380812D01*
X178782000Y-59393072D01*
X181282000Y-59393072D01*
X181406482Y-59380812D01*
X181526180Y-59344502D01*
X181636494Y-59285537D01*
X181733185Y-59206185D01*
X181812537Y-59109494D01*
X181871502Y-58999180D01*
X181907812Y-58879482D01*
X181920072Y-58755000D01*
X181920072Y-57309344D01*
X183217000Y-57309344D01*
X183217000Y-57680656D01*
X183289439Y-58044834D01*
X183431534Y-58387882D01*
X183637825Y-58696618D01*
X183900382Y-58959175D01*
X184209118Y-59165466D01*
X184552166Y-59307561D01*
X184916344Y-59380000D01*
X185287656Y-59380000D01*
X185651834Y-59307561D01*
X185994882Y-59165466D01*
X186303618Y-58959175D01*
X186566175Y-58696618D01*
X186772466Y-58387882D01*
X186914561Y-58044834D01*
X186987000Y-57680656D01*
X186987000Y-57309344D01*
X186914561Y-56945166D01*
X186772466Y-56602118D01*
X186566175Y-56293382D01*
X186517793Y-56245000D01*
X188293928Y-56245000D01*
X188293928Y-58745000D01*
X188306188Y-58869482D01*
X188342498Y-58989180D01*
X188401463Y-59099494D01*
X188480815Y-59196185D01*
X188577506Y-59275537D01*
X188687820Y-59334502D01*
X188807518Y-59370812D01*
X188932000Y-59383072D01*
X191432000Y-59383072D01*
X191556482Y-59370812D01*
X191676180Y-59334502D01*
X191786494Y-59275537D01*
X191883185Y-59196185D01*
X191962537Y-59099494D01*
X192021502Y-58989180D01*
X192057812Y-58869482D01*
X192070072Y-58745000D01*
X192070072Y-57299344D01*
X193367000Y-57299344D01*
X193367000Y-57670656D01*
X193439439Y-58034834D01*
X193581534Y-58377882D01*
X193787825Y-58686618D01*
X194050382Y-58949175D01*
X194359118Y-59155466D01*
X194702166Y-59297561D01*
X195066344Y-59370000D01*
X195437656Y-59370000D01*
X195801834Y-59297561D01*
X196144882Y-59155466D01*
X196453618Y-58949175D01*
X196716175Y-58686618D01*
X196922466Y-58377882D01*
X197064561Y-58034834D01*
X197137000Y-57670656D01*
X197137000Y-57299344D01*
X197064561Y-56935166D01*
X196922466Y-56592118D01*
X196716175Y-56283382D01*
X196667793Y-56235000D01*
X198443928Y-56235000D01*
X198443928Y-58735000D01*
X198456188Y-58859482D01*
X198492498Y-58979180D01*
X198551463Y-59089494D01*
X198630815Y-59186185D01*
X198727506Y-59265537D01*
X198837820Y-59324502D01*
X198957518Y-59360812D01*
X199082000Y-59373072D01*
X201582000Y-59373072D01*
X201706482Y-59360812D01*
X201826180Y-59324502D01*
X201936494Y-59265537D01*
X202033185Y-59186185D01*
X202112537Y-59089494D01*
X202171502Y-58979180D01*
X202207812Y-58859482D01*
X202220072Y-58735000D01*
X202220072Y-56235000D01*
X202207812Y-56110518D01*
X202171502Y-55990820D01*
X202112537Y-55880506D01*
X202033185Y-55783815D01*
X201936494Y-55704463D01*
X201826180Y-55645498D01*
X201706482Y-55609188D01*
X201582000Y-55596928D01*
X199082000Y-55596928D01*
X198957518Y-55609188D01*
X198837820Y-55645498D01*
X198727506Y-55704463D01*
X198630815Y-55783815D01*
X198551463Y-55880506D01*
X198492498Y-55990820D01*
X198456188Y-56110518D01*
X198443928Y-56235000D01*
X196667793Y-56235000D01*
X196453618Y-56020825D01*
X196144882Y-55814534D01*
X195801834Y-55672439D01*
X195437656Y-55600000D01*
X195066344Y-55600000D01*
X194702166Y-55672439D01*
X194359118Y-55814534D01*
X194050382Y-56020825D01*
X193787825Y-56283382D01*
X193581534Y-56592118D01*
X193439439Y-56935166D01*
X193367000Y-57299344D01*
X192070072Y-57299344D01*
X192070072Y-56245000D01*
X192057812Y-56120518D01*
X192021502Y-56000820D01*
X191962537Y-55890506D01*
X191883185Y-55793815D01*
X191786494Y-55714463D01*
X191676180Y-55655498D01*
X191556482Y-55619188D01*
X191432000Y-55606928D01*
X188932000Y-55606928D01*
X188807518Y-55619188D01*
X188687820Y-55655498D01*
X188577506Y-55714463D01*
X188480815Y-55793815D01*
X188401463Y-55890506D01*
X188342498Y-56000820D01*
X188306188Y-56120518D01*
X188293928Y-56245000D01*
X186517793Y-56245000D01*
X186303618Y-56030825D01*
X185994882Y-55824534D01*
X185651834Y-55682439D01*
X185287656Y-55610000D01*
X184916344Y-55610000D01*
X184552166Y-55682439D01*
X184209118Y-55824534D01*
X183900382Y-56030825D01*
X183637825Y-56293382D01*
X183431534Y-56602118D01*
X183289439Y-56945166D01*
X183217000Y-57309344D01*
X181920072Y-57309344D01*
X181920072Y-56255000D01*
X181907812Y-56130518D01*
X181871502Y-56010820D01*
X181812537Y-55900506D01*
X181733185Y-55803815D01*
X181636494Y-55724463D01*
X181526180Y-55665498D01*
X181406482Y-55629188D01*
X181282000Y-55616928D01*
X178782000Y-55616928D01*
X178657518Y-55629188D01*
X178537820Y-55665498D01*
X178427506Y-55724463D01*
X178330815Y-55803815D01*
X178251463Y-55900506D01*
X178192498Y-56010820D01*
X178156188Y-56130518D01*
X178143928Y-56255000D01*
X176367793Y-56255000D01*
X176153618Y-56040825D01*
X175844882Y-55834534D01*
X175501834Y-55692439D01*
X175137656Y-55620000D01*
X174766344Y-55620000D01*
X174402166Y-55692439D01*
X174059118Y-55834534D01*
X173750382Y-56040825D01*
X173487825Y-56303382D01*
X173281534Y-56612118D01*
X173139439Y-56955166D01*
X173067000Y-57319344D01*
X171770072Y-57319344D01*
X171770072Y-56257000D01*
X171757812Y-56132518D01*
X171721502Y-56012820D01*
X171662537Y-55902506D01*
X171583185Y-55805815D01*
X171486494Y-55726463D01*
X171376180Y-55667498D01*
X171256482Y-55631188D01*
X171132000Y-55618928D01*
X168632000Y-55618928D01*
X168507518Y-55631188D01*
X168387820Y-55667498D01*
X168277506Y-55726463D01*
X168180815Y-55805815D01*
X168101463Y-55902506D01*
X168042498Y-56012820D01*
X168006188Y-56132518D01*
X167993928Y-56257000D01*
X166217793Y-56257000D01*
X166003618Y-56042825D01*
X165694882Y-55836534D01*
X165351834Y-55694439D01*
X164987656Y-55622000D01*
X164616344Y-55622000D01*
X164252166Y-55694439D01*
X163909118Y-55836534D01*
X163600382Y-56042825D01*
X163337825Y-56305382D01*
X163131534Y-56614118D01*
X162989439Y-56957166D01*
X162917000Y-57321344D01*
X146934443Y-57321344D01*
X146971463Y-57290963D01*
X147169845Y-57049235D01*
X147317255Y-56773449D01*
X147408030Y-56474204D01*
X147438681Y-56163000D01*
X147408030Y-55851796D01*
X147317255Y-55552551D01*
X147169845Y-55276765D01*
X147066554Y-55150905D01*
X147150494Y-55106037D01*
X147247185Y-55026685D01*
X147326537Y-54929994D01*
X147385502Y-54819680D01*
X147421812Y-54699982D01*
X147434072Y-54575500D01*
X147434072Y-52670500D01*
X147421812Y-52546018D01*
X147385502Y-52426320D01*
X147326537Y-52316006D01*
X147247185Y-52219315D01*
X147150494Y-52139963D01*
X147040180Y-52080998D01*
X146920482Y-52044688D01*
X146796000Y-52032428D01*
X144796000Y-52032428D01*
X144671518Y-52044688D01*
X144551820Y-52080998D01*
X144441506Y-52139963D01*
X144344815Y-52219315D01*
X144265463Y-52316006D01*
X144206498Y-52426320D01*
X144170188Y-52546018D01*
X144157928Y-52670500D01*
X144157928Y-52863538D01*
X144128604Y-52887604D01*
X144096197Y-52927092D01*
X142866097Y-54157193D01*
X142826604Y-54189604D01*
X142700098Y-54343752D01*
X142572983Y-54216637D01*
X142223302Y-53982988D01*
X141834756Y-53822047D01*
X141422279Y-53740000D01*
X141001721Y-53740000D01*
X140589244Y-53822047D01*
X140200698Y-53982988D01*
X139851017Y-54216637D01*
X139553637Y-54514017D01*
X139319988Y-54863698D01*
X139159047Y-55252244D01*
X139077000Y-55664721D01*
X120747000Y-55664721D01*
X120664953Y-55252244D01*
X120504012Y-54863698D01*
X120270363Y-54514017D01*
X119972983Y-54216637D01*
X119623302Y-53982988D01*
X119234756Y-53822047D01*
X118822279Y-53740000D01*
X118401721Y-53740000D01*
X117989244Y-53822047D01*
X117600698Y-53982988D01*
X117251017Y-54216637D01*
X116953637Y-54514017D01*
X116719988Y-54863698D01*
X116559047Y-55252244D01*
X116477000Y-55664721D01*
X113140598Y-55664721D01*
X113163185Y-55646185D01*
X113242537Y-55549494D01*
X113301502Y-55439180D01*
X113337812Y-55319482D01*
X113350072Y-55195000D01*
X113347000Y-54180750D01*
X113188250Y-54022000D01*
X111539000Y-54022000D01*
X111285000Y-54022000D01*
X109635750Y-54022000D01*
X109477000Y-54180750D01*
X109473928Y-55195000D01*
X106539000Y-55195000D01*
X106539000Y-52595000D01*
X109473928Y-52595000D01*
X109477000Y-53609250D01*
X109635750Y-53768000D01*
X111285000Y-53768000D01*
X111285000Y-52118750D01*
X111539000Y-52118750D01*
X111539000Y-53768000D01*
X113188250Y-53768000D01*
X113347000Y-53609250D01*
X113350072Y-52595000D01*
X113337812Y-52470518D01*
X113301502Y-52350820D01*
X113242537Y-52240506D01*
X113163185Y-52143815D01*
X113066494Y-52064463D01*
X112956180Y-52005498D01*
X112836482Y-51969188D01*
X112712000Y-51956928D01*
X111697750Y-51960000D01*
X111539000Y-52118750D01*
X111285000Y-52118750D01*
X111126250Y-51960000D01*
X110112000Y-51956928D01*
X109987518Y-51969188D01*
X109867820Y-52005498D01*
X109757506Y-52064463D01*
X109660815Y-52143815D01*
X109581463Y-52240506D01*
X109522498Y-52350820D01*
X109486188Y-52470518D01*
X109473928Y-52595000D01*
X106539000Y-52595000D01*
X106539000Y-49485000D01*
X204229542Y-49485000D01*
X204217186Y-55778316D01*
G04 #@! TA.AperFunction,Conductor*
D27*
G36*
X204217186Y-55778316D02*
G01*
X204219607Y-55803245D01*
X204226816Y-55827075D01*
X204238535Y-55849041D01*
X204254314Y-55868298D01*
X204273547Y-55884107D01*
X204295494Y-55895860D01*
X204319313Y-55903106D01*
X204344088Y-55905565D01*
X210695000Y-55910484D01*
X210695000Y-75815583D01*
X153802240Y-75708000D01*
X153777459Y-75710394D01*
X153753621Y-75717576D01*
X153731642Y-75729270D01*
X153712367Y-75745028D01*
X153696537Y-75764243D01*
X153684759Y-75786177D01*
X153677487Y-75809988D01*
X153675000Y-75834760D01*
X153677394Y-75859541D01*
X153684576Y-75883379D01*
X153693367Y-75900786D01*
X158683367Y-84140786D01*
X158698288Y-84160716D01*
X158716811Y-84177351D01*
X158738224Y-84190053D01*
X158761703Y-84198333D01*
X158791910Y-84202000D01*
X210695001Y-84238981D01*
X210695001Y-103574166D01*
X204297321Y-103558000D01*
X204272298Y-103560425D01*
X204248469Y-103567638D01*
X204226506Y-103579361D01*
X204207251Y-103595144D01*
X204191446Y-103614379D01*
X204179696Y-103636329D01*
X204172455Y-103660149D01*
X204170000Y-103684924D01*
X204166150Y-110115000D01*
X112154385Y-110115000D01*
X112155539Y-106636269D01*
X112920336Y-106636269D01*
X112979797Y-106870037D01*
X113218242Y-106980934D01*
X113473740Y-107043183D01*
X113736473Y-107054390D01*
X113996344Y-107014125D01*
X114243366Y-106923935D01*
X114344203Y-106870037D01*
X114403664Y-106636269D01*
X113662000Y-105894605D01*
X112920336Y-106636269D01*
X112155539Y-106636269D01*
X112155820Y-105789473D01*
X112322610Y-105789473D01*
X112362875Y-106049344D01*
X112453065Y-106296366D01*
X112506963Y-106397203D01*
X112740731Y-106456664D01*
X113482395Y-105715000D01*
X112740731Y-104973336D01*
X112506963Y-105032797D01*
X112396066Y-105271242D01*
X112333817Y-105526740D01*
X112322610Y-105789473D01*
X112155820Y-105789473D01*
X112164315Y-80183514D01*
X112327000Y-80183514D01*
X112327000Y-80446486D01*
X112378304Y-80704405D01*
X112478939Y-80947359D01*
X112625038Y-81166013D01*
X112810987Y-81351962D01*
X113029641Y-81498061D01*
X113272595Y-81598696D01*
X113530514Y-81650000D01*
X113793486Y-81650000D01*
X114051405Y-81598696D01*
X114294359Y-81498061D01*
X114513013Y-81351962D01*
X114698962Y-81166013D01*
X114845061Y-80947359D01*
X114932000Y-80737470D01*
X115018939Y-80947359D01*
X115165038Y-81166013D01*
X115350987Y-81351962D01*
X115569641Y-81498061D01*
X115812595Y-81598696D01*
X116070514Y-81650000D01*
X116333486Y-81650000D01*
X116591405Y-81598696D01*
X116834359Y-81498061D01*
X117053013Y-81351962D01*
X117238962Y-81166013D01*
X117385061Y-80947359D01*
X117472000Y-80737470D01*
X117558939Y-80947359D01*
X117705038Y-81166013D01*
X117890987Y-81351962D01*
X118109641Y-81498061D01*
X118352595Y-81598696D01*
X118610514Y-81650000D01*
X118873486Y-81650000D01*
X119131405Y-81598696D01*
X119374359Y-81498061D01*
X119593013Y-81351962D01*
X119778962Y-81166013D01*
X119925061Y-80947359D01*
X120012000Y-80737470D01*
X120098939Y-80947359D01*
X120245038Y-81166013D01*
X120430987Y-81351962D01*
X120649641Y-81498061D01*
X120892595Y-81598696D01*
X121150514Y-81650000D01*
X121413486Y-81650000D01*
X121671405Y-81598696D01*
X121914359Y-81498061D01*
X122133013Y-81351962D01*
X122318962Y-81166013D01*
X122465061Y-80947359D01*
X122552000Y-80737470D01*
X122638939Y-80947359D01*
X122785038Y-81166013D01*
X122787001Y-81167976D01*
X122787001Y-81664163D01*
X122781994Y-81715000D01*
X122801977Y-81917895D01*
X122861160Y-82112993D01*
X122957266Y-82292797D01*
X123054197Y-82410907D01*
X123086605Y-82450396D01*
X123126093Y-82482803D01*
X123564193Y-82920903D01*
X123596604Y-82960396D01*
X123754203Y-83089734D01*
X123934007Y-83185841D01*
X124129105Y-83245024D01*
X124281162Y-83260000D01*
X124281164Y-83260000D01*
X124332000Y-83265007D01*
X124382835Y-83260000D01*
X125955440Y-83260000D01*
X125957000Y-83275838D01*
X125957000Y-83326939D01*
X125966969Y-83377057D01*
X125971976Y-83427895D01*
X125986804Y-83476777D01*
X125996774Y-83526898D01*
X126016331Y-83574113D01*
X126031159Y-83622993D01*
X126055238Y-83668042D01*
X126074795Y-83715256D01*
X126103186Y-83757746D01*
X126127266Y-83802797D01*
X126159672Y-83842284D01*
X126188063Y-83884774D01*
X126224196Y-83920907D01*
X126256604Y-83960396D01*
X126296092Y-83992803D01*
X126332226Y-84028937D01*
X126374716Y-84057328D01*
X126414203Y-84089734D01*
X126459254Y-84113814D01*
X126501744Y-84142205D01*
X126548958Y-84161762D01*
X126594007Y-84185841D01*
X126642887Y-84200669D01*
X126690102Y-84220226D01*
X126740223Y-84230196D01*
X126789105Y-84245024D01*
X126839943Y-84250031D01*
X126890061Y-84260000D01*
X137533289Y-84260000D01*
X120586097Y-101207193D01*
X120546604Y-101239604D01*
X120417266Y-101397203D01*
X120321159Y-101577008D01*
X120261976Y-101772106D01*
X120247000Y-101924163D01*
X120247000Y-101924172D01*
X120241994Y-101975000D01*
X120247000Y-102025829D01*
X120247000Y-102322025D01*
X120245038Y-102323987D01*
X120098939Y-102542641D01*
X120012000Y-102752530D01*
X119925061Y-102542641D01*
X119778962Y-102323987D01*
X119593013Y-102138038D01*
X119374359Y-101991939D01*
X119131405Y-101891304D01*
X118873486Y-101840000D01*
X118610514Y-101840000D01*
X118352595Y-101891304D01*
X118109641Y-101991939D01*
X117890987Y-102138038D01*
X117705038Y-102323987D01*
X117558939Y-102542641D01*
X117472000Y-102752530D01*
X117385061Y-102542641D01*
X117238962Y-102323987D01*
X117053013Y-102138038D01*
X116834359Y-101991939D01*
X116591405Y-101891304D01*
X116333486Y-101840000D01*
X116070514Y-101840000D01*
X115812595Y-101891304D01*
X115569641Y-101991939D01*
X115350987Y-102138038D01*
X115165038Y-102323987D01*
X115018939Y-102542641D01*
X114932000Y-102752530D01*
X114845061Y-102542641D01*
X114698962Y-102323987D01*
X114513013Y-102138038D01*
X114294359Y-101991939D01*
X114051405Y-101891304D01*
X113793486Y-101840000D01*
X113530514Y-101840000D01*
X113272595Y-101891304D01*
X113029641Y-101991939D01*
X112810987Y-102138038D01*
X112625038Y-102323987D01*
X112478939Y-102542641D01*
X112378304Y-102785595D01*
X112327000Y-103043514D01*
X112327000Y-103306486D01*
X112378304Y-103564405D01*
X112478939Y-103807359D01*
X112625038Y-104026013D01*
X112810987Y-104211962D01*
X113029641Y-104358061D01*
X113243444Y-104446621D01*
X113080634Y-104506065D01*
X112979797Y-104559963D01*
X112920336Y-104793731D01*
X113662000Y-105535395D01*
X114403664Y-104793731D01*
X114344203Y-104559963D01*
X114105758Y-104449066D01*
X114086173Y-104444294D01*
X114294359Y-104358061D01*
X114513013Y-104211962D01*
X114698962Y-104026013D01*
X114845061Y-103807359D01*
X114932000Y-103597470D01*
X115018939Y-103807359D01*
X115165038Y-104026013D01*
X115350987Y-104211962D01*
X115569641Y-104358061D01*
X115779530Y-104445000D01*
X115569641Y-104531939D01*
X115350987Y-104678038D01*
X115165038Y-104863987D01*
X115018939Y-105082641D01*
X114930379Y-105296444D01*
X114870935Y-105133634D01*
X114817037Y-105032797D01*
X114583269Y-104973336D01*
X113841605Y-105715000D01*
X114583269Y-106456664D01*
X114817037Y-106397203D01*
X114927934Y-106158758D01*
X114932706Y-106139173D01*
X115018939Y-106347359D01*
X115165038Y-106566013D01*
X115350987Y-106751962D01*
X115569641Y-106898061D01*
X115812595Y-106998696D01*
X116070514Y-107050000D01*
X116333486Y-107050000D01*
X116591405Y-106998696D01*
X116834359Y-106898061D01*
X117053013Y-106751962D01*
X117238962Y-106566013D01*
X117385061Y-106347359D01*
X117472000Y-106137470D01*
X117558939Y-106347359D01*
X117705038Y-106566013D01*
X117890987Y-106751962D01*
X118109641Y-106898061D01*
X118352595Y-106998696D01*
X118610514Y-107050000D01*
X118873486Y-107050000D01*
X119131405Y-106998696D01*
X119374359Y-106898061D01*
X119593013Y-106751962D01*
X119778962Y-106566013D01*
X119925061Y-106347359D01*
X120012000Y-106137470D01*
X120098939Y-106347359D01*
X120245038Y-106566013D01*
X120430987Y-106751962D01*
X120649641Y-106898061D01*
X120892595Y-106998696D01*
X121150514Y-107050000D01*
X121413486Y-107050000D01*
X121671405Y-106998696D01*
X121914359Y-106898061D01*
X122133013Y-106751962D01*
X122318962Y-106566013D01*
X122465061Y-106347359D01*
X122552000Y-106137470D01*
X122638939Y-106347359D01*
X122785038Y-106566013D01*
X122970987Y-106751962D01*
X123189641Y-106898061D01*
X123432595Y-106998696D01*
X123690514Y-107050000D01*
X123953486Y-107050000D01*
X124211405Y-106998696D01*
X124454359Y-106898061D01*
X124673013Y-106751962D01*
X124858962Y-106566013D01*
X125005061Y-106347359D01*
X125092000Y-106137470D01*
X125178939Y-106347359D01*
X125325038Y-106566013D01*
X125510987Y-106751962D01*
X125729641Y-106898061D01*
X125972595Y-106998696D01*
X126230514Y-107050000D01*
X126493486Y-107050000D01*
X126751405Y-106998696D01*
X126994359Y-106898061D01*
X127213013Y-106751962D01*
X127398962Y-106566013D01*
X127545061Y-106347359D01*
X127632000Y-106137470D01*
X127718939Y-106347359D01*
X127865038Y-106566013D01*
X128050987Y-106751962D01*
X128269641Y-106898061D01*
X128512595Y-106998696D01*
X128770514Y-107050000D01*
X129033486Y-107050000D01*
X129291405Y-106998696D01*
X129534359Y-106898061D01*
X129753013Y-106751962D01*
X129938962Y-106566013D01*
X130085061Y-106347359D01*
X130172000Y-106137470D01*
X130258939Y-106347359D01*
X130405038Y-106566013D01*
X130590987Y-106751962D01*
X130809641Y-106898061D01*
X131052595Y-106998696D01*
X131310514Y-107050000D01*
X131573486Y-107050000D01*
X131831405Y-106998696D01*
X132074359Y-106898061D01*
X132293013Y-106751962D01*
X132478962Y-106566013D01*
X132625061Y-106347359D01*
X132712000Y-106137470D01*
X132798939Y-106347359D01*
X132945038Y-106566013D01*
X133130987Y-106751962D01*
X133349641Y-106898061D01*
X133592595Y-106998696D01*
X133850514Y-107050000D01*
X134113486Y-107050000D01*
X134371405Y-106998696D01*
X134614359Y-106898061D01*
X134833013Y-106751962D01*
X135018962Y-106566013D01*
X135165061Y-106347359D01*
X135252000Y-106137470D01*
X135338939Y-106347359D01*
X135485038Y-106566013D01*
X135670987Y-106751962D01*
X135889641Y-106898061D01*
X136132595Y-106998696D01*
X136390514Y-107050000D01*
X136653486Y-107050000D01*
X136911405Y-106998696D01*
X137154359Y-106898061D01*
X137373013Y-106751962D01*
X137558962Y-106566013D01*
X137705061Y-106347359D01*
X137805696Y-106104405D01*
X137857000Y-105846486D01*
X137857000Y-105583514D01*
X137805696Y-105325595D01*
X137705061Y-105082641D01*
X137558962Y-104863987D01*
X137373013Y-104678038D01*
X137154359Y-104531939D01*
X136944470Y-104445000D01*
X137154359Y-104358061D01*
X137373013Y-104211962D01*
X137558962Y-104026013D01*
X137705061Y-103807359D01*
X137805696Y-103564405D01*
X137857000Y-103306486D01*
X137857000Y-103043514D01*
X137805696Y-102785595D01*
X137757815Y-102670000D01*
X145947000Y-102670000D01*
X145947000Y-102820387D01*
X145888614Y-102851595D01*
X145754038Y-102962038D01*
X145643595Y-103096614D01*
X145561528Y-103250150D01*
X145510992Y-103416746D01*
X145493928Y-103590000D01*
X145493928Y-105040000D01*
X145510992Y-105213254D01*
X145561528Y-105379850D01*
X145643595Y-105533386D01*
X145754038Y-105667962D01*
X145888614Y-105778405D01*
X146042150Y-105860472D01*
X146208746Y-105911008D01*
X146382000Y-105928072D01*
X147582000Y-105928072D01*
X147755254Y-105911008D01*
X147921850Y-105860472D01*
X148075386Y-105778405D01*
X148209962Y-105667962D01*
X148320405Y-105533386D01*
X148374777Y-105431663D01*
X148426866Y-105495134D01*
X148652987Y-105680706D01*
X148910967Y-105818599D01*
X149190890Y-105903513D01*
X149482000Y-105932185D01*
X149773111Y-105903513D01*
X150053034Y-105818599D01*
X150311014Y-105680706D01*
X150537134Y-105495134D01*
X150722706Y-105269014D01*
X150732000Y-105251626D01*
X150741294Y-105269014D01*
X150926866Y-105495134D01*
X151152987Y-105680706D01*
X151410967Y-105818599D01*
X151690890Y-105903513D01*
X151982000Y-105932185D01*
X152273111Y-105903513D01*
X152553034Y-105818599D01*
X152811014Y-105680706D01*
X153037134Y-105495134D01*
X153222706Y-105269014D01*
X153236462Y-105243278D01*
X153392951Y-105449429D01*
X153610807Y-105642496D01*
X153862142Y-105789352D01*
X154125110Y-105881476D01*
X154355000Y-105760155D01*
X154355000Y-104442000D01*
X154609000Y-104442000D01*
X154609000Y-105760155D01*
X154838890Y-105881476D01*
X155101858Y-105789352D01*
X155353193Y-105642496D01*
X155571049Y-105449429D01*
X155747053Y-105217570D01*
X155874442Y-104955830D01*
X155948320Y-104674267D01*
X155808165Y-104442000D01*
X154609000Y-104442000D01*
X154355000Y-104442000D01*
X154335000Y-104442000D01*
X154335000Y-104188000D01*
X154355000Y-104188000D01*
X154355000Y-102869845D01*
X154609000Y-102869845D01*
X154609000Y-104188000D01*
X155808165Y-104188000D01*
X155948320Y-103955733D01*
X155874442Y-103674170D01*
X155747053Y-103412430D01*
X155571049Y-103180571D01*
X155353193Y-102987504D01*
X155101858Y-102840648D01*
X154838890Y-102748524D01*
X154609000Y-102869845D01*
X154355000Y-102869845D01*
X154125110Y-102748524D01*
X153862142Y-102840648D01*
X153610807Y-102987504D01*
X153392951Y-103180571D01*
X153236462Y-103386722D01*
X153222706Y-103360986D01*
X153037134Y-103134866D01*
X153017000Y-103118343D01*
X153017000Y-101295000D01*
X163063928Y-101295000D01*
X163063928Y-103795000D01*
X163076188Y-103919482D01*
X163112498Y-104039180D01*
X163171463Y-104149494D01*
X163250815Y-104246185D01*
X163347506Y-104325537D01*
X163457820Y-104384502D01*
X163577518Y-104420812D01*
X163702000Y-104433072D01*
X166202000Y-104433072D01*
X166326482Y-104420812D01*
X166446180Y-104384502D01*
X166556494Y-104325537D01*
X166653185Y-104246185D01*
X166732537Y-104149494D01*
X166791502Y-104039180D01*
X166827812Y-103919482D01*
X166840072Y-103795000D01*
X166840072Y-102359344D01*
X168147000Y-102359344D01*
X168147000Y-102730656D01*
X168219439Y-103094834D01*
X168361534Y-103437882D01*
X168567825Y-103746618D01*
X168830382Y-104009175D01*
X169139118Y-104215466D01*
X169482166Y-104357561D01*
X169846344Y-104430000D01*
X170217656Y-104430000D01*
X170581834Y-104357561D01*
X170924882Y-104215466D01*
X171233618Y-104009175D01*
X171496175Y-103746618D01*
X171702466Y-103437882D01*
X171844561Y-103094834D01*
X171917000Y-102730656D01*
X171917000Y-102359344D01*
X171844561Y-101995166D01*
X171702466Y-101652118D01*
X171496175Y-101343382D01*
X171447793Y-101295000D01*
X173243928Y-101295000D01*
X173243928Y-103795000D01*
X173256188Y-103919482D01*
X173292498Y-104039180D01*
X173351463Y-104149494D01*
X173430815Y-104246185D01*
X173527506Y-104325537D01*
X173637820Y-104384502D01*
X173757518Y-104420812D01*
X173882000Y-104433072D01*
X176382000Y-104433072D01*
X176506482Y-104420812D01*
X176626180Y-104384502D01*
X176736494Y-104325537D01*
X176833185Y-104246185D01*
X176912537Y-104149494D01*
X176971502Y-104039180D01*
X177007812Y-103919482D01*
X177020072Y-103795000D01*
X177020072Y-102359344D01*
X178327000Y-102359344D01*
X178327000Y-102730656D01*
X178399439Y-103094834D01*
X178541534Y-103437882D01*
X178747825Y-103746618D01*
X179010382Y-104009175D01*
X179319118Y-104215466D01*
X179662166Y-104357561D01*
X180026344Y-104430000D01*
X180397656Y-104430000D01*
X180761834Y-104357561D01*
X181104882Y-104215466D01*
X181413618Y-104009175D01*
X181676175Y-103746618D01*
X181882466Y-103437882D01*
X182024561Y-103094834D01*
X182097000Y-102730656D01*
X182097000Y-102359344D01*
X182024561Y-101995166D01*
X181882466Y-101652118D01*
X181676175Y-101343382D01*
X181627793Y-101295000D01*
X183413928Y-101295000D01*
X183413928Y-103795000D01*
X183426188Y-103919482D01*
X183462498Y-104039180D01*
X183521463Y-104149494D01*
X183600815Y-104246185D01*
X183697506Y-104325537D01*
X183807820Y-104384502D01*
X183927518Y-104420812D01*
X184052000Y-104433072D01*
X186552000Y-104433072D01*
X186676482Y-104420812D01*
X186796180Y-104384502D01*
X186906494Y-104325537D01*
X187003185Y-104246185D01*
X187082537Y-104149494D01*
X187141502Y-104039180D01*
X187177812Y-103919482D01*
X187190072Y-103795000D01*
X187190072Y-102359344D01*
X188497000Y-102359344D01*
X188497000Y-102730656D01*
X188569439Y-103094834D01*
X188711534Y-103437882D01*
X188917825Y-103746618D01*
X189180382Y-104009175D01*
X189489118Y-104215466D01*
X189832166Y-104357561D01*
X190196344Y-104430000D01*
X190567656Y-104430000D01*
X190931834Y-104357561D01*
X191274882Y-104215466D01*
X191583618Y-104009175D01*
X191846175Y-103746618D01*
X192052466Y-103437882D01*
X192194561Y-103094834D01*
X192267000Y-102730656D01*
X192267000Y-102359344D01*
X192194561Y-101995166D01*
X192052466Y-101652118D01*
X191846175Y-101343382D01*
X191797793Y-101295000D01*
X193583928Y-101295000D01*
X193583928Y-103795000D01*
X193596188Y-103919482D01*
X193632498Y-104039180D01*
X193691463Y-104149494D01*
X193770815Y-104246185D01*
X193867506Y-104325537D01*
X193977820Y-104384502D01*
X194097518Y-104420812D01*
X194222000Y-104433072D01*
X196722000Y-104433072D01*
X196846482Y-104420812D01*
X196966180Y-104384502D01*
X197076494Y-104325537D01*
X197173185Y-104246185D01*
X197252537Y-104149494D01*
X197311502Y-104039180D01*
X197347812Y-103919482D01*
X197360072Y-103795000D01*
X197360072Y-102359344D01*
X198667000Y-102359344D01*
X198667000Y-102730656D01*
X198739439Y-103094834D01*
X198881534Y-103437882D01*
X199087825Y-103746618D01*
X199350382Y-104009175D01*
X199659118Y-104215466D01*
X200002166Y-104357561D01*
X200366344Y-104430000D01*
X200737656Y-104430000D01*
X201101834Y-104357561D01*
X201444882Y-104215466D01*
X201753618Y-104009175D01*
X202016175Y-103746618D01*
X202222466Y-103437882D01*
X202364561Y-103094834D01*
X202437000Y-102730656D01*
X202437000Y-102359344D01*
X202364561Y-101995166D01*
X202222466Y-101652118D01*
X202016175Y-101343382D01*
X201753618Y-101080825D01*
X201444882Y-100874534D01*
X201101834Y-100732439D01*
X200737656Y-100660000D01*
X200366344Y-100660000D01*
X200002166Y-100732439D01*
X199659118Y-100874534D01*
X199350382Y-101080825D01*
X199087825Y-101343382D01*
X198881534Y-101652118D01*
X198739439Y-101995166D01*
X198667000Y-102359344D01*
X197360072Y-102359344D01*
X197360072Y-101295000D01*
X197347812Y-101170518D01*
X197311502Y-101050820D01*
X197252537Y-100940506D01*
X197173185Y-100843815D01*
X197076494Y-100764463D01*
X196966180Y-100705498D01*
X196846482Y-100669188D01*
X196722000Y-100656928D01*
X194222000Y-100656928D01*
X194097518Y-100669188D01*
X193977820Y-100705498D01*
X193867506Y-100764463D01*
X193770815Y-100843815D01*
X193691463Y-100940506D01*
X193632498Y-101050820D01*
X193596188Y-101170518D01*
X193583928Y-101295000D01*
X191797793Y-101295000D01*
X191583618Y-101080825D01*
X191274882Y-100874534D01*
X190931834Y-100732439D01*
X190567656Y-100660000D01*
X190196344Y-100660000D01*
X189832166Y-100732439D01*
X189489118Y-100874534D01*
X189180382Y-101080825D01*
X188917825Y-101343382D01*
X188711534Y-101652118D01*
X188569439Y-101995166D01*
X188497000Y-102359344D01*
X187190072Y-102359344D01*
X187190072Y-101295000D01*
X187177812Y-101170518D01*
X187141502Y-101050820D01*
X187082537Y-100940506D01*
X187003185Y-100843815D01*
X186906494Y-100764463D01*
X186796180Y-100705498D01*
X186676482Y-100669188D01*
X186552000Y-100656928D01*
X184052000Y-100656928D01*
X183927518Y-100669188D01*
X183807820Y-100705498D01*
X183697506Y-100764463D01*
X183600815Y-100843815D01*
X183521463Y-100940506D01*
X183462498Y-101050820D01*
X183426188Y-101170518D01*
X183413928Y-101295000D01*
X181627793Y-101295000D01*
X181413618Y-101080825D01*
X181104882Y-100874534D01*
X180761834Y-100732439D01*
X180397656Y-100660000D01*
X180026344Y-100660000D01*
X179662166Y-100732439D01*
X179319118Y-100874534D01*
X179010382Y-101080825D01*
X178747825Y-101343382D01*
X178541534Y-101652118D01*
X178399439Y-101995166D01*
X178327000Y-102359344D01*
X177020072Y-102359344D01*
X177020072Y-101295000D01*
X177007812Y-101170518D01*
X176971502Y-101050820D01*
X176912537Y-100940506D01*
X176833185Y-100843815D01*
X176736494Y-100764463D01*
X176626180Y-100705498D01*
X176506482Y-100669188D01*
X176382000Y-100656928D01*
X173882000Y-100656928D01*
X173757518Y-100669188D01*
X173637820Y-100705498D01*
X173527506Y-100764463D01*
X173430815Y-100843815D01*
X173351463Y-100940506D01*
X173292498Y-101050820D01*
X173256188Y-101170518D01*
X173243928Y-101295000D01*
X171447793Y-101295000D01*
X171233618Y-101080825D01*
X170924882Y-100874534D01*
X170581834Y-100732439D01*
X170217656Y-100660000D01*
X169846344Y-100660000D01*
X169482166Y-100732439D01*
X169139118Y-100874534D01*
X168830382Y-101080825D01*
X168567825Y-101343382D01*
X168361534Y-101652118D01*
X168219439Y-101995166D01*
X168147000Y-102359344D01*
X166840072Y-102359344D01*
X166840072Y-101295000D01*
X166827812Y-101170518D01*
X166791502Y-101050820D01*
X166732537Y-100940506D01*
X166653185Y-100843815D01*
X166556494Y-100764463D01*
X166446180Y-100705498D01*
X166326482Y-100669188D01*
X166202000Y-100656928D01*
X163702000Y-100656928D01*
X163577518Y-100669188D01*
X163457820Y-100705498D01*
X163347506Y-100764463D01*
X163250815Y-100843815D01*
X163171463Y-100940506D01*
X163112498Y-101050820D01*
X163076188Y-101170518D01*
X163063928Y-101295000D01*
X153017000Y-101295000D01*
X153017000Y-99445835D01*
X153022007Y-99395000D01*
X153017000Y-99344162D01*
X153002024Y-99192105D01*
X152942841Y-98997007D01*
X152846734Y-98817203D01*
X152717396Y-98659604D01*
X152677903Y-98627193D01*
X152414787Y-98364077D01*
X152382376Y-98324584D01*
X152224777Y-98195246D01*
X152044973Y-98099139D01*
X151849875Y-98039956D01*
X151697818Y-98024980D01*
X151697808Y-98024980D01*
X151646980Y-98019974D01*
X151596152Y-98024980D01*
X133220061Y-98024980D01*
X133169943Y-98034949D01*
X133119105Y-98039956D01*
X133070223Y-98054784D01*
X133020102Y-98064754D01*
X132972887Y-98084311D01*
X132924007Y-98099139D01*
X132878958Y-98123218D01*
X132831744Y-98142775D01*
X132789254Y-98171166D01*
X132744203Y-98195246D01*
X132704716Y-98227652D01*
X132662226Y-98256043D01*
X132626092Y-98292177D01*
X132586604Y-98324584D01*
X132554197Y-98364072D01*
X132518063Y-98400206D01*
X132489672Y-98442696D01*
X132457266Y-98482183D01*
X132433186Y-98527234D01*
X132404795Y-98569724D01*
X132385238Y-98616938D01*
X132361159Y-98661987D01*
X132346331Y-98710867D01*
X132326774Y-98758082D01*
X132316804Y-98808203D01*
X132301976Y-98857085D01*
X132296969Y-98907923D01*
X132287000Y-98958041D01*
X132287000Y-99009142D01*
X132281993Y-99059980D01*
X132287000Y-99110818D01*
X132287000Y-99161919D01*
X132296969Y-99212037D01*
X132301976Y-99262875D01*
X132316804Y-99311757D01*
X132326774Y-99361878D01*
X132346331Y-99409093D01*
X132361159Y-99457973D01*
X132385238Y-99503022D01*
X132404795Y-99550236D01*
X132408804Y-99556236D01*
X132399785Y-99569734D01*
X132380228Y-99616948D01*
X132356149Y-99661997D01*
X132341321Y-99710877D01*
X132321764Y-99758092D01*
X132311794Y-99808213D01*
X132296966Y-99857095D01*
X132291959Y-99907933D01*
X132281990Y-99958051D01*
X132281990Y-100009152D01*
X132276983Y-100059990D01*
X132281990Y-100110828D01*
X132281990Y-100161929D01*
X132291959Y-100212047D01*
X132296966Y-100262885D01*
X132311794Y-100311767D01*
X132321764Y-100361888D01*
X132341321Y-100409103D01*
X132356149Y-100457983D01*
X132380228Y-100503032D01*
X132399785Y-100550246D01*
X132428176Y-100592736D01*
X132432058Y-100600000D01*
X129727063Y-100600000D01*
X129676228Y-100594993D01*
X129625393Y-100600000D01*
X129625390Y-100600000D01*
X129473333Y-100614976D01*
X129278235Y-100674159D01*
X129219604Y-100705498D01*
X129098430Y-100770266D01*
X128980320Y-100867197D01*
X128940832Y-100899604D01*
X128908425Y-100939092D01*
X128206092Y-101641426D01*
X128166605Y-101673832D01*
X128134198Y-101713320D01*
X128134197Y-101713321D01*
X128037266Y-101831431D01*
X127960528Y-101975000D01*
X127941160Y-102011235D01*
X127881977Y-102206333D01*
X127870973Y-102318052D01*
X127865038Y-102323987D01*
X127718939Y-102542641D01*
X127632000Y-102752530D01*
X127545061Y-102542641D01*
X127430109Y-102370601D01*
X132675710Y-97125000D01*
X155183928Y-97125000D01*
X155196188Y-97249482D01*
X155232498Y-97369180D01*
X155291463Y-97479494D01*
X155370815Y-97576185D01*
X155467506Y-97655537D01*
X155577820Y-97714502D01*
X155697518Y-97750812D01*
X155822000Y-97763072D01*
X156386250Y-97760000D01*
X156545000Y-97601250D01*
X156545000Y-96402000D01*
X155345750Y-96402000D01*
X155187000Y-96560750D01*
X155183928Y-97125000D01*
X132675710Y-97125000D01*
X134975711Y-94824999D01*
X146781994Y-94824999D01*
X146787001Y-94875837D01*
X146787001Y-94926938D01*
X146796970Y-94977056D01*
X146801977Y-95027894D01*
X146816805Y-95076776D01*
X146826775Y-95126897D01*
X146846332Y-95174112D01*
X146861160Y-95222992D01*
X146885239Y-95268041D01*
X146904796Y-95315255D01*
X146933187Y-95357745D01*
X146957267Y-95402796D01*
X146989673Y-95442283D01*
X147018064Y-95484773D01*
X147054197Y-95520906D01*
X147086605Y-95560395D01*
X147126093Y-95592802D01*
X147162227Y-95628936D01*
X147204717Y-95657327D01*
X147244204Y-95689733D01*
X147289255Y-95713813D01*
X147331745Y-95742204D01*
X147378959Y-95761761D01*
X147424008Y-95785840D01*
X147472888Y-95800668D01*
X147520103Y-95820225D01*
X147570224Y-95830195D01*
X147619106Y-95845023D01*
X147669944Y-95850030D01*
X147720062Y-95859999D01*
X155186296Y-95859999D01*
X155187000Y-95989250D01*
X155345750Y-96148000D01*
X156545000Y-96148000D01*
X156545000Y-96128000D01*
X156799000Y-96128000D01*
X156799000Y-96148000D01*
X156819000Y-96148000D01*
X156819000Y-96402000D01*
X156799000Y-96402000D01*
X156799000Y-97601250D01*
X156957750Y-97760000D01*
X157522000Y-97763072D01*
X157646482Y-97750812D01*
X157766180Y-97714502D01*
X157876494Y-97655537D01*
X157947000Y-97597674D01*
X158017506Y-97655537D01*
X158127820Y-97714502D01*
X158247518Y-97750812D01*
X158372000Y-97763072D01*
X160072000Y-97763072D01*
X160196482Y-97750812D01*
X160316180Y-97714502D01*
X160426494Y-97655537D01*
X160523185Y-97576185D01*
X160602537Y-97479494D01*
X160661502Y-97369180D01*
X160697812Y-97249482D01*
X160710072Y-97125000D01*
X160710072Y-95425000D01*
X160697812Y-95300518D01*
X160661502Y-95180820D01*
X160602537Y-95070506D01*
X160523185Y-94973815D01*
X160426494Y-94894463D01*
X160316180Y-94835498D01*
X160254298Y-94816726D01*
X160242024Y-94692105D01*
X160182841Y-94497007D01*
X160086734Y-94317203D01*
X159957396Y-94159604D01*
X159918948Y-94128051D01*
X159887395Y-94089603D01*
X159729796Y-93960265D01*
X159549992Y-93864158D01*
X159354894Y-93804975D01*
X159202837Y-93789999D01*
X159202827Y-93789999D01*
X159151999Y-93784993D01*
X159101171Y-93789999D01*
X147720062Y-93789999D01*
X147669944Y-93799968D01*
X147619106Y-93804975D01*
X147570224Y-93819803D01*
X147520103Y-93829773D01*
X147472888Y-93849330D01*
X147424008Y-93864158D01*
X147378959Y-93888237D01*
X147331745Y-93907794D01*
X147289255Y-93936185D01*
X147244204Y-93960265D01*
X147204717Y-93992671D01*
X147162227Y-94021062D01*
X147126093Y-94057196D01*
X147086605Y-94089603D01*
X147054198Y-94129091D01*
X147018064Y-94165225D01*
X146989673Y-94207715D01*
X146957267Y-94247202D01*
X146933187Y-94292253D01*
X146904796Y-94334743D01*
X146885239Y-94381957D01*
X146861160Y-94427006D01*
X146846332Y-94475886D01*
X146826775Y-94523101D01*
X146816805Y-94573222D01*
X146801977Y-94622104D01*
X146796970Y-94672942D01*
X146787001Y-94723060D01*
X146787001Y-94774161D01*
X146781994Y-94824999D01*
X134975711Y-94824999D01*
X136920711Y-92880000D01*
X157951172Y-92880000D01*
X158002000Y-92885006D01*
X158052828Y-92880000D01*
X158052838Y-92880000D01*
X158204895Y-92865024D01*
X158399993Y-92805841D01*
X158579797Y-92709734D01*
X158737396Y-92580396D01*
X158769807Y-92540903D01*
X160044344Y-91266367D01*
X160045236Y-91268036D01*
X160064795Y-91315256D01*
X160093187Y-91357748D01*
X160117266Y-91402797D01*
X160149671Y-91442283D01*
X160178063Y-91484774D01*
X160224217Y-91530928D01*
X160256624Y-91570416D01*
X160296112Y-91602823D01*
X160322226Y-91628937D01*
X160352933Y-91649455D01*
X160414223Y-91699754D01*
X160484149Y-91737130D01*
X160491744Y-91742205D01*
X160500184Y-91745701D01*
X160594027Y-91795861D01*
X160789125Y-91855044D01*
X160941182Y-91870020D01*
X160941191Y-91870020D01*
X160985873Y-91874421D01*
X160987000Y-91885868D01*
X160987000Y-91936969D01*
X160996969Y-91987087D01*
X161001976Y-92037925D01*
X161016804Y-92086807D01*
X161026774Y-92136928D01*
X161046331Y-92184143D01*
X161061159Y-92233023D01*
X161085238Y-92278072D01*
X161104795Y-92325286D01*
X161133186Y-92367776D01*
X161157266Y-92412827D01*
X161189672Y-92452314D01*
X161218063Y-92494804D01*
X161254197Y-92530938D01*
X161286604Y-92570426D01*
X161326092Y-92602833D01*
X161362226Y-92638967D01*
X161404716Y-92667358D01*
X161444203Y-92699764D01*
X161489254Y-92723844D01*
X161531744Y-92752235D01*
X161578958Y-92771792D01*
X161624007Y-92795871D01*
X161672887Y-92810699D01*
X161720102Y-92830256D01*
X161770223Y-92840226D01*
X161819105Y-92855054D01*
X161869943Y-92860061D01*
X161920061Y-92870030D01*
X193791142Y-92870030D01*
X193841970Y-92875036D01*
X193892798Y-92870030D01*
X193892808Y-92870030D01*
X194044865Y-92855054D01*
X194239963Y-92795871D01*
X194419767Y-92699764D01*
X194577366Y-92570426D01*
X194609777Y-92530933D01*
X197729803Y-89410908D01*
X197765937Y-89374774D01*
X197794325Y-89332288D01*
X197826734Y-89292798D01*
X197850816Y-89247744D01*
X197879205Y-89205256D01*
X197898762Y-89158041D01*
X197922840Y-89112994D01*
X197937666Y-89064120D01*
X197957226Y-89016898D01*
X197967197Y-88966768D01*
X197982023Y-88917895D01*
X197987030Y-88867064D01*
X197997000Y-88816939D01*
X197997000Y-88765835D01*
X198002007Y-88715000D01*
X197997000Y-88664165D01*
X197997000Y-88613061D01*
X197987030Y-88562936D01*
X197982023Y-88512105D01*
X197967197Y-88463232D01*
X197957226Y-88413102D01*
X197937665Y-88365878D01*
X197922840Y-88317007D01*
X197898764Y-88271964D01*
X197879205Y-88224744D01*
X197850813Y-88182252D01*
X197826734Y-88137203D01*
X197794328Y-88097716D01*
X197765937Y-88055226D01*
X197729803Y-88019092D01*
X197697396Y-87979604D01*
X197657908Y-87947197D01*
X197621774Y-87911063D01*
X197579284Y-87882672D01*
X197539797Y-87850266D01*
X197494748Y-87826187D01*
X197452256Y-87797795D01*
X197405036Y-87778236D01*
X197359993Y-87754160D01*
X197311122Y-87739335D01*
X197263898Y-87719774D01*
X197213768Y-87709803D01*
X197164895Y-87694977D01*
X197114064Y-87689970D01*
X197063939Y-87680000D01*
X197012835Y-87680000D01*
X196962000Y-87674993D01*
X196911165Y-87680000D01*
X196860061Y-87680000D01*
X196809936Y-87689970D01*
X196759105Y-87694977D01*
X196710232Y-87709803D01*
X196660102Y-87719774D01*
X196612880Y-87739334D01*
X196564006Y-87754160D01*
X196518959Y-87778238D01*
X196471744Y-87797795D01*
X196429256Y-87826184D01*
X196384202Y-87850266D01*
X196344712Y-87882675D01*
X196302226Y-87911063D01*
X196266092Y-87947197D01*
X193413260Y-90800030D01*
X186070680Y-90800030D01*
X187484803Y-89385908D01*
X187520937Y-89349774D01*
X187549325Y-89307288D01*
X187581734Y-89267798D01*
X187605816Y-89222744D01*
X187634205Y-89180256D01*
X187653762Y-89133041D01*
X187677840Y-89087994D01*
X187692666Y-89039119D01*
X187712226Y-88991898D01*
X187722197Y-88941771D01*
X187737023Y-88892896D01*
X187742029Y-88842066D01*
X187752000Y-88791939D01*
X187752000Y-88740829D01*
X187757006Y-88690001D01*
X187752000Y-88639173D01*
X187752000Y-88588061D01*
X187742029Y-88537932D01*
X187737023Y-88487106D01*
X187722198Y-88438234D01*
X187712226Y-88388102D01*
X187692665Y-88340877D01*
X187677840Y-88292007D01*
X187653764Y-88246964D01*
X187634205Y-88199744D01*
X187605813Y-88157252D01*
X187581734Y-88112203D01*
X187549330Y-88072719D01*
X187520937Y-88030226D01*
X187484795Y-87994084D01*
X187452395Y-87954605D01*
X187412916Y-87922205D01*
X187376774Y-87886063D01*
X187334281Y-87857670D01*
X187294797Y-87825266D01*
X187249748Y-87801187D01*
X187207256Y-87772795D01*
X187160036Y-87753236D01*
X187114993Y-87729160D01*
X187066123Y-87714335D01*
X187018898Y-87694774D01*
X186968766Y-87684802D01*
X186919894Y-87669977D01*
X186869068Y-87664971D01*
X186818939Y-87655000D01*
X186767827Y-87655000D01*
X186716999Y-87649994D01*
X186666171Y-87655000D01*
X186615061Y-87655000D01*
X186564934Y-87664971D01*
X186514104Y-87669977D01*
X186465229Y-87684803D01*
X186415102Y-87694774D01*
X186367881Y-87714334D01*
X186319006Y-87729160D01*
X186273959Y-87753238D01*
X186226744Y-87772795D01*
X186184256Y-87801184D01*
X186139202Y-87825266D01*
X186099712Y-87857675D01*
X186057226Y-87886063D01*
X186021092Y-87922197D01*
X184143270Y-89800020D01*
X176970691Y-89800020D01*
X177410937Y-89359774D01*
X177439325Y-89317288D01*
X177471734Y-89277798D01*
X177495817Y-89232742D01*
X177524205Y-89190256D01*
X177543760Y-89143047D01*
X177567841Y-89097994D01*
X177582669Y-89049113D01*
X177602226Y-89001898D01*
X177612197Y-88951771D01*
X177627023Y-88902895D01*
X177632030Y-88852064D01*
X177642000Y-88801939D01*
X177642000Y-88750835D01*
X177647007Y-88700000D01*
X177642000Y-88649165D01*
X177642000Y-88598061D01*
X177632030Y-88547936D01*
X177627023Y-88497105D01*
X177612197Y-88448230D01*
X177602226Y-88398102D01*
X177582668Y-88350885D01*
X177567841Y-88302007D01*
X177543762Y-88256958D01*
X177524205Y-88209744D01*
X177495814Y-88167254D01*
X177471734Y-88122203D01*
X177439328Y-88082716D01*
X177410937Y-88040226D01*
X177374803Y-88004092D01*
X177342396Y-87964604D01*
X177302908Y-87932197D01*
X177266774Y-87896063D01*
X177224284Y-87867672D01*
X177184797Y-87835266D01*
X177139746Y-87811186D01*
X177097256Y-87782795D01*
X177050042Y-87763238D01*
X177004993Y-87739159D01*
X176956115Y-87724332D01*
X176908898Y-87704774D01*
X176858770Y-87694803D01*
X176809895Y-87679977D01*
X176759064Y-87674970D01*
X176708939Y-87665000D01*
X176657835Y-87665000D01*
X176607000Y-87659993D01*
X176556165Y-87665000D01*
X176505061Y-87665000D01*
X176454936Y-87674970D01*
X176404105Y-87679977D01*
X176355229Y-87694803D01*
X176305102Y-87704774D01*
X176257887Y-87724331D01*
X176209006Y-87739159D01*
X176163953Y-87763240D01*
X176116744Y-87782795D01*
X176074258Y-87811183D01*
X176029202Y-87835266D01*
X175989712Y-87867675D01*
X175947226Y-87896063D01*
X175911092Y-87932197D01*
X175043280Y-88800010D01*
X167418561Y-88800010D01*
X167417000Y-88784162D01*
X167417000Y-88733061D01*
X167407031Y-88682943D01*
X167402024Y-88632105D01*
X167387196Y-88583223D01*
X167377226Y-88533102D01*
X167357669Y-88485887D01*
X167342841Y-88437007D01*
X167318762Y-88391958D01*
X167299205Y-88344744D01*
X167270814Y-88302254D01*
X167246734Y-88257203D01*
X167214328Y-88217716D01*
X167185937Y-88175226D01*
X167149803Y-88139092D01*
X167117396Y-88099604D01*
X167077908Y-88067197D01*
X167041774Y-88031063D01*
X166999284Y-88002672D01*
X166959797Y-87970266D01*
X166914746Y-87946186D01*
X166872256Y-87917795D01*
X166825042Y-87898238D01*
X166779993Y-87874159D01*
X166731113Y-87859331D01*
X166683898Y-87839774D01*
X166633777Y-87829804D01*
X166584895Y-87814976D01*
X166534057Y-87809969D01*
X166483939Y-87800000D01*
X163010711Y-87800000D01*
X161615950Y-86405240D01*
X161615948Y-86405237D01*
X161471785Y-86261074D01*
X161429294Y-86232682D01*
X161389808Y-86200277D01*
X161344759Y-86176198D01*
X161302267Y-86147806D01*
X161255047Y-86128247D01*
X161210004Y-86104171D01*
X161161133Y-86089346D01*
X161113909Y-86069785D01*
X161063779Y-86059814D01*
X161014906Y-86044988D01*
X160964078Y-86039982D01*
X160913950Y-86030011D01*
X160862839Y-86030011D01*
X160812011Y-86025005D01*
X160761183Y-86030011D01*
X160710072Y-86030011D01*
X160659944Y-86039982D01*
X160609116Y-86044988D01*
X160560243Y-86059814D01*
X160510113Y-86069785D01*
X160462889Y-86089346D01*
X160414018Y-86104171D01*
X160368975Y-86128247D01*
X160321755Y-86147806D01*
X160279263Y-86176198D01*
X160234214Y-86200277D01*
X160194727Y-86232683D01*
X160152237Y-86261074D01*
X160116103Y-86297208D01*
X160076615Y-86329615D01*
X160044208Y-86369103D01*
X160008074Y-86405237D01*
X159979683Y-86447727D01*
X159947277Y-86487214D01*
X159923198Y-86532263D01*
X159894806Y-86574755D01*
X159875247Y-86621975D01*
X159851171Y-86667018D01*
X159836346Y-86715889D01*
X159816785Y-86763113D01*
X159806814Y-86813243D01*
X159791988Y-86862116D01*
X159791409Y-86867998D01*
X159698166Y-86867998D01*
X159838320Y-86635733D01*
X159764442Y-86354170D01*
X159637053Y-86092430D01*
X159461049Y-85860571D01*
X159243193Y-85667504D01*
X158991858Y-85520648D01*
X158728890Y-85428524D01*
X158499000Y-85549845D01*
X158499000Y-86868000D01*
X158519000Y-86868000D01*
X158519000Y-87122000D01*
X158499000Y-87122000D01*
X158499000Y-88440155D01*
X158728890Y-88561476D01*
X158991858Y-88469352D01*
X159243193Y-88322496D01*
X159461049Y-88129429D01*
X159637053Y-87897570D01*
X159764442Y-87635830D01*
X159827938Y-87393835D01*
X159836346Y-87414133D01*
X159851171Y-87463004D01*
X159875247Y-87508047D01*
X159894806Y-87555267D01*
X159923198Y-87597759D01*
X159947277Y-87642808D01*
X159979682Y-87682294D01*
X160008074Y-87724785D01*
X160152237Y-87868948D01*
X160152240Y-87868950D01*
X161073288Y-88789999D01*
X160072836Y-88789999D01*
X160022001Y-88784992D01*
X159971166Y-88789999D01*
X159971163Y-88789999D01*
X159819106Y-88804975D01*
X159624008Y-88864158D01*
X159605279Y-88874169D01*
X159444203Y-88960265D01*
X159349611Y-89037895D01*
X159286605Y-89089603D01*
X159254198Y-89129091D01*
X157573290Y-90810000D01*
X156679127Y-90810000D01*
X156704328Y-90772284D01*
X156736734Y-90732797D01*
X156760814Y-90687746D01*
X156789205Y-90645256D01*
X156808762Y-90598042D01*
X156832841Y-90552993D01*
X156847669Y-90504113D01*
X156867226Y-90456898D01*
X156877196Y-90406777D01*
X156892024Y-90357895D01*
X156897031Y-90307057D01*
X156907000Y-90256939D01*
X156907000Y-90205838D01*
X156912007Y-90155000D01*
X156907000Y-90104162D01*
X156907000Y-88191658D01*
X156927134Y-88175134D01*
X157112706Y-87949014D01*
X157126462Y-87923278D01*
X157282951Y-88129429D01*
X157500807Y-88322496D01*
X157752142Y-88469352D01*
X158015110Y-88561476D01*
X158245000Y-88440155D01*
X158245000Y-87122000D01*
X158225000Y-87122000D01*
X158225000Y-86868000D01*
X158245000Y-86868000D01*
X158245000Y-85549845D01*
X158015110Y-85428524D01*
X157752142Y-85520648D01*
X157500807Y-85667504D01*
X157282951Y-85860571D01*
X157126462Y-86066722D01*
X157112706Y-86040986D01*
X156927134Y-85814866D01*
X156701013Y-85629294D01*
X156443033Y-85491401D01*
X156163110Y-85406487D01*
X155872000Y-85377815D01*
X155580889Y-85406487D01*
X155300966Y-85491401D01*
X155042986Y-85629294D01*
X154816866Y-85814866D01*
X154764777Y-85878337D01*
X154710405Y-85776614D01*
X154599962Y-85642038D01*
X154465386Y-85531595D01*
X154341437Y-85465342D01*
X154332841Y-85437007D01*
X154288104Y-85353309D01*
X154236734Y-85257202D01*
X154139803Y-85139092D01*
X154107396Y-85099604D01*
X154067908Y-85067197D01*
X149119068Y-80118358D01*
X149300890Y-80173513D01*
X149592000Y-80202185D01*
X149883111Y-80173513D01*
X150163034Y-80088599D01*
X150421014Y-79950706D01*
X150647134Y-79765134D01*
X150832706Y-79539014D01*
X150846462Y-79513278D01*
X151002951Y-79719429D01*
X151220807Y-79912496D01*
X151472142Y-80059352D01*
X151735110Y-80151476D01*
X151965000Y-80030155D01*
X151965000Y-78712000D01*
X152219000Y-78712000D01*
X152219000Y-80030155D01*
X152448890Y-80151476D01*
X152711858Y-80059352D01*
X152963193Y-79912496D01*
X153181049Y-79719429D01*
X153357053Y-79487570D01*
X153484442Y-79225830D01*
X153558320Y-78944267D01*
X153418165Y-78712000D01*
X152219000Y-78712000D01*
X151965000Y-78712000D01*
X151945000Y-78712000D01*
X151945000Y-78458000D01*
X151965000Y-78458000D01*
X151965000Y-77139845D01*
X152219000Y-77139845D01*
X152219000Y-78458000D01*
X153418165Y-78458000D01*
X153558320Y-78225733D01*
X153484442Y-77944170D01*
X153357053Y-77682430D01*
X153181049Y-77450571D01*
X152963193Y-77257504D01*
X152711858Y-77110648D01*
X152448890Y-77018524D01*
X152219000Y-77139845D01*
X151965000Y-77139845D01*
X151735110Y-77018524D01*
X151472142Y-77110648D01*
X151220807Y-77257504D01*
X151002951Y-77450571D01*
X150846462Y-77656722D01*
X150832706Y-77630986D01*
X150647134Y-77404866D01*
X150421013Y-77219294D01*
X150163033Y-77081401D01*
X149883110Y-76996487D01*
X149592000Y-76967815D01*
X149300889Y-76996487D01*
X149020966Y-77081401D01*
X148762986Y-77219294D01*
X148536866Y-77404866D01*
X148484777Y-77468337D01*
X148430405Y-77366614D01*
X148319962Y-77232038D01*
X148185386Y-77121595D01*
X148031850Y-77039528D01*
X147865254Y-76988992D01*
X147692000Y-76971928D01*
X146571377Y-76971928D01*
X146571377Y-73685623D01*
X177945549Y-73685623D01*
X177996377Y-73690629D01*
X178047205Y-73685623D01*
X178047215Y-73685623D01*
X178199272Y-73670647D01*
X178394370Y-73611464D01*
X178574174Y-73515357D01*
X178731773Y-73386019D01*
X178764184Y-73346526D01*
X179630701Y-72480010D01*
X187705389Y-72480010D01*
X187756217Y-72485016D01*
X187807045Y-72480010D01*
X187807055Y-72480010D01*
X187959112Y-72465034D01*
X188154210Y-72405851D01*
X188334014Y-72309744D01*
X188491613Y-72180406D01*
X188524024Y-72140913D01*
X189184938Y-71480000D01*
X197803939Y-71480000D01*
X197854057Y-71470031D01*
X197904895Y-71465024D01*
X197953777Y-71450196D01*
X198003898Y-71440226D01*
X198051113Y-71420669D01*
X198099993Y-71405841D01*
X198145042Y-71381762D01*
X198192256Y-71362205D01*
X198234746Y-71333814D01*
X198279797Y-71309734D01*
X198319284Y-71277328D01*
X198361774Y-71248937D01*
X198397908Y-71212803D01*
X198437396Y-71180396D01*
X198469803Y-71140908D01*
X198505937Y-71104774D01*
X198534328Y-71062284D01*
X198566734Y-71022797D01*
X198590814Y-70977746D01*
X198619205Y-70935256D01*
X198638762Y-70888042D01*
X198662841Y-70842993D01*
X198677669Y-70794113D01*
X198697226Y-70746898D01*
X198707196Y-70696777D01*
X198722024Y-70647895D01*
X198727031Y-70597057D01*
X198737000Y-70546939D01*
X198737000Y-70495838D01*
X198742007Y-70445000D01*
X198737000Y-70394162D01*
X198737000Y-70343061D01*
X198727031Y-70292943D01*
X198722024Y-70242105D01*
X198707196Y-70193223D01*
X198697226Y-70143102D01*
X198677669Y-70095887D01*
X198662841Y-70047007D01*
X198638762Y-70001958D01*
X198619205Y-69954744D01*
X198590814Y-69912254D01*
X198566734Y-69867203D01*
X198534328Y-69827716D01*
X198505937Y-69785226D01*
X198469803Y-69749092D01*
X198437396Y-69709604D01*
X198397908Y-69677197D01*
X198361774Y-69641063D01*
X198319284Y-69612672D01*
X198279797Y-69580266D01*
X198234746Y-69556186D01*
X198192256Y-69527795D01*
X198145042Y-69508238D01*
X198099993Y-69484159D01*
X198051113Y-69469331D01*
X198003898Y-69449774D01*
X197953777Y-69439804D01*
X197904895Y-69424976D01*
X197854057Y-69419969D01*
X197803939Y-69410000D01*
X188807062Y-69410000D01*
X188756227Y-69404993D01*
X188705392Y-69410000D01*
X188705389Y-69410000D01*
X188553332Y-69424976D01*
X188358234Y-69484159D01*
X188314014Y-69507795D01*
X188178429Y-69580266D01*
X188088376Y-69654171D01*
X188051299Y-69684600D01*
X188017908Y-69657197D01*
X188001774Y-69641063D01*
X187982802Y-69628386D01*
X187899797Y-69560266D01*
X187719993Y-69464159D01*
X187524895Y-69404976D01*
X187372838Y-69390000D01*
X187372828Y-69390000D01*
X187322000Y-69384994D01*
X187271172Y-69390000D01*
X178832837Y-69390000D01*
X178782002Y-69384993D01*
X178731167Y-69390000D01*
X178731164Y-69390000D01*
X178579107Y-69404976D01*
X178431429Y-69449774D01*
X178384008Y-69464159D01*
X178204204Y-69560266D01*
X178122059Y-69627681D01*
X178046606Y-69689604D01*
X178014199Y-69729092D01*
X178004739Y-69738552D01*
X177997396Y-69729604D01*
X177957908Y-69697197D01*
X177921774Y-69661063D01*
X177879284Y-69632672D01*
X177839797Y-69600266D01*
X177794746Y-69576186D01*
X177752256Y-69547795D01*
X177705042Y-69528238D01*
X177659993Y-69504159D01*
X177611113Y-69489331D01*
X177563898Y-69469774D01*
X177513777Y-69459804D01*
X177464895Y-69444976D01*
X177414057Y-69439969D01*
X177363939Y-69430000D01*
X168960713Y-69430000D01*
X168259799Y-68729087D01*
X168259795Y-68729082D01*
X165219799Y-65689087D01*
X165187388Y-65649594D01*
X165029789Y-65520256D01*
X164849985Y-65424149D01*
X164654887Y-65364966D01*
X164502830Y-65349990D01*
X164502820Y-65349990D01*
X164451992Y-65344984D01*
X164401164Y-65349990D01*
X143479757Y-65349990D01*
X143428929Y-65344984D01*
X143378101Y-65349990D01*
X143378092Y-65349990D01*
X143226035Y-65364966D01*
X143030937Y-65424149D01*
X142947239Y-65468886D01*
X142851132Y-65520256D01*
X142733022Y-65617187D01*
X142693534Y-65649594D01*
X142661127Y-65689082D01*
X141823582Y-66526628D01*
X141784095Y-66559034D01*
X141751688Y-66598522D01*
X141751687Y-66598523D01*
X141654756Y-66716633D01*
X141577849Y-66860518D01*
X141558650Y-66896437D01*
X141499467Y-67091535D01*
X141496664Y-67120000D01*
X141479484Y-67294430D01*
X141484491Y-67345268D01*
X141484490Y-77358799D01*
X137653290Y-81190000D01*
X137534975Y-81190000D01*
X137558962Y-81166013D01*
X137705061Y-80947359D01*
X137805696Y-80704405D01*
X137857000Y-80446486D01*
X137857000Y-80183514D01*
X137805696Y-79925595D01*
X137705061Y-79682641D01*
X137558962Y-79463987D01*
X137373013Y-79278038D01*
X137154359Y-79131939D01*
X136944470Y-79045000D01*
X137154359Y-78958061D01*
X137373013Y-78811962D01*
X137558962Y-78626013D01*
X137705061Y-78407359D01*
X137805696Y-78164405D01*
X137857000Y-77906486D01*
X137857000Y-77643514D01*
X137830442Y-77509999D01*
X139143938Y-77509999D01*
X139194056Y-77500030D01*
X139244894Y-77495023D01*
X139293776Y-77480195D01*
X139343897Y-77470225D01*
X139391112Y-77450668D01*
X139439992Y-77435840D01*
X139485041Y-77411761D01*
X139532255Y-77392204D01*
X139574745Y-77363813D01*
X139619796Y-77339733D01*
X139659283Y-77307327D01*
X139701773Y-77278936D01*
X139737907Y-77242802D01*
X139777395Y-77210395D01*
X139809803Y-77170906D01*
X139845936Y-77134773D01*
X139874327Y-77092283D01*
X139906733Y-77052796D01*
X139930813Y-77007745D01*
X139959204Y-76965255D01*
X139978761Y-76918041D01*
X140002840Y-76872992D01*
X140017668Y-76824112D01*
X140037225Y-76776897D01*
X140047195Y-76726776D01*
X140062023Y-76677894D01*
X140067030Y-76627056D01*
X140076999Y-76576938D01*
X140076999Y-76525837D01*
X140082006Y-76474999D01*
X140076999Y-76424161D01*
X140076999Y-76373060D01*
X140067030Y-76322942D01*
X140062023Y-76272104D01*
X140047195Y-76223222D01*
X140037225Y-76173101D01*
X140017668Y-76125886D01*
X140002840Y-76077006D01*
X139978761Y-76031957D01*
X139959204Y-75984743D01*
X139930813Y-75942253D01*
X139906733Y-75897202D01*
X139874327Y-75857715D01*
X139845936Y-75815225D01*
X139809802Y-75779091D01*
X139777395Y-75739603D01*
X139737907Y-75707196D01*
X139701773Y-75671062D01*
X139659283Y-75642671D01*
X139619796Y-75610265D01*
X139574745Y-75586185D01*
X139532255Y-75557794D01*
X139485041Y-75538237D01*
X139439992Y-75514158D01*
X139391112Y-75499330D01*
X139343897Y-75479773D01*
X139293776Y-75469803D01*
X139244894Y-75454975D01*
X139194056Y-75449968D01*
X139143938Y-75439999D01*
X135869373Y-75439999D01*
X135887226Y-75396898D01*
X135897196Y-75346777D01*
X135912024Y-75297895D01*
X135917031Y-75247057D01*
X135927000Y-75196939D01*
X135927000Y-70533710D01*
X136474465Y-69986245D01*
X136493785Y-70182400D01*
X136560115Y-70401060D01*
X136667829Y-70602579D01*
X136812788Y-70779212D01*
X136989421Y-70924171D01*
X137190940Y-71031885D01*
X137409600Y-71098215D01*
X137580021Y-71115000D01*
X138143979Y-71115000D01*
X138314400Y-71098215D01*
X138533060Y-71031885D01*
X138734579Y-70924171D01*
X138911212Y-70779212D01*
X139056171Y-70602579D01*
X139163885Y-70401060D01*
X139230215Y-70182400D01*
X139252612Y-69955000D01*
X139230215Y-69727600D01*
X139163885Y-69508940D01*
X139062895Y-69320000D01*
X139163885Y-69131060D01*
X139230215Y-68912400D01*
X139252612Y-68685000D01*
X139230215Y-68457600D01*
X139166907Y-68248902D01*
X139201502Y-68184180D01*
X139237812Y-68064482D01*
X139250072Y-67940000D01*
X139247000Y-67700750D01*
X139088250Y-67542000D01*
X138315109Y-67542000D01*
X138314400Y-67541785D01*
X138143979Y-67525000D01*
X137580021Y-67525000D01*
X137409600Y-67541785D01*
X137408891Y-67542000D01*
X136635750Y-67542000D01*
X136527750Y-67650000D01*
X136362827Y-67650000D01*
X136311999Y-67644994D01*
X136261171Y-67650000D01*
X136261162Y-67650000D01*
X136109105Y-67664976D01*
X135914007Y-67724159D01*
X135830309Y-67768896D01*
X135734202Y-67820266D01*
X135670888Y-67872227D01*
X135576604Y-67949604D01*
X135544197Y-67989092D01*
X134196097Y-69337193D01*
X134156604Y-69369604D01*
X134027266Y-69527203D01*
X133931159Y-69707008D01*
X133871976Y-69902106D01*
X133857000Y-70054163D01*
X133857000Y-70054172D01*
X133851994Y-70105000D01*
X133857000Y-70155828D01*
X133857001Y-74993056D01*
X133857000Y-74993061D01*
X133857000Y-75196939D01*
X133866971Y-75247067D01*
X133871977Y-75297895D01*
X133886803Y-75346768D01*
X133896774Y-75396898D01*
X133914627Y-75439999D01*
X121372836Y-75439999D01*
X121322001Y-75434992D01*
X121271166Y-75439999D01*
X121271163Y-75439999D01*
X121119106Y-75454975D01*
X120924008Y-75514158D01*
X120744204Y-75610265D01*
X120586605Y-75739603D01*
X120568572Y-75761576D01*
X120546605Y-75779604D01*
X120514198Y-75819092D01*
X120514197Y-75819093D01*
X120417266Y-75937203D01*
X120321160Y-76117007D01*
X120261977Y-76312105D01*
X120241994Y-76515000D01*
X120247001Y-76565837D01*
X120247001Y-76922024D01*
X120245038Y-76923987D01*
X120098939Y-77142641D01*
X120012000Y-77352530D01*
X119925061Y-77142641D01*
X119778962Y-76923987D01*
X119593013Y-76738038D01*
X119374359Y-76591939D01*
X119131405Y-76491304D01*
X118873486Y-76440000D01*
X118610514Y-76440000D01*
X118352595Y-76491304D01*
X118109641Y-76591939D01*
X117890987Y-76738038D01*
X117705038Y-76923987D01*
X117558939Y-77142641D01*
X117472000Y-77352530D01*
X117385061Y-77142641D01*
X117238962Y-76923987D01*
X117053013Y-76738038D01*
X116834359Y-76591939D01*
X116591405Y-76491304D01*
X116333486Y-76440000D01*
X116070514Y-76440000D01*
X115812595Y-76491304D01*
X115569641Y-76591939D01*
X115350987Y-76738038D01*
X115165038Y-76923987D01*
X115018939Y-77142641D01*
X114930379Y-77356444D01*
X114870935Y-77193634D01*
X114817037Y-77092797D01*
X114583269Y-77033336D01*
X113841605Y-77775000D01*
X114583269Y-78516664D01*
X114817037Y-78457203D01*
X114927934Y-78218758D01*
X114932706Y-78199173D01*
X115018939Y-78407359D01*
X115165038Y-78626013D01*
X115350987Y-78811962D01*
X115569641Y-78958061D01*
X115779530Y-79045000D01*
X115569641Y-79131939D01*
X115350987Y-79278038D01*
X115165038Y-79463987D01*
X115018939Y-79682641D01*
X114932000Y-79892530D01*
X114845061Y-79682641D01*
X114698962Y-79463987D01*
X114513013Y-79278038D01*
X114294359Y-79131939D01*
X114080556Y-79043379D01*
X114243366Y-78983935D01*
X114344203Y-78930037D01*
X114403664Y-78696269D01*
X113662000Y-77954605D01*
X112920336Y-78696269D01*
X112979797Y-78930037D01*
X113218242Y-79040934D01*
X113237827Y-79045706D01*
X113029641Y-79131939D01*
X112810987Y-79278038D01*
X112625038Y-79463987D01*
X112478939Y-79682641D01*
X112378304Y-79925595D01*
X112327000Y-80183514D01*
X112164315Y-80183514D01*
X112164391Y-79956728D01*
X112162003Y-79932175D01*
X112154827Y-79908336D01*
X112143138Y-79886354D01*
X112127385Y-79867075D01*
X112108173Y-79851240D01*
X112086242Y-79839457D01*
X112062433Y-79832179D01*
X112037662Y-79829686D01*
X100065000Y-79804149D01*
X100065000Y-77849473D01*
X112322610Y-77849473D01*
X112362875Y-78109344D01*
X112453065Y-78356366D01*
X112506963Y-78457203D01*
X112740731Y-78516664D01*
X113482395Y-77775000D01*
X112740731Y-77033336D01*
X112506963Y-77092797D01*
X112396066Y-77331242D01*
X112333817Y-77586740D01*
X112322610Y-77849473D01*
X100065000Y-77849473D01*
X100065000Y-76628137D01*
X101577000Y-76628137D01*
X101577000Y-76841863D01*
X101618696Y-77051483D01*
X101700485Y-77248940D01*
X101819225Y-77426647D01*
X101970353Y-77577775D01*
X102148060Y-77696515D01*
X102345517Y-77778304D01*
X102555137Y-77820000D01*
X102768863Y-77820000D01*
X102978483Y-77778304D01*
X103175940Y-77696515D01*
X103353647Y-77577775D01*
X103504775Y-77426647D01*
X103623515Y-77248940D01*
X103705304Y-77051483D01*
X103744639Y-76853731D01*
X112920336Y-76853731D01*
X113662000Y-77595395D01*
X114403664Y-76853731D01*
X114344203Y-76619963D01*
X114105758Y-76509066D01*
X113850260Y-76446817D01*
X113587527Y-76435610D01*
X113327656Y-76475875D01*
X113080634Y-76566065D01*
X112979797Y-76619963D01*
X112920336Y-76853731D01*
X103744639Y-76853731D01*
X103747000Y-76841863D01*
X103747000Y-76628137D01*
X103705304Y-76418517D01*
X103623515Y-76221060D01*
X103504775Y-76043353D01*
X103353647Y-75892225D01*
X103175940Y-75773485D01*
X102978483Y-75691696D01*
X102768863Y-75650000D01*
X102555137Y-75650000D01*
X102345517Y-75691696D01*
X102148060Y-75773485D01*
X101970353Y-75892225D01*
X101819225Y-76043353D01*
X101700485Y-76221060D01*
X101618696Y-76418517D01*
X101577000Y-76628137D01*
X100065000Y-76628137D01*
X100065000Y-73628137D01*
X101577000Y-73628137D01*
X101577000Y-73841863D01*
X101618696Y-74051483D01*
X101700485Y-74248940D01*
X101819225Y-74426647D01*
X101970353Y-74577775D01*
X102148060Y-74696515D01*
X102345517Y-74778304D01*
X102555137Y-74820000D01*
X102768863Y-74820000D01*
X102978483Y-74778304D01*
X103175940Y-74696515D01*
X103353647Y-74577775D01*
X103504775Y-74426647D01*
X103623515Y-74248940D01*
X103705304Y-74051483D01*
X103747000Y-73841863D01*
X103747000Y-73628137D01*
X103706594Y-73425000D01*
X110803928Y-73425000D01*
X110803928Y-75125000D01*
X110816188Y-75249482D01*
X110852498Y-75369180D01*
X110911463Y-75479494D01*
X110990815Y-75576185D01*
X111087506Y-75655537D01*
X111197820Y-75714502D01*
X111317518Y-75750812D01*
X111442000Y-75763072D01*
X113142000Y-75763072D01*
X113266482Y-75750812D01*
X113386180Y-75714502D01*
X113496494Y-75655537D01*
X113593185Y-75576185D01*
X113672537Y-75479494D01*
X113731502Y-75369180D01*
X113767812Y-75249482D01*
X113780072Y-75125000D01*
X113780072Y-73425000D01*
X113767812Y-73300518D01*
X113731502Y-73180820D01*
X113672537Y-73070506D01*
X113593185Y-72973815D01*
X113496494Y-72894463D01*
X113386180Y-72835498D01*
X113266482Y-72799188D01*
X113142000Y-72786928D01*
X111442000Y-72786928D01*
X111317518Y-72799188D01*
X111197820Y-72835498D01*
X111087506Y-72894463D01*
X110990815Y-72973815D01*
X110911463Y-73070506D01*
X110852498Y-73180820D01*
X110816188Y-73300518D01*
X110803928Y-73425000D01*
X103706594Y-73425000D01*
X103705304Y-73418517D01*
X103623515Y-73221060D01*
X103504775Y-73043353D01*
X103353647Y-72892225D01*
X103175940Y-72773485D01*
X102978483Y-72691696D01*
X102768863Y-72650000D01*
X102555137Y-72650000D01*
X102345517Y-72691696D01*
X102148060Y-72773485D01*
X101970353Y-72892225D01*
X101819225Y-73043353D01*
X101700485Y-73221060D01*
X101618696Y-73418517D01*
X101577000Y-73628137D01*
X100065000Y-73628137D01*
X100065000Y-68864419D01*
X109477000Y-68864419D01*
X109477000Y-69245581D01*
X109551361Y-69619419D01*
X109697225Y-69971566D01*
X109908987Y-70288491D01*
X110178509Y-70558013D01*
X110495434Y-70769775D01*
X110847581Y-70915639D01*
X111221419Y-70990000D01*
X111602581Y-70990000D01*
X111976419Y-70915639D01*
X112328566Y-70769775D01*
X112645491Y-70558013D01*
X112915013Y-70288491D01*
X113126775Y-69971566D01*
X113272639Y-69619419D01*
X113347000Y-69245581D01*
X113347000Y-68864419D01*
X113272639Y-68490581D01*
X113126775Y-68138434D01*
X112915013Y-67821509D01*
X112645491Y-67551987D01*
X112328566Y-67340225D01*
X111976419Y-67194361D01*
X111602581Y-67120000D01*
X111221419Y-67120000D01*
X110847581Y-67194361D01*
X110495434Y-67340225D01*
X110178509Y-67551987D01*
X109908987Y-67821509D01*
X109697225Y-68138434D01*
X109551361Y-68490581D01*
X109477000Y-68864419D01*
X100065000Y-68864419D01*
X100065000Y-66890000D01*
X136473928Y-66890000D01*
X136477000Y-67129250D01*
X136635750Y-67288000D01*
X137735000Y-67288000D01*
X137735000Y-66413750D01*
X137989000Y-66413750D01*
X137989000Y-67288000D01*
X139088250Y-67288000D01*
X139247000Y-67129250D01*
X139250072Y-66890000D01*
X139237812Y-66765518D01*
X139201502Y-66645820D01*
X139142537Y-66535506D01*
X139063185Y-66438815D01*
X138966494Y-66359463D01*
X138856180Y-66300498D01*
X138736482Y-66264188D01*
X138612000Y-66251928D01*
X138147750Y-66255000D01*
X137989000Y-66413750D01*
X137735000Y-66413750D01*
X137576250Y-66255000D01*
X137112000Y-66251928D01*
X136987518Y-66264188D01*
X136867820Y-66300498D01*
X136757506Y-66359463D01*
X136660815Y-66438815D01*
X136581463Y-66535506D01*
X136522498Y-66645820D01*
X136486188Y-66765518D01*
X136473928Y-66890000D01*
X100065000Y-66890000D01*
X100065000Y-65355000D01*
X109473928Y-65355000D01*
X109486188Y-65479482D01*
X109522498Y-65599180D01*
X109581463Y-65709494D01*
X109660815Y-65806185D01*
X109757506Y-65885537D01*
X109867820Y-65944502D01*
X109987518Y-65980812D01*
X110112000Y-65993072D01*
X111126250Y-65990000D01*
X111285000Y-65831250D01*
X111285000Y-64182000D01*
X111539000Y-64182000D01*
X111539000Y-65831250D01*
X111697750Y-65990000D01*
X112712000Y-65993072D01*
X112836482Y-65980812D01*
X112956180Y-65944502D01*
X113066494Y-65885537D01*
X113163185Y-65806185D01*
X113242537Y-65709494D01*
X113301502Y-65599180D01*
X113337812Y-65479482D01*
X113350072Y-65355000D01*
X113347000Y-64340750D01*
X113188250Y-64182000D01*
X111539000Y-64182000D01*
X111285000Y-64182000D01*
X109635750Y-64182000D01*
X109477000Y-64340750D01*
X109473928Y-65355000D01*
X100065000Y-65355000D01*
X100065000Y-62755000D01*
X109473928Y-62755000D01*
X109477000Y-63769250D01*
X109635750Y-63928000D01*
X111285000Y-63928000D01*
X111285000Y-62278750D01*
X111539000Y-62278750D01*
X111539000Y-63928000D01*
X113188250Y-63928000D01*
X113347000Y-63769250D01*
X113350072Y-62755000D01*
X113337812Y-62630518D01*
X113301502Y-62510820D01*
X113242537Y-62400506D01*
X113163185Y-62303815D01*
X113066494Y-62224463D01*
X112956180Y-62165498D01*
X112836482Y-62129188D01*
X112712000Y-62116928D01*
X111697750Y-62120000D01*
X111539000Y-62278750D01*
X111285000Y-62278750D01*
X111126250Y-62120000D01*
X110112000Y-62116928D01*
X109987518Y-62129188D01*
X109867820Y-62165498D01*
X109757506Y-62224463D01*
X109660815Y-62303815D01*
X109581463Y-62400506D01*
X109522498Y-62510820D01*
X109486188Y-62630518D01*
X109473928Y-62755000D01*
X100065000Y-62755000D01*
X100065000Y-58704419D01*
X109477000Y-58704419D01*
X109477000Y-59085581D01*
X109551361Y-59459419D01*
X109697225Y-59811566D01*
X109908987Y-60128491D01*
X110178509Y-60398013D01*
X110495434Y-60609775D01*
X110847581Y-60755639D01*
X111221419Y-60830000D01*
X111602581Y-60830000D01*
X111976419Y-60755639D01*
X112328566Y-60609775D01*
X112645491Y-60398013D01*
X112915013Y-60128491D01*
X113126775Y-59811566D01*
X113272639Y-59459419D01*
X113347000Y-59085581D01*
X113347000Y-58704419D01*
X113272639Y-58330581D01*
X113126775Y-57978434D01*
X112915013Y-57661509D01*
X112645491Y-57391987D01*
X112328566Y-57180225D01*
X111976419Y-57034361D01*
X111602581Y-56960000D01*
X111221419Y-56960000D01*
X110847581Y-57034361D01*
X110495434Y-57180225D01*
X110178509Y-57391987D01*
X109908987Y-57661509D01*
X109697225Y-57978434D01*
X109551361Y-58330581D01*
X109477000Y-58704419D01*
X100065000Y-58704419D01*
X100065000Y-55972000D01*
X106412000Y-55972000D01*
X106436776Y-55969560D01*
X106460601Y-55962333D01*
X106482557Y-55950597D01*
X106501803Y-55934803D01*
X106517597Y-55915557D01*
X106529333Y-55893601D01*
X106536560Y-55869776D01*
X106539000Y-55845000D01*
X106539000Y-55195000D01*
X109473928Y-55195000D01*
X109486188Y-55319482D01*
X109522498Y-55439180D01*
X109581463Y-55549494D01*
X109660815Y-55646185D01*
X109757506Y-55725537D01*
X109867820Y-55784502D01*
X109987518Y-55820812D01*
X110112000Y-55833072D01*
X111126250Y-55830000D01*
X111285000Y-55671250D01*
X111285000Y-54022000D01*
X111539000Y-54022000D01*
X111539000Y-55671250D01*
X111697750Y-55830000D01*
X112712000Y-55833072D01*
X112836482Y-55820812D01*
X112956180Y-55784502D01*
X113066494Y-55725537D01*
X113140598Y-55664721D01*
X116477000Y-55664721D01*
X116477000Y-56085279D01*
X116559047Y-56497756D01*
X116719988Y-56886302D01*
X116953637Y-57235983D01*
X117251017Y-57533363D01*
X117600698Y-57767012D01*
X117989244Y-57927953D01*
X118401721Y-58010000D01*
X118822279Y-58010000D01*
X119234756Y-57927953D01*
X119623302Y-57767012D01*
X119972983Y-57533363D01*
X120270363Y-57235983D01*
X120504012Y-56886302D01*
X120664953Y-56497756D01*
X120747000Y-56085279D01*
X120747000Y-55664721D01*
X139077000Y-55664721D01*
X139077000Y-56085279D01*
X139159047Y-56497756D01*
X139319988Y-56886302D01*
X139553637Y-57235983D01*
X139851017Y-57533363D01*
X140200698Y-57767012D01*
X140589244Y-57927953D01*
X141001721Y-58010000D01*
X141422279Y-58010000D01*
X141834756Y-57927953D01*
X142223302Y-57767012D01*
X142527000Y-57564088D01*
X142527001Y-61743056D01*
X142527000Y-61743061D01*
X142527000Y-61794162D01*
X142521993Y-61845000D01*
X142527000Y-61895838D01*
X142527000Y-61946939D01*
X142536969Y-61997057D01*
X142541976Y-62047895D01*
X142556804Y-62096777D01*
X142566774Y-62146898D01*
X142586331Y-62194113D01*
X142601159Y-62242993D01*
X142625238Y-62288042D01*
X142644795Y-62335256D01*
X142673186Y-62377746D01*
X142697266Y-62422797D01*
X142729672Y-62462284D01*
X142758063Y-62504774D01*
X142794197Y-62540908D01*
X142826604Y-62580396D01*
X142866092Y-62612803D01*
X142902226Y-62648937D01*
X142944716Y-62677328D01*
X142984203Y-62709734D01*
X143029254Y-62733814D01*
X143071744Y-62762205D01*
X143118958Y-62781762D01*
X143164007Y-62805841D01*
X143212887Y-62820669D01*
X143260102Y-62840226D01*
X143310223Y-62850196D01*
X143359105Y-62865024D01*
X143409943Y-62870031D01*
X143460061Y-62880000D01*
X143511162Y-62880000D01*
X143562000Y-62885007D01*
X143612838Y-62880000D01*
X143663939Y-62880000D01*
X143714057Y-62870031D01*
X143764895Y-62865024D01*
X143813777Y-62850196D01*
X143863898Y-62840226D01*
X143911113Y-62820669D01*
X143959993Y-62805841D01*
X144005042Y-62781762D01*
X144052256Y-62762205D01*
X144094746Y-62733814D01*
X144139797Y-62709734D01*
X144179284Y-62677328D01*
X144221774Y-62648937D01*
X144257908Y-62612803D01*
X144297396Y-62580396D01*
X144329803Y-62540908D01*
X144365937Y-62504774D01*
X144394328Y-62462284D01*
X144426734Y-62422797D01*
X144450814Y-62377746D01*
X144479205Y-62335256D01*
X144498762Y-62288042D01*
X144522841Y-62242993D01*
X144537669Y-62194113D01*
X144557226Y-62146898D01*
X144567196Y-62096777D01*
X144582024Y-62047895D01*
X144587031Y-61997057D01*
X144597000Y-61946939D01*
X144597000Y-61895838D01*
X144602007Y-61845000D01*
X144597000Y-61794162D01*
X144597000Y-59802283D01*
X144620537Y-59830963D01*
X144862265Y-60029345D01*
X145138051Y-60176755D01*
X145437296Y-60267530D01*
X145670514Y-60290500D01*
X145921486Y-60290500D01*
X146154704Y-60267530D01*
X146453949Y-60176755D01*
X146729735Y-60029345D01*
X146971463Y-59830963D01*
X147169845Y-59589235D01*
X147317255Y-59313449D01*
X147408030Y-59014204D01*
X147438681Y-58703000D01*
X147408030Y-58391796D01*
X147317255Y-58092551D01*
X147169845Y-57816765D01*
X146971463Y-57575037D01*
X146798391Y-57433000D01*
X146934443Y-57321344D01*
X162917000Y-57321344D01*
X162917000Y-57692656D01*
X162989439Y-58056834D01*
X163131534Y-58399882D01*
X163337825Y-58708618D01*
X163600382Y-58971175D01*
X163909118Y-59177466D01*
X164252166Y-59319561D01*
X164616344Y-59392000D01*
X164987656Y-59392000D01*
X165351834Y-59319561D01*
X165694882Y-59177466D01*
X166003618Y-58971175D01*
X166266175Y-58708618D01*
X166472466Y-58399882D01*
X166614561Y-58056834D01*
X166687000Y-57692656D01*
X166687000Y-57321344D01*
X166614561Y-56957166D01*
X166472466Y-56614118D01*
X166266175Y-56305382D01*
X166217793Y-56257000D01*
X167993928Y-56257000D01*
X167993928Y-58757000D01*
X168006188Y-58881482D01*
X168042498Y-59001180D01*
X168101463Y-59111494D01*
X168180815Y-59208185D01*
X168277506Y-59287537D01*
X168387820Y-59346502D01*
X168507518Y-59382812D01*
X168632000Y-59395072D01*
X171132000Y-59395072D01*
X171256482Y-59382812D01*
X171376180Y-59346502D01*
X171486494Y-59287537D01*
X171583185Y-59208185D01*
X171662537Y-59111494D01*
X171721502Y-59001180D01*
X171757812Y-58881482D01*
X171770072Y-58757000D01*
X171770072Y-57319344D01*
X173067000Y-57319344D01*
X173067000Y-57690656D01*
X173139439Y-58054834D01*
X173281534Y-58397882D01*
X173487825Y-58706618D01*
X173750382Y-58969175D01*
X174059118Y-59175466D01*
X174402166Y-59317561D01*
X174766344Y-59390000D01*
X175137656Y-59390000D01*
X175501834Y-59317561D01*
X175844882Y-59175466D01*
X176153618Y-58969175D01*
X176416175Y-58706618D01*
X176622466Y-58397882D01*
X176764561Y-58054834D01*
X176837000Y-57690656D01*
X176837000Y-57319344D01*
X176764561Y-56955166D01*
X176622466Y-56612118D01*
X176416175Y-56303382D01*
X176367793Y-56255000D01*
X178143928Y-56255000D01*
X178143928Y-58755000D01*
X178156188Y-58879482D01*
X178192498Y-58999180D01*
X178251463Y-59109494D01*
X178330815Y-59206185D01*
X178427506Y-59285537D01*
X178537820Y-59344502D01*
X178657518Y-59380812D01*
X178782000Y-59393072D01*
X181282000Y-59393072D01*
X181406482Y-59380812D01*
X181526180Y-59344502D01*
X181636494Y-59285537D01*
X181733185Y-59206185D01*
X181812537Y-59109494D01*
X181871502Y-58999180D01*
X181907812Y-58879482D01*
X181920072Y-58755000D01*
X181920072Y-57309344D01*
X183217000Y-57309344D01*
X183217000Y-57680656D01*
X183289439Y-58044834D01*
X183431534Y-58387882D01*
X183637825Y-58696618D01*
X183900382Y-58959175D01*
X184209118Y-59165466D01*
X184552166Y-59307561D01*
X184916344Y-59380000D01*
X185287656Y-59380000D01*
X185651834Y-59307561D01*
X185994882Y-59165466D01*
X186303618Y-58959175D01*
X186566175Y-58696618D01*
X186772466Y-58387882D01*
X186914561Y-58044834D01*
X186987000Y-57680656D01*
X186987000Y-57309344D01*
X186914561Y-56945166D01*
X186772466Y-56602118D01*
X186566175Y-56293382D01*
X186517793Y-56245000D01*
X188293928Y-56245000D01*
X188293928Y-58745000D01*
X188306188Y-58869482D01*
X188342498Y-58989180D01*
X188401463Y-59099494D01*
X188480815Y-59196185D01*
X188577506Y-59275537D01*
X188687820Y-59334502D01*
X188807518Y-59370812D01*
X188932000Y-59383072D01*
X191432000Y-59383072D01*
X191556482Y-59370812D01*
X191676180Y-59334502D01*
X191786494Y-59275537D01*
X191883185Y-59196185D01*
X191962537Y-59099494D01*
X192021502Y-58989180D01*
X192057812Y-58869482D01*
X192070072Y-58745000D01*
X192070072Y-57299344D01*
X193367000Y-57299344D01*
X193367000Y-57670656D01*
X193439439Y-58034834D01*
X193581534Y-58377882D01*
X193787825Y-58686618D01*
X194050382Y-58949175D01*
X194359118Y-59155466D01*
X194702166Y-59297561D01*
X195066344Y-59370000D01*
X195437656Y-59370000D01*
X195801834Y-59297561D01*
X196144882Y-59155466D01*
X196453618Y-58949175D01*
X196716175Y-58686618D01*
X196922466Y-58377882D01*
X197064561Y-58034834D01*
X197137000Y-57670656D01*
X197137000Y-57299344D01*
X197064561Y-56935166D01*
X196922466Y-56592118D01*
X196716175Y-56283382D01*
X196667793Y-56235000D01*
X198443928Y-56235000D01*
X198443928Y-58735000D01*
X198456188Y-58859482D01*
X198492498Y-58979180D01*
X198551463Y-59089494D01*
X198630815Y-59186185D01*
X198727506Y-59265537D01*
X198837820Y-59324502D01*
X198957518Y-59360812D01*
X199082000Y-59373072D01*
X201582000Y-59373072D01*
X201706482Y-59360812D01*
X201826180Y-59324502D01*
X201936494Y-59265537D01*
X202033185Y-59186185D01*
X202112537Y-59089494D01*
X202171502Y-58979180D01*
X202207812Y-58859482D01*
X202220072Y-58735000D01*
X202220072Y-56235000D01*
X202207812Y-56110518D01*
X202171502Y-55990820D01*
X202112537Y-55880506D01*
X202033185Y-55783815D01*
X201936494Y-55704463D01*
X201826180Y-55645498D01*
X201706482Y-55609188D01*
X201582000Y-55596928D01*
X199082000Y-55596928D01*
X198957518Y-55609188D01*
X198837820Y-55645498D01*
X198727506Y-55704463D01*
X198630815Y-55783815D01*
X198551463Y-55880506D01*
X198492498Y-55990820D01*
X198456188Y-56110518D01*
X198443928Y-56235000D01*
X196667793Y-56235000D01*
X196453618Y-56020825D01*
X196144882Y-55814534D01*
X195801834Y-55672439D01*
X195437656Y-55600000D01*
X195066344Y-55600000D01*
X194702166Y-55672439D01*
X194359118Y-55814534D01*
X194050382Y-56020825D01*
X193787825Y-56283382D01*
X193581534Y-56592118D01*
X193439439Y-56935166D01*
X193367000Y-57299344D01*
X192070072Y-57299344D01*
X192070072Y-56245000D01*
X192057812Y-56120518D01*
X192021502Y-56000820D01*
X191962537Y-55890506D01*
X191883185Y-55793815D01*
X191786494Y-55714463D01*
X191676180Y-55655498D01*
X191556482Y-55619188D01*
X191432000Y-55606928D01*
X188932000Y-55606928D01*
X188807518Y-55619188D01*
X188687820Y-55655498D01*
X188577506Y-55714463D01*
X188480815Y-55793815D01*
X188401463Y-55890506D01*
X188342498Y-56000820D01*
X188306188Y-56120518D01*
X188293928Y-56245000D01*
X186517793Y-56245000D01*
X186303618Y-56030825D01*
X185994882Y-55824534D01*
X185651834Y-55682439D01*
X185287656Y-55610000D01*
X184916344Y-55610000D01*
X184552166Y-55682439D01*
X184209118Y-55824534D01*
X183900382Y-56030825D01*
X183637825Y-56293382D01*
X183431534Y-56602118D01*
X183289439Y-56945166D01*
X183217000Y-57309344D01*
X181920072Y-57309344D01*
X181920072Y-56255000D01*
X181907812Y-56130518D01*
X181871502Y-56010820D01*
X181812537Y-55900506D01*
X181733185Y-55803815D01*
X181636494Y-55724463D01*
X181526180Y-55665498D01*
X181406482Y-55629188D01*
X181282000Y-55616928D01*
X178782000Y-55616928D01*
X178657518Y-55629188D01*
X178537820Y-55665498D01*
X178427506Y-55724463D01*
X178330815Y-55803815D01*
X178251463Y-55900506D01*
X178192498Y-56010820D01*
X178156188Y-56130518D01*
X178143928Y-56255000D01*
X176367793Y-56255000D01*
X176153618Y-56040825D01*
X175844882Y-55834534D01*
X175501834Y-55692439D01*
X175137656Y-55620000D01*
X174766344Y-55620000D01*
X174402166Y-55692439D01*
X174059118Y-55834534D01*
X173750382Y-56040825D01*
X173487825Y-56303382D01*
X173281534Y-56612118D01*
X173139439Y-56955166D01*
X173067000Y-57319344D01*
X171770072Y-57319344D01*
X171770072Y-56257000D01*
X171757812Y-56132518D01*
X171721502Y-56012820D01*
X171662537Y-55902506D01*
X171583185Y-55805815D01*
X171486494Y-55726463D01*
X171376180Y-55667498D01*
X171256482Y-55631188D01*
X171132000Y-55618928D01*
X168632000Y-55618928D01*
X168507518Y-55631188D01*
X168387820Y-55667498D01*
X168277506Y-55726463D01*
X168180815Y-55805815D01*
X168101463Y-55902506D01*
X168042498Y-56012820D01*
X168006188Y-56132518D01*
X167993928Y-56257000D01*
X166217793Y-56257000D01*
X166003618Y-56042825D01*
X165694882Y-55836534D01*
X165351834Y-55694439D01*
X164987656Y-55622000D01*
X164616344Y-55622000D01*
X164252166Y-55694439D01*
X163909118Y-55836534D01*
X163600382Y-56042825D01*
X163337825Y-56305382D01*
X163131534Y-56614118D01*
X162989439Y-56957166D01*
X162917000Y-57321344D01*
X146934443Y-57321344D01*
X146971463Y-57290963D01*
X147169845Y-57049235D01*
X147317255Y-56773449D01*
X147408030Y-56474204D01*
X147438681Y-56163000D01*
X147408030Y-55851796D01*
X147317255Y-55552551D01*
X147169845Y-55276765D01*
X147066554Y-55150905D01*
X147150494Y-55106037D01*
X147247185Y-55026685D01*
X147326537Y-54929994D01*
X147385502Y-54819680D01*
X147421812Y-54699982D01*
X147434072Y-54575500D01*
X147434072Y-52670500D01*
X147421812Y-52546018D01*
X147385502Y-52426320D01*
X147326537Y-52316006D01*
X147247185Y-52219315D01*
X147150494Y-52139963D01*
X147040180Y-52080998D01*
X146920482Y-52044688D01*
X146796000Y-52032428D01*
X144796000Y-52032428D01*
X144671518Y-52044688D01*
X144551820Y-52080998D01*
X144441506Y-52139963D01*
X144344815Y-52219315D01*
X144265463Y-52316006D01*
X144206498Y-52426320D01*
X144170188Y-52546018D01*
X144157928Y-52670500D01*
X144157928Y-52863538D01*
X144128604Y-52887604D01*
X144096197Y-52927092D01*
X142866097Y-54157193D01*
X142826604Y-54189604D01*
X142700098Y-54343752D01*
X142572983Y-54216637D01*
X142223302Y-53982988D01*
X141834756Y-53822047D01*
X141422279Y-53740000D01*
X141001721Y-53740000D01*
X140589244Y-53822047D01*
X140200698Y-53982988D01*
X139851017Y-54216637D01*
X139553637Y-54514017D01*
X139319988Y-54863698D01*
X139159047Y-55252244D01*
X139077000Y-55664721D01*
X120747000Y-55664721D01*
X120664953Y-55252244D01*
X120504012Y-54863698D01*
X120270363Y-54514017D01*
X119972983Y-54216637D01*
X119623302Y-53982988D01*
X119234756Y-53822047D01*
X118822279Y-53740000D01*
X118401721Y-53740000D01*
X117989244Y-53822047D01*
X117600698Y-53982988D01*
X117251017Y-54216637D01*
X116953637Y-54514017D01*
X116719988Y-54863698D01*
X116559047Y-55252244D01*
X116477000Y-55664721D01*
X113140598Y-55664721D01*
X113163185Y-55646185D01*
X113242537Y-55549494D01*
X113301502Y-55439180D01*
X113337812Y-55319482D01*
X113350072Y-55195000D01*
X113347000Y-54180750D01*
X113188250Y-54022000D01*
X111539000Y-54022000D01*
X111285000Y-54022000D01*
X109635750Y-54022000D01*
X109477000Y-54180750D01*
X109473928Y-55195000D01*
X106539000Y-55195000D01*
X106539000Y-52595000D01*
X109473928Y-52595000D01*
X109477000Y-53609250D01*
X109635750Y-53768000D01*
X111285000Y-53768000D01*
X111285000Y-52118750D01*
X111539000Y-52118750D01*
X111539000Y-53768000D01*
X113188250Y-53768000D01*
X113347000Y-53609250D01*
X113350072Y-52595000D01*
X113337812Y-52470518D01*
X113301502Y-52350820D01*
X113242537Y-52240506D01*
X113163185Y-52143815D01*
X113066494Y-52064463D01*
X112956180Y-52005498D01*
X112836482Y-51969188D01*
X112712000Y-51956928D01*
X111697750Y-51960000D01*
X111539000Y-52118750D01*
X111285000Y-52118750D01*
X111126250Y-51960000D01*
X110112000Y-51956928D01*
X109987518Y-51969188D01*
X109867820Y-52005498D01*
X109757506Y-52064463D01*
X109660815Y-52143815D01*
X109581463Y-52240506D01*
X109522498Y-52350820D01*
X109486188Y-52470518D01*
X109473928Y-52595000D01*
X106539000Y-52595000D01*
X106539000Y-49485000D01*
X204229542Y-49485000D01*
X204217186Y-55778316D01*
G37*
G04 #@! TD.AperFunction*
D26*
X130258939Y-78407359D02*
X130405038Y-78626013D01*
X130590987Y-78811962D01*
X130809641Y-78958061D01*
X131019530Y-79045000D01*
X130809641Y-79131939D01*
X130590987Y-79278038D01*
X130405038Y-79463987D01*
X130258939Y-79682641D01*
X130170379Y-79896444D01*
X130110935Y-79733634D01*
X130057037Y-79632797D01*
X129823269Y-79573336D01*
X129081605Y-80315000D01*
X129095748Y-80329143D01*
X128916143Y-80508748D01*
X128902000Y-80494605D01*
X128887858Y-80508748D01*
X128708253Y-80329143D01*
X128722395Y-80315000D01*
X127980731Y-79573336D01*
X127746963Y-79632797D01*
X127636066Y-79871242D01*
X127631294Y-79890827D01*
X127545061Y-79682641D01*
X127398962Y-79463987D01*
X127213013Y-79278038D01*
X126994359Y-79131939D01*
X126784470Y-79045000D01*
X126994359Y-78958061D01*
X127213013Y-78811962D01*
X127398962Y-78626013D01*
X127545061Y-78407359D01*
X127632000Y-78197470D01*
X127718939Y-78407359D01*
X127865038Y-78626013D01*
X128050987Y-78811962D01*
X128269641Y-78958061D01*
X128483444Y-79046621D01*
X128320634Y-79106065D01*
X128219797Y-79159963D01*
X128160336Y-79393731D01*
X128902000Y-80135395D01*
X129643664Y-79393731D01*
X129584203Y-79159963D01*
X129345758Y-79049066D01*
X129326173Y-79044294D01*
X129534359Y-78958061D01*
X129753013Y-78811962D01*
X129938962Y-78626013D01*
X130085061Y-78407359D01*
X130172000Y-78197470D01*
X130258939Y-78407359D01*
G04 #@! TA.AperFunction,Conductor*
D27*
G36*
X130258939Y-78407359D02*
G01*
X130405038Y-78626013D01*
X130590987Y-78811962D01*
X130809641Y-78958061D01*
X131019530Y-79045000D01*
X130809641Y-79131939D01*
X130590987Y-79278038D01*
X130405038Y-79463987D01*
X130258939Y-79682641D01*
X130170379Y-79896444D01*
X130110935Y-79733634D01*
X130057037Y-79632797D01*
X129823269Y-79573336D01*
X129081605Y-80315000D01*
X129095748Y-80329143D01*
X128916143Y-80508748D01*
X128902000Y-80494605D01*
X128887858Y-80508748D01*
X128708253Y-80329143D01*
X128722395Y-80315000D01*
X127980731Y-79573336D01*
X127746963Y-79632797D01*
X127636066Y-79871242D01*
X127631294Y-79890827D01*
X127545061Y-79682641D01*
X127398962Y-79463987D01*
X127213013Y-79278038D01*
X126994359Y-79131939D01*
X126784470Y-79045000D01*
X126994359Y-78958061D01*
X127213013Y-78811962D01*
X127398962Y-78626013D01*
X127545061Y-78407359D01*
X127632000Y-78197470D01*
X127718939Y-78407359D01*
X127865038Y-78626013D01*
X128050987Y-78811962D01*
X128269641Y-78958061D01*
X128483444Y-79046621D01*
X128320634Y-79106065D01*
X128219797Y-79159963D01*
X128160336Y-79393731D01*
X128902000Y-80135395D01*
X129643664Y-79393731D01*
X129584203Y-79159963D01*
X129345758Y-79049066D01*
X129326173Y-79044294D01*
X129534359Y-78958061D01*
X129753013Y-78811962D01*
X129938962Y-78626013D01*
X130085061Y-78407359D01*
X130172000Y-78197470D01*
X130258939Y-78407359D01*
G37*
G04 #@! TD.AperFunction*
D26*
X146739000Y-67858000D02*
X146759000Y-67858000D01*
X146759000Y-68112000D01*
X146739000Y-68112000D01*
X146739000Y-68132000D01*
X146485000Y-68132000D01*
X146485000Y-68112000D01*
X146465000Y-68112000D01*
X146465000Y-67858000D01*
X146485000Y-67858000D01*
X146485000Y-67838000D01*
X146739000Y-67838000D01*
X146739000Y-67858000D01*
G04 #@! TA.AperFunction,Conductor*
D27*
G36*
X146739000Y-67858000D02*
G01*
X146759000Y-67858000D01*
X146759000Y-68112000D01*
X146739000Y-68112000D01*
X146739000Y-68132000D01*
X146485000Y-68132000D01*
X146485000Y-68112000D01*
X146465000Y-68112000D01*
X146465000Y-67858000D01*
X146485000Y-67858000D01*
X146485000Y-67838000D01*
X146739000Y-67838000D01*
X146739000Y-67858000D01*
G37*
G04 #@! TD.AperFunction*
D26*
X210695001Y-85348933D02*
X205464308Y-85123372D01*
X205491733Y-74281452D01*
X210695000Y-74273932D01*
X210695001Y-85348933D01*
G04 #@! TA.AperFunction,Conductor*
D27*
G36*
X210695001Y-85348933D02*
G01*
X205464308Y-85123372D01*
X205491733Y-74281452D01*
X210695000Y-74273932D01*
X210695001Y-85348933D01*
G37*
G04 #@! TD.AperFunction*
M02*
